<svg width="48" height="48" xmlns="http://www.w3.org/2000/svg" viewBox="-0.693 -1.248 16.956 16.956"><path fill="#808080" d="m 7.72348541787,4.03978335228E-07 c -1.976,0.089 -3.204,1.658 -3.214,3.29 c 0.019,1.443 1.635,3.481 2.884,4.53 c 0.12,0.099 0.154,0.109 0.33,0.18 c 0.062,0.025 0.198,-0.047 0.327,-0.135 c 0.36,-0.245 0.993,-0.947 1.648,-1.738 a 7.67,7.67 0 0,0 1.031,-1.683 c 0.409,-0.89 0.261,-1.599 0.235,-1.888 a 3.983,3.983 0 0,0 -0.99,-1.692 a 3.36,3.36 0 0,0 -2.251,-0.864 z"/><path fill="#808080" d="m 11.8954854179,7.92200040398 a 10.185,10.185 0 0,0 -3.244,0.61 c -0.15,0.058 -0.26,0.1 -0.374,0.17 c -0.057,0.036 -0.11,0.135 -0.105,0.292 c 0.017,0.433 0.29,1.278 0.624,2.27 c 0.384,1.135 1.066,2.27 1.844,2.74 a 3.23,3.23 0 0,0 2.53,0.342 c 0.832,-0.243 1.595,-0.868 1.962,-1.546 c 0.986,-1.818 0.19,-3.548 -1.121,-4.417 c -0.447,-0.296 -1.133,-0.445 -1.89,-0.46 c -0.074,0 -0.15,-0.002 -0.226,-0.000999999999999 z"/><path fill="#808080" d="m 3.46348541787,7.96000040398 a 6.201,6.201 0 0,0 -0.752,0.047 c -0.596,0.078 -0.932,0.273 -1.29,0.51 a 3.177,3.177 0 0,0 -1.365,1.979 c -0.075,0.552 -0.086,1.053 0.033,1.507 c 0.433,1.389 1.326,2.222 2.847,2.452 c 0.636,0.028 1.37,-0.063 1.99,-0.45 c 1.269,-0.782 2.08,-3.17 2.412,-4.742 c 0.053,-0.176 0.035,-0.357 -0.013,-0.42 c -0.005,-0.067 -0.044,-0.113 -0.19,-0.183 c -0.398,-0.192 -1.32,-0.417 -2.375,-0.6 a 7.68,7.68 0 0,0 -1.297,-0.1 z"/></svg>
