<?xml version="1.0" encoding="utf-8"?>
<svg width="48" height="48" viewBox="-15.146 -15.146 370.292 370.292" version="1.1" xmlns:xlink="http://www.w3.org/1999/xlink" xmlns="http://www.w3.org/2000/svg">
  <defs>
    <linearGradient gradientUnits="userSpaceOnUse" x1="0" y1="0" x2="340" y2="340" id="gradient_1">
      <stop offset="0%" stop-color="#0583D6" />
      <stop offset="87.12871%" stop-color="#7EBDE7" />
    </linearGradient>
  </defs>
  <g id="Logo-mark-gradient-color">
    <path d="M37.7779 0L37.7779 37.7778L56.6667 37.7778L56.6667 0L340 0L340 340L0 340L0 56.6667L37.7771 56.6667L37.7771 37.7778L0 37.7778L0 0L37.7779 0L37.7779 0ZM37.7778 37.7827L37.7778 302.227L302.222 302.227L302.222 37.7827L37.7778 37.7827L37.7778 37.7827ZM56.6685 56.6628L56.6685 100.737L100.743 100.737L100.743 56.6628L56.6685 56.6628L56.6685 56.6628ZM119.629 56.6628L119.629 100.737L163.703 100.737L163.703 56.6628L119.629 56.6628L119.629 56.6628ZM182.594 56.6628L182.594 100.737L226.668 100.737L226.668 56.6628L182.594 56.6628L182.594 56.6628ZM56.6685 119.634L56.6685 163.708L100.743 163.708L100.743 119.634L56.6685 119.634L56.6685 119.634ZM119.629 119.634L119.629 163.708L163.703 163.708L163.703 119.634L119.629 119.634L119.629 119.634ZM56.6685 182.594L56.6685 226.668L100.743 226.668L100.743 182.594L56.6685 182.594L56.6685 182.594Z" id="Vector" fill="url(#gradient_1)" fill-rule="evenodd" stroke="none" />
  </g>
</svg>