<svg width="48" height="48" viewBox="113.118 253.181 1455.828 1455.828" fill="none" xmlns="http://www.w3.org/2000/svg">
<path d="M1390.77 1352.99L881.516 1647.47C862.339 1657.11 838.261 1642.76 838.261 1623.27V1024.46C838.261 995.551 852.75 971.35 876.615 956.787L1241.83 744.334L1395.67 657.382C1414.85 647.745 1438.93 662.308 1438.93 681.583V1265.83C1443.62 1309.3 1424.44 1338.22 1390.77 1352.78V1352.99ZM799.907 314.717L483.272 496.544L294.058 605.34C262.309 623.544 242.706 657.597 242.706 694.219V1285.32C242.706 1304.59 266.784 1319.16 285.961 1309.52L410.825 1232.2C420.414 1227.28 425.315 1217.64 425.315 1208V792.736C425.315 763.823 439.804 734.911 468.569 720.347L828.886 507.895C838.474 503.183 843.375 493.331 843.375 483.694V338.917C843.375 319.642 819.297 305.079 800.12 314.717H799.907ZM1102.69 483.694L694.859 717.992V718.634L596.843 774.96C565.094 793.164 545.491 827.216 545.491 863.839V1454.29C545.491 1473.57 569.568 1488.13 588.746 1478.5L713.61 1401.18C723.198 1396.26 728.099 1386.62 728.099 1376.98V956.787C728.099 932.586 742.589 908.385 761.766 894.036L1131.67 676.658C1141.26 671.732 1146.16 662.094 1146.16 652.457V507.466C1146.16 488.191 1122.08 473.628 1102.9 483.266L1102.69 483.694Z" fill="#808080"/>
</svg>
