<?xml version="1.0" encoding="UTF-8"?><svg id="uuid-627322c7-de3b-4c94-855e-69ee564f29ae" xmlns="http://www.w3.org/2000/svg" width="64" height="64" viewBox="0 0 64 64"><defs><style>.uuid-8bf6bb44-8d41-40d9-b674-20c164369234{fill:none;}.uuid-8bf6bb44-8d41-40d9-b674-20c164369234,.uuid-5ed28b20-c068-4654-b1df-d801ae4aa3a2{stroke-width:0px;}.uuid-5ed28b20-c068-4654-b1df-d801ae4aa3a2{fill:#fff;}</style></defs><path class="uuid-8bf6bb44-8d41-40d9-b674-20c164369234" d="M0,0h64v64H0V0Z"/><path class="uuid-5ed28b20-c068-4654-b1df-d801ae4aa3a2" d="M32,5.3333c-14.72,0-26.6667,11.9467-26.6667,26.6667s11.9467,26.6667,26.6667,26.6667,26.6667-11.9467,26.6667-26.6667S46.72,5.3333,32,5.3333ZM32,53.3333c-11.7867,0-21.3333-9.5467-21.3333-21.3333s9.5467-21.3333,21.3333-21.3333,21.3333,9.5467,21.3333,21.3333-9.5467,21.3333-21.3333,21.3333ZM32,18.6667c7.3638,0,13.3333,5.9695,13.3333,13.3333s-5.9695,13.3333-13.3333,13.3333-13.3333-5.9695-13.3333-13.3333,5.9695-13.3333,13.3333-13.3333Z"/></svg>