<?xml version="1.0" encoding="utf-8"?>
<!-- Generator: Adobe Illustrator 28.1.0, SVG Export Plug-In . SVG Version: 6.00 Build 0)  -->
<svg version="1.1"
	 id="svg8" xmlns:inkscape="http://www.inkscape.org/namespaces/inkscape" xmlns:sodipodi="http://sodipodi.sourceforge.net/DTD/sodipodi-0.dtd" xmlns:svg="http://www.w3.org/2000/svg" xmlns:cc="http://creativecommons.org/ns#" xmlns:dc="http://purl.org/dc/elements/1.1/" xmlns:rdf="http://www.w3.org/1999/02/22-rdf-syntax-ns#" inkscape:export-filename="/home/yeison/Development/piton/art/icon_lite.png" inkscape:export-xdpi="96" inkscape:export-ydpi="96"
	 xmlns="http://www.w3.org/2000/svg" xmlns:xlink="http://www.w3.org/1999/xlink" x="0px" y="0px" viewBox="0 0 20 20"
	 style="enable-background:new 0 0 20 20;" xml:space="preserve">
<style type="text/css">
	.st0{display:none;}
	.st1{display:inline;}
	.st2{fill:none;stroke:#000000;stroke-width:2.753704e-02;stroke-linecap:round;stroke-linejoin:round;stroke-miterlimit:1.5734;}
	.st3{fill:none;stroke:#000000;stroke-width:2.432715e-02;stroke-linecap:round;stroke-linejoin:round;stroke-miterlimit:1.5734;}
	.st4{fill:none;stroke:#000000;stroke-width:3.003666e-02;stroke-linecap:round;stroke-linejoin:round;stroke-miterlimit:1.5734;}
	.st5{fill:none;stroke:#000000;stroke-width:2.910646e-02;stroke-linecap:round;stroke-linejoin:round;stroke-miterlimit:1.5734;}
	.st6{fill:none;stroke:#000000;stroke-width:2.586111e-02;stroke-linecap:round;stroke-linejoin:round;stroke-miterlimit:1.5734;}
	.st7{fill:none;stroke:#000000;stroke-width:2.586113e-02;stroke-linecap:round;stroke-linejoin:round;stroke-miterlimit:1.5734;}
	.st8{fill:#FFFFFF;}
</style>
<sodipodi:namedview  bordercolor="#666666" borderopacity="1.0" fit-margin-bottom="0" fit-margin-left="0" fit-margin-right="0" fit-margin-top="0" id="base" inkscape:bbox-nodes="true" inkscape:bbox-paths="true" inkscape:current-layer="layer1" inkscape:cx="4.856024" inkscape:cy="9.6877956" inkscape:document-units="px" inkscape:guide-bbox="true" inkscape:object-paths="true" inkscape:pagecheckerboard="false" inkscape:pageopacity="0.0" inkscape:pageshadow="2" inkscape:showpageshadow="false" inkscape:snap-bbox="true" inkscape:snap-bbox-edge-midpoints="true" inkscape:snap-bbox-midpoints="true" inkscape:snap-global="true" inkscape:snap-intersection-paths="true" inkscape:snap-midpoints="true" inkscape:snap-nodes="true" inkscape:snap-smooth-nodes="true" inkscape:window-height="1004" inkscape:window-maximized="1" inkscape:window-width="1920" inkscape:window-x="0" inkscape:window-y="0" inkscape:zoom="16" pagecolor="#ffffff" showgrid="true" showguides="true" units="px">
	
		<inkscape:grid  dotted="false" empspacing="8" enabled="true" id="grid974" originx="0" originy="0" snapvisiblegridlinesonly="true" spacingx="0.26458332" spacingy="0.26458332" type="xygrid" visible="true">
		</inkscape:grid>
</sodipodi:namedview>
<g id="layer1" transform="translate(0,-291.70835)" inkscape:groupmode="layer" inkscape:label="Layer 1">
	<g id="g847" transform="matrix(0.05207439,0,0,0.05207453,-0.90125164,282.41203)" class="st0">
		<g id="g851" class="st1">
			<g id="g1059" transform="matrix(1.9986219,0,0,1.9986185,17.324484,-313.52314)">
				
					<path id="path883" inkscape:connector-curvature="0" inkscape:transform-center-y="3.175" sodipodi:nodetypes="cccc" class="st2" d="
					M96,342.2l-96-96h192L96,342.2z"/>
				
					<path id="path880" inkscape:connector-curvature="0" inkscape:transform-center-y="-3.1749995" sodipodi:nodetypes="cccc" class="st2" d="
					M96,342.2l96,96H0L96,342.2z"/>
				<path id="rect870" class="st3" d="M48,275.1h96.1c10.5,0,19.1,8.6,19.1,19.1v96.1c0,10.5-8.6,19.1-19.1,19.1H48
					c-10.5,0-19.1-8.6-19.1-19.1v-96.1C28.9,283.7,37.5,275.1,48,275.1z"/>
				<circle id="path872" class="st4" cx="96" cy="342.2" r="96"/>
				<circle id="path876" class="st5" cx="96" cy="342.2" r="47.8"/>
				
					<path id="path904" inkscape:connector-curvature="0" inkscape:transform-center-x="-3.1749999" sodipodi:nodetypes="cccc" class="st2" d="
					M96,342.2l-96,96v-192L96,342.2z"/>
				
					<path id="path906" inkscape:connector-curvature="0" inkscape:transform-center-x="3.175" sodipodi:nodetypes="cccc" class="st2" d="
					M96,342.2l96-96v192L96,342.2z"/>
				<path id="rect837" class="st6" d="M28.8,284.7h134.5c10.5,0,19.1,8.5,19.1,19.1v76.9c0,10.5-8.5,19.1-19.1,19.1H28.8
					c-10.5,0-19.1-8.5-19.1-19.1v-76.9C9.7,293.3,18.3,284.7,28.8,284.7z"/>
				<path id="rect831" class="st7" d="M153.6,275v134.5c0,10.5-8.5,19.1-19.1,19.1H57.6c-10.5,0-19.1-8.5-19.1-19.1V275
					c0-10.5,8.5-19.1,19.1-19.1h76.9C145.1,255.9,153.6,264.5,153.6,275z"/>
			</g>
		</g>
	</g>
	<rect id="rect832" x="16" y="307.7" class="st8" width="2" height="2"/>
	<rect id="rect836" x="4" y="307.7" class="st8" width="2" height="2"/>
	<rect id="rect838" x="10" y="307.7" class="st8" width="2" height="2"/>
	<rect id="rect840" x="16" y="295.7" class="st8" width="2" height="2"/>
	<rect id="rect842" x="7" y="304.7" class="st8" width="2" height="2"/>
	<rect id="rect844" x="13" y="304.7" class="st8" width="2" height="2"/>
	<rect id="rect846" x="16" y="301.7" class="st8" width="2" height="2"/>
	<rect id="rect848" x="13" y="298.7" class="st8" width="2" height="2"/>
	<rect id="rect852" x="10" y="301.7" class="st8" width="2" height="2"/>
</g>
</svg>
