<?xml version="1.0" encoding="UTF-8"?><svg id="uuid-a1989bf8-43e9-445d-b6c8-194786ac15ba" xmlns="http://www.w3.org/2000/svg" width="64" height="64" viewBox="0 0 64 64"><defs><style>.uuid-21bc6068-1a6f-4cbd-91ff-3a76a89ec356{fill:none;}.uuid-21bc6068-1a6f-4cbd-91ff-3a76a89ec356,.uuid-9953b779-96c8-48bd-8fac-1aaf0a9e3651{stroke-width:0px;}.uuid-9953b779-96c8-48bd-8fac-1aaf0a9e3651{fill:#a2a2a2;}</style></defs><rect class="uuid-21bc6068-1a6f-4cbd-91ff-3a76a89ec356" width="64" height="64"/><rect class="uuid-21bc6068-1a6f-4cbd-91ff-3a76a89ec356" width="64" height="64"/><path class="uuid-9953b779-96c8-48bd-8fac-1aaf0a9e3651" d="M32,5.3333c-14.72,0-26.6667,11.9467-26.6667,26.6667s11.9467,26.6667,26.6667,26.6667,26.6667-11.9467,26.6667-26.6667S46.72,5.3333,32,5.3333ZM18.6667,36c-2.2133,0-4-1.7867-4-4s1.7867-4,4-4,4,1.7867,4,4-1.7867,4-4,4ZM32,36c-2.2133,0-4-1.7867-4-4s1.7867-4,4-4,4,1.7867,4,4-1.7867,4-4,4ZM45.3333,36c-2.2133,0-4-1.7867-4-4s1.7867-4,4-4,4,1.7867,4,4-1.7867,4-4,4Z"/></svg>