<?xml version="1.0" encoding="UTF-8"?><svg id="uuid-0f1209e2-aaa8-4e3b-b0d7-ca5e4ffee7cd" xmlns="http://www.w3.org/2000/svg" width="64" height="64" viewBox="0 0 64 64"><defs><style>.uuid-4081ab78-95d7-42e5-a5ed-5ca4a2c23f94{fill:#606060;}.uuid-4081ab78-95d7-42e5-a5ed-5ca4a2c23f94,.uuid-f5e77f3c-ba54-4115-a2d3-6668731063a0{stroke-width:0px;}.uuid-f5e77f3c-ba54-4115-a2d3-6668731063a0{fill:none;}</style></defs><path class="uuid-f5e77f3c-ba54-4115-a2d3-6668731063a0" d="M0,0h64v64H0V0Z"/><path class="uuid-4081ab78-95d7-42e5-a5ed-5ca4a2c23f94" d="M50.6667,8H13.3333c-2.9333,0-5.3333,2.4-5.3333,5.3333v37.3333c0,2.9333,2.4,5.3333,5.3333,5.3333h37.3333c2.9333,0,5.3333-2.4,5.3333-5.3333V13.3333c0-2.9333-2.4-5.3333-5.3333-5.3333ZM28.56,43.44c-1.04,1.04-2.72,1.04-3.76,0l-9.5733-9.5733c-1.04-1.04-1.04-2.72,0-3.76s2.72-1.04,3.76,0l7.68,7.68,18.3467-18.3467c1.04-1.04,2.72-1.04,3.76,0s1.04,2.72,0,3.76l-20.2133,20.24Z"/></svg>