<?xml version="1.0" encoding="UTF-8"?><svg id="uuid-cde9ce39-83e3-46fe-aff7-61e9cbaac9c3" xmlns="http://www.w3.org/2000/svg" width="64" height="64" viewBox="0 0 64 64"><defs><style>.uuid-561391fb-2444-42e0-a8c6-d62bf170505a{fill:none;}.uuid-561391fb-2444-42e0-a8c6-d62bf170505a,.uuid-8de58ad3-4616-4e92-91b1-da52cb718267{stroke-width:0px;}.uuid-8de58ad3-4616-4e92-91b1-da52cb718267{fill:#424242;}</style></defs><path class="uuid-561391fb-2444-42e0-a8c6-d62bf170505a" d="M0,0h64v64H0V0Z"/><path class="uuid-8de58ad3-4616-4e92-91b1-da52cb718267" d="M50.6667,8H13.3333c-2.9333,0-5.3333,2.4-5.3333,5.3333v37.3333c0,2.9333,2.4,5.3333,5.3333,5.3333h37.3333c2.9333,0,5.3333-2.4,5.3333-5.3333V13.3333c0-2.9333-2.4-5.3333-5.3333-5.3333ZM42.6667,34.6667h-21.3333c-1.4667,0-2.6667-1.2-2.6667-2.6667s1.2-2.6667,2.6667-2.6667h21.3333c1.4667,0,2.6667,1.2,2.6667,2.6667s-1.2,2.6667-2.6667,2.6667Z"/></svg>