<?xml version="1.0" encoding="UTF-8"?><svg id="uuid-5ecf56c5-026b-4c32-ab2b-881b75087ae8" xmlns="http://www.w3.org/2000/svg" width="64" height="64" viewBox="0 0 64 64"><defs><style>.uuid-e74f44b3-6626-444f-b24a-761e33eb886d{fill:none;}.uuid-e74f44b3-6626-444f-b24a-761e33eb886d,.uuid-0eab699d-40aa-4901-9e50-5f87ffc37824{stroke-width:0px;}.uuid-0eab699d-40aa-4901-9e50-5f87ffc37824{fill:#424242;}</style></defs><path class="uuid-e74f44b3-6626-444f-b24a-761e33eb886d" d="M0,0h64v64H0V0Z"/><path class="uuid-0eab699d-40aa-4901-9e50-5f87ffc37824" d="M50.6667,8H13.3333c-2.9333,0-5.3333,2.4-5.3333,5.3333v37.3333c0,2.9333,2.4,5.3333,5.3333,5.3333h37.3333c2.9333,0,5.3333-2.4,5.3333-5.3333V13.3333c0-2.9333-2.4-5.3333-5.3333-5.3333ZM28.56,43.44c-1.04,1.04-2.72,1.04-3.76,0l-9.5733-9.5733c-1.04-1.04-1.04-2.72,0-3.76s2.72-1.04,3.76,0l7.68,7.68,18.3467-18.3467c1.04-1.04,2.72-1.04,3.76,0s1.04,2.72,0,3.76l-20.2133,20.24Z"/></svg>