<?xml version="1.0" encoding="UTF-8"?><svg id="uuid-addecd6a-5ef8-4904-8559-bf1387fd8387" xmlns="http://www.w3.org/2000/svg" width="64" height="64" viewBox="0 0 64 64"><defs><style>.uuid-947d8845-e404-40d6-a3b6-666827331591{fill:none;}.uuid-947d8845-e404-40d6-a3b6-666827331591,.uuid-487d8b8c-8c4a-4ce1-a3a5-dbd8b774b3ed{stroke-width:0px;}.uuid-487d8b8c-8c4a-4ce1-a3a5-dbd8b774b3ed{fill:#424242;}</style></defs><path class="uuid-947d8845-e404-40d6-a3b6-666827331591" d="M0,0h64v64H0V0Z"/><path class="uuid-487d8b8c-8c4a-4ce1-a3a5-dbd8b774b3ed" d="M32,5.3333c-14.7467,0-26.6667,11.92-26.6667,26.6667s11.92,26.6667,26.6667,26.6667,26.6667-11.92,26.6667-26.6667S46.7467,5.3333,32,5.3333ZM43.4667,43.4667c-1.04,1.04-2.72,1.04-3.76,0l-7.7067-7.7067-7.7067,7.7067c-1.04,1.04-2.72,1.04-3.76,0-1.04-1.04-1.04-2.72,0-3.76l7.7067-7.7067-7.7067-7.7067c-1.04-1.04-1.04-2.72,0-3.76,1.04-1.04,2.72-1.04,3.76,0l7.7067,7.7067,7.7067-7.7067c1.04-1.04,2.72-1.04,3.76,0,1.04,1.04,1.04,2.72,0,3.76l-7.7067,7.7067,7.7067,7.7067c1.0133,1.0133,1.0133,2.72,0,3.76Z"/></svg>