<?xml version="1.0" encoding="UTF-8"?><svg id="uuid-f499676c-aa62-4ae2-9a83-cdd448948666" xmlns="http://www.w3.org/2000/svg" width="64" height="64" viewBox="0 0 64 64"><defs><style>.uuid-c64c20b2-917b-4730-8203-288bb8d6bb3a{fill:none;}.uuid-c64c20b2-917b-4730-8203-288bb8d6bb3a,.uuid-99ca1596-abed-4d57-a95d-4f0e86d19715{stroke-width:0px;}.uuid-99ca1596-abed-4d57-a95d-4f0e86d19715{fill:#616161;}</style></defs><path class="uuid-c64c20b2-917b-4730-8203-288bb8d6bb3a" d="M0,0h64v64H0V0Z"/><path class="uuid-99ca1596-abed-4d57-a95d-4f0e86d19715" d="M32,5.3333c-14.7467,0-26.6667,11.92-26.6667,26.6667s11.92,26.6667,26.6667,26.6667,26.6667-11.92,26.6667-26.6667S46.7467,5.3333,32,5.3333ZM43.4667,43.4667c-1.04,1.04-2.72,1.04-3.76,0l-7.7067-7.7067-7.7067,7.7067c-1.04,1.04-2.72,1.04-3.76,0-1.04-1.04-1.04-2.72,0-3.76l7.7067-7.7067-7.7067-7.7067c-1.04-1.04-1.04-2.72,0-3.76,1.04-1.04,2.72-1.04,3.76,0l7.7067,7.7067,7.7067-7.7067c1.04-1.04,2.72-1.04,3.76,0,1.04,1.04,1.04,2.72,0,3.76l-7.7067,7.7067,7.7067,7.7067c1.0133,1.0133,1.0133,2.72,0,3.76Z"/></svg>