<?xml version="1.0" encoding="UTF-8"?><svg id="uuid-0326429e-e3bf-430a-b1a2-1aa0aac253b0" xmlns="http://www.w3.org/2000/svg" width="64" height="64" viewBox="0 0 64 64"><defs><style>.uuid-b4644839-d4f3-4a65-a154-9cd6dd698141{fill:none;}.uuid-b4644839-d4f3-4a65-a154-9cd6dd698141,.uuid-e0d14235-b076-4a31-952e-b186ab75c36a{stroke-width:0px;}.uuid-e0d14235-b076-4a31-952e-b186ab75c36a{fill:#616161;}</style></defs><path class="uuid-b4644839-d4f3-4a65-a154-9cd6dd698141" d="M0,0h64v64H0V0Z"/><path class="uuid-e0d14235-b076-4a31-952e-b186ab75c36a" d="M32,5.3333c-14.72,0-26.6667,11.9467-26.6667,26.6667s11.9467,26.6667,26.6667,26.6667,26.6667-11.9467,26.6667-26.6667S46.72,5.3333,32,5.3333ZM32,53.3333c-11.7867,0-21.3333-9.5467-21.3333-21.3333s9.5467-21.3333,21.3333-21.3333,21.3333,9.5467,21.3333,21.3333-9.5467,21.3333-21.3333,21.3333ZM32,18.6667c7.3638,0,13.3333,5.9695,13.3333,13.3333s-5.9695,13.3333-13.3333,13.3333-13.3333-5.9695-13.3333-13.3333,5.9695-13.3333,13.3333-13.3333Z"/></svg>