<?xml version="1.0" encoding="UTF-8"?>
<svg id="uuid-6e075bdd-c0c6-4e96-adab-d137ec41cfcb" data-name="Layer 1" xmlns="http://www.w3.org/2000/svg" width="62" height="62" xmlns:xlink="http://www.w3.org/1999/xlink" viewBox="0 0 62 62">
  <defs>
    <linearGradient id="uuid-5b62d8bf-c3f8-4e8c-a42a-a3c6336703dc" x1="31" y1="55.9453" x2="31" y2="6.0544" gradientUnits="userSpaceOnUse">
      <stop offset=".5" stop-color="#212121"/>
      <stop offset="1" stop-color="#fff" stop-opacity=".5"/>
    </linearGradient>
  </defs>
  <path d="M18.1655,5.0547h25.6704c7.2353,0,13.1094,5.8741,13.1094,13.1094v25.6719c0,7.2353-5.8741,13.1094-13.1094,13.1094h-25.6719c-7.2353,0-13.1094-5.8741-13.1094-13.1094v-25.6704c0-7.2361,5.8748-13.1108,13.1108-13.1108Z" style="opacity: .05; stroke-width: 0px;"/>
  <path d="M18.1655,5.5547h25.6704c6.9593,0,12.6094,5.6501,12.6094,12.6094v25.6719c0,6.9593-5.6501,12.6094-12.6094,12.6094h-25.6719c-6.9593,0-12.6094-5.6501-12.6094-12.6094v-25.6704c0-6.9601,5.6507-12.6108,12.6108-12.6108Z" style="opacity: .07; stroke-width: 0px;"/>
  <path d="M6.0547,18.1638v25.6719c0,6.9628,4.2383,12.1097,12.1109,12.1094l25.6703.0003c7.8711-.0003,12.1094-5.1468,12.1094-12.1097v-25.6719c0-6.9629-4.2383-12.1091-12.1094-12.1094h-25.6703c-7.8727,0-12.1109,5.1464-12.1109,12.1094Z" style="fill: #212121; stroke-width: 0px;"/>
  <g>
    <path d="M30.9702,33.6855c-.5269,0-1.0459-.1396-1.5015-.4033l-16.4717-9.5361c-.9526-.5518-1.2798-1.7764-.729-2.7295.1772-.3047.4302-.5566.7324-.7305l16.4766-9.5361c.4551-.2637.9736-.4023,1.5005-.4023.5273,0,1.0464.1396,1.502.4033l16.4644,9.5371c.4614.2666.7915.6982.9292,1.2139s.0659,1.0537-.2017,1.5166c-.1733.2988-.4243.5508-.7261.7266l-16.4741,9.5371c-.4556.2637-.9746.4033-1.501.4033Z" style="opacity: .05; stroke-width: 0px;"/>
    <path d="M30.9702,33.1855c-.439,0-.8716-.1162-1.251-.3359l-16.4717-9.5361c-.7144-.4141-.9595-1.332-.5464-2.0469.1328-.2285.3223-.417.5483-.5469l16.478-9.5371c.3799-.2197.812-.335,1.25-.335.439,0,.8721.1162,1.2515.3359l16.4644,9.5371c.3462.2002.5938.5244.6968.9102.103.3867.0493.79-.1514,1.1367-.1299.2246-.3184.4131-.5449.5449l-16.4731,9.5371c-.3794.2197-.812.3359-1.2505.3359Z" style="opacity: .07; stroke-width: 0px;"/>
    <path d="M48.4426,22.8805l-16.4723,9.5369c-.6187.3582-1.3817.3582-2.0004,0l-16.4717-9.5365c-.4771-.2762-.6399-.8868-.3637-1.3639.0874-.151.2128-.2764.3638-.3638l16.4795-9.5377c.6188-.3581,1.3819-.358,2.0005.0004l16.4644,9.5372c.477.2763.6397.887.3634,1.364-.0874.1508-.2127.2762-.3636.3635Z" style="fill: #f5f5f5; stroke-width: 0px;"/>
    <path d="M30.9683,51.6494c-.5269,0-1.0459-.1396-1.5005-.4053l-16.4648-9.5234c-.4629-.2656-.7944-.7002-.9326-1.2217-.1372-.5176-.0669-1.0576.1987-1.5195.2227-.3496.4692-.5859.7666-.7432l5.2241-3.0342,1.2368-.7061h.5249l.2363.126,10.2148,5.9092c.1582.0947.3223.1406.4956.1406s.3447-.0469.4966-.1367l10.8979-6.3096.4556.4775.8579.501,5.2754,3.0508c.4434.2285.8008.6543.959,1.1562.1558.4951.1084,1.0244-.1343,1.4883-.2393.4326-.5747.7344-.9766.8838l-16.3262,9.4629c-.46.2646-.98.4033-1.5054.4033Z" style="opacity: .05; stroke-width: 0px;"/>
    <path d="M30.9683,51.1494c-.4399,0-.8716-.1172-1.2485-.3369l-16.4663-9.5244c-.3467-.1992-.5957-.5244-.6997-.917-.1035-.3896-.0508-.7949.1489-1.1426.1655-.2588.3521-.4365.5674-.5508l5.2407-3.043,1.1187-.6387h.2671l.1265.0674,10.1992,5.9004c.2295.1377.4854.208.7461.208.2622,0,.522-.0713.7505-.2061l10.5537-6.1104.2329.2441.9189.5361,5.2769,3.0518c.3452.1787.6123.4932.7324.874.1157.3672.0801.7607-.1006,1.1064-.1763.3184-.4189.5391-.7075.6465l-16.4023,9.499c-.3828.2197-.8159.3359-1.2549.3359Z" style="opacity: .07; stroke-width: 0px;"/>
    <path d="M48.8896,40.4369c-.1021.1838-.245.3369-.439.4084l-16.4779,9.5355c-.6228.3574-1.3885.3574-2.001,0l-16.4677-9.5253c-.4799-.2757-.6432-.8984-.3675-1.3783.0918-.1429.2144-.2756.3675-.3573l5.2578-3.0526,1.0006-.5717h.0102l10.1991,5.901c.6125.3675,1.3782.3675,2.001,0l10.2094-5.9112.0102.0102.49.2858.4901.2859,5.2782,3.0526c.49.2552.6942.827.439,1.317Z" style="fill: #f5f5f5; stroke-width: 0px;"/>
  </g>
  <path d="M43.8359,6.0544h-25.6703c-7.8727,0-12.111,5.1464-12.111,12.1094v25.6719c0,6.9628,4.2383,12.1096,12.111,12.1094l25.6703.0002c7.8711-.0002,12.1094-5.1469,12.1094-12.1096v-25.6719c0-6.963-4.2383-12.1091-12.1094-12.1094ZM55.4453,43.8359c0,7.1611-4.4482,11.6094-11.6094,11.6094h-25.6704c-7.1616,0-11.6108-4.4482-11.6108-11.6094v-25.6719c0-7.1611,4.4492-11.6094,11.6108-11.6094h25.6704c7.1611,0,11.6094,4.4482,11.6094,11.6094v25.6719Z" style="fill: url(#uuid-5b62d8bf-c3f8-4e8c-a42a-a3c6336703dc); opacity: .25; stroke-width: 0px;"/>
</svg>