<?xml version="1.0" encoding="UTF-8"?>
<svg id="uuid-edfab441-a45b-42b6-b87c-ae9403bccca0" xmlns="http://www.w3.org/2000/svg" width="48"
    height="48" viewBox="0 0 48 48">
    <path
        d="M9.9707,2.0064l31.3672,6.8686h3.3945v37.125H9.1543c-1.234,0-2.2344-1.0004-2.2344-2.2344v-9.3546L9.9048,2.1036l.0659-.0971Z"
        style="fill:#126328; stroke-width:0px;" />
    <path d="M9.9707,2h29.4766c1.2332,0,2.2344,1.0012,2.2344,2.2344v28.7031H9.9707V2Z"
        style="fill:#038c4a; stroke-width:0px;" />
    <path d="M3.2676,36.9766l6.7031-4.0391V2L3.2676,6.0391v30.9375Z"
        style="fill:#53ad72; stroke-width:0px;" />
    <path
        d="M22.6804,37.8599v.6312c0,1.2158-1.0302,1.9119-2.5524,1.9119h-.6497v2.079h-1.6243v-6.497h2.4224c1.4572,0,2.4039.6776,2.4039,1.8748h0ZM21.0562,37.9527c0-.5569-.3527-.8167-.9003-.8167h-.6776v2.1162h.5661c.6126,0,1.0117-.2506,1.0117-.8817v-.4177Z"
        style="fill:#fff; stroke-width:0px;" />
    <path d="M28.2863,37.1545h-1.6985v5.3275h-1.6243v-5.3275h-1.7171v-1.1694h5.0398v1.1694Z"
        style="fill:#fff; stroke-width:0px;" />
    <path
        d="M34.2625,41.5075v.9746c-.1671.0928-.3991.1392-.6497.1392-.5662,0-1.0117-.1671-1.3644-.9003l-.7796-1.5778h-.7146v2.3389h-1.6243v-6.497h2.4596c1.4107,0,2.3575.6776,2.3575,1.7634v.5847c0,.6404-.3991,1.1416-1.0302,1.4572l.7239,1.3643c.1207.2413.2785.3527.5476.3527h.0743,0ZM30.7541,39.0757h.7054c.5198,0,.8632-.2691.8632-.7703v-.4641c0-.4919-.3527-.7425-.8632-.7425h-.7054v1.9769Z"
        style="fill:#fff; stroke-width:0px;" />
    <path
        d="M25.4835,12.0093v4.0902h5.6333v3.0371h-5.6333v6.9314h-4.2862V8.9232h10.9481v3.0861h-6.662Z"
        style="fill:#fff; stroke-width:0px;" />
</svg>