<?xml version="1.0" encoding="UTF-8"?>
<svg id="uuid-591e7702-5fcc-45d3-a78a-0471cb8bc28d" xmlns="http://www.w3.org/2000/svg" width="48"
    height="48" viewBox="0 0 48 48">
    <circle cx="24" cy="24" r="21.5" style="fill:#181a1b; stroke-width:0px;" />
    <path
        d="M24.5655,2.0067C12.423,1.7091,2.3639,11.2921,2.0067,23.4345c-.2976,12.1424,9.2854,22.2016,21.4278,22.5587,12.1424.2976,22.2016-9.2854,22.5587-21.4278.2976-12.1424-9.2854-22.2611-21.4278-22.5587ZM43.6719,24.5059c-.2976,10.8925-9.3449,19.4636-20.2374,19.2255-10.8925-.2976-19.4636-9.3449-19.2255-20.2374.2976-10.8925,9.3449-19.4636,20.2374-19.2255,10.8925.2381,19.5231,9.3449,19.2255,20.2374Z"
        style="fill:#f9b437; stroke-width:0px;" />
    <path
        d="M38.7316,23.5536c-.119-.4762-.2381-.8928-.3571-1.369l-3.2142-10.5353c-.119-.4167-.3571-.7738-.8333-.8928-.4762-.119-1.0119-.0595-1.6666-.0595s-1.1904,0-1.369.3571c-.119.1786-.119.4762-.0595.7143.0595.2381.119.4167.1786.6547.5357,1.7856,1.0714,3.5118,1.6071,5.2974.0595.2381.119.4762.119.7143s-.1786.3571-.4166.4167c-.4166.119-1.0714.0595-1.6666.0595h-12.0234c-.9523,0-1.25,0-1.6666.0595-.4762.119-.6547.4762-.7738.8928-.119.4167-.2976.8928-.4166,1.3095-.119.3571-.3571,1.0119-.119,1.369s.8333.2976,1.4285.2976h15.4756c.5952,0,1.1904-.0595,1.488.1786s.5357.8333.3571,1.3095l-3.2142,10.5353c-.119.4167-.2976.8928-.3571,1.3095-.119.5952.1786.8928.7143.9523.4762.0595,1.25.0595,1.7261,0,.2976,0,.5952,0,.7738-.119.5952-.2381.7738-.9523.9524-1.6071,1.0714-3.5118,2.1428-7.0236,3.2142-10.5353.119-.2976.2381-.7738.119-1.3095Z"
        style="fill:#f9b437; fill-rule:evenodd; stroke-width:0px;" />
    <path
        d="M31.8866,26.7082c.119-.3571.3571-1.0119.119-1.369-.2381-.3571-.8333-.2976-1.4285-.2976h-15.4756c-.5952,0-1.1904.0595-1.488-.1786-.3571-.2381-.5357-.8333-.3571-1.3095l3.2142-10.5353c.119-.4167.2976-.8928.3571-1.3095.119-.5952-.1786-.8928-.7143-.9523-.4762-.0595-1.25-.0595-1.7261,0-.2976,0-.5952,0-.7738.119-.5952.2381-.7738.9523-.9523,1.6071-1.0714,3.5118-2.1428,7.0236-3.2142,10.5353-.119.4762-.2381.9523-.119,1.488.119.4762.2381.8928.3571,1.369l3.2142,10.5353c.119.4167.3571.7738.8333.8928s1.0119.0595,1.6666.0595,1.1904,0,1.369-.3571c.119-.1786.119-.4762.0595-.7143s-.119-.4167-.1786-.6547c-.5357-1.7856-1.0714-3.5118-1.6071-5.2974-.0595-.2381-.119-.4762-.119-.7143s.1786-.3571.4166-.4167c.4166-.119,1.0714-.0595,1.6666-.0595h12.0234c.9524,0,1.25,0,1.6666-.0595.4762-.119.6547-.4762.7738-.8928.119-.5952.2381-1.0119.4166-1.488Z"
        style="fill:#f9b437; fill-rule:evenodd; stroke-width:0px;" />
</svg>