<?xml version="1.0" encoding="UTF-8"?>
<svg id="uuid-6dd0e5d5-671e-4f47-98fa-9932804c68e1" xmlns="http://www.w3.org/2000/svg" width="48"
    height="48" viewBox="0 0 48 48">
    <path
        d="M24.0266,15.0347c-.0443.0399-.0931.0842-.1419.1241h0c.0443-.0443.0931-.0842.1419-.1241Z"
        style="fill:none; stroke-width:0px;" />
    <path
        d="M32.8124,10.1896c-2.7749.492-5.736,1.5603-7.7574,3.7634,2.0214-2.2031,4.978-3.2714,7.7574-3.7634Z"
        style="fill:none; stroke-width:0px;" />
    <path d="M24.5098,33.0141l15.0848-2.6597-15.0848,2.6597Z"
        style="fill:#541431; stroke-width:0px;" />
    <path
        d="M23.0469,34.273c-3.1118,2.2253-7.9037,3.5108-11.7647,4.2289-.1906.0355-.3812.0709-.5674.102h0c-.0887.0177-.1773.031-.2615.0443l4.1846,5.213,31.3621-5.5321-5.705-7.0969-17.248,3.0409Z"
        style="fill:#541431; stroke-width:0px;" />
    <polygon
        points="10.4534 29.5432 8.4054 26.9944 8.4054 26.9944 10.5642 29.6806 10.5642 29.6806 10.4534 29.5432"
        style="fill:#891720; stroke-width:0px;" />
    <path
        d="M23.4592,24.8533c-3.0852,2.4203-8.1431,3.79-12.1769,4.5392,4.0383-.7491,9.0917-2.1189,12.1769-4.5392Z"
        style="fill:#891720; stroke-width:0px;" />
    <path
        d="M10.7149,38.6039c.1862-.031.3768-.0665.5674-.102,3.861-.7181,8.6528-2.0036,11.7602-4.2289l-8.2361,1.454-.5718.102-.3635-.4521-.9309-1.157c-1.2855-.2261-2.5533-.8733-3.2537-1.7465-.7048-.8777-.6605-1.751-.0133-2.3184l-2.3715-2.9567-5.3016.9265,8.4489,10.5279c.0887-.0177.1773-.031.266-.0488h0Z"
        style="fill:#891720; stroke-width:0px;" />
    <polygon
        points="14.6379 34.7562 14.2611 34.2863 14.6379 34.7562 24.5098 33.0141 24.5098 33.0141 14.6379 34.7562"
        style="fill:#891720; stroke-width:0px;" />
    <path d="M10.5642,29.6806l3.697,4.6057-3.697-4.6057Z" style="fill:#541431; stroke-width:0px;" />
    <path
        d="M9.6865,32.4644c.7048.8777,1.9682,1.5205,3.2537,1.7465l-3.267-4.0693c-.6472.5718-.6915,1.4495.0133,2.3228Z"
        style="fill:#541431; stroke-width:0px;" />
    <polygon points="24.7624 23.6254 39.4262 21.0411 39.4262 21.0411 24.7624 23.6254"
        style="fill:#891720; stroke-width:0px;" />
    <path
        d="M23.4592,24.8533c-3.0852,2.4203-8.1431,3.79-12.1769,4.5392-.1906.0355-.3812.0709-.5674.102h0c-.0887.0177-.1773.031-.2615.0443l.1108.1374,3.697,4.6101.3768.4699,9.8719-1.7421,15.0848-2.6597,6.4054-1.1304-5.869-7.3141-16.6718,2.9434Z"
        style="fill:#891720; stroke-width:0px;" />
    <path
        d="M23.8847,15.1588c-3.032,2.6375-8.3736,4.1003-12.6025,4.8894,4.2289-.789,9.5704-2.2519,12.6025-4.8894h0Z"
        style="fill:#c92f3b; stroke-width:0px;" />
    <polygon points="10.5287 20.292 10.7193 20.5313 10.7193 20.5313 10.5287 20.292"
        style="fill:#c92f3b; stroke-width:0px;" />
    <polygon
        points="14.6379 25.4118 14.6379 25.4118 24.7624 23.6254 24.7624 23.6254 14.6379 25.4118"
        style="fill:#c92f3b; stroke-width:0px;" />
    <path
        d="M10.7149,29.4945h0c.1862-.031.3768-.0665.5674-.102,4.0339-.7491,9.0917-2.1233,12.1769-4.5392l-8.6528,1.5249-.5718.102-.3635-.4521-.7137-.8866c-1.3564-.1862-2.7306-.8555-3.4709-1.782-.7447-.9265-.6516-1.8529.1064-2.4114l-.1064-.133-2.2164-2.7616-5.4701.9619,4.5082,5.6164,1.8972,2.3627,2.0435,2.5489c.0887-.0177.1773-.031.266-.0488Z"
        style="fill:#c92f3b; stroke-width:0px;" />
    <path
        d="M9.6865,23.355c.7447.9265,2.1144,1.5958,3.4709,1.782l-3.3689-4.1934c-.7536.5585-.8467,1.4894-.102,2.4114Z"
        style="fill:#891720; stroke-width:0px;" />
    <path d="M10.7193,20.5313l1.0461,1.2988-1.0461-1.2988Z" style="fill:#891720; stroke-width:0px;" />
    <path
        d="M32.8745,10.1763c-.0089,0-.0177.0044-.031.0044s-.0222.0044-.0355.0044c-2.7749.492-5.736,1.5603-7.7574,3.7634-.0798.0887-.164.1773-.2394.2704-.0665.0798-.133.1551-.2039.2305-.1507.164-.3059.3192-.4699.4743-.0355.0355-.0754.0709-.1108.102-.0443.0399-.0931.0842-.1419.1241-3.032,2.6464-8.3736,4.1092-12.6025,4.8982-.1906.0355-.3812.0709-.5674.102h0c-.0887.0177-.1773.031-.2615.0443l.0754.0975.1906.2394,1.0461,1.2988,2.8725,3.5773,10.129-1.7864,14.6593-2.5799,1.1038-.195,5.4701-.9664-8.0943-10.0802c-.0842,0-.1729,0-.2615-.0044-1.321-.0044-3.0054.0709-4.7697.3812Z"
        style="fill:#c92f3b; stroke-width:0px;" />
    <path
        d="M8.5738,17.8584l1.8795,2.3405c.0887-.0133.1729-.031.2615-.0443h0c.1862-.031.3768-.0665.5674-.102,4.2289-.7935,9.5704-2.2563,12.6025-4.8938.0488-.0399.0975-.0842.1419-.1241.0355-.0355.0754-.0665.1108-.102.164-.1551.3236-.3147.4699-.4743.0709-.0754.1374-.1551.2039-.2305.0798-.0931.1596-.1817.2394-.2704,2.0214-2.2031,4.978-3.2714,7.7574-3.7634.0133,0,.0222-.0044.0355-.0044.0089,0,.0177-.0044.031-.0044,1.7643-.3103,3.4532-.3857,4.7741-.3812.0887,0,.1729,0,.2615.0044l-3.9895-4.9736-.5585-.696-16.951,2.9877-14.411,2.5444,5.869,7.3141.7048.8733ZM10.9631,11.1338c1.7332-.3059,3.9762.4876,5.0046,1.7687,1.0284,1.2855.461,2.571-1.2766,2.8769-1.7332.3059-3.9762-.4876-5.0046-1.7687-1.0328-1.2855-.461-2.571,1.2766-2.8769Z"
        style="fill:#dd8799; stroke-width:0px;" />
    <ellipse cx="12.8255" cy="13.4574" rx="2.2164" ry="3.759"
        transform="translate(-3.8078 21.7596) rotate(-72.9023)"
        style="fill:#c92f3b; stroke-width:0px;" />
</svg>