<?xml version="1.0" encoding="UTF-8"?>
<svg id="uuid-6353d4bd-3a9c-42d7-ab9f-68d55bad7950" xmlns="http://www.w3.org/2000/svg" width="48"
    height="48" viewBox="0 0 48 48">
    <defs>
        <style>.uuid-a550a095-aeda-4500-ac2b-63630ecbb6b4{fill:#049afe;stroke-width:0px;}</style>
    </defs>
    <path class="uuid-a550a095-aeda-4500-ac2b-63630ecbb6b4"
        d="M34.1821,30.6416c.0771-.1421.0974-.2192.1421-.2517.2111-.1664.4263-.3288.6536-.475,5.8827-3.731,7.2428-9.3579,6.2887-15.7319-.9216-6.1669-4.8596-9.7274-10.7829-11.2539-1.6395-.4156-3.3164-.6658-5.0058-.747-6.2319-.3248-12.4556-.0934-18.6753-.1543-.5197-.0081-1.0921-.1583-1.5915.3329v43.5662h13.43v-12.5206c.6682-.2784,1.4157-.3001,2.0989-.0609l6.7962,12.6545h15.2528l-8.6069-15.3584ZM27.7919,18.8234c-.1502,2.3831-1.3682,3.8203-3.6336,4.1979-.4024.0681-.8098.1035-1.218.1056h-4.2304l.0162-9.4797c1.969.0081,3.9746-.272,5.9395.1786,2.2289.5318,3.2925,2.3507,3.1261,4.9977Z" />
</svg>