<?xml version="1.0" encoding="UTF-8"?>
<svg id="uuid-7f8c8f63-40c5-41e7-8e13-c5613cdd71b9" xmlns="http://www.w3.org/2000/svg" width="48"
    height="48" xmlns:xlink="http://www.w3.org/1999/xlink" viewBox="0 0 48 48">
    <defs>
        <linearGradient id="uuid-bdf3986c-a15a-43c8-bd59-242c5bcda498" x1="17.85" y1="3.3921"
            x2="29.8572" y2="43.6269" gradientUnits="userSpaceOnUse">
            <stop offset="0" stop-color="#4c4c4c" />
            <stop offset="1" stop-color="#343434" />
        </linearGradient>
        <linearGradient id="uuid-d51f824a-7e80-4d08-89f2-5712c2c754f6" x1="12.6987" y1="18.5433"
            x2="38.4883" y2="44.333" gradientUnits="userSpaceOnUse">
            <stop offset="0" stop-color="#fafafb" />
            <stop offset=".293" stop-color="#f6f7f8" />
            <stop offset=".566" stop-color="#ebecee" />
            <stop offset=".832" stop-color="#d8dcdf" />
            <stop offset="1" stop-color="#c8cdd1" />
        </linearGradient>
    </defs>
    <rect x="2" y="2" width="44" height="44" rx="1.9084" ry="1.9084"
        style="fill:url(#uuid-bdf3986c-a15a-43c8-bd59-242c5bcda498); stroke-width:0px;" />
    <g id="uuid-af25a5a8-a5a9-4bea-8c27-e848444f8778">
        <path
            d="M42.3164,41.2922c-.3021,0-.6493-.091-1.0915-.2848-1.0305-.4932-2.1312-1.2103-3.3778-2.1976-1.5115-1.1966-2.3082-2.082-2.5821-2.8728-.1083-.3858-.0901-.7444.0482-1.1584l.2566-.6907c.0664-.2521-.2052-.6015-.4468-.8435-.227-.2275-.5578-.4623-.9841-.698-1.0697-.5651-2.6621-1.051-4.7246-1.4423-2.2299-.4213-4.3638-.6597-6.3416-.7089l-2.0329.1083c-.5742.6588-1.1293,1.2785-1.6643,1.8591-.5396.5678-1.056,1.0838-1.5602,1.5615-2.0479,1.8336-4.0749,3.2486-6.0336,4.2141-1.9524.9509-3.5425,1.4132-4.8634,1.4132-.6365,0-1.2194-.1101-1.7317-.3285-.0551-.0227-.1128-.0546-.1674-.0928-.2211-.152-.7257-.6097-.5519-1.5224l.2612-.8354c.9782-2.1421,2.5429-4.0649,4.6723-5.7692.1092-.0928.2466-.1966.3813-.2976l.1542-.1165c1.6771-1.2412,3.9029-2.5206,6.6196-3.8082,1.6662-.7171,3.0825-1.2203,4.2273-1.5024l.8713-1.2075c.4218-.5251.879-1.0456,1.4127-1.6107.7739-.8344,1.5142-1.5697,2.2481-2.2285-.4632-.2985-1.0019-.6606-1.6088-1.081-.9932-.6743-1.723-1.1147-2.2272-1.344-.566-.2539-1.1425-.3831-1.7108-.3831-.9195,0-1.8868.3385-2.876,1.0064-.8827.5888-1.3509,1.1884-1.3936,1.7845l-.0605,1.051c.1028.8381-.7043,1.4014-3.6021,2.4296l-.303.0955c-.278.0874-.5196.1629-.7289.2148-.3581.0728-.6211.1046-.8476.1046-.2803,0-.515-.05-.7175-.152-.0528-.0273-.1288-.0692-.1474-.0819l-.1283-.0819c-.141-.0883-.2571-.2166-.3326-.3694-.379-.7535-.0819-1.6234,2.6867-4.7746.1392-.1574.2775-.3039.4159-.4504,2.947-3.0994,6.3762-4.6709,10.194-4.6709.8681,0,1.7699.0819,2.6803.2448.3048.0528.6511.1347,1.0406.2457-.1752-.0701-.3376-.152-.4887-.2448-.8417-.4987-1.3859-1.2603-1.5665-2.1976-.1884-.9455.0346-1.921.6638-2.8964.728-1.1502,1.6443-1.8072,2.7213-1.9501.1447-.0155.2684-.0227.3913-.0227,1.2185,0,2.3382.6716,3.3278,1.9974.9568,1.2894,1.3836,2.5443,1.2694,3.73-.0346,1.6416-2.4715,1.8127-3.3887,1.8773-.3067.0246-.6038.0364-.8809.0364-.5328,0-1.0051-.0455-1.4218-.1383,1.1325.3667,2.5634.9327,4.3201,1.7098.3458-.2648.7871-.5514,1.3395-.8699,1.1375-.6525,2.0629-.9764,2.83-.9928,2.3532,0,3.1585,1.365,3.4297,2.1785.3317,1.0155-.2043,2.204-1.637,3.6363-1.2935,1.3231-2.5666,2.1748-3.7796,2.5288-.5014.152-1.0319.2293-1.572.2293-.9304,0-1.9028-.232-2.8933-.6916-.5255.4604-1.1047,1.0556-1.7262,1.7717l-.1429.1592-.8003.9582c.9368.0682,1.8577.2466,2.7622.5332,2.8651.92,5.3033,2.0729,7.2484,3.4288.9673.6861,1.8764,1.4532,2.7049,2.2822.8963.9091,1.7426,1.9091,2.5174,2.9747.6793.94,1.2853,1.9328,1.8017,2.952.824,1.617,1.0629,2.709.7735,3.5389-.2198.4932-.6283.7544-1.1352.7544ZM15.5363,31.4754c-.9482.3158-1.8509.6834-2.6794,1.0911-.6852.3258-1.3436.6943-1.9628,1.0983-1.3622.8809-2.1607,1.7162-2.3427,2.4396.3403-.0564.9195-.2439,1.9132-.8144,1.8664-1.0874,3.5703-2.3696,5.0717-3.8146Z"
            style="fill:#231f20; opacity:.05; stroke-width:0px;" />
        <path
            d="M42.3164,40.8263c-.2361,0-.5232-.0783-.9041-.2457-.9919-.475-2.0588-1.172-3.2759-2.1357-1.4187-1.1229-2.1912-1.9683-2.4315-2.6608-.0751-.2703-.056-.5405.05-.8572l.2516-.677c.1087-.3995-.0687-.849-.5542-1.3349-.2598-.2603-.6261-.5205-1.0879-.7762-1.117-.5897-2.7554-1.0929-4.8634-1.4924-2.2558-.4259-4.4152-.667-6.4167-.7171l-2.2667.1192c-.6174.7116-1.2125,1.3777-1.7849,1.9983-.5287.556-1.0396,1.0665-1.5379,1.5388-2.0092,1.799-3.9975,3.1876-5.9194,4.1349-1.8846.9182-3.4074,1.365-4.6573,1.365-.5746,0-1.0956-.0983-1.5492-.2912-.0287-.0118-.0564-.0273-.0824-.0455-.1856-.1274-.4796-.435-.3617-1.0538l.2475-.7817c.9359-2.042,2.4497-3.8901,4.5194-5.5463.1156-.0983.248-.1975.3776-.2948l.1479-.1119c1.6498-1.2203,3.8469-2.4833,6.5377-3.7582,1.7144-.738,3.1567-1.2439,4.3046-1.5106l.9723-1.3477c.4063-.505.8508-1.0101,1.3736-1.5633.925-.9982,1.8077-1.8573,2.6853-2.6107-.5496-.3376-1.2694-.8135-2.1193-1.4023-1.016-.6898-1.769-1.1438-2.2995-1.385-.627-.2812-1.2685-.425-1.9037-.425-1.0146,0-2.0697.3658-3.1367,1.0865-1.0073.6716-1.5438,1.3895-1.5975,2.1366l-.061,1.0583c.0619.5405-.4928,1.0228-3.2927,2.0165l-.2871.0901c-.268.0846-.5.1574-.7016.2075-.3103.0628-.5442.091-.7353.091-.2061,0-.3722-.0337-.5073-.1019-.0141-.0073-.0796-.04-.0928-.0491l-.1424-.091c-.071-.0446-.1283-.1083-.1656-.1838-.2239-.445-.1806-1.0738,2.6189-4.2605.1347-.152.2694-.2948.4045-.4377,2.8573-3.0056,6.1701-4.5253,9.8555-4.5253.8417,0,1.7158.0801,2.5984.2375,1.258.2193,3.2686.9491,6.1401,2.2285.3526-.2985.8476-.6297,1.5019-1.0073,1.0674-.6115,1.92-.9154,2.6071-.93h.0009c1.9583,0,2.694,1.0119,2.977,1.86.2712.8308-.2279,1.8627-1.5247,3.1594-1.2389,1.2667-2.4446,2.0793-3.5808,2.4105-.4623.1401-.9486.2111-1.4414.2111-.9455,0-1.9414-.2612-2.9642-.7771-.6051.5005-1.279,1.1784-2.0074,2.0183l-.1374.1529-1.4414,1.7244.4445-.0173c1.0665.0282,2.1212.2093,3.1649.5396,2.8205.9054,5.2164,2.0383,7.1228,3.3669.9441.6697,1.8322,1.4196,2.6417,2.2294.8772.89,1.7076,1.8709,2.4701,2.9192.6652.92,1.2576,1.8909,1.7626,2.8883.7516,1.4751.9901,2.4851.7494,3.1758-.0737.1638-.2512.4413-.6952.4413ZM8.0918,36.5486c.0687.0318.1597.0473.2721.0473.3481,0,1.0356-.1565,2.3327-.9018,2.0734-1.2084,3.9507-2.6526,5.5772-4.2914.2698-.2757.5314-.5533.7835-.8308-.5237.1247-1.0196.2584-1.4823.4004-1.0383.3367-2.0247.7334-2.9242,1.1766-.6993.3321-1.3741.7098-2.0115,1.1256-1.7731,1.1475-2.6439,2.2313-2.5916,3.224l.0441.05ZM33.6976,17.3062c.1306,0,.2707-.0027.4204-.0091.8526-.0318,1.4491-.1802,1.7758-.4432-.0824-.0382-.2088-.0673-.4231-.0673-.1433,0-.3035.0127-.4796.0373-.4623.0755-.9646.233-1.5219.4796.0701.0018.1461.0027.2284.0027ZM27.6972,13.8829c-.9919,0-1.7421-.1656-2.2931-.505-.7389-.4377-1.1966-1.0747-1.3536-1.8891-.1643-.8244.0369-1.6853.5983-2.5561.6515-1.0292,1.4564-1.6161,2.3905-1.7399.1165-.0127.2239-.0191.3303-.0191,1.0638,0,2.0575.6088,2.9542,1.8099.8859,1.1939,1.2822,2.3395,1.1793,3.4069-.0246,1.1193-1.6998,1.3686-2.9579,1.4569-.298.0237-.5824.0355-.8481.0355Z"
            style="fill:#231f20; opacity:.07; stroke-width:0px;" />
        <path
            d="M24.5084,11.4002c-.1423-.7125.0394-1.451.5321-2.2157.5827-.9202,1.2693-1.4252,2.0598-1.5291,1.0238-.1165,1.9695.4275,2.8507,1.6069.8164,1.1013,1.1794,2.138,1.0887,3.0839-.0133.5701-.8551.9199-2.5268,1.0363-1.309.1039-2.2547-.0258-2.8643-.4017-.6347-.3755-1.0105-.9066-1.1402-1.5806ZM42.5719,40.2318c-.0906.1939-.4139.1681-.9718-.078-.9457-.4534-1.9953-1.1404-3.1744-2.0735-1.309-1.0363-2.0738-1.8527-2.2809-2.449-.0387-.1426-.0255-.3236.0519-.5569l.2465-.6611c.1681-.6088-.0523-1.2177-.6611-1.8272-.2977-.2978-.6995-.5827-1.1922-.8551-1.1529-.6088-2.8117-1.127-5.0015-1.542-2.268-.4275-4.4314-.6737-6.4919-.7253l-2.5009.1297c-.6608.7643-1.2955,1.4768-1.905,2.1376-.5182.5444-1.0231,1.0497-1.5159,1.5162-1.9825,1.7753-3.9129,3.123-5.805,4.0558-2.5787,1.2571-4.5095,1.6198-5.8183,1.0625-.1684-.1165-.2204-.3107-.1684-.5831l.2333-.7256c.8941-1.9436,2.3583-3.719,4.3669-5.3259.1684-.1422.3498-.272.5182-.4013,1.5939-1.1794,3.7448-2.4232,6.4532-3.7061,1.7749-.7643,3.2395-1.2697,4.3798-1.5159l1.0754-1.4904c.4275-.5311.8808-1.0364,1.3345-1.5162.9718-1.0496,1.9692-2.0211,3.0195-2.8894.0904-.039.1036-.0907.0513-.1555-.531-.2978-1.3991-.8554-2.578-1.6717-1.0112-.6866-1.8014-1.1661-2.372-1.4256-1.7878-.8031-3.6151-.5698-5.4936.6999-1.1277.7514-1.7366,1.581-1.8013,2.488l-.0649,1.1145c.0649.3107-.9328.8292-2.9801,1.5548-.3759.1166-.6869.2201-.946.2849-.4537.0907-.7647.1039-.9199.0258l-.0519-.0258-.1423-.0907c-.1816-.3627.6738-1.6068,2.5526-3.7448.1297-.1452.2607-.2862.3924-.4252l.0044-.0056.0043-.0029c3.4017-3.5781,7.4135-4.9629,12.0252-4.1403,1.2697.2204,3.3696.9977,6.3109,2.3196.3233-.3242.8812-.7127,1.6456-1.1535.9719-.5569,1.7749-.8554,2.3841-.8679,1.3349-.0132,2.1767.4921,2.5268,1.5417.2072.6353-.2595,1.5294-1.4123,2.6825-1.1919,1.218-2.3196,1.9825-3.3821,2.2931-1.3349.402-2.7862.1687-4.3282-.6733-.6863.5311-1.4639,1.2958-2.3064,2.2673-.0387.039-.0778.0907-.1165.1297l-1.9953,2.3844-.0261.1681,1.3735-.0516c.9848.0261,1.9825.1942,3.0062.5182,2.7862.8941,5.1184,1.9953,6.9969,3.3044.8941.6347,1.763,1.3606,2.579,2.1766.8422.8551,1.6585,1.814,2.4229,2.8636.6744.9335,1.2442,1.8789,1.7234,2.8249.6739,1.322.9197,2.2548.7255,2.8124ZM32.3613,17.5294c.2462.1942.8292.2723,1.7753.2333,1.0493-.039,1.7623-.2462,2.1637-.6479.1946-.1945.1946-.3888-.0258-.5701-.2462-.2204-.6996-.272-1.3474-.1816-.5573.0907-1.1535.2849-1.8011.5834-.6349.2978-.8943.4923-.7646.583ZM18.2242,29.9428l-.2981-.0387c-.8941.1816-1.7234.3888-2.4877.6224-1.0754.3495-2.0734.7511-2.9933,1.2045-.7386.3501-1.4256.739-2.0602,1.1533-2.0218,1.3087-2.9546,2.579-2.7862,3.8096l.1945.2204c.5311.3501,1.5807.0777,3.1356-.8164,2.1125-1.2306,4.0039-2.682,5.6757-4.3669.5573-.5702,1.1013-1.1661,1.6197-1.7882Z"
            style="fill:url(#uuid-d51f824a-7e80-4d08-89f2-5712c2c754f6); stroke-width:0px;" />
    </g>
</svg>