<?xml version="1.0" encoding="UTF-8"?>
<svg id="Layer_1" data-name="Layer 1" xmlns="http://www.w3.org/2000/svg" width="48" height="48" xmlns:xlink="http://www.w3.org/1999/xlink" viewBox="0 0 48 48">
  <defs>
    <linearGradient id="linear-gradient" x1="8.1834" y1="23.664" x2="29.0473" y2="23.664" gradientUnits="userSpaceOnUse">
      <stop offset="0" stop-color="#037192"/>
      <stop offset="1" stop-color="#039492"/>
    </linearGradient>
    <linearGradient id="linear-gradient-2" x1="27.4044" y1="2.5506" x2="29.3442" y2="13.1449" xlink:href="#linear-gradient"/>
    <linearGradient id="linear-gradient-3" x1="31.476" y1="31.5181" x2="34.022" y2="45.4231" xlink:href="#linear-gradient"/>
    <linearGradient id="linear-gradient-4" x1="27.4044" y1="2.5506" x2="29.3442" y2="13.1449" xlink:href="#linear-gradient"/>
    <linearGradient id="linear-gradient-5" x1="31.476" y1="31.5181" x2="34.022" y2="45.4231" xlink:href="#linear-gradient"/>
  </defs>
  <g>
    <path d="m18.6148,36.5586c-7.1097,0-12.8941-5.7844-12.8941-12.8941s5.7844-12.8953,12.8941-12.8953,12.8953,5.7844,12.8953,12.8953-5.7844,12.8941-12.8953,12.8941Z" opacity=".05" stroke-width="0"/>
    <path d="m18.6148,35.3272c-6.4302,0-11.6627-5.2324-11.6627-11.6627s5.2324-11.6639,11.6627-11.6639,11.6639,5.2324,11.6639,11.6639-5.2324,11.6627-11.6639,11.6627Z" opacity=".07" stroke-width="0"/>
    <circle cx="18.6154" cy="23.664" r="10.432" fill="url(#linear-gradient)" stroke-width="0"/>
    <path d="m28.3738,15.6949c-4.3269,0-7.8469-3.52-7.8469-7.8469S24.0469,0,28.3738,0s7.8481,3.5212,7.8481,7.8481-3.5212,7.8469-7.8481,7.8469Z" opacity=".05" stroke-width="0"/>
    <path d="m28.3738,14.4635c-3.6474,0-6.6154-2.968-6.6154-6.6154s2.968-6.6166,6.6154-6.6166,6.6166,2.968,6.6166,6.6166-2.968,6.6154-6.6166,6.6154Z" opacity=".07" stroke-width="0"/>
    <circle cx="28.3743" cy="7.8477" r="5.3842" fill="url(#linear-gradient-2)" stroke-width="0"/>
    <path d="m32.7488,48c-5.2541,0-9.5293-4.2752-9.5293-9.5293s4.2752-9.5293,9.5293-9.5293,9.5305,4.2752,9.5305,9.5293-4.2752,9.5293-9.5305,9.5293Z" opacity=".05" stroke-width="0"/>
    <path d="m32.7488,46.7686c-4.5758,0-8.2978-3.722-8.2978-8.2978s3.722-8.2978,8.2978-8.2978,8.299,3.722,8.299,8.2978-3.7232,8.2978-8.299,8.2978Z" opacity=".07" stroke-width="0"/>
    <circle cx="32.749" cy="38.4706" r="7.0668" fill="url(#linear-gradient-3)" stroke-width="0"/>
  </g>
  <g>
    <path d="m18.6148,36.5586c-7.1097,0-12.8941-5.7844-12.8941-12.8941s5.7844-12.8953,12.8941-12.8953,12.8953,5.7844,12.8953,12.8953-5.7844,12.8941-12.8953,12.8941Z" opacity=".05" stroke-width="0"/>
    <path d="m18.6148,35.3272c-6.4302,0-11.6627-5.2324-11.6627-11.6627s5.2324-11.6639,11.6627-11.6639,11.6639,5.2324,11.6639,11.6639-5.2324,11.6627-11.6639,11.6627Z" opacity=".07" stroke-width="0"/>
    <circle cx="18.6154" cy="23.664" r="10.432" fill="url(#linear-gradient)" stroke-width="0"/>
    <path d="m28.3738,15.6949c-4.3269,0-7.8469-3.52-7.8469-7.8469S24.0469,0,28.3738,0s7.8481,3.5212,7.8481,7.8481-3.5212,7.8469-7.8481,7.8469Z" opacity=".05" stroke-width="0"/>
    <path d="m28.3738,14.4635c-3.6474,0-6.6154-2.968-6.6154-6.6154s2.968-6.6166,6.6154-6.6166,6.6166,2.968,6.6166,6.6166-2.968,6.6154-6.6166,6.6154Z" opacity=".07" stroke-width="0"/>
    <circle cx="28.3743" cy="7.8477" r="5.3842" fill="url(#linear-gradient-4)" stroke-width="0"/>
    <path d="m32.7488,48c-5.2541,0-9.5293-4.2752-9.5293-9.5293s4.2752-9.5293,9.5293-9.5293,9.5305,4.2752,9.5305,9.5293-4.2752,9.5293-9.5305,9.5293Z" opacity=".05" stroke-width="0"/>
    <path d="m32.7488,46.7686c-4.5758,0-8.2978-3.722-8.2978-8.2978s3.722-8.2978,8.2978-8.2978,8.299,3.722,8.299,8.2978-3.7232,8.2978-8.299,8.2978Z" opacity=".07" stroke-width="0"/>
    <circle cx="32.749" cy="38.4706" r="7.0668" fill="url(#linear-gradient-5)" stroke-width="0"/>
  </g>
</svg>