<?xml version="1.0" encoding="UTF-8"?>
<svg id="Layer_1" data-name="Layer 1" xmlns="http://www.w3.org/2000/svg" width="128.97" height="48" xmlns:xlink="http://www.w3.org/1999/xlink" viewBox="0 0 128.97 48">
  <defs>
    <linearGradient id="linear-gradient" x1="11.0747" y1="47.7019" x2="18.9142" y2="4.661" gradientTransform="translate(0 50) scale(1 -1)" gradientUnits="userSpaceOnUse">
      <stop offset="0" stop-color="#037192"/>
      <stop offset="1" stop-color="#039492"/>
    </linearGradient>
    <linearGradient id="linear-gradient-2" x1="12.5419" y1="34.6116" x2="19.1777" y2="-1.63" gradientTransform="translate(0 50) scale(1 -1)" gradientUnits="userSpaceOnUse">
      <stop offset="0" stop-color="#fddb22"/>
      <stop offset=".4429" stop-color="#f5c81b"/>
      <stop offset="1" stop-color="#f3c00b"/>
    </linearGradient>
    <linearGradient id="linear-gradient-3" x1="9.9154" y1="32.8297" x2="17.6712" y2="32.8297" gradientTransform="matrix(1,0,0,1,0,0)" xlink:href="#linear-gradient"/>
    <linearGradient id="linear-gradient-4" x1="17.0605" y1="24.9811" x2="17.7815" y2="28.9194" gradientTransform="matrix(1,0,0,1,0,0)" xlink:href="#linear-gradient"/>
    <linearGradient id="linear-gradient-5" x1="18.574" y1="35.7493" x2="19.5204" y2="40.9182" gradientTransform="matrix(1,0,0,1,0,0)" xlink:href="#linear-gradient"/>
    <linearGradient id="linear-gradient-6" x1="9.9154" y1="32.8297" x2="17.6712" y2="32.8297" gradientTransform="matrix(1,0,0,1,0,0)" xlink:href="#linear-gradient"/>
    <linearGradient id="linear-gradient-7" x1="17.0605" y1="24.9811" x2="17.7815" y2="28.9194" gradientTransform="matrix(1,0,0,1,0,0)" xlink:href="#linear-gradient"/>
    <linearGradient id="linear-gradient-8" x1="18.574" y1="35.7493" x2="19.5204" y2="40.9182" gradientTransform="matrix(1,0,0,1,0,0)" xlink:href="#linear-gradient"/>
  </defs>
  <path d="m43.6504,8.7536h-1.6465v-2.8112h8.2318c3.3691,0,5.7246,2.3555,5.7246,5.8509s-2.3555,5.9271-5.7246,5.9271h-3.2676v6.2057h-3.3177v-15.1725Zm5.9779,6.1296c1.8743,0,2.9382-1.2155,2.9382-3.0898,0-1.849-1.0638-3.0397-2.888-3.0397h-2.7103v6.1296h2.6602Zm9.4753,11.6517c.8867,0,1.6719-.5319,2.1283-1.6465l.4303-.9876-4.306-9.7012c-.1517-.3802-.3294-.4557-.6842-.4557h-.3796v-2.7357h2.1276c.9121,0,1.3678.3294,1.6973,1.2155l2.5326,6.459c.2533.6589.4564,1.7227.4564,1.7227h.0501s.2031-1.0638.431-1.7227l2.2038-6.459c.304-.8861.8359-1.2155,1.722-1.2155h2.1784v2.7357h-.3796c-.3802,0-.5827.0755-.735.4557l-4.6348,11.6771c-.9121,2.3301-2.7357,3.3685-4.6608,3.3685-2.0267,0-3.2676-1.3171-3.2676-1.3171l1.2409-2.2793s.7852.8861,1.849.8861Zm12.4381-6.1296s1.7988,2.1784,4.61,2.1784c1.9505,0,3.5208-1.2663,3.5208-3.166,0-4.4076-8.7891-3.5208-8.7891-9.043,0-2.4824,2.153-4.5592,5.446-4.5592,1.722,0,4.8125.7344,4.8125,3.0651v1.2663h-1.6719v-.8359c0-1.0638-1.4687-1.849-3.1152-1.849-2.3053,0-3.6478,1.3424-3.6478,2.862,0,4.1289,8.7897,3.1159,8.7897,8.9922,0,2.6595-2.0521,4.9141-5.3952,4.9141-3.6478,0-5.6484-2.5332-5.6484-2.5332l1.0885-1.2917Zm12.9453-7.168c0-.3548-.2025-.5573-.5573-.5573h-1.0638v-1.4948h1.7988c1.0892,0,1.5449.4557,1.5449,1.5449v9.1445c0,.3796.2025.5573.5573.5573h1.0638v1.4941h-1.7982c-1.0892,0-1.5456-.4557-1.5456-1.5449v-9.1439Zm-.0501-7.1178h1.6712v2.1784h-1.6712v-2.1784Zm10.3854,4.7617c3.0898,0,4.1543,2.3809,4.1543,2.3809h.0501s-.0501-.4303-.0501-.9622v-4.1289c0-.3542-.2031-.5573-.5573-.5573h-1.0638v-1.4941h1.7982c1.0892,0,1.5449.4557,1.5449,1.5449v14.2103c0,.3796.2025.5573.5573.5573h1.0638v1.4941h-1.7728c-1.0638,0-1.5202-.4811-1.5202-1.4186,0-.4811.0508-.8105.0508-.8105h-.0508s-1.0384,2.5332-4.3815,2.5332c-3.4199,0-5.5475-2.7357-5.5475-6.6868,0-4.0273,2.3809-6.6621,5.7246-6.6621Zm4.2044,6.6621c0-2.584-1.3171-5.1165-4.0527-5.1165-2.2539,0-4.1029,1.8997-4.1029,5.1165,0,3.1406,1.6458,5.1419,4.0273,5.1419,2.1276,0,4.1283-1.5202,4.1283-5.1419Zm10.7168-6.6621c3.5208,0,5.3444,2.7103,5.3444,5.877,0,.3034-.0508.8607-.0508.8607h-9.7767c.0501,3.2168,2.3047,5.0664,4.9388,5.0664,2.3307,0,3.8249-1.571,3.8249-1.571l.8359,1.2923s-1.849,1.8236-4.7363,1.8236c-3.7741,0-6.6621-2.7357-6.6621-6.6615,0-4.1797,2.8626-6.6875,6.2819-6.6875Zm3.5716,5.3698c-.1016-2.6341-1.7227-3.9258-3.597-3.9258-2.1022,0-3.9512,1.3678-4.3822,3.9258h7.9792Zm13.0208-5.4206c0-1.8997-1.3932-3.3431-3.6471-3.3431-1.7734,0-3.1667.9115-3.1667,1.9251v.8359h-1.6712v-1.3177c0-2.2539,3.0645-3.1152,4.8887-3.1152,3.3939,0,5.4199,2.2292,5.4199,4.9902,0,6.2559-9.4225,6.1042-9.4225,11.0436,0,.3542.2031.5065.5827.5065h7.4473c.3542,0,.5573-.1777.5573-.5573v-1.1908h1.6458v1.7734c0,1.0892-.4557,1.5449-1.5449,1.5449h-8.916c-1.2155,0-1.5957-.5065-1.5957-1.748,0-6.6107,9.4225-6.0788,9.4225-11.3477Zm-83.22,23.071c-.0645-.1816-.1497-.235-.3307-.235h-.1921v-1.1829h.8848c.5332,0,.7253.1387.8958.6178l1.4499,4.222c.1491.4264.2878,1.1087.2878,1.1087h.0215s.138-.6823.2878-1.1087l1.4499-4.222c.1706-.4792.3516-.6178.8848-.6178h.8952v1.1829h-.2025c-.181,0-.2663.0534-.3301.235l-2.2604,6.151h-1.4714l-2.2702-6.151Zm7.5091-.235h-.6927v-1.1829h4.3177c.5117,0,.7246.224.7246.7246v1.1517h-1.2578v-.4583c0-.1497-.0853-.235-.2344-.235h-1.4609v2.1432h2.4199v1.1829h-2.4199v3.0599h-1.3965v-6.3861Zm6.7506,2.5482l-1.4069-2.2923c-.1387-.2344-.224-.2559-.4583-.2559h-.3203v-1.1829h.8743c.5117,0,.7142.1172.9701.554l.7253,1.2578c.2454.4375.4798.9173.4798.9173h.0208s.2031-.4798.459-.9173l.735-1.2578c.2565-.4479.4694-.554.9811-.554h.8633v1.1829h-.3197c-.2344,0-.3197.0326-.4583.2559l-1.418,2.2923,2.3561,3.8379h-1.5671l-1.1725-1.9935c-.2559-.4479-.4798-.8848-.4798-.8848h-.0215s-.2025.4479-.4583.8848l-1.1621,1.9935h-1.5671l2.3451-3.8379Zm9.4935-2.9954h-1.8548c-.1491,0-.2344.0638-.2344.2344v.5007h-.6823v-.7884c0-.4583.1491-.6081.6074-.6081h5.0749c.4583,0,.6074.1497.6074.6081v.7884h-.6934v-.5007c0-.1706-.0742-.2344-.2344-.2344h-1.8444v6.8333h-.7461v-6.8333Zm5.7493,1.3431c1.4818,0,2.2493,1.1406,2.2493,2.4733,0,.1276-.0215.3626-.0215.3626h-4.1146c.0208,1.3535.9701,2.1322,2.0788,2.1322.9805,0,1.6094-.6615,1.6094-.6615l.3522.5436s-.7786.7682-1.9935.7682c-1.5885,0-2.804-1.1517-2.804-2.804,0-1.7591,1.2044-2.8145,2.6439-2.8145Zm1.5033,2.2598c-.043-1.1087-.7253-1.6523-1.5137-1.6523-.8854,0-1.6634.5762-1.8444,1.6523h3.3581Zm1.9961-1.2682c0-.1491-.0853-.235-.235-.235h-.4473v-.6289h.7461c.4479,0,.6504.1921.6504.597v.2454c0,.2135-.0215.3841-.0215.3841h.0215c.2663-.7253,1.1087-1.3542,1.9401-1.3542.9915,0,1.5033.4583,1.6628,1.3431h.0215c.2878-.7246,1.0664-1.3431,1.9727-1.3431,1.3001,0,1.7799.7565,1.7799,2.0788v2.5482c0,.1595.0853.2344.235.2344h.4473v.6289h-.7565c-.459,0-.6504-.1921-.6504-.6504v-2.5801c0-.8737-.1816-1.599-1.1621-1.599-.8105,0-1.4818.7253-1.6953,1.5137-.0742.235-.0957.4909-.0957.7786v2.5371h-.7253v-3.2305c0-.8099-.1172-1.599-1.1296-1.599-.8743,0-1.5247.7572-1.7487,1.5781-.0638.2233-.0853.4687-.0853.7142v2.5371h-.7246v-4.4987Zm9.7285,0c0-.1491-.0853-.235-.235-.235h-.4473v-.6289h.7357c.4583,0,.6393.1921.6393.5651,0,.2135-.0104.3626-.0104.3626h.0208s.4264-1.0553,1.8444-1.0553c1.4395,0,2.3346,1.151,2.3346,2.8145,0,1.6947-1.0124,2.804-2.3984,2.804-1.3112,0-1.7591-1.013-1.7591-1.013h-.0215s.0215.1921.0215.4687v2.5482h-.7246v-6.6309Zm2.4089,3.987c.9492,0,1.7272-.7995,1.7272-2.1641,0-1.3112-.6927-2.1536-1.6947-2.1536-.8958,0-1.7383.64-1.7383,2.1641,0,1.0768.5866,2.1536,1.7057,2.1536Zm3.543-6.1191c0-.1497-.0853-.2344-.2344-.2344h-.4479v-.6296h.7572c.4583,0,.6504.1921.6504.6504v5.9811c0,.1595.0853.2344.2344.2344h.4479v.6289h-.7572c-.4583,0-.6504-.1921-.6504-.6504v-5.9805Zm5.2044,3.3262h.2982v-.0645c0-1.1191-.4049-1.5137-1.3861-1.5137-.2663,0-1.0449.0749-1.0449.4694v.3411h-.6927v-.5117c0-.7461,1.2793-.9062,1.7487-.9062,1.6947,0,2.1003.9062,2.1003,2.0573v2.5697c0,.1595.0846.2344.2344.2344h.4479v.6289h-.7357c-.4583,0-.64-.2025-.64-.64,0-.2344.0111-.3939.0111-.3939h-.0215c.0104,0-.4375,1.1621-1.7806,1.1621-.8952,0-1.8229-.5228-1.8229-1.5885,0-1.7806,2.3561-1.8444,3.2839-1.8444Zm-1.3437,2.8145c1.0234,0,1.6419-1.0664,1.6419-1.9935v-.2454h-.3092c-.8418,0-2.5267.0215-2.5267,1.2259,0,.5013.3945,1.013,1.194,1.013Zm4.0645-4.2643h-.7038v-.6081h.7142v-1.4818h.7142v1.4818h1.3437v.6081h-1.3437v2.7292c0,1.2578.7995,1.418,1.2051,1.418.1491,0,.2448-.0215.2448-.0215v.6504s-.1276.0208-.3092.0208c-.6178,0-1.8652-.2025-1.8652-1.9935v-2.8034Zm5.3424-.7357c1.4818,0,2.2493,1.1406,2.2493,2.4733,0,.1276-.0215.3626-.0215.3626h-4.1146c.0208,1.3535.9701,2.1322,2.0788,2.1322.9805,0,1.6094-.6615,1.6094-.6615l.3522.5436s-.7786.7682-1.9935.7682c-1.5885,0-2.804-1.1517-2.804-2.804,0-1.7591,1.2044-2.8145,2.6439-2.8145Zm1.5033,2.2598c-.043-1.1087-.7253-1.6523-1.5137-1.6523-.8848,0-1.6634.5762-1.8444,1.6523h3.3581Z" fill="#393324" stroke-width="0"/>
  <g>
    <path d="m12.8892,3.3466c-.0173-.0606-.0272-.1682-.0272-.2473,0-.5924.4799-1.0722,1.0722-1.0722.2523,0,.4279.094.4972.1212,1.3109.512,10.3118,4.7565,8.2304,17.0285,3.0226-1.8217,1.9417-5.3587,2.931-5.3587.371,0,.5231.1385.7507.4638,3.307,4.7194,5.8114,10.3477,5.8114,15.6137,0,8.8797-7.1978,16.0775-16.0775,16.0775C6.3135,45.9729,0,37.7487,0,29.8955,0,16.8332,15.3948,14.4215,12.8892,3.3466Z" fill="url(#linear-gradient)" stroke-width="0"/>
    <path d="m15.6644,17.7607s-.2733-.2325-.6691-.2325c-.5973,0-1.0821.4848-1.0821,1.0821,1.0821,6.4928-6.4928,8.6571-6.4928,16.2321,0,4.7812,3.8759,8.6571,8.6571,8.6571s8.6571-3.8759,8.6571-8.6571c0-6.1688-5.4329-14.4017-9.0702-17.0817Z" fill="url(#linear-gradient-2)" stroke-width="0"/>
    <g>
      <circle cx="13.7933" cy="32.8297" r="3.8779" fill="url(#linear-gradient-3)" stroke-width="0"/>
      <circle cx="17.421" cy="26.9502" r="2.0015" fill="url(#linear-gradient-4)" stroke-width="0"/>
      <circle cx="19.0472" cy="38.3338" r="2.627" fill="url(#linear-gradient-5)" stroke-width="0"/>
    </g>
    <g>
      <path d="m13.7931,37.623c-2.6429,0-4.7932-2.1503-4.7932-4.7932s2.1503-4.7936,4.7932-4.7936,4.7936,2.1503,4.7936,4.7936-2.1503,4.7932-4.7936,4.7932Z" opacity=".05" stroke-width="0"/>
      <path d="m13.7931,37.1652c-2.3903,0-4.3354-1.9451-4.3354-4.3354s1.9451-4.3358,4.3354-4.3358,4.3358,1.9451,4.3358,4.3358-1.9451,4.3354-4.3358,4.3354Z" opacity=".07" stroke-width="0"/>
      <circle cx="13.7933" cy="32.8297" r="3.8779" fill="url(#linear-gradient-6)" stroke-width="0"/>
      <path d="m17.4208,29.8673c-1.6085,0-2.9169-1.3085-2.9169-2.9169s1.3085-2.9174,2.9169-2.9174,2.9174,1.3089,2.9174,2.9174-1.3089,2.9169-2.9174,2.9169Z" opacity=".05" stroke-width="0"/>
      <path d="m17.4208,29.4095c-1.3559,0-2.4592-1.1033-2.4592-2.4592s1.1033-2.4596,2.4592-2.4596,2.4596,1.1033,2.4596,2.4596-1.1033,2.4592-2.4596,2.4592Z" opacity=".07" stroke-width="0"/>
      <circle cx="17.421" cy="26.9502" r="2.0015" fill="url(#linear-gradient-7)" stroke-width="0"/>
      <path d="m19.0471,41.8762c-1.9531,0-3.5424-1.5892-3.5424-3.5424s1.5892-3.5424,3.5424-3.5424,3.5428,1.5892,3.5428,3.5424-1.5892,3.5424-3.5428,3.5424Z" opacity=".05" stroke-width="0"/>
      <path d="m19.0471,41.4184c-1.701,0-3.0846-1.3836-3.0846-3.0846s1.3836-3.0846,3.0846-3.0846,3.085,1.3836,3.085,3.0846-1.384,3.0846-3.085,3.0846Z" opacity=".07" stroke-width="0"/>
      <circle cx="19.0472" cy="38.3338" r="2.627" fill="url(#linear-gradient-8)" stroke-width="0"/>
    </g>
  </g>
  <rect x="36.1549" y="0" width="1.3333" height="48" fill="#393324" stroke-width="0"/>
</svg>