<?xml version="1.0" encoding="UTF-8"?><svg id="uuid-1f73a612-a6a7-40b2-987c-8d8c0cd747e8" xmlns="http://www.w3.org/2000/svg" width="48" height="48" xmlns:xlink="http://www.w3.org/1999/xlink" viewBox="0 0 48 48"><defs><style>.uuid-6449ff96-0c5d-4219-8a06-583785d619d5{fill:url(#uuid-4b9a2181-76cd-4779-8dbe-4625b10d1c0d);}.uuid-6449ff96-0c5d-4219-8a06-583785d619d5,.uuid-075250ac-1a09-426f-a79d-24b5bb6620cd,.uuid-61871cc2-b6a1-4f75-a21b-c40a83b1888c,.uuid-74d0bb19-3f09-43cf-aee4-4a610c209262,.uuid-b3912c80-de37-4d6d-abea-fb322fbdb8e0,.uuid-a521d5f8-2495-4579-8adc-386a2080edda{stroke-width:0px;}.uuid-075250ac-1a09-426f-a79d-24b5bb6620cd{opacity:.07;}.uuid-075250ac-1a09-426f-a79d-24b5bb6620cd,.uuid-61871cc2-b6a1-4f75-a21b-c40a83b1888c,.uuid-74d0bb19-3f09-43cf-aee4-4a610c209262{isolation:isolate;}.uuid-61871cc2-b6a1-4f75-a21b-c40a83b1888c{opacity:.05;}.uuid-74d0bb19-3f09-43cf-aee4-4a610c209262{fill:url(#uuid-10ff8fad-8de4-47fb-8d9e-393ca0a834a4);opacity:.15;}.uuid-b3912c80-de37-4d6d-abea-fb322fbdb8e0{fill:url(#uuid-0b6f92c4-6be4-495b-9a67-b284518d7a00);}.uuid-a521d5f8-2495-4579-8adc-386a2080edda{fill:url(#uuid-8b9c745e-93c4-4862-96bb-54b6b6eed58a);}</style><linearGradient id="uuid-8b9c745e-93c4-4862-96bb-54b6b6eed58a" x1="12.686" y1="489.408" x2="35.58" y2="452.159" gradientTransform="translate(0 494) scale(1 -1)" gradientUnits="userSpaceOnUse"><stop offset="0" stop-color="#ff9c0d"/><stop offset="1" stop-color="#f36e22"/></linearGradient><radialGradient id="uuid-10ff8fad-8de4-47fb-8d9e-393ca0a834a4" cx="-62.7469" cy="446.03" fx="-62.7469" fy="446.03" r="5.1076" gradientTransform="translate(72.9928 330.5668) scale(.7808 -.7066)" gradientUnits="userSpaceOnUse"><stop offset=".516" stop-color="#000"/><stop offset="1" stop-color="#000" stop-opacity="0"/></radialGradient><linearGradient id="uuid-0b6f92c4-6be4-495b-9a67-b284518d7a00" x1="22.6773" y1="13.2434" x2="25.328" y2="17.4854" gradientUnits="userSpaceOnUse"><stop offset="0" stop-color="#fff"/><stop offset=".242" stop-color="#f2f2f2"/><stop offset="1" stop-color="#ccc"/></linearGradient><linearGradient id="uuid-4b9a2181-76cd-4779-8dbe-4625b10d1c0d" x1="20.742" y1="21.7861" x2="27.258" y2="32.2139" xlink:href="#uuid-0b6f92c4-6be4-495b-9a67-b284518d7a00"/></defs><path class="uuid-a521d5f8-2495-4579-8adc-386a2080edda" d="M42,8H6c-1.105,0-2,.895-2,2v26c0,1.105.895,2,2,2h8v7.998c0,.891,1.077,1.337,1.707.707l8.705-8.705h17.588c1.105,0,2-.895,2-2V10c0-1.105-.895-2-2-2Z"/><path class="uuid-61871cc2-b6a1-4f75-a21b-c40a83b1888c" d="M22,34h4c.552,0,1-.448,1-1v-12c0-.552-.448-1-1-1h-4c-.552,0-1,.448-1,1v12c0,.552.448,1,1,1Z"/><path class="uuid-075250ac-1a09-426f-a79d-24b5bb6620cd" d="M22.227,33.5h3.547c.401,0,.727-.325.727-.727v-11.546c0-.401-.325-.727-.727-.727h-3.547c-.401,0-.727.325-.727.727v11.547c0,.401.325.726.727.726Z"/><ellipse class="uuid-74d0bb19-3f09-43cf-aee4-4a610c209262" cx="24" cy="15.402" rx="3.988" ry="3.609"/><path class="uuid-b3912c80-de37-4d6d-abea-fb322fbdb8e0" d="M24,17.732c1.7,0,2.65-1.068,2.65-2.388s-1.003-2.344-2.65-2.344-2.65,1.024-2.65,2.344.95,2.388,2.65,2.388Z"/><rect class="uuid-6449ff96-0c5d-4219-8a06-583785d619d5" x="22" y="21" width="4" height="12"/></svg>