<?xml version="1.0" encoding="UTF-8"?><svg id="uuid-a81a6b23-cd47-4463-b763-2149ecba3d89" xmlns="http://www.w3.org/2000/svg" width="48" height="48" xmlns:xlink="http://www.w3.org/1999/xlink" viewBox="0 0 48 48"><defs><style>.uuid-f226ce3b-85f3-46be-9aea-f40c4de9d113{fill:url(#uuid-41c863e0-a8bc-4547-8923-22bf256093f7);}.uuid-f226ce3b-85f3-46be-9aea-f40c4de9d113,.uuid-832b1d6b-62bd-486d-b06e-51d51f6cebee,.uuid-0b20c337-b875-43d9-8a8d-91a30245e08a,.uuid-847866f9-89f4-48a2-9e42-979842d2f2a0{stroke-width:0px;}.uuid-832b1d6b-62bd-486d-b06e-51d51f6cebee{opacity:.05;}.uuid-0b20c337-b875-43d9-8a8d-91a30245e08a{fill:url(#uuid-6d1e4176-9bcf-47e2-97c4-613c7ca73779);}.uuid-847866f9-89f4-48a2-9e42-979842d2f2a0{opacity:.07;}</style><linearGradient id="uuid-6d1e4176-9bcf-47e2-97c4-613c7ca73779" x1="14.7553" y1="9.2054" x2="30.7222" y2="34.7578" gradientUnits="userSpaceOnUse"><stop offset="0" stop-color="#ff9c0d"/><stop offset="1" stop-color="#f36e22"/></linearGradient><linearGradient id="uuid-41c863e0-a8bc-4547-8923-22bf256093f7" x1="24" y1="42.963" x2="24" y2="28" xlink:href="#uuid-6d1e4176-9bcf-47e2-97c4-613c7ca73779"/></defs><path class="uuid-0b20c337-b875-43d9-8a8d-91a30245e08a" d="M40.963,20h-12.963V7.037c0-1.1046-.8954-2-2-2h-4c-1.1046,0-2,.8954-2,2v12.963H7.037c-1.1046,0-2,.8954-2,2v4c0,1.1046.8954,2,2,2h33.9259c1.1046,0,2-.8954,2-2v-4c0-1.1046-.8954-2-2-2Z"/><path class="uuid-f226ce3b-85f3-46be-9aea-f40c4de9d113" d="M20,28v12.963c0,1.1046.8954,2,2,2h4c1.1046,0,2-.8954,2-2v-12.963h-8Z"/><rect class="uuid-832b1d6b-62bd-486d-b06e-51d51f6cebee" x="20" y="28" width="8" height="1"/><rect class="uuid-847866f9-89f4-48a2-9e42-979842d2f2a0" x="20" y="28" width="8" height=".5"/></svg>