<?xml version="1.0" encoding="UTF-8"?><svg id="uuid-6653fac8-8d8f-461a-9186-9d1d8be3c542" xmlns="http://www.w3.org/2000/svg" width="48" height="48" xmlns:xlink="http://www.w3.org/1999/xlink" viewBox="0 0 48 48"><defs><style>.uuid-bbd2b9b8-b720-4760-bbbd-3b04a88e62a7{fill:url(#uuid-a8baaede-77f1-409b-b6b4-45c462d90f2e);}.uuid-bbd2b9b8-b720-4760-bbbd-3b04a88e62a7,.uuid-1c66668e-7e96-4c79-85aa-2cfbf7c27599,.uuid-fa3bcb16-0102-45f2-bd2f-915fab21d667,.uuid-a4a071cc-3a29-4931-a985-e109c2901f7f,.uuid-99140693-3bec-4715-b882-71ee543cee34{stroke-width:0px;}.uuid-1c66668e-7e96-4c79-85aa-2cfbf7c27599{fill:url(#uuid-b72ca4f9-36cb-4388-931a-a31bf7e6e9fd);}.uuid-fa3bcb16-0102-45f2-bd2f-915fab21d667{opacity:.05;}.uuid-a4a071cc-3a29-4931-a985-e109c2901f7f,.uuid-99140693-3bec-4715-b882-71ee543cee34{fill:#fff;}.uuid-99140693-3bec-4715-b882-71ee543cee34{opacity:.2;}</style><linearGradient id="uuid-b72ca4f9-36cb-4388-931a-a31bf7e6e9fd" x1="25.6602" y1="78.4128" x2="25.6602" y2="32.4128" gradientUnits="userSpaceOnUse"><stop offset=".266" stop-color="#199ae0"/><stop offset=".582" stop-color="#1898de"/><stop offset=".745" stop-color="#1590d6"/><stop offset=".873" stop-color="#1083c9"/><stop offset=".982" stop-color="#0870b7"/><stop offset="1" stop-color="#076cb3"/></linearGradient><linearGradient id="uuid-a8baaede-77f1-409b-b6b4-45c462d90f2e" x1="4.9081" y1="19.8984" x2="31.3905" y2="19.8984" gradientUnits="userSpaceOnUse"><stop offset="0" stop-color="#32bdef"/><stop offset="1" stop-color="#1ea2e4"/></linearGradient></defs><g id="uuid-33dc17ed-de36-408e-802b-3b432586f59b"><path id="uuid-a9dd7c71-0c8a-498c-b2ca-c3043d456097" class="uuid-1c66668e-7e96-4c79-85aa-2cfbf7c27599" d="M11.2461,4.0059l28.5156,6.2441h3.0859v33.75H10.5039c-1.1218,0-2.0312-.9094-2.0312-2.0312h0v-8.5042l2.7135-29.3704.0599-.0883Z"/><polygon class="uuid-fa3bcb16-0102-45f2-bd2f-915fab21d667" points="39.7617 10.25 11.2461 4.0059 11.1862 4.0942 8.4727 33.4645 8.4727 34.9636 11.5244 33.125 41.0742 33.125 41.0742 10.25 39.7617 10.25"/><polygon class="uuid-fa3bcb16-0102-45f2-bd2f-915fab21d667" points="39.7617 10.25 11.2461 4.0059 11.1862 4.0942 8.4727 33.4645 8.4727 34.3799 11.3853 32.625 40.5742 32.625 40.5742 10.25 39.7617 10.25"/><path class="uuid-bbd2b9b8-b720-4760-bbbd-3b04a88e62a7" d="M38.043,4H11.2461l-6.0938,3.6719v28.125l6.0938-3.6719h28.8281V6.0312c0-1.1218-.9094-2.0312-2.0312-2.0312Z"/><polygon id="uuid-45e330c5-9449-4137-a83d-da4e9405ea8d" class="uuid-99140693-3bec-4715-b882-71ee543cee34" points="5.1523 35.7969 11.2461 32.125 11.2461 4 5.1523 7.6719 5.1523 35.7969"/></g><g id="uuid-010bd4b9-089c-423c-91f8-2aecd3d2059d"><path class="uuid-fa3bcb16-0102-45f2-bd2f-915fab21d667" d="M31.2652,33.8482v.181l-.0885-.181h-3.4301v.7143c-.5606-.4501-1.3413-.7143-2.2609-.7143h-3.2834v2.3615l-.7117-2.3615h-3.5334l-2.2869,8.0004h3.671l.3288-1.2905h.1646l.363,1.2905h5.5755v-.4141c.4085.363.9223.5409,1.5517.5409.2739,0,.5216-.0521.7528-.1268h3.0204v-.452l.2132.452h3.3054v-8.0004h-3.3514Z"/><path class="uuid-fa3bcb16-0102-45f2-bd2f-915fab21d667" d="M31.7888,34.3717v1.9214l-.9387-1.9214h-2.5799v5.0207h-.3548l-.1028-.0429-.431-.8129c.4954-.3875.7705-.9172.7705-1.5062v-.5317c0-1.2721-1.0716-2.1269-2.6663-2.1269h-2.7599v5.3893l-1.6243-5.3893h-2.7496l-1.9873,6.9533h2.5697l.3288-1.2905h.9684l.363,1.2905h4.6552v-1.723l.363.7352c.3707.771.8988,1.1146,1.7123,1.1146.3272,0,.6197-.0665.8462-.1933l.0992-.0557v.1221h2.3043v-2.2629l1.0686,2.2629h2.45v-6.9533h-2.3043ZM25.6284,37.0048c0,.091,0,.1769-.2613.1769h-.1176v-.7506h.1176c.2613,0,.2613.0808.2613.1524v.4213Z"/><path class="uuid-a4a071cc-3a29-4931-a985-e109c2901f7f" d="M20.6282,39.5109h-1.7719l-.3291,1.291h-1.4681l1.6875-5.9063h1.966l1.7803,5.9063h-1.5019l-.3628-1.291ZM19.7253,35.8658l-.5991,2.5481h1.215l-.6159-2.5481Z"/><path class="uuid-a4a071cc-3a29-4931-a985-e109c2901f7f" d="M27.9156,39.9159v.886c-.1519.0844-.3628.1266-.5906.1266-.5147,0-.9197-.1519-1.2404-.8184l-.7088-1.4344h-.6497v2.1263h-1.4766v-5.9063h2.236c1.2825,0,2.1431.616,2.1431,1.6031v.5316c0,.5822-.3628,1.0378-.9365,1.3247l.6581,1.2403c.1097.2194.2531.3206.4978.3206h.0675ZM24.7261,37.7052h.6413c.4725,0,.7847-.2447.7847-.7003v-.4219c0-.4472-.3206-.675-.7847-.675h-.6413v1.7972Z"/><path class="uuid-a4a071cc-3a29-4931-a985-e109c2901f7f" d="M33.5694,34.8955v5.9063h-1.5947l-1.9238-4.0754v4.0754h-1.2572v-5.9063h1.7297l1.7888,3.6619v-3.6619h1.2572Z"/></g><g id="uuid-76c1b402-a8c4-4226-92db-39f5f42c39bd"><path class="uuid-fa3bcb16-0102-45f2-bd2f-915fab21d667" d="M28.0621,26.9276l-.9576-3.4071h-3.0682l-.8687,3.4061h-6.0765l5.0524-17.6799h6.7555l5.329,17.6809h-6.166ZM25.8109,18.5314l-.2812-1.1626-.273,1.1626h.5542Z"/><path class="uuid-fa3bcb16-0102-45f2-bd2f-915fab21d667" d="M28.4588,26.404l-.9576-3.4071h-3.8719l-.8687,3.4061h-4.9752l4.7528-16.6328h5.9717l5.0136,16.6338h-5.0647ZM26.4761,19.0549l-.9535-3.944-.9269,3.944h1.8805Z"/><path class="uuid-a4a071cc-3a29-4931-a985-e109c2901f7f" d="M27.8981,22.4733h-4.6758l-.8684,3.4067h-3.8743l4.4532-15.5861h5.1879l4.6981,15.5861h-3.9634l-.9574-3.4067ZM25.5157,12.8544l-1.5809,6.7243h3.2062l-1.6254-6.7243Z"/></g></svg>