<?xml version="1.0" encoding="UTF-8"?><svg id="uuid-5d02ba4b-05fa-4b64-995a-c5f5a0084aa0" xmlns="http://www.w3.org/2000/svg" width="48" height="48" xmlns:xlink="http://www.w3.org/1999/xlink" viewBox="0 0 48 48"><defs><style>.uuid-b5143edb-699d-42c5-840c-3a76df916f37{fill:url(#uuid-5607b226-48f9-4605-aeea-56c197711d7c);}.uuid-b5143edb-699d-42c5-840c-3a76df916f37,.uuid-cb33f9e1-0727-4307-9e36-fbf6c57577c6,.uuid-00406769-1537-45b4-99b7-7b9d78c3a7d7,.uuid-a5e08e63-995c-488b-a532-abd90115cea0,.uuid-055453c0-c83e-4192-866b-deefe2d7383b,.uuid-1a859d46-ba22-4026-a39d-15d18dd1c537,.uuid-c936db21-4bce-44ec-a435-1d885fcb9b84,.uuid-e512ddd6-c620-44da-ab80-70a04a4d2b47,.uuid-e57ac9d8-67be-4e9f-a0b7-4924d3986d56{stroke-width:0px;}.uuid-cb33f9e1-0727-4307-9e36-fbf6c57577c6{opacity:.05;}.uuid-00406769-1537-45b4-99b7-7b9d78c3a7d7{fill:url(#uuid-bc9d1b0a-b919-4195-8588-6fd699356577);}.uuid-a5e08e63-995c-488b-a532-abd90115cea0,.uuid-e57ac9d8-67be-4e9f-a0b7-4924d3986d56{fill:#fff;}.uuid-055453c0-c83e-4192-866b-deefe2d7383b{fill:url(#uuid-d5e36011-a719-47c3-b612-14ed07a97b6d);}.uuid-1a859d46-ba22-4026-a39d-15d18dd1c537{fill:url(#uuid-b8a352eb-0a11-475d-80df-f2e9021e3f9b);}.uuid-c936db21-4bce-44ec-a435-1d885fcb9b84{opacity:.07;}.uuid-e512ddd6-c620-44da-ab80-70a04a4d2b47{fill:url(#uuid-2b9f1713-61ee-4375-b88d-e8d0cbaef27f);}.uuid-e57ac9d8-67be-4e9f-a0b7-4924d3986d56{opacity:.2;}</style><linearGradient id="uuid-2b9f1713-61ee-4375-b88d-e8d0cbaef27f" x1="25.6602" y1="78.4128" x2="25.6602" y2="32.4128" gradientUnits="userSpaceOnUse"><stop offset=".266" stop-color="#199ae0"/><stop offset=".582" stop-color="#1898de"/><stop offset=".745" stop-color="#1590d6"/><stop offset=".873" stop-color="#1083c9"/><stop offset=".982" stop-color="#0870b7"/><stop offset="1" stop-color="#076cb3"/></linearGradient><linearGradient id="uuid-5607b226-48f9-4605-aeea-56c197711d7c" x1="4.9081" y1="19.8984" x2="31.3905" y2="19.8984" gradientUnits="userSpaceOnUse"><stop offset="0" stop-color="#32bdef"/><stop offset="1" stop-color="#1ea2e4"/></linearGradient><linearGradient id="uuid-d5e36011-a719-47c3-b612-14ed07a97b6d" x1="42.006" y1="-248.5205" x2="33.9405" y2="-240.455" gradientTransform="translate(0 -206) scale(1 -1)" gradientUnits="userSpaceOnUse"><stop offset="0" stop-color="#64717c"/><stop offset="1" stop-color="#30363d"/></linearGradient><linearGradient id="uuid-b8a352eb-0a11-475d-80df-f2e9021e3f9b" x1="36.2399" y1="-241.6508" x2="39.8015" y2="-247.4456" gradientTransform="translate(0 -206) scale(1 -1)" gradientUnits="userSpaceOnUse"><stop offset="0" stop-color="#ff9c0d"/><stop offset="1" stop-color="#f36e22"/></linearGradient><linearGradient id="uuid-bc9d1b0a-b919-4195-8588-6fd699356577" x1="33.0223" y1="-236.4838" x2="43.5756" y2="-253.6542" gradientTransform="translate(0 -206) scale(1 -1)" gradientUnits="userSpaceOnUse"><stop offset="0" stop-color="#fff"/><stop offset=".242" stop-color="#f2f2f2"/><stop offset="1" stop-color="#ccc"/></linearGradient></defs><g id="uuid-f32fab0f-6e6f-475f-a7b3-fcffa527a79b"><path id="uuid-9225af84-6a94-48e9-b8b7-2e1a3388f736" class="uuid-e512ddd6-c620-44da-ab80-70a04a4d2b47" d="M11.2461,4.0059l28.5156,6.2441h3.0859v33.75H10.5039c-1.1218,0-2.0312-.9094-2.0312-2.0312h0v-8.5042l2.7135-29.3704.0599-.0883Z"/><polygon class="uuid-cb33f9e1-0727-4307-9e36-fbf6c57577c6" points="39.7617 10.25 11.2461 4.0059 11.1862 4.0942 8.4727 33.4645 8.4727 34.9636 11.5244 33.125 41.0742 33.125 41.0742 10.25 39.7617 10.25"/><polygon class="uuid-cb33f9e1-0727-4307-9e36-fbf6c57577c6" points="39.7617 10.25 11.2461 4.0059 11.1862 4.0942 8.4727 33.4645 8.4727 34.3799 11.3853 32.625 40.5742 32.625 40.5742 10.25 39.7617 10.25"/><path class="uuid-b5143edb-699d-42c5-840c-3a76df916f37" d="M38.043,4H11.2461l-6.0938,3.6719v28.125l6.0938-3.6719h28.8281V6.0312c0-1.1218-.9094-2.0312-2.0312-2.0312Z"/><polygon id="uuid-d1edbd63-b3cc-47c3-8ca7-8e9684e1a4fa" class="uuid-e57ac9d8-67be-4e9f-a0b7-4924d3986d56" points="5.1523 35.7969 11.2461 32.125 11.2461 4 5.1523 7.6719 5.1523 35.7969"/></g><g id="uuid-bdce10ea-2fa7-4bd7-876a-0ad137247ac2"><path class="uuid-cb33f9e1-0727-4307-9e36-fbf6c57577c6" d="M31.2652,33.8482v.181l-.0885-.181h-3.4301v.7143c-.5606-.4501-1.3413-.7143-2.2609-.7143h-3.2834v2.3615l-.7117-2.3615h-3.5334l-2.2869,8.0004h3.671l.3288-1.2905h.1646l.363,1.2905h5.5755v-.4141c.4085.363.9223.5409,1.5517.5409.2739,0,.5216-.0521.7528-.1268h3.0204v-.452l.2132.452h3.3054v-8.0004h-3.3514Z"/><path class="uuid-cb33f9e1-0727-4307-9e36-fbf6c57577c6" d="M31.7888,34.3717v1.9214l-.9387-1.9214h-2.5799v5.0207h-.3548l-.1028-.0429-.431-.8129c.4954-.3875.7705-.9172.7705-1.5062v-.5317c0-1.2721-1.0716-2.1269-2.6663-2.1269h-2.7599v5.3893l-1.6243-5.3893h-2.7496l-1.9873,6.9533h2.5697l.3288-1.2905h.9684l.363,1.2905h4.6552v-1.723l.363.7352c.3707.771.8988,1.1146,1.7123,1.1146.3272,0,.6197-.0665.8462-.1933l.0992-.0557v.1221h2.3043v-2.2629l1.0686,2.2629h2.45v-6.9533h-2.3043ZM25.6284,37.0048c0,.091,0,.1769-.2613.1769h-.1176v-.7506h.1176c.2613,0,.2613.0808.2613.1524v.4213Z"/><path class="uuid-a5e08e63-995c-488b-a532-abd90115cea0" d="M20.6282,39.5109h-1.7719l-.3291,1.291h-1.4681l1.6875-5.9063h1.966l1.7803,5.9063h-1.5019l-.3628-1.291ZM19.7253,35.8658l-.5991,2.5481h1.215l-.6159-2.5481Z"/><path class="uuid-a5e08e63-995c-488b-a532-abd90115cea0" d="M27.9156,39.9159v.886c-.1519.0844-.3628.1266-.5906.1266-.5147,0-.9197-.1519-1.2404-.8184l-.7088-1.4344h-.6497v2.1263h-1.4766v-5.9063h2.236c1.2825,0,2.1431.616,2.1431,1.6031v.5316c0,.5822-.3628,1.0378-.9365,1.3247l.6581,1.2403c.1097.2194.2531.3206.4978.3206h.0675ZM24.7261,37.7052h.6413c.4725,0,.7847-.2447.7847-.7003v-.4219c0-.4472-.3206-.675-.7847-.675h-.6413v1.7972Z"/><path class="uuid-a5e08e63-995c-488b-a532-abd90115cea0" d="M33.5694,34.8955v5.9063h-1.5947l-1.9238-4.0754v4.0754h-1.2572v-5.9063h1.7297l1.7888,3.6619v-3.6619h1.2572Z"/></g><g id="uuid-6ef2ad61-a19f-4aa8-98d8-1031c2efe44b"><path class="uuid-cb33f9e1-0727-4307-9e36-fbf6c57577c6" d="M28.0621,26.9276l-.9576-3.4071h-3.0682l-.8687,3.4061h-6.0765l5.0524-17.6799h6.7555l5.329,17.6809h-6.166ZM25.8109,18.5314l-.2812-1.1626-.273,1.1626h.5542Z"/><path class="uuid-cb33f9e1-0727-4307-9e36-fbf6c57577c6" d="M28.4588,26.404l-.9576-3.4071h-3.8719l-.8687,3.4061h-4.9752l4.7528-16.6328h5.9717l5.0136,16.6338h-5.0647ZM26.4761,19.0549l-.9535-3.944-.9269,3.944h1.8805Z"/><path class="uuid-a5e08e63-995c-488b-a532-abd90115cea0" d="M27.8981,22.4733h-4.6758l-.8684,3.4067h-3.8743l4.4532-15.5861h5.1879l4.6981,15.5861h-3.9634l-.9574-3.4067ZM25.5157,12.8544l-1.5809,6.7243h3.2062l-1.6254-6.7243Z"/></g><circle class="uuid-055453c0-c83e-4192-866b-deefe2d7383b" cx="38" cy="38.5145" r="5.75"/><circle class="uuid-1a859d46-ba22-4026-a39d-15d18dd1c537" cx="38" cy="38.5145" r="3.5"/><path class="uuid-cb33f9e1-0727-4307-9e36-fbf6c57577c6" d="M42.1609,40.1609v-.7853c-.2483,1.1931-1.0107,2.1894-2.0359,2.7853h.0359c1.1046,0,2-.8954,2-2Z"/><path class="uuid-cb33f9e1-0727-4307-9e36-fbf6c57577c6" d="M33.7501,38.5146c0-2.3359,1.9062-4.2363,4.25-4.2363,2.0476,0,3.7605,1.4508,4.1608,3.375v-9.2891c-.3122-.1277-.6279-.248-.9528-.3467-.0938-.0283-.1924-.043-.292-.043-.334,0-.6455.166-.832.4453-.4668.6992-1.2461,1.1162-2.084,1.1162-.8389,0-1.6182-.417-2.084-1.1172-.1865-.2783-.498-.4443-.832-.4443-.0996,0-.1982.0146-.291.043-1.5088.458-2.8838,1.2305-4.085,2.2959-.3438.3027-.4375.7988-.2275,1.2061.3887.7568.3672,1.6465-.0576,2.3799-.4443.7676-1.2432,1.2324-2.1387,1.2432-.457.0059-.8516.3193-.958.7617-.2168.8799-.3262,1.7588-.3262,2.6104,0,.666.0674,1.3584.1992,2.0576.0967.5088.6123.8125,1.0547.8125.6903,0,1.3385.2907,1.8052.7761h5.816c-1.2642-.7348-2.1251-2.0859-2.1251-3.6462Z"/><path class="uuid-c936db21-4bce-44ec-a435-1d885fcb9b84" d="M33.2501,38.5146c0-2.6113,2.1309-4.7363,4.75-4.7363,1.8036,0,3.3567,1.0193,4.1608,2.4995v-7.3763c-.3578-.1547-.7237-.2915-1.0993-.4055-.0479-.0146-.0967-.0215-.1455-.0215-.1641,0-.3213.0811-.416.2227-.5596.8379-1.4941,1.3389-2.5,1.3389-1.0068,0-1.9414-.501-2.5-1.3389-.0947-.1416-.252-.2227-.416-.2227-.0479,0-.0977.0068-.1455.0215-1.4385.4365-2.751,1.1738-3.9004,2.1924-.1719.1514-.2178.3994-.1133.6025.4668.9092.4404,1.9785-.0693,2.8584-.5332.9219-1.4922,1.4805-2.5645,1.4932-.2285.0029-.4258.1592-.4795.3809-.207.8428-.3115,1.6807-.3115,2.4912,0,.6377.0645,1.2979.1904,1.9639.0449.2363.3232.4062.5635.4062.9767,0,1.873.4926,2.4317,1.2761h4.321c-1.063-.8691-1.7566-2.1718-1.7566-3.6462Z"/><path class="uuid-00406769-1537-45b4-99b7-7b9d78c3a7d7" d="M47.7035,36.1423c-1.1945-.0145-2.351-.6353-2.9915-1.7418-.6165-1.0651-.604-2.3183-.081-3.3375-1.0625-.941-2.321-1.665-3.715-2.0884-.6275.941-1.6985,1.5613-2.916,1.5613s-2.2885-.6203-2.9155-1.5613c-1.394.4234-2.6525,1.1474-3.715,2.0884.523,1.0193.5355,2.2724-.081,3.3375-.6405,1.1065-1.797,1.7274-2.9915,1.7418-.187.7615-.297,1.5533-.297,2.3721,0,.6403.0665,1.2641.182,1.871,1.2345-.0254,2.4455.6024,3.1065,1.7443.684,1.1818.5935,2.595-.11,3.6627,1.041.9709,2.2865,1.7234,3.67,2.1816.565-1.1699,1.762-1.9797,3.1515-1.9797s2.5865.8098,3.1515,1.9802c1.3835-.4583,2.629-1.2108,3.67-2.1816-.7035-1.0676-.794-2.4808-.11-3.6627.661-1.1419,1.8715-1.7697,3.1065-1.7443.1155-.6074.182-1.2312.182-1.8715,0-.8188-.11-1.6107-.2965-2.3721ZM38,43.7503c-2.8995,0-5.25-2.3442-5.25-5.2359s2.3505-5.2359,5.25-5.2359,5.25,2.3442,5.25,5.2359-2.3505,5.2359-5.25,5.2359Z"/></svg>