<?xml version="1.0" encoding="UTF-8"?><svg id="uuid-58b734f1-955d-4fe3-a389-3f531a3326fa" xmlns="http://www.w3.org/2000/svg" width="48" height="48" xmlns:xlink="http://www.w3.org/1999/xlink" viewBox="0 0 48 48"><defs><style>.uuid-8b14e477-7295-4749-80b0-3c3fcd343033{fill:url(#uuid-71f22ec7-f06c-490a-b33e-d01fadcb8723);}.uuid-8b14e477-7295-4749-80b0-3c3fcd343033,.uuid-290a8def-e161-4558-9f91-415daa77ab9f,.uuid-26f1a4f3-d107-4954-9849-6a79ea5f65e6,.uuid-84203ee7-d3ea-4a38-b9c1-1457fa4b0a38{stroke-width:0px;}.uuid-290a8def-e161-4558-9f91-415daa77ab9f{fill:url(#uuid-12fb2f2b-3b86-4066-a549-203d51450f14);opacity:.75;}.uuid-26f1a4f3-d107-4954-9849-6a79ea5f65e6{fill:url(#uuid-122c6a70-f79c-4208-bc27-bdcd654073bd);}.uuid-84203ee7-d3ea-4a38-b9c1-1457fa4b0a38{isolation:isolate;opacity:.05;}</style><linearGradient id="uuid-71f22ec7-f06c-490a-b33e-d01fadcb8723" x1="3.7923" y1="17.3868" x2="32.9812" y2="17.3868" gradientUnits="userSpaceOnUse"><stop offset="0" stop-color="#64717c"/><stop offset="1" stop-color="#30363d"/></linearGradient><linearGradient id="uuid-122c6a70-f79c-4208-bc27-bdcd654073bd" x1="9.4056" y1="23" x2="38.5944" y2="23" gradientUnits="userSpaceOnUse"><stop offset="0" stop-color="#ff9c0d"/><stop offset="1" stop-color="#f36e22"/></linearGradient><linearGradient id="uuid-12fb2f2b-3b86-4066-a549-203d51450f14" x1="15.0188" y1="28.6132" x2="44.2077" y2="28.6132" gradientUnits="userSpaceOnUse"><stop offset="0" stop-color="#fff"/><stop offset=".242" stop-color="#f2f2f2"/><stop offset="1" stop-color="#ccc"/></linearGradient></defs><path class="uuid-8b14e477-7295-4749-80b0-3c3fcd343033" d="M4.5478,10.3893L31.4914,1.0623c.7286-.2515,1.4898.2896,1.4898,1.0609v21.2001c0,.4782-.3031.9049-.7555,1.0609l-26.9436,9.327c-.7286.2515-1.4898-.2896-1.4898-1.0609V11.4502c0-.4782.3031-.9049.7555-1.0609Z"/><path class="uuid-84203ee7-d3ea-4a38-b9c1-1457fa4b0a38" d="M32.2257,24.3842c.4524-.156.7555-.5827.7555-1.0609V6.9147L9.7951,14.9405c-.9049.3132-1.5122,1.1653-1.5122,2.1229v15.6082l23.9428-8.2874Z"/><path class="uuid-84203ee7-d3ea-4a38-b9c1-1457fa4b0a38" d="M32.2257,24.3842c.4524-.156.7555-.5827.7555-1.0609V7.5097l-23.0031,7.963c-.6781.2335-1.1339.8734-1.1339,1.5908v15.414l23.3814-8.0932Z"/><path class="uuid-26f1a4f3-d107-4954-9849-6a79ea5f65e6" d="M10.1611,16.0025l26.9436-9.327c.7286-.2515,1.4898.2896,1.4898,1.0609v21.2001c0,.4782-.3031.9049-.7555,1.0609l-26.9436,9.327c-.7286.2515-1.4898-.2896-1.4898-1.0609v-21.2001c0-.4782.3031-.9049.7555-1.0609Z"/><path class="uuid-84203ee7-d3ea-4a38-b9c1-1457fa4b0a38" d="M37.8389,29.9975c.4524-.156.7555-.5827.7555-1.0609V12.5279l-23.1861,8.0258c-.9049.3132-1.5122,1.1653-1.5122,2.1229v15.6082l23.9428-8.2874Z"/><path class="uuid-84203ee7-d3ea-4a38-b9c1-1457fa4b0a38" d="M37.8389,29.9975c.4524-.156.7555-.5827.7555-1.0609v-15.8136l-23.0031,7.963c-.6781.2335-1.1339.8734-1.1339,1.5908v15.414l23.3814-8.0932Z"/><path class="uuid-290a8def-e161-4558-9f91-415daa77ab9f" d="M15.7743,21.6158l26.9436-9.327c.7286-.2515,1.4898.2896,1.4898,1.0609v21.2001c0,.4782-.3031.9049-.7555,1.0609l-26.9436,9.327c-.7286.2515-1.4898-.2896-1.4898-1.0609v-21.2001c0-.4782.3031-.9049.7555-1.0609Z"/></svg>