<?xml version="1.0" encoding="UTF-8"?><svg id="uuid-a044e340-698f-4707-84c5-5eeb1857b869" xmlns="http://www.w3.org/2000/svg" width="48" height="48" xmlns:xlink="http://www.w3.org/1999/xlink" viewBox="0 0 48 48"><defs><style>.uuid-1706d2bb-483e-4de4-8e69-b4e74fa8dbf4{opacity:.07;}.uuid-1706d2bb-483e-4de4-8e69-b4e74fa8dbf4,.uuid-63a8a505-c520-4e79-9000-1317ff9bb47d{isolation:isolate;}.uuid-1706d2bb-483e-4de4-8e69-b4e74fa8dbf4,.uuid-63a8a505-c520-4e79-9000-1317ff9bb47d,.uuid-3a5c0d49-ff97-4daf-a660-d193bdbd5fcd{stroke-width:0px;}.uuid-63a8a505-c520-4e79-9000-1317ff9bb47d{opacity:.05;}.uuid-3a5c0d49-ff97-4daf-a660-d193bdbd5fcd{fill:url(#uuid-23f56f82-b828-4caf-a174-2b504aa67b15);}</style><linearGradient id="uuid-23f56f82-b828-4caf-a174-2b504aa67b15" x1="14.5703" y1="8.4365" x2="33.7381" y2="39.6229" gradientUnits="userSpaceOnUse"><stop offset="0" stop-color="#ff9c0d"/><stop offset="1" stop-color="#f36e22"/></linearGradient></defs><path class="uuid-63a8a505-c520-4e79-9000-1317ff9bb47d" d="M24.0439,46.1338c-.3442,0-.6719-.0967-1.0322-.3047-5.8428-3.3818-11.6919-6.7529-17.5479-10.1104-.6636-.3809-.9854-.9492-.9844-1.7363.0083-6.7568.0088-13.5146-.0005-20.2725-.001-.8037.3311-1.374,1.0151-1.7422.832-.4492,1.6538-.918,2.4756-1.3857l1.1836-.6719c.1333-.0762.2749-.1436.4634-.2314l1.7373-.8389.0015,7.0352c.002,4.9453.0044,9.8896-.0181,14.8359-.002.4512.0464.542.4004.751,4.2314,2.502,8.5273,5.1221,12.3184,7.4336.0073-.0039.0161-.0088.0259-.0146,4.2935-2.4512,8.5908-4.8936,12.8965-7.3213.0718-.041.0947-.0625.0957-.0635-.0532-5-.0522-9.9912-.0386-14.9814,0-.0098.001-.0166.0024-.0215-4.3789-2.4736-8.688-4.9229-12.9912-7.3809-1.7061,1.0068-3.3862,1.9795-5.0723,2.9404.0107.4482.0132.8848.0122,1.3281,1.3491-.7783,2.6982-1.5566,4.0396-2.3467.2236-.1318.5728-.3086,1.0181-.3086.3306,0,.6514.0957.98.29,3.2202,1.9141,6.4512,3.8076,9.6909,5.6865.7017.4062,1.0415,1.0049,1.0371,1.8301-.019,3.6641-.0181,7.3271-.001,10.9902.0034.7969-.3286,1.3779-1.0151,1.7773-3.2603,1.8906-6.5088,3.7988-9.7529,5.7148-.3184.1885-.6284.2803-.9468.2803-.3101,0-.6128-.0869-.9253-.2656-1.3223-.7588-2.645-1.5127-3.9683-2.2676-2.0454-1.166-4.0903-2.333-6.1284-3.5117-.5288-.3066-.9282-.9932-.9307-1.5977-.0146-4.2012-.0171-8.4033-.0195-12.6045l-.0068-7.4785c-.001-.7549.3198-1.3037.98-1.6777,3.3506-1.9023,6.6948-3.8145,10.0322-5.7393.3345-.1924.6538-.2861.9785-.2861.3149,0,.6235.0869.9429.2666,5.8682,3.2949,11.7412,6.5791,17.6206,9.8516.6675.3721.9912.9209.9902,1.6777-.0088,6.7783-.0088,13.5566.001,20.3359.001.7754-.3257,1.3398-.9985,1.7275-5.8569,3.3584-11.7061,6.7275-17.5469,10.1113-.3438.1992-.6758.2969-1.0137.2969ZM21.0347,28.0811c.9673.5527,1.9346,1.1064,2.9102,1.6445,1.6611-.9219,3.3281-1.8818,4.9595-2.8555.0298-1.8906.0303-3.8164.0005-5.7256-1.6108-.9629-3.2773-1.9238-4.9585-2.8574-1.6914.9316-3.3472,1.8789-4.9268,2.8193-.0542.707-.0483,1.3945-.043,2.082l.0073,1.6445c.0029.6914.0063,1.3828-.0103,2.0732.7095.4014,1.3853.7881,2.061,1.1748ZM23.9302,18.2783s-.0352-.0205-.0527-.0303l.0527.0303Z"/><path class="uuid-63a8a505-c520-4e79-9000-1317ff9bb47d" d="M10.3541,10.4357v.956c0,6.4381.0125,12.8763-.0165,19.3142-.0035.7661.2003,1.2087.8912,1.6172,4.1256,2.4392,8.2188,4.9332,12.3106,7.4289.3883.2369.6671.2097,1.0393-.0029,4.2907-2.4506,8.5869-4.8915,12.8908-7.3188.3997-.2254.5694-.4748.5678-.9472-.0166-4.9884-.0152-9.9769-.0018-14.9653.0012-.4371-.1309-.6893-.5209-.9091-4.3415-2.4473-8.6742-4.9102-13.0019-7.3817-.3372-.1925-.5947-.2031-.933-.0027-1.7042,1.0093-3.4186,2.0016-5.1395,2.9823-.3351.191-.4793.4125-.4682.808.0274.9764.009,1.954.009,3.0508.2762-.1365.4617-.2158.6353-.316,1.6415-.9475,3.2849-1.8918,4.9177-2.8541.3424-.2018.6067-.2409.9802-.019,3.2226,1.9145,6.4566,3.8102,9.6991,5.6908.4037.2341.5416.4977.5391.9603-.0192,3.6666-.0181,7.3334-.001,11.0001.0021.4397-.1352.6858-.5182.9079-3.2613,1.8914-6.5122,3.8008-9.7583,5.7182-.3133.185-.5496.1896-.867.0075-3.3624-1.9287-6.7375-3.8354-10.0927-5.7764-.2187-.1265-.4303-.4847-.4312-.7359-.0234-6.6938-.0157-13.3878-.0262-20.0817-.0006-.3932.1345-.6139.4736-.8064,3.3524-1.9028,6.6987-3.8163,10.038-5.7421.3359-.1937.5879-.2072.9331-.0134,5.8683,3.2952,11.7426,6.5795,17.6228,9.8535.3454.1923.4775.4137.477.8031-.0088,6.7792-.0091,13.5584.0007,20.3376.0006.411-.1305.6487-.4968.8588-5.8571,3.3589-11.7077,6.7293-17.55,10.1139-.3887.2252-.6669.209-1.044-.0092-5.8438-3.382-11.6938-6.7535-17.5515-10.1114-.3741-.2144-.4816-.4662-.4811-.8682.0084-6.758.0087-13.516-.0006-20.2739-.0006-.407.1128-.6584.4899-.8619,1.2366-.6674,2.4504-1.3769,3.6752-2.0663.1808-.1018.3734-.1825.7101-.3452ZM17.981,23.9973c0,.9802.0168,1.9608-.0083,2.9403-.01.3902.1195.6224.4605.8139,1.7076.9591,3.3969,1.951,5.1123,2.8956.2093.1153.5926.1151.8014-.0007,1.7313-.9602,3.4476-1.9483,5.1471-2.9636.207-.1236.4046-.4566.4085-.6958.0327-1.9811.0324-3.9632.001-5.9444-.0038-.2417-.1906-.5809-.3953-.7033-1.6987-1.0163-3.415-2.0041-5.1455-2.9653-.2112-.1173-.5947-.1308-.8017-.0169-1.7342.9545-3.454,1.9362-5.1537,2.9507-.2147.1281-.3945.4882-.4073.7498-.0476.9779-.019,1.9594-.0191,2.9396Z"/><path class="uuid-63a8a505-c520-4e79-9000-1317ff9bb47d" d="M24.0439,46.1338c-.3442,0-.6719-.0967-1.0322-.3047-5.8428-3.3818-11.6919-6.7529-17.5479-10.1104-.6636-.3809-.9854-.9492-.9844-1.7363.0083-6.7568.0088-13.5146-.0005-20.2725-.001-.8037.3311-1.374,1.0151-1.7422.832-.4492,1.6538-.918,2.4756-1.3857l1.1836-.6719c.1333-.0762.2749-.1436.4634-.2314l1.7373-.8389.0015,7.0352c.002,4.9453.0044,9.8896-.0181,14.8359-.002.4512.0464.542.4004.751,4.2314,2.502,8.5273,5.1221,12.3184,7.4336.0073-.0039.0161-.0088.0259-.0146,4.2935-2.4512,8.5908-4.8936,12.8965-7.3213.0718-.041.0947-.0625.0957-.0635-.0532-5-.0522-9.9912-.0386-14.9814,0-.0098.001-.0166.0024-.0215-4.3789-2.4736-8.688-4.9229-12.9912-7.3809-1.7061,1.0068-3.3862,1.9795-5.0723,2.9404.0107.4482.0132.8848.0122,1.3281,1.3491-.7783,2.6982-1.5566,4.0396-2.3467.2236-.1318.5728-.3086,1.0181-.3086.3306,0,.6514.0957.98.29,3.2202,1.9141,6.4512,3.8076,9.6909,5.6865.7017.4062,1.0415,1.0049,1.0371,1.8301-.019,3.6641-.0181,7.3271-.001,10.9902.0034.7969-.3286,1.3779-1.0151,1.7773-3.2603,1.8906-6.5088,3.7988-9.7529,5.7148-.3184.1885-.6284.2803-.9468.2803-.3101,0-.6128-.0869-.9253-.2656-1.3223-.7588-2.645-1.5127-3.9683-2.2676-2.0454-1.166-4.0903-2.333-6.1284-3.5117-.5288-.3066-.9282-.9932-.9307-1.5977-.0146-4.2012-.0171-8.4033-.0195-12.6045l-.0068-7.4785c-.001-.7549.3198-1.3037.98-1.6777,3.3506-1.9023,6.6948-3.8145,10.0322-5.7393.3345-.1924.6538-.2861.9785-.2861.3149,0,.6235.0869.9429.2666,5.8682,3.2949,11.7412,6.5791,17.6206,9.8516.6675.3721.9912.9209.9902,1.6777-.0088,6.7783-.0088,13.5566.001,20.3359.001.7754-.3257,1.3398-.9985,1.7275-5.8569,3.3584-11.7061,6.7275-17.5469,10.1113-.3438.1992-.6758.2969-1.0137.2969ZM21.0347,28.0811c.9673.5527,1.9346,1.1064,2.9102,1.6445,1.6611-.9219,3.3281-1.8818,4.9595-2.8555.0298-1.8906.0303-3.8164.0005-5.7256-1.6108-.9629-3.2773-1.9238-4.9585-2.8574-1.6914.9316-3.3472,1.8789-4.9268,2.8193-.0542.707-.0483,1.3945-.043,2.082l.0073,1.6445c.0029.6914.0063,1.3828-.0103,2.0732.7095.4014,1.3853.7881,2.061,1.1748ZM23.9302,18.2783s-.0352-.0205-.0527-.0303l.0527.0303Z"/><path class="uuid-1706d2bb-483e-4de4-8e69-b4e74fa8dbf4" d="M24.0439,45.6338c-.2563,0-.4976-.0732-.7822-.2373-5.8428-3.3818-11.6924-6.7539-17.5493-10.1113-.5073-.292-.7339-.6934-.7329-1.3018.0083-6.7578.0088-13.5156-.0005-20.2744-.001-.6191.2314-1.0205.752-1.3008.8052-.4346,1.5996-.8867,2.394-1.3389l1.2749-.7246c.124-.0703.2549-.1318.4282-.2129l1.0259-.4951.0015,6.5195c.002,4.8506.0039,9.7002-.0181,14.5527-.0029.6279.1362.8828.646,1.1836,4.1895,2.4766,8.4492,5.0742,12.2075,7.3662l.3486.2119.252-.1338c4.3311-2.4727,8.6279-4.9141,12.9326-7.3418.0933-.0537.1597-.1006.2056-.1475l.1465-.1484-.002-.208c-.0557-5.2158-.0508-10.4639-.0386-14.916l.0957-.3213-.3472-.1963c-4.3784-2.4727-8.687-4.9219-12.9893-7.3799l-.252-.1436-.25.1475c-1.7041,1.0059-3.3823,1.9766-5.0659,2.9365l-.2593.1484.0068.2979c.0107.4443.0132.876.0122,1.3154l-.002.8682.752-.4346c1.3501-.7783,2.7007-1.5576,4.0435-2.3486.189-.1113.4468-.2393.7642-.2393.2373,0,.4746.0723.7256.2207,3.2207,1.9141,6.4531,3.8086,9.6943,5.6885.5488.3174.7915.748.7881,1.3945-.019,3.666-.0181,7.3311-.001,10.9951.0024.6191-.2339,1.0332-.7666,1.3428-3.2607,1.8916-6.5103,3.7998-9.7559,5.7168-.2397.1416-.4658.2109-.6924.2109-.2207,0-.4424-.0654-.6772-.1992-1.1646-.6689-3.9688-2.2686-3.9688-2.2686-2.0444-1.165-4.0884-2.332-6.1255-3.5098-.3735-.2168-.6792-.7402-.6812-1.167-.0146-4.2002-.0171-8.4014-.0195-12.6025l-.0068-7.4785c-.001-.5742.2231-.958.7266-1.2432,3.3521-1.9023,6.6973-3.8154,10.0356-5.7402.2563-.1475.4946-.2197.7285-.2197.2275,0,.4556.0664.6978.2021,5.8691,3.2959,11.7427,6.5801,17.6226,9.8525.5078.2832.7344.666.7334,1.2402-.0088,6.7793-.0088,13.5576.001,20.3379.001.5957-.23.9951-.748,1.293-5.8569,3.3584-11.7065,6.7285-17.5479,10.1123-.2666.1543-.5161.2295-.7632.2295ZM23.7051,17.8496c-1.7007.9365-3.3633,1.8877-4.9414,2.8271l-.2227.1328-.02.2588c-.0552.7227-.0498,1.4268-.0444,2.1074l.0073,1.6592c.0029.7197.0059,1.3896-.0103,2.0596l-.0068.2998,2.4526,1.3965c.9253.5293,1.8506,1.0576,2.7837,1.5723l.2427.1338.2417-.1338c1.6607-.9219,3.334-1.8857,4.9732-2.8633l.2393-.1436.0044-.2783c.0298-1.9053.0303-3.8369.0005-5.7412l-.0044-.2783-.2393-.1426c-1.6284-.9736-3.3013-1.9375-4.9722-2.8662l-.2417-.1338-.2422.1338Z"/><path class="uuid-3a5c0d49-ff97-4daf-a660-d193bdbd5fcd" d="M10.3541,10.4357v.956c0,6.4381.0125,12.8763-.0165,19.3142-.0035.7661.2003,1.2087.8912,1.6172,4.1256,2.4392,8.2188,4.9332,12.3106,7.4289.3883.2369.6671.2097,1.0393-.0029,4.2907-2.4506,8.5869-4.8915,12.8908-7.3188.3997-.2254.5694-.4748.5678-.9472-.0166-4.9884-.0152-9.9769-.0018-14.9653.0012-.4371-.1309-.6893-.5209-.9091-4.3415-2.4473-8.6742-4.9102-13.0019-7.3817-.3372-.1925-.5947-.2031-.933-.0027-1.7042,1.0093-3.4186,2.0016-5.1395,2.9823-.3351.191-.4793.4125-.4682.808.0274.9764.009,1.954.009,3.0508.2762-.1365.4617-.2158.6353-.316,1.6415-.9475,3.2849-1.8918,4.9177-2.8541.3424-.2018.6067-.2409.9802-.019,3.2226,1.9145,6.4566,3.8102,9.6991,5.6908.4037.2341.5416.4977.5391.9603-.0192,3.6666-.0181,7.3334-.001,11.0001.0021.4397-.1352.6858-.5182.9079-3.2613,1.8914-6.5122,3.8008-9.7583,5.7182-.3133.185-.5496.1896-.867.0075-3.3624-1.9287-6.7375-3.8354-10.0927-5.7764-.2187-.1265-.4303-.4847-.4312-.7359-.0234-6.6938-.0157-13.3878-.0262-20.0817-.0006-.3932.1345-.6139.4736-.8064,3.3524-1.9028,6.6987-3.8163,10.038-5.7421.3359-.1937.5879-.2072.9331-.0134,5.8683,3.2952,11.7426,6.5795,17.6228,9.8535.3454.1923.4775.4137.477.8031-.0088,6.7792-.0091,13.5584.0007,20.3376.0006.411-.1305.6487-.4968.8588-5.8571,3.3589-11.7077,6.7293-17.55,10.1139-.3887.2252-.6669.209-1.044-.0092-5.8438-3.382-11.6938-6.7535-17.5515-10.1114-.3741-.2144-.4816-.4662-.4811-.8682.0084-6.758.0087-13.516-.0006-20.2739-.0006-.407.1128-.6584.4899-.8619,1.2366-.6674,2.4504-1.3769,3.6752-2.0663.1808-.1018.3734-.1825.7101-.3452ZM17.981,23.9973c0,.9802.0168,1.9608-.0083,2.9403-.01.3902.1195.6224.4605.8139,1.7076.9591,3.3969,1.951,5.1123,2.8956.2093.1153.5926.1151.8014-.0007,1.7313-.9602,3.4476-1.9483,5.1471-2.9636.207-.1236.4046-.4566.4085-.6958.0327-1.9811.0324-3.9632.001-5.9444-.0038-.2417-.1906-.5809-.3953-.7033-1.6987-1.0163-3.415-2.0041-5.1455-2.9653-.2112-.1173-.5947-.1308-.8017-.0169-1.7342.9545-3.454,1.9362-5.1537,2.9507-.2147.1281-.3945.4882-.4073.7498-.0476.9779-.019,1.9594-.0191,2.9396Z"/></svg>