<?xml version="1.0" encoding="UTF-8"?><svg id="uuid-7b382175-c07d-4d4c-bd33-77483a8d419d" xmlns="http://www.w3.org/2000/svg" width="48" height="48" xmlns:xlink="http://www.w3.org/1999/xlink" viewBox="0 0 48 48"><defs><style>.uuid-ea74478f-57ad-47ab-aca2-47d72ffb76e7{fill:url(#uuid-0d8a218c-d47a-47fb-a06a-1de6cb414295);opacity:.75;}.uuid-ea74478f-57ad-47ab-aca2-47d72ffb76e7,.uuid-a2694442-3dba-49b9-b80e-1075dd72f7d3,.uuid-915b0d85-7570-4171-99dc-fdefc707ff5a,.uuid-27c7f346-d6d3-421b-8954-541d611d50b7{stroke-width:0px;}.uuid-915b0d85-7570-4171-99dc-fdefc707ff5a{fill:url(#uuid-79f59f5e-7a7d-449d-a67f-58b15da9e0ab);}.uuid-fabffff7-6a7c-44d5-91e8-8b1d1899e736{opacity:.05;}.uuid-5cf24378-1355-42b1-ad91-5bf0d3936c92{opacity:.07;}.uuid-27c7f346-d6d3-421b-8954-541d611d50b7{fill:url(#uuid-4f9664c8-6073-4fa1-b7b4-24edf39b1c06);}</style><linearGradient id="uuid-4f9664c8-6073-4fa1-b7b4-24edf39b1c06" x1="11.258" y1="490.7316" x2="37.0417" y2="448.7808" gradientTransform="translate(0 494) scale(1 -1)" gradientUnits="userSpaceOnUse"><stop offset="0" stop-color="#ff9c0d"/><stop offset="1" stop-color="#f36e22"/></linearGradient><linearGradient id="uuid-0d8a218c-d47a-47fb-a06a-1de6cb414295" x1="21.332" y1="3.3692" x2="26.668" y2="11.9086" gradientUnits="userSpaceOnUse"><stop offset="0" stop-color="#fff"/><stop offset=".242" stop-color="#f2f2f2"/><stop offset="1" stop-color="#ccc"/></linearGradient><linearGradient id="uuid-79f59f5e-7a7d-449d-a67f-58b15da9e0ab" x1="28.2625" y1="27.7572" x2="34.9031" y2="38.3844" gradientUnits="userSpaceOnUse"><stop offset="0" stop-color="#64717c"/><stop offset="1" stop-color="#30363d"/></linearGradient></defs><path class="uuid-27c7f346-d6d3-421b-8954-541d611d50b7" d="M40.8889,43H7.1111c-1.1611,0-2.1111-.95-2.1111-2.1111V7.1111c0-1.1611.95-2.1111,2.1111-2.1111h33.7778c1.1611,0,2.1111.95,2.1111,2.1111v33.7778c0,1.1611-.95,2.1111-2.1111,2.1111Z"/><path class="uuid-ea74478f-57ad-47ab-aca2-47d72ffb76e7" d="M18.7222,5h10.5556v5.2778h-10.5556v-5.2778Z"/><g class="uuid-5cf24378-1355-42b1-ad91-5bf0d3936c92"><rect class="uuid-a2694442-3dba-49b9-b80e-1075dd72f7d3" x="27.6944" y="37.1944" width="11.6111" height="3.1667" rx=".5278" ry=".5278"/><path class="uuid-a2694442-3dba-49b9-b80e-1075dd72f7d3" d="M29.2778,36.1389h2.1111c.2915,0,.5278-.2363.5278-.5278v-2.6389h3.1667v2.6389c0,.2915.2363.5278.5278.5278h2.1111c.2915,0,.5278-.2363.5278-.5278v-2.1111c0-.2915.2363-.5278.5278-.5278h1.2741l-3.012-3.012c-.2061-.2061-.5403-.2061-.7464,0l-2.4203,2.4203c-.2061.2061-.5403.2061-.7464,0l-2.4203-2.4203c-.2061-.2061-.5403-.2061-.7464,0l-3.012,3.012h1.2741c.2915,0,.5278.2363.5278.5278v2.1111c0,.2915.2363.5278.5278.5278Z"/></g><g class="uuid-fabffff7-6a7c-44d5-91e8-8b1d1899e736"><rect class="uuid-a2694442-3dba-49b9-b80e-1075dd72f7d3" x="27.1667" y="36.6667" width="12.6667" height="4.2222" rx=".5278" ry=".5278"/><path class="uuid-a2694442-3dba-49b9-b80e-1075dd72f7d3" d="M34.5556,36.1389v-2.1111c0-.2915-.2363-.5278-.5278-.5278h-1.0556c-.2915,0-.5278.2363-.5278.5278v2.1111c0,.2915-.2363.5278-.5278.5278h-3.1667c-.2915,0-.5278-.2363-.5278-.5278v-2.1111c0-.2915-.2363-.5278-.5278-.5278h-2.0204l4.2861-4.2861c.2061-.2061.5403-.2061.7464,0l2.4203,2.4203c.2061.2061.5403.2061.7464,0l2.4203-2.4203c.2061-.2061.5403-.2061.7464,0l4.2861,4.2861h-2.0204c-.2915,0-.5278.2363-.5278.5278v2.1111c0,.2915-.2363.5278-.5278.5278h-3.1667c-.2915,0-.5278-.2363-.5278-.5278Z"/></g><path class="uuid-915b0d85-7570-4171-99dc-fdefc707ff5a" d="M28.2222,37.7222h10.5556v2.1111h-10.5556v-2.1111ZM38.7778,32.4444l-2.1111-2.1111-2.1111,2.1111h1.0556v3.1667h2.1111v-3.1667h1.0556ZM32.4444,32.4444l-2.1111-2.1111-2.1111,2.1111h1.0556v3.1667h2.1111v-3.1667h1.0556Z"/></svg>