<?xml version="1.0" encoding="UTF-8"?><svg id="uuid-cf2b1027-1979-4c46-8af4-9681986911e8" xmlns="http://www.w3.org/2000/svg" width="48" height="48" xmlns:xlink="http://www.w3.org/1999/xlink" viewBox="0 0 48 48"><defs><style>.uuid-fb3114c7-9046-41ba-8798-679b26902c29{fill:url(#uuid-a58f265f-0c43-4730-acc4-a9934be1974a);isolation:isolate;opacity:.15;}.uuid-fb3114c7-9046-41ba-8798-679b26902c29,.uuid-a210d237-0904-4fdc-8cb1-889023c23209,.uuid-3dcc2f79-6698-4932-8f8f-cd32a4b40b29,.uuid-505999d8-d0b8-4b9b-abb8-d0327bbec0de,.uuid-9d0c92ab-ef9e-4f61-adf9-d42b6a38edb6,.uuid-83f28751-928c-48f0-826e-b7e6b92d6c29,.uuid-320e9b5c-fb6d-426d-9fc2-6cd84e7bf12d,.uuid-1eb52753-cd4a-4fd0-9ba0-ee845d3207b0,.uuid-ddbdf5b4-a9e1-46e3-b4ed-cfba098eacb4{stroke-width:0px;}.uuid-a210d237-0904-4fdc-8cb1-889023c23209{fill:url(#uuid-31cc6ba8-d6d9-4672-bb10-530ff9be4de4);}.uuid-3dcc2f79-6698-4932-8f8f-cd32a4b40b29{fill:url(#uuid-d22444fd-162e-43dc-8e98-b10e739c7df8);}.uuid-505999d8-d0b8-4b9b-abb8-d0327bbec0de{fill:url(#uuid-c12ff997-74d3-4b4c-b608-7bf8706c35d8);}.uuid-9d0c92ab-ef9e-4f61-adf9-d42b6a38edb6{fill:url(#uuid-d6c7a52a-a6ff-4dd3-b256-a5ceb8b9e875);}.uuid-83f28751-928c-48f0-826e-b7e6b92d6c29{fill:url(#uuid-295ca40f-aca3-43ef-88fb-dae59c72a0a1);}.uuid-320e9b5c-fb6d-426d-9fc2-6cd84e7bf12d{opacity:.07;}.uuid-1eb52753-cd4a-4fd0-9ba0-ee845d3207b0{fill:url(#uuid-e2677fb0-b298-42a7-85d1-10af0fccbaad);}.uuid-ddbdf5b4-a9e1-46e3-b4ed-cfba098eacb4{fill:url(#uuid-992826ee-b8e9-40e6-8932-2af9f41be097);opacity:.75;}</style><linearGradient id="uuid-295ca40f-aca3-43ef-88fb-dae59c72a0a1" x1="-539.2993" y1="332.5715" x2="-541.8837" y2="328.4355" gradientTransform="translate(550.3923 -322.6103)" gradientUnits="userSpaceOnUse"><stop offset="0" stop-color="#fff"/><stop offset=".242" stop-color="#f2f2f2"/><stop offset="1" stop-color="#ccc"/></linearGradient><linearGradient id="uuid-31cc6ba8-d6d9-4672-bb10-530ff9be4de4" x1="11.7364" y1="4.3568" x2="36.2636" y2="43.6086" gradientUnits="userSpaceOnUse"><stop offset="0" stop-color="#ff9c0d"/><stop offset="1" stop-color="#f36e22"/></linearGradient><linearGradient id="uuid-d22444fd-162e-43dc-8e98-b10e739c7df8" x1="17.8356" y1="27.1633" x2="30.4009" y2="47.272" gradientUnits="userSpaceOnUse"><stop offset="0" stop-color="#64717c"/><stop offset="1" stop-color="#30363d"/></linearGradient><radialGradient id="uuid-a58f265f-0c43-4730-acc4-a9934be1974a" cx="31.8302" cy="-29.0909" fx="31.8302" fy="-29.0909" r="12.6986" gradientTransform="translate(0 -6) scale(1 -1)" gradientUnits="userSpaceOnUse"><stop offset=".847" stop-color="#000"/><stop offset="1" stop-color="#000" stop-opacity="0"/></radialGradient><radialGradient id="uuid-d6c7a52a-a6ff-4dd3-b256-a5ceb8b9e875" cx="25.8467" cy="-20.9558" fx="25.8467" fy="-20.9558" r="21.236" gradientTransform="translate(0 -6) scale(1 -1)" gradientUnits="userSpaceOnUse"><stop offset="0" stop-color="#fafafb"/><stop offset=".293" stop-color="#f6f7f8"/><stop offset=".566" stop-color="#ebecee"/><stop offset=".832" stop-color="#d8dcdf"/><stop offset="1" stop-color="#c8cdd1"/></radialGradient><linearGradient id="uuid-e2677fb0-b298-42a7-85d1-10af0fccbaad" x1="27.797" y1="29.6531" x2="35.9584" y2="16.3743" xlink:href="#uuid-31cc6ba8-d6d9-4672-bb10-530ff9be4de4"/><linearGradient id="uuid-992826ee-b8e9-40e6-8932-2af9f41be097" x1="28.2895" y1="17.4245" x2="35.371" y2="28.7573" gradientTransform="matrix(1,0,0,1,0,0)" xlink:href="#uuid-295ca40f-aca3-43ef-88fb-dae59c72a0a1"/><linearGradient id="uuid-c12ff997-74d3-4b4c-b608-7bf8706c35d8" x1="10.5208" y1="16.9395" x2="8.9826" y2="13.3158" gradientTransform="matrix(1,0,0,1,0,0)" xlink:href="#uuid-295ca40f-aca3-43ef-88fb-dae59c72a0a1"/></defs><path class="uuid-83f28751-928c-48f0-826e-b7e6b92d6c29" d="M6.3263,7.1381h6.8508v1.047c0,.5886-.4779,1.0665-1.0665,1.0665h-4.7178c-.5886,0-1.0665-.4779-1.0665-1.0665v-1.047h0Z" transform="translate(19.5034 16.3897) rotate(180)"/><rect class="uuid-a210d237-0904-4fdc-8cb1-889023c23209" x="2.5" y="9.2516" width="43" height="29.4622" rx="1.9678" ry="1.9678"/><path class="uuid-320e9b5c-fb6d-426d-9fc2-6cd84e7bf12d" d="M45.5,36.746v-.4914c-.1321,0-.2516.0519-.34.1364H2.8399c-.0883-.0845-.2078-.1363-.3399-.1364v.4914c0,1.0868.881,1.9678,1.9678,1.9678h39.0644c1.0868,0,1.9678-.881,1.9678-1.9678Z"/><path class="uuid-3dcc2f79-6698-4932-8f8f-cd32a4b40b29" d="M43.5322,38.7138H4.4678c-1.0868,0-1.9678-.881-1.9678-1.9678v.1367h43v-.1367c0,1.0868-.881,1.9678-1.9678,1.9678Z"/><circle class="uuid-fb3114c7-9046-41ba-8798-679b26902c29" cx="31.8302" cy="23.0909" r="12.6986"/><circle class="uuid-9d0c92ab-ef9e-4f61-adf9-d42b6a38edb6" cx="31.8302" cy="23.0909" r="10.7926"/><circle class="uuid-1eb52753-cd4a-4fd0-9ba0-ee845d3207b0" cx="31.8302" cy="23.0909" r="8.0202"/><path class="uuid-320e9b5c-fb6d-426d-9fc2-6cd84e7bf12d" d="M31.8302,15.0707c-4.4294,0-8.0202,3.5907-8.0202,8.0202s3.5907,8.0202,8.0202,8.0202,8.0202-3.5907,8.0202-8.0202-3.5907-8.0202-8.0202-8.0202ZM31.8302,30.4427c-4.0538,0-7.3518-3.2987-7.3518-7.3518s3.298-7.3518,7.3518-7.3518,7.3518,3.2987,7.3518,7.3518-3.298,7.3518-7.3518,7.3518Z"/><circle class="uuid-ddbdf5b4-a9e1-46e3-b4ed-cfba098eacb4" cx="31.8302" cy="23.0909" r="6.6835"/><circle class="uuid-505999d8-d0b8-4b9b-abb8-d0327bbec0de" cx="9.7517" cy="15.1276" r="1.9678"/></svg>