<?xml version="1.0" encoding="UTF-8"?><svg id="uuid-67590335-efb2-406e-b26b-2c82248a3053" xmlns="http://www.w3.org/2000/svg" width="48" height="48" xmlns:xlink="http://www.w3.org/1999/xlink" viewBox="0 0 48 48"><defs><style>.uuid-4e1de115-ab0b-4e2c-b40e-b16e4aa763bd{opacity:.05;}.uuid-4e1de115-ab0b-4e2c-b40e-b16e4aa763bd,.uuid-fbb8899b-3708-43ed-9a63-a888aec160a6,.uuid-40eb6e69-39aa-4f98-8cfc-7cbd087047a8,.uuid-d0319676-f7c6-44ef-9aac-8134de2d6a45{stroke-width:0px;}.uuid-fbb8899b-3708-43ed-9a63-a888aec160a6{fill:url(#uuid-3200a873-8589-49b2-b176-d92966a2a71d);}.uuid-40eb6e69-39aa-4f98-8cfc-7cbd087047a8{fill:url(#uuid-a96f64be-acfd-4fe4-bf36-1719e0461842);}.uuid-d0319676-f7c6-44ef-9aac-8134de2d6a45{opacity:.07;}</style><linearGradient id="uuid-3200a873-8589-49b2-b176-d92966a2a71d" x1="3.759" y1="-27.759" x2="21.459" y2="-45.459" gradientTransform="translate(0 -6) scale(1 -1)" gradientUnits="userSpaceOnUse"><stop offset=".33" stop-color="#ff9c0d"/><stop offset="1" stop-color="#f36e22"/></linearGradient><linearGradient id="uuid-a96f64be-acfd-4fe4-bf36-1719e0461842" x1="114.4535" y1="414.8296" x2="156.6268" y2="414.8296" gradientTransform="translate(-167.9943 -364.6667) rotate(134.999) scale(1 -1)" gradientUnits="userSpaceOnUse"><stop offset="0" stop-color="#ff9c0d"/><stop offset="1" stop-color="#f36e22"/></linearGradient></defs><path class="uuid-fbb8899b-3708-43ed-9a63-a888aec160a6" d="M16.599,41.42L1.58,26.401c-.774-.774-.774-2.028,0-2.802l4.019-4.019c.774-.774,2.028-.774,2.802,0l15.019,15.019c.774.774.774,2.028,0,2.802l-4.019,4.019c-.774.773-2.028.773-2.802,0Z"/><path class="uuid-4e1de115-ab0b-4e2c-b40e-b16e4aa763bd" d="M23.42,34.599l-6.1276-6.1276-5.4204,5.4202c-.5388.5403-.816,1.2387-.8541,1.9474l5.581,5.581c.774.773,2.028.773,2.802,0l4.019-4.019c.774-.774.774-2.028,0-2.802Z"/><path class="uuid-d0319676-f7c6-44ef-9aac-8134de2d6a45" d="M23.42,34.599l-5.7738-5.7738-5.4202,5.4199c-.5735.575-.7979,1.3633-.6898,2.1121l5.0627,5.0627c.774.773,2.028.773,2.802,0l4.019-4.019c.774-.774.774-2.028,0-2.802Z"/><path class="uuid-40eb6e69-39aa-4f98-8cfc-7cbd087047a8" d="M12.58,34.599L39.599,7.58c.774-.774,2.028-.774,2.802,0l4.019,4.019c.774.774.774,2.028,0,2.802l-27.019,27.019c-.774.774-2.028.774-2.802,0l-4.019-4.019c-.773-.774-.773-2.028,0-2.802Z"/></svg>