<?xml version="1.0" encoding="UTF-8"?><svg id="uuid-695d4504-f344-4162-93f9-aeff80b7b7bf" xmlns="http://www.w3.org/2000/svg" width="48" height="48" xmlns:xlink="http://www.w3.org/1999/xlink" viewBox="0 0 48 48"><defs><style>.uuid-6a5f2348-be7f-4a8d-bd59-0b3f24715551{fill:url(#uuid-f3f5ed89-d7b0-439b-9fbb-279bfa6e0bef);}.uuid-6a5f2348-be7f-4a8d-bd59-0b3f24715551,.uuid-db0b110a-7b0a-4779-8008-c11ab41b44ed,.uuid-2045be0e-33ff-4220-80ec-9f4be36565d0,.uuid-3ab87d1c-74d3-4891-9e61-1841b23217af,.uuid-371a9bcd-a4c3-428a-b5c3-8735bde60461,.uuid-94f750aa-b3c3-4999-aabe-57bacab67d01,.uuid-1db4ba66-d325-4d42-84ae-88b9bc2e2ffe,.uuid-b92f521f-d5ec-4663-b21f-c4032bb8b627{stroke-width:0px;}.uuid-db0b110a-7b0a-4779-8008-c11ab41b44ed{fill:url(#uuid-aa8d9957-b33b-4987-a3e1-e730d5ac3b54);}.uuid-2045be0e-33ff-4220-80ec-9f4be36565d0{opacity:.05;}.uuid-3ab87d1c-74d3-4891-9e61-1841b23217af{fill:url(#uuid-cf8f789e-a0e6-4261-8149-d14f61288e62);}.uuid-371a9bcd-a4c3-428a-b5c3-8735bde60461{fill:url(#uuid-ce2b853b-76ff-45eb-ab4c-432fd4c35960);}.uuid-94f750aa-b3c3-4999-aabe-57bacab67d01{fill:url(#uuid-dae193ce-0ce3-4b51-aa90-12aa3c65ee3f);}.uuid-1db4ba66-d325-4d42-84ae-88b9bc2e2ffe{fill:url(#uuid-dcb1b7f2-2795-4c05-a0ae-e3f650a1c194);}.uuid-b92f521f-d5ec-4663-b21f-c4032bb8b627{opacity:.07;}</style><linearGradient id="uuid-dae193ce-0ce3-4b51-aa90-12aa3c65ee3f" x1="23.9445" y1="44.6645" x2="23.9445" y2="23.6667" gradientUnits="userSpaceOnUse"><stop offset="0" stop-color="#ff9c0d"/><stop offset="1" stop-color="#f36e22"/></linearGradient><linearGradient id="uuid-cf8f789e-a0e6-4261-8149-d14f61288e62" y1=".6667" y2="17.4444" xlink:href="#uuid-dae193ce-0ce3-4b51-aa90-12aa3c65ee3f"/><linearGradient id="uuid-ce2b853b-76ff-45eb-ab4c-432fd4c35960" x1="20.9444" y1="16.1112" x2="26.9445" y2="16.1112" gradientUnits="userSpaceOnUse"><stop offset="0" stop-color="#fff"/><stop offset=".242" stop-color="#f2f2f2"/><stop offset="1" stop-color="#ccc"/></linearGradient><linearGradient id="uuid-f3f5ed89-d7b0-439b-9fbb-279bfa6e0bef" x1="9.8335" y1="20.6291" x2="38.0555" y2="20.6291" xlink:href="#uuid-ce2b853b-76ff-45eb-ab4c-432fd4c35960"/><linearGradient id="uuid-dcb1b7f2-2795-4c05-a0ae-e3f650a1c194" x1="14.8117" y1="36.0935" x2="19.5644" y2="43.6995" gradientUnits="userSpaceOnUse"><stop offset="0" stop-color="#64717c"/><stop offset="1" stop-color="#30363d"/></linearGradient><linearGradient id="uuid-aa8d9957-b33b-4987-a3e1-e730d5ac3b54" x1="27.7245" y1="31.7829" x2="34.9596" y2="43.3615" xlink:href="#uuid-dcb1b7f2-2795-4c05-a0ae-e3f650a1c194"/></defs><path class="uuid-94f750aa-b3c3-4999-aabe-57bacab67d01" d="M41.2917,42.5555l-3.3095-18.8889H9.9067l-3.3095,18.8889s6.0122,2.1089,17.3472,2.1089c12.052,0,17.3472-2.1089,17.3472-2.1089Z"/><rect class="uuid-3ab87d1c-74d3-4891-9e61-1841b23217af" x="20.9444" y=".6667" width="6.0001" height="16.7778" rx="3.0001" ry="3.0001"/><rect class="uuid-371a9bcd-a4c3-428a-b5c3-8735bde60461" x="20.9444" y="13.1111" width="6.0001" height="6.0001"/><rect class="uuid-2045be0e-33ff-4220-80ec-9f4be36565d0" x="20.9444" y="15.9443" width="6.0001" height="3.1669"/><rect class="uuid-b92f521f-d5ec-4663-b21f-c4032bb8b627" x="20.9444" y="16.4443" width="6.0001" height="2.6669"/><path class="uuid-6a5f2348-be7f-4a8d-bd59-0b3f24715551" d="M15.8335,16.9444h16.222c3.3115,0,6,2.6885,6,6v1.3693H9.8335v-1.3693c0-3.3115,2.6885-6,6-6Z"/><path class="uuid-1db4ba66-d325-4d42-84ae-88b9bc2e2ffe" d="M18.3151,44.4802l-.4251-10.3102s-.7437,4.1982-1.11,5.7745c-.192.8259-.743,2.8351-1.1517,4.3058.842.0872,1.731.1661,2.6868.2299Z"/><path class="uuid-db0b110a-7b0a-4779-8008-c11ab41b44ed" d="M33.7449,44.1205c-.4445-1.8137-1.1459-4.7265-1.393-6.0375-.3826-2.029-1.2407-8.4164-1.2407-8.4164l-.2111,14.7341c1.0275-.0811,1.9773-.1753,2.8448-.2802Z"/></svg>