<?xml version="1.0" encoding="UTF-8"?><svg id="uuid-881ef71a-6c0d-40d6-9dcf-1dc0a78c7c9a" xmlns="http://www.w3.org/2000/svg" width="48" height="48" xmlns:xlink="http://www.w3.org/1999/xlink" viewBox="0 0 48 48"><defs><style>.uuid-ad9e143d-5993-4429-9e4f-521964b07483{fill:url(#uuid-0ad853c3-34f2-4bec-9df1-8f49786450b0);}.uuid-ad9e143d-5993-4429-9e4f-521964b07483,.uuid-933e0688-9a85-45a8-93d3-559667e0098c,.uuid-32e8f773-80e2-4dcf-82c2-0fbf396756e6,.uuid-86c94751-8970-445d-8a2e-493d5458a6fb,.uuid-5ab28ccc-b6c1-40ca-8607-3cc1266fcdaa,.uuid-1ea00b85-9ffe-40e8-803e-169724c8e34a,.uuid-0039d87d-7618-4461-9cee-5b9e298aa01b,.uuid-a918ba56-08ae-4cba-b2ef-0728a1b866bb,.uuid-da4284b9-45d1-4574-bcd5-b31273864f4e,.uuid-6f4fefac-77ca-4a4d-885c-9d57ff574f79,.uuid-266af27e-f933-4be2-8a62-450933d4f789{stroke-width:0px;}.uuid-933e0688-9a85-45a8-93d3-559667e0098c{opacity:.05;}.uuid-32e8f773-80e2-4dcf-82c2-0fbf396756e6{fill:url(#uuid-2266b614-d89e-472c-a4bd-5af0e7b7d886);}.uuid-86c94751-8970-445d-8a2e-493d5458a6fb{fill:url(#uuid-ffc4bd26-0fdf-4dad-aa76-32536ad5c914);}.uuid-5ab28ccc-b6c1-40ca-8607-3cc1266fcdaa{fill:url(#uuid-ef6038c5-105c-4b31-bf4b-49dbfe1c5ad9);}.uuid-1ea00b85-9ffe-40e8-803e-169724c8e34a{fill:url(#uuid-204f8b9f-895c-415c-93b6-087ad39810a4);}.uuid-0039d87d-7618-4461-9cee-5b9e298aa01b{fill:url(#uuid-2f1653ee-cb9a-4d70-acec-197375ec7a8a);}.uuid-a918ba56-08ae-4cba-b2ef-0728a1b866bb{fill:url(#uuid-04e6bb74-c4b1-49fd-8ce8-2d97244df5be);}.uuid-da4284b9-45d1-4574-bcd5-b31273864f4e{fill:url(#uuid-51b48147-3cc8-4ed2-822b-197adfce3393);}.uuid-6f4fefac-77ca-4a4d-885c-9d57ff574f79{opacity:.07;}.uuid-266af27e-f933-4be2-8a62-450933d4f789{fill:url(#uuid-b4578967-65d2-4602-ab5b-18104205f045);}</style><linearGradient id="uuid-04e6bb74-c4b1-49fd-8ce8-2d97244df5be" x1="19" y1="29" x2="4.86" y2="14.86" gradientUnits="userSpaceOnUse"><stop offset="0" stop-color="#8d22bd"/><stop offset="1" stop-color="#a235d3"/></linearGradient><linearGradient id="uuid-2f1653ee-cb9a-4d70-acec-197375ec7a8a" x1="29" y1="19" x2="14.86" y2="4.86" gradientUnits="userSpaceOnUse"><stop offset="0" stop-color="#cb264f"/><stop offset="1" stop-color="#e63b65"/></linearGradient><linearGradient id="uuid-ffc4bd26-0fdf-4dad-aa76-32536ad5c914" x1="31.07" y1="16.93" x2="21.07" y2="6.93" gradientUnits="userSpaceOnUse"><stop offset="0" stop-color="#e62232"/><stop offset="1" stop-color="#f0424e"/></linearGradient><linearGradient id="uuid-51b48147-3cc8-4ed2-822b-197adfce3393" x1="41.07" y1="26.93" x2="31.07" y2="16.93" gradientUnits="userSpaceOnUse"><stop offset="0" stop-color="#f36e22"/><stop offset="1" stop-color="#ff9c0d"/></linearGradient><linearGradient id="uuid-b4578967-65d2-4602-ab5b-18104205f045" x1="43.14" y1="33.14" x2="29" y2="19" gradientUnits="userSpaceOnUse"><stop offset="0" stop-color="#ffd645"/><stop offset="1" stop-color="#f7c20f"/></linearGradient><linearGradient id="uuid-0ad853c3-34f2-4bec-9df1-8f49786450b0" x1="33.14" y1="43.14" x2="19" y2="29" gradientUnits="userSpaceOnUse"><stop offset="0" stop-color="#32c27f"/><stop offset="1" stop-color="#23a769"/></linearGradient><linearGradient id="uuid-2266b614-d89e-472c-a4bd-5af0e7b7d886" x1="9.86" y1="34" x2="24" y2="34" gradientUnits="userSpaceOnUse"><stop offset="0" stop-color="#26ace9"/><stop offset="1" stop-color="#0e8cdc"/></linearGradient><linearGradient id="uuid-204f8b9f-895c-415c-93b6-087ad39810a4" x1="16.93" y1="31.07" x2="6.93" y2="21.07" gradientUnits="userSpaceOnUse"><stop offset="0" stop-color="#0c52bb"/><stop offset="1" stop-color="#3271d2"/></linearGradient><radialGradient id="uuid-ef6038c5-105c-4b31-bf4b-49dbfe1c5ad9" cx="17.9015" cy="178.2914" fx="17.9015" fy="178.2914" r="21.6441" gradientTransform="translate(0 194) scale(1 -1)" gradientUnits="userSpaceOnUse"><stop offset="0" stop-color="#fafafb"/><stop offset=".293" stop-color="#f6f7f8"/><stop offset=".566" stop-color="#ebecee"/><stop offset=".832" stop-color="#d8dcdf"/><stop offset="1" stop-color="#c8cdd1"/></radialGradient></defs><path class="uuid-a918ba56-08ae-4cba-b2ef-0728a1b866bb" d="M24,24H4c0-5.52,2.24-10.52,5.86-14.14l14.14,14.14Z"/><path class="uuid-0039d87d-7618-4461-9cee-5b9e298aa01b" d="M24,4v20l-14.14-14.14c3.62-3.62,8.62-5.86,14.14-5.86Z"/><path class="uuid-86c94751-8970-445d-8a2e-493d5458a6fb" d="M38.14,9.86l-14.14,14.14V4c5.52,0,10.52,2.24,14.14,5.86Z"/><path class="uuid-da4284b9-45d1-4574-bcd5-b31273864f4e" d="M44,24h-20l14.14-14.14c3.62,3.62,5.86,8.62,5.86,14.14Z"/><path class="uuid-266af27e-f933-4be2-8a62-450933d4f789" d="M44,24c0,5.52-2.24,10.52-5.86,14.14l-14.14-14.14h20Z"/><path class="uuid-ad9e143d-5993-4429-9e4f-521964b07483" d="M38.14,38.14c-3.62,3.62-8.62,5.86-14.14,5.86v-20l14.14,14.14Z"/><path class="uuid-32e8f773-80e2-4dcf-82c2-0fbf396756e6" d="M24,24v20c-5.52,0-10.52-2.24-14.14-5.86l14.14-14.14Z"/><path class="uuid-1ea00b85-9ffe-40e8-803e-169724c8e34a" d="M24,24l-14.14,14.14c-3.62-3.6201-5.86-8.6201-5.86-14.14h20Z"/><circle class="uuid-933e0688-9a85-45a8-93d3-559667e0098c" cx="24" cy="24" r="12"/><circle class="uuid-6f4fefac-77ca-4a4d-885c-9d57ff574f79" cx="24" cy="24" r="11.5"/><circle class="uuid-5ab28ccc-b6c1-40ca-8607-3cc1266fcdaa" cx="24" cy="24" r="11"/></svg>