<?xml version="1.0" encoding="UTF-8"?><svg id="uuid-a43548f4-f95a-4082-9ed0-a31617554575" xmlns="http://www.w3.org/2000/svg" width="48" height="48" xmlns:xlink="http://www.w3.org/1999/xlink" viewBox="0 0 48 48"><defs><style>.uuid-73026c79-8604-47a1-bdb2-313d9ed024fe{fill:url(#uuid-bde5376e-d437-49d1-98bf-c0a4d28f45f8);isolation:isolate;opacity:.15;}.uuid-73026c79-8604-47a1-bdb2-313d9ed024fe,.uuid-8c4e033e-0ed0-4a27-8fdf-76c6505797a3,.uuid-d10f946a-f919-481a-a257-3a5dda87a7c3,.uuid-02a5a60b-2b0b-4152-a8e8-6cb9f5aed819,.uuid-1b439fe4-9cef-4752-9386-34621a587e70,.uuid-e62d44b3-8b78-4004-b52e-b11a29f39d83,.uuid-b094f8bc-0934-4701-a921-e1f68e0fc118{stroke-width:0px;}.uuid-8c4e033e-0ed0-4a27-8fdf-76c6505797a3{fill:url(#uuid-93d21e4a-bfde-4748-8466-c1971b3105fb);}.uuid-d10f946a-f919-481a-a257-3a5dda87a7c3{fill:url(#uuid-a8d1fd39-13b3-4758-ab51-18c0700e41c1);opacity:.75;}.uuid-02a5a60b-2b0b-4152-a8e8-6cb9f5aed819{fill:url(#uuid-a3970def-1958-4242-8aa2-a4231cca473d);}.uuid-1b439fe4-9cef-4752-9386-34621a587e70{fill:url(#uuid-c34d9c32-c63c-4970-ae9b-9570568be882);}.uuid-e62d44b3-8b78-4004-b52e-b11a29f39d83{fill:url(#uuid-c00f3571-4ddd-4ba7-8f62-f41ecd3e41cc);}.uuid-b094f8bc-0934-4701-a921-e1f68e0fc118{fill:url(#uuid-c04e2357-46d9-4e29-888c-2226060dcd64);}</style><linearGradient id="uuid-c04e2357-46d9-4e29-888c-2226060dcd64" x1="21.2909" y1="477.2293" x2="40.0956" y2="446.6338" gradientTransform="translate(0 494) scale(1 -1)" gradientUnits="userSpaceOnUse"><stop offset="0" stop-color="#ff9c0d"/><stop offset="1" stop-color="#f36e22"/></linearGradient><linearGradient id="uuid-c34d9c32-c63c-4970-ae9b-9570568be882" x1="26.963" y1="470.1278" x2="32.3752" y2="461.322" gradientTransform="translate(0 494) scale(1 -1)" gradientUnits="userSpaceOnUse"><stop offset="0" stop-color="#64717c"/><stop offset="1" stop-color="#30363d"/></linearGradient><linearGradient id="uuid-93d21e4a-bfde-4748-8466-c1971b3105fb" x1="25.8525" y1="465.494" x2="30.4337" y2="458.0403" xlink:href="#uuid-c34d9c32-c63c-4970-ae9b-9570568be882"/><radialGradient id="uuid-bde5376e-d437-49d1-98bf-c0a4d28f45f8" cx="18.69" cy="477.259" fx="18.69" fy="477.259" r="16.113" gradientTransform="translate(0 494) scale(1 -1)" gradientUnits="userSpaceOnUse"><stop offset=".627" stop-color="#000"/><stop offset="1" stop-color="#000" stop-opacity="0"/></radialGradient><linearGradient id="uuid-a8d1fd39-13b3-4758-ab51-18c0700e41c1" x1="8.5939" y1="487.0269" x2="22.6188" y2="464.208" gradientTransform="translate(0 494) scale(1 -1)" gradientUnits="userSpaceOnUse"><stop offset="0" stop-color="#fff"/><stop offset=".242" stop-color="#f2f2f2"/><stop offset="1" stop-color="#ccc"/></linearGradient><linearGradient id="uuid-c00f3571-4ddd-4ba7-8f62-f41ecd3e41cc" x1="15.963" y1="484.1278" x2="21.3752" y2="475.322" xlink:href="#uuid-c34d9c32-c63c-4970-ae9b-9570568be882"/><linearGradient id="uuid-a3970def-1958-4242-8aa2-a4231cca473d" x1="14.8525" y1="479.494" x2="19.4337" y2="472.0403" xlink:href="#uuid-c34d9c32-c63c-4970-ae9b-9570568be882"/></defs><path class="uuid-b094f8bc-0934-4701-a921-e1f68e0fc118" d="M44.909,43.729l-3.657-8.32c1.115-2.054,1.748-4.408,1.748-6.909,0-8.008-6.492-14.5-14.5-14.5s-14.5,6.492-14.5,14.5,6.492,14.5,14.5,14.5c2.613,0,5.058-.701,7.175-1.91l7.815,3.979c.868.442,1.811-.449,1.419-1.34Z"/><path class="uuid-1b439fe4-9cef-4752-9386-34621a587e70" d="M21.5,29h16c.276,0,.5-.224.5-.5v-1c0-.276-.224-.5-.5-.5h-16c-.276,0-.5.224-.5.5v1c0,.276.224.5.5.5Z"/><path class="uuid-8c4e033e-0ed0-4a27-8fdf-76c6505797a3" d="M21.5,33h13c.276,0,.5-.224.5-.5v-1c0-.276-.224-.5-.5-.5h-13c-.276,0-.5.224-.5.5v1c0,.276.224.5.5.5Z"/><path class="uuid-73026c79-8604-47a1-bdb2-313d9ed024fe" d="M14,28.5c0,1.383.206,2.715.567,3.982,1.287.326,2.626.518,4.013.518,9.058,0,16.402-7.387,16.402-16.5,0-.331-.03-.654-.049-.98-1.941-.964-4.119-1.52-6.433-1.52-8.008,0-14.5,6.492-14.5,14.5Z"/><path class="uuid-d10f946a-f919-481a-a257-3a5dda87a7c3" d="M18.5,3c-7.456,0-13.5,6.044-13.5,13.5,0,2.059.474,4.002,1.299,5.748-.013.03-.029.054-.04.088l-3.167,7.206c-.392.892.551,1.783,1.419,1.341l6.369-3.243c2.169,1.487,4.791,2.36,7.62,2.36,7.456,0,13.5-6.044,13.5-13.5S25.956,3,18.5,3Z"/><path class="uuid-e62d44b3-8b78-4004-b52e-b11a29f39d83" d="M10.5,15h16c.276,0,.5-.224.5-.5v-1c0-.276-.224-.5-.5-.5H10.5c-.276,0-.5.224-.5.5v1c0,.276.224.5.5.5Z"/><path class="uuid-02a5a60b-2b0b-4152-a8e8-6cb9f5aed819" d="M10.5,19h13c.276,0,.5-.224.5-.5v-1c0-.276-.224-.5-.5-.5h-13c-.276,0-.5.224-.5.5v1c0,.276.224.5.5.5Z"/></svg>