<?xml version="1.0" encoding="UTF-8"?><svg id="uuid-b0df3962-0040-496d-88d5-64ec8d6e464f" xmlns="http://www.w3.org/2000/svg" width="48" height="48" xmlns:xlink="http://www.w3.org/1999/xlink" viewBox="0 0 48 48"><defs><style>.uuid-8989b2d2-91d0-455f-985d-28aaf836ae7c{fill:url(#uuid-0ebbb00c-f19e-4db9-abd9-db4edd2e5c34);}.uuid-8989b2d2-91d0-455f-985d-28aaf836ae7c,.uuid-ba219391-2e62-4c3a-8e4c-191db199d279,.uuid-6d34c2d9-9a72-4c91-adfe-ef2e891fad51,.uuid-412bd3b0-060f-4051-93eb-2412e44dd8b2{stroke-width:0px;}.uuid-ba219391-2e62-4c3a-8e4c-191db199d279{opacity:.05;}.uuid-6d34c2d9-9a72-4c91-adfe-ef2e891fad51{fill:url(#uuid-101a6528-7836-418d-9bae-17ee25fe63b5);}.uuid-412bd3b0-060f-4051-93eb-2412e44dd8b2{opacity:.07;}</style><linearGradient id="uuid-0ebbb00c-f19e-4db9-abd9-db4edd2e5c34" x1="153.0373" y1="-180.637" x2="169.0043" y2="-155.0846" gradientTransform="translate(26.5175 256.019) rotate(-45)" gradientUnits="userSpaceOnUse"><stop offset="0" stop-color="#ff9c0d"/><stop offset="1" stop-color="#f36e22"/></linearGradient><linearGradient id="uuid-101a6528-7836-418d-9bae-17ee25fe63b5" x1="162.2821" y1="-146.8794" x2="162.2821" y2="-161.8424" xlink:href="#uuid-0ebbb00c-f19e-4db9-abd9-db4edd2e5c34"/></defs><path class="uuid-8989b2d2-91d0-455f-985d-28aaf836ae7c" d="M33.1662,9.177l-9.1662,9.1662-9.1662-9.1662c-.7811-.7811-2.0474-.781-2.8284,0l-2.8284,2.8284c-.781.781-.7811,2.0473,0,2.8284l9.1662,9.1662-9.1662,9.1662c-.781.781-.7811,2.0473,0,2.8284l2.8284,2.8284c.781.781,2.0474.781,2.8284,0l23.9892-23.9892c.781-.781.781-2.0474,0-2.8284l-2.8284-2.8284c-.7811-.7811-2.0474-.781-2.8284,0Z"/><path class="uuid-6d34c2d9-9a72-4c91-adfe-ef2e891fad51" d="M24,29.6569l9.1662,9.1662c.781.781,2.0474.781,2.8284,0l2.8284-2.8284c.781-.781.781-2.0474,0-2.8284l-9.1662-9.1662-5.6569,5.6569Z"/><rect class="uuid-ba219391-2e62-4c3a-8e4c-191db199d279" x="23.182" y="26.682" width="8" height="1" transform="translate(-11.2591 27.182) rotate(-45)"/><rect class="uuid-412bd3b0-060f-4051-93eb-2412e44dd8b2" x="23.0052" y="26.7552" width="8" height=".5" transform="translate(-11.1859 27.0052) rotate(-45)"/></svg>