<?xml version="1.0" encoding="UTF-8"?><svg id="uuid-c724a8b2-58fa-4eb5-adbb-06b1c7e7cff7" xmlns="http://www.w3.org/2000/svg" width="48" height="48" xmlns:xlink="http://www.w3.org/1999/xlink" viewBox="0 0 48 48"><defs><style>.uuid-aca3c66e-781e-48db-b17d-8c3212b1a515{fill:url(#uuid-5f5c647c-18ce-479a-8ceb-0c7a627de944);}.uuid-aca3c66e-781e-48db-b17d-8c3212b1a515,.uuid-28869697-ce97-494f-9d62-b1975dc7b254,.uuid-e50d093c-d6d8-4096-bce0-6a7c2a8398c8,.uuid-07145ecd-6cb8-43fc-a9e0-98a77006e228,.uuid-7f35da57-09e5-426e-8cd0-d14c92ab91ea,.uuid-d326ffa7-6265-4eab-9e22-ea2ac5502617,.uuid-af9b3cad-b7d3-421d-b0a1-361e6fa60d46{stroke-width:0px;}.uuid-28869697-ce97-494f-9d62-b1975dc7b254{fill:url(#uuid-ea444d5d-3fd3-46ef-acd4-6078ba67aa89);}.uuid-28869697-ce97-494f-9d62-b1975dc7b254,.uuid-7f35da57-09e5-426e-8cd0-d14c92ab91ea{opacity:.3;}.uuid-e50d093c-d6d8-4096-bce0-6a7c2a8398c8{fill:url(#uuid-2f9116e6-7076-4600-98bc-4450cb1decb2);}.uuid-07145ecd-6cb8-43fc-a9e0-98a77006e228{opacity:.05;}.uuid-7f35da57-09e5-426e-8cd0-d14c92ab91ea{fill:url(#uuid-c4b8ba38-f4db-40fc-8cc9-18d86a9f1178);}.uuid-d326ffa7-6265-4eab-9e22-ea2ac5502617{fill:url(#uuid-86f12b0c-89bf-45c9-aa9a-062e4e89fe2b);opacity:.75;}.uuid-af9b3cad-b7d3-421d-b0a1-361e6fa60d46{opacity:.07;}</style><linearGradient id="uuid-5f5c647c-18ce-479a-8ceb-0c7a627de944" x1="5.383" y1="35.4533" x2="42.617" y2="35.4533" gradientUnits="userSpaceOnUse"><stop offset="0" stop-color="#64717c"/><stop offset="1" stop-color="#30363d"/></linearGradient><linearGradient id="uuid-2f9116e6-7076-4600-98bc-4450cb1decb2" x1="18.7721" y1="32.3631" x2="29.2279" y2="15.6302" gradientUnits="userSpaceOnUse"><stop offset="0" stop-color="#32bdef"/><stop offset="1" stop-color="#1ea2e4"/></linearGradient><linearGradient id="uuid-c4b8ba38-f4db-40fc-8cc9-18d86a9f1178" x1="14.6915" y1="1.25" x2="14.6915" y2="32.5554" gradientUnits="userSpaceOnUse"><stop offset="0" stop-color="#fff"/><stop offset=".4174" stop-color="#f2f2f2"/><stop offset="1" stop-color="#ccc"/></linearGradient><linearGradient id="uuid-ea444d5d-3fd3-46ef-acd4-6078ba67aa89" x1="28.0668" y1="20.2624" x2="39.086" y2="37.8969" gradientUnits="userSpaceOnUse"><stop offset="0" stop-color="#fff"/><stop offset=".242" stop-color="#f2f2f2"/><stop offset="1" stop-color="#ccc"/></linearGradient><linearGradient id="uuid-86f12b0c-89bf-45c9-aa9a-062e4e89fe2b" x1="26.1497" y1="9.0424" x2="36.0682" y2="-7.0953" xlink:href="#uuid-ea444d5d-3fd3-46ef-acd4-6078ba67aa89"/></defs><polygon class="uuid-aca3c66e-781e-48db-b17d-8c3212b1a515" points="5.383 35.4533 24 26.1447 42.617 35.4533 24 44.7618 5.383 35.4533"/><path class="uuid-07145ecd-6cb8-43fc-a9e0-98a77006e228" d="M23.9999,26.1447l-8.2928,4.1465,7.8398,3.9199c.1395.0702.2968.1068.4531.1068s.3136-.0366.4531-.1068l7.8396-3.92-8.2927-4.1463Z"/><path class="uuid-af9b3cad-b7d3-421d-b0a1-361e6fa60d46" d="M23.9999,26.1447l-7.7265,3.8633,7.5,3.75c.0712.0356.1494.0534.2265.0534s.1553-.0178.2265-.0534l7.5-3.75-7.7265-3.8633Z"/><polygon class="uuid-e50d093c-d6d8-4096-bce0-6a7c2a8398c8" points="5.383 23.9967 24 14.6881 42.617 23.9967 24 33.3051 5.383 23.9967"/><path class="uuid-07145ecd-6cb8-43fc-a9e0-98a77006e228" d="M23.9999,14.688l-8.2926,4.1463,7.8396,3.9198c.1395.0702.2968.1068.4531.1068s.3136-.0366.4531-.1068l7.8396-3.9198-8.2927-4.1463Z"/><path class="uuid-af9b3cad-b7d3-421d-b0a1-361e6fa60d46" d="M23.9999,14.688l-7.7263,3.8632,7.4998,3.7499c.0712.0356.1494.0534.2265.0534s.1553-.0178.2265-.0534l7.4998-3.7499-7.7264-3.8632Z"/><polygon class="uuid-7f35da57-09e5-426e-8cd0-d14c92ab91ea" points="24 44.7618 5.383 35.4532 5.383 12.54 24 21.8485 24 44.7618"/><polygon class="uuid-28869697-ce97-494f-9d62-b1975dc7b254" points="24 44.7618 42.617 35.4532 42.617 12.54 24 21.8485 24 44.7618"/><polygon class="uuid-d326ffa7-6265-4eab-9e22-ea2ac5502617" points="5.383 12.54 23.8143 3.7618 42.617 12.54 24 21.8485 5.383 12.54"/></svg>