<?xml version="1.0" encoding="UTF-8"?><svg id="uuid-32c3d707-8995-487a-824a-7a794514d2dd" xmlns="http://www.w3.org/2000/svg" width="48" height="48" xmlns:xlink="http://www.w3.org/1999/xlink" viewBox="0 0 48 48"><defs><style>.uuid-90c81ab6-172b-478c-8a39-7f329c2e317d{fill:url(#uuid-09c02729-16b8-4794-89e4-dfdda317b1ab);}.uuid-90c81ab6-172b-478c-8a39-7f329c2e317d,.uuid-ff926537-9291-401e-909e-e2734a303975,.uuid-f3ad13f0-5137-4a33-897f-62a769d04075,.uuid-f8bc3bca-c33a-48f3-8506-30675ef84bac,.uuid-618358e5-593f-4ff7-a50e-6941365a8b2c,.uuid-459c56b5-fae3-4588-92a6-b22ff9473fef,.uuid-9cfccb14-1c12-4299-8d89-9f709ad338f7{stroke-width:0px;}.uuid-ff926537-9291-401e-909e-e2734a303975{fill:url(#uuid-de2fafb6-44dd-45ed-a8ea-3160ab75409a);}.uuid-ff926537-9291-401e-909e-e2734a303975,.uuid-f8bc3bca-c33a-48f3-8506-30675ef84bac{opacity:.3;}.uuid-f3ad13f0-5137-4a33-897f-62a769d04075{opacity:.05;}.uuid-f8bc3bca-c33a-48f3-8506-30675ef84bac{fill:url(#uuid-99db42f5-cf14-4ea6-bc82-c7e74aac1a16);}.uuid-618358e5-593f-4ff7-a50e-6941365a8b2c{fill:url(#uuid-34910e42-429b-4572-a65c-55130519474b);opacity:.75;}.uuid-459c56b5-fae3-4588-92a6-b22ff9473fef{opacity:.07;}.uuid-9cfccb14-1c12-4299-8d89-9f709ad338f7{fill:url(#uuid-32a510ba-b628-4b28-a85d-3e68365fb477);}</style><linearGradient id="uuid-09c02729-16b8-4794-89e4-dfdda317b1ab" x1="5.6207" y1="35.3103" x2="42.3793" y2="35.3103" gradientUnits="userSpaceOnUse"><stop offset="0" stop-color="#64717c"/><stop offset="1" stop-color="#30363d"/></linearGradient><linearGradient id="uuid-32a510ba-b628-4b28-a85d-3e68365fb477" x1="18.8388" y1="32.2596" x2="29.1612" y2="15.7405" gradientUnits="userSpaceOnUse"><stop offset="0" stop-color="#ff9c0d"/><stop offset="1" stop-color="#f36e22"/></linearGradient><linearGradient id="uuid-99db42f5-cf14-4ea6-bc82-c7e74aac1a16" x1="14.8103" y1="1.5439" x2="14.8103" y2="32.4494" gradientUnits="userSpaceOnUse"><stop offset="0" stop-color="#fff"/><stop offset=".4174" stop-color="#f2f2f2"/><stop offset="1" stop-color="#ccc"/></linearGradient><linearGradient id="uuid-de2fafb6-44dd-45ed-a8ea-3160ab75409a" x1="28.0148" y1="20.3134" x2="38.8934" y2="37.7228" gradientUnits="userSpaceOnUse"><stop offset="0" stop-color="#fff"/><stop offset=".242" stop-color="#f2f2f2"/><stop offset="1" stop-color="#ccc"/></linearGradient><linearGradient id="uuid-34910e42-429b-4572-a65c-55130519474b" x1="26.1222" y1="9.2368" x2="35.9141" y2="-6.6948" xlink:href="#uuid-de2fafb6-44dd-45ed-a8ea-3160ab75409a"/></defs><polygon class="uuid-90c81ab6-172b-478c-8a39-7f329c2e317d" points="5.6207 35.3104 24 26.1207 42.3793 35.3104 24 44.5 5.6207 35.3104"/><path class="uuid-f3ad13f0-5137-4a33-897f-62a769d04075" d="M23.9999,26.1207l-8.1869,4.0935,7.7397,3.8698c.1377.0693.293.1055.4473.1055s.3096-.0361.4473-.1055l7.7394-3.8699-8.1868-4.0934Z"/><path class="uuid-459c56b5-fae3-4588-92a6-b22ff9473fef" d="M23.9999,26.1207l-7.6278,3.814,7.4042,3.7021c.0703.0352.1475.0527.2236.0527s.1533-.0176.2236-.0527l7.4042-3.7021-7.6279-3.814Z"/><polygon class="uuid-9cfccb14-1c12-4299-8d89-9f709ad338f7" points="5.6207 24 24 14.8103 42.3793 24 24 33.1897 5.6207 24"/><path class="uuid-f3ad13f0-5137-4a33-897f-62a769d04075" d="M23.9999,14.8103l-8.1867,4.0934,7.7395,3.8698c.1377.0693.293.1055.4473.1055s.3096-.0361.4473-.1055l7.7394-3.8698-8.1868-4.0934Z"/><path class="uuid-459c56b5-fae3-4588-92a6-b22ff9473fef" d="M23.9999,14.8103l-7.6276,3.8138,7.4041,3.702c.0703.0352.1475.0527.2236.0527s.1533-.0176.2236-.0527l7.404-3.702-7.6277-3.8138Z"/><polygon class="uuid-f8bc3bca-c33a-48f3-8506-30675ef84bac" points="24 44.5 5.6207 35.3103 5.6207 12.6897 24 21.8793 24 44.5"/><polygon class="uuid-ff926537-9291-401e-909e-e2734a303975" points="24 44.5 42.3793 35.3103 42.3793 12.6897 24 21.8793 24 44.5"/><polygon class="uuid-618358e5-593f-4ff7-a50e-6941365a8b2c" points="5.6207 12.6897 23.8167 4.0236 42.3793 12.6897 24 21.8793 5.6207 12.6897"/></svg>