<?xml version="1.0" encoding="UTF-8"?><svg id="uuid-5cc1bd72-23f3-4b78-89c5-2a70bad648d9" xmlns="http://www.w3.org/2000/svg" width="48" height="48" xmlns:xlink="http://www.w3.org/1999/xlink" viewBox="0 0 48 48"><defs><style>.uuid-420dac3f-9ccb-4b63-8963-01d32c654e57{opacity:.05;}.uuid-420dac3f-9ccb-4b63-8963-01d32c654e57,.uuid-3e4e29eb-b8cc-4ba4-8e52-72eb5dd996f2,.uuid-36db3dd6-e442-4242-8bba-eaaf89fed890,.uuid-31a3d91e-32a0-4a15-8939-d7fc29fe7859{stroke-width:0px;}.uuid-3e4e29eb-b8cc-4ba4-8e52-72eb5dd996f2{fill:url(#uuid-95fa063b-ae02-44a8-8720-46d59c99e678);}.uuid-36db3dd6-e442-4242-8bba-eaaf89fed890{opacity:.07;}.uuid-31a3d91e-32a0-4a15-8939-d7fc29fe7859{fill:url(#uuid-b1248999-85d9-420c-b052-a98c458fe04a);}</style><linearGradient id="uuid-95fa063b-ae02-44a8-8720-46d59c99e678" x1="14.3047" y1="486.2905" x2="35.464" y2="451.864" gradientTransform="translate(0 494) scale(1 -1)" gradientUnits="userSpaceOnUse"><stop offset="0" stop-color="#ff9c0d"/><stop offset="1" stop-color="#f36e22"/></linearGradient><linearGradient id="uuid-b1248999-85d9-420c-b052-a98c458fe04a" x1="24" y1=".7138" x2="24" y2="11.3624" gradientUnits="userSpaceOnUse"><stop offset="0" stop-color="#fff"/><stop offset=".242" stop-color="#f2f2f2"/><stop offset="1" stop-color="#ccc"/></linearGradient></defs><path class="uuid-3e4e29eb-b8cc-4ba4-8e52-72eb5dd996f2" d="M39,10l-2.835,31.181c-.093,1.03-.957,1.819-1.991,1.819H13.826c-1.034,0-1.898-.789-1.992-1.819l-2.834-31.181h30Z"/><polygon class="uuid-420dac3f-9ccb-4b63-8963-01d32c654e57" points="9.1818 12 38.8182 12 39 10 9 10 9.1818 12"/><polygon class="uuid-36db3dd6-e442-4242-8bba-eaaf89fed890" points="9.1364 11.5 38.8636 11.5 39 10 9 10 9.1364 11.5"/><path class="uuid-31a3d91e-32a0-4a15-8939-d7fc29fe7859" d="M40.132,8.8c-1.4-.3079-4.3857-.9048-8.132-1.3268v-.4732c0-1.105-.895-2-2-2h-12c-1.105,0-2,.895-2,2v.4732c-3.7463.422-6.7321,1.0189-8.132,1.3268-.51.112-.868.563-.868,1.086,0,.615.499,1.114,1.114,1.114h31.772c.615,0,1.114-.499,1.114-1.114,0-.523-.358-.974-.868-1.086Z"/></svg>