<?xml version="1.0" encoding="UTF-8"?><svg id="uuid-262ce3e8-18ce-44a2-b7a4-2f656cad6b6f" xmlns="http://www.w3.org/2000/svg" width="48" height="48" xmlns:xlink="http://www.w3.org/1999/xlink" viewBox="0 0 48 48"><defs><style>.uuid-25b5a86d-423b-4932-b9cd-4d4cc3f1920b{fill:url(#uuid-81956284-fbb4-41bb-8d0b-7e1060316f8b);}.uuid-25b5a86d-423b-4932-b9cd-4d4cc3f1920b,.uuid-53214375-7111-4975-b0d1-e83ced0e66a2,.uuid-e3394f64-f94a-4edb-91a9-1ec37cfe76c7,.uuid-772949df-ee7c-45c4-b3be-33a186b2e277,.uuid-cd99b3c4-5e84-4b55-818e-dbc5e1ea7783,.uuid-6474906d-e7fe-4463-a246-f99791b490b1{stroke-width:0px;}.uuid-53214375-7111-4975-b0d1-e83ced0e66a2,.uuid-df03371d-2bef-4e2a-a1d4-f58fe4d6ac82{opacity:.05;}.uuid-772949df-ee7c-45c4-b3be-33a186b2e277{fill:url(#uuid-48efdbe2-aabc-44a9-974b-098ca5e306e1);}.uuid-cd99b3c4-5e84-4b55-818e-dbc5e1ea7783{fill:url(#uuid-ab9b8ec0-0bc9-47f4-8b5c-3a43c740550c);}.uuid-6474906d-e7fe-4463-a246-f99791b490b1{opacity:.07;}</style><linearGradient id="uuid-81956284-fbb4-41bb-8d0b-7e1060316f8b" x1="13.4002" y1="7.0368" x2="34.5998" y2="40.9632" gradientUnits="userSpaceOnUse"><stop offset="0" stop-color="#ff9c0d"/><stop offset="1" stop-color="#f36e22"/></linearGradient><radialGradient id="uuid-48efdbe2-aabc-44a9-974b-098ca5e306e1" cx="15.4074" cy="12.5926" fx="15.4074" fy="12.5926" r="25.6684" gradientUnits="userSpaceOnUse"><stop offset="0" stop-color="#fafafb"/><stop offset=".293" stop-color="#f6f7f8"/><stop offset=".566" stop-color="#ebecee"/><stop offset=".832" stop-color="#d8dcdf"/><stop offset="1" stop-color="#c8cdd1"/></radialGradient><radialGradient id="uuid-ab9b8ec0-0bc9-47f4-8b5c-3a43c740550c" cx="13.2593" cy="11.8519" fx="13.2593" fy="11.8519" r="27.1154" gradientUnits="userSpaceOnUse"><stop offset="0" stop-color="#fafafb"/><stop offset=".293" stop-color="#f6f7f8"/><stop offset=".566" stop-color="#ebecee"/><stop offset=".832" stop-color="#d8dcdf"/><stop offset="1" stop-color="#c8cdd1"/></radialGradient></defs><circle class="uuid-25b5a86d-423b-4932-b9cd-4d4cc3f1920b" cx="24" cy="24" r="20"/><path class="uuid-6474906d-e7fe-4463-a246-f99791b490b1" d="M27.6846,42c-.7969,0-1.4219-.624-1.4219-1.4209s.625-1.4209,1.4219-1.4209,1.4209.624,1.4209,1.4209-.624,1.4209-1.4209,1.4209ZM20.3154,42c-.7969,0-1.4209-.624-1.4209-1.4209s.624-1.4209,1.4209-1.4209,1.4219.624,1.4219,1.4209-.625,1.4209-1.4219,1.4209ZM35.0527,37.3945c-1.291,0-2.3418-1.0508-2.3418-2.3418s1.0508-2.3418,2.3418-2.3418,2.3418,1.0508,2.3418,2.3418-1.0508,2.3418-2.3418,2.3418ZM27.6846,37.3945c-1.292,0-2.3428-1.0508-2.3428-2.3418s1.0508-2.3418,2.3428-2.3418c1.291,0,2.3418,1.0508,2.3418,2.3418s-1.0508,2.3418-2.3418,2.3418ZM20.3154,37.3945c-1.291,0-2.3418-1.0508-2.3418-2.3418s1.0508-2.3418,2.3418-2.3418c1.292,0,2.3428,1.0508,2.3428,2.3418s-1.0508,2.3418-2.3428,2.3418ZM12.9473,37.3945c-1.291,0-2.3418-1.0508-2.3418-2.3418s1.0508-2.3418,2.3418-2.3418,2.3418,1.0508,2.3418,2.3418-1.0508,2.3418-2.3418,2.3418ZM27.6846,30.9473c-1.7998,0-3.2637-1.4639-3.2637-3.2627,0-1.7998,1.4639-3.2637,3.2637-3.2637,1.7988,0,3.2627,1.4639,3.2627,3.2637,0,1.7988-1.4639,3.2627-3.2627,3.2627ZM20.3154,30.9473c-1.7988,0-3.2627-1.4639-3.2627-3.2627,0-1.7998,1.4639-3.2637,3.2627-3.2637,1.7998,0,3.2637,1.4639,3.2637,3.2637,0,1.7988-1.4639,3.2627-3.2637,3.2627ZM35.0527,30.0264c-1.291,0-2.3418-1.0508-2.3418-2.3418,0-1.292,1.0508-2.3428,2.3418-2.3428s2.3418,1.0508,2.3418,2.3428c0,1.291-1.0508,2.3418-2.3418,2.3418ZM12.9473,30.0264c-1.291,0-2.3418-1.0508-2.3418-2.3418,0-1.292,1.0508-2.3428,2.3418-2.3428s2.3418,1.0508,2.3418,2.3428c0,1.291-1.0508,2.3418-2.3418,2.3418ZM40.5791,29.1055c-.7969,0-1.4209-.624-1.4209-1.4209s.624-1.4219,1.4209-1.4219,1.4209.625,1.4209,1.4219-.624,1.4209-1.4209,1.4209ZM7.4209,29.1055c-.7969,0-1.4209-.624-1.4209-1.4209s.624-1.4219,1.4209-1.4219,1.4209.625,1.4209,1.4219-.624,1.4209-1.4209,1.4209ZM27.6846,23.5791c-1.7998,0-3.2637-1.4639-3.2637-3.2637,0-1.7988,1.4639-3.2627,3.2637-3.2627,1.7988,0,3.2627,1.4639,3.2627,3.2627,0,1.7998-1.4639,3.2637-3.2627,3.2637ZM20.3154,23.5791c-1.7988,0-3.2627-1.4639-3.2627-3.2637,0-1.7988,1.4639-3.2627,3.2627-3.2627,1.7998,0,3.2637,1.4639,3.2637,3.2627,0,1.7998-1.4639,3.2637-3.2637,3.2637ZM35.0527,22.6582c-1.291,0-2.3418-1.0508-2.3418-2.3428,0-1.291,1.0508-2.3418,2.3418-2.3418s2.3418,1.0508,2.3418,2.3418c0,1.292-1.0508,2.3428-2.3418,2.3428ZM12.9473,22.6582c-1.291,0-2.3418-1.0508-2.3418-2.3428,0-1.291,1.0508-2.3418,2.3418-2.3418s2.3418,1.0508,2.3418,2.3418c0,1.292-1.0508,2.3428-2.3418,2.3428ZM40.5791,21.7373c-.7969,0-1.4209-.625-1.4209-1.4219s.624-1.4209,1.4209-1.4209,1.4209.624,1.4209,1.4209-.624,1.4219-1.4209,1.4219ZM7.4209,21.7373c-.7969,0-1.4209-.625-1.4209-1.4219s.624-1.4209,1.4209-1.4209,1.4209.624,1.4209,1.4209-.624,1.4219-1.4209,1.4219ZM35.0527,15.2891c-1.291,0-2.3418-1.0508-2.3418-2.3418s1.0508-2.3418,2.3418-2.3418,2.3418,1.0508,2.3418,2.3418-1.0508,2.3418-2.3418,2.3418ZM27.6846,15.2891c-1.292,0-2.3428-1.0508-2.3428-2.3418s1.0508-2.3418,2.3428-2.3418c1.291,0,2.3418,1.0508,2.3418,2.3418s-1.0508,2.3418-2.3418,2.3418ZM20.3154,15.2891c-1.291,0-2.3418-1.0508-2.3418-2.3418s1.0508-2.3418,2.3418-2.3418c1.292,0,2.3428,1.0508,2.3428,2.3418s-1.0508,2.3418-2.3428,2.3418ZM12.9473,15.2891c-1.291,0-2.3418-1.0508-2.3418-2.3418s1.0508-2.3418,2.3418-2.3418,2.3418,1.0508,2.3418,2.3418-1.0508,2.3418-2.3418,2.3418ZM27.6846,8.8418c-.7969,0-1.4219-.624-1.4219-1.4209s.625-1.4209,1.4219-1.4209,1.4209.624,1.4209,1.4209-.624,1.4209-1.4209,1.4209ZM20.3154,8.8418c-.7969,0-1.4209-.624-1.4209-1.4209s.624-1.4209,1.4209-1.4209,1.4219.624,1.4219,1.4209-.625,1.4209-1.4219,1.4209Z"/><g class="uuid-df03371d-2bef-4e2a-a1d4-f58fe4d6ac82"><path class="uuid-e3394f64-f94a-4edb-91a9-1ec37cfe76c7" d="M12.9473,24.8418c-1.5674,0-2.8418,1.2754-2.8418,2.8428s1.2744,2.8418,2.8418,2.8418,2.8418-1.2744,2.8418-2.8418-1.2744-2.8428-2.8418-2.8428Z"/><path class="uuid-e3394f64-f94a-4edb-91a9-1ec37cfe76c7" d="M40.5791,25.7627c-1.0771,0-1.9209.8438-1.9209,1.9219,0,1.0771.8438,1.9209,1.9209,1.9209s1.9209-.8438,1.9209-1.9209c0-1.0781-.8438-1.9219-1.9209-1.9219Z"/><path class="uuid-e3394f64-f94a-4edb-91a9-1ec37cfe76c7" d="M7.4209,25.7627c-1.0771,0-1.9209.8438-1.9209,1.9219,0,1.0771.8438,1.9209,1.9209,1.9209s1.9209-.8438,1.9209-1.9209c0-1.0781-.8438-1.9219-1.9209-1.9219Z"/><path class="uuid-e3394f64-f94a-4edb-91a9-1ec37cfe76c7" d="M12.9473,17.4736c-1.5674,0-2.8418,1.2744-2.8418,2.8418s1.2744,2.8428,2.8418,2.8428,2.8418-1.2754,2.8418-2.8428-1.2744-2.8418-2.8418-2.8418Z"/><circle class="uuid-e3394f64-f94a-4edb-91a9-1ec37cfe76c7" cx="12.9473" cy="35.0527" r="2.8418"/><path class="uuid-e3394f64-f94a-4edb-91a9-1ec37cfe76c7" d="M27.6846,9.3418c1.0771,0,1.9209-.8438,1.9209-1.9209s-.8438-1.9209-1.9209-1.9209c-1.0781,0-1.9219.8438-1.9219,1.9209s.8438,1.9209,1.9219,1.9209Z"/><path class="uuid-e3394f64-f94a-4edb-91a9-1ec37cfe76c7" d="M40.5791,22.2373c1.0771,0,1.9209-.8438,1.9209-1.9219,0-1.0771-.8438-1.9209-1.9209-1.9209s-1.9209.8438-1.9209,1.9209c0,1.0781.8438,1.9219,1.9209,1.9219Z"/><path class="uuid-e3394f64-f94a-4edb-91a9-1ec37cfe76c7" d="M20.3154,15.7891c1.5674,0,2.8428-1.2744,2.8428-2.8418s-1.2754-2.8418-2.8428-2.8418-2.8418,1.2744-2.8418,2.8418,1.2744,2.8418,2.8418,2.8418Z"/><path class="uuid-e3394f64-f94a-4edb-91a9-1ec37cfe76c7" d="M20.3154,9.3418c1.0781,0,1.9219-.8438,1.9219-1.9209s-.8438-1.9209-1.9219-1.9209c-1.0771,0-1.9209.8438-1.9209,1.9209s.8438,1.9209,1.9209,1.9209Z"/><path class="uuid-e3394f64-f94a-4edb-91a9-1ec37cfe76c7" d="M27.6846,15.7891c1.5674,0,2.8418-1.2744,2.8418-2.8418s-1.2744-2.8418-2.8418-2.8418-2.8428,1.2744-2.8428,2.8418,1.2754,2.8418,2.8428,2.8418Z"/><path class="uuid-e3394f64-f94a-4edb-91a9-1ec37cfe76c7" d="M7.4209,18.3945c-1.0771,0-1.9209.8438-1.9209,1.9209,0,1.0781.8438,1.9219,1.9209,1.9219s1.9209-.8438,1.9209-1.9219c0-1.0771-.8438-1.9209-1.9209-1.9209Z"/><circle class="uuid-e3394f64-f94a-4edb-91a9-1ec37cfe76c7" cx="35.0527" cy="35.0527" r="2.8418"/><path class="uuid-e3394f64-f94a-4edb-91a9-1ec37cfe76c7" d="M35.0527,24.8418c-1.5674,0-2.8418,1.2754-2.8418,2.8428s1.2744,2.8418,2.8418,2.8418,2.8418-1.2744,2.8418-2.8418-1.2744-2.8428-2.8418-2.8428Z"/><path class="uuid-e3394f64-f94a-4edb-91a9-1ec37cfe76c7" d="M31.4473,20.3154c0-2.0752-1.6875-3.7627-3.7627-3.7627-1.8115,0-3.3281,1.2861-3.6846,2.9932-.3564-1.707-1.873-2.9932-3.6846-2.9932-2.0752,0-3.7627,1.6875-3.7627,3.7627,0,1.8115,1.2861,3.3281,2.9932,3.6846-1.707.3564-2.9932,1.873-2.9932,3.6846,0,2.0752,1.6875,3.7627,3.7627,3.7627,1.8115,0,3.3281-1.2861,3.6846-2.9932.3564,1.707,1.873,2.9932,3.6846,2.9932,2.0752,0,3.7627-1.6875,3.7627-3.7627,0-1.8115-1.2861-3.3281-2.9932-3.6846,1.707-.3564,2.9932-1.873,2.9932-3.6846ZM24,26.915c-.3047-1.459-1.4561-2.6104-2.915-2.915,1.459-.3047,2.6104-1.4561,2.915-2.915.3047,1.459,1.4561,2.6104,2.915,2.915-1.459.3047-2.6104,1.4561-2.915,2.915Z"/><path class="uuid-e3394f64-f94a-4edb-91a9-1ec37cfe76c7" d="M35.0527,17.4736c-1.5674,0-2.8418,1.2744-2.8418,2.8418s1.2744,2.8428,2.8418,2.8428,2.8418-1.2754,2.8418-2.8428-1.2744-2.8418-2.8418-2.8418Z"/><circle class="uuid-e3394f64-f94a-4edb-91a9-1ec37cfe76c7" cx="12.9473" cy="12.9473" r="2.8418"/><circle class="uuid-e3394f64-f94a-4edb-91a9-1ec37cfe76c7" cx="35.0527" cy="12.9473" r="2.8418"/><path class="uuid-e3394f64-f94a-4edb-91a9-1ec37cfe76c7" d="M27.6846,32.2109c-1.5674,0-2.8428,1.2744-2.8428,2.8418s1.2754,2.8418,2.8428,2.8418,2.8418-1.2744,2.8418-2.8418-1.2744-2.8418-2.8418-2.8418Z"/><path class="uuid-e3394f64-f94a-4edb-91a9-1ec37cfe76c7" d="M20.3154,32.2109c-1.5674,0-2.8418,1.2744-2.8418,2.8418s1.2744,2.8418,2.8418,2.8418,2.8428-1.2744,2.8428-2.8418-1.2754-2.8418-2.8428-2.8418Z"/><path class="uuid-e3394f64-f94a-4edb-91a9-1ec37cfe76c7" d="M20.3154,38.6582c-1.0771,0-1.9209.8438-1.9209,1.9209s.8438,1.9209,1.9209,1.9209c1.0781,0,1.9219-.8438,1.9219-1.9209s-.8438-1.9209-1.9219-1.9209Z"/><path class="uuid-e3394f64-f94a-4edb-91a9-1ec37cfe76c7" d="M27.6846,38.6582c-1.0781,0-1.9219.8438-1.9219,1.9209s.8438,1.9209,1.9219,1.9209c1.0771,0,1.9209-.8438,1.9209-1.9209s-.8438-1.9209-1.9209-1.9209Z"/></g><path class="uuid-772949df-ee7c-45c4-b3be-33a186b2e277" d="M12.9474,25.8421c-1.0132,0-1.8421.8289-1.8421,1.8421s.8289,1.8421,1.8421,1.8421,1.8421-.8289,1.8421-1.8421-.8289-1.8421-1.8421-1.8421ZM12.9474,33.2105c-1.0132,0-1.8421.8289-1.8421,1.8421s.8289,1.8421,1.8421,1.8421,1.8421-.8289,1.8421-1.8421-.8289-1.8421-1.8421-1.8421ZM12.9474,18.4737c-1.0132,0-1.8421.8289-1.8421,1.8421s.8289,1.8421,1.8421,1.8421,1.8421-.8289,1.8421-1.8421-.8289-1.8421-1.8421-1.8421ZM7.4211,19.3947c-.5158,0-.9211.4053-.9211.9211s.4053.9211.9211.9211.9211-.4053.9211-.9211-.4053-.9211-.9211-.9211ZM12.9474,11.1053c-1.0132,0-1.8421.8289-1.8421,1.8421s.8289,1.8421,1.8421,1.8421,1.8421-.8289,1.8421-1.8421-.8289-1.8421-1.8421-1.8421ZM40.5789,21.2368c.5158,0,.9211-.4053.9211-.9211s-.4053-.9211-.9211-.9211-.9211.4053-.9211.9211.4053.9211.9211.9211ZM27.6842,14.7895c1.0132,0,1.8421-.8289,1.8421-1.8421s-.8289-1.8421-1.8421-1.8421-1.8421.8289-1.8421,1.8421.8289,1.8421,1.8421,1.8421ZM27.6842,8.3421c.5158,0,.9211-.4053.9211-.9211s-.4053-.9211-.9211-.9211-.9211.4053-.9211.9211.4053.9211.9211.9211ZM7.4211,26.7632c-.5158,0-.9211.4053-.9211.9211s.4053.9211.9211.9211.9211-.4053.9211-.9211-.4053-.9211-.9211-.9211ZM20.3158,39.6579c-.5158,0-.9211.4053-.9211.9211s.4053.9211.9211.9211.9211-.4053.9211-.9211-.4053-.9211-.9211-.9211ZM20.3158,8.3421c.5158,0,.9211-.4053.9211-.9211s-.4053-.9211-.9211-.9211-.9211.4053-.9211.9211.4053.9211.9211.9211ZM20.3158,14.7895c1.0132,0,1.8421-.8289,1.8421-1.8421s-.8289-1.8421-1.8421-1.8421-1.8421.8289-1.8421,1.8421.8289,1.8421,1.8421,1.8421ZM20.3158,24.9211c-1.5289,0-2.7632,1.2342-2.7632,2.7632s1.2342,2.7632,2.7632,2.7632,2.7632-1.2342,2.7632-2.7632-1.2342-2.7632-2.7632-2.7632ZM35.0526,25.8421c-1.0132,0-1.8421.8289-1.8421,1.8421s.8289,1.8421,1.8421,1.8421,1.8421-.8289,1.8421-1.8421-.8289-1.8421-1.8421-1.8421ZM35.0526,33.2105c-1.0132,0-1.8421.8289-1.8421,1.8421s.8289,1.8421,1.8421,1.8421,1.8421-.8289,1.8421-1.8421-.8289-1.8421-1.8421-1.8421ZM35.0526,18.4737c-1.0132,0-1.8421.8289-1.8421,1.8421s.8289,1.8421,1.8421,1.8421,1.8421-.8289,1.8421-1.8421-.8289-1.8421-1.8421-1.8421ZM35.0526,11.1053c-1.0132,0-1.8421.8289-1.8421,1.8421s.8289,1.8421,1.8421,1.8421,1.8421-.8289,1.8421-1.8421-.8289-1.8421-1.8421-1.8421ZM40.5789,26.7632c-.5158,0-.9211.4053-.9211.9211s.4053.9211.9211.9211.9211-.4053.9211-.9211-.4053-.9211-.9211-.9211ZM27.6842,33.2105c-1.0132,0-1.8421.8289-1.8421,1.8421s.8289,1.8421,1.8421,1.8421,1.8421-.8289,1.8421-1.8421-.8289-1.8421-1.8421-1.8421ZM27.6842,39.6579c-.5158,0-.9211.4053-.9211.9211s.4053.9211.9211.9211.9211-.4053.9211-.9211-.4053-.9211-.9211-.9211ZM20.3158,17.5526c-1.5289,0-2.7632,1.2342-2.7632,2.7632s1.2342,2.7632,2.7632,2.7632,2.7632-1.2342,2.7632-2.7632-1.2342-2.7632-2.7632-2.7632ZM20.3158,33.2105c-1.0132,0-1.8421.8289-1.8421,1.8421s.8289,1.8421,1.8421,1.8421,1.8421-.8289,1.8421-1.8421-.8289-1.8421-1.8421-1.8421ZM27.6842,24.9211c-1.5289,0-2.7632,1.2342-2.7632,2.7632s1.2342,2.7632,2.7632,2.7632,2.7632-1.2342,2.7632-2.7632-1.2342-2.7632-2.7632-2.7632ZM27.6842,17.5526c-1.5289,0-2.7632,1.2342-2.7632,2.7632s1.2342,2.7632,2.7632,2.7632,2.7632-1.2342,2.7632-2.7632-1.2342-2.7632-2.7632-2.7632Z"/><path class="uuid-53214375-7111-4975-b0d1-e83ced0e66a2" d="M24,38.49V4c-.3394,0-.6667.0325-1,.0505v39.899c.3333.018.6606.0505,1,.0505v-5.51Z"/><path class="uuid-6474906d-e7fe-4463-a246-f99791b490b1" d="M24,38.49V4c-.1697,0-.3318.0204-.5.0252v39.9496c.1682.0048.3303.0252.5.0252v-5.51Z"/><path class="uuid-cd99b3c4-5e84-4b55-818e-dbc5e1ea7783" d="M44,24c0,11.05-8.95,20-20,20V4c11.05,0,20,8.95,20,20Z"/></svg>