<?xml version="1.0" encoding="UTF-8"?><svg xmlns="http://www.w3.org/2000/svg" width="48" height="48" xmlns:xlink="http://www.w3.org/1999/xlink" viewBox="0 0 48 48"><defs><style>.uuid-dcaa195c-e472-4111-ad32-d4d5d640803d{fill:#f99d33;}.uuid-dcaa195c-e472-4111-ad32-d4d5d640803d,.uuid-6b5c290a-c03b-48f9-9ae5-b0c8daec6f84,.uuid-74881d8d-8e01-4f41-9262-0ebae6f449fa,.uuid-dd7d8ad1-1f7c-4f99-a286-93850eb1ca59,.uuid-31c4b0b7-6286-41b5-b006-3301e130fd5a,.uuid-3bbc346b-80d8-4255-84ca-12b55fb71991,.uuid-23b8cd8e-3c02-4405-99d8-fab75a45c367,.uuid-76888f7c-da2f-480c-9c57-d9900da9279f,.uuid-59003a45-cb8e-4275-bb2e-8dffc4ac3191,.uuid-dcf0844d-0eb0-4082-80c6-30ba24732760,.uuid-e1e8f99a-1ff8-4f4d-a2ac-175e9b269cad,.uuid-84131834-cfa8-4705-9c88-9d439ddb7716,.uuid-8e8cd29e-c682-4e8d-b5ae-8db8845264f1,.uuid-ad13448c-ee7c-4048-b067-41b013fd1aea,.uuid-750b4724-6f14-469f-a717-34e4392d692c,.uuid-448c7f88-99eb-4493-95b7-597f72c9d0a8,.uuid-b596b141-684a-445d-863c-5d1ff04b1cd7,.uuid-0ac50851-3396-4d78-8135-39862e5dd654,.uuid-1427520b-0cae-4426-a446-637bd72ed2a3,.uuid-43de9fd9-b6bf-4466-a655-1dd74c708d70,.uuid-afabdc24-fe45-4ff8-a828-3212baa46752,.uuid-3f16871c-f927-4e65-9a23-4adafd33eddf,.uuid-67cd5562-805a-4af3-993f-7e99366564cb,.uuid-0cb7f7fe-9c05-4ffa-a1d2-28f43656ae9f,.uuid-64ffc0c8-a715-40f8-8c1c-8f41e3fd002e,.uuid-6c324768-5e10-4826-b71f-8221773294dc,.uuid-5e8080ef-cc70-4071-9c43-655305b89fe3,.uuid-e5c3e7c5-8f1f-4434-b410-99f7204b6627,.uuid-5c52bf4f-77b9-4edf-abd8-1a219a62854e,.uuid-87700541-a73e-4117-be09-09259c72ea2f,.uuid-811ea721-33d2-4fa4-8f67-4e504edbdf2c,.uuid-67e8a394-2b30-4513-a471-7a2f1fd514e1,.uuid-a5e2f4de-c8a9-4c8f-8f93-1c31b984220d,.uuid-e2ee8a2f-4e20-43ae-bddb-842815e1a5d0,.uuid-c7f1b332-8951-48fa-8afc-d9df57de1f75,.uuid-43b9df99-cc40-4187-92f3-ea4953ce6cf5,.uuid-874800da-8050-4f38-bf9a-4063558bcb93,.uuid-0c4c09e6-350a-44d6-8501-77fedc52b45a,.uuid-5a927c9e-8103-4b22-886e-b441f3841b09,.uuid-0ce7f5bb-936d-4397-961c-ec2ffcd6a3e8,.uuid-5f4a2a72-9901-4211-bd81-3f2f580b4b90,.uuid-fccd7872-0230-421c-8739-ca417165a23c,.uuid-0712c66c-7bfb-48bf-ad6f-05fddf99ac30,.uuid-5f19e940-dacb-4ba9-aebe-06bb44956050,.uuid-1600ad3c-69bb-4cd7-b1a6-f9dfdd80cd89,.uuid-e807c681-67ff-406b-a5b0-3bf4e3a81873,.uuid-4cef658f-60ef-479a-ba0a-b7776320edf4,.uuid-3c7112a9-12a1-4598-bc9a-cb5a37c3684d,.uuid-c9f36aaf-9528-4448-a8c3-b2cd72297d2f,.uuid-6524454e-6c19-4ed7-8ed5-6c79556f859c,.uuid-2df3440a-e930-4818-a2e5-2fb050fe6158,.uuid-de7e07d6-9608-4250-bd49-18910cc9584b,.uuid-f4d01a08-b27e-40ff-887e-e0ebd17f44d3,.uuid-ee37ce0a-6d6a-4493-bfa2-440092593b1a,.uuid-a94d1ffc-2a6a-4ce6-82e9-3c9681222595,.uuid-3b6e3fa0-ff91-4d71-bc60-99b8e1e84f3b,.uuid-788e0b49-7807-4336-89ab-c8f04454d19b,.uuid-5a841b5c-6b5e-4472-ac1c-ea9c8fd8afe8,.uuid-d9eff508-3da9-495b-b0b5-d876ca60a677,.uuid-15926042-b6a7-4942-8599-59a219263235,.uuid-201872c1-d2f9-4943-9999-2f06736a5e91,.uuid-d46305ce-486d-4c9b-91e2-e1fbd294c1fd,.uuid-d69dc870-d4a4-4eb8-8e1f-6450076e2c73,.uuid-dfd63801-cfd5-490b-86ec-195e3b6cd62d,.uuid-08a966be-79bb-4f78-9aec-bcd1836f88b5,.uuid-06118a52-d72d-4c27-b594-3cd7750ef9d0,.uuid-d4f6ed2e-a382-4c96-be53-c3567a08ceed,.uuid-7498363b-35ac-4fd1-ad06-664aebc9a3bc,.uuid-76cb4fe9-5e57-46f6-b0ed-b1c6e9e85367,.uuid-3a73461c-da95-4b18-90e1-a0ea345b2f75,.uuid-935b96fb-5d1e-4aad-8bc9-2450d8aeabb3{stroke-width:0px;}.uuid-6b5c290a-c03b-48f9-9ae5-b0c8daec6f84{fill:#f7952a;}.uuid-74881d8d-8e01-4f41-9262-0ebae6f449fa{fill:#f6871c;}.uuid-dd7d8ad1-1f7c-4f99-a286-93850eb1ca59{fill:#f64b04;}.uuid-31c4b0b7-6286-41b5-b006-3301e130fd5a{fill:#f48323;}.uuid-3bbc346b-80d8-4255-84ca-12b55fb71991{fill:#f2751e;}.uuid-23b8cd8e-3c02-4405-99d8-fab75a45c367{fill:url(#uuid-d1b18519-5f66-4f51-ad37-331011c09558);mix-blend-mode:lighten;opacity:.75;}.uuid-76888f7c-da2f-480c-9c57-d9900da9279f{fill:#f4750a;}.uuid-59003a45-cb8e-4275-bb2e-8dffc4ac3191{fill:#f4812a;}.uuid-dcf0844d-0eb0-4082-80c6-30ba24732760{fill:#fbc487;}.uuid-e1e8f99a-1ff8-4f4d-a2ac-175e9b269cad{fill:#fb9c18;}.uuid-84131834-cfa8-4705-9c88-9d439ddb7716{fill:#fc9f16;}.uuid-8e8cd29e-c682-4e8d-b5ae-8db8845264f1{fill:#f38022;}.uuid-ad13448c-ee7c-4048-b067-41b013fd1aea{fill:#fda318;}.uuid-750b4724-6f14-469f-a717-34e4392d692c{fill:#f9941a;}.uuid-448c7f88-99eb-4493-95b7-597f72c9d0a8{fill:#e66f1c;}.uuid-b596b141-684a-445d-863c-5d1ff04b1cd7{fill:#f99111;}.uuid-c10cf203-f678-4a79-8e78-90484f54bb91{isolation:isolate;}.uuid-0ac50851-3396-4d78-8135-39862e5dd654{opacity:.05;}.uuid-43de9fd9-b6bf-4466-a655-1dd74c708d70{fill:#fda115;}.uuid-afabdc24-fe45-4ff8-a828-3212baa46752{fill:#f47f1d;}.uuid-3f16871c-f927-4e65-9a23-4adafd33eddf{fill:#f17c0a;}.uuid-67cd5562-805a-4af3-993f-7e99366564cb{fill:#f6881f;}.uuid-0cb7f7fe-9c05-4ffa-a1d2-28f43656ae9f{fill:#fa9818;}.uuid-64ffc0c8-a715-40f8-8c1c-8f41e3fd002e{fill:#c4821f;}.uuid-6c324768-5e10-4826-b71f-8221773294dc{fill:#fb9d17;}.uuid-5e8080ef-cc70-4071-9c43-655305b89fe3{fill:#f78e1c;}.uuid-e5c3e7c5-8f1f-4434-b410-99f7204b6627{fill:#f99316;}.uuid-5c52bf4f-77b9-4edf-abd8-1a219a62854e{fill:#fcd4a9;}.uuid-87700541-a73e-4117-be09-09259c72ea2f{fill:#fda314;}.uuid-811ea721-33d2-4fa4-8f67-4e504edbdf2c{fill:url(#uuid-cb8651c9-abba-4408-90d7-0cb38a6e2e8c);}.uuid-67e8a394-2b30-4513-a471-7a2f1fd514e1{fill:#fca016;}.uuid-a5e2f4de-c8a9-4c8f-8f93-1c31b984220d{fill:#fbb949;}.uuid-e2ee8a2f-4e20-43ae-bddb-842815e1a5d0{fill:#f37c22;}.uuid-c7f1b332-8951-48fa-8afc-d9df57de1f75{fill:#e67320;}.uuid-43b9df99-cc40-4187-92f3-ea4953ce6cf5{fill:#f8ab6a;}.uuid-874800da-8050-4f38-bf9a-4063558bcb93{fill:#fff;}.uuid-0c4c09e6-350a-44d6-8501-77fedc52b45a{fill:#f27a33;}.uuid-5a927c9e-8103-4b22-886e-b441f3841b09{fill:#fda114;}.uuid-0ce7f5bb-936d-4397-961c-ec2ffcd6a3e8{fill:#ec5412;}.uuid-5f4a2a72-9901-4211-bd81-3f2f580b4b90{fill:#db7d0f;}.uuid-fccd7872-0230-421c-8739-ca417165a23c{fill:#d17119;}.uuid-0712c66c-7bfb-48bf-ad6f-05fddf99ac30{fill:#f48321;}.uuid-5f19e940-dacb-4ba9-aebe-06bb44956050{fill:#f78c1d;}.uuid-1600ad3c-69bb-4cd7-b1a6-f9dfdd80cd89{fill:#c9b2a4;}.uuid-e807c681-67ff-406b-a5b0-3bf4e3a81873{fill:#f27c23;}.uuid-4cef658f-60ef-479a-ba0a-b7776320edf4{fill:#fa9c18;}.uuid-3c7112a9-12a1-4598-bc9a-cb5a37c3684d{fill:#f37f22;}.uuid-c9f36aaf-9528-4448-a8c3-b2cd72297d2f{fill:#fdd8b0;}.uuid-6524454e-6c19-4ed7-8ed5-6c79556f859c{fill:#b86c1d;}.uuid-2df3440a-e930-4818-a2e5-2fb050fe6158{fill:#f27925;}.uuid-de7e07d6-9608-4250-bd49-18910cc9584b{fill:#f58920;}.uuid-f4d01a08-b27e-40ff-887e-e0ebd17f44d3{fill:#f4861f;}.uuid-ee37ce0a-6d6a-4493-bfa2-440092593b1a{fill:#f37c2c;}.uuid-a94d1ffc-2a6a-4ce6-82e9-3c9681222595{fill:#f47900;}.uuid-3b6e3fa0-ff91-4d71-bc60-99b8e1e84f3b{fill:#f1973b;}.uuid-788e0b49-7807-4336-89ab-c8f04454d19b{fill:#f6871f;}.uuid-5a841b5c-6b5e-4472-ac1c-ea9c8fd8afe8{fill:#fa9b18;}.uuid-d9eff508-3da9-495b-b0b5-d876ca60a677{fill:#a73903;}.uuid-15926042-b6a7-4942-8599-59a219263235{fill:#e65b19;}.uuid-201872c1-d2f9-4943-9999-2f06736a5e91{fill:#f58520;}.uuid-d46305ce-486d-4c9b-91e2-e1fbd294c1fd{fill:#f48221;}.uuid-d69dc870-d4a4-4eb8-8e1f-6450076e2c73{fill:#fc9e16;}.uuid-dfd63801-cfd5-490b-86ec-195e3b6cd62d{fill:#fa9918;}.uuid-08a966be-79bb-4f78-9aec-bcd1836f88b5{fill:#d56821;}.uuid-06118a52-d72d-4c27-b594-3cd7750ef9d0{fill:#f68b1d;}.uuid-d4f6ed2e-a382-4c96-be53-c3567a08ceed{opacity:.07;}.uuid-7498363b-35ac-4fd1-ad06-664aebc9a3bc{fill:#fcb161;}.uuid-76cb4fe9-5e57-46f6-b0ed-b1c6e9e85367{fill:#fb9e17;}.uuid-3a73461c-da95-4b18-90e1-a0ea345b2f75{fill:#f99519;}.uuid-935b96fb-5d1e-4aad-8bc9-2450d8aeabb3{fill:#ccb0a4;}</style><linearGradient id="uuid-d1b18519-5f66-4f51-ad37-331011c09558" x1="4" y1="24" x2="44" y2="24" gradientUnits="userSpaceOnUse"><stop offset="0" stop-color="#ff9c0d"/><stop offset="1" stop-color="#f36e22"/></linearGradient><radialGradient id="uuid-cb8651c9-abba-4408-90d7-0cb38a6e2e8c" cx="13.2593" cy="11.8519" fx="13.2593" fy="11.8519" r="27.1154" gradientUnits="userSpaceOnUse"><stop offset="0" stop-color="#fafafb"/><stop offset=".293" stop-color="#f6f7f8"/><stop offset=".566" stop-color="#ebecee"/><stop offset=".832" stop-color="#d8dcdf"/><stop offset="1" stop-color="#c8cdd1"/></radialGradient></defs><g class="uuid-c10cf203-f678-4a79-8e78-90484f54bb91"><g id="uuid-4226feaf-0854-496e-b1ab-2c85462104e1"><path class="uuid-3a73461c-da95-4b18-90e1-a0ea345b2f75" d="M22.0711,4.0974c-.0535.0051-.1077.0071-.1611.0126h0c-.5345.0563-1.0568.1408-1.5751.2402-.2184.0405-.436.0817-.6518.1292-.001.0002-.0021.0004-.0031.0006-.4796.0946-.9479.2231-1.4124.3632-.141.0421-.2811.0853-.4208.1304-.0818.0267-.1652.0489-.2468.0765-.05.02-.1.03-.15.05-.3936.1329-.7791.2822-1.1583.4424-.1156.0483-.2264.1047-.3409.1551-.2448.1089-.4908.2158-.7308.3325-.1427.0695-.2778.1482-.4178.2206-.1794.0931-.3593.1844-.5355.2828-.3781.2114-.7491.4357-1.1131.6761-.2725.1763-.5369.3618-.8.5508-.2569.1833-.5105.3702-.7586.5671-.2198.1743-.4345.3533-.6468.5365-.0615.0537-.1274.1014-.1882.1561-.18.15-.36.32-.53.4901-.0276.0253-.0525.0536-.0799.0792-.1752.1685-.3481.3381-.5171.5128-.2932.2987-.5748.6084-.8447.9295-.123.1442-.246.2876-.365.4353-.0726.0903-.1466.1799-.2133.2733-.1318.1671-.249.3419-.3742.5125-.3229.4436-.6255.9009-.9118,1.3711-.0695.1166-.1472.228-.214.3464-.0162.0259-.0283.053-.0443.0789-.4294.7466-.8199,1.5172-1.1518,2.3207-.1925.4614-.362.9348-.5173,1.4141-.0505.1544-.1016.308-.1484.4641-.0182.0612-.0405.121-.0583.1823-.1257.4372-.2324.8801-.3295,1.3266-.0335.1552-.0635.3112-.0934.4677-.0281.1456-.0619.2887-.087.4357-.0383.2142-.0508.4423-.0803.6617-.0405.3025-.0836.6035-.1105.9101-.0042.0538-.0156.1042-.0192.1582-.02.16-.03.33-.03.5-.03.37-.04.74-.04,1.11s.01.74.04,1.11c0,.17.01.34.03.5.0037.054.0151.1044.0192.1582.0269.3067.0699.6077.1105.9102.0295.2194.0421.4474.0803.6616.0251.1469.0588.2899.087.4354.03.1567.0599.3129.0935.4683.097.4465.2037.8892.3295,1.3264.0178.0613.04.1211.0583.1823.0468.1562.098.3098.1484.4644.1552.4792.3246.9523.5172,1.4136.3319.8037.7227,1.5746,1.1523,2.3215.0158.0257.0278.0525.0439.0782.0663.1176.1434.2282.2125.3439.2867.4711.5898.9292.9133,1.3736.1252.1706.2424.3454.3742.5125.0664.093.1402.1823.2126.2723.1194.1483.2429.2923.3664.4371.2697.3208.551.6302.844.9286.169.1747.3419.3443.5171.5128.0274.0255.0523.0538.0799.0792.17.17.35.34.53.49.0605.0544.1263.1021.1876.1556.2125.1834.4274.3627.6476.5372.248.1969.5016.3838.7584.567.2643.1899.5302.3762.8041.5533.3627.2393.7323.4628,1.1089.6735.1765.0985.3567.1901.5364.2833.1398.0723.2745.1508.4169.2202.2397.1166.4855.2234.73.3322.1147.0505.2258.1071.3417.1555.3793.1603.7647.3095,1.1583.4424.05.02.1.03.15.05.0815.0276.1649.0498.2468.0765.1398.0451.2798.0883.4208.1304.4645.1401.9328.2686,1.4124.3631.0007.0002.0014.0002.0021.0004.2164.0477.4344.0889.6534.1295.5181.0993,1.0402.1838,1.5745.2401h0c.0534.0056.1077.0076.1611.0126.6299.0602,1.2742.0974,1.9289.0974V4c-.6547,0-1.299.0371-1.9289.0974Z"/><path class="uuid-3a73461c-da95-4b18-90e1-a0ea345b2f75" d="M24,4v40c-11.05,0-20-8.95-20-20S12.95,4,24,4Z"/><path class="uuid-1600ad3c-69bb-4cd7-b1a6-f9dfdd80cd89" d="M24,4v1.05h-2.09v-.94c.6801-.07,1.38-.11,2.09-.11Z"/><path class="uuid-0cb7f7fe-9c05-4ffa-a1d2-28f43656ae9f" d="M21.91,4.11v.94h-2.23v-.57c.73-.17,1.47-.29,2.23-.37Z"/><path class="uuid-3a73461c-da95-4b18-90e1-a0ea345b2f75" d="M19.68,4.48v.57h-2.08c.6801-.23,1.37-.43,2.08-.57Z"/><rect class="uuid-874800da-8050-4f38-bf9a-4063558bcb93" x="21.91" y="5.05" width="2.09" height="2.23"/><rect class="uuid-dcf0844d-0eb0-4082-80c6-30ba24732760" x="19.68" y="5.05" width="2.23" height="2.23"/><path class="uuid-e2ee8a2f-4e20-43ae-bddb-842815e1a5d0" d="M19.68,5.05v2.23h-2.23v-2.18c.05-.02.1-.03.15-.05h2.08Z"/><path class="uuid-0cb7f7fe-9c05-4ffa-a1d2-28f43656ae9f" d="M17.45,5.1v2.18h-2.23v-1.25c.72-.35,1.46-.67,2.23-.93Z"/><path class="uuid-0cb7f7fe-9c05-4ffa-a1d2-28f43656ae9f" d="M15.22,6.03v1.25h-2.18c.7-.47,1.42-.88,2.18-1.25Z"/><path class="uuid-e807c681-67ff-406b-a5b0-3bf4e3a81873" d="M15.22,7.28v2.23h-2.23v-2.2c.01-.02.03-.03.05-.03h2.18Z"/><rect class="uuid-76888f7c-da2f-480c-9c57-d9900da9279f" x="15.22" y="7.28" width="2.23" height="2.23"/><rect class="uuid-874800da-8050-4f38-bf9a-4063558bcb93" x="17.45" y="7.28" width="2.23" height="2.23"/><rect class="uuid-1427520b-0cae-4426-a446-637bd72ed2a3" x="19.68" y="7.28" width="2.23" height="2.23"/><rect class="uuid-3f16871c-f927-4e65-9a23-4adafd33eddf" x="21.91" y="7.28" width="2.09" height="2.23"/><path class="uuid-3bbc346b-80d8-4255-84ca-12b55fb71991" d="M12.99,7.31v2.2h-2.23v-.4901c.7-.6299,1.45-1.2,2.23-1.71Z"/><path class="uuid-3a73461c-da95-4b18-90e1-a0ea345b2f75" d="M8.53,11.33v.41h-.32c.1-.14.21-.28.32-.41Z"/><path class="uuid-84131834-cfa8-4705-9c88-9d439ddb7716" d="M10.76,9.51v2.23h-2.23v-.41c.52-.65,1.09-1.2599,1.7-1.8199h.53Z"/><path class="uuid-3a73461c-da95-4b18-90e1-a0ea345b2f75" d="M10.76,9.02v.4901h-.53c.17-.17.35-.34.53-.4901Z"/><rect class="uuid-3a73461c-da95-4b18-90e1-a0ea345b2f75" x="10.76" y="9.51" width="2.23" height="2.23"/><rect class="uuid-874800da-8050-4f38-bf9a-4063558bcb93" x="12.99" y="9.51" width="2.23" height="2.23"/><rect class="uuid-1427520b-0cae-4426-a446-637bd72ed2a3" x="15.22" y="9.51" width="2.23" height="2.23"/><rect class="uuid-201872c1-d2f9-4943-9999-2f06736a5e91" x="17.45" y="9.51" width="2.23" height="2.23"/><rect class="uuid-06118a52-d72d-4c27-b594-3cd7750ef9d0" x="19.68" y="9.51" width="2.23" height="2.23"/><rect class="uuid-d46305ce-486d-4c9b-91e2-e1fbd294c1fd" x="21.91" y="9.51" width="2.09" height="2.23"/><rect class="uuid-67e8a394-2b30-4513-a471-7a2f1fd514e1" x="21.91" y="11.74" width="2.09" height="2.23"/><rect class="uuid-5c52bf4f-77b9-4edf-abd8-1a219a62854e" x="19.68" y="11.74" width="2.23" height="2.23"/><rect class="uuid-5f19e940-dacb-4ba9-aebe-06bb44956050" x="17.45" y="11.74" width="2.23" height="2.23"/><rect class="uuid-788e0b49-7807-4336-89ab-c8f04454d19b" x="15.22" y="11.74" width="2.23" height="2.23"/><rect class="uuid-3a73461c-da95-4b18-90e1-a0ea345b2f75" x="12.99" y="11.74" width="2.23" height="2.23"/><rect class="uuid-874800da-8050-4f38-bf9a-4063558bcb93" x="10.76" y="11.74" width="2.23" height="2.23"/><rect class="uuid-64ffc0c8-a715-40f8-8c1c-8f41e3fd002e" x="8.53" y="11.74" width="2.23" height="2.23"/><path class="uuid-3a73461c-da95-4b18-90e1-a0ea345b2f75" d="M8.53,11.74v2.23h-1.82c.44-.78.94-1.52,1.5-2.23h.32Z"/><path class="uuid-3a73461c-da95-4b18-90e1-a0ea345b2f75" d="M6.3,14.7v1.5h-.72c.22-.51.46-1.01.72-1.5Z"/><path class="uuid-06118a52-d72d-4c27-b594-3cd7750ef9d0" d="M8.53,13.97v2.23h-2.23v-1.5c.12-.25.26-.4901.41-.73h1.82Z"/><rect class="uuid-5e8080ef-cc70-4071-9c43-655305b89fe3" x="8.53" y="13.97" width="2.23" height="2.23"/><rect class="uuid-dfd63801-cfd5-490b-86ec-195e3b6cd62d" x="10.76" y="13.97" width="2.23" height="2.23"/><rect class="uuid-c9f36aaf-9528-4448-a8c3-b2cd72297d2f" x="12.99" y="13.97" width="2.23" height="2.23"/><rect class="uuid-201872c1-d2f9-4943-9999-2f06736a5e91" x="15.22" y="13.97" width="2.23" height="2.23"/><rect class="uuid-935b96fb-5d1e-4aad-8bc9-2450d8aeabb3" x="17.45" y="13.97" width="2.23" height="2.23"/><rect class="uuid-3a73461c-da95-4b18-90e1-a0ea345b2f75" x="19.68" y="13.97" width="2.23" height="2.23"/><rect class="uuid-3c7112a9-12a1-4598-bc9a-cb5a37c3684d" x="21.91" y="13.97" width="2.09" height="2.23"/><rect class="uuid-0712c66c-7bfb-48bf-ad6f-05fddf99ac30" x="21.91" y="16.2" width="2.09" height="2.23"/><rect class="uuid-84131834-cfa8-4705-9c88-9d439ddb7716" x="19.68" y="16.2" width="2.23" height="2.23"/><rect class="uuid-fccd7872-0230-421c-8739-ca417165a23c" x="17.45" y="16.2" width="2.23" height="2.23"/><rect class="uuid-2df3440a-e930-4818-a2e5-2fb050fe6158" x="15.22" y="16.2" width="2.23" height="2.23"/><rect class="uuid-dd7d8ad1-1f7c-4f99-a286-93850eb1ca59" x="12.99" y="16.2" width="2.23" height="2.23"/><rect class="uuid-3b6e3fa0-ff91-4d71-bc60-99b8e1e84f3b" x="10.76" y="16.2" width="2.23" height="2.23"/><rect class="uuid-67cd5562-805a-4af3-993f-7e99366564cb" x="8.53" y="16.2" width="2.23" height="2.23"/><rect class="uuid-5a841b5c-6b5e-4472-ac1c-ea9c8fd8afe8" x="6.3" y="16.2" width="2.23" height="2.23"/><path class="uuid-0cb7f7fe-9c05-4ffa-a1d2-28f43656ae9f" d="M6.3,16.2v2.23h-1.51c.22-.76.48-1.51.79-2.23h.72Z"/><path class="uuid-0cb7f7fe-9c05-4ffa-a1d2-28f43656ae9f" d="M6.3,18.43v2.23h-2.02c.1299-.76.3-1.5.5099-2.23h1.51Z"/><rect class="uuid-3c7112a9-12a1-4598-bc9a-cb5a37c3684d" x="6.3" y="18.43" width="2.23" height="2.23"/><rect class="uuid-3a73461c-da95-4b18-90e1-a0ea345b2f75" x="8.53" y="18.43" width="2.23" height="2.23"/><rect class="uuid-d46305ce-486d-4c9b-91e2-e1fbd294c1fd" x="10.76" y="18.43" width="2.23" height="2.23"/><rect class="uuid-7498363b-35ac-4fd1-ad06-664aebc9a3bc" x="12.99" y="18.43" width="2.23" height="2.23"/><rect class="uuid-2df3440a-e930-4818-a2e5-2fb050fe6158" x="15.22" y="18.43" width="2.23" height="2.23"/><rect class="uuid-3a73461c-da95-4b18-90e1-a0ea345b2f75" x="17.45" y="18.43" width="2.23" height="2.23"/><rect class="uuid-5f19e940-dacb-4ba9-aebe-06bb44956050" x="19.68" y="18.43" width="2.23" height="2.23"/><rect class="uuid-3f16871c-f927-4e65-9a23-4adafd33eddf" x="21.91" y="18.43" width="2.09" height="2.23"/><rect class="uuid-3a73461c-da95-4b18-90e1-a0ea345b2f75" x="21.91" y="20.66" width="2.09" height="2.23"/><rect class="uuid-e5c3e7c5-8f1f-4434-b410-99f7204b6627" x="19.68" y="20.66" width="2.23" height="2.23"/><rect class="uuid-76cb4fe9-5e57-46f6-b0ed-b1c6e9e85367" x="17.45" y="20.66" width="2.23" height="2.23"/><rect class="uuid-3a73461c-da95-4b18-90e1-a0ea345b2f75" x="15.22" y="20.66" width="2.23" height="2.23"/><rect class="uuid-3a73461c-da95-4b18-90e1-a0ea345b2f75" x="12.99" y="20.66" width="2.23" height="2.23"/><rect class="uuid-1427520b-0cae-4426-a446-637bd72ed2a3" x="10.76" y="20.66" width="2.23" height="2.23"/><rect class="uuid-874800da-8050-4f38-bf9a-4063558bcb93" x="8.53" y="20.66" width="2.23" height="2.23"/><rect class="uuid-6524454e-6c19-4ed7-8ed5-6c79556f859c" x="6.3" y="20.66" width="2.23" height="2.23"/><path class="uuid-0ce7f5bb-936d-4397-961c-ec2ffcd6a3e8" d="M6.3,20.66v2.23h-2.23v-.5c.04-.59.11-1.17.21-1.73h2.02Z"/><rect class="uuid-201872c1-d2f9-4943-9999-2f06736a5e91" x="4.07" y="22.89" width="2.23" height="2.22"/><rect class="uuid-67cd5562-805a-4af3-993f-7e99366564cb" x="6.3" y="22.89" width="2.23" height="2.22"/><rect class="uuid-3a73461c-da95-4b18-90e1-a0ea345b2f75" x="8.53" y="22.89" width="2.23" height="2.22"/><rect class="uuid-3a73461c-da95-4b18-90e1-a0ea345b2f75" x="10.76" y="22.89" width="2.23" height="2.22"/><rect class="uuid-dd7d8ad1-1f7c-4f99-a286-93850eb1ca59" x="12.99" y="22.89" width="2.23" height="2.22"/><rect class="uuid-f4d01a08-b27e-40ff-887e-e0ebd17f44d3" x="15.22" y="22.89" width="2.23" height="2.22"/><rect class="uuid-43de9fd9-b6bf-4466-a655-1dd74c708d70" x="17.45" y="22.89" width="2.23" height="2.22"/><rect class="uuid-afabdc24-fe45-4ff8-a828-3212baa46752" x="19.68" y="22.89" width="2.23" height="2.22"/><rect class="uuid-ad13448c-ee7c-4048-b067-41b013fd1aea" x="21.91" y="22.89" width="2.09" height="2.22"/><rect class="uuid-74881d8d-8e01-4f41-9262-0ebae6f449fa" x="21.91" y="25.11" width="2.09" height="2.23"/><rect class="uuid-e1e8f99a-1ff8-4f4d-a2ac-175e9b269cad" x="19.68" y="25.11" width="2.23" height="2.23"/><rect class="uuid-3a73461c-da95-4b18-90e1-a0ea345b2f75" x="17.45" y="25.11" width="2.23" height="2.23"/><rect class="uuid-87700541-a73e-4117-be09-09259c72ea2f" x="15.22" y="25.11" width="2.23" height="2.23"/><rect class="uuid-08a966be-79bb-4f78-9aec-bcd1836f88b5" x="12.99" y="25.11" width="2.23" height="2.23"/><rect class="uuid-3a73461c-da95-4b18-90e1-a0ea345b2f75" x="10.76" y="25.11" width="2.23" height="2.23"/><rect class="uuid-c7f1b332-8951-48fa-8afc-d9df57de1f75" x="8.53" y="25.11" width="2.23" height="2.23"/><rect class="uuid-1427520b-0cae-4426-a446-637bd72ed2a3" x="6.3" y="25.11" width="2.23" height="2.23"/><path class="uuid-201872c1-d2f9-4943-9999-2f06736a5e91" d="M6.3,25.11v2.23h-2.02c-.1-.56-.17-1.14-.21-1.73v-.5h2.23Z"/><path class="uuid-3a73461c-da95-4b18-90e1-a0ea345b2f75" d="M4.04,22.89c0-.17.01-.34.03-.5v3.22c-.02-.16-.03-.33-.03-.5-.03-.37-.04-.74-.04-1.11s.01-.74.04-1.11Z"/><path class="uuid-3a73461c-da95-4b18-90e1-a0ea345b2f75" d="M6.3,27.34v2.23h-1.51c-.21-.73-.38-1.47-.5099-2.23h2.02Z"/><rect class="uuid-6c324768-5e10-4826-b71f-8221773294dc" x="6.3" y="27.34" width="2.23" height="2.23"/><rect class="uuid-3a73461c-da95-4b18-90e1-a0ea345b2f75" x="8.53" y="27.34" width="2.23" height="2.23"/><rect class="uuid-5a841b5c-6b5e-4472-ac1c-ea9c8fd8afe8" x="10.76" y="27.34" width="2.23" height="2.23"/><rect class="uuid-d69dc870-d4a4-4eb8-8e1f-6450076e2c73" x="12.99" y="27.34" width="2.23" height="2.23"/><rect class="uuid-3a73461c-da95-4b18-90e1-a0ea345b2f75" x="15.22" y="27.34" width="2.23" height="2.23"/><rect class="uuid-8e8cd29e-c682-4e8d-b5ae-8db8845264f1" x="17.45" y="27.34" width="2.23" height="2.23"/><rect class="uuid-0cb7f7fe-9c05-4ffa-a1d2-28f43656ae9f" x="19.68" y="27.34" width="2.23" height="2.23"/><rect class="uuid-43de9fd9-b6bf-4466-a655-1dd74c708d70" x="21.91" y="27.34" width="2.09" height="2.23"/><rect class="uuid-3a73461c-da95-4b18-90e1-a0ea345b2f75" x="21.91" y="29.57" width="2.09" height="2.23"/><rect class="uuid-5a841b5c-6b5e-4472-ac1c-ea9c8fd8afe8" x="19.68" y="29.57" width="2.23" height="2.23"/><rect class="uuid-3a73461c-da95-4b18-90e1-a0ea345b2f75" x="17.45" y="29.57" width="2.23" height="2.23"/><rect class="uuid-a5e2f4de-c8a9-4c8f-8f93-1c31b984220d" x="15.22" y="29.57" width="2.23" height="2.23"/><rect class="uuid-de7e07d6-9608-4250-bd49-18910cc9584b" x="12.99" y="29.57" width="2.23" height="2.23"/><rect class="uuid-3a73461c-da95-4b18-90e1-a0ea345b2f75" x="10.76" y="29.57" width="2.23" height="2.23"/><rect class="uuid-6c324768-5e10-4826-b71f-8221773294dc" x="8.53" y="29.57" width="2.23" height="2.23"/><rect class="uuid-3a73461c-da95-4b18-90e1-a0ea345b2f75" x="6.3" y="29.57" width="2.23" height="2.23"/><path class="uuid-5a841b5c-6b5e-4472-ac1c-ea9c8fd8afe8" d="M6.3,29.57v2.23h-.72c-.31-.72-.57-1.47-.79-2.23h1.51Z"/><rect class="uuid-06118a52-d72d-4c27-b594-3cd7750ef9d0" x="21.91" y="31.8" width="2.09" height="2.23"/><rect class="uuid-fccd7872-0230-421c-8739-ca417165a23c" x="19.68" y="31.8" width="2.23" height="2.23"/><rect class="uuid-448c7f88-99eb-4493-95b7-597f72c9d0a8" x="17.45" y="31.8" width="2.23" height="2.23"/><rect class="uuid-6c324768-5e10-4826-b71f-8221773294dc" x="15.22" y="31.8" width="2.23" height="2.23"/><rect class="uuid-a94d1ffc-2a6a-4ce6-82e9-3c9681222595" x="12.99" y="31.8" width="2.23" height="2.23"/><rect class="uuid-3a73461c-da95-4b18-90e1-a0ea345b2f75" x="10.76" y="31.8" width="2.23" height="2.23"/><rect class="uuid-5c52bf4f-77b9-4edf-abd8-1a219a62854e" x="8.53" y="31.8" width="2.23" height="2.23"/><path class="uuid-59003a45-cb8e-4275-bb2e-8dffc4ac3191" d="M8.53,31.8v2.23h-1.82c-.15-.24-.29-.48-.41-.73v-1.5h2.23Z"/><path class="uuid-ee37ce0a-6d6a-4493-bfa2-440092593b1a" d="M6.3,31.8v1.5c-.26-.49-.5-.99-.72-1.5h.72Z"/><rect class="uuid-dcaa195c-e472-4111-ad32-d4d5d640803d" x="21.91" y="34.03" width="2.09" height="2.23"/><rect class="uuid-5a927c9e-8103-4b22-886e-b441f3841b09" x="19.68" y="34.03" width="2.23" height="2.23"/><rect class="uuid-874800da-8050-4f38-bf9a-4063558bcb93" x="17.45" y="34.03" width="2.23" height="2.23"/><rect class="uuid-84131834-cfa8-4705-9c88-9d439ddb7716" x="15.22" y="34.03" width="2.23" height="2.23"/><rect class="uuid-3a73461c-da95-4b18-90e1-a0ea345b2f75" x="12.99" y="34.03" width="2.23" height="2.23"/><rect class="uuid-6c324768-5e10-4826-b71f-8221773294dc" x="10.76" y="34.03" width="2.23" height="2.23"/><rect class="uuid-3a73461c-da95-4b18-90e1-a0ea345b2f75" x="8.53" y="34.03" width="2.23" height="2.23"/><path class="uuid-74881d8d-8e01-4f41-9262-0ebae6f449fa" d="M8.53,34.03v2.23h-.32c-.56-.71-1.06-1.45-1.5-2.23h1.82Z"/><path class="uuid-6b5c290a-c03b-48f9-9ae5-b0c8daec6f84" d="M10.76,36.26v2.23h-.53c-.61-.56-1.18-1.17-1.7-1.82v-.41h2.23Z"/><path class="uuid-3a73461c-da95-4b18-90e1-a0ea345b2f75" d="M8.21,36.26h.32v.41c-.11-.13-.22-.27-.32-.41Z"/><rect class="uuid-3a73461c-da95-4b18-90e1-a0ea345b2f75" x="10.76" y="36.26" width="2.23" height="2.23"/><rect class="uuid-e807c681-67ff-406b-a5b0-3bf4e3a81873" x="12.99" y="36.26" width="2.23" height="2.23"/><rect class="uuid-06118a52-d72d-4c27-b594-3cd7750ef9d0" x="15.22" y="36.26" width="2.23" height="2.23"/><rect class="uuid-874800da-8050-4f38-bf9a-4063558bcb93" x="17.45" y="36.26" width="2.23" height="2.23"/><rect class="uuid-750b4724-6f14-469f-a717-34e4392d692c" x="21.91" y="36.26" width="2.09" height="2.23"/><rect class="uuid-06118a52-d72d-4c27-b594-3cd7750ef9d0" x="19.68" y="36.26" width="2.23" height="2.23"/><rect class="uuid-3a73461c-da95-4b18-90e1-a0ea345b2f75" x="21.91" y="38.49" width="2.09" height="2.23"/><rect class="uuid-0c4c09e6-350a-44d6-8501-77fedc52b45a" x="19.68" y="38.49" width="2.23" height="2.23"/><rect class="uuid-5f4a2a72-9901-4211-bd81-3f2f580b4b90" x="17.45" y="38.49" width="2.23" height="2.23"/><rect class="uuid-3a73461c-da95-4b18-90e1-a0ea345b2f75" x="15.22" y="38.49" width="2.23" height="2.23"/><path class="uuid-b596b141-684a-445d-863c-5d1ff04b1cd7" d="M15.22,38.49v2.23h-2.18c-.02,0-.04-.01-.05-.03v-2.2h2.23Z"/><path class="uuid-31c4b0b7-6286-41b5-b006-3301e130fd5a" d="M12.99,38.49v2.2c-.78-.51-1.53-1.08-2.23-1.71v-.49h2.23Z"/><path class="uuid-3a73461c-da95-4b18-90e1-a0ea345b2f75" d="M10.76,38.49v.49c-.18-.15-.36-.32-.53-.49h.53Z"/><path class="uuid-0cb7f7fe-9c05-4ffa-a1d2-28f43656ae9f" d="M15.22,40.72v1.25c-.7599-.37-1.48-.78-2.18-1.25h2.18Z"/><path class="uuid-4cef658f-60ef-479a-ba0a-b7776320edf4" d="M17.45,40.72v2.18c-.77-.2599-1.51-.58-2.23-.93v-1.25h2.23Z"/><path class="uuid-874800da-8050-4f38-bf9a-4063558bcb93" d="M19.68,40.72v2.23h-2.08c-.05-.02-.1-.03-.15-.05v-2.18h2.23Z"/><rect class="uuid-3a73461c-da95-4b18-90e1-a0ea345b2f75" x="19.68" y="40.72" width="2.23" height="2.23"/><rect class="uuid-15926042-b6a7-4942-8599-59a219263235" x="21.91" y="40.72" width="2.09" height="2.23"/><path class="uuid-d9eff508-3da9-495b-b0b5-d876ca60a677" d="M24,42.95v1.05c-.71,0-1.41-.04-2.09-.11v-.94h2.09Z"/><path class="uuid-43b9df99-cc40-4187-92f3-ea4953ce6cf5" d="M21.91,42.95v.94c-.7599-.08-1.5-.2-2.23-.3701v-.5699h2.23Z"/><path class="uuid-3a73461c-da95-4b18-90e1-a0ea345b2f75" d="M19.68,42.95v.5699c-.71-.14-1.4-.34-2.08-.5699h2.08Z"/><path class="uuid-3a73461c-da95-4b18-90e1-a0ea345b2f75" d="M24,44V4c11.05,0,20,8.95,20,20s-8.95,20-20,20Z"/><path class="uuid-1600ad3c-69bb-4cd7-b1a6-f9dfdd80cd89" d="M24,44v-1.05s2.09,0,2.09,0v.94c-.6801.07-1.38.11-2.09.11Z"/><path class="uuid-0cb7f7fe-9c05-4ffa-a1d2-28f43656ae9f" d="M26.09,43.89v-.94s2.23,0,2.23,0v.57c-.73.17-1.47.29-2.23.37Z"/><path class="uuid-3a73461c-da95-4b18-90e1-a0ea345b2f75" d="M28.32,43.52v-.57s2.08,0,2.08,0c-.6801.23-1.37.43-2.08.57Z"/><rect class="uuid-874800da-8050-4f38-bf9a-4063558bcb93" x="24" y="40.72" width="2.09" height="2.23"/><rect class="uuid-dcf0844d-0eb0-4082-80c6-30ba24732760" x="26.09" y="40.72" width="2.23" height="2.23"/><path class="uuid-e2ee8a2f-4e20-43ae-bddb-842815e1a5d0" d="M28.32,42.95v-2.23s2.23,0,2.23,0v2.18c-.05.02-.1.03-.15.05h-2.08Z"/><path class="uuid-0cb7f7fe-9c05-4ffa-a1d2-28f43656ae9f" d="M30.55,42.9v-2.18s2.23,0,2.23,0v1.25c-.72.35-1.46.67-2.23.93Z"/><path class="uuid-0cb7f7fe-9c05-4ffa-a1d2-28f43656ae9f" d="M32.78,41.97v-1.25s2.18,0,2.18,0c-.7.47-1.42.88-2.18,1.25Z"/><path class="uuid-e807c681-67ff-406b-a5b0-3bf4e3a81873" d="M32.78,40.72v-2.23s2.23,0,2.23,0v2.2c-.01.02-.03.03-.05.03h-2.18Z"/><rect class="uuid-76888f7c-da2f-480c-9c57-d9900da9279f" x="30.55" y="38.49" width="2.23" height="2.23"/><rect class="uuid-874800da-8050-4f38-bf9a-4063558bcb93" x="28.32" y="38.49" width="2.23" height="2.23"/><rect class="uuid-1427520b-0cae-4426-a446-637bd72ed2a3" x="26.09" y="38.49" width="2.23" height="2.23"/><rect class="uuid-3f16871c-f927-4e65-9a23-4adafd33eddf" x="24" y="38.49" width="2.09" height="2.23"/><path class="uuid-3bbc346b-80d8-4255-84ca-12b55fb71991" d="M35.01,40.69v-2.2s2.23,0,2.23,0v.4901c-.7.6299-1.45,1.2-2.23,1.71Z"/><path class="uuid-3a73461c-da95-4b18-90e1-a0ea345b2f75" d="M39.47,36.67v-.41s.32,0,.32,0c-.1.14-.21.28-.32.41Z"/><path class="uuid-84131834-cfa8-4705-9c88-9d439ddb7716" d="M37.24,38.49v-2.23s2.23,0,2.23,0v.41c-.52.65-1.09,1.2599-1.7,1.8199h-.53Z"/><path class="uuid-3a73461c-da95-4b18-90e1-a0ea345b2f75" d="M37.24,38.98v-.4901s.53,0,.53,0c-.17.17-.35.34-.53.4901Z"/><rect class="uuid-3a73461c-da95-4b18-90e1-a0ea345b2f75" x="35.01" y="36.26" width="2.23" height="2.23"/><rect class="uuid-874800da-8050-4f38-bf9a-4063558bcb93" x="32.78" y="36.26" width="2.23" height="2.23"/><rect class="uuid-1427520b-0cae-4426-a446-637bd72ed2a3" x="30.55" y="36.26" width="2.23" height="2.23"/><rect class="uuid-201872c1-d2f9-4943-9999-2f06736a5e91" x="28.32" y="36.26" width="2.23" height="2.23"/><rect class="uuid-06118a52-d72d-4c27-b594-3cd7750ef9d0" x="26.09" y="36.26" width="2.23" height="2.23"/><rect class="uuid-d46305ce-486d-4c9b-91e2-e1fbd294c1fd" x="24" y="36.26" width="2.09" height="2.23"/><rect class="uuid-67e8a394-2b30-4513-a471-7a2f1fd514e1" x="24" y="34.03" width="2.09" height="2.23"/><rect class="uuid-5c52bf4f-77b9-4edf-abd8-1a219a62854e" x="26.09" y="34.03" width="2.23" height="2.23"/><rect class="uuid-5f19e940-dacb-4ba9-aebe-06bb44956050" x="28.32" y="34.03" width="2.23" height="2.23"/><rect class="uuid-788e0b49-7807-4336-89ab-c8f04454d19b" x="30.55" y="34.03" width="2.23" height="2.23"/><rect class="uuid-3a73461c-da95-4b18-90e1-a0ea345b2f75" x="32.78" y="34.03" width="2.23" height="2.23"/><rect class="uuid-874800da-8050-4f38-bf9a-4063558bcb93" x="35.01" y="34.03" width="2.23" height="2.23"/><rect class="uuid-64ffc0c8-a715-40f8-8c1c-8f41e3fd002e" x="37.24" y="34.03" width="2.23" height="2.23"/><path class="uuid-3a73461c-da95-4b18-90e1-a0ea345b2f75" d="M39.47,36.26v-2.23s1.82,0,1.82,0c-.44.78-.94,1.52-1.5,2.23h-.32Z"/><path class="uuid-3a73461c-da95-4b18-90e1-a0ea345b2f75" d="M41.7,33.3v-1.5s.72,0,.72,0c-.22.51-.46,1.01-.72,1.5Z"/><path class="uuid-06118a52-d72d-4c27-b594-3cd7750ef9d0" d="M39.47,34.03v-2.23s2.23,0,2.23,0v1.5c-.12.25-.26.4901-.41.73h-1.82Z"/><rect class="uuid-5e8080ef-cc70-4071-9c43-655305b89fe3" x="37.24" y="31.8" width="2.23" height="2.23"/><rect class="uuid-dfd63801-cfd5-490b-86ec-195e3b6cd62d" x="35.01" y="31.8" width="2.23" height="2.23"/><rect class="uuid-c9f36aaf-9528-4448-a8c3-b2cd72297d2f" x="32.78" y="31.8" width="2.23" height="2.23"/><rect class="uuid-201872c1-d2f9-4943-9999-2f06736a5e91" x="30.55" y="31.8" width="2.23" height="2.23"/><rect class="uuid-935b96fb-5d1e-4aad-8bc9-2450d8aeabb3" x="28.32" y="31.8" width="2.23" height="2.23"/><rect class="uuid-3a73461c-da95-4b18-90e1-a0ea345b2f75" x="26.09" y="31.8" width="2.23" height="2.23"/><rect class="uuid-3c7112a9-12a1-4598-bc9a-cb5a37c3684d" x="24" y="31.8" width="2.09" height="2.23"/><rect class="uuid-0712c66c-7bfb-48bf-ad6f-05fddf99ac30" x="24" y="29.57" width="2.09" height="2.23"/><rect class="uuid-84131834-cfa8-4705-9c88-9d439ddb7716" x="26.09" y="29.57" width="2.23" height="2.23"/><rect class="uuid-fccd7872-0230-421c-8739-ca417165a23c" x="28.32" y="29.57" width="2.23" height="2.23"/><rect class="uuid-2df3440a-e930-4818-a2e5-2fb050fe6158" x="30.55" y="29.57" width="2.23" height="2.23"/><rect class="uuid-dd7d8ad1-1f7c-4f99-a286-93850eb1ca59" x="32.78" y="29.57" width="2.23" height="2.23"/><rect class="uuid-3b6e3fa0-ff91-4d71-bc60-99b8e1e84f3b" x="35.01" y="29.57" width="2.23" height="2.23"/><rect class="uuid-67cd5562-805a-4af3-993f-7e99366564cb" x="37.24" y="29.57" width="2.23" height="2.23"/><rect class="uuid-5a841b5c-6b5e-4472-ac1c-ea9c8fd8afe8" x="39.47" y="29.57" width="2.23" height="2.23"/><path class="uuid-0cb7f7fe-9c05-4ffa-a1d2-28f43656ae9f" d="M41.7,31.8v-2.23s1.51,0,1.51,0c-.22.76-.48,1.51-.79,2.23h-.72Z"/><path class="uuid-0cb7f7fe-9c05-4ffa-a1d2-28f43656ae9f" d="M41.7,29.57v-2.23s2.02,0,2.02,0c-.1299.76-.3,1.5-.5099,2.23h-1.51Z"/><rect class="uuid-3c7112a9-12a1-4598-bc9a-cb5a37c3684d" x="39.47" y="27.34" width="2.23" height="2.23"/><rect class="uuid-3a73461c-da95-4b18-90e1-a0ea345b2f75" x="37.24" y="27.34" width="2.23" height="2.23"/><rect class="uuid-d46305ce-486d-4c9b-91e2-e1fbd294c1fd" x="35.01" y="27.34" width="2.23" height="2.23"/><rect class="uuid-7498363b-35ac-4fd1-ad06-664aebc9a3bc" x="32.78" y="27.34" width="2.23" height="2.23"/><rect class="uuid-2df3440a-e930-4818-a2e5-2fb050fe6158" x="30.55" y="27.34" width="2.23" height="2.23"/><rect class="uuid-3a73461c-da95-4b18-90e1-a0ea345b2f75" x="28.32" y="27.34" width="2.23" height="2.23"/><rect class="uuid-5f19e940-dacb-4ba9-aebe-06bb44956050" x="26.09" y="27.34" width="2.23" height="2.23"/><rect class="uuid-3f16871c-f927-4e65-9a23-4adafd33eddf" x="24" y="27.34" width="2.09" height="2.23"/><rect class="uuid-3a73461c-da95-4b18-90e1-a0ea345b2f75" x="24" y="25.11" width="2.09" height="2.23"/><rect class="uuid-e5c3e7c5-8f1f-4434-b410-99f7204b6627" x="26.09" y="25.11" width="2.23" height="2.23"/><rect class="uuid-76cb4fe9-5e57-46f6-b0ed-b1c6e9e85367" x="28.32" y="25.11" width="2.23" height="2.23"/><rect class="uuid-3a73461c-da95-4b18-90e1-a0ea345b2f75" x="30.55" y="25.11" width="2.23" height="2.23"/><rect class="uuid-3a73461c-da95-4b18-90e1-a0ea345b2f75" x="32.78" y="25.11" width="2.23" height="2.23"/><rect class="uuid-1427520b-0cae-4426-a446-637bd72ed2a3" x="35.01" y="25.11" width="2.23" height="2.23"/><rect class="uuid-874800da-8050-4f38-bf9a-4063558bcb93" x="37.24" y="25.11" width="2.23" height="2.23"/><rect class="uuid-6524454e-6c19-4ed7-8ed5-6c79556f859c" x="39.47" y="25.11" width="2.23" height="2.23"/><path class="uuid-0ce7f5bb-936d-4397-961c-ec2ffcd6a3e8" d="M41.7,27.34v-2.23s2.23,0,2.23,0v.5c-.04.59-.11,1.17-.21,1.73h-2.02Z"/><rect class="uuid-201872c1-d2f9-4943-9999-2f06736a5e91" x="41.7" y="22.89" width="2.23" height="2.22"/><rect class="uuid-67cd5562-805a-4af3-993f-7e99366564cb" x="39.47" y="22.89" width="2.23" height="2.22"/><rect class="uuid-3a73461c-da95-4b18-90e1-a0ea345b2f75" x="37.24" y="22.89" width="2.23" height="2.22"/><rect class="uuid-3a73461c-da95-4b18-90e1-a0ea345b2f75" x="35.01" y="22.89" width="2.23" height="2.22"/><rect class="uuid-dd7d8ad1-1f7c-4f99-a286-93850eb1ca59" x="32.78" y="22.89" width="2.23" height="2.22"/><rect class="uuid-f4d01a08-b27e-40ff-887e-e0ebd17f44d3" x="30.55" y="22.89" width="2.23" height="2.22"/><rect class="uuid-43de9fd9-b6bf-4466-a655-1dd74c708d70" x="28.32" y="22.89" width="2.23" height="2.22"/><rect class="uuid-afabdc24-fe45-4ff8-a828-3212baa46752" x="26.09" y="22.89" width="2.23" height="2.22"/><rect class="uuid-ad13448c-ee7c-4048-b067-41b013fd1aea" x="24" y="22.89" width="2.09" height="2.22"/><rect class="uuid-74881d8d-8e01-4f41-9262-0ebae6f449fa" x="24" y="20.66" width="2.09" height="2.23"/><rect class="uuid-e1e8f99a-1ff8-4f4d-a2ac-175e9b269cad" x="26.09" y="20.66" width="2.23" height="2.23"/><rect class="uuid-3a73461c-da95-4b18-90e1-a0ea345b2f75" x="28.32" y="20.66" width="2.23" height="2.23"/><rect class="uuid-87700541-a73e-4117-be09-09259c72ea2f" x="30.55" y="20.66" width="2.23" height="2.23"/><rect class="uuid-08a966be-79bb-4f78-9aec-bcd1836f88b5" x="32.78" y="20.66" width="2.23" height="2.23"/><rect class="uuid-3a73461c-da95-4b18-90e1-a0ea345b2f75" x="35.01" y="20.66" width="2.23" height="2.23"/><rect class="uuid-c7f1b332-8951-48fa-8afc-d9df57de1f75" x="37.24" y="20.66" width="2.23" height="2.23"/><rect class="uuid-1427520b-0cae-4426-a446-637bd72ed2a3" x="39.47" y="20.66" width="2.23" height="2.23"/><path class="uuid-201872c1-d2f9-4943-9999-2f06736a5e91" d="M41.7,22.89v-2.23s2.02,0,2.02,0c.1.56.17,1.14.21,1.73v.5s-2.23,0-2.23,0Z"/><path class="uuid-3a73461c-da95-4b18-90e1-a0ea345b2f75" d="M43.96,25.11c0,.17-.01.34-.03.5v-3.22c.02.16.03.33.03.5.03.37.04.74.04,1.11s-.01.74-.04,1.11Z"/><path class="uuid-3a73461c-da95-4b18-90e1-a0ea345b2f75" d="M41.7,20.66v-2.23s1.51,0,1.51,0c.21.73.38,1.47.5099,2.23h-2.02Z"/><rect class="uuid-6c324768-5e10-4826-b71f-8221773294dc" x="39.47" y="18.43" width="2.23" height="2.23"/><rect class="uuid-3a73461c-da95-4b18-90e1-a0ea345b2f75" x="37.24" y="18.43" width="2.23" height="2.23"/><rect class="uuid-5a841b5c-6b5e-4472-ac1c-ea9c8fd8afe8" x="35.01" y="18.43" width="2.23" height="2.23"/><rect class="uuid-d69dc870-d4a4-4eb8-8e1f-6450076e2c73" x="32.78" y="18.43" width="2.23" height="2.23"/><rect class="uuid-3a73461c-da95-4b18-90e1-a0ea345b2f75" x="30.55" y="18.43" width="2.23" height="2.23"/><rect class="uuid-8e8cd29e-c682-4e8d-b5ae-8db8845264f1" x="28.32" y="18.43" width="2.23" height="2.23"/><rect class="uuid-0cb7f7fe-9c05-4ffa-a1d2-28f43656ae9f" x="26.09" y="18.43" width="2.23" height="2.23"/><rect class="uuid-43de9fd9-b6bf-4466-a655-1dd74c708d70" x="24" y="18.43" width="2.09" height="2.23"/><rect class="uuid-3a73461c-da95-4b18-90e1-a0ea345b2f75" x="24" y="16.2" width="2.09" height="2.23"/><rect class="uuid-5a841b5c-6b5e-4472-ac1c-ea9c8fd8afe8" x="26.09" y="16.2" width="2.23" height="2.23"/><rect class="uuid-3a73461c-da95-4b18-90e1-a0ea345b2f75" x="28.32" y="16.2" width="2.23" height="2.23"/><rect class="uuid-a5e2f4de-c8a9-4c8f-8f93-1c31b984220d" x="30.55" y="16.2" width="2.23" height="2.23"/><rect class="uuid-de7e07d6-9608-4250-bd49-18910cc9584b" x="32.78" y="16.2" width="2.23" height="2.23"/><rect class="uuid-3a73461c-da95-4b18-90e1-a0ea345b2f75" x="35.01" y="16.2" width="2.23" height="2.23"/><rect class="uuid-6c324768-5e10-4826-b71f-8221773294dc" x="37.24" y="16.2" width="2.23" height="2.23"/><rect class="uuid-3a73461c-da95-4b18-90e1-a0ea345b2f75" x="39.47" y="16.2" width="2.23" height="2.23"/><path class="uuid-5a841b5c-6b5e-4472-ac1c-ea9c8fd8afe8" d="M41.7,18.43v-2.23s.72,0,.72,0c.31.72.57,1.47.79,2.23h-1.51Z"/><rect class="uuid-06118a52-d72d-4c27-b594-3cd7750ef9d0" x="24" y="13.97" width="2.09" height="2.23"/><rect class="uuid-fccd7872-0230-421c-8739-ca417165a23c" x="26.09" y="13.97" width="2.23" height="2.23"/><rect class="uuid-448c7f88-99eb-4493-95b7-597f72c9d0a8" x="28.32" y="13.97" width="2.23" height="2.23"/><rect class="uuid-6c324768-5e10-4826-b71f-8221773294dc" x="30.55" y="13.97" width="2.23" height="2.23"/><rect class="uuid-a94d1ffc-2a6a-4ce6-82e9-3c9681222595" x="32.78" y="13.97" width="2.23" height="2.23"/><rect class="uuid-3a73461c-da95-4b18-90e1-a0ea345b2f75" x="35.01" y="13.97" width="2.23" height="2.23"/><rect class="uuid-5c52bf4f-77b9-4edf-abd8-1a219a62854e" x="37.24" y="13.97" width="2.23" height="2.23"/><path class="uuid-59003a45-cb8e-4275-bb2e-8dffc4ac3191" d="M39.47,16.2v-2.23s1.82,0,1.82,0c.15.24.29.48.41.73v1.5s-2.23,0-2.23,0Z"/><path class="uuid-ee37ce0a-6d6a-4493-bfa2-440092593b1a" d="M41.7,16.2v-1.5c.26.49.5.99.72,1.5h-.72Z"/><rect class="uuid-dcaa195c-e472-4111-ad32-d4d5d640803d" x="24" y="11.74" width="2.09" height="2.23"/><rect class="uuid-5a927c9e-8103-4b22-886e-b441f3841b09" x="26.09" y="11.74" width="2.23" height="2.23"/><rect class="uuid-874800da-8050-4f38-bf9a-4063558bcb93" x="28.32" y="11.74" width="2.23" height="2.23"/><rect class="uuid-84131834-cfa8-4705-9c88-9d439ddb7716" x="30.55" y="11.74" width="2.23" height="2.23"/><rect class="uuid-3a73461c-da95-4b18-90e1-a0ea345b2f75" x="32.78" y="11.74" width="2.23" height="2.23"/><rect class="uuid-6c324768-5e10-4826-b71f-8221773294dc" x="35.01" y="11.74" width="2.23" height="2.23"/><rect class="uuid-3a73461c-da95-4b18-90e1-a0ea345b2f75" x="37.24" y="11.74" width="2.23" height="2.23"/><path class="uuid-74881d8d-8e01-4f41-9262-0ebae6f449fa" d="M39.47,13.97v-2.23s.32,0,.32,0c.56.71,1.06,1.45,1.5,2.23h-1.82Z"/><path class="uuid-6b5c290a-c03b-48f9-9ae5-b0c8daec6f84" d="M37.24,11.74v-2.23s.53,0,.53,0c.61.56,1.18,1.17,1.7,1.82v.41s-2.23,0-2.23,0Z"/><path class="uuid-3a73461c-da95-4b18-90e1-a0ea345b2f75" d="M39.79,11.74h-.32s0-.41,0-.41c.11.13.22.27.32.41Z"/><rect class="uuid-3a73461c-da95-4b18-90e1-a0ea345b2f75" x="35.01" y="9.51" width="2.23" height="2.23"/><rect class="uuid-e807c681-67ff-406b-a5b0-3bf4e3a81873" x="32.78" y="9.51" width="2.23" height="2.23"/><rect class="uuid-06118a52-d72d-4c27-b594-3cd7750ef9d0" x="30.55" y="9.51" width="2.23" height="2.23"/><rect class="uuid-874800da-8050-4f38-bf9a-4063558bcb93" x="28.32" y="9.51" width="2.23" height="2.23"/><rect class="uuid-750b4724-6f14-469f-a717-34e4392d692c" x="24" y="9.51" width="2.09" height="2.23"/><rect class="uuid-06118a52-d72d-4c27-b594-3cd7750ef9d0" x="26.09" y="9.51" width="2.23" height="2.23"/><rect class="uuid-3a73461c-da95-4b18-90e1-a0ea345b2f75" x="24" y="7.28" width="2.09" height="2.23"/><rect class="uuid-0c4c09e6-350a-44d6-8501-77fedc52b45a" x="26.09" y="7.28" width="2.23" height="2.23"/><rect class="uuid-5f4a2a72-9901-4211-bd81-3f2f580b4b90" x="28.32" y="7.28" width="2.23" height="2.23"/><rect class="uuid-3a73461c-da95-4b18-90e1-a0ea345b2f75" x="30.55" y="7.28" width="2.23" height="2.23"/><path class="uuid-b596b141-684a-445d-863c-5d1ff04b1cd7" d="M32.78,9.51v-2.23s2.18,0,2.18,0c.02,0,.04.01.05.03v2.2s-2.23,0-2.23,0Z"/><path class="uuid-31c4b0b7-6286-41b5-b006-3301e130fd5a" d="M35.01,9.51v-2.2c.78.51,1.53,1.08,2.23,1.71v.49s-2.23,0-2.23,0Z"/><path class="uuid-3a73461c-da95-4b18-90e1-a0ea345b2f75" d="M37.24,9.51v-.49c.18.15.36.32.53.49h-.53Z"/><path class="uuid-0cb7f7fe-9c05-4ffa-a1d2-28f43656ae9f" d="M32.78,7.28v-1.25c.7599.37,1.48.78,2.18,1.25h-2.18Z"/><path class="uuid-4cef658f-60ef-479a-ba0a-b7776320edf4" d="M30.55,7.28v-2.18c.77.2599,1.51.58,2.23.93v1.25s-2.23,0-2.23,0Z"/><path class="uuid-874800da-8050-4f38-bf9a-4063558bcb93" d="M28.32,7.28v-2.23s2.08,0,2.08,0c.05.02.1.03.15.05v2.18s-2.23,0-2.23,0Z"/><rect class="uuid-3a73461c-da95-4b18-90e1-a0ea345b2f75" x="26.09" y="5.05" width="2.23" height="2.23"/><rect class="uuid-15926042-b6a7-4942-8599-59a219263235" x="24" y="5.05" width="2.09" height="2.23"/><path class="uuid-d9eff508-3da9-495b-b0b5-d876ca60a677" d="M24,5.05v-1.05c.71,0,1.41.04,2.09.11v.94s-2.09,0-2.09,0Z"/><path class="uuid-43b9df99-cc40-4187-92f3-ea4953ce6cf5" d="M26.09,5.05v-.94c.7599.08,1.5.2,2.23.3701v.5699s-2.23,0-2.23,0Z"/><path class="uuid-3a73461c-da95-4b18-90e1-a0ea345b2f75" d="M28.32,5.05v-.5699c.71.14,1.4.34,2.08.5699h-2.08Z"/><circle class="uuid-23b8cd8e-3c02-4405-99d8-fab75a45c367" cx="24" cy="24" r="20"/><path class="uuid-0ac50851-3396-4d78-8135-39862e5dd654" d="M24,38.49V4c-.3394,0-.6667.0325-1,.0505v39.899c.3333.018.6606.0505,1,.0505v-5.51Z"/><path class="uuid-d4f6ed2e-a382-4c96-be53-c3567a08ceed" d="M24,38.49V4c-.1697,0-.3318.0204-.5.0252v39.9496c.1682.0048.3303.0252.5.0252v-5.51Z"/><path class="uuid-811ea721-33d2-4fa4-8f67-4e504edbdf2c" d="M44,24c0,11.05-8.95,20-20,20V4c11.05,0,20,8.95,20,20Z"/></g></g></svg>