<?xml version="1.0" encoding="UTF-8"?><svg id="uuid-f37863f5-7362-4a5a-aca9-85d5b5fe4104" xmlns="http://www.w3.org/2000/svg" width="48" height="48" xmlns:xlink="http://www.w3.org/1999/xlink" viewBox="0 0 48 48"><defs><style>.uuid-f7647e94-917a-4563-b2a2-e562b1f9db34{fill:url(#uuid-3972b865-996b-4f1b-8679-ef4731975920);}.uuid-f7647e94-917a-4563-b2a2-e562b1f9db34,.uuid-fa2655a0-7cf8-4669-ad31-8ecff3cd3bb8,.uuid-81352df6-8d53-4d92-aa3d-ec1a039b56a6,.uuid-31fe2315-f2fc-402b-99c5-9ade76d471e8,.uuid-0576b80f-8489-4d1e-8f4f-6c6db72cb515,.uuid-d659013f-df72-4286-b10f-fdc35d8534e6,.uuid-ce087ca1-9c54-43c8-80ba-dd1a984ca50d{stroke-width:0px;}.uuid-fa2655a0-7cf8-4669-ad31-8ecff3cd3bb8{fill:url(#uuid-ed909199-2e2c-4d0c-af8e-f5f4122ca67c);}.uuid-81352df6-8d53-4d92-aa3d-ec1a039b56a6,.uuid-527a12c7-e529-4b09-a1c9-a94860624e95{opacity:.05;}.uuid-0576b80f-8489-4d1e-8f4f-6c6db72cb515{fill:none;}.uuid-d659013f-df72-4286-b10f-fdc35d8534e6{fill:url(#uuid-67b452ba-561a-496f-a0c8-8d4b6328ae4b);}.uuid-ce087ca1-9c54-43c8-80ba-dd1a984ca50d{opacity:.07;}</style><linearGradient id="uuid-3972b865-996b-4f1b-8679-ef4731975920" x1="4" y1="24" x2="24" y2="24" gradientUnits="userSpaceOnUse"><stop offset="0" stop-color="#32bdef"/><stop offset="1" stop-color="#1ea2e4"/></linearGradient><radialGradient id="uuid-ed909199-2e2c-4d0c-af8e-f5f4122ca67c" cx="15.4074" cy="12.5926" fx="15.4074" fy="12.5926" r="25.6684" gradientUnits="userSpaceOnUse"><stop offset="0" stop-color="#fafafb"/><stop offset=".293" stop-color="#f6f7f8"/><stop offset=".566" stop-color="#ebecee"/><stop offset=".832" stop-color="#d8dcdf"/><stop offset="1" stop-color="#c8cdd1"/></radialGradient><radialGradient id="uuid-67b452ba-561a-496f-a0c8-8d4b6328ae4b" cx="13.2593" cy="11.8519" fx="13.2593" fy="11.8519" r="27.1154" gradientUnits="userSpaceOnUse"><stop offset="0" stop-color="#fafafb"/><stop offset=".293" stop-color="#f6f7f8"/><stop offset=".566" stop-color="#ebecee"/><stop offset=".832" stop-color="#d8dcdf"/><stop offset="1" stop-color="#c8cdd1"/></radialGradient></defs><path class="uuid-f7647e94-917a-4563-b2a2-e562b1f9db34" d="M22.0711,4.0974c-.0535.0051-.1077.0071-.1611.0126h0c-.5345.0563-1.0568.1408-1.5751.2402-.2184.0405-.436.0817-.6518.1292-.001.0002-.0021.0004-.0031.0006-.4796.0946-.9479.2231-1.4124.3632-.141.0421-.2811.0853-.4208.1304-.0818.0267-.1652.0489-.2468.0765-.05.02-.1.03-.15.05-.3936.1329-.7791.2822-1.1583.4424-.1156.0483-.2264.1047-.3409.1551-.2448.1089-.4908.2158-.7308.3325-.1427.0695-.2778.1482-.4178.2206-.1794.0931-.3593.1844-.5355.2828-.3781.2114-.7491.4357-1.1131.6761-.2725.1763-.5369.3618-.8.5508-.2569.1833-.5105.3702-.7586.5671-.2198.1743-.4345.3533-.6468.5365-.0615.0537-.1274.1014-.1882.1561-.18.15-.36.32-.53.4901-.0276.0253-.0525.0536-.0799.0792-.1752.1685-.3481.3381-.5171.5128-.2932.2987-.5748.6084-.8447.9295-.123.1442-.246.2876-.365.4353-.0726.0903-.1466.1799-.2133.2733-.1318.1671-.249.3419-.3742.5125-.3229.4436-.6255.9009-.9118,1.3711-.0695.1166-.1472.228-.214.3464-.0162.0259-.0283.053-.0443.0789-.4294.7466-.8199,1.5172-1.1518,2.3207-.1925.4614-.362.9348-.5173,1.4141-.0505.1544-.1016.308-.1484.4641-.0182.0612-.0405.121-.0583.1823-.1257.4372-.2324.8801-.3295,1.3266-.0335.1552-.0635.3112-.0934.4677-.0281.1456-.0619.2887-.087.4357-.0383.2142-.0508.4423-.0803.6617-.0405.3025-.0836.6035-.1105.9101-.0042.0538-.0156.1042-.0192.1582-.02.16-.03.33-.03.5-.03.37-.04.74-.04,1.11s.01.74.04,1.11c0,.17.01.34.03.5.0037.054.0151.1044.0192.1582.0269.3067.0699.6077.1105.9102.0295.2194.0421.4474.0803.6616.0251.1469.0588.2899.087.4354.03.1567.0599.3129.0935.4683.097.4465.2037.8892.3295,1.3264.0178.0613.04.1211.0583.1823.0468.1562.098.3098.1484.4644.1552.4792.3246.9523.5172,1.4136.3319.8037.7227,1.5746,1.1523,2.3215.0158.0257.0278.0525.0439.0782.0663.1176.1434.2282.2125.3439.2867.4711.5898.9292.9133,1.3736.1252.1706.2424.3454.3742.5125.0664.093.1402.1823.2126.2723.1194.1483.2429.2923.3664.4371.2697.3208.551.6302.844.9286.169.1747.3419.3443.5171.5128.0274.0255.0523.0538.0799.0792.17.17.35.34.53.49.0605.0544.1263.1021.1876.1556.2125.1834.4274.3627.6476.5372.248.1969.5016.3838.7584.567.2643.1899.5302.3762.8041.5533.3627.2393.7323.4628,1.1089.6735.1765.0985.3567.1901.5364.2833.1398.0723.2745.1508.4169.2202.2397.1166.4855.2234.73.3322.1147.0505.2258.1071.3417.1555.3793.1603.7647.3095,1.1583.4424.05.02.1.03.15.05.0815.0276.1649.0498.2468.0765.1398.0451.2798.0883.4208.1304.4645.1401.9328.2686,1.4124.3631.0007.0002.0014.0002.0021.0004.2164.0477.4344.0889.6534.1295.5181.0993,1.0402.1838,1.5745.2401h0c.0534.0056.1077.0076.1611.0126.6299.0602,1.2742.0974,1.9289.0974V4c-.6547,0-1.299.0371-1.9289.0974Z"/><g class="uuid-527a12c7-e529-4b09-a1c9-a94860624e95"><path class="uuid-31fe2315-f2fc-402b-99c5-9ade76d471e8" d="M12.9473,24.8418c-1.5674,0-2.8418,1.2754-2.8418,2.8428s1.2744,2.8418,2.8418,2.8418,2.8418-1.2744,2.8418-2.8418-1.2744-2.8428-2.8418-2.8428Z"/><path class="uuid-31fe2315-f2fc-402b-99c5-9ade76d471e8" d="M40.5791,25.7627c-1.0771,0-1.9209.8438-1.9209,1.9219,0,1.0771.8438,1.9209,1.9209,1.9209s1.9209-.8438,1.9209-1.9209c0-1.0781-.8438-1.9219-1.9209-1.9219Z"/><path class="uuid-31fe2315-f2fc-402b-99c5-9ade76d471e8" d="M7.4209,25.7627c-1.0771,0-1.9209.8438-1.9209,1.9219,0,1.0771.8438,1.9209,1.9209,1.9209s1.9209-.8438,1.9209-1.9209c0-1.0781-.8438-1.9219-1.9209-1.9219Z"/><path class="uuid-31fe2315-f2fc-402b-99c5-9ade76d471e8" d="M12.9473,17.4736c-1.5674,0-2.8418,1.2744-2.8418,2.8418s1.2744,2.8428,2.8418,2.8428,2.8418-1.2754,2.8418-2.8428-1.2744-2.8418-2.8418-2.8418Z"/><circle class="uuid-31fe2315-f2fc-402b-99c5-9ade76d471e8" cx="12.9473" cy="35.0527" r="2.8418"/><path class="uuid-31fe2315-f2fc-402b-99c5-9ade76d471e8" d="M27.6846,9.3418c1.0771,0,1.9209-.8438,1.9209-1.9209s-.8438-1.9209-1.9209-1.9209c-1.0781,0-1.9219.8438-1.9219,1.9209s.8438,1.9209,1.9219,1.9209Z"/><path class="uuid-31fe2315-f2fc-402b-99c5-9ade76d471e8" d="M40.5791,22.2373c1.0771,0,1.9209-.8438,1.9209-1.9219,0-1.0771-.8438-1.9209-1.9209-1.9209s-1.9209.8438-1.9209,1.9209c0,1.0781.8438,1.9219,1.9209,1.9219Z"/><path class="uuid-31fe2315-f2fc-402b-99c5-9ade76d471e8" d="M20.3154,15.7891c1.5674,0,2.8428-1.2744,2.8428-2.8418s-1.2754-2.8418-2.8428-2.8418-2.8418,1.2744-2.8418,2.8418,1.2744,2.8418,2.8418,2.8418Z"/><path class="uuid-31fe2315-f2fc-402b-99c5-9ade76d471e8" d="M20.3154,9.3418c1.0781,0,1.9219-.8438,1.9219-1.9209s-.8438-1.9209-1.9219-1.9209c-1.0771,0-1.9209.8438-1.9209,1.9209s.8438,1.9209,1.9209,1.9209Z"/><path class="uuid-31fe2315-f2fc-402b-99c5-9ade76d471e8" d="M27.6846,15.7891c1.5674,0,2.8418-1.2744,2.8418-2.8418s-1.2744-2.8418-2.8418-2.8418-2.8428,1.2744-2.8428,2.8418,1.2754,2.8418,2.8428,2.8418Z"/><path class="uuid-31fe2315-f2fc-402b-99c5-9ade76d471e8" d="M7.4209,18.3945c-1.0771,0-1.9209.8438-1.9209,1.9209,0,1.0781.8438,1.9219,1.9209,1.9219s1.9209-.8438,1.9209-1.9219c0-1.0771-.8438-1.9209-1.9209-1.9209Z"/><circle class="uuid-31fe2315-f2fc-402b-99c5-9ade76d471e8" cx="35.0527" cy="35.0527" r="2.8418"/><path class="uuid-31fe2315-f2fc-402b-99c5-9ade76d471e8" d="M35.0527,24.8418c-1.5674,0-2.8418,1.2754-2.8418,2.8428s1.2744,2.8418,2.8418,2.8418,2.8418-1.2744,2.8418-2.8418-1.2744-2.8428-2.8418-2.8428Z"/><path class="uuid-31fe2315-f2fc-402b-99c5-9ade76d471e8" d="M31.4473,20.3154c0-2.0752-1.6875-3.7627-3.7627-3.7627-1.8115,0-3.3281,1.2861-3.6846,2.9932-.3564-1.707-1.873-2.9932-3.6846-2.9932-2.0752,0-3.7627,1.6875-3.7627,3.7627,0,1.8115,1.2861,3.3281,2.9932,3.6846-1.707.3564-2.9932,1.873-2.9932,3.6846,0,2.0752,1.6875,3.7627,3.7627,3.7627,1.8115,0,3.3281-1.2861,3.6846-2.9932.3564,1.707,1.873,2.9932,3.6846,2.9932,2.0752,0,3.7627-1.6875,3.7627-3.7627,0-1.8115-1.2861-3.3281-2.9932-3.6846,1.707-.3564,2.9932-1.873,2.9932-3.6846ZM24,26.915c-.3047-1.459-1.4561-2.6104-2.915-2.915,1.459-.3047,2.6104-1.4561,2.915-2.915.3047,1.459,1.4561,2.6104,2.915,2.915-1.459.3047-2.6104,1.4561-2.915,2.915Z"/><path class="uuid-31fe2315-f2fc-402b-99c5-9ade76d471e8" d="M35.0527,17.4736c-1.5674,0-2.8418,1.2744-2.8418,2.8418s1.2744,2.8428,2.8418,2.8428,2.8418-1.2754,2.8418-2.8428-1.2744-2.8418-2.8418-2.8418Z"/><circle class="uuid-31fe2315-f2fc-402b-99c5-9ade76d471e8" cx="12.9473" cy="12.9473" r="2.8418"/><circle class="uuid-31fe2315-f2fc-402b-99c5-9ade76d471e8" cx="35.0527" cy="12.9473" r="2.8418"/><path class="uuid-31fe2315-f2fc-402b-99c5-9ade76d471e8" d="M27.6846,32.2109c-1.5674,0-2.8428,1.2744-2.8428,2.8418s1.2754,2.8418,2.8428,2.8418,2.8418-1.2744,2.8418-2.8418-1.2744-2.8418-2.8418-2.8418Z"/><path class="uuid-31fe2315-f2fc-402b-99c5-9ade76d471e8" d="M20.3154,32.2109c-1.5674,0-2.8418,1.2744-2.8418,2.8418s1.2744,2.8418,2.8418,2.8418,2.8428-1.2744,2.8428-2.8418-1.2754-2.8418-2.8428-2.8418Z"/><path class="uuid-31fe2315-f2fc-402b-99c5-9ade76d471e8" d="M20.3154,38.6582c-1.0771,0-1.9209.8438-1.9209,1.9209s.8438,1.9209,1.9209,1.9209c1.0781,0,1.9219-.8438,1.9219-1.9209s-.8438-1.9209-1.9219-1.9209Z"/><path class="uuid-31fe2315-f2fc-402b-99c5-9ade76d471e8" d="M27.6846,38.6582c-1.0781,0-1.9219.8438-1.9219,1.9209s.8438,1.9209,1.9219,1.9209c1.0771,0,1.9209-.8438,1.9209-1.9209s-.8438-1.9209-1.9209-1.9209Z"/></g><path class="uuid-ce087ca1-9c54-43c8-80ba-dd1a984ca50d" d="M27.6846,42c-.7969,0-1.4219-.624-1.4219-1.4209s.625-1.4209,1.4219-1.4209,1.4209.624,1.4209,1.4209-.624,1.4209-1.4209,1.4209ZM20.3154,42c-.7969,0-1.4209-.624-1.4209-1.4209s.624-1.4209,1.4209-1.4209,1.4219.624,1.4219,1.4209-.625,1.4209-1.4219,1.4209ZM35.0527,37.3945c-1.291,0-2.3418-1.0508-2.3418-2.3418s1.0508-2.3418,2.3418-2.3418,2.3418,1.0508,2.3418,2.3418-1.0508,2.3418-2.3418,2.3418ZM27.6846,37.3945c-1.292,0-2.3428-1.0508-2.3428-2.3418s1.0508-2.3418,2.3428-2.3418c1.291,0,2.3418,1.0508,2.3418,2.3418s-1.0508,2.3418-2.3418,2.3418ZM20.3154,37.3945c-1.291,0-2.3418-1.0508-2.3418-2.3418s1.0508-2.3418,2.3418-2.3418c1.292,0,2.3428,1.0508,2.3428,2.3418s-1.0508,2.3418-2.3428,2.3418ZM12.9473,37.3945c-1.291,0-2.3418-1.0508-2.3418-2.3418s1.0508-2.3418,2.3418-2.3418,2.3418,1.0508,2.3418,2.3418-1.0508,2.3418-2.3418,2.3418ZM27.6846,30.9473c-1.7998,0-3.2637-1.4639-3.2637-3.2627,0-1.7998,1.4639-3.2637,3.2637-3.2637,1.7988,0,3.2627,1.4639,3.2627,3.2637,0,1.7988-1.4639,3.2627-3.2627,3.2627ZM20.3154,30.9473c-1.7988,0-3.2627-1.4639-3.2627-3.2627,0-1.7998,1.4639-3.2637,3.2627-3.2637,1.7998,0,3.2637,1.4639,3.2637,3.2637,0,1.7988-1.4639,3.2627-3.2637,3.2627ZM35.0527,30.0264c-1.291,0-2.3418-1.0508-2.3418-2.3418,0-1.292,1.0508-2.3428,2.3418-2.3428s2.3418,1.0508,2.3418,2.3428c0,1.291-1.0508,2.3418-2.3418,2.3418ZM12.9473,30.0264c-1.291,0-2.3418-1.0508-2.3418-2.3418,0-1.292,1.0508-2.3428,2.3418-2.3428s2.3418,1.0508,2.3418,2.3428c0,1.291-1.0508,2.3418-2.3418,2.3418ZM40.5791,29.1055c-.7969,0-1.4209-.624-1.4209-1.4209s.624-1.4219,1.4209-1.4219,1.4209.625,1.4209,1.4219-.624,1.4209-1.4209,1.4209ZM7.4209,29.1055c-.7969,0-1.4209-.624-1.4209-1.4209s.624-1.4219,1.4209-1.4219,1.4209.625,1.4209,1.4219-.624,1.4209-1.4209,1.4209ZM27.6846,23.5791c-1.7998,0-3.2637-1.4639-3.2637-3.2637,0-1.7988,1.4639-3.2627,3.2637-3.2627,1.7988,0,3.2627,1.4639,3.2627,3.2627,0,1.7998-1.4639,3.2637-3.2627,3.2637ZM20.3154,23.5791c-1.7988,0-3.2627-1.4639-3.2627-3.2637,0-1.7988,1.4639-3.2627,3.2627-3.2627,1.7998,0,3.2637,1.4639,3.2637,3.2627,0,1.7998-1.4639,3.2637-3.2637,3.2637ZM35.0527,22.6582c-1.291,0-2.3418-1.0508-2.3418-2.3428,0-1.291,1.0508-2.3418,2.3418-2.3418s2.3418,1.0508,2.3418,2.3418c0,1.292-1.0508,2.3428-2.3418,2.3428ZM12.9473,22.6582c-1.291,0-2.3418-1.0508-2.3418-2.3428,0-1.291,1.0508-2.3418,2.3418-2.3418s2.3418,1.0508,2.3418,2.3418c0,1.292-1.0508,2.3428-2.3418,2.3428ZM40.5791,21.7373c-.7969,0-1.4209-.625-1.4209-1.4219s.624-1.4209,1.4209-1.4209,1.4209.624,1.4209,1.4209-.624,1.4219-1.4209,1.4219ZM7.4209,21.7373c-.7969,0-1.4209-.625-1.4209-1.4219s.624-1.4209,1.4209-1.4209,1.4209.624,1.4209,1.4209-.624,1.4219-1.4209,1.4219ZM35.0527,15.2891c-1.291,0-2.3418-1.0508-2.3418-2.3418s1.0508-2.3418,2.3418-2.3418,2.3418,1.0508,2.3418,2.3418-1.0508,2.3418-2.3418,2.3418ZM27.6846,15.2891c-1.292,0-2.3428-1.0508-2.3428-2.3418s1.0508-2.3418,2.3428-2.3418c1.291,0,2.3418,1.0508,2.3418,2.3418s-1.0508,2.3418-2.3418,2.3418ZM20.3154,15.2891c-1.291,0-2.3418-1.0508-2.3418-2.3418s1.0508-2.3418,2.3418-2.3418c1.292,0,2.3428,1.0508,2.3428,2.3418s-1.0508,2.3418-2.3428,2.3418ZM12.9473,15.2891c-1.291,0-2.3418-1.0508-2.3418-2.3418s1.0508-2.3418,2.3418-2.3418,2.3418,1.0508,2.3418,2.3418-1.0508,2.3418-2.3418,2.3418ZM27.6846,8.8418c-.7969,0-1.4219-.624-1.4219-1.4209s.625-1.4209,1.4219-1.4209,1.4209.624,1.4209,1.4209-.624,1.4209-1.4209,1.4209ZM20.3154,8.8418c-.7969,0-1.4209-.624-1.4209-1.4209s.624-1.4209,1.4209-1.4209,1.4219.624,1.4219,1.4209-.625,1.4209-1.4219,1.4209Z"/><path class="uuid-fa2655a0-7cf8-4669-ad31-8ecff3cd3bb8" d="M12.9474,25.8421c-1.0132,0-1.8421.8289-1.8421,1.8421s.8289,1.8421,1.8421,1.8421,1.8421-.8289,1.8421-1.8421-.8289-1.8421-1.8421-1.8421ZM12.9474,33.2105c-1.0132,0-1.8421.8289-1.8421,1.8421s.8289,1.8421,1.8421,1.8421,1.8421-.8289,1.8421-1.8421-.8289-1.8421-1.8421-1.8421ZM12.9474,18.4737c-1.0132,0-1.8421.8289-1.8421,1.8421s.8289,1.8421,1.8421,1.8421,1.8421-.8289,1.8421-1.8421-.8289-1.8421-1.8421-1.8421ZM7.4211,19.3947c-.5158,0-.9211.4053-.9211.9211s.4053.9211.9211.9211.9211-.4053.9211-.9211-.4053-.9211-.9211-.9211ZM12.9474,11.1053c-1.0132,0-1.8421.8289-1.8421,1.8421s.8289,1.8421,1.8421,1.8421,1.8421-.8289,1.8421-1.8421-.8289-1.8421-1.8421-1.8421ZM40.5789,21.2368c.5158,0,.9211-.4053.9211-.9211s-.4053-.9211-.9211-.9211-.9211.4053-.9211.9211.4053.9211.9211.9211ZM27.6842,14.7895c1.0132,0,1.8421-.8289,1.8421-1.8421s-.8289-1.8421-1.8421-1.8421-1.8421.8289-1.8421,1.8421.8289,1.8421,1.8421,1.8421ZM27.6842,8.3421c.5158,0,.9211-.4053.9211-.9211s-.4053-.9211-.9211-.9211-.9211.4053-.9211.9211.4053.9211.9211.9211ZM7.4211,26.7632c-.5158,0-.9211.4053-.9211.9211s.4053.9211.9211.9211.9211-.4053.9211-.9211-.4053-.9211-.9211-.9211ZM20.3158,39.6579c-.5158,0-.9211.4053-.9211.9211s.4053.9211.9211.9211.9211-.4053.9211-.9211-.4053-.9211-.9211-.9211ZM20.3158,8.3421c.5158,0,.9211-.4053.9211-.9211s-.4053-.9211-.9211-.9211-.9211.4053-.9211.9211.4053.9211.9211.9211ZM20.3158,14.7895c1.0132,0,1.8421-.8289,1.8421-1.8421s-.8289-1.8421-1.8421-1.8421-1.8421.8289-1.8421,1.8421.8289,1.8421,1.8421,1.8421ZM20.3158,24.9211c-1.5289,0-2.7632,1.2342-2.7632,2.7632s1.2342,2.7632,2.7632,2.7632,2.7632-1.2342,2.7632-2.7632-1.2342-2.7632-2.7632-2.7632ZM35.0526,25.8421c-1.0132,0-1.8421.8289-1.8421,1.8421s.8289,1.8421,1.8421,1.8421,1.8421-.8289,1.8421-1.8421-.8289-1.8421-1.8421-1.8421ZM35.0526,33.2105c-1.0132,0-1.8421.8289-1.8421,1.8421s.8289,1.8421,1.8421,1.8421,1.8421-.8289,1.8421-1.8421-.8289-1.8421-1.8421-1.8421ZM35.0526,18.4737c-1.0132,0-1.8421.8289-1.8421,1.8421s.8289,1.8421,1.8421,1.8421,1.8421-.8289,1.8421-1.8421-.8289-1.8421-1.8421-1.8421ZM35.0526,11.1053c-1.0132,0-1.8421.8289-1.8421,1.8421s.8289,1.8421,1.8421,1.8421,1.8421-.8289,1.8421-1.8421-.8289-1.8421-1.8421-1.8421ZM40.5789,26.7632c-.5158,0-.9211.4053-.9211.9211s.4053.9211.9211.9211.9211-.4053.9211-.9211-.4053-.9211-.9211-.9211ZM27.6842,33.2105c-1.0132,0-1.8421.8289-1.8421,1.8421s.8289,1.8421,1.8421,1.8421,1.8421-.8289,1.8421-1.8421-.8289-1.8421-1.8421-1.8421ZM27.6842,39.6579c-.5158,0-.9211.4053-.9211.9211s.4053.9211.9211.9211.9211-.4053.9211-.9211-.4053-.9211-.9211-.9211ZM20.3158,17.5526c-1.5289,0-2.7632,1.2342-2.7632,2.7632s1.2342,2.7632,2.7632,2.7632,2.7632-1.2342,2.7632-2.7632-1.2342-2.7632-2.7632-2.7632ZM20.3158,33.2105c-1.0132,0-1.8421.8289-1.8421,1.8421s.8289,1.8421,1.8421,1.8421,1.8421-.8289,1.8421-1.8421-.8289-1.8421-1.8421-1.8421ZM27.6842,24.9211c-1.5289,0-2.7632,1.2342-2.7632,2.7632s1.2342,2.7632,2.7632,2.7632,2.7632-1.2342,2.7632-2.7632-1.2342-2.7632-2.7632-2.7632ZM27.6842,17.5526c-1.5289,0-2.7632,1.2342-2.7632,2.7632s1.2342,2.7632,2.7632,2.7632,2.7632-1.2342,2.7632-2.7632-1.2342-2.7632-2.7632-2.7632Z"/><path class="uuid-81352df6-8d53-4d92-aa3d-ec1a039b56a6" d="M24,38.49V4c-.3394,0-.6667.0325-1,.0505v39.899c.3333.018.6606.0505,1,.0505v-5.51Z"/><path class="uuid-ce087ca1-9c54-43c8-80ba-dd1a984ca50d" d="M24,38.49V4c-.1697,0-.3318.0204-.5.0252v39.9496c.1682.0048.3303.0252.5.0252v-5.51Z"/><path class="uuid-d659013f-df72-4286-b10f-fdc35d8534e6" d="M44,24c0,11.05-8.95,20-20,20V4c11.05,0,20,8.95,20,20Z"/><path class="uuid-0576b80f-8489-4d1e-8f4f-6c6db72cb515" d="M0,0h48v48H0V0Z"/></svg>