<?xml version="1.0" encoding="UTF-8"?><svg xmlns="http://www.w3.org/2000/svg" width="48" height="48" xmlns:xlink="http://www.w3.org/1999/xlink" viewBox="0 0 48 48"><defs><style>.uuid-208b611c-5786-4ca8-a893-0f9df1412040{fill:#229985;}.uuid-208b611c-5786-4ca8-a893-0f9df1412040,.uuid-6e025ca3-34fe-4797-9e93-d6bf385cf11a,.uuid-ee59b97a-1f03-4262-aada-5cd3c6d637a4,.uuid-fc95fb8e-88b5-4cb4-beaf-49b20f4c7dd7,.uuid-dd9539f2-6813-4770-a4f6-fc9494e5e558,.uuid-6828c252-083d-4924-8e9c-60635bf322a6,.uuid-a6bf1ed3-98a7-48ae-905d-182456ae2b35,.uuid-86646e32-2bd4-4b39-9863-096977062950,.uuid-217bc431-2afb-420b-89c5-cf06f2d21c08,.uuid-21aa0326-7a79-4cdf-b516-1550435310a9,.uuid-b3578f67-60a8-4b4b-aefc-3d83842ebaae,.uuid-a6322e6d-c318-48b5-b700-9f19b8774e68,.uuid-01d11c83-d5a2-478f-bf8e-5d8b61041cc9,.uuid-a9291adf-ebee-47bd-9f32-5b172ade519f,.uuid-11dec79d-5b3e-465b-af9d-a780879fb465,.uuid-ff5bfb9b-07ac-4d83-8505-f21ed20ae9b4,.uuid-31325c3d-585a-4189-8dce-7b434ce91d7e,.uuid-e1e3663d-c70c-4f4a-8f32-f6b2c208c68c,.uuid-a1fe34e9-8835-478b-be34-5281d4288179,.uuid-1ce7e671-b1d1-4c65-8916-9f2838905d9e,.uuid-896a4806-15ad-417f-aa13-1433371f0e2a,.uuid-f0685260-4e2b-4e0b-8fc1-60e78c5bc034,.uuid-138b76f6-ef2b-40cc-b83b-1031093830b0,.uuid-e6f6299e-6ee0-4479-bfe0-8ceac26cb3f1,.uuid-11da0fad-1959-43ae-8ebd-834d54ca2105,.uuid-9ee6de8c-4a8d-436b-aab0-b1f63dacdc37,.uuid-4e37cfff-a8e2-4f85-81ba-e17c4004b3d0,.uuid-34490bbe-dc4d-4be9-b8f2-5f0704f5bc51,.uuid-afdb9a65-3e40-4a28-bdf6-757e1a306f01,.uuid-cc685b11-fe09-4f6d-94b1-7502f0c3a8cc,.uuid-169248fb-2888-44ef-af91-a93407a03e9f,.uuid-245e3024-4602-49ad-a6db-95a5c687b0c8,.uuid-8fbc52c5-5b8d-41f6-a611-d3bab395f71b,.uuid-31810a2a-6557-41b4-be62-ee93f0084797,.uuid-abdf0a5f-3bac-418a-9338-5f91909585cd,.uuid-7c870033-b95b-4a4e-b6cf-0eafc2488e18,.uuid-0c75d77d-a8bb-45e9-be6f-58daa1e34def,.uuid-f91df919-abfd-4950-b179-c429bf53f2a3,.uuid-ffdef29c-0380-4aee-b286-aceb3ea117bc,.uuid-06f011c5-f182-46e8-9d8f-dd1641f12c43,.uuid-fa9495b4-9d77-4e00-bdbd-729f27724ad2,.uuid-48510a85-fcb0-4bcf-bc97-6b3ca84dca8a,.uuid-6dd51175-1d95-4ba4-a05d-a89ebda1e9fa,.uuid-b59015c3-5471-4356-9f5f-5085cd2a9f4e,.uuid-b42eb65e-e4e5-4f1d-a64b-33843f1b0f77,.uuid-7a980b24-ea3c-4c1b-b32a-59eb01b80c7f,.uuid-7850e4f4-68d0-4609-a935-8fc64d6e51d4,.uuid-7a417dcd-7031-4cb6-89a3-76cc004bda04,.uuid-30d67167-2cd9-4dab-b18b-aa7e8b93291e,.uuid-940d152f-26b9-43b8-8ff3-2235b43085a7,.uuid-8bd2b238-43d5-4f39-8e17-7e67af414636,.uuid-8c20df99-6eb4-4f82-bc4f-f6c913deaef2,.uuid-dd138103-62ab-439b-af47-eef1d50c3055,.uuid-895c1d44-75e4-4b6e-8faa-009cfa74e86f,.uuid-edbbbe56-8127-4581-8787-a90681aa7569,.uuid-da13d127-88d2-4a9b-93e6-64a52b3b0e36,.uuid-e2c3f8e2-6e37-4eff-a8a1-a34a4af8e6e0,.uuid-fdcae41e-71b1-4717-a6f2-7440cd453106,.uuid-7c099f5a-de9f-4f61-8e2b-c8673092d1d6,.uuid-6d4009b8-7644-4912-9b61-de76ffa3d428,.uuid-18b857dd-8a7b-4493-8e83-2cc2323d175a,.uuid-a6a9eb31-abde-4dd2-8cdb-a315dbea4d20,.uuid-f5022eff-891e-42cb-b7b3-da9a1f51585b,.uuid-db5805c8-f6e4-4ef1-b174-7f2bac5b278c,.uuid-11623751-9f08-4c11-bc41-56886768b24d,.uuid-5e41b8ef-741b-4c3f-9dcc-08e605b04e9d,.uuid-9d7af141-605d-41c7-9827-9b7a4db252fb,.uuid-3655c697-8e3b-49e2-9acc-bac39b55d70b,.uuid-5969181e-acea-4649-970c-e015b06f3285,.uuid-50317a4f-5fc3-48f9-836d-818d933d720d,.uuid-e4e445a3-c9ff-4ba1-bd62-15f08140a1eb{stroke-width:0px;}.uuid-6e025ca3-34fe-4797-9e93-d6bf385cf11a{fill:#35b3eb;}.uuid-ee59b97a-1f03-4262-aada-5cd3c6d637a4{fill:#38b4eb;}.uuid-fc95fb8e-88b5-4cb4-beaf-49b20f4c7dd7{fill:#35b1b7;}.uuid-dd9539f2-6813-4770-a4f6-fc9494e5e558{fill:#35b4b7;}.uuid-6828c252-083d-4924-8e9c-60635bf322a6{fill:#35b2b7;}.uuid-a6bf1ed3-98a7-48ae-905d-182456ae2b35{fill:#1aa6cf;}.uuid-86646e32-2bd4-4b39-9863-096977062950{fill:#22a092;}.uuid-217bc431-2afb-420b-89c5-cf06f2d21c08{fill:url(#uuid-41aa30d4-4535-4eb6-b1fb-02a727b42eac);}.uuid-21aa0326-7a79-4cdf-b516-1550435310a9{fill:#25adbe;}.uuid-b3578f67-60a8-4b4b-aefc-3d83842ebaae{fill:#1e9bce;}.uuid-a6322e6d-c318-48b5-b700-9f19b8774e68{fill:#1ea791;}.uuid-01d11c83-d5a2-478f-bf8e-5d8b61041cc9{fill:#22a48e;}.uuid-a9291adf-ebee-47bd-9f32-5b172ade519f{fill:#1ea09f;}.uuid-11dec79d-5b3e-465b-af9d-a780879fb465{fill:#2bbce0;}.uuid-bc28f2c3-4a0e-41de-84f9-ea43a0ca1d73{isolation:isolate;}.uuid-ff5bfb9b-07ac-4d83-8505-f21ed20ae9b4{opacity:.05;}.uuid-31325c3d-585a-4189-8dce-7b434ce91d7e{fill:#1e9f9f;}.uuid-e1e3663d-c70c-4f4a-8f32-f6b2c208c68c{fill:#1ea29b;}.uuid-a1fe34e9-8835-478b-be34-5281d4288179{fill:#2bbcee;}.uuid-896a4806-15ad-417f-aa13-1433371f0e2a{fill:#24b2eb;}.uuid-f0685260-4e2b-4e0b-8fc1-60e78c5bc034{fill:#47c1f1;}.uuid-138b76f6-ef2b-40cc-b83b-1031093830b0{fill:#17722a;}.uuid-e6f6299e-6ee0-4479-bfe0-8ceac26cb3f1{fill:#6cc4ee;}.uuid-11da0fad-1959-43ae-8ebd-834d54ca2105{fill:#5dcbf0;}.uuid-9ee6de8c-4a8d-436b-aab0-b1f63dacdc37{fill:#2db3c0;}.uuid-4e37cfff-a8e2-4f85-81ba-e17c4004b3d0{fill:#30b3e7;}.uuid-34490bbe-dc4d-4be9-b8f2-5f0704f5bc51{fill:#19a7e6;}.uuid-afdb9a65-3e40-4a28-bdf6-757e1a306f01{fill:#1ea1c5;}.uuid-cc685b11-fe09-4f6d-94b1-7502f0c3a8cc{fill:#43b1e8;}.uuid-169248fb-2888-44ef-af91-a93407a03e9f{fill:#25aba7;}.uuid-245e3024-4602-49ad-a6db-95a5c687b0c8{fill:#1caae7;}.uuid-8fbc52c5-5b8d-41f6-a611-d3bab395f71b{fill:#27b8ed;}.uuid-31810a2a-6557-41b4-be62-ee93f0084797{fill:#1ea4a4;}.uuid-abdf0a5f-3bac-418a-9338-5f91909585cd{fill:#35b5b7;}.uuid-7c870033-b95b-4a4e-b6cf-0eafc2488e18{fill:#fff;}.uuid-0c75d77d-a8bb-45e9-be6f-58daa1e34def{fill:#27b9ed;}.uuid-f91df919-abfd-4950-b179-c429bf53f2a3{fill:#27b6ed;}.uuid-ffdef29c-0380-4aee-b286-aceb3ea117bc{fill:#28ad5e;}.uuid-06f011c5-f182-46e8-9d8f-dd1641f12c43{fill:#1e9b2f;}.uuid-fa9495b4-9d77-4e00-bdbd-729f27724ad2{fill:#228d2e;}.uuid-48510a85-fcb0-4bcf-bc97-6b3ca84dca8a{fill:#22a380;}.uuid-6dd51175-1d95-4ba4-a05d-a89ebda1e9fa{fill:#96d5f3;}.uuid-b59015c3-5471-4356-9f5f-5085cd2a9f4e{fill:#25acc6;}.uuid-b42eb65e-e4e5-4f1d-a64b-33843f1b0f77{fill:#15a4e5;}.uuid-7a980b24-ea3c-4c1b-b32a-59eb01b80c7f{fill:#c0e1f5;}.uuid-7850e4f4-68d0-4609-a935-8fc64d6e51d4{fill:#22a885;}.uuid-7a417dcd-7031-4cb6-89a3-76cc004bda04{fill:#22a592;}.uuid-30d67167-2cd9-4dab-b18b-aa7e8b93291e{fill:#2bbae0;}.uuid-940d152f-26b9-43b8-8ff3-2235b43085a7{fill:#1aaee7;}.uuid-8bd2b238-43d5-4f39-8e17-7e67af414636{fill:#1a92cc;}.uuid-8c20df99-6eb4-4f82-bc4f-f6c913deaef2{fill:#1e9b9f;}.uuid-dd138103-62ab-439b-af47-eef1d50c3055{fill:#1ea49b;}.uuid-895c1d44-75e4-4b6e-8faa-009cfa74e86f{fill:#25b6ee;}.uuid-edbbbe56-8127-4581-8787-a90681aa7569{fill:#1faee9;}.uuid-da13d127-88d2-4a9b-93e6-64a52b3b0e36{fill:#cae3f7;}.uuid-e2c3f8e2-6e37-4eff-a8a1-a34a4af8e6e0{fill:#27b7ed;}.uuid-fdcae41e-71b1-4717-a6f2-7440cd453106{fill:#38b5eb;}.uuid-7c099f5a-de9f-4f61-8e2b-c8673092d1d6{fill:#188778;}.uuid-6d4009b8-7644-4912-9b61-de76ffa3d428{fill:#25a981;}.uuid-18b857dd-8a7b-4493-8e83-2cc2323d175a{fill:#27b5ed;}.uuid-a6a9eb31-abde-4dd2-8cdb-a315dbea4d20{fill:#1aaae7;}.uuid-f5022eff-891e-42cb-b7b3-da9a1f51585b{fill:#1e9ba4;}.uuid-db5805c8-f6e4-4ef1-b174-7f2bac5b278c{fill:#2bbaeb;}.uuid-11623751-9f08-4c11-bc41-56886768b24d{fill:#22a38e;}.uuid-5e41b8ef-741b-4c3f-9dcc-08e605b04e9d{fill:#209e00;}.uuid-9d7af141-605d-41c7-9827-9b7a4db252fb{opacity:.07;}.uuid-3655c697-8e3b-49e2-9acc-bac39b55d70b{fill:url(#uuid-7a8a8c52-2d83-4dd9-8be5-885046942e76);mix-blend-mode:lighten;opacity:.75;}.uuid-5969181e-acea-4649-970c-e015b06f3285{fill:#29b5eb;}.uuid-50317a4f-5fc3-48f9-836d-818d933d720d{fill:#1aace4;}.uuid-e4e445a3-c9ff-4ba1-bd62-15f08140a1eb{fill:#f99519;}</style><linearGradient id="uuid-7a8a8c52-2d83-4dd9-8be5-885046942e76" x1="4" y1="24" x2="44" y2="24" gradientUnits="userSpaceOnUse"><stop offset="0" stop-color="#32bdef"/><stop offset="1" stop-color="#1ea2e4"/></linearGradient><radialGradient id="uuid-41aa30d4-4535-4eb6-b1fb-02a727b42eac" cx="13.2593" cy="11.8519" fx="13.2593" fy="11.8519" r="27.1154" gradientUnits="userSpaceOnUse"><stop offset="0" stop-color="#fafafb"/><stop offset=".293" stop-color="#f6f7f8"/><stop offset=".566" stop-color="#ebecee"/><stop offset=".832" stop-color="#d8dcdf"/><stop offset="1" stop-color="#c8cdd1"/></radialGradient></defs><g class="uuid-bc28f2c3-4a0e-41de-84f9-ea43a0ca1d73"><g id="uuid-84eda7d6-36ec-4536-8671-730cb7533f76"><path class="uuid-e4e445a3-c9ff-4ba1-bd62-15f08140a1eb" d="M22.0711,4.0974c-.0535.0051-.1077.0071-.1611.0126h0c-.5345.0563-1.0568.1408-1.5751.2402-.2184.0405-.436.0817-.6518.1292-.001.0002-.0021.0004-.0031.0006-.4796.0946-.9479.2231-1.4124.3632-.141.0421-.2811.0853-.4208.1304-.0818.0267-.1652.0489-.2468.0765-.05.02-.1.03-.15.05-.3936.1329-.7791.2822-1.1583.4424-.1156.0483-.2264.1047-.3409.1551-.2448.1089-.4908.2158-.7308.3325-.1427.0695-.2778.1482-.4178.2206-.1794.0931-.3593.1844-.5355.2828-.3781.2114-.7491.4357-1.1131.6761-.2725.1763-.5369.3618-.8.5508-.2569.1833-.5105.3702-.7586.5671-.2198.1743-.4345.3533-.6468.5365-.0615.0537-.1274.1014-.1882.1561-.18.15-.36.32-.53.4901-.0276.0253-.0525.0536-.0799.0792-.1752.1685-.3481.3381-.5171.5128-.2932.2987-.5748.6084-.8447.9295-.123.1442-.246.2876-.365.4353-.0726.0903-.1466.1799-.2133.2733-.1318.1671-.249.3419-.3742.5125-.3229.4436-.6255.9009-.9118,1.3711-.0695.1166-.1472.228-.214.3464-.0162.0259-.0283.053-.0443.0789-.4294.7466-.8199,1.5172-1.1518,2.3207-.1925.4614-.362.9348-.5173,1.4141-.0505.1544-.1016.308-.1484.4641-.0182.0612-.0405.121-.0583.1823-.1257.4372-.2324.8801-.3295,1.3266-.0335.1552-.0635.3112-.0934.4677-.0281.1456-.0619.2887-.087.4357-.0383.2142-.0508.4423-.0803.6617-.0405.3025-.0836.6035-.1105.9101-.0042.0538-.0156.1042-.0192.1582-.02.16-.03.33-.03.5-.03.37-.04.74-.04,1.11s.01.74.04,1.11c0,.17.01.34.03.5.0037.054.0151.1044.0192.1582.0269.3067.0699.6077.1105.9102.0295.2194.0421.4474.0803.6616.0251.1469.0588.2899.087.4354.03.1567.0599.3129.0935.4683.097.4465.2037.8892.3295,1.3264.0178.0613.04.1211.0583.1823.0468.1562.098.3098.1484.4644.1552.4792.3246.9523.5172,1.4136.3319.8037.7227,1.5746,1.1523,2.3215.0158.0257.0278.0525.0439.0782.0663.1176.1434.2282.2125.3439.2867.4711.5898.9292.9133,1.3736.1252.1706.2424.3454.3742.5125.0664.093.1402.1823.2126.2723.1194.1483.2429.2923.3664.4371.2697.3208.551.6302.844.9286.169.1747.3419.3443.5171.5128.0274.0255.0523.0538.0799.0792.17.17.35.34.53.49.0605.0544.1263.1021.1876.1556.2125.1834.4274.3627.6476.5372.248.1969.5016.3838.7584.567.2643.1899.5302.3762.8041.5533.3627.2393.7323.4628,1.1089.6735.1765.0985.3567.1901.5364.2833.1398.0723.2745.1508.4169.2202.2397.1166.4855.2234.73.3322.1147.0505.2258.1071.3417.1555.3793.1603.7647.3095,1.1583.4424.05.02.1.03.15.05.0815.0276.1649.0498.2468.0765.1398.0451.2798.0883.4208.1304.4645.1401.9328.2686,1.4124.3631.0007.0002.0014.0002.0021.0004.2164.0477.4344.0889.6534.1295.5181.0993,1.0402.1838,1.5745.2401h0c.0534.0056.1077.0076.1611.0126.6299.0602,1.2742.0974,1.9289.0974V4c-.6547,0-1.299.0371-1.9289.0974Z"/><path class="uuid-21aa0326-7a79-4cdf-b516-1550435310a9" d="M24,4v40c-11.05,0-20-8.95-20-20S12.95,4,24,4Z"/><path class="uuid-5969181e-acea-4649-970c-e015b06f3285" d="M24,4v1.05h-2.09v-.94c.6801-.07,1.38-.11,2.09-.11Z"/><path class="uuid-fc95fb8e-88b5-4cb4-beaf-49b20f4c7dd7" d="M21.91,4.11v.94h-2.23v-.57c.73-.17,1.47-.29,2.23-.37Z"/><path class="uuid-21aa0326-7a79-4cdf-b516-1550435310a9" d="M19.68,4.48v.57h-2.08c.6801-.23,1.37-.43,2.08-.57Z"/><rect class="uuid-7c870033-b95b-4a4e-b6cf-0eafc2488e18" x="21.91" y="5.05" width="2.09" height="2.23"/><rect class="uuid-6dd51175-1d95-4ba4-a05d-a89ebda1e9fa" x="19.68" y="5.05" width="2.23" height="2.23"/><path class="uuid-8c20df99-6eb4-4f82-bc4f-f6c913deaef2" d="M19.68,5.05v2.23h-2.23v-2.18c.05-.02.1-.03.15-.05h2.08Z"/><path class="uuid-fc95fb8e-88b5-4cb4-beaf-49b20f4c7dd7" d="M17.45,5.1v2.18h-2.23v-1.25c.72-.35,1.46-.67,2.23-.93Z"/><path class="uuid-fc95fb8e-88b5-4cb4-beaf-49b20f4c7dd7" d="M15.22,6.03v1.25h-2.18c.7-.47,1.42-.88,2.18-1.25Z"/><path class="uuid-f5022eff-891e-42cb-b7b3-da9a1f51585b" d="M15.22,7.28v2.23h-2.23v-2.2c.01-.02.03-.03.05-.03h2.18Z"/><rect class="uuid-fa9495b4-9d77-4e00-bdbd-729f27724ad2" x="15.22" y="7.28" width="2.23" height="2.23"/><rect class="uuid-7c870033-b95b-4a4e-b6cf-0eafc2488e18" x="17.45" y="7.28" width="2.23" height="2.23"/><rect class="uuid-1ce7e671-b1d1-4c65-8916-9f2838905d9e" x="19.68" y="7.28" width="2.23" height="2.23"/><rect class="uuid-06f011c5-f182-46e8-9d8f-dd1641f12c43" x="21.91" y="7.28" width="2.09" height="2.23"/><path class="uuid-a6bf1ed3-98a7-48ae-905d-182456ae2b35" d="M12.99,7.31v2.2h-2.23v-.4901c.7-.6299,1.45-1.2,2.23-1.71Z"/><path class="uuid-21aa0326-7a79-4cdf-b516-1550435310a9" d="M8.53,11.33v.41h-.32c.1-.14.21-.28.32-.41Z"/><path class="uuid-8fbc52c5-5b8d-41f6-a611-d3bab395f71b" d="M10.76,9.51v2.23h-2.23v-.41c.52-.65,1.09-1.2599,1.7-1.8199h.53Z"/><path class="uuid-21aa0326-7a79-4cdf-b516-1550435310a9" d="M10.76,9.02v.4901h-.53c.17-.17.35-.34.53-.4901Z"/><rect class="uuid-21aa0326-7a79-4cdf-b516-1550435310a9" x="10.76" y="9.51" width="2.23" height="2.23"/><rect class="uuid-7c870033-b95b-4a4e-b6cf-0eafc2488e18" x="12.99" y="9.51" width="2.23" height="2.23"/><rect class="uuid-1ce7e671-b1d1-4c65-8916-9f2838905d9e" x="15.22" y="9.51" width="2.23" height="2.23"/><rect class="uuid-86646e32-2bd4-4b39-9863-096977062950" x="17.45" y="9.51" width="2.23" height="2.23"/><rect class="uuid-7850e4f4-68d0-4609-a935-8fc64d6e51d4" x="19.68" y="9.51" width="2.23" height="2.23"/><rect class="uuid-e1e3663d-c70c-4f4a-8f32-f6b2c208c68c" x="21.91" y="9.51" width="2.09" height="2.23"/><rect class="uuid-0c75d77d-a8bb-45e9-be6f-58daa1e34def" x="21.91" y="11.74" width="2.09" height="2.23"/><rect class="uuid-7a980b24-ea3c-4c1b-b32a-59eb01b80c7f" x="19.68" y="11.74" width="2.23" height="2.23"/><rect class="uuid-ee59b97a-1f03-4262-aada-5cd3c6d637a4" x="17.45" y="11.74" width="2.23" height="2.23"/><rect class="uuid-11623751-9f08-4c11-bc41-56886768b24d" x="15.22" y="11.74" width="2.23" height="2.23"/><rect class="uuid-21aa0326-7a79-4cdf-b516-1550435310a9" x="12.99" y="11.74" width="2.23" height="2.23"/><rect class="uuid-7c870033-b95b-4a4e-b6cf-0eafc2488e18" x="10.76" y="11.74" width="2.23" height="2.23"/><rect class="uuid-896a4806-15ad-417f-aa13-1433371f0e2a" x="8.53" y="11.74" width="2.23" height="2.23"/><path class="uuid-21aa0326-7a79-4cdf-b516-1550435310a9" d="M8.53,11.74v2.23h-1.82c.44-.78.94-1.52,1.5-2.23h.32Z"/><path class="uuid-21aa0326-7a79-4cdf-b516-1550435310a9" d="M6.3,14.7v1.5h-.72c.22-.51.46-1.01.72-1.5Z"/><path class="uuid-7850e4f4-68d0-4609-a935-8fc64d6e51d4" d="M8.53,13.97v2.23h-2.23v-1.5c.12-.25.26-.4901.41-.73h1.82Z"/><rect class="uuid-fdcae41e-71b1-4717-a6f2-7440cd453106" x="8.53" y="13.97" width="2.23" height="2.23"/><rect class="uuid-6828c252-083d-4924-8e9c-60635bf322a6" x="10.76" y="13.97" width="2.23" height="2.23"/><rect class="uuid-da13d127-88d2-4a9b-93e6-64a52b3b0e36" x="12.99" y="13.97" width="2.23" height="2.23"/><rect class="uuid-86646e32-2bd4-4b39-9863-096977062950" x="15.22" y="13.97" width="2.23" height="2.23"/><rect class="uuid-6e025ca3-34fe-4797-9e93-d6bf385cf11a" x="17.45" y="13.97" width="2.23" height="2.23"/><rect class="uuid-21aa0326-7a79-4cdf-b516-1550435310a9" x="19.68" y="13.97" width="2.23" height="2.23"/><rect class="uuid-31325c3d-585a-4189-8dce-7b434ce91d7e" x="21.91" y="13.97" width="2.09" height="2.23"/><rect class="uuid-dd138103-62ab-439b-af47-eef1d50c3055" x="21.91" y="16.2" width="2.09" height="2.23"/><rect class="uuid-8fbc52c5-5b8d-41f6-a611-d3bab395f71b" x="19.68" y="16.2" width="2.23" height="2.23"/><rect class="uuid-245e3024-4602-49ad-a6db-95a5c687b0c8" x="17.45" y="16.2" width="2.23" height="2.23"/><rect class="uuid-a6a9eb31-abde-4dd2-8cdb-a315dbea4d20" x="15.22" y="16.2" width="2.23" height="2.23"/><rect class="uuid-b42eb65e-e4e5-4f1d-a64b-33843f1b0f77" x="12.99" y="16.2" width="2.23" height="2.23"/><rect class="uuid-896a4806-15ad-417f-aa13-1433371f0e2a" x="10.76" y="16.2" width="2.23" height="2.23"/><rect class="uuid-01d11c83-d5a2-478f-bf8e-5d8b61041cc9" x="8.53" y="16.2" width="2.23" height="2.23"/><rect class="uuid-dd9539f2-6813-4770-a4f6-fc9494e5e558" x="6.3" y="16.2" width="2.23" height="2.23"/><path class="uuid-fc95fb8e-88b5-4cb4-beaf-49b20f4c7dd7" d="M6.3,16.2v2.23h-1.51c.22-.76.48-1.51.79-2.23h.72Z"/><path class="uuid-fc95fb8e-88b5-4cb4-beaf-49b20f4c7dd7" d="M6.3,18.43v2.23h-2.02c.1299-.76.3-1.5.5099-2.23h1.51Z"/><rect class="uuid-31325c3d-585a-4189-8dce-7b434ce91d7e" x="6.3" y="18.43" width="2.23" height="2.23"/><rect class="uuid-21aa0326-7a79-4cdf-b516-1550435310a9" x="8.53" y="18.43" width="2.23" height="2.23"/><rect class="uuid-e1e3663d-c70c-4f4a-8f32-f6b2c208c68c" x="10.76" y="18.43" width="2.23" height="2.23"/><rect class="uuid-f0685260-4e2b-4e0b-8fc1-60e78c5bc034" x="12.99" y="18.43" width="2.23" height="2.23"/><rect class="uuid-a6a9eb31-abde-4dd2-8cdb-a315dbea4d20" x="15.22" y="18.43" width="2.23" height="2.23"/><rect class="uuid-21aa0326-7a79-4cdf-b516-1550435310a9" x="17.45" y="18.43" width="2.23" height="2.23"/><rect class="uuid-ee59b97a-1f03-4262-aada-5cd3c6d637a4" x="19.68" y="18.43" width="2.23" height="2.23"/><rect class="uuid-06f011c5-f182-46e8-9d8f-dd1641f12c43" x="21.91" y="18.43" width="2.09" height="2.23"/><rect class="uuid-21aa0326-7a79-4cdf-b516-1550435310a9" x="21.91" y="20.66" width="2.09" height="2.23"/><rect class="uuid-169248fb-2888-44ef-af91-a93407a03e9f" x="19.68" y="20.66" width="2.23" height="2.23"/><rect class="uuid-f91df919-abfd-4950-b179-c429bf53f2a3" x="17.45" y="20.66" width="2.23" height="2.23"/><rect class="uuid-21aa0326-7a79-4cdf-b516-1550435310a9" x="15.22" y="20.66" width="2.23" height="2.23"/><rect class="uuid-21aa0326-7a79-4cdf-b516-1550435310a9" x="12.99" y="20.66" width="2.23" height="2.23"/><rect class="uuid-1ce7e671-b1d1-4c65-8916-9f2838905d9e" x="10.76" y="20.66" width="2.23" height="2.23"/><rect class="uuid-7c870033-b95b-4a4e-b6cf-0eafc2488e18" x="8.53" y="20.66" width="2.23" height="2.23"/><rect class="uuid-4e37cfff-a8e2-4f85-81ba-e17c4004b3d0" x="6.3" y="20.66" width="2.23" height="2.23"/><path class="uuid-7c099f5a-de9f-4f61-8e2b-c8673092d1d6" d="M6.3,20.66v2.23h-2.23v-.5c.04-.59.11-1.17.21-1.73h2.02Z"/><rect class="uuid-86646e32-2bd4-4b39-9863-096977062950" x="4.07" y="22.89" width="2.23" height="2.22"/><rect class="uuid-01d11c83-d5a2-478f-bf8e-5d8b61041cc9" x="6.3" y="22.89" width="2.23" height="2.22"/><rect class="uuid-21aa0326-7a79-4cdf-b516-1550435310a9" x="8.53" y="22.89" width="2.23" height="2.22"/><rect class="uuid-21aa0326-7a79-4cdf-b516-1550435310a9" x="10.76" y="22.89" width="2.23" height="2.22"/><rect class="uuid-b42eb65e-e4e5-4f1d-a64b-33843f1b0f77" x="12.99" y="22.89" width="2.23" height="2.22"/><rect class="uuid-a6322e6d-c318-48b5-b700-9f19b8774e68" x="15.22" y="22.89" width="2.23" height="2.22"/><rect class="uuid-db5805c8-f6e4-4ef1-b174-7f2bac5b278c" x="17.45" y="22.89" width="2.23" height="2.22"/><rect class="uuid-208b611c-5786-4ca8-a893-0f9df1412040" x="19.68" y="22.89" width="2.23" height="2.22"/><rect class="uuid-a1fe34e9-8835-478b-be34-5281d4288179" x="21.91" y="22.89" width="2.09" height="2.22"/><rect class="uuid-48510a85-fcb0-4bcf-bc97-6b3ca84dca8a" x="21.91" y="25.11" width="2.09" height="2.23"/><rect class="uuid-ffdef29c-0380-4aee-b286-aceb3ea117bc" x="19.68" y="25.11" width="2.23" height="2.23"/><rect class="uuid-21aa0326-7a79-4cdf-b516-1550435310a9" x="17.45" y="25.11" width="2.23" height="2.23"/><rect class="uuid-11dec79d-5b3e-465b-af9d-a780879fb465" x="15.22" y="25.11" width="2.23" height="2.23"/><rect class="uuid-34490bbe-dc4d-4be9-b8f2-5f0704f5bc51" x="12.99" y="25.11" width="2.23" height="2.23"/><rect class="uuid-21aa0326-7a79-4cdf-b516-1550435310a9" x="10.76" y="25.11" width="2.23" height="2.23"/><rect class="uuid-940d152f-26b9-43b8-8ff3-2235b43085a7" x="8.53" y="25.11" width="2.23" height="2.23"/><rect class="uuid-1ce7e671-b1d1-4c65-8916-9f2838905d9e" x="6.3" y="25.11" width="2.23" height="2.23"/><path class="uuid-86646e32-2bd4-4b39-9863-096977062950" d="M6.3,25.11v2.23h-2.02c-.1-.56-.17-1.14-.21-1.73v-.5h2.23Z"/><path class="uuid-21aa0326-7a79-4cdf-b516-1550435310a9" d="M4.04,22.89c0-.17.01-.34.03-.5v3.22c-.02-.16-.03-.33-.03-.5-.03-.37-.04-.74-.04-1.11s.01-.74.04-1.11Z"/><path class="uuid-21aa0326-7a79-4cdf-b516-1550435310a9" d="M6.3,27.34v2.23h-1.51c-.21-.73-.38-1.47-.5099-2.23h2.02Z"/><rect class="uuid-18b857dd-8a7b-4493-8e83-2cc2323d175a" x="6.3" y="27.34" width="2.23" height="2.23"/><rect class="uuid-21aa0326-7a79-4cdf-b516-1550435310a9" x="8.53" y="27.34" width="2.23" height="2.23"/><rect class="uuid-dd9539f2-6813-4770-a4f6-fc9494e5e558" x="10.76" y="27.34" width="2.23" height="2.23"/><rect class="uuid-e2c3f8e2-6e37-4eff-a8a1-a34a4af8e6e0" x="12.99" y="27.34" width="2.23" height="2.23"/><rect class="uuid-21aa0326-7a79-4cdf-b516-1550435310a9" x="15.22" y="27.34" width="2.23" height="2.23"/><rect class="uuid-a9291adf-ebee-47bd-9f32-5b172ade519f" x="17.45" y="27.34" width="2.23" height="2.23"/><rect class="uuid-fc95fb8e-88b5-4cb4-beaf-49b20f4c7dd7" x="19.68" y="27.34" width="2.23" height="2.23"/><rect class="uuid-db5805c8-f6e4-4ef1-b174-7f2bac5b278c" x="21.91" y="27.34" width="2.09" height="2.23"/><rect class="uuid-21aa0326-7a79-4cdf-b516-1550435310a9" x="21.91" y="29.57" width="2.09" height="2.23"/><rect class="uuid-dd9539f2-6813-4770-a4f6-fc9494e5e558" x="19.68" y="29.57" width="2.23" height="2.23"/><rect class="uuid-21aa0326-7a79-4cdf-b516-1550435310a9" x="17.45" y="29.57" width="2.23" height="2.23"/><rect class="uuid-11da0fad-1959-43ae-8ebd-834d54ca2105" x="15.22" y="29.57" width="2.23" height="2.23"/><rect class="uuid-7a417dcd-7031-4cb6-89a3-76cc004bda04" x="12.99" y="29.57" width="2.23" height="2.23"/><rect class="uuid-21aa0326-7a79-4cdf-b516-1550435310a9" x="10.76" y="29.57" width="2.23" height="2.23"/><rect class="uuid-18b857dd-8a7b-4493-8e83-2cc2323d175a" x="8.53" y="29.57" width="2.23" height="2.23"/><rect class="uuid-21aa0326-7a79-4cdf-b516-1550435310a9" x="6.3" y="29.57" width="2.23" height="2.23"/><path class="uuid-dd9539f2-6813-4770-a4f6-fc9494e5e558" d="M6.3,29.57v2.23h-.72c-.31-.72-.57-1.47-.79-2.23h1.51Z"/><rect class="uuid-7850e4f4-68d0-4609-a935-8fc64d6e51d4" x="21.91" y="31.8" width="2.09" height="2.23"/><rect class="uuid-245e3024-4602-49ad-a6db-95a5c687b0c8" x="19.68" y="31.8" width="2.23" height="2.23"/><rect class="uuid-50317a4f-5fc3-48f9-836d-818d933d720d" x="17.45" y="31.8" width="2.23" height="2.23"/><rect class="uuid-18b857dd-8a7b-4493-8e83-2cc2323d175a" x="15.22" y="31.8" width="2.23" height="2.23"/><rect class="uuid-5e41b8ef-741b-4c3f-9dcc-08e605b04e9d" x="12.99" y="31.8" width="2.23" height="2.23"/><rect class="uuid-21aa0326-7a79-4cdf-b516-1550435310a9" x="10.76" y="31.8" width="2.23" height="2.23"/><rect class="uuid-7a980b24-ea3c-4c1b-b32a-59eb01b80c7f" x="8.53" y="31.8" width="2.23" height="2.23"/><path class="uuid-afdb9a65-3e40-4a28-bdf6-757e1a306f01" d="M8.53,31.8v2.23h-1.82c-.15-.24-.29-.48-.41-.73v-1.5h2.23Z"/><path class="uuid-b3578f67-60a8-4b4b-aefc-3d83842ebaae" d="M6.3,31.8v1.5c-.26-.49-.5-.99-.72-1.5h.72Z"/><rect class="uuid-895c1d44-75e4-4b6e-8faa-009cfa74e86f" x="21.91" y="34.03" width="2.09" height="2.23"/><rect class="uuid-30d67167-2cd9-4dab-b18b-aa7e8b93291e" x="19.68" y="34.03" width="2.23" height="2.23"/><rect class="uuid-7c870033-b95b-4a4e-b6cf-0eafc2488e18" x="17.45" y="34.03" width="2.23" height="2.23"/><rect class="uuid-8fbc52c5-5b8d-41f6-a611-d3bab395f71b" x="15.22" y="34.03" width="2.23" height="2.23"/><rect class="uuid-21aa0326-7a79-4cdf-b516-1550435310a9" x="12.99" y="34.03" width="2.23" height="2.23"/><rect class="uuid-18b857dd-8a7b-4493-8e83-2cc2323d175a" x="10.76" y="34.03" width="2.23" height="2.23"/><rect class="uuid-21aa0326-7a79-4cdf-b516-1550435310a9" x="8.53" y="34.03" width="2.23" height="2.23"/><path class="uuid-48510a85-fcb0-4bcf-bc97-6b3ca84dca8a" d="M8.53,34.03v2.23h-.32c-.56-.71-1.06-1.45-1.5-2.23h1.82Z"/><path class="uuid-9ee6de8c-4a8d-436b-aab0-b1f63dacdc37" d="M10.76,36.26v2.23h-.53c-.61-.56-1.18-1.17-1.7-1.82v-.41h2.23Z"/><path class="uuid-21aa0326-7a79-4cdf-b516-1550435310a9" d="M8.21,36.26h.32v.41c-.11-.13-.22-.27-.32-.41Z"/><rect class="uuid-21aa0326-7a79-4cdf-b516-1550435310a9" x="10.76" y="36.26" width="2.23" height="2.23"/><rect class="uuid-f5022eff-891e-42cb-b7b3-da9a1f51585b" x="12.99" y="36.26" width="2.23" height="2.23"/><rect class="uuid-7850e4f4-68d0-4609-a935-8fc64d6e51d4" x="15.22" y="36.26" width="2.23" height="2.23"/><rect class="uuid-7c870033-b95b-4a4e-b6cf-0eafc2488e18" x="17.45" y="36.26" width="2.23" height="2.23"/><rect class="uuid-b59015c3-5471-4356-9f5f-5085cd2a9f4e" x="21.91" y="36.26" width="2.09" height="2.23"/><rect class="uuid-7850e4f4-68d0-4609-a935-8fc64d6e51d4" x="19.68" y="36.26" width="2.23" height="2.23"/><rect class="uuid-21aa0326-7a79-4cdf-b516-1550435310a9" x="21.91" y="38.49" width="2.09" height="2.23"/><rect class="uuid-cc685b11-fe09-4f6d-94b1-7502f0c3a8cc" x="19.68" y="38.49" width="2.23" height="2.23"/><rect class="uuid-edbbbe56-8127-4581-8787-a90681aa7569" x="17.45" y="38.49" width="2.23" height="2.23"/><rect class="uuid-21aa0326-7a79-4cdf-b516-1550435310a9" x="15.22" y="38.49" width="2.23" height="2.23"/><path class="uuid-6d4009b8-7644-4912-9b61-de76ffa3d428" d="M15.22,38.49v2.23h-2.18c-.02,0-.04-.01-.05-.03v-2.2h2.23Z"/><path class="uuid-31810a2a-6557-41b4-be62-ee93f0084797" d="M12.99,38.49v2.2c-.78-.51-1.53-1.08-2.23-1.71v-.49h2.23Z"/><path class="uuid-21aa0326-7a79-4cdf-b516-1550435310a9" d="M10.76,38.49v.49c-.18-.15-.36-.32-.53-.49h.53Z"/><path class="uuid-fc95fb8e-88b5-4cb4-beaf-49b20f4c7dd7" d="M15.22,40.72v1.25c-.7599-.37-1.48-.78-2.18-1.25h2.18Z"/><path class="uuid-abdf0a5f-3bac-418a-9338-5f91909585cd" d="M17.45,40.72v2.18c-.77-.2599-1.51-.58-2.23-.93v-1.25h2.23Z"/><path class="uuid-7c870033-b95b-4a4e-b6cf-0eafc2488e18" d="M19.68,40.72v2.23h-2.08c-.05-.02-.1-.03-.15-.05v-2.18h2.23Z"/><rect class="uuid-21aa0326-7a79-4cdf-b516-1550435310a9" x="19.68" y="40.72" width="2.23" height="2.23"/><rect class="uuid-8bd2b238-43d5-4f39-8e17-7e67af414636" x="21.91" y="40.72" width="2.09" height="2.23"/><path class="uuid-138b76f6-ef2b-40cc-b83b-1031093830b0" d="M24,42.95v1.05c-.71,0-1.41-.04-2.09-.11v-.94h2.09Z"/><path class="uuid-e6f6299e-6ee0-4479-bfe0-8ceac26cb3f1" d="M21.91,42.95v.94c-.7599-.08-1.5-.2-2.23-.3701v-.5699h2.23Z"/><path class="uuid-21aa0326-7a79-4cdf-b516-1550435310a9" d="M19.68,42.95v.5699c-.71-.14-1.4-.34-2.08-.5699h2.08Z"/><path class="uuid-21aa0326-7a79-4cdf-b516-1550435310a9" d="M24,44V4c11.05,0,20,8.95,20,20s-8.95,20-20,20Z"/><path class="uuid-5969181e-acea-4649-970c-e015b06f3285" d="M24,44v-1.05s2.09,0,2.09,0v.94c-.6801.07-1.38.11-2.09.11Z"/><path class="uuid-fc95fb8e-88b5-4cb4-beaf-49b20f4c7dd7" d="M26.09,43.89v-.94s2.23,0,2.23,0v.57c-.73.17-1.47.29-2.23.37Z"/><path class="uuid-21aa0326-7a79-4cdf-b516-1550435310a9" d="M28.32,43.52v-.57s2.08,0,2.08,0c-.6801.23-1.37.43-2.08.57Z"/><rect class="uuid-7c870033-b95b-4a4e-b6cf-0eafc2488e18" x="24" y="40.72" width="2.09" height="2.23"/><rect class="uuid-6dd51175-1d95-4ba4-a05d-a89ebda1e9fa" x="26.09" y="40.72" width="2.23" height="2.23"/><path class="uuid-8c20df99-6eb4-4f82-bc4f-f6c913deaef2" d="M28.32,42.95v-2.23s2.23,0,2.23,0v2.18c-.05.02-.1.03-.15.05h-2.08Z"/><path class="uuid-fc95fb8e-88b5-4cb4-beaf-49b20f4c7dd7" d="M30.55,42.9v-2.18s2.23,0,2.23,0v1.25c-.72.35-1.46.67-2.23.93Z"/><path class="uuid-fc95fb8e-88b5-4cb4-beaf-49b20f4c7dd7" d="M32.78,41.97v-1.25s2.18,0,2.18,0c-.7.47-1.42.88-2.18,1.25Z"/><path class="uuid-f5022eff-891e-42cb-b7b3-da9a1f51585b" d="M32.78,40.72v-2.23s2.23,0,2.23,0v2.2c-.01.02-.03.03-.05.03h-2.18Z"/><rect class="uuid-fa9495b4-9d77-4e00-bdbd-729f27724ad2" x="30.55" y="38.49" width="2.23" height="2.23"/><rect class="uuid-7c870033-b95b-4a4e-b6cf-0eafc2488e18" x="28.32" y="38.49" width="2.23" height="2.23"/><rect class="uuid-1ce7e671-b1d1-4c65-8916-9f2838905d9e" x="26.09" y="38.49" width="2.23" height="2.23"/><rect class="uuid-06f011c5-f182-46e8-9d8f-dd1641f12c43" x="24" y="38.49" width="2.09" height="2.23"/><path class="uuid-a6bf1ed3-98a7-48ae-905d-182456ae2b35" d="M35.01,40.69v-2.2s2.23,0,2.23,0v.4901c-.7.6299-1.45,1.2-2.23,1.71Z"/><path class="uuid-21aa0326-7a79-4cdf-b516-1550435310a9" d="M39.47,36.67v-.41s.32,0,.32,0c-.1.14-.21.28-.32.41Z"/><path class="uuid-8fbc52c5-5b8d-41f6-a611-d3bab395f71b" d="M37.24,38.49v-2.23s2.23,0,2.23,0v.41c-.52.65-1.09,1.2599-1.7,1.8199h-.53Z"/><path class="uuid-21aa0326-7a79-4cdf-b516-1550435310a9" d="M37.24,38.98v-.4901s.53,0,.53,0c-.17.17-.35.34-.53.4901Z"/><rect class="uuid-21aa0326-7a79-4cdf-b516-1550435310a9" x="35.01" y="36.26" width="2.23" height="2.23"/><rect class="uuid-7c870033-b95b-4a4e-b6cf-0eafc2488e18" x="32.78" y="36.26" width="2.23" height="2.23"/><rect class="uuid-1ce7e671-b1d1-4c65-8916-9f2838905d9e" x="30.55" y="36.26" width="2.23" height="2.23"/><rect class="uuid-86646e32-2bd4-4b39-9863-096977062950" x="28.32" y="36.26" width="2.23" height="2.23"/><rect class="uuid-7850e4f4-68d0-4609-a935-8fc64d6e51d4" x="26.09" y="36.26" width="2.23" height="2.23"/><rect class="uuid-e1e3663d-c70c-4f4a-8f32-f6b2c208c68c" x="24" y="36.26" width="2.09" height="2.23"/><rect class="uuid-0c75d77d-a8bb-45e9-be6f-58daa1e34def" x="24" y="34.03" width="2.09" height="2.23"/><rect class="uuid-7a980b24-ea3c-4c1b-b32a-59eb01b80c7f" x="26.09" y="34.03" width="2.23" height="2.23"/><rect class="uuid-ee59b97a-1f03-4262-aada-5cd3c6d637a4" x="28.32" y="34.03" width="2.23" height="2.23"/><rect class="uuid-11623751-9f08-4c11-bc41-56886768b24d" x="30.55" y="34.03" width="2.23" height="2.23"/><rect class="uuid-21aa0326-7a79-4cdf-b516-1550435310a9" x="32.78" y="34.03" width="2.23" height="2.23"/><rect class="uuid-7c870033-b95b-4a4e-b6cf-0eafc2488e18" x="35.01" y="34.03" width="2.23" height="2.23"/><rect class="uuid-896a4806-15ad-417f-aa13-1433371f0e2a" x="37.24" y="34.03" width="2.23" height="2.23"/><path class="uuid-21aa0326-7a79-4cdf-b516-1550435310a9" d="M39.47,36.26v-2.23s1.82,0,1.82,0c-.44.78-.94,1.52-1.5,2.23h-.32Z"/><path class="uuid-21aa0326-7a79-4cdf-b516-1550435310a9" d="M41.7,33.3v-1.5s.72,0,.72,0c-.22.51-.46,1.01-.72,1.5Z"/><path class="uuid-7850e4f4-68d0-4609-a935-8fc64d6e51d4" d="M39.47,34.03v-2.23s2.23,0,2.23,0v1.5c-.12.25-.26.4901-.41.73h-1.82Z"/><rect class="uuid-fdcae41e-71b1-4717-a6f2-7440cd453106" x="37.24" y="31.8" width="2.23" height="2.23"/><rect class="uuid-6828c252-083d-4924-8e9c-60635bf322a6" x="35.01" y="31.8" width="2.23" height="2.23"/><rect class="uuid-da13d127-88d2-4a9b-93e6-64a52b3b0e36" x="32.78" y="31.8" width="2.23" height="2.23"/><rect class="uuid-86646e32-2bd4-4b39-9863-096977062950" x="30.55" y="31.8" width="2.23" height="2.23"/><rect class="uuid-6e025ca3-34fe-4797-9e93-d6bf385cf11a" x="28.32" y="31.8" width="2.23" height="2.23"/><rect class="uuid-21aa0326-7a79-4cdf-b516-1550435310a9" x="26.09" y="31.8" width="2.23" height="2.23"/><rect class="uuid-31325c3d-585a-4189-8dce-7b434ce91d7e" x="24" y="31.8" width="2.09" height="2.23"/><rect class="uuid-dd138103-62ab-439b-af47-eef1d50c3055" x="24" y="29.57" width="2.09" height="2.23"/><rect class="uuid-8fbc52c5-5b8d-41f6-a611-d3bab395f71b" x="26.09" y="29.57" width="2.23" height="2.23"/><rect class="uuid-245e3024-4602-49ad-a6db-95a5c687b0c8" x="28.32" y="29.57" width="2.23" height="2.23"/><rect class="uuid-a6a9eb31-abde-4dd2-8cdb-a315dbea4d20" x="30.55" y="29.57" width="2.23" height="2.23"/><rect class="uuid-b42eb65e-e4e5-4f1d-a64b-33843f1b0f77" x="32.78" y="29.57" width="2.23" height="2.23"/><rect class="uuid-896a4806-15ad-417f-aa13-1433371f0e2a" x="35.01" y="29.57" width="2.23" height="2.23"/><rect class="uuid-01d11c83-d5a2-478f-bf8e-5d8b61041cc9" x="37.24" y="29.57" width="2.23" height="2.23"/><rect class="uuid-dd9539f2-6813-4770-a4f6-fc9494e5e558" x="39.47" y="29.57" width="2.23" height="2.23"/><path class="uuid-fc95fb8e-88b5-4cb4-beaf-49b20f4c7dd7" d="M41.7,31.8v-2.23s1.51,0,1.51,0c-.22.76-.48,1.51-.79,2.23h-.72Z"/><path class="uuid-fc95fb8e-88b5-4cb4-beaf-49b20f4c7dd7" d="M41.7,29.57v-2.23s2.02,0,2.02,0c-.1299.76-.3,1.5-.5099,2.23h-1.51Z"/><rect class="uuid-31325c3d-585a-4189-8dce-7b434ce91d7e" x="39.47" y="27.34" width="2.23" height="2.23"/><rect class="uuid-21aa0326-7a79-4cdf-b516-1550435310a9" x="37.24" y="27.34" width="2.23" height="2.23"/><rect class="uuid-e1e3663d-c70c-4f4a-8f32-f6b2c208c68c" x="35.01" y="27.34" width="2.23" height="2.23"/><rect class="uuid-f0685260-4e2b-4e0b-8fc1-60e78c5bc034" x="32.78" y="27.34" width="2.23" height="2.23"/><rect class="uuid-a6a9eb31-abde-4dd2-8cdb-a315dbea4d20" x="30.55" y="27.34" width="2.23" height="2.23"/><rect class="uuid-21aa0326-7a79-4cdf-b516-1550435310a9" x="28.32" y="27.34" width="2.23" height="2.23"/><rect class="uuid-ee59b97a-1f03-4262-aada-5cd3c6d637a4" x="26.09" y="27.34" width="2.23" height="2.23"/><rect class="uuid-06f011c5-f182-46e8-9d8f-dd1641f12c43" x="24" y="27.34" width="2.09" height="2.23"/><rect class="uuid-21aa0326-7a79-4cdf-b516-1550435310a9" x="24" y="25.11" width="2.09" height="2.23"/><rect class="uuid-169248fb-2888-44ef-af91-a93407a03e9f" x="26.09" y="25.11" width="2.23" height="2.23"/><rect class="uuid-f91df919-abfd-4950-b179-c429bf53f2a3" x="28.32" y="25.11" width="2.23" height="2.23"/><rect class="uuid-21aa0326-7a79-4cdf-b516-1550435310a9" x="30.55" y="25.11" width="2.23" height="2.23"/><rect class="uuid-21aa0326-7a79-4cdf-b516-1550435310a9" x="32.78" y="25.11" width="2.23" height="2.23"/><rect class="uuid-1ce7e671-b1d1-4c65-8916-9f2838905d9e" x="35.01" y="25.11" width="2.23" height="2.23"/><rect class="uuid-7c870033-b95b-4a4e-b6cf-0eafc2488e18" x="37.24" y="25.11" width="2.23" height="2.23"/><rect class="uuid-4e37cfff-a8e2-4f85-81ba-e17c4004b3d0" x="39.47" y="25.11" width="2.23" height="2.23"/><path class="uuid-7c099f5a-de9f-4f61-8e2b-c8673092d1d6" d="M41.7,27.34v-2.23s2.23,0,2.23,0v.5c-.04.59-.11,1.17-.21,1.73h-2.02Z"/><rect class="uuid-86646e32-2bd4-4b39-9863-096977062950" x="41.7" y="22.89" width="2.23" height="2.22"/><rect class="uuid-01d11c83-d5a2-478f-bf8e-5d8b61041cc9" x="39.47" y="22.89" width="2.23" height="2.22"/><rect class="uuid-21aa0326-7a79-4cdf-b516-1550435310a9" x="37.24" y="22.89" width="2.23" height="2.22"/><rect class="uuid-21aa0326-7a79-4cdf-b516-1550435310a9" x="35.01" y="22.89" width="2.23" height="2.22"/><rect class="uuid-b42eb65e-e4e5-4f1d-a64b-33843f1b0f77" x="32.78" y="22.89" width="2.23" height="2.22"/><rect class="uuid-a6322e6d-c318-48b5-b700-9f19b8774e68" x="30.55" y="22.89" width="2.23" height="2.22"/><rect class="uuid-db5805c8-f6e4-4ef1-b174-7f2bac5b278c" x="28.32" y="22.89" width="2.23" height="2.22"/><rect class="uuid-208b611c-5786-4ca8-a893-0f9df1412040" x="26.09" y="22.89" width="2.23" height="2.22"/><rect class="uuid-a1fe34e9-8835-478b-be34-5281d4288179" x="24" y="22.89" width="2.09" height="2.22"/><rect class="uuid-48510a85-fcb0-4bcf-bc97-6b3ca84dca8a" x="24" y="20.66" width="2.09" height="2.23"/><rect class="uuid-ffdef29c-0380-4aee-b286-aceb3ea117bc" x="26.09" y="20.66" width="2.23" height="2.23"/><rect class="uuid-21aa0326-7a79-4cdf-b516-1550435310a9" x="28.32" y="20.66" width="2.23" height="2.23"/><rect class="uuid-11dec79d-5b3e-465b-af9d-a780879fb465" x="30.55" y="20.66" width="2.23" height="2.23"/><rect class="uuid-34490bbe-dc4d-4be9-b8f2-5f0704f5bc51" x="32.78" y="20.66" width="2.23" height="2.23"/><rect class="uuid-21aa0326-7a79-4cdf-b516-1550435310a9" x="35.01" y="20.66" width="2.23" height="2.23"/><rect class="uuid-940d152f-26b9-43b8-8ff3-2235b43085a7" x="37.24" y="20.66" width="2.23" height="2.23"/><rect class="uuid-1ce7e671-b1d1-4c65-8916-9f2838905d9e" x="39.47" y="20.66" width="2.23" height="2.23"/><path class="uuid-86646e32-2bd4-4b39-9863-096977062950" d="M41.7,22.89v-2.23s2.02,0,2.02,0c.1.56.17,1.14.21,1.73v.5s-2.23,0-2.23,0Z"/><path class="uuid-21aa0326-7a79-4cdf-b516-1550435310a9" d="M43.96,25.11c0,.17-.01.34-.03.5v-3.22c.02.16.03.33.03.5.03.37.04.74.04,1.11s-.01.74-.04,1.11Z"/><path class="uuid-21aa0326-7a79-4cdf-b516-1550435310a9" d="M41.7,20.66v-2.23s1.51,0,1.51,0c.21.73.38,1.47.5099,2.23h-2.02Z"/><rect class="uuid-18b857dd-8a7b-4493-8e83-2cc2323d175a" x="39.47" y="18.43" width="2.23" height="2.23"/><rect class="uuid-21aa0326-7a79-4cdf-b516-1550435310a9" x="37.24" y="18.43" width="2.23" height="2.23"/><rect class="uuid-dd9539f2-6813-4770-a4f6-fc9494e5e558" x="35.01" y="18.43" width="2.23" height="2.23"/><rect class="uuid-e2c3f8e2-6e37-4eff-a8a1-a34a4af8e6e0" x="32.78" y="18.43" width="2.23" height="2.23"/><rect class="uuid-21aa0326-7a79-4cdf-b516-1550435310a9" x="30.55" y="18.43" width="2.23" height="2.23"/><rect class="uuid-a9291adf-ebee-47bd-9f32-5b172ade519f" x="28.32" y="18.43" width="2.23" height="2.23"/><rect class="uuid-fc95fb8e-88b5-4cb4-beaf-49b20f4c7dd7" x="26.09" y="18.43" width="2.23" height="2.23"/><rect class="uuid-db5805c8-f6e4-4ef1-b174-7f2bac5b278c" x="24" y="18.43" width="2.09" height="2.23"/><rect class="uuid-21aa0326-7a79-4cdf-b516-1550435310a9" x="24" y="16.2" width="2.09" height="2.23"/><rect class="uuid-dd9539f2-6813-4770-a4f6-fc9494e5e558" x="26.09" y="16.2" width="2.23" height="2.23"/><rect class="uuid-21aa0326-7a79-4cdf-b516-1550435310a9" x="28.32" y="16.2" width="2.23" height="2.23"/><rect class="uuid-11da0fad-1959-43ae-8ebd-834d54ca2105" x="30.55" y="16.2" width="2.23" height="2.23"/><rect class="uuid-7a417dcd-7031-4cb6-89a3-76cc004bda04" x="32.78" y="16.2" width="2.23" height="2.23"/><rect class="uuid-21aa0326-7a79-4cdf-b516-1550435310a9" x="35.01" y="16.2" width="2.23" height="2.23"/><rect class="uuid-18b857dd-8a7b-4493-8e83-2cc2323d175a" x="37.24" y="16.2" width="2.23" height="2.23"/><rect class="uuid-21aa0326-7a79-4cdf-b516-1550435310a9" x="39.47" y="16.2" width="2.23" height="2.23"/><path class="uuid-dd9539f2-6813-4770-a4f6-fc9494e5e558" d="M41.7,18.43v-2.23s.72,0,.72,0c.31.72.57,1.47.79,2.23h-1.51Z"/><rect class="uuid-7850e4f4-68d0-4609-a935-8fc64d6e51d4" x="24" y="13.97" width="2.09" height="2.23"/><rect class="uuid-245e3024-4602-49ad-a6db-95a5c687b0c8" x="26.09" y="13.97" width="2.23" height="2.23"/><rect class="uuid-50317a4f-5fc3-48f9-836d-818d933d720d" x="28.32" y="13.97" width="2.23" height="2.23"/><rect class="uuid-18b857dd-8a7b-4493-8e83-2cc2323d175a" x="30.55" y="13.97" width="2.23" height="2.23"/><rect class="uuid-5e41b8ef-741b-4c3f-9dcc-08e605b04e9d" x="32.78" y="13.97" width="2.23" height="2.23"/><rect class="uuid-21aa0326-7a79-4cdf-b516-1550435310a9" x="35.01" y="13.97" width="2.23" height="2.23"/><rect class="uuid-7a980b24-ea3c-4c1b-b32a-59eb01b80c7f" x="37.24" y="13.97" width="2.23" height="2.23"/><path class="uuid-afdb9a65-3e40-4a28-bdf6-757e1a306f01" d="M39.47,16.2v-2.23s1.82,0,1.82,0c.15.24.29.48.41.73v1.5s-2.23,0-2.23,0Z"/><path class="uuid-b3578f67-60a8-4b4b-aefc-3d83842ebaae" d="M41.7,16.2v-1.5c.26.49.5.99.72,1.5h-.72Z"/><rect class="uuid-895c1d44-75e4-4b6e-8faa-009cfa74e86f" x="24" y="11.74" width="2.09" height="2.23"/><rect class="uuid-30d67167-2cd9-4dab-b18b-aa7e8b93291e" x="26.09" y="11.74" width="2.23" height="2.23"/><rect class="uuid-7c870033-b95b-4a4e-b6cf-0eafc2488e18" x="28.32" y="11.74" width="2.23" height="2.23"/><rect class="uuid-8fbc52c5-5b8d-41f6-a611-d3bab395f71b" x="30.55" y="11.74" width="2.23" height="2.23"/><rect class="uuid-21aa0326-7a79-4cdf-b516-1550435310a9" x="32.78" y="11.74" width="2.23" height="2.23"/><rect class="uuid-18b857dd-8a7b-4493-8e83-2cc2323d175a" x="35.01" y="11.74" width="2.23" height="2.23"/><rect class="uuid-21aa0326-7a79-4cdf-b516-1550435310a9" x="37.24" y="11.74" width="2.23" height="2.23"/><path class="uuid-48510a85-fcb0-4bcf-bc97-6b3ca84dca8a" d="M39.47,13.97v-2.23s.32,0,.32,0c.56.71,1.06,1.45,1.5,2.23h-1.82Z"/><path class="uuid-9ee6de8c-4a8d-436b-aab0-b1f63dacdc37" d="M37.24,11.74v-2.23s.53,0,.53,0c.61.56,1.18,1.17,1.7,1.82v.41s-2.23,0-2.23,0Z"/><path class="uuid-21aa0326-7a79-4cdf-b516-1550435310a9" d="M39.79,11.74h-.32s0-.41,0-.41c.11.13.22.27.32.41Z"/><rect class="uuid-21aa0326-7a79-4cdf-b516-1550435310a9" x="35.01" y="9.51" width="2.23" height="2.23"/><rect class="uuid-f5022eff-891e-42cb-b7b3-da9a1f51585b" x="32.78" y="9.51" width="2.23" height="2.23"/><rect class="uuid-7850e4f4-68d0-4609-a935-8fc64d6e51d4" x="30.55" y="9.51" width="2.23" height="2.23"/><rect class="uuid-7c870033-b95b-4a4e-b6cf-0eafc2488e18" x="28.32" y="9.51" width="2.23" height="2.23"/><rect class="uuid-b59015c3-5471-4356-9f5f-5085cd2a9f4e" x="24" y="9.51" width="2.09" height="2.23"/><rect class="uuid-7850e4f4-68d0-4609-a935-8fc64d6e51d4" x="26.09" y="9.51" width="2.23" height="2.23"/><rect class="uuid-21aa0326-7a79-4cdf-b516-1550435310a9" x="24" y="7.28" width="2.09" height="2.23"/><rect class="uuid-cc685b11-fe09-4f6d-94b1-7502f0c3a8cc" x="26.09" y="7.28" width="2.23" height="2.23"/><rect class="uuid-edbbbe56-8127-4581-8787-a90681aa7569" x="28.32" y="7.28" width="2.23" height="2.23"/><rect class="uuid-21aa0326-7a79-4cdf-b516-1550435310a9" x="30.55" y="7.28" width="2.23" height="2.23"/><path class="uuid-6d4009b8-7644-4912-9b61-de76ffa3d428" d="M32.78,9.51v-2.23s2.18,0,2.18,0c.02,0,.04.01.05.03v2.2s-2.23,0-2.23,0Z"/><path class="uuid-31810a2a-6557-41b4-be62-ee93f0084797" d="M35.01,9.51v-2.2c.78.51,1.53,1.08,2.23,1.71v.49s-2.23,0-2.23,0Z"/><path class="uuid-21aa0326-7a79-4cdf-b516-1550435310a9" d="M37.24,9.51v-.49c.18.15.36.32.53.49h-.53Z"/><path class="uuid-fc95fb8e-88b5-4cb4-beaf-49b20f4c7dd7" d="M32.78,7.28v-1.25c.7599.37,1.48.78,2.18,1.25h-2.18Z"/><path class="uuid-abdf0a5f-3bac-418a-9338-5f91909585cd" d="M30.55,7.28v-2.18c.77.2599,1.51.58,2.23.93v1.25s-2.23,0-2.23,0Z"/><path class="uuid-7c870033-b95b-4a4e-b6cf-0eafc2488e18" d="M28.32,7.28v-2.23s2.08,0,2.08,0c.05.02.1.03.15.05v2.18s-2.23,0-2.23,0Z"/><rect class="uuid-21aa0326-7a79-4cdf-b516-1550435310a9" x="26.09" y="5.05" width="2.23" height="2.23"/><rect class="uuid-8bd2b238-43d5-4f39-8e17-7e67af414636" x="24" y="5.05" width="2.09" height="2.23"/><path class="uuid-138b76f6-ef2b-40cc-b83b-1031093830b0" d="M24,5.05v-1.05c.71,0,1.41.04,2.09.11v.94s-2.09,0-2.09,0Z"/><path class="uuid-e6f6299e-6ee0-4479-bfe0-8ceac26cb3f1" d="M26.09,5.05v-.94c.7599.08,1.5.2,2.23.3701v.5699s-2.23,0-2.23,0Z"/><path class="uuid-21aa0326-7a79-4cdf-b516-1550435310a9" d="M28.32,5.05v-.5699c.71.14,1.4.34,2.08.5699h-2.08Z"/><circle class="uuid-3655c697-8e3b-49e2-9acc-bac39b55d70b" cx="24" cy="24" r="20"/><path class="uuid-ff5bfb9b-07ac-4d83-8505-f21ed20ae9b4" d="M24,38.49V4c-.3394,0-.6667.0325-1,.0505v39.899c.3333.018.6606.0505,1,.0505v-5.51Z"/><path class="uuid-9d7af141-605d-41c7-9827-9b7a4db252fb" d="M24,38.49V4c-.1697,0-.3318.0204-.5.0252v39.9496c.1682.0048.3303.0252.5.0252v-5.51Z"/><path class="uuid-217bc431-2afb-420b-89c5-cf06f2d21c08" d="M44,24c0,11.05-8.95,20-20,20V4c11.05,0,20,8.95,20,20Z"/></g></g></svg>