<?xml version="1.0" encoding="UTF-8"?><svg id="uuid-3f0d8e02-c489-4471-8e92-d0081d357835" xmlns="http://www.w3.org/2000/svg" width="48" height="48" xmlns:xlink="http://www.w3.org/1999/xlink" viewBox="0 0 48 48"><defs><style>.uuid-64ddbca1-eda0-4b6a-ad18-f838c3a869ad{opacity:.05;}.uuid-64ddbca1-eda0-4b6a-ad18-f838c3a869ad,.uuid-545bf58c-c398-4247-989e-e9ddfb0cc025,.uuid-82a82ee2-c0c0-4ee7-9f77-af8c60814550,.uuid-88df13c3-f932-49fe-a50d-39075393fe67,.uuid-9711bd52-e71a-4f5a-a7a7-d1d8415a2fb1{stroke-width:0px;}.uuid-545bf58c-c398-4247-989e-e9ddfb0cc025{fill:url(#uuid-2e201cbb-2776-415b-9a42-ec61752d26a0);}.uuid-82a82ee2-c0c0-4ee7-9f77-af8c60814550{opacity:.07;}.uuid-88df13c3-f932-49fe-a50d-39075393fe67{fill:url(#uuid-2924a867-6270-4b49-9bc9-3074ea6cfcff);}.uuid-9711bd52-e71a-4f5a-a7a7-d1d8415a2fb1{fill:url(#uuid-ffa6a7a8-48fe-461d-aab2-6b39d04566c4);}</style><linearGradient id="uuid-ffa6a7a8-48fe-461d-aab2-6b39d04566c4" x1="11.0805" y1="7.2776" x2="34.022" y2="43.9917" gradientUnits="userSpaceOnUse"><stop offset="0" stop-color="#ff9c0d"/><stop offset="1" stop-color="#f36e22"/></linearGradient><linearGradient id="uuid-2924a867-6270-4b49-9bc9-3074ea6cfcff" x1="29.2378" y1="21.8936" x2="34.0673" y2="29.6225" gradientUnits="userSpaceOnUse"><stop offset="0" stop-color="#fff"/><stop offset=".242" stop-color="#f2f2f2"/><stop offset="1" stop-color="#ccc"/></linearGradient><linearGradient id="uuid-2e201cbb-2776-415b-9a42-ec61752d26a0" x1="13.9524" y1="21.8955" x2="18.7824" y2="29.6253" xlink:href="#uuid-2924a867-6270-4b49-9bc9-3074ea6cfcff"/></defs><path class="uuid-9711bd52-e71a-4f5a-a7a7-d1d8415a2fb1" d="M39.97,9.18c-2.98-1.4-6.17-2.41-9.49-2.98-.41.73-.89,1.73-1.22,2.52-3.54-.53-7.04-.53-10.52,0-.33-.79-.81-1.79-1.23-2.52-3.33.5699-6.52,1.59-9.49,2.99C2.01,18.26.38,27.11,1.2,35.84c3.98,2.97,7.84,4.78,11.63,5.96.94-1.29,1.78-2.66,2.5-4.1-1.37-.53-2.69-1.17-3.93-1.92.33-.24.65-.49.96-.76,7.57,3.54,15.8,3.54,23.28,0,.31.27.63.52.96.76-1.25.75-2.56,1.4-3.93,1.92.72,1.44,1.55,2.81,2.49,4.1,3.8-1.18,7.66-2.99,11.64-5.96.96-10.12-1.63-18.89-6.83-26.66Z"/><path class="uuid-64ddbca1-eda0-4b6a-ad18-f838c3a869ad" d="M31.6396,31.4697c-2.8291,0-5.1299-2.5566-5.1299-5.7002,0-3.1484,2.3008-5.71,5.1299-5.71,1.3008,0,2.542.5332,3.4961,1.501,1.0693,1.0869,1.6689,2.626,1.6445,4.2246,0,3.1309-2.3057,5.6846-5.1406,5.6846Z"/><path class="uuid-82a82ee2-c0c0-4ee7-9f77-af8c60814550" d="M31.6396,30.9697c-2.5527,0-4.6299-2.333-4.6299-5.2002,0-2.873,2.0771-5.21,4.6299-5.21,1.166,0,2.2812.4805,3.1396,1.3516.9766.9922,1.5234,2.4014,1.501,3.8662,0,2.8594-2.082,5.1924-4.6406,5.1924Z"/><path class="uuid-88df13c3-f932-49fe-a50d-39075393fe67" d="M35.78,25.77c0,2.58-1.83,4.7-4.14,4.7-2.27,0-4.13-2.12-4.13-4.7,0-2.59,1.82-4.71,4.13-4.71s4.18,2.12,4.14,4.71Z"/><path class="uuid-64ddbca1-eda0-4b6a-ad18-f838c3a869ad" d="M16.3604,31.4697c-2.835,0-5.1406-2.5566-5.1406-5.7002,0-3.1484,2.3057-5.71,5.1406-5.71,1.2979,0,2.5361.5312,3.4854,1.4961,1.0693,1.0859,1.6689,2.627,1.6445,4.2295.0068,1.5967-.6074,3.1377-1.6826,4.2178-.9424.9463-2.167,1.4668-3.4473,1.4668Z"/><path class="uuid-82a82ee2-c0c0-4ee7-9f77-af8c60814550" d="M16.3604,30.9697c-2.5586,0-4.6406-2.333-4.6406-5.2002,0-2.873,2.082-5.21,4.6406-5.21,1.1631,0,2.2744.4785,3.1289,1.3467.9766.9912,1.5234,2.4023,1.501,3.8711.0059,1.4717-.5547,2.8867-1.5371,3.873-.8477.8506-1.9463,1.3193-3.0928,1.3193Z"/><path class="uuid-545bf58c-c398-4247-989e-e9ddfb0cc025" d="M20.49,25.77c.01,2.58-1.82,4.7-4.13,4.7-2.27,0-4.14-2.12-4.14-4.7,0-2.59,1.83-4.71,4.14-4.71s4.17,2.12,4.13,4.71Z"/></svg>