<?xml version="1.0" encoding="UTF-8"?><svg id="uuid-45a8468a-a8bf-4d98-9ccb-332c5eb89dba" xmlns="http://www.w3.org/2000/svg" width="48" height="48" xmlns:xlink="http://www.w3.org/1999/xlink" viewBox="0 0 48 48"><defs><style>.uuid-15d6c755-dadd-459c-8ecd-11b5262f6a07{fill:url(#uuid-1b4df5e5-aea3-4e8e-b03e-cfe3b6b59e1c);}.uuid-15d6c755-dadd-459c-8ecd-11b5262f6a07,.uuid-d074c07a-06b7-4d79-94b2-d91d971495de,.uuid-b6ad0a8a-dbde-47a0-8612-120d322f5a09,.uuid-ad702119-e002-4284-8e4c-8407f9cdc82c,.uuid-beaf43b5-d120-4a31-a6cd-d0d1e4b82fe1{stroke-width:0px;}.uuid-d074c07a-06b7-4d79-94b2-d91d971495de{fill:url(#uuid-d36fbd20-f330-444b-b118-d8a98d890ef5);}.uuid-b6ad0a8a-dbde-47a0-8612-120d322f5a09{fill:url(#uuid-9cd9d264-31d8-4028-85cc-96825f1f1f8b);}.uuid-ad702119-e002-4284-8e4c-8407f9cdc82c{fill:url(#uuid-de939d57-8cf9-4a6a-9801-6686858b7181);}.uuid-beaf43b5-d120-4a31-a6cd-d0d1e4b82fe1{fill:url(#uuid-87ea4a51-ca37-4a1c-9bca-9f4965dcd96f);}</style><linearGradient id="uuid-de939d57-8cf9-4a6a-9801-6686858b7181" x1="37.126" y1="5.2431" x2="41.5719" y2="12.358" gradientUnits="userSpaceOnUse"><stop offset="0" stop-color="#e63b65"/><stop offset="1" stop-color="#cb264f"/></linearGradient><radialGradient id="uuid-d36fbd20-f330-444b-b118-d8a98d890ef5" cx="6.8637" cy="41.9568" fx="6.8637" fy="41.9568" r="8.2323" gradientUnits="userSpaceOnUse"><stop offset="0" stop-color="#fafafb"/><stop offset=".293" stop-color="#f6f7f8"/><stop offset=".566" stop-color="#ebecee"/><stop offset=".832" stop-color="#d8dcdf"/><stop offset="1" stop-color="#c8cdd1"/></radialGradient><linearGradient id="uuid-1b4df5e5-aea3-4e8e-b03e-cfe3b6b59e1c" x1="17.4235" y1="20.055" x2="25.5155" y2="33.005" gradientUnits="userSpaceOnUse"><stop offset="0" stop-color="#ff9c0d"/><stop offset="1" stop-color="#f36e22"/></linearGradient><radialGradient id="uuid-87ea4a51-ca37-4a1c-9bca-9f4965dcd96f" cx="32.7023" cy="85.5735" fx="32.7023" fy="85.5735" r="10.3301" gradientTransform="translate(0 94) scale(1 -1)" xlink:href="#uuid-d36fbd20-f330-444b-b118-d8a98d890ef5"/><linearGradient id="uuid-9cd9d264-31d8-4028-85cc-96825f1f1f8b" x1="5.1437" y1="39.6852" x2="7.234" y2="43.0304" gradientUnits="userSpaceOnUse"><stop offset="0" stop-color="#64717c"/><stop offset="1" stop-color="#30363d"/></linearGradient></defs><path class="uuid-ad702119-e002-4284-8e4c-8407f9cdc82c" d="M42.583,9.067l-3.651-3.65c-.555-.556-1.459-.556-2.015,0l-1.718,1.72,5.664,5.664,1.72-1.718c.556-.557.556-1.458,0-2.016"/><path class="uuid-d074c07a-06b7-4d79-94b2-d91d971495de" d="M6.905,35.43l-1.905,7.57,7.571-1.906.794-6.567-6.46.903Z"/><path class="uuid-15d6c755-dadd-459c-8ecd-11b5262f6a07" d="M36.032,17.632l-23.46,23.461-5.665-5.665L30.367,11.967l5.665,5.665Z"/><path class="uuid-beaf43b5-d120-4a31-a6cd-d0d1e4b82fe1" d="M30.363,11.968l4.832-4.834,5.668,5.664-4.832,4.834-5.668-5.664Z"/><path class="uuid-b6ad0a8a-dbde-47a0-8612-120d322f5a09" d="M5.965,39.172l-.965,3.828,3.827-.965-2.862-2.863Z"/></svg>