<?xml version="1.0" encoding="UTF-8"?><svg id="uuid-501344b6-ed93-47a5-98e0-bc956b38f680" xmlns="http://www.w3.org/2000/svg" width="48" height="48" xmlns:xlink="http://www.w3.org/1999/xlink" viewBox="0 0 48 48"><defs><style>.uuid-c0cf6ef5-ba26-489f-b1e6-592c0f562eec{opacity:.05;}.uuid-c0cf6ef5-ba26-489f-b1e6-592c0f562eec,.uuid-a868626a-ed04-4238-9909-b8af3f00b067,.uuid-41004957-1a65-41b6-b70a-8410aad9942c,.uuid-e204d9ab-eb94-42fb-901d-a3241e645a9f{stroke-width:0px;}.uuid-a868626a-ed04-4238-9909-b8af3f00b067{fill:url(#uuid-154c3435-c267-49fc-8320-d0845767b341);}.uuid-41004957-1a65-41b6-b70a-8410aad9942c{fill:url(#uuid-a545dd6b-cc43-4890-8818-473eea6b8459);opacity:.75;}.uuid-e204d9ab-eb94-42fb-901d-a3241e645a9f{opacity:.07;}</style><linearGradient id="uuid-154c3435-c267-49fc-8320-d0845767b341" x1="12.6203" y1="488.5151" x2="35.6474" y2="451.0495" gradientTransform="translate(0 494) scale(1 -1)" gradientUnits="userSpaceOnUse"><stop offset="0" stop-color="#ff9c0d"/><stop offset="1" stop-color="#f36e22"/></linearGradient><linearGradient id="uuid-a545dd6b-cc43-4890-8818-473eea6b8459" x1="29.729" y1="4.4852" x2="38.4922" y2="18.7431" gradientUnits="userSpaceOnUse"><stop offset="0" stop-color="#fff"/><stop offset=".242" stop-color="#f2f2f2"/><stop offset="1" stop-color="#ccc"/></linearGradient></defs><path class="uuid-a868626a-ed04-4238-9909-b8af3f00b067" d="M39,41H9c-1.1,0-2-.9-2-2V9c0-1.1.9-2,2-2h30c1.1,0,2,.9,2,2v30c0,1.1-.9,2-2,2Z"/><path class="uuid-c0cf6ef5-ba26-489f-b1e6-592c0f562eec" d="M39,7h-3.657l-14.7122,14.7134c-.3779.3779-.5859.8804-.5859,1.4141,0,.5342.208,1.0366.5859,1.4136l2.8281,2.8276c.377.3784.8799.5869,1.4141.5869.5352,0,1.0371-.2085,1.4141-.5864l14.7129-14.712v-3.6571c0-1.1-.9-2-2-2Z"/><path class="uuid-e204d9ab-eb94-42fb-901d-a3241e645a9f" d="M39,7h-2.9501l-15.0656,15.0664c-.2832.2837-.4395.6606-.4395,1.061s.1562.7773.4395,1.0601l2.8281,2.8281c.2832.2837.6602.4399,1.0606.4399.4014,0,.7783-.1567,1.0605-.4399l15.0664-15.0656v-2.9501c0-1.1-.9-2-2-2Z"/><path class="uuid-41004957-1a65-41b6-b70a-8410aad9942c" d="M36.452,1.379l2.963,2.963-18.077,18.078c-.391.391-.391,1.024,0,1.414l2.828,2.828c.391.391,1.024.391,1.414,0l18.078-18.077,2.963,2.963c.509.509,1.379.149,1.379-.571V1.616c0-.893-.723-1.616-1.616-1.616h-9.361c-.72,0-1.08.87-.571,1.379Z"/></svg>