<?xml version="1.0" encoding="UTF-8"?><svg id="uuid-4982c39c-a5fd-4317-aac1-1356d1cfac2b" xmlns="http://www.w3.org/2000/svg" width="48" height="48" xmlns:xlink="http://www.w3.org/1999/xlink" viewBox="0 0 48 48"><defs><style>.uuid-ebf1ec17-602f-4c3a-a58c-bc599058dac6,.uuid-3aa263af-1295-4db4-ac16-c04f95c1990b,.uuid-d2df3cd8-af56-4690-ba07-033e699bcee1,.uuid-5cd00798-0f57-4ef1-9ea1-616a79581fa9,.uuid-21681156-1fa6-4a78-9c67-bc0016f8232c,.uuid-64c381aa-7cc1-4ee1-b428-f753f25eba85{stroke-width:0px;}.uuid-ebf1ec17-602f-4c3a-a58c-bc599058dac6,.uuid-ca402edf-3352-4f05-a22a-88efdbbfeb36{opacity:.05;}.uuid-d2df3cd8-af56-4690-ba07-033e699bcee1{fill:url(#uuid-0a15c9fa-3fd4-4c2c-9e0c-bd41c4abba48);}.uuid-93fa5d3e-96cd-425d-a723-9b4ae8c76eda,.uuid-64c381aa-7cc1-4ee1-b428-f753f25eba85{opacity:.07;}.uuid-5cd00798-0f57-4ef1-9ea1-616a79581fa9{fill:#c15227;}.uuid-21681156-1fa6-4a78-9c67-bc0016f8232c{fill:#3f474f;}</style><linearGradient id="uuid-0a15c9fa-3fd4-4c2c-9e0c-bd41c4abba48" x1="10.1552" y1="6.2574" x2="33.8526" y2="44.8137" gradientUnits="userSpaceOnUse"><stop offset="0" stop-color="#ff9c0d"/><stop offset="1" stop-color="#f36e22"/></linearGradient></defs><path class="uuid-d2df3cd8-af56-4690-ba07-033e699bcee1" d="M39,16v25c0,1.105-.895,2-2,2H11c-1.105,0-2-.895-2-2V7c0-1.105.895-2,2-2h17l3,8,8,3Z"/><path class="uuid-ebf1ec17-602f-4c3a-a58c-bc599058dac6" d="M31,13l-3-8h-1v9c0,1.6543,1.3457,3,3,3h9v-1l-8-3Z"/><path class="uuid-64c381aa-7cc1-4ee1-b428-f753f25eba85" d="M31,13l-3-8h-.5v9c0,1.3789,1.1216,2.5,2.5,2.5h9v-.5l-8-3Z"/><path class="uuid-5cd00798-0f57-4ef1-9ea1-616a79581fa9" d="M28,5v9c0,1.105.895,2,2,2h9l-11-11Z"/><g class="uuid-ca402edf-3352-4f05-a22a-88efdbbfeb36"><rect class="uuid-3aa263af-1295-4db4-ac16-c04f95c1990b" x="14" y="21" width="20" height="4" rx="1.5" ry="1.5"/><rect class="uuid-3aa263af-1295-4db4-ac16-c04f95c1990b" x="14" y="25" width="18" height="4" rx="1.5" ry="1.5"/><rect class="uuid-3aa263af-1295-4db4-ac16-c04f95c1990b" x="14" y="29" width="20" height="4" rx="1.5" ry="1.5"/><rect class="uuid-3aa263af-1295-4db4-ac16-c04f95c1990b" x="14" y="33" width="18" height="4" rx="1.5" ry="1.5"/></g><g class="uuid-93fa5d3e-96cd-425d-a723-9b4ae8c76eda"><rect class="uuid-3aa263af-1295-4db4-ac16-c04f95c1990b" x="14.5" y="21.5" width="19" height="3" rx="1" ry="1"/><rect class="uuid-3aa263af-1295-4db4-ac16-c04f95c1990b" x="14.5" y="25.5" width="17" height="3" rx="1" ry="1"/><rect class="uuid-3aa263af-1295-4db4-ac16-c04f95c1990b" x="14.5" y="29.5" width="19" height="3" rx="1" ry="1"/><rect class="uuid-3aa263af-1295-4db4-ac16-c04f95c1990b" x="14.5" y="33.5" width="17" height="3" rx="1" ry="1"/></g><path class="uuid-21681156-1fa6-4a78-9c67-bc0016f8232c" d="M32.5,24H15.5c-.276,0-.5-.224-.5-.5v-1c0-.276.224-.5.5-.5h17c.276,0,.5.224.5.5v1c0,.276-.224.5-.5.5Z"/><path class="uuid-21681156-1fa6-4a78-9c67-bc0016f8232c" d="M30.5,28h-15c-.276,0-.5-.224-.5-.5v-1c0-.276.224-.5.5-.5h15c.276,0,.5.224.5.5v1c0,.276-.224.5-.5.5Z"/><path class="uuid-21681156-1fa6-4a78-9c67-bc0016f8232c" d="M32.5,32H15.5c-.276,0-.5-.224-.5-.5v-1c0-.276.224-.5.5-.5h17c.276,0,.5.224.5.5v1c0,.276-.224.5-.5.5Z"/><path class="uuid-21681156-1fa6-4a78-9c67-bc0016f8232c" d="M30.5,36h-15c-.276,0-.5-.224-.5-.5v-1c0-.276.224-.5.5-.5h15c.276,0,.5.224.5.5v1c0,.276-.224.5-.5.5Z"/></svg>