<?xml version="1.0" encoding="UTF-8"?><svg id="uuid-7361745e-1a5b-4e4b-a4fc-8639bb2c117d" xmlns="http://www.w3.org/2000/svg" width="48" height="48" xmlns:xlink="http://www.w3.org/1999/xlink" viewBox="0 0 48 48"><defs><style>.uuid-06baaa14-aaeb-476d-b81a-09d53761523b,.uuid-96904e29-867d-4a1b-894e-55f252a33888,.uuid-7f7e60d0-d7db-4f81-ae9f-0905891226b0,.uuid-e5144510-b4b9-4193-b116-95526b11b369,.uuid-3a84e3c7-6ca2-4f5d-976b-0f51d2d27393,.uuid-2b10a501-80e0-49a1-90f6-58446d8cefa1,.uuid-bc298b90-fd08-4df1-860c-e155a60528de{stroke-width:0px;}.uuid-06baaa14-aaeb-476d-b81a-09d53761523b,.uuid-7f7e60d0-d7db-4f81-ae9f-0905891226b0{opacity:.05;}.uuid-96904e29-867d-4a1b-894e-55f252a33888{fill:#c15227;}.uuid-7f7e60d0-d7db-4f81-ae9f-0905891226b0,.uuid-e5144510-b4b9-4193-b116-95526b11b369,.uuid-3a84e3c7-6ca2-4f5d-976b-0f51d2d27393{fill-rule:evenodd;}.uuid-e5144510-b4b9-4193-b116-95526b11b369{fill:#3f474f;}.uuid-3a84e3c7-6ca2-4f5d-976b-0f51d2d27393{opacity:.19;}.uuid-2b10a501-80e0-49a1-90f6-58446d8cefa1{opacity:.07;}.uuid-bc298b90-fd08-4df1-860c-e155a60528de{fill:url(#uuid-cf25fba2-bd8f-4dc9-8793-360d00094b1a);}</style><linearGradient id="uuid-cf25fba2-bd8f-4dc9-8793-360d00094b1a" x1="10.1552" y1="6.2574" x2="33.8526" y2="44.8137" gradientUnits="userSpaceOnUse"><stop offset="0" stop-color="#ff9c0d"/><stop offset="1" stop-color="#f36e22"/></linearGradient></defs><path class="uuid-bc298b90-fd08-4df1-860c-e155a60528de" d="M39,16v25c0,1.105-.895,2-2,2H11c-1.105,0-2-.895-2-2V7c0-1.105.895-2,2-2h17l3,8,8,3Z"/><path class="uuid-06baaa14-aaeb-476d-b81a-09d53761523b" d="M31,13l-3-8h-1v9c0,1.6543,1.3457,3,3,3h9v-1l-8-3Z"/><path class="uuid-2b10a501-80e0-49a1-90f6-58446d8cefa1" d="M31,13l-3-8h-.5v9c0,1.3789,1.1216,2.5,2.5,2.5h9v-.5l-8-3Z"/><path class="uuid-96904e29-867d-4a1b-894e-55f252a33888" d="M28,5v9c0,1.105.895,2,2,2h9l-11-11Z"/><path class="uuid-7f7e60d0-d7db-4f81-ae9f-0905891226b0" d="M24.1738,18.9265c-1.5068-.4639-3.5713-1.0996-6.0518-1.0996l-.1689.001c-2.3281.0283-4.6025.6602-6.752,1.873-.351.1895-1.1943.68-2.2012,1.4775v6.5826l.8252-.8765c1.2969-1.3779,2.7334-2.3193,3.3535-2.7256,1.4766-.9658,2.8613-1.3965,4.4873-1.3965.9893,0,2.1152.1504,3.6484.4873,3.168.7021,5.9785,4.0117,6.5186,6.5439.7793,3.6445-.0566,6.3125-2.7969,8.9248-1.0693,1.0195-2.667,1.5811-4.498,1.5811-1.5918,0-3.2266-.4297-4.2676-1.1221-2.0664-1.3682-3.3975-2.4873-3.0938-5.4463.3066-2.9756,3.252-4.3623,5.1455-4.3623.1055,0,.208.0039.3086.0127.873.0732,1.6221.376,2.1406.8525l-2.7129.3984c-.2705.04-2.6748.4502-3.6338,2.3105-.585,1.1318-.4902,2.4736.2832,3.9873.8818,1.7266,2.5273,2.6777,4.6318,2.6777,3.0176,0,6.0518-1.957,7.2139-4.6533.4756-1.1025,1.4395-3.9551.1182-6.626-1.0518-2.126-3.2646-3.623-6.5771-4.4492-.7314-.1816-1.4746-.2744-2.209-.2744-3.4476,0-6.7952,2.0436-8.8857,5.3213v10.8283c1.0603,1.4149,2.371,2.5021,3.4473,3.2451h16.0918c5.4028-3.9484,7.1231-11.3231,5.2354-15.6994-1.6357-3.7969-5.4023-7.083-9.6006-8.374ZM21.1855,30.7283c.3076.4873.3877,1.0234.2188,1.4707-.4072,1.0801-1.2793,1.5664-1.7686,1.5664-.1641,0-.2891-.0498-.3965-.1562-.3184-.3174-.4873-.6162-.4883-.8633,0-.2275.1484-.4023.1465-.4023l2.0361-1.9463c.0938.1035.1787.2139.252.3311Z"/><path class="uuid-7f7e60d0-d7db-4f81-ae9f-0905891226b0" d="M24.0312,19.406c-1.4775-.4551-3.501-1.0791-5.9062-1.0791l-.166.001c-2.2451.0273-4.4326.6348-6.5195,1.8125-.3728.202-1.3258.7577-2.4395,1.683v5.2079l.4609-.4896c1.3428-1.4268,2.8154-2.3896,3.4443-2.8018,1.5625-1.0215,3.0303-1.4775,4.7607-1.4775,1.0283,0,2.1875.1543,3.7568.499,3.3535.7432,6.3271,4.248,6.8994,6.9277.8203,3.835-.0586,6.6436-2.9414,9.3906-1.1631,1.1094-2.8828,1.7197-4.8428,1.7197-1.6836,0-3.4248-.4609-4.5439-1.2051-2.1504-1.4248-3.6465-2.6836-3.3145-5.9141.3379-3.2822,3.5664-4.8115,5.6426-4.8115.1201,0,.2363.0049.3506.0146,1.3027.1094,2.373.6846,2.9355,1.5781.3926.6221.4883,1.3184.2637,1.9131-.4619,1.2275-1.4971,1.8906-2.2363,1.8906-.2969,0-.5488-.1016-.749-.3018-.4209-.4189-.6348-.8281-.6357-1.2168-.001-.4561.2998-.7637.2998-.7637l1.1338-1.084-1.5518.2275c-.0977.0146-2.3994.3701-3.2637,2.0459-.5068.9805-.4111,2.1689.2842,3.5303.792,1.5508,2.2783,2.4053,4.1865,2.4053,2.8271,0,5.668-1.8301,6.7549-4.3516.4482-1.0391,1.3574-3.7227.1289-6.2061-.9844-1.9893-3.0869-3.3965-6.25-4.1855-.6895-.1719-1.3926-.2598-2.0879-.2598-3.519,0-6.9346,2.2534-8.8857,5.8014v8.9785c1.1467,1.7621,2.7683,3.0701,3.9844,3.8793.1158.077.2435.1564.3701.2355h14.327c.0295-.0194.0581-.0351.088-.0549,5.5947-3.71,7.4131-11.1182,5.5459-15.4463-1.5801-3.668-5.1953-6.8359-9.2842-8.0928Z"/><path id="uuid-7b17d4d0-b02c-4d7e-a7c4-7c6f42768a44" class="uuid-e5144510-b4b9-4193-b116-95526b11b369" d="M17.8688,18.828c-1.8974.0232-4.0283.4768-6.2621,1.7378-.0477.0289-1.208.6238-2.6067,1.8277v3.8052c1.311-1.3921,2.7004-2.3306,3.5355-2.8764,2.8437-1.8606,5.2766-1.8452,8.8987-1.0487,3.4833.7723,6.6426,4.3243,7.2808,7.3108.8537,3.9893-.0386,6.9538-3.0861,9.8576-2.8015,2.6725-7.7155,2.0917-10.0073.5693-2.2987-1.5231-3.8899-2.9344-3.5355-6.3819.3744-3.6405,4.0797-5.4538,6.5317-5.2434,2.9273.246,4.2464,2.5247,3.6254,4.1647-.7073,1.8794-2.7346,2.8392-3.8052,1.7678-1.5444-1.5359-.3296-2.6966-.3296-2.6966,0,0-4.7293.6945-2.6067,4.8539,1.9533,3.826,8.3105,2.0879,10.0373-1.9176.9615-2.2269,2.2234-7.7121-5.7827-9.7077-4.7135-1.1776-8.9094,2.0679-10.7564,5.9625v7.2808c1.0029,1.7893,2.6313,3.2343,4.1647,4.2546.3101.2057.6626.4255,1.0487.6292h12.4642c.2445-.1398.4753-.2881.7191-.4494,5.5762-3.6976,7.0154-11.0013,5.3632-14.8313-1.418-3.2909-4.7178-6.505-8.8987-7.7902-1.4888-.459-3.5529-1.1085-5.9924-1.0786Z"/><path id="uuid-b452807f-00e1-420a-a72e-8e840e1dd204" class="uuid-3a84e3c7-6ca2-4f5d-976b-0f51d2d27393" d="M17.8688,18.828c-1.8974.0232-4.0283.4768-6.2621,1.7378-.0477.0289-1.208.6238-2.6067,1.8277v3.8052c1.311-1.3921,2.7004-2.3306,3.5355-2.8764,2.8437-1.8606,5.2766-1.8452,8.8987-1.0487,3.4833.7723,6.6426,4.3243,7.2808,7.3108.8537,3.9893-.0386,6.9538-3.0861,9.8576-2.8015,2.6725-7.7155,2.0917-10.0073.5693-2.2987-1.5231-3.8899-2.9344-3.5355-6.3819.3744-3.6405,4.0797-5.4538,6.5317-5.2434,2.9273.246,4.2464,2.5247,3.6254,4.1647-.7073,1.8794-2.7346,2.8392-3.8052,1.7678-1.5444-1.5359-.3296-2.6966-.3296-2.6966,0,0-4.7293.6945-2.6067,4.8539,1.9533,3.826,8.3105,2.0879,10.0373-1.9176.9615-2.2269,2.2234-7.7121-5.7827-9.7077-4.7135-1.1776-8.9094,2.0679-10.7564,5.9625v7.2808c1.0029,1.7893,2.6313,3.2343,4.1647,4.2546.3101.2057.6626.4255,1.0487.6292h12.4642c.2445-.1398.4753-.2881.7191-.4494,5.5762-3.6976,7.0154-11.0013,5.3632-14.8313-1.418-3.2909-4.7178-6.505-8.8987-7.7902-1.4888-.459-3.5529-1.1085-5.9924-1.0786Z"/><path class="uuid-e5144510-b4b9-4193-b116-95526b11b369" d="M14.3389,42.4775c-.3286-.1797-.6299-.3682-.8989-.5459-1.2227-.8145-2.8882-2.1592-3.9399-3.9707v-7.0342c1.3198-2.709,4.2578-5.8213,8.2891-5.8213.6138,0,1.2354.0771,1.8462.2305,2.8647.7139,4.7476,1.9443,5.5952,3.6572,1.0444,2.1104.2427,4.4561-.1504,5.3672-.9214,2.1367-3.4307,3.748-5.8369,3.748-.8765,0-2.4697-.2412-3.2959-1.8604-.5391-1.0566-.6362-1.9355-.2881-2.6133.3198-.6221.9648-1.0039,1.5229-1.2285-.0166.0996-.0264.2051-.0278.3164-.0068.6729.3066,1.3291.9312,1.9502.3867.3867.8896.5918,1.4531.5918,1.2852,0,2.6191-1.0674,3.1724-2.5381.3364-.8887.208-1.9082-.353-2.7979-.7319-1.1611-2.0796-1.9053-3.6982-2.041-.1411-.0127-.2856-.0186-.4341-.0186-2.9097,0-6.2744,2.1826-6.6372,5.709-.3877,3.7754,1.4722,5.3359,3.7568,6.8506,1.293.8584,3.1982,1.3711,5.0962,1.3711,2.2183,0,4.1831-.709,5.5327-1.9951,3.1665-3.0186,4.1328-6.1064,3.2295-10.3252-.6494-3.0391-3.8828-6.8564-7.6611-7.6943-1.644-.3613-2.8691-.5225-3.9731-.5225-1.936,0-3.5728.5068-5.3076,1.6416-.5259.3438-1.6172,1.0566-2.7617,2.1016v-2.3809c1.0122-.8477,1.8765-1.3643,2.3149-1.6035,1.9585-1.1045,3.9849-1.668,6.0601-1.6934l.1582-.001c2.2539,0,4.1934.5977,5.6094,1.0352,3.8179,1.1738,7.1885,4.1221,8.6582,7.5332,1.5103,3.5.27,10.6016-5.1807,14.2158-.1958.1299-.3838.251-.5776.3662h-12.2036Z"/></svg>