<?xml version="1.0" encoding="UTF-8"?><svg id="uuid-fba5fc6b-497a-4a9c-8ef9-8db3b7cdf51f" xmlns="http://www.w3.org/2000/svg" width="48" height="48" xmlns:xlink="http://www.w3.org/1999/xlink" viewBox="0 0 48 48"><defs><style>.uuid-55642abd-ebb7-4c59-8e32-04c88f8fab3e{opacity:.05;}.uuid-55642abd-ebb7-4c59-8e32-04c88f8fab3e,.uuid-013b05bb-9f7e-47e3-9a3f-383c9e4d1d11,.uuid-a5a6d3ca-b412-4f7e-a9dc-0183c483b2fb,.uuid-28ca7fbe-d5e3-499a-862c-39094bb55bab,.uuid-92a663eb-a3f5-4159-8857-d2a4de85b4fe,.uuid-59a75f66-f456-4185-9355-067b08560e65,.uuid-dd90203a-3b6b-4b5e-90d4-0e4e174b8104{stroke-width:0px;}.uuid-013b05bb-9f7e-47e3-9a3f-383c9e4d1d11{fill:url(#uuid-18f92759-ae80-4ebf-b108-8981f543071e);}.uuid-a5a6d3ca-b412-4f7e-a9dc-0183c483b2fb{fill:#30363d;opacity:.5;}.uuid-28ca7fbe-d5e3-499a-862c-39094bb55bab{fill:#c15227;}.uuid-92a663eb-a3f5-4159-8857-d2a4de85b4fe{fill:url(#uuid-d589fcf6-9969-4b6d-b7da-cd9b086f695e);}.uuid-59a75f66-f456-4185-9355-067b08560e65{fill:url(#uuid-4fe98b25-7a97-4cfa-8e0d-26ed9a3896ea);}.uuid-dd90203a-3b6b-4b5e-90d4-0e4e174b8104{opacity:.07;}</style><linearGradient id="uuid-4fe98b25-7a97-4cfa-8e0d-26ed9a3896ea" x1="10.1552" y1="6.2574" x2="33.8526" y2="44.8137" gradientUnits="userSpaceOnUse"><stop offset="0" stop-color="#ff9c0d"/><stop offset="1" stop-color="#f36e22"/></linearGradient><linearGradient id="uuid-18f92759-ae80-4ebf-b108-8981f543071e" x1="29.94" y1="22.3037" x2="32.06" y2="25.6963" gradientUnits="userSpaceOnUse"><stop offset="0" stop-color="#fff"/><stop offset=".242" stop-color="#f2f2f2"/><stop offset="1" stop-color="#ccc"/></linearGradient><linearGradient id="uuid-d589fcf6-9969-4b6d-b7da-cd9b086f695e" x1="22.778" y1="257.9781" x2="22.778" y2="268.1191" gradientTransform="translate(0 294) scale(1 -1)" gradientUnits="userSpaceOnUse"><stop offset="0" stop-color="#30363d"/><stop offset="1" stop-color="#64717c"/></linearGradient></defs><path class="uuid-59a75f66-f456-4185-9355-067b08560e65" d="M39,16v25c0,1.105-.895,2-2,2H11c-1.105,0-2-.895-2-2V7c0-1.105.895-2,2-2h17l11,11Z"/><path class="uuid-55642abd-ebb7-4c59-8e32-04c88f8fab3e" d="M31,13l-3-8h-1v9c0,1.6543,1.3457,3,3,3h9v-1l-8-3Z"/><path class="uuid-dd90203a-3b6b-4b5e-90d4-0e4e174b8104" d="M31,13l-3-8h-.5v9c0,1.3789,1.1216,2.5,2.5,2.5h9v-.5l-8-3Z"/><path class="uuid-28ca7fbe-d5e3-499a-862c-39094bb55bab" d="M28,5v9c0,1.105.895,2,2,2h9l-11-11Z"/><path class="uuid-a5a6d3ca-b412-4f7e-a9dc-0183c483b2fb" d="M34,34l-5.458-5.458c-.673-.673-1.758-.687-2.449-.033l-5.426,5.141v2.35h12.333c.552,0,1-.448,1-1v-1Z"/><circle class="uuid-013b05bb-9f7e-47e3-9a3f-383c9e4d1d11" cx="31" cy="24" r="2"/><path class="uuid-92a663eb-a3f5-4159-8857-d2a4de85b4fe" d="M31.556,36l-9.248-9.248c-.913-.913-2.388-.933-3.325-.045l-4.983,4.72v2.573c0,1.105.895,2,2,2h15.556Z"/></svg>