<?xml version="1.0" encoding="UTF-8"?><svg id="uuid-18b10605-c90d-4f77-aabf-ce1eba10bbf9" xmlns="http://www.w3.org/2000/svg" width="48" height="48" xmlns:xlink="http://www.w3.org/1999/xlink" viewBox="0 0 48 48"><defs><style>.uuid-2ec0ce7d-35ed-470a-8324-2c99b52c6ac0{fill:url(#uuid-24ab6e8c-b617-4e28-a19b-9c7ba0041602);}.uuid-2ec0ce7d-35ed-470a-8324-2c99b52c6ac0,.uuid-4699fc82-738f-49b2-a41d-119e59fe290a,.uuid-10ac5089-f815-4f94-a7ac-971667d68be7,.uuid-96bbc8a8-88bf-4307-9f43-4269a08149c5,.uuid-3797f7d0-569e-45f8-ab5d-7678714437bc,.uuid-fde24cbe-6f47-407d-b06d-1e7f93ffe92d,.uuid-ea9c688b-c6c2-49f6-bb09-3a7702995b2a,.uuid-78da4353-df3b-4541-b62e-91d7f57a02a7,.uuid-92e2cade-2f2d-4f13-a7d8-2098e5d3979c{stroke-width:0px;}.uuid-4699fc82-738f-49b2-a41d-119e59fe290a{opacity:.05;}.uuid-10ac5089-f815-4f94-a7ac-971667d68be7{fill:url(#uuid-873e63d1-ec52-4dcb-b507-ce88bb9bfefb);}.uuid-96bbc8a8-88bf-4307-9f43-4269a08149c5{fill:url(#uuid-d50b9c41-4beb-42f5-8791-51c14fdcdf49);}.uuid-3797f7d0-569e-45f8-ab5d-7678714437bc{fill:url(#uuid-86d1231f-d490-4877-ac47-767357bb4666);}.uuid-fde24cbe-6f47-407d-b06d-1e7f93ffe92d{fill:url(#uuid-e4f289b9-b392-4c7d-bd54-f0fd1da9093a);}.uuid-ea9c688b-c6c2-49f6-bb09-3a7702995b2a{fill:#c15227;}.uuid-78da4353-df3b-4541-b62e-91d7f57a02a7{fill:url(#uuid-b49d9266-e568-4894-a420-9392621e5943);}.uuid-92e2cade-2f2d-4f13-a7d8-2098e5d3979c{opacity:.07;}</style><linearGradient id="uuid-e4f289b9-b392-4c7d-bd54-f0fd1da9093a" x1="10.1552" y1="6.2574" x2="33.8526" y2="44.8137" gradientUnits="userSpaceOnUse"><stop offset="0" stop-color="#ff9c0d"/><stop offset="1" stop-color="#f36e22"/></linearGradient><linearGradient id="uuid-d50b9c41-4beb-42f5-8791-51c14fdcdf49" x1="42.8994" y1="15.9004" x2="45.3806" y2="19.8711" gradientUnits="userSpaceOnUse"><stop offset="0" stop-color="#e63b65"/><stop offset="1" stop-color="#cb264f"/></linearGradient><radialGradient id="uuid-24ab6e8c-b617-4e28-a19b-9c7ba0041602" cx="26.0104" cy="36.3898" fx="26.0104" fy="36.3898" r="4.5943" gradientUnits="userSpaceOnUse"><stop offset="0" stop-color="#fafafb"/><stop offset=".293" stop-color="#f6f7f8"/><stop offset=".566" stop-color="#ebecee"/><stop offset=".832" stop-color="#d8dcdf"/><stop offset="1" stop-color="#c8cdd1"/></radialGradient><linearGradient id="uuid-86d1231f-d490-4877-ac47-767357bb4666" x1="31.9037" y1="24.1667" x2="36.4197" y2="31.3939" xlink:href="#uuid-e4f289b9-b392-4c7d-bd54-f0fd1da9093a"/><radialGradient id="uuid-873e63d1-ec52-4dcb-b507-ce88bb9bfefb" cx="40.4306" cy="276.323" fx="40.4306" fy="276.323" r="5.7651" gradientTransform="translate(0 294) scale(1 -1)" xlink:href="#uuid-24ab6e8c-b617-4e28-a19b-9c7ba0041602"/><linearGradient id="uuid-b49d9266-e568-4894-a420-9392621e5943" x1="25.0505" y1="35.122" x2="26.2171" y2="36.9889" gradientUnits="userSpaceOnUse"><stop offset="0" stop-color="#64717c"/><stop offset="1" stop-color="#30363d"/></linearGradient></defs><path class="uuid-fde24cbe-6f47-407d-b06d-1e7f93ffe92d" d="M39,16v25c0,1.105-.895,2-2,2H11c-1.105,0-2-.895-2-2V7c0-1.105.895-2,2-2h17l3,8,8,3Z"/><path class="uuid-4699fc82-738f-49b2-a41d-119e59fe290a" d="M31,13l-3-8h-1v9c0,1.6543,1.3457,3,3,3h9v-1l-8-3Z"/><path class="uuid-92e2cade-2f2d-4f13-a7d8-2098e5d3979c" d="M31,13l-3-8h-.5v9c0,1.3789,1.1216,2.5,2.5,2.5h9v-.5l-8-3Z"/><path class="uuid-ea9c688b-c6c2-49f6-bb09-3a7702995b2a" d="M28,5v9c0,1.105.895,2,2,2h9l-11-11Z"/><path class="uuid-4699fc82-738f-49b2-a41d-119e59fe290a" d="M39,18.3663l-13.6744,13.6752c-.127.1274-.2168.2861-.2627.4614l-1.0635,4.2275c-.083.3384.0176.7017.2627.9478.1855.187.4443.2939.708.2939.084,0,.166-.0103.2441-.0303l4.2246-1.0645c.1768-.0439.3379-.1353.4639-.2627l9.0972-9.0967v-9.1517Z"/><path class="uuid-92e2cade-2f2d-4f13-a7d8-2098e5d3979c" d="M39,19.0733l-13.3199,13.3203c-.0635.064-.1094.144-.1318.2314l-1.0635,4.2251c-.042.1704.0078.3511.1318.4756.0947.0952.2227.1465.3535.1465.041,0,.082-.0049.1221-.0151l4.2256-1.0645c.0879-.022.168-.0674.2314-.1313l9.4507-9.4502v-7.7377Z"/><path class="uuid-96bbc8a8-88bf-4307-9f43-4269a08149c5" d="M45.9448,18.0345l-2.0376-2.037c-.3097-.3103-.8142-.3103-1.1245,0l-.9588.9599,3.161,3.161.9599-.9588c.3103-.3109.3103-.8137,0-1.1251"/><path class="uuid-2ec0ce7d-35ed-470a-8324-2c99b52c6ac0" d="M26.0335,32.7473l-1.0632,4.2247,4.2253-1.0637.4431-3.6649-3.6052.504Z"/><path class="uuid-3797f7d0-569e-45f8-ab5d-7678714437bc" d="M42.2888,22.8145l-13.0927,13.0932-3.1615-3.1616,13.0927-13.0932,3.1616,3.1615Z"/><path class="uuid-10ac5089-f815-4f94-a7ac-971667d68be7" d="M39.125,19.6535l2.6967-2.6978,3.1632,3.161-2.6967,2.6978-3.1632-3.161Z"/><path class="uuid-78da4353-df3b-4541-b62e-91d7f57a02a7" d="M25.5089,34.8356l-.5386,2.1363,2.1358-.5386-1.5972-1.5978Z"/></svg>