<?xml version="1.0" encoding="UTF-8"?><svg id="uuid-d3ad8329-d366-4c03-97ef-40cbb08ffd9e" xmlns="http://www.w3.org/2000/svg" width="48" height="48" xmlns:xlink="http://www.w3.org/1999/xlink" viewBox="0 0 48 48"><defs><style>.uuid-3f3aab21-7348-4136-a732-98c760ec7e1c{opacity:.07;}.uuid-3f3aab21-7348-4136-a732-98c760ec7e1c,.uuid-1ac4656f-354e-4c9b-a93f-1edd93024048,.uuid-b4fdc8eb-01af-4c99-9d58-244cdb26511b,.uuid-bcab88cb-5919-486a-ad3c-923c03cac5f5,.uuid-5056d9f7-2e02-4009-a5e0-149a926fc031,.uuid-f520890f-0dfa-4557-bb35-fd0d29403364{stroke-width:0px;}.uuid-3f3aab21-7348-4136-a732-98c760ec7e1c,.uuid-5056d9f7-2e02-4009-a5e0-149a926fc031{isolation:isolate;}.uuid-1ac4656f-354e-4c9b-a93f-1edd93024048{opacity:.05;}.uuid-b4fdc8eb-01af-4c99-9d58-244cdb26511b{fill:url(#uuid-f9096659-bda5-4cd4-ba78-c3f05ea8b832);}.uuid-bcab88cb-5919-486a-ad3c-923c03cac5f5{fill:#c15227;}.uuid-5056d9f7-2e02-4009-a5e0-149a926fc031{opacity:.05;}.uuid-f520890f-0dfa-4557-bb35-fd0d29403364{opacity:.07;}</style><linearGradient id="uuid-f9096659-bda5-4cd4-ba78-c3f05ea8b832" x1="13.0699" y1="5.2457" x2="35.3678" y2="41.5248" gradientUnits="userSpaceOnUse"><stop offset="0" stop-color="#ff9c0d"/><stop offset="1" stop-color="#f36e22"/></linearGradient></defs><path class="uuid-bcab88cb-5919-486a-ad3c-923c03cac5f5" d="M36,17v25c0,1.105-.895,2-2,2H10c-1.105,0-2-.895-2-2V10c0-1.105.895-2,2-2h17l9,9Z"/><path class="uuid-5056d9f7-2e02-4009-a5e0-149a926fc031" d="M10,8h21.8889l4.1111,4.0556v29.9444H13.681c-2.033,0-3.681-1.648-3.681-3.681V8Z"/><path class="uuid-3f3aab21-7348-4136-a732-98c760ec7e1c" d="M11,8h19.941c2.794,0,5.059,2.265,5.059,5.059v27.941H13.839c-1.568,0-2.839-1.271-2.839-2.839V8Z"/><path class="uuid-b4fdc8eb-01af-4c99-9d58-244cdb26511b" d="M40,14v24c0,1.105-.895,2-2,2H14c-1.105,0-2-.895-2-2V6c0-1.105.895-2,2-2h16l10,10Z"/><path class="uuid-1ac4656f-354e-4c9b-a93f-1edd93024048" d="M30,4h-1v8c0,1.6543,1.3457,3,3,3h8v-1l-10-10Z"/><path class="uuid-f520890f-0dfa-4557-bb35-fd0d29403364" d="M30,4h-.5v8c0,1.3789,1.1211,2.5,2.5,2.5h8v-.5l-10-10Z"/><path class="uuid-bcab88cb-5919-486a-ad3c-923c03cac5f5" d="M30,4v8c0,1.105.895,2,2,2h8l-10-10Z"/></svg>