<?xml version="1.0" encoding="UTF-8"?><svg id="uuid-56d90234-819e-4a44-9e6d-a6cac5ec4fcf" xmlns="http://www.w3.org/2000/svg" width="48" height="48" xmlns:xlink="http://www.w3.org/1999/xlink" viewBox="0 0 48 48"><defs><style>.uuid-487f6182-2433-435a-ac54-47a6d1b3e8ea{opacity:.05;}.uuid-487f6182-2433-435a-ac54-47a6d1b3e8ea,.uuid-582ab11d-450c-4d2f-9315-6c3e25e1152c,.uuid-70546734-9bf6-4b6a-abb8-d7b94ec56f67,.uuid-39e1cfb0-e088-44a4-b8a6-13fd31a8ee69{stroke-width:0px;}.uuid-582ab11d-450c-4d2f-9315-6c3e25e1152c{fill:#c15227;}.uuid-70546734-9bf6-4b6a-abb8-d7b94ec56f67{fill:url(#uuid-99fb8d10-efe0-4133-882b-b7766bf74183);}.uuid-39e1cfb0-e088-44a4-b8a6-13fd31a8ee69{opacity:.07;}</style><linearGradient id="uuid-99fb8d10-efe0-4133-882b-b7766bf74183" x1="10.1552" y1="6.2574" x2="33.8526" y2="44.8137" gradientUnits="userSpaceOnUse"><stop offset="0" stop-color="#ff9c0d"/><stop offset="1" stop-color="#f36e22"/></linearGradient></defs><path class="uuid-70546734-9bf6-4b6a-abb8-d7b94ec56f67" d="M39,16v25c0,1.105-.895,2-2,2H11c-1.105,0-2-.895-2-2V7c0-1.105.895-2,2-2h17l3,8,8,3Z"/><path class="uuid-487f6182-2433-435a-ac54-47a6d1b3e8ea" d="M31,13l-3-8h-1v9c0,1.6543,1.3457,3,3,3h9v-1l-8-3Z"/><path class="uuid-39e1cfb0-e088-44a4-b8a6-13fd31a8ee69" d="M31,13l-3-8h-.5v9c0,1.3789,1.1216,2.5,2.5,2.5h9v-.5l-8-3Z"/><path class="uuid-582ab11d-450c-4d2f-9315-6c3e25e1152c" d="M28,5v9c0,1.105.895,2,2,2h9l-11-11Z"/></svg>