<?xml version="1.0" encoding="UTF-8"?><svg id="uuid-e415a3c1-93f4-4c5f-837a-16db38d60bc2" xmlns="http://www.w3.org/2000/svg" width="48" height="48" xmlns:xlink="http://www.w3.org/1999/xlink" viewBox="0 0 48 48"><defs><style>.uuid-55958a49-13e1-468d-9e0d-6bbb61849007{opacity:.07;}.uuid-55958a49-13e1-468d-9e0d-6bbb61849007,.uuid-418518b1-4af6-4c54-b4b0-dd9c3be0f60d,.uuid-a67ae9d6-ec4e-4898-ae07-0fbe61869315,.uuid-df8ed002-eca0-4901-851c-5d77a341709d,.uuid-fedfc6a3-e108-40b2-82df-9fac89194a59,.uuid-7fdd4479-2921-472f-8131-ca18cddc3914,.uuid-366f7ecd-083d-4666-9cfd-e4a369259e3a,.uuid-e3273065-7861-48b3-906e-33c32c65ba22,.uuid-1a180d3a-3a6f-4bdf-96a4-9cf4dea7e8ea{stroke-width:0px;}.uuid-55958a49-13e1-468d-9e0d-6bbb61849007,.uuid-fedfc6a3-e108-40b2-82df-9fac89194a59{isolation:isolate;}.uuid-418518b1-4af6-4c54-b4b0-dd9c3be0f60d,.uuid-7fdd4479-2921-472f-8131-ca18cddc3914{opacity:.05;}.uuid-a67ae9d6-ec4e-4898-ae07-0fbe61869315,.uuid-7fdd4479-2921-472f-8131-ca18cddc3914,.uuid-366f7ecd-083d-4666-9cfd-e4a369259e3a{fill-rule:evenodd;}.uuid-a67ae9d6-ec4e-4898-ae07-0fbe61869315,.uuid-e3273065-7861-48b3-906e-33c32c65ba22{opacity:.07;}.uuid-df8ed002-eca0-4901-851c-5d77a341709d{fill:#c15227;}.uuid-fedfc6a3-e108-40b2-82df-9fac89194a59{opacity:.05;}.uuid-366f7ecd-083d-4666-9cfd-e4a369259e3a{fill:#3f474f;}.uuid-1a180d3a-3a6f-4bdf-96a4-9cf4dea7e8ea{fill:url(#uuid-63db38e3-779f-4255-87bf-9d85d8861848);}</style><linearGradient id="uuid-63db38e3-779f-4255-87bf-9d85d8861848" x1="12.8839" y1="5.1912" x2="35.3341" y2="41.7182" gradientUnits="userSpaceOnUse"><stop offset="0" stop-color="#ff9c0d"/><stop offset="1" stop-color="#f36e22"/></linearGradient></defs><path class="uuid-df8ed002-eca0-4901-851c-5d77a341709d" d="M36,17v25c0,1.105-.895,2-2,2H10c-1.105,0-2-.895-2-2V10c0-1.105.895-2,2-2h17l9,9Z"/><path class="uuid-fedfc6a3-e108-40b2-82df-9fac89194a59" d="M10,8h21.8889l4.1111,4.0556v29.9444H13.681c-2.033,0-3.681-1.648-3.681-3.681V8Z"/><path class="uuid-55958a49-13e1-468d-9e0d-6bbb61849007" d="M11,8h19.941c2.794,0,5.059,2.265,5.059,5.059v27.941H13.839c-1.568,0-2.839-1.271-2.839-2.839V8Z"/><path class="uuid-1a180d3a-3a6f-4bdf-96a4-9cf4dea7e8ea" d="M40.2105,14.4211v23.6842c0,1.0468-.8479,1.8947-1.8947,1.8947H13.6842c-1.0468,0-1.8947-.8479-1.8947-1.8947V5.8947c0-1.0468.8479-1.8947,1.8947-1.8947h16.1053l2.8421,7.5789,7.5789,2.8421Z"/><path class="uuid-418518b1-4af6-4c54-b4b0-dd9c3be0f60d" d="M29.7626,4h-1.048v8.3838c0,1.7337,1.4103,3.1439,3.1439,3.1439h8.3838v-1.048l-10.4798-10.4798Z"/><path class="uuid-e3273065-7861-48b3-906e-33c32c65ba22" d="M29.7626,4h-.524v8.3838c0,1.4451,1.1749,2.6199,2.6199,2.6199h8.3838v-.524l-10.4798-10.4798Z"/><path class="uuid-df8ed002-eca0-4901-851c-5d77a341709d" d="M29.7895,4v8.5263c0,1.0468.8479,1.8947,1.8947,1.8947h8.5263l-10.4211-10.4211Z"/><path class="uuid-7fdd4479-2921-472f-8131-ca18cddc3914" d="M26.0928,17.1455c-1.4287-.4414-3.3848-1.0459-5.75-1.0459l-.1631.001c-2.2158.0264-4.3828.6289-6.4365,1.7881-.6339.3475-1.3083.7977-1.9537,1.299v5.8953c.2743-.0001.5397-.1143.7281-.3144,1.2285-1.3037,2.583-2.1904,3.168-2.5732,1.3896-.9092,2.6924-1.3145,4.2227-1.3145.9346,0,1.998.1416,3.4443.46,2.8965.6426,5.6289,3.7812,6.1357,6.1582.7344,3.4326-.0537,5.9463-2.6348,8.4062-1.0039.957-2.5039,1.4844-4.2256,1.4844-1.4971,0-3.0352-.4043-4.0127-1.0547-1.9414-1.2861-3.1924-2.3369-2.9082-5.1113.2871-2.7861,3.0469-4.084,4.8223-4.084.0986,0,.1943.0039.2881.0117,1.0684.0898,1.9355.5449,2.3799,1.25.2822.4492.3564.9404.2031,1.3477-.376.999-1.1777,1.4492-1.627,1.4492-.1426,0-.2461-.04-.3379-.1318-.293-.292-.4482-.5674-.4492-.7969,0-.1963.1182-.3203.124-.3262.3154-.3018.3984-.7686.2061-1.1631-.1689-.3447-.5137-.5596-.8975-.5596-.0244,0-.1201.0068-.1445.0098-.1035.0156-2.54.3906-3.4844,2.2188-.5615,1.0879-.4717,2.375.2686,3.8252.8447,1.6543,2.4199,2.5654,4.4346,2.5654,2.8789,0,5.7734-1.8672,6.8828-4.4404.4531-1.0518,1.3721-3.7725.1113-6.3213-1.0049-2.0293-3.1133-3.457-6.2656-4.2432-.6963-.1729-1.4043-.2607-2.1055-.2607-3.2123,0-6.329,1.8637-8.3267,4.8638v10.6995c.9631,1.2329,2.1158,2.1891,3.081,2.8624h15.4268c5.0933-3.7655,6.7096-10.7452,4.9196-14.8945-1.5566-3.6104-5.1387-6.7354-9.124-7.96Z"/><path class="uuid-a67ae9d6-ec4e-4898-ae07-0fbe61869315" d="M25.9453,17.623c-1.4004-.4326-3.3184-1.0234-5.5996-1.0234l-.1602.001c-2.1309.0254-4.207.6006-6.2021,1.7266-.7104.39-1.4758.9191-2.1939,1.5051v4.7507c.1346-.0001.2673-.0547.3638-.1572,1.2744-1.3525,2.665-2.2607,3.2588-2.6494,1.4756-.9648,2.8623-1.3955,4.4961-1.3955.9727,0,2.0684.1455,3.5527.4717,3.167.7031,5.9766,4.0117,6.5166,6.542.7754,3.624-.0557,6.2773-2.7793,8.873-1.0967,1.0459-2.7197,1.6221-4.5703,1.6221-1.5898,0-3.2334-.4355-4.2891-1.1377-2.0293-1.3447-3.4414-2.5322-3.1289-5.5791.3184-3.0928,3.3623-4.5332,5.3193-4.5332.1123,0,.2217.0049.3301.0137,1.2256.1025,2.2324.6426,2.7607,1.4814.3672.583.458,1.2344.248,1.79-.4336,1.1523-1.4033,1.7734-2.0947,1.7734-.2734,0-.5059-.0928-.6904-.2773-1.0273-1.0215-.4424-1.7148-.3184-1.8389.1572-.1504.1992-.3848.1035-.5811-.085-.1729-.2598-.2803-.4492-.2803-.0234,0-.0479.002-.0723.0049-.0938.0137-2.2861.3535-3.1123,1.9531-.4834.9365-.3926,2.0703.2695,3.3682.7549,1.4785,2.1719,2.293,3.9893,2.293,2.6885,0,5.3896-1.7402,6.4238-4.1387.4258-.9873,1.291-3.5381.1221-5.9014-.9365-1.8916-2.9346-3.2305-5.9385-3.9795-.6553-.1631-1.3232-.2461-1.9844-.2461-3.2853,0-6.4583,2.0804-8.3267,5.348v8.8767c1.0802,1.5818,2.5555,2.7593,3.6705,3.5009.0985.0652.2079.133.3147.2002h13.671c.0163-.0107.032-.0194.0485-.0303,5.3115-3.5215,7.0371-10.5557,5.2637-14.666-1.501-3.4814-4.9326-6.4883-8.8125-7.6807Z"/><path id="uuid-86b75d2f-0c6e-40c7-961f-fb555f641129" class="uuid-366f7ecd-083d-4666-9cfd-e4a369259e3a" d="M20.1915,17.1002c-1.7976.022-3.8163.4517-5.9325,1.6463-.0452.0274-1.1444.591-2.4695,1.7315v3.6049c1.242-1.3188,2.5583-2.2079,3.3494-2.725,2.694-1.7626,4.9989-1.7481,8.4304-.9935,3.3.7317,6.2929,4.0967,6.8976,6.926.8088,3.7793-.0366,6.5878-2.9237,9.3387-2.6541,2.5319-7.3094,1.9816-9.4806.5393-2.1777-1.443-3.6851-2.78-3.3494-6.046.3547-3.4488,3.865-5.1667,6.1879-4.9674,2.7732.2331,4.0229,2.3918,3.4346,3.9455-.6701,1.7805-2.5906,2.6898-3.6049,1.6747-1.4632-1.4551-.3122-2.5547-.3122-2.5547,0,0-4.4804.658-2.4695,4.5984,1.8505,3.6246,7.8731,1.978,9.509-1.8167.9109-2.1097,2.1064-7.3062-5.4783-9.1968-4.4654-1.1157-8.4405,1.9591-10.1902,5.6487v6.8976c.9501,1.6951,2.4928,3.0641,3.9455,4.0307.2938.1949.6277.4031.9935.5961h11.8082c.2316-.1325.4503-.273.6812-.4258,5.2827-3.503,6.6462-10.4223,5.0809-14.0507-1.3434-3.1177-4.4695-6.1626-8.4304-7.3802-1.4105-.4348-3.3659-1.0502-5.677-1.0219Z"/></svg>