<?xml version="1.0" encoding="UTF-8"?><svg id="uuid-43921f40-0f06-4e1d-bdf1-e168194ee06f" xmlns="http://www.w3.org/2000/svg" width="48" height="48" xmlns:xlink="http://www.w3.org/1999/xlink" viewBox="0 0 48 48"><defs><style>.uuid-e2f0e168-a236-4104-83f7-391c25c384a6,.uuid-4d1b9692-3ddb-4d0b-91f3-c3f425797df1,.uuid-4be98562-820f-44c9-80de-cf799acefc75,.uuid-93959fc2-9fa2-441e-bc3f-73f8731b3dab,.uuid-8048445a-a8c6-4b2f-9627-e32503036704,.uuid-23cc47cf-014e-4d03-b82c-a479400925ac,.uuid-86c0f859-5682-4d11-9915-73393466db40,.uuid-0835872e-67e2-476b-8d7e-c0b7941d87ea,.uuid-eca860a7-7964-4aea-9c7c-b48abfb6ccae,.uuid-f5e49d3a-f9fc-4c2e-b16c-7695befa4e70,.uuid-f9d16e6e-72ca-4744-937e-4a28d2eb3c48{stroke-width:0px;}.uuid-e2f0e168-a236-4104-83f7-391c25c384a6,.uuid-92def19e-c141-4571-a907-08e127f1e9e3{opacity:.05;}.uuid-4be98562-820f-44c9-80de-cf799acefc75{fill:url(#uuid-84d94b46-4033-4739-a07a-baac36ee8bb0);}.uuid-8943c26e-680d-4256-b5e9-9899cc9fb709,.uuid-f9d16e6e-72ca-4744-937e-4a28d2eb3c48{opacity:.07;}.uuid-93959fc2-9fa2-441e-bc3f-73f8731b3dab{fill:url(#uuid-2cdf0873-dcb4-4d28-8194-ff67685dfc4c);}.uuid-8048445a-a8c6-4b2f-9627-e32503036704{fill:url(#uuid-266fe893-1ebd-4bee-946e-0eaabf1e1e66);}.uuid-23cc47cf-014e-4d03-b82c-a479400925ac{fill:#c15227;}.uuid-86c0f859-5682-4d11-9915-73393466db40{fill:#3f474f;}.uuid-0835872e-67e2-476b-8d7e-c0b7941d87ea{fill:url(#uuid-f5b71f0f-e5e0-40cf-8b44-7af32f3d0b2a);}.uuid-eca860a7-7964-4aea-9c7c-b48abfb6ccae{fill:url(#uuid-d69dfc42-ca78-4e29-81b7-e6275755f589);}.uuid-f5e49d3a-f9fc-4c2e-b16c-7695befa4e70{fill:url(#uuid-df6f99b7-7411-4ea8-829d-41a66ec57dd0);}</style><linearGradient id="uuid-df6f99b7-7411-4ea8-829d-41a66ec57dd0" x1="10.1552" y1="6.2574" x2="33.8526" y2="44.8137" gradientUnits="userSpaceOnUse"><stop offset="0" stop-color="#ff9c0d"/><stop offset="1" stop-color="#f36e22"/></linearGradient><linearGradient id="uuid-f5b71f0f-e5e0-40cf-8b44-7af32f3d0b2a" x1="42.8994" y1="15.9004" x2="45.3806" y2="19.8711" gradientUnits="userSpaceOnUse"><stop offset="0" stop-color="#e63b65"/><stop offset="1" stop-color="#cb264f"/></linearGradient><radialGradient id="uuid-266fe893-1ebd-4bee-946e-0eaabf1e1e66" cx="26.0104" cy="36.3898" fx="26.0104" fy="36.3898" r="4.5943" gradientUnits="userSpaceOnUse"><stop offset="0" stop-color="#fafafb"/><stop offset=".293" stop-color="#f6f7f8"/><stop offset=".566" stop-color="#ebecee"/><stop offset=".832" stop-color="#d8dcdf"/><stop offset="1" stop-color="#c8cdd1"/></radialGradient><linearGradient id="uuid-84d94b46-4033-4739-a07a-baac36ee8bb0" x1="31.9037" y1="24.1667" x2="36.4197" y2="31.3939" xlink:href="#uuid-df6f99b7-7411-4ea8-829d-41a66ec57dd0"/><radialGradient id="uuid-2cdf0873-dcb4-4d28-8194-ff67685dfc4c" cx="40.4306" cy="276.323" fx="40.4306" fy="276.323" r="5.7651" gradientTransform="translate(0 294) scale(1 -1)" xlink:href="#uuid-266fe893-1ebd-4bee-946e-0eaabf1e1e66"/><linearGradient id="uuid-d69dfc42-ca78-4e29-81b7-e6275755f589" x1="25.0505" y1="35.122" x2="26.2171" y2="36.9889" gradientUnits="userSpaceOnUse"><stop offset="0" stop-color="#64717c"/><stop offset="1" stop-color="#30363d"/></linearGradient></defs><path class="uuid-f5e49d3a-f9fc-4c2e-b16c-7695befa4e70" d="M39,16v25c0,1.105-.895,2-2,2H11c-1.105,0-2-.895-2-2V7c0-1.105.895-2,2-2h17l3,8,8,3Z"/><path class="uuid-e2f0e168-a236-4104-83f7-391c25c384a6" d="M31,13l-3-8h-1v9c0,1.6543,1.3457,3,3,3h9v-1l-8-3Z"/><path class="uuid-f9d16e6e-72ca-4744-937e-4a28d2eb3c48" d="M31,13l-3-8h-.5v9c0,1.3789,1.1216,2.5,2.5,2.5h9v-.5l-8-3Z"/><path class="uuid-23cc47cf-014e-4d03-b82c-a479400925ac" d="M28,5v9c0,1.105.895,2,2,2h9l-11-11Z"/><g class="uuid-92def19e-c141-4571-a907-08e127f1e9e3"><rect class="uuid-4d1b9692-3ddb-4d0b-91f3-c3f425797df1" x="14" y="21" width="20" height="4" rx="1.5" ry="1.5"/><rect class="uuid-4d1b9692-3ddb-4d0b-91f3-c3f425797df1" x="14" y="25" width="18" height="4" rx="1.5" ry="1.5"/><rect class="uuid-4d1b9692-3ddb-4d0b-91f3-c3f425797df1" x="14" y="29" width="20" height="4" rx="1.5" ry="1.5"/><rect class="uuid-4d1b9692-3ddb-4d0b-91f3-c3f425797df1" x="14" y="33" width="18" height="4" rx="1.5" ry="1.5"/></g><g class="uuid-8943c26e-680d-4256-b5e9-9899cc9fb709"><rect class="uuid-4d1b9692-3ddb-4d0b-91f3-c3f425797df1" x="14.5" y="21.5" width="19" height="3" rx="1" ry="1"/><rect class="uuid-4d1b9692-3ddb-4d0b-91f3-c3f425797df1" x="14.5" y="25.5" width="17" height="3" rx="1" ry="1"/><rect class="uuid-4d1b9692-3ddb-4d0b-91f3-c3f425797df1" x="14.5" y="29.5" width="19" height="3" rx="1" ry="1"/><rect class="uuid-4d1b9692-3ddb-4d0b-91f3-c3f425797df1" x="14.5" y="33.5" width="17" height="3" rx="1" ry="1"/></g><path class="uuid-86c0f859-5682-4d11-9915-73393466db40" d="M32.5,24H15.5c-.276,0-.5-.224-.5-.5v-1c0-.276.224-.5.5-.5h17c.276,0,.5.224.5.5v1c0,.276-.224.5-.5.5Z"/><path class="uuid-86c0f859-5682-4d11-9915-73393466db40" d="M30.5,28h-15c-.276,0-.5-.224-.5-.5v-1c0-.276.224-.5.5-.5h15c.276,0,.5.224.5.5v1c0,.276-.224.5-.5.5Z"/><path class="uuid-86c0f859-5682-4d11-9915-73393466db40" d="M32.5,32H15.5c-.276,0-.5-.224-.5-.5v-1c0-.276.224-.5.5-.5h17c.276,0,.5.224.5.5v1c0,.276-.224.5-.5.5Z"/><path class="uuid-86c0f859-5682-4d11-9915-73393466db40" d="M30.5,36h-15c-.276,0-.5-.224-.5-.5v-1c0-.276.224-.5.5-.5h15c.276,0,.5.224.5.5v1c0,.276-.224.5-.5.5Z"/><path class="uuid-e2f0e168-a236-4104-83f7-391c25c384a6" d="M39,18.3663l-13.6744,13.6752c-.127.1274-.2168.2861-.2627.4614l-1.0635,4.2275c-.083.3384.0176.7017.2627.9478.1855.187.4443.2939.708.2939.084,0,.166-.0103.2441-.0303l4.2246-1.0645c.1768-.0439.3379-.1353.4639-.2627l9.0972-9.0967v-9.1517Z"/><path class="uuid-f9d16e6e-72ca-4744-937e-4a28d2eb3c48" d="M39,19.0733l-13.3199,13.3203c-.0635.064-.1094.144-.1318.2314l-1.0635,4.2251c-.042.1704.0078.3511.1318.4756.0947.0952.2227.1465.3535.1465.041,0,.082-.0049.1221-.0151l4.2256-1.0645c.0879-.022.168-.0674.2314-.1313l9.4507-9.4502v-7.7377Z"/><path class="uuid-0835872e-67e2-476b-8d7e-c0b7941d87ea" d="M45.9448,18.0345l-2.0376-2.037c-.3097-.3103-.8142-.3103-1.1245,0l-.9588.9599,3.161,3.161.9599-.9588c.3103-.3109.3103-.8137,0-1.1251"/><path class="uuid-8048445a-a8c6-4b2f-9627-e32503036704" d="M26.0335,32.7473l-1.0632,4.2247,4.2253-1.0637.4431-3.6649-3.6052.504Z"/><path class="uuid-4be98562-820f-44c9-80de-cf799acefc75" d="M42.2888,22.8145l-13.0927,13.0932-3.1615-3.1616,13.0927-13.0932,3.1616,3.1615Z"/><path class="uuid-93959fc2-9fa2-441e-bc3f-73f8731b3dab" d="M39.125,19.6535l2.6967-2.6978,3.1632,3.161-2.6967,2.6978-3.1632-3.161Z"/><path class="uuid-eca860a7-7964-4aea-9c7c-b48abfb6ccae" d="M25.5089,34.8356l-.5386,2.1363,2.1358-.5386-1.5972-1.5978Z"/></svg>