<?xml version="1.0" encoding="UTF-8"?><svg id="uuid-e952c79f-8d2b-4ec5-99e8-ff5ce131542c" xmlns="http://www.w3.org/2000/svg" width="48" height="48" xmlns:xlink="http://www.w3.org/1999/xlink" viewBox="0 0 48 48"><defs><style>.uuid-a4168a8a-d98c-46f3-ada1-2e998889ec4b{fill:url(#uuid-87bd5f8e-d107-43e5-abfb-c7bb149b6a30);}.uuid-a4168a8a-d98c-46f3-ada1-2e998889ec4b,.uuid-7b93c28b-a82c-4605-87fe-b654f07e20f7,.uuid-4a380c6d-9e49-4821-b1d7-2947ea9e605a,.uuid-6dbd56fe-044e-42de-b890-6f5f643a1b17,.uuid-6ee3937a-2f30-4b9d-9759-792b433a0892,.uuid-e3ba9227-e372-4c1f-86cc-7437a4c0a818,.uuid-baf89a86-037d-4988-aa17-d7b37e1119de{stroke-width:0px;}.uuid-7b93c28b-a82c-4605-87fe-b654f07e20f7{opacity:.05;}.uuid-4a380c6d-9e49-4821-b1d7-2947ea9e605a{fill:#30363d;opacity:.5;}.uuid-6dbd56fe-044e-42de-b890-6f5f643a1b17{fill:#088dd3;}.uuid-6ee3937a-2f30-4b9d-9759-792b433a0892{fill:url(#uuid-d19375fb-fe16-4b9a-9d45-94711013495f);}.uuid-e3ba9227-e372-4c1f-86cc-7437a4c0a818{opacity:.07;}.uuid-baf89a86-037d-4988-aa17-d7b37e1119de{fill:url(#uuid-1c0bcf77-fc88-43d3-824e-ff081e4285d1);}</style><linearGradient id="uuid-1c0bcf77-fc88-43d3-824e-ff081e4285d1" x1="12.8862" y1=".0747" x2="32.3788" y2="50.2604" gradientUnits="userSpaceOnUse"><stop offset="0" stop-color="#32bdef"/><stop offset="1" stop-color="#1ea2e4"/></linearGradient><linearGradient id="uuid-87bd5f8e-d107-43e5-abfb-c7bb149b6a30" x1="29.94" y1="22.3037" x2="32.06" y2="25.6963" gradientUnits="userSpaceOnUse"><stop offset="0" stop-color="#fff"/><stop offset=".242" stop-color="#f2f2f2"/><stop offset="1" stop-color="#ccc"/></linearGradient><linearGradient id="uuid-d19375fb-fe16-4b9a-9d45-94711013495f" x1="22.778" y1="257.9781" x2="22.778" y2="268.1191" gradientTransform="translate(0 294) scale(1 -1)" gradientUnits="userSpaceOnUse"><stop offset="0" stop-color="#30363d"/><stop offset="1" stop-color="#64717c"/></linearGradient></defs><path class="uuid-baf89a86-037d-4988-aa17-d7b37e1119de" d="M39,16v25c0,1.105-.895,2-2,2H11c-1.105,0-2-.895-2-2V7c0-1.105.895-2,2-2h17l11,11Z"/><path class="uuid-7b93c28b-a82c-4605-87fe-b654f07e20f7" d="M31,13l-3-8h-1v9c0,1.6543,1.3457,3,3,3h9v-1l-8-3Z"/><path class="uuid-e3ba9227-e372-4c1f-86cc-7437a4c0a818" d="M31,13l-3-8h-.5v9c0,1.3789,1.1216,2.5,2.5,2.5h9v-.5l-8-3Z"/><path class="uuid-6dbd56fe-044e-42de-b890-6f5f643a1b17" d="M28,5v9c0,1.105.895,2,2,2h9l-11-11Z"/><path class="uuid-4a380c6d-9e49-4821-b1d7-2947ea9e605a" d="M34,34l-5.458-5.458c-.673-.673-1.758-.687-2.449-.033l-5.426,5.141v2.35h12.333c.552,0,1-.448,1-1v-1Z"/><circle class="uuid-a4168a8a-d98c-46f3-ada1-2e998889ec4b" cx="31" cy="24" r="2"/><path class="uuid-6ee3937a-2f30-4b9d-9759-792b433a0892" d="M31.556,36l-9.248-9.248c-.913-.913-2.388-.933-3.325-.045l-4.983,4.72v2.573c0,1.105.895,2,2,2h15.556Z"/></svg>