<?xml version="1.0" encoding="UTF-8"?><svg id="uuid-6167f833-bc2a-4a19-8b91-a9c4597ffd36" xmlns="http://www.w3.org/2000/svg" width="48" height="48" xmlns:xlink="http://www.w3.org/1999/xlink" viewBox="0 0 48 48"><defs><style>.uuid-f21376b2-8db6-4b30-bf8a-295d3bea9655{opacity:.05;}.uuid-f21376b2-8db6-4b30-bf8a-295d3bea9655,.uuid-9a491670-2034-4610-8f02-dc3c2d75a7ec,.uuid-0daf06e1-121f-44e3-98bf-829c7b144b7f,.uuid-26fac37d-06ca-409c-8492-373758277e7f,.uuid-a82a2ab7-86b4-4d9e-956d-9d9a422ebe81,.uuid-2c820e92-6c4b-4a4b-9b7f-ddd0ddb56ec9,.uuid-96d89b60-536c-45c3-b5fe-397a85a53ca2{stroke-width:0px;}.uuid-9a491670-2034-4610-8f02-dc3c2d75a7ec,.uuid-a82a2ab7-86b4-4d9e-956d-9d9a422ebe81{isolation:isolate;}.uuid-9a491670-2034-4610-8f02-dc3c2d75a7ec,.uuid-96d89b60-536c-45c3-b5fe-397a85a53ca2{opacity:.07;}.uuid-0daf06e1-121f-44e3-98bf-829c7b144b7f{fill:#c15227;}.uuid-26fac37d-06ca-409c-8492-373758277e7f{fill:url(#uuid-eada7a9b-cd68-4b6a-baa9-2d29111c6107);}.uuid-a82a2ab7-86b4-4d9e-956d-9d9a422ebe81{opacity:.05;}.uuid-2c820e92-6c4b-4a4b-9b7f-ddd0ddb56ec9{fill:#3f474f;}</style><linearGradient id="uuid-eada7a9b-cd68-4b6a-baa9-2d29111c6107" x1="10.1552" y1="6.2574" x2="33.8526" y2="44.8137" gradientUnits="userSpaceOnUse"><stop offset="0" stop-color="#ff9c0d"/><stop offset="1" stop-color="#f36e22"/></linearGradient></defs><path class="uuid-26fac37d-06ca-409c-8492-373758277e7f" d="M39,16v25c0,1.105-.895,2-2,2H11c-1.105,0-2-.895-2-2V7c0-1.105.895-2,2-2h17l3,8,8,3Z"/><path class="uuid-f21376b2-8db6-4b30-bf8a-295d3bea9655" d="M31,13l-3-8h-1v9c0,1.6543,1.3457,3,3,3h9v-1l-8-3Z"/><path class="uuid-96d89b60-536c-45c3-b5fe-397a85a53ca2" d="M31,13l-3-8h-.5v9c0,1.3789,1.1216,2.5,2.5,2.5h9v-.5l-8-3Z"/><path class="uuid-0daf06e1-121f-44e3-98bf-829c7b144b7f" d="M28,5v9c0,1.105.895,2,2,2h9l-11-11Z"/><path class="uuid-a82a2ab7-86b4-4d9e-956d-9d9a422ebe81" d="M21.886,29.187c-.381-.411-.908-.766-1.604-1.079v-.315c.123.056.241.118.354.187l.761.467.762.467v-3.994l-.254-.143-.254-.143c-.366-.207-.816-.352-1.368-.442v-1.192h-2.87v1.305c-.567.18-1.057.475-1.46.88-.633.636-.953,1.415-.953,2.315,0,.823.249,1.539.74,2.129.364.435.913.817,1.672,1.162v.26c-.375-.141-.548-.255-.619-.314l-.817-.668-.817-.668v4.38l.267.141.267.141c.541.284,1.116.479,1.718.582v1.355h2.87v-1.487c.6-.176,1.103-.459,1.5-.843.622-.6.937-1.383.937-2.327.002-.835-.278-1.561-.832-2.156Z"/><path class="uuid-9a491670-2034-4610-8f02-dc3c2d75a7ec" d="M21.52,29.527c-.384-.414-.955-.772-1.737-1.089v-1.343c.403.097.777.251,1.115.458l.761.467v-2.809l-.254-.143c-.398-.225-.932-.369-1.622-.438v-1.13h-1.87v1.19c-.641.136-1.18.42-1.606.848-.536.538-.807,1.198-.807,1.962,0,.703.21,1.311.625,1.809.357.427.944.806,1.788,1.154v1.265c-.174-.041-.36-.096-.555-.165-.401-.141-.697-.288-.881-.439l-.817-.668v3.023l.267.141c.618.325,1.284.521,1.985.586v1.294h1.87v-1.378c.684-.139,1.239-.411,1.653-.811.521-.502.785-1.164.785-1.968,0-.705-.235-1.316-.7-1.816Z"/><polygon class="uuid-a82a2ab7-86b4-4d9e-956d-9d9a422ebe81" points="30.5 33 30 33 24 33 23.5 33 23 33 23 33.5 23 34 23 35 23 35.5 23 36 23.5 36 24 36 30 36 30.5 36 31 36 31 35.5 31 35 31 34 31 33.5 31 33 30.5 33"/><polygon class="uuid-9a491670-2034-4610-8f02-dc3c2d75a7ec" points="30 33.5 24 33.5 23.5 33.5 23.5 34 23.5 35 23.5 35.5 24 35.5 30 35.5 30.5 35.5 30.5 35 30.5 34 30.5 33.5 30 33.5"/><path class="uuid-2c820e92-6c4b-4a4b-9b7f-ddd0ddb56ec9" d="M19.283,33.695v1.305h-.87v-1.269c-.807-.004-1.557-.188-2.252-.553v-1.666c.23.188.574.363,1.031.523.457.161.864.253,1.221.277v-2.189c-.93-.349-1.564-.727-1.904-1.133-.339-.408-.509-.904-.509-1.49,0-.63.22-1.166.661-1.609s1.025-.7,1.752-.773v-1.118h.87v1.095c.838.04,1.464.176,1.877.409v1.624c-.556-.341-1.182-.549-1.877-.625v2.279c.87.317,1.493.679,1.871,1.086.378.407.567.899.567,1.476,0,.666-.211,1.202-.633,1.609-.421.406-1.022.654-1.805.742ZM18.413,28.432v-1.907c-.552.1-.829.391-.829.872,0,.414.277.759.829,1.035ZM19.283,30.465v1.822c.568-.088.852-.375.852-.86-.001-.392-.284-.713-.852-.962Z"/><rect class="uuid-2c820e92-6c4b-4a4b-9b7f-ddd0ddb56ec9" x="24" y="34" width="6" height="1"/></svg>