<?xml version="1.0" encoding="UTF-8"?><svg id="uuid-1ddd5201-b67d-433d-b8b0-56d5d82bda32" xmlns="http://www.w3.org/2000/svg" width="48" height="48" xmlns:xlink="http://www.w3.org/1999/xlink" viewBox="0 0 48 48"><defs><style>.uuid-8752c3a9-056b-42d5-b4be-a2605316c6e0{fill:url(#uuid-b3f3be97-5e3b-44fa-84a1-6fcfec7855e0);}.uuid-8752c3a9-056b-42d5-b4be-a2605316c6e0,.uuid-f7a2fc7a-7d8a-490e-a981-c1d97241067c,.uuid-9abb3265-29c8-4d84-83f2-a5c88dce0836,.uuid-11d62697-2e46-490b-9db4-155b40b119da,.uuid-0efea43f-435e-47c0-9cda-a0b902d07e37,.uuid-34fe1f57-5256-45b8-8ca1-e0d0de92db26,.uuid-8162c65c-3b17-41d3-946b-4fa9882262f9,.uuid-90ac164d-c137-48f5-9c2d-67e619f378d9,.uuid-0b975536-9a11-4325-8eca-1f98644a3e84,.uuid-abe2e987-239b-459b-98f7-ae29f3881894,.uuid-3f2a573b-8c63-439e-903f-c49162c1a589,.uuid-a7256d1d-2d75-41cc-ad7d-e59a18e4053b{stroke-width:0px;}.uuid-f7a2fc7a-7d8a-490e-a981-c1d97241067c{fill:url(#uuid-fade034d-aeec-4bab-9235-92c68e501ab3);}.uuid-9abb3265-29c8-4d84-83f2-a5c88dce0836,.uuid-fe8be1b8-b678-4571-9a85-20bcb2345b56{opacity:.05;}.uuid-0efea43f-435e-47c0-9cda-a0b902d07e37{fill:url(#uuid-2b3726c7-3a4e-41f0-9525-f1ace5b2a0ef);}.uuid-34fe1f57-5256-45b8-8ca1-e0d0de92db26{fill:url(#uuid-21937897-3a11-4ac6-9de0-814b2ce6fbd6);}.uuid-504ad2cb-7081-4d05-9a31-9bdb71784b08,.uuid-3f2a573b-8c63-439e-903f-c49162c1a589{opacity:.07;}.uuid-8162c65c-3b17-41d3-946b-4fa9882262f9{fill:url(#uuid-e0b5a7f5-0810-4b10-8885-41eba24935f1);}.uuid-90ac164d-c137-48f5-9c2d-67e619f378d9{fill:url(#uuid-250da9f9-bcb9-4641-bfe3-c7ecbbe1e5ed);}.uuid-0b975536-9a11-4325-8eca-1f98644a3e84{fill:url(#uuid-bd4fdeda-6891-486d-84d7-272349b22a85);}.uuid-abe2e987-239b-459b-98f7-ae29f3881894{fill:url(#uuid-6bebc875-2b3c-40e8-96da-d177600cbd90);}.uuid-a7256d1d-2d75-41cc-ad7d-e59a18e4053b{fill:url(#uuid-53430d3d-be8d-4577-b898-2c573c92fc17);}</style><linearGradient id="uuid-2b3726c7-3a4e-41f0-9525-f1ace5b2a0ef" x1="38.1671" y1="42.9767" x2="43.0826" y2="34.979" gradientUnits="userSpaceOnUse"><stop offset="0" stop-color="#ff9c0d"/><stop offset="1" stop-color="#f36e22"/></linearGradient><radialGradient id="uuid-b3f3be97-5e3b-44fa-84a1-6fcfec7855e0" cx="34.2926" cy="452.1809" fx="34.2926" fy="452.1809" r="39.3529" gradientTransform="translate(460.912 -23.0603) rotate(90)" gradientUnits="userSpaceOnUse"><stop offset="0" stop-color="#fafafb"/><stop offset=".293" stop-color="#f6f7f8"/><stop offset=".566" stop-color="#ebecee"/><stop offset=".832" stop-color="#d8dcdf"/><stop offset="1" stop-color="#c8cdd1"/></radialGradient><linearGradient id="uuid-250da9f9-bcb9-4641-bfe3-c7ecbbe1e5ed" x1="21.292" y1="13.4117" x2="26.38" y2="5.1335" xlink:href="#uuid-2b3726c7-3a4e-41f0-9525-f1ace5b2a0ef"/><linearGradient id="uuid-53430d3d-be8d-4577-b898-2c573c92fc17" x1="21.7958" y1="12.5922" x2="25.8647" y2="5.972" xlink:href="#uuid-2b3726c7-3a4e-41f0-9525-f1ace5b2a0ef"/><linearGradient id="uuid-6bebc875-2b3c-40e8-96da-d177600cbd90" x1="21.292" y1="13.4117" x2="26.38" y2="5.1335" xlink:href="#uuid-2b3726c7-3a4e-41f0-9525-f1ace5b2a0ef"/><linearGradient id="uuid-fade034d-aeec-4bab-9235-92c68e501ab3" x1="8.292" y1="26.4117" x2="13.38" y2="18.1335" xlink:href="#uuid-2b3726c7-3a4e-41f0-9525-f1ace5b2a0ef"/><linearGradient id="uuid-bd4fdeda-6891-486d-84d7-272349b22a85" x1="34.292" y1="26.4117" x2="39.38" y2="18.1335" xlink:href="#uuid-2b3726c7-3a4e-41f0-9525-f1ace5b2a0ef"/><linearGradient id="uuid-21937897-3a11-4ac6-9de0-814b2ce6fbd6" x1="21.292" y1="38.5169" x2="26.38" y2="30.2387" xlink:href="#uuid-2b3726c7-3a4e-41f0-9525-f1ace5b2a0ef"/><linearGradient id="uuid-e0b5a7f5-0810-4b10-8885-41eba24935f1" x1="9.6838" y1="24.5301" x2="18.447" y2="38.788" xlink:href="#uuid-2b3726c7-3a4e-41f0-9525-f1ace5b2a0ef"/></defs><path class="uuid-0efea43f-435e-47c0-9cda-a0b902d07e37" d="M40.3018,36.0169v-2.8443h-3.1111v4.133c0,2.2863.9082,4.479,2.5249,6.0957l1.8225,1.8225c.6075.6075,1.5924.6075,2.1999,0h0c.6075-.6075.6075-1.5924,0-2.1999l-.9112-.9112c-1.6167-1.6167-2.5249-3.8093-2.5249-6.0957Z"/><path class="uuid-8752c3a9-056b-42d5-b4be-a2605316c6e0" d="M23.8064,42.3207c-11.045,0-20-8.955-20-20S12.7614,2.3207,23.8064,2.3207c11.045,0,20,8.955,20,20,0,11.045-8.955,20-20,20Z"/><path class="uuid-90ac164d-c137-48f5-9c2d-67e619f378d9" d="M23.8064,14.3207c-2.7612,0-5-2.2387-5-5s2.2387-5,5-5c2.7612,0,5,2.2387,5,5s-2.2387,5-5,5Z"/><circle class="uuid-a7256d1d-2d75-41cc-ad7d-e59a18e4053b" cx="23.8066" cy="9.3206" r="4"/><path class="uuid-abe2e987-239b-459b-98f7-ae29f3881894" d="M23.8064,14.3207c-2.7612,0-5-2.2387-5-5s2.2387-5,5-5c2.7612,0,5,2.2387,5,5s-2.2387,5-5,5Z"/><path class="uuid-f7a2fc7a-7d8a-490e-a981-c1d97241067c" d="M10.8064,27.3207c-2.7612,0-5-2.2387-5-5s2.2387-5,5-5c2.7612,0,5,2.2387,5,5s-2.2387,5-5,5Z"/><path class="uuid-0b975536-9a11-4325-8eca-1f98644a3e84" d="M36.8064,27.3207c-2.7612,0-5-2.2387-5-5s2.2387-5,5-5c2.7612,0,5,2.2387,5,5s-2.2387,5-5,5Z"/><path class="uuid-34fe1f57-5256-45b8-8ca1-e0d0de92db26" d="M23.8064,39.4259c-2.7612,0-5-2.2387-5-5s2.2387-5,5-5c2.7612,0,5,2.2387,5,5s-2.2387,5-5,5Z"/><g class="uuid-504ad2cb-7081-4d05-9a31-9bdb71784b08"><path class="uuid-11d62697-2e46-490b-9db4-155b40b119da" d="M23.8064,29.4259c-2.7572,0-5,2.2428-5,5s2.2428,5,5,5,5-2.2428,5-5-2.2428-5-5-5ZM23.8064,38.8704c-2.4506,0-4.4444-1.9933-4.4444-4.4444s1.9938-4.4444,4.4444-4.4444,4.4444,1.9933,4.4444,4.4444-1.9938,4.4444-4.4444,4.4444Z"/></g><g class="uuid-fe8be1b8-b678-4571-9a85-20bcb2345b56"><path class="uuid-11d62697-2e46-490b-9db4-155b40b119da" d="M23.8064,29.9815c-2.4506,0-4.4444,1.9933-4.4444,4.4444s1.9938,4.4444,4.4444,4.4444,4.4444-1.9933,4.4444-4.4444-1.9938-4.4444-4.4444-4.4444ZM23.8065,38.3148c-2.1441,0-3.8889-1.7448-3.8889-3.8889s1.7448-3.8889,3.8889-3.8889,3.8889,1.7448,3.8889,3.8889-1.7448,3.8889-3.8889,3.8889Z"/></g><g class="uuid-504ad2cb-7081-4d05-9a31-9bdb71784b08"><path class="uuid-11d62697-2e46-490b-9db4-155b40b119da" d="M36.8064,17.3207c-2.7572,0-5,2.2428-5,5s2.2428,5,5,5,5-2.2428,5-5-2.2428-5-5-5ZM36.8064,26.7652c-2.4506,0-4.4444-1.9933-4.4444-4.4444s1.9938-4.4444,4.4444-4.4444,4.4444,1.9933,4.4444,4.4444-1.9938,4.4444-4.4444,4.4444Z"/></g><g class="uuid-fe8be1b8-b678-4571-9a85-20bcb2345b56"><path class="uuid-11d62697-2e46-490b-9db4-155b40b119da" d="M36.8064,17.8763c-2.4506,0-4.4444,1.9933-4.4444,4.4444s1.9938,4.4444,4.4444,4.4444,4.4444-1.9933,4.4444-4.4444-1.9938-4.4444-4.4444-4.4444ZM36.8065,26.2096c-2.1441,0-3.8889-1.7448-3.8889-3.8889s1.7448-3.8889,3.8889-3.8889,3.8889,1.7448,3.8889,3.8889-1.7448,3.8889-3.8889,3.8889Z"/></g><g class="uuid-504ad2cb-7081-4d05-9a31-9bdb71784b08"><path class="uuid-11d62697-2e46-490b-9db4-155b40b119da" d="M23.8064,4.3207c-2.7572,0-5,2.2428-5,5s2.2428,5,5,5,5-2.2428,5-5-2.2428-5-5-5ZM23.8064,13.7652c-2.4506,0-4.4444-1.9933-4.4444-4.4444s1.9938-4.4444,4.4444-4.4444,4.4444,1.9933,4.4444,4.4444-1.9938,4.4444-4.4444,4.4444Z"/></g><g class="uuid-fe8be1b8-b678-4571-9a85-20bcb2345b56"><path class="uuid-11d62697-2e46-490b-9db4-155b40b119da" d="M23.8064,4.8763c-2.4506,0-4.4444,1.9933-4.4444,4.4444s1.9938,4.4444,4.4444,4.4444,4.4444-1.9933,4.4444-4.4444-1.9938-4.4444-4.4444-4.4444ZM23.8065,13.2096c-2.1441,0-3.8889-1.7448-3.8889-3.8889s1.7448-3.8889,3.8889-3.8889,3.8889,1.7448,3.8889,3.8889-1.7448,3.8889-3.8889,3.8889Z"/></g><g class="uuid-504ad2cb-7081-4d05-9a31-9bdb71784b08"><path class="uuid-11d62697-2e46-490b-9db4-155b40b119da" d="M10.8064,17.3207c-2.7572,0-5,2.2428-5,5s2.2428,5,5,5,5-2.2428,5-5-2.2428-5-5-5ZM10.8064,26.7652c-2.4506,0-4.4444-1.9933-4.4444-4.4444s1.9938-4.4444,4.4444-4.4444,4.4444,1.9933,4.4444,4.4444-1.9938,4.4444-4.4444,4.4444Z"/></g><g class="uuid-fe8be1b8-b678-4571-9a85-20bcb2345b56"><path class="uuid-11d62697-2e46-490b-9db4-155b40b119da" d="M10.8064,17.8763c-2.4506,0-4.4444,1.9933-4.4444,4.4444s1.9938,4.4444,4.4444,4.4444,4.4444-1.9933,4.4444-4.4444-1.9938-4.4444-4.4444-4.4444ZM10.8065,26.2096c-2.1441,0-3.8889-1.7448-3.8889-3.8889s1.7448-3.8889,3.8889-3.8889,3.8889,1.7448,3.8889,3.8889-1.7448,3.8889-3.8889,3.8889Z"/></g><path class="uuid-9abb3265-29c8-4d84-83f2-a5c88dce0836" d="M26.3388,19.0449h-9.3613c-.7334,0-1.3887.4385-1.6699,1.1162-.2812.6787-.127,1.4521.3926,1.9697l2.2559,2.2559-10.0413,10.0418c1.6334,2.1404,3.6798,3.9429,6.0331,5.2803l9.6654-9.6649,2.2559,2.2559c.3428.3428.7939.5312,1.2725.5312,1,0,1.8135-.8115,1.8135-1.8096v-9.3604c0-1.4424-1.1738-2.6162-2.6162-2.6162Z"/><path class="uuid-3f2a573b-8c63-439e-903f-c49162c1a589" d="M26.3388,19.5449h-9.3613c-.5312,0-1.0049.3174-1.208.8076s-.0918,1.0498.2842,1.4248l2.6094,2.6094-10.4458,10.4464c1.4732,1.8331,3.2675,3.3887,5.2908,4.6085l10.1052-10.1047,2.6094,2.6094c.248.248.5742.3848.9189.3848.7246,0,1.3135-.5879,1.3135-1.3096v-9.3604c0-1.167-.9492-2.1162-2.1162-2.1162Z"/><path class="uuid-8162c65c-3b17-41d3-946b-4fa9882262f9" d="M16.4069,21.4239l2.963,2.963L1.2929,42.4649c-.391.391-.391,1.024,0,1.414l2.828,2.828c.391.391,1.024.391,1.414,0l18.078-18.077,2.963,2.963c.509.509,1.379.149,1.379-.571v-9.361c0-.893-.723-1.616-1.616-1.616h-9.361c-.72,0-1.08.87-.571,1.379Z"/></svg>