<?xml version="1.0" encoding="UTF-8"?><svg id="uuid-d78eeaa0-416a-457d-91be-8dd99136a581" xmlns="http://www.w3.org/2000/svg" width="48" height="48" xmlns:xlink="http://www.w3.org/1999/xlink" viewBox="0 0 48 48"><defs><style>.uuid-62f5f778-0d4a-438b-8085-b491618bfaaa{fill:url(#uuid-c50d3bd6-bd75-4332-bb34-45d655a46b0b);}.uuid-62f5f778-0d4a-438b-8085-b491618bfaaa,.uuid-7e946c60-020e-4d10-9ba5-8eb7ddc60d11,.uuid-f439e7b8-90fe-4a4a-8c2e-127db7acfd99,.uuid-fc40c2c3-1a71-4d3e-814a-acdab15889d2,.uuid-8a93f77e-497e-4be7-9177-ef8b54bc3374,.uuid-5ff7564b-e20a-4b64-aaa4-e8514d2fbc82,.uuid-e8ca2773-480d-435a-8a98-78c2e5602063,.uuid-0aab0126-2b51-4ae4-bf5b-971576fb968e,.uuid-7e6c5f59-45ce-48ca-999c-426727cdcb80{stroke-width:0px;}.uuid-7e946c60-020e-4d10-9ba5-8eb7ddc60d11,.uuid-f439e7b8-90fe-4a4a-8c2e-127db7acfd99{opacity:.05;}.uuid-f439e7b8-90fe-4a4a-8c2e-127db7acfd99{fill:url(#uuid-c1eda435-b909-44b2-97d4-b8add4de1a2e);}.uuid-fc40c2c3-1a71-4d3e-814a-acdab15889d2{fill:url(#uuid-0ae585d5-1c3b-4dfa-ae67-71e5da9c3dd0);}.uuid-8a93f77e-497e-4be7-9177-ef8b54bc3374{fill:url(#uuid-36f38d27-0030-485a-8c08-136a0a1df5c5);}.uuid-5ff7564b-e20a-4b64-aaa4-e8514d2fbc82{fill:url(#uuid-28704407-5854-45a6-bad3-563ad175d0b7);}.uuid-5ff7564b-e20a-4b64-aaa4-e8514d2fbc82,.uuid-7e6c5f59-45ce-48ca-999c-426727cdcb80{opacity:.07;}.uuid-e8ca2773-480d-435a-8a98-78c2e5602063{fill:url(#uuid-59d83926-1e2f-4bb8-bcca-2fb26f03cda9);}.uuid-0aab0126-2b51-4ae4-bf5b-971576fb968e{fill:url(#uuid-652249f2-71b8-47a4-a121-9d72be0be9c0);}</style><linearGradient id="uuid-c50d3bd6-bd75-4332-bb34-45d655a46b0b" x1="12.6709" y1="1.886" x2="17.7431" y2="10.0032" gradientUnits="userSpaceOnUse"><stop offset="0" stop-color="#ff9c0d"/><stop offset="1" stop-color="#f36e22"/></linearGradient><linearGradient id="uuid-36f38d27-0030-485a-8c08-136a0a1df5c5" x1="4.5471" y1="8.7891" x2="26.0121" y2="43.1404" gradientUnits="userSpaceOnUse"><stop offset="0" stop-color="#fff"/><stop offset=".242" stop-color="#f2f2f2"/><stop offset="1" stop-color="#ccc"/></linearGradient><linearGradient id="uuid-c1eda435-b909-44b2-97d4-b8add4de1a2e" x1="3.8713" y1="13.8416" x2="19.0628" y2="38.1531" gradientUnits="userSpaceOnUse"><stop offset="0" stop-color="#000"/><stop offset="1" stop-color="#30363d"/></linearGradient><linearGradient id="uuid-28704407-5854-45a6-bad3-563ad175d0b7" x1="4.1415" y1="14.2741" x2="18.7925" y2="37.7205" xlink:href="#uuid-c1eda435-b909-44b2-97d4-b8add4de1a2e"/><linearGradient id="uuid-59d83926-1e2f-4bb8-bcca-2fb26f03cda9" x1="4.4113" y1="14.7056" x2="18.5228" y2="37.2888" gradientUnits="userSpaceOnUse"><stop offset="0" stop-color="#64717c"/><stop offset="1" stop-color="#30363d"/></linearGradient><linearGradient id="uuid-652249f2-71b8-47a4-a121-9d72be0be9c0" x1="18.2169" y1="10.0652" x2="38.2052" y2="42.0532" xlink:href="#uuid-36f38d27-0030-485a-8c08-136a0a1df5c5"/><linearGradient id="uuid-0ae585d5-1c3b-4dfa-ae67-71e5da9c3dd0" x1="17.3843" y1="9.0755" x2="38.4392" y2="42.7704" xlink:href="#uuid-c50d3bd6-bd75-4332-bb34-45d655a46b0b"/></defs><path class="uuid-62f5f778-0d4a-438b-8085-b491618bfaaa" d="M10.3487,3.5538h9.8619c.6672,0,1.2089.5417,1.2089,1.2089v2.9433h-12.2796v-2.9433c0-.6672.5417-1.2089,1.2089-1.2089Z"/><rect class="uuid-8a93f77e-497e-4be7-9177-ef8b54bc3374" x="3" y="7.4833" width="24.5593" height="36.9629" rx="5.1008" ry="5.1008"/><path class="uuid-f439e7b8-90fe-4a4a-8c2e-127db7acfd99" d="M11.4672,42.3198c-1.7868,0-3.2408-1.4535-3.2408-3.2408V12.9156c0-1.7873,1.454-3.2408,3.2408-3.2408s3.2403,1.4535,3.2403,3.2408v26.1634c0,1.7873-1.4535,3.2408-3.2403,3.2408Z"/><path class="uuid-5ff7564b-e20a-4b64-aaa4-e8514d2fbc82" d="M11.4672,41.8097c-1.5058,0-2.7307-1.2254-2.7307-2.7307V12.9156c0-1.5053,1.2249-2.7307,2.7307-2.7307s2.7302,1.2254,2.7302,2.7307v26.1634c0,1.5053-1.2249,2.7307-2.7302,2.7307Z"/><rect class="uuid-e8ca2773-480d-435a-8a98-78c2e5602063" x="9.2466" y="10.6949" width="4.441" height="30.6046" rx="2.2205" ry="2.2205"/><path class="uuid-7e946c60-020e-4d10-9ba5-8eb7ddc60d11" d="M10.4471,12.7731v26.4483c0,.5629.4578,1.0202,1.0202,1.0202h16.0017c.052-.292.0903-.5892.0903-.8962V12.584c0-.2847-.0389-.5591-.0837-.8311H11.4672c-.5624,0-1.0202.4573-1.0202,1.0202ZM23.4072,15.5636h.542v.541h-.542v-.541ZM23.4072,35.89h.542v.541h-.542v-.541ZM18.8539,15.5636h.5415v.541h-.5415v-.541ZM18.8539,35.89h.5415v.541h-.5415v-.541ZM14.3005,15.5636h.5415v.541h-.5415v-.541ZM14.3005,35.89h.5415v.541h-.5415v-.541Z"/><path class="uuid-7e6c5f59-45ce-48ca-999c-426727cdcb80" d="M10.9571,12.7731v26.4483c0,.2819.2281.5101.5101.5101h16.0532c.0099-.1297.0389-.2539.0389-.3861v-2.4123c-.0578-.0104-.1049-.0552-.1049-.1156v-1.314c0-.0603.047-.1052.1049-.1156v-18.7812c-.0578-.0104-.1049-.0552-.1049-.1156v-1.314c0-.0603.047-.1052.1049-.1156v-2.4775c0-.11-.0255-.2128-.0324-.321H11.4672c-.2819,0-.5101.2281-.5101.5101ZM22.8971,15.1771c0-.0677.0558-.1235.124-.1235h1.314c.0682,0,.124.0558.124.1235v1.314c0,.0677-.0558.1235-.124.1235h-1.314c-.0682,0-.124-.0558-.124-.1235v-1.314ZM22.8971,35.5034c0-.0677.0558-.1235.124-.1235h1.314c.0682,0,.124.0558.124.1235v1.314c0,.0677-.0558.1235-.124.1235h-1.314c-.0682,0-.124-.0558-.124-.1235v-1.314ZM18.3438,15.1771c0-.0677.0553-.1235.1235-.1235h1.3145c.0692,0,.1235.0538.1235.1235v1.314c0,.0677-.0553.1235-.1235.1235h-1.3145c-.0682,0-.1235-.0558-.1235-.1235v-1.314ZM18.3438,35.5034c0-.0677.0553-.1235.1235-.1235h1.3145c.0692,0,.1235.0538.1235.1235v1.314c0,.0677-.0553.1235-.1235.1235h-1.3145c-.0682,0-.1235-.0558-.1235-.1235v-1.314ZM13.7905,15.1771c0-.0697.0543-.1235.1235-.1235h1.3145c.0682,0,.1235.0558.1235.1235v1.314c0,.0677-.0553.1235-.1235.1235h-1.3145c-.0682,0-.1235-.0558-.1235-.1235v-1.314ZM13.7905,35.5034c0-.0697.0543-.1235.1235-.1235h1.3145c.0682,0,.1235.0558.1235.1235v1.314c0,.0677-.0553.1235-.1235.1235h-1.3145c-.0682,0-.1235-.0558-.1235-.1235v-1.314Z"/><rect class="uuid-0aab0126-2b51-4ae4-bf5b-971576fb968e" x="11.8602" y="13.5828" width="32.7016" height="24.9528" rx="1.0202" ry="1.0202"/><path class="uuid-fc40c2c3-1a71-4d3e-814a-acdab15889d2" d="M43.7639,12.773H11.467v26.4484h32.2969c.6827,0,1.2361-.5534,1.2361-1.2361V14.0091c0-.6827-.5534-1.2361-1.2361-1.2361ZM15.8621,36.8176c0,.35-.2837.6337-.6337.6337h-1.3144c-.35,0-.6337-.2837-.6337-.6337v-1.3144c0-.35.2837-.6337.6337-.6337h1.3144c.35,0,.6337.2837.6337.6337v1.3144ZM15.8621,16.4912c0,.35-.2837.6337-.6337.6337h-1.3144c-.35,0-.6337-.2837-.6337-.6337v-1.3144c0-.35.2837-.6337.6337-.6337h1.3144c.35,0,.6337.2837.6337.6337v1.3144ZM20.4156,36.8176c0,.35-.2837.6337-.6337.6337h-1.3144c-.35,0-.6337-.2837-.6337-.6337v-1.3144c0-.35.2837-.6337.6337-.6337h1.3144c.35,0,.6337.2837.6337.6337v1.3144ZM20.4156,16.4912c0,.35-.2837.6337-.6337.6337h-1.3144c-.35,0-.6337-.2837-.6337-.6337v-1.3144c0-.35.2837-.6337.6337-.6337h1.3144c.35,0,.6337.2837.6337.6337v1.3144ZM24.9691,36.8176c0,.35-.2837.6337-.6337.6337h-1.3144c-.35,0-.6337-.2837-.6337-.6337v-1.3144c0-.35.2837-.6337.6337-.6337h1.3144c.35,0,.6337.2837.6337.6337v1.3144ZM24.9691,16.4912c0,.35-.2837.6337-.6337.6337h-1.3144c-.35,0-.6337-.2837-.6337-.6337v-1.3144c0-.35.2837-.6337.6337-.6337h1.3144c.35,0,.6337.2837.6337.6337v1.3144ZM28.8889,14.5431c.35,0,.6337.2837.6337.6337v1.3145c0,.35-.2837.6337-.6337.6337h-1.3106c-.35,0-.6337-.2837-.6337-.6337v-1.3144c0-.35.2837-.6337.6337-.6337h1.3106ZM27.5782,37.4513c-.35,0-.6337-.2837-.6337-.6337v-1.3144c0-.35.2837-.6337.6337-.6337h1.3106c.35,0,.6337.2837.6337.6337v1.3145c0,.35-.2837.6337-.6337.6337h-1.3106ZM34.0799,36.8176c0,.35-.2837.6337-.6337.6337h-1.3144c-.35,0-.6337-.2837-.6337-.6337v-1.3144c0-.35.2837-.6337.6337-.6337h1.3144c.35,0,.6337.2837.6337.6337v1.3144ZM34.0799,16.4912c0,.35-.2837.6337-.6337.6337h-1.3144c-.35,0-.6337-.2837-.6337-.6337v-1.3144c0-.35.2837-.6337.6337-.6337h1.3144c.35,0,.6337.2837.6337.6337v1.3144ZM38.6334,36.8176c0,.35-.2837.6337-.6337.6337h-1.3144c-.35,0-.6337-.2837-.6337-.6337v-1.3144c0-.35.2837-.6337.6337-.6337h1.3144c.35,0,.6337.2837.6337.6337v1.3144ZM38.6334,16.4912c0,.35-.2837.6337-.6337.6337h-1.3144c-.35,0-.6337-.2837-.6337-.6337v-1.3144c0-.35.2837-.6337.6337-.6337h1.3144c.35,0,.6337.2837.6337.6337v1.3144ZM43.1868,36.8176c0,.35-.2837.6337-.6337.6337h-1.3144c-.35,0-.6337-.2837-.6337-.6337v-1.3144c0-.35.2837-.6337.6337-.6337h1.3144c.35,0,.6337.2837.6337.6337v1.3144ZM43.1868,16.4912c0,.35-.2837.6337-.6337.6337h-1.3144c-.35,0-.6337-.2837-.6337-.6337v-1.3144c0-.35.2837-.6337.6337-.6337h1.3144c.35,0,.6337.2837.6337.6337v1.3144Z"/></svg>