<?xml version="1.0" encoding="UTF-8"?><svg id="uuid-9c083ba2-8811-4eed-a3ae-2ad52da032aa" xmlns="http://www.w3.org/2000/svg" width="48" height="48" xmlns:xlink="http://www.w3.org/1999/xlink" viewBox="0 0 48 48"><defs><style>.uuid-4beb9e46-e28e-42ae-a12f-bd4ddf14a41d{fill:url(#uuid-b16bac8b-066e-4145-b27a-3f765c42f6b0);stroke-width:0px;}</style><linearGradient id="uuid-b16bac8b-066e-4145-b27a-3f765c42f6b0" x1="11.4064" y1="3.8459" x2="36.5936" y2="44.154" gradientUnits="userSpaceOnUse"><stop offset="0" stop-color="#ff9c0d"/><stop offset="1" stop-color="#f36e22"/></linearGradient></defs><path class="uuid-4beb9e46-e28e-42ae-a12f-bd4ddf14a41d" d="M43.0371,8.2243H4.9629c-1.0841,0-1.9629.8788-1.9629,1.963v27.6255c0,1.0841.8788,1.9629,1.9629,1.9629h38.0742c1.0841,0,1.9629-.8788,1.9629-1.9629V10.1872c0-1.0841-.8788-1.963-1.9629-1.963ZM9.9109,35.89c0,.5558-.4505,1.0064-1.0064,1.0064h-2.0873c-.5558,0-1.0064-.4506-1.0064-1.0064v-2.0873c0-.5558.4506-1.0064,1.0064-1.0064h2.0873c.5558,0,1.0064.4505,1.0064,1.0064v2.0873ZM9.9109,28.6591c0,.5558-.4505,1.0064-1.0064,1.0064h-2.0873c-.5558,0-1.0064-.4506-1.0064-1.0064v-2.0873c0-.5558.4506-1.0064,1.0064-1.0064h2.0873c.5558,0,1.0064.4505,1.0064,1.0064v2.0873ZM9.9109,21.4282c0,.5558-.4505,1.0064-1.0064,1.0064h-2.0873c-.5558,0-1.0064-.4506-1.0064-1.0064v-2.0873c0-.5558.4506-1.0064,1.0064-1.0064h2.0873c.5558,0,1.0064.4505,1.0064,1.0064v2.0873ZM9.9109,14.1972c0,.5558-.4505,1.0064-1.0064,1.0064h-2.0873c-.5558,0-1.0064-.4505-1.0064-1.0064v-2.0872c0-.5558.4506-1.0064,1.0064-1.0064h2.0873c.5558,0,1.0064.4505,1.0064,1.0064v2.0872ZM42.1891,35.89c0,.5558-.4506,1.0064-1.0064,1.0064h-2.0873c-.5558,0-1.0064-.4506-1.0064-1.0064v-2.0873c0-.5558.4505-1.0064,1.0064-1.0064h2.0873c.5558,0,1.0064.4505,1.0064,1.0064v2.0873ZM42.1891,28.6591c0,.5558-.4506,1.0064-1.0064,1.0064h-2.0873c-.5558,0-1.0064-.4506-1.0064-1.0064v-2.0873c0-.5558.4505-1.0064,1.0064-1.0064h2.0873c.5558,0,1.0064.4505,1.0064,1.0064v2.0873ZM42.1891,21.4282c0,.5558-.4506,1.0064-1.0064,1.0064h-2.0873c-.5558,0-1.0064-.4506-1.0064-1.0064v-2.0873c0-.5558.4505-1.0064,1.0064-1.0064h2.0873c.5558,0,1.0064.4505,1.0064,1.0064v2.0873ZM42.1891,14.1972c0,.5558-.4506,1.0064-1.0064,1.0064h-2.0873c-.5558,0-1.0064-.4505-1.0064-1.0064v-2.0872c0-.5558.4505-1.0064,1.0064-1.0064h2.0873c.5558,0,1.0064.4505,1.0064,1.0064v2.0872Z"/></svg>