<?xml version="1.0" encoding="UTF-8"?><svg id="uuid-ebf0a989-e96e-402a-8aeb-3f03729647bc" xmlns="http://www.w3.org/2000/svg" width="48" height="48" xmlns:xlink="http://www.w3.org/1999/xlink" viewBox="0 0 48 48"><defs><style>.uuid-521323fd-1e60-489b-bd4e-ae818a1e8275{fill:url(#uuid-3b0f3026-574b-4c50-a8b7-67fba89d1b62);}.uuid-521323fd-1e60-489b-bd4e-ae818a1e8275,.uuid-a152beaf-6168-41b6-a13a-c97c4faf3098,.uuid-41992f53-8223-4898-b841-7d9a11abcb15,.uuid-53d9c100-e97e-471e-9cf9-f5f49582b5ad,.uuid-c30236d4-0d59-44c9-8b0b-f308d07712b0,.uuid-0ff32ce3-2f1e-4e74-b49e-2ee8e26c5d47,.uuid-7ce33475-0ccc-4362-94c4-77ddd77b8584,.uuid-1b2d910a-4e4b-41dc-94fc-df235b1f96e1,.uuid-d84c8127-1eee-4ff1-b199-aa13948fdcfd{stroke-width:0px;}.uuid-a152beaf-6168-41b6-a13a-c97c4faf3098,.uuid-c30236d4-0d59-44c9-8b0b-f308d07712b0{opacity:.05;}.uuid-41992f53-8223-4898-b841-7d9a11abcb15{fill:url(#uuid-c8f9686a-16ad-41ee-9c93-8516b3206fa5);}.uuid-53d9c100-e97e-471e-9cf9-f5f49582b5ad{fill:url(#uuid-713db0da-d8d3-4f04-8dfe-08bd20998538);}.uuid-c30236d4-0d59-44c9-8b0b-f308d07712b0{fill:url(#uuid-d294d9bc-2ee1-4575-8016-e6619a11892b);}.uuid-0ff32ce3-2f1e-4e74-b49e-2ee8e26c5d47{fill:url(#uuid-3706b496-fd32-4b8f-b27d-36495d50b563);}.uuid-7ce33475-0ccc-4362-94c4-77ddd77b8584{fill:url(#uuid-c6883c11-f67e-450f-898d-28af98c9c159);}.uuid-7ce33475-0ccc-4362-94c4-77ddd77b8584,.uuid-1b2d910a-4e4b-41dc-94fc-df235b1f96e1{opacity:.07;}.uuid-d84c8127-1eee-4ff1-b199-aa13948fdcfd{fill:url(#uuid-fca5df19-a7a4-4a73-8398-06a59f285eed);}</style><linearGradient id="uuid-713db0da-d8d3-4f04-8dfe-08bd20998538" x1="12.6709" y1="1.886" x2="17.7431" y2="10.0032" gradientUnits="userSpaceOnUse"><stop offset="0" stop-color="#32bdef"/><stop offset="1" stop-color="#1ea2e4"/></linearGradient><linearGradient id="uuid-3706b496-fd32-4b8f-b27d-36495d50b563" x1="4.5471" y1="8.7891" x2="26.0121" y2="43.1404" gradientUnits="userSpaceOnUse"><stop offset="0" stop-color="#fff"/><stop offset=".242" stop-color="#f2f2f2"/><stop offset="1" stop-color="#ccc"/></linearGradient><linearGradient id="uuid-d294d9bc-2ee1-4575-8016-e6619a11892b" x1="3.8713" y1="13.8416" x2="19.0628" y2="38.1531" gradientUnits="userSpaceOnUse"><stop offset="0" stop-color="#000"/><stop offset="1" stop-color="#30363d"/></linearGradient><linearGradient id="uuid-c6883c11-f67e-450f-898d-28af98c9c159" x1="4.1415" y1="14.2741" x2="18.7925" y2="37.7205" xlink:href="#uuid-d294d9bc-2ee1-4575-8016-e6619a11892b"/><linearGradient id="uuid-c8f9686a-16ad-41ee-9c93-8516b3206fa5" x1="4.4113" y1="14.7056" x2="18.5228" y2="37.2888" gradientUnits="userSpaceOnUse"><stop offset="0" stop-color="#64717c"/><stop offset="1" stop-color="#30363d"/></linearGradient><linearGradient id="uuid-fca5df19-a7a4-4a73-8398-06a59f285eed" x1="18.2169" y1="10.0652" x2="38.2052" y2="42.0532" xlink:href="#uuid-3706b496-fd32-4b8f-b27d-36495d50b563"/><linearGradient id="uuid-3b0f3026-574b-4c50-a8b7-67fba89d1b62" x1="17.3843" y1="9.0755" x2="38.4392" y2="42.7704" xlink:href="#uuid-713db0da-d8d3-4f04-8dfe-08bd20998538"/></defs><path class="uuid-53d9c100-e97e-471e-9cf9-f5f49582b5ad" d="M10.3487,3.5538h9.8619c.6672,0,1.2089.5417,1.2089,1.2089v2.9433h-12.2796v-2.9433c0-.6672.5417-1.2089,1.2089-1.2089Z"/><rect class="uuid-0ff32ce3-2f1e-4e74-b49e-2ee8e26c5d47" x="3" y="7.4833" width="24.5593" height="36.9629" rx="5.1008" ry="5.1008"/><path class="uuid-c30236d4-0d59-44c9-8b0b-f308d07712b0" d="M11.4672,42.3198c-1.7868,0-3.2408-1.4535-3.2408-3.2408V12.9156c0-1.7873,1.454-3.2408,3.2408-3.2408s3.2403,1.4535,3.2403,3.2408v26.1634c0,1.7873-1.4535,3.2408-3.2403,3.2408Z"/><path class="uuid-7ce33475-0ccc-4362-94c4-77ddd77b8584" d="M11.4672,41.8097c-1.5058,0-2.7307-1.2254-2.7307-2.7307V12.9156c0-1.5053,1.2249-2.7307,2.7307-2.7307s2.7302,1.2254,2.7302,2.7307v26.1634c0,1.5053-1.2249,2.7307-2.7302,2.7307Z"/><rect class="uuid-41992f53-8223-4898-b841-7d9a11abcb15" x="9.2466" y="10.6949" width="4.441" height="30.6046" rx="2.2205" ry="2.2205"/><path class="uuid-a152beaf-6168-41b6-a13a-c97c4faf3098" d="M10.4471,12.7731v26.4483c0,.5629.4578,1.0202,1.0202,1.0202h16.0017c.052-.292.0903-.5892.0903-.8962V12.584c0-.2847-.0389-.5591-.0837-.8311H11.4672c-.5624,0-1.0202.4573-1.0202,1.0202ZM23.4072,15.5636h.542v.541h-.542v-.541ZM23.4072,35.89h.542v.541h-.542v-.541ZM18.8539,15.5636h.5415v.541h-.5415v-.541ZM18.8539,35.89h.5415v.541h-.5415v-.541ZM14.3005,15.5636h.5415v.541h-.5415v-.541ZM14.3005,35.89h.5415v.541h-.5415v-.541Z"/><path class="uuid-1b2d910a-4e4b-41dc-94fc-df235b1f96e1" d="M10.9571,12.7731v26.4483c0,.2819.2281.5101.5101.5101h16.0532c.0099-.1297.0389-.2539.0389-.3861v-2.4123c-.0578-.0104-.1049-.0552-.1049-.1156v-1.314c0-.0603.047-.1052.1049-.1156v-18.7812c-.0578-.0104-.1049-.0552-.1049-.1156v-1.314c0-.0603.047-.1052.1049-.1156v-2.4775c0-.11-.0255-.2128-.0324-.321H11.4672c-.2819,0-.5101.2281-.5101.5101ZM22.8971,15.1771c0-.0677.0558-.1235.124-.1235h1.314c.0682,0,.124.0558.124.1235v1.314c0,.0677-.0558.1235-.124.1235h-1.314c-.0682,0-.124-.0558-.124-.1235v-1.314ZM22.8971,35.5034c0-.0677.0558-.1235.124-.1235h1.314c.0682,0,.124.0558.124.1235v1.314c0,.0677-.0558.1235-.124.1235h-1.314c-.0682,0-.124-.0558-.124-.1235v-1.314ZM18.3438,15.1771c0-.0677.0553-.1235.1235-.1235h1.3145c.0692,0,.1235.0538.1235.1235v1.314c0,.0677-.0553.1235-.1235.1235h-1.3145c-.0682,0-.1235-.0558-.1235-.1235v-1.314ZM18.3438,35.5034c0-.0677.0553-.1235.1235-.1235h1.3145c.0692,0,.1235.0538.1235.1235v1.314c0,.0677-.0553.1235-.1235.1235h-1.3145c-.0682,0-.1235-.0558-.1235-.1235v-1.314ZM13.7905,15.1771c0-.0697.0543-.1235.1235-.1235h1.3145c.0682,0,.1235.0558.1235.1235v1.314c0,.0677-.0553.1235-.1235.1235h-1.3145c-.0682,0-.1235-.0558-.1235-.1235v-1.314ZM13.7905,35.5034c0-.0697.0543-.1235.1235-.1235h1.3145c.0682,0,.1235.0558.1235.1235v1.314c0,.0677-.0553.1235-.1235.1235h-1.3145c-.0682,0-.1235-.0558-.1235-.1235v-1.314Z"/><rect class="uuid-d84c8127-1eee-4ff1-b199-aa13948fdcfd" x="11.8602" y="13.5828" width="32.7016" height="24.9528" rx="1.0202" ry="1.0202"/><path class="uuid-521323fd-1e60-489b-bd4e-ae818a1e8275" d="M43.7639,12.773H11.467v26.4484h32.2969c.6827,0,1.2361-.5534,1.2361-1.2361V14.0091c0-.6827-.5534-1.2361-1.2361-1.2361ZM15.8621,36.8176c0,.35-.2837.6337-.6337.6337h-1.3144c-.35,0-.6337-.2837-.6337-.6337v-1.3144c0-.35.2837-.6337.6337-.6337h1.3144c.35,0,.6337.2837.6337.6337v1.3144ZM15.8621,16.4912c0,.35-.2837.6337-.6337.6337h-1.3144c-.35,0-.6337-.2837-.6337-.6337v-1.3144c0-.35.2837-.6337.6337-.6337h1.3144c.35,0,.6337.2837.6337.6337v1.3144ZM20.4156,36.8176c0,.35-.2837.6337-.6337.6337h-1.3144c-.35,0-.6337-.2837-.6337-.6337v-1.3144c0-.35.2837-.6337.6337-.6337h1.3144c.35,0,.6337.2837.6337.6337v1.3144ZM20.4156,16.4912c0,.35-.2837.6337-.6337.6337h-1.3144c-.35,0-.6337-.2837-.6337-.6337v-1.3144c0-.35.2837-.6337.6337-.6337h1.3144c.35,0,.6337.2837.6337.6337v1.3144ZM24.9691,36.8176c0,.35-.2837.6337-.6337.6337h-1.3144c-.35,0-.6337-.2837-.6337-.6337v-1.3144c0-.35.2837-.6337.6337-.6337h1.3144c.35,0,.6337.2837.6337.6337v1.3144ZM24.9691,16.4912c0,.35-.2837.6337-.6337.6337h-1.3144c-.35,0-.6337-.2837-.6337-.6337v-1.3144c0-.35.2837-.6337.6337-.6337h1.3144c.35,0,.6337.2837.6337.6337v1.3144ZM28.8889,14.5431c.35,0,.6337.2837.6337.6337v1.3145c0,.35-.2837.6337-.6337.6337h-1.3106c-.35,0-.6337-.2837-.6337-.6337v-1.3144c0-.35.2837-.6337.6337-.6337h1.3106ZM27.5782,37.4513c-.35,0-.6337-.2837-.6337-.6337v-1.3144c0-.35.2837-.6337.6337-.6337h1.3106c.35,0,.6337.2837.6337.6337v1.3145c0,.35-.2837.6337-.6337.6337h-1.3106ZM34.0799,36.8176c0,.35-.2837.6337-.6337.6337h-1.3144c-.35,0-.6337-.2837-.6337-.6337v-1.3144c0-.35.2837-.6337.6337-.6337h1.3144c.35,0,.6337.2837.6337.6337v1.3144ZM34.0799,16.4912c0,.35-.2837.6337-.6337.6337h-1.3144c-.35,0-.6337-.2837-.6337-.6337v-1.3144c0-.35.2837-.6337.6337-.6337h1.3144c.35,0,.6337.2837.6337.6337v1.3144ZM38.6334,36.8176c0,.35-.2837.6337-.6337.6337h-1.3144c-.35,0-.6337-.2837-.6337-.6337v-1.3144c0-.35.2837-.6337.6337-.6337h1.3144c.35,0,.6337.2837.6337.6337v1.3144ZM38.6334,16.4912c0,.35-.2837.6337-.6337.6337h-1.3144c-.35,0-.6337-.2837-.6337-.6337v-1.3144c0-.35.2837-.6337.6337-.6337h1.3144c.35,0,.6337.2837.6337.6337v1.3144ZM43.1868,36.8176c0,.35-.2837.6337-.6337.6337h-1.3144c-.35,0-.6337-.2837-.6337-.6337v-1.3144c0-.35.2837-.6337.6337-.6337h1.3144c.35,0,.6337.2837.6337.6337v1.3144ZM43.1868,16.4912c0,.35-.2837.6337-.6337.6337h-1.3144c-.35,0-.6337-.2837-.6337-.6337v-1.3144c0-.35.2837-.6337.6337-.6337h1.3144c.35,0,.6337.2837.6337.6337v1.3144Z"/></svg>