<?xml version="1.0" encoding="UTF-8"?><svg id="uuid-5b73f880-cf01-46f9-a909-1e223d4de01b" xmlns="http://www.w3.org/2000/svg" width="48" height="48" xmlns:xlink="http://www.w3.org/1999/xlink" viewBox="0 0 48 48"><defs><style>.uuid-fd7919ec-e406-432e-a74d-a3cfec7c7331{fill:url(#uuid-f14b5a0c-46f1-4c70-bbec-bf90e793e751);}.uuid-fd7919ec-e406-432e-a74d-a3cfec7c7331,.uuid-3514347d-6f85-4b65-8c20-525a3d46f17c,.uuid-23247d4b-ffbd-43a3-9a4b-594793cdc9fa,.uuid-20923eec-da96-437c-bc63-95b0b7fc2315,.uuid-55dbe613-7f87-4903-a6a0-1a8968d743c9,.uuid-bdeb6e74-db52-4cf3-8dd0-14e081955553,.uuid-ef896d31-4347-41a7-ab01-8c95924e8027,.uuid-2f59165d-c80f-443a-892f-0319ba0a2a9f,.uuid-94725b15-8026-463c-a2c7-5d319a096a3e,.uuid-dc102eb9-afff-4cab-8f37-1f038c7deb79{stroke-width:0px;}.uuid-3514347d-6f85-4b65-8c20-525a3d46f17c{fill:url(#uuid-252fd04f-a01d-4d96-bc65-3d62dada5040);}.uuid-23247d4b-ffbd-43a3-9a4b-594793cdc9fa{fill:url(#uuid-6a02c941-78d5-4bcd-bb79-e64e3275b488);}.uuid-55dbe613-7f87-4903-a6a0-1a8968d743c9{fill:url(#uuid-1edbe267-4d35-4f4e-b3b5-87f0708b1bda);}.uuid-8e491d39-af82-499d-9d05-b5e7729fda0f{opacity:.05;}.uuid-bdeb6e74-db52-4cf3-8dd0-14e081955553{fill:url(#uuid-2a42bf83-dba3-4ad2-941e-73137d319aae);}.uuid-2e844380-05a2-4f5f-af2d-4a78ff7d715e{opacity:.07;}.uuid-ef896d31-4347-41a7-ab01-8c95924e8027{fill:url(#uuid-760a0476-091a-48f8-9402-baaaa02d49b3);}.uuid-2f59165d-c80f-443a-892f-0319ba0a2a9f{fill:url(#uuid-635d6b0a-66d6-4154-8475-4626d7f08bc8);}.uuid-94725b15-8026-463c-a2c7-5d319a096a3e{fill:url(#uuid-c4adea82-52eb-4d6f-bb5a-4fa40ef22631);}.uuid-dc102eb9-afff-4cab-8f37-1f038c7deb79{fill:url(#uuid-c9d935c0-bb72-4757-9504-f72e3905c159);}</style><linearGradient id="uuid-c4adea82-52eb-4d6f-bb5a-4fa40ef22631" x1="38.1671" y1="42.9767" x2="43.0826" y2="34.979" gradientUnits="userSpaceOnUse"><stop offset="0" stop-color="#ff9c0d"/><stop offset="1" stop-color="#f36e22"/></linearGradient><radialGradient id="uuid-f14b5a0c-46f1-4c70-bbec-bf90e793e751" cx="-715.7072" cy="-197.8192" fx="-715.7072" fy="-197.8192" r="39.3529" gradientTransform="translate(-189.0878 726.9397) rotate(90)" gradientUnits="userSpaceOnUse"><stop offset="0" stop-color="#fafafb"/><stop offset=".293" stop-color="#f6f7f8"/><stop offset=".566" stop-color="#ebecee"/><stop offset=".832" stop-color="#d8dcdf"/><stop offset="1" stop-color="#c8cdd1"/></radialGradient><linearGradient id="uuid-635d6b0a-66d6-4154-8475-4626d7f08bc8" x1="22.5662" y1="20.3029" x2="25.2119" y2="24.6074" gradientUnits="userSpaceOnUse"><stop offset="0" stop-color="#64717c"/><stop offset="1" stop-color="#30363d"/></linearGradient><linearGradient id="uuid-6a02c941-78d5-4bcd-bb79-e64e3275b488" x1="21.292" y1="13.4117" x2="26.38" y2="5.1335" xlink:href="#uuid-c4adea82-52eb-4d6f-bb5a-4fa40ef22631"/><linearGradient id="uuid-252fd04f-a01d-4d96-bc65-3d62dada5040" x1="21.7958" y1="12.5922" x2="25.8647" y2="5.972" xlink:href="#uuid-c4adea82-52eb-4d6f-bb5a-4fa40ef22631"/><linearGradient id="uuid-1edbe267-4d35-4f4e-b3b5-87f0708b1bda" x1="21.292" y1="13.4117" x2="26.38" y2="5.1335" xlink:href="#uuid-c4adea82-52eb-4d6f-bb5a-4fa40ef22631"/><linearGradient id="uuid-760a0476-091a-48f8-9402-baaaa02d49b3" x1="8.292" y1="26.4117" x2="13.38" y2="18.1335" xlink:href="#uuid-c4adea82-52eb-4d6f-bb5a-4fa40ef22631"/><linearGradient id="uuid-c9d935c0-bb72-4757-9504-f72e3905c159" x1="34.292" y1="26.4117" x2="39.38" y2="18.1335" xlink:href="#uuid-c4adea82-52eb-4d6f-bb5a-4fa40ef22631"/><linearGradient id="uuid-2a42bf83-dba3-4ad2-941e-73137d319aae" x1="21.292" y1="38.5169" x2="26.38" y2="30.2387" xlink:href="#uuid-c4adea82-52eb-4d6f-bb5a-4fa40ef22631"/></defs><path class="uuid-94725b15-8026-463c-a2c7-5d319a096a3e" d="M40.3018,36.0169v-2.8443h-3.1111v4.133c0,2.2863.9082,4.479,2.5249,6.0957l1.8225,1.8225c.6075.6075,1.5924.6075,2.1999,0h0c.6075-.6075.6075-1.5924,0-2.1999l-.9112-.9112c-1.6167-1.6167-2.5249-3.8093-2.5249-6.0957Z"/><path class="uuid-fd7919ec-e406-432e-a74d-a3cfec7c7331" d="M23.8064,42.3207c-11.045,0-20-8.955-20-20,0-11.045,8.955-20,20-20,11.045,0,20,8.955,20,20,0,11.045-8.955,20-20,20Z"/><path class="uuid-2f59165d-c80f-443a-892f-0319ba0a2a9f" d="M23.8064,24.8207c-1.3806,0-2.5-1.1194-2.5-2.5s1.1194-2.5,2.5-2.5,2.5,1.1194,2.5,2.5-1.1194,2.5-2.5,2.5Z"/><path class="uuid-23247d4b-ffbd-43a3-9a4b-594793cdc9fa" d="M23.8064,14.3207c-2.7612,0-5-2.2387-5-5s2.2387-5,5-5c2.7612,0,5,2.2387,5,5s-2.2387,5-5,5Z"/><circle class="uuid-3514347d-6f85-4b65-8c20-525a3d46f17c" cx="23.8066" cy="9.3206" r="4"/><path class="uuid-55dbe613-7f87-4903-a6a0-1a8968d743c9" d="M23.8064,14.3207c-2.7612,0-5-2.2387-5-5s2.2387-5,5-5c2.7612,0,5,2.2387,5,5s-2.2387,5-5,5Z"/><path class="uuid-ef896d31-4347-41a7-ab01-8c95924e8027" d="M10.8064,27.3207c-2.7612,0-5-2.2387-5-5s2.2387-5,5-5c2.7612,0,5,2.2387,5,5s-2.2387,5-5,5Z"/><path class="uuid-dc102eb9-afff-4cab-8f37-1f038c7deb79" d="M36.8064,27.3207c-2.7612,0-5-2.2387-5-5s2.2387-5,5-5c2.7612,0,5,2.2387,5,5s-2.2387,5-5,5Z"/><path class="uuid-bdeb6e74-db52-4cf3-8dd0-14e081955553" d="M23.8064,39.4259c-2.7612,0-5-2.2387-5-5s2.2387-5,5-5c2.7612,0,5,2.2387,5,5s-2.2387,5-5,5Z"/><path class="uuid-2f59165d-c80f-443a-892f-0319ba0a2a9f" d="M23.8064,24.8207c-1.3806,0-2.5-1.1194-2.5-2.5s1.1194-2.5,2.5-2.5,2.5,1.1194,2.5,2.5-1.1194,2.5-2.5,2.5Z"/><g class="uuid-2e844380-05a2-4f5f-af2d-4a78ff7d715e"><path class="uuid-20923eec-da96-437c-bc63-95b0b7fc2315" d="M23.8064,29.4259c-2.7572,0-5,2.2428-5,5s2.2428,5,5,5,5-2.2428,5-5-2.2428-5-5-5ZM23.8064,38.8704c-2.4506,0-4.4444-1.9933-4.4444-4.4444s1.9938-4.4444,4.4444-4.4444,4.4444,1.9933,4.4444,4.4444-1.9938,4.4444-4.4444,4.4444Z"/></g><g class="uuid-8e491d39-af82-499d-9d05-b5e7729fda0f"><path class="uuid-20923eec-da96-437c-bc63-95b0b7fc2315" d="M23.8064,29.9815c-2.4506,0-4.4444,1.9933-4.4444,4.4444s1.9938,4.4444,4.4444,4.4444,4.4444-1.9933,4.4444-4.4444-1.9938-4.4444-4.4444-4.4444ZM23.8065,38.3148c-2.1441,0-3.8889-1.7448-3.8889-3.8889s1.7448-3.8889,3.8889-3.8889,3.8889,1.7448,3.8889,3.8889-1.7448,3.8889-3.8889,3.8889Z"/></g><g class="uuid-2e844380-05a2-4f5f-af2d-4a78ff7d715e"><path class="uuid-20923eec-da96-437c-bc63-95b0b7fc2315" d="M36.8064,17.3207c-2.7572,0-5,2.2428-5,5s2.2428,5,5,5,5-2.2428,5-5-2.2428-5-5-5ZM36.8064,26.7652c-2.4506,0-4.4444-1.9933-4.4444-4.4444s1.9938-4.4444,4.4444-4.4444,4.4444,1.9933,4.4444,4.4444-1.9938,4.4444-4.4444,4.4444Z"/></g><g class="uuid-8e491d39-af82-499d-9d05-b5e7729fda0f"><path class="uuid-20923eec-da96-437c-bc63-95b0b7fc2315" d="M36.8064,17.8763c-2.4506,0-4.4444,1.9933-4.4444,4.4444s1.9938,4.4444,4.4444,4.4444,4.4444-1.9933,4.4444-4.4444-1.9938-4.4444-4.4444-4.4444ZM36.8065,26.2096c-2.1441,0-3.8889-1.7448-3.8889-3.8889s1.7448-3.8889,3.8889-3.8889,3.8889,1.7448,3.8889,3.8889-1.7448,3.8889-3.8889,3.8889Z"/></g><g class="uuid-2e844380-05a2-4f5f-af2d-4a78ff7d715e"><path class="uuid-20923eec-da96-437c-bc63-95b0b7fc2315" d="M23.8064,4.3207c-2.7572,0-5,2.2428-5,5s2.2428,5,5,5,5-2.2428,5-5-2.2428-5-5-5ZM23.8064,13.7652c-2.4506,0-4.4444-1.9933-4.4444-4.4444s1.9938-4.4444,4.4444-4.4444,4.4444,1.9933,4.4444,4.4444-1.9938,4.4444-4.4444,4.4444Z"/></g><g class="uuid-8e491d39-af82-499d-9d05-b5e7729fda0f"><path class="uuid-20923eec-da96-437c-bc63-95b0b7fc2315" d="M23.8064,4.8763c-2.4506,0-4.4444,1.9933-4.4444,4.4444s1.9938,4.4444,4.4444,4.4444,4.4444-1.9933,4.4444-4.4444-1.9938-4.4444-4.4444-4.4444ZM23.8065,13.2096c-2.1441,0-3.8889-1.7448-3.8889-3.8889s1.7448-3.8889,3.8889-3.8889,3.8889,1.7448,3.8889,3.8889-1.7448,3.8889-3.8889,3.8889Z"/></g><g class="uuid-2e844380-05a2-4f5f-af2d-4a78ff7d715e"><path class="uuid-20923eec-da96-437c-bc63-95b0b7fc2315" d="M10.8064,17.3207c-2.7572,0-5,2.2428-5,5s2.2428,5,5,5,5-2.2428,5-5-2.2428-5-5-5ZM10.8064,26.7652c-2.4506,0-4.4444-1.9933-4.4444-4.4444s1.9938-4.4444,4.4444-4.4444,4.4444,1.9933,4.4444,4.4444-1.9938,4.4444-4.4444,4.4444Z"/></g><g class="uuid-8e491d39-af82-499d-9d05-b5e7729fda0f"><path class="uuid-20923eec-da96-437c-bc63-95b0b7fc2315" d="M10.8064,17.8763c-2.4506,0-4.4444,1.9933-4.4444,4.4444s1.9938,4.4444,4.4444,4.4444,4.4444-1.9933,4.4444-4.4444-1.9938-4.4444-4.4444-4.4444ZM10.8065,26.2096c-2.1441,0-3.8889-1.7448-3.8889-3.8889s1.7448-3.8889,3.8889-3.8889,3.8889,1.7448,3.8889,3.8889-1.7448,3.8889-3.8889,3.8889Z"/></g></svg>