<?xml version="1.0" encoding="UTF-8"?><svg id="uuid-75bebf13-09a4-442c-af1f-f8f1181a09fa" xmlns="http://www.w3.org/2000/svg" width="48" height="48" xmlns:xlink="http://www.w3.org/1999/xlink" viewBox="0 0 48 48"><defs><style>.uuid-53c38526-9329-40d1-ae14-7f81560fc1dd{fill:url(#uuid-fddc8501-7dab-48da-9189-3610588ca7ba);}.uuid-53c38526-9329-40d1-ae14-7f81560fc1dd,.uuid-171779f9-ace6-4f44-a33b-73c9ea8ed141,.uuid-dd03c041-b5c8-4ba0-927f-779b53dc88e9,.uuid-a85450c5-14d5-41bd-8bce-eb5ba2f14b92,.uuid-85d3080b-459e-48cf-a945-f7f09e3bd359,.uuid-c5f63fbc-f11e-44c1-af39-4b75eae06678,.uuid-a7035fa9-7d48-49fe-abe5-0e313052b5bb,.uuid-977b0622-68be-4242-af83-cdf1d12bbf5f,.uuid-0268c4c4-37b6-489e-9c26-8a4891845d35,.uuid-c8c40c82-b42b-42cc-b870-29e288ae8524{stroke-width:0px;}.uuid-171779f9-ace6-4f44-a33b-73c9ea8ed141{fill:url(#uuid-13c50d84-929d-4452-85fd-dec3a54478df);}.uuid-dd03c041-b5c8-4ba0-927f-779b53dc88e9{fill:url(#uuid-3d0f1a96-fcf4-4e0a-a89b-2ff2bc332c6a);}.uuid-a85450c5-14d5-41bd-8bce-eb5ba2f14b92{fill:url(#uuid-ca00f1d9-0500-4ffa-9841-5bf855f6ddee);}.uuid-c5f63fbc-f11e-44c1-af39-4b75eae06678{fill:url(#uuid-9d1e457e-8df9-4e75-b2b2-44fde101c687);}.uuid-0f52bf00-ae1d-4269-b22e-b72fbb540ba5{opacity:.05;}.uuid-ac9d94b5-beb5-4b29-8ba4-7dc390cebd3c{opacity:.07;}.uuid-a7035fa9-7d48-49fe-abe5-0e313052b5bb{fill:url(#uuid-51e5e093-db57-4570-ab59-71fad50a5c91);}.uuid-977b0622-68be-4242-af83-cdf1d12bbf5f{fill:url(#uuid-29c63ef0-d77c-4ec0-a491-d2363ca10033);}.uuid-0268c4c4-37b6-489e-9c26-8a4891845d35{fill:url(#uuid-c4ed2791-efb8-41eb-ae2c-2c2b12bf818b);}.uuid-c8c40c82-b42b-42cc-b870-29e288ae8524{fill:url(#uuid-e870c344-4f31-44fd-aacb-73dfa1f91d59);}</style><linearGradient id="uuid-13c50d84-929d-4452-85fd-dec3a54478df" x1="38.1671" y1="42.9767" x2="43.0826" y2="34.979" gradientUnits="userSpaceOnUse"><stop offset="0" stop-color="#32bdef"/><stop offset="1" stop-color="#1ea2e4"/></linearGradient><radialGradient id="uuid-e870c344-4f31-44fd-aacb-73dfa1f91d59" cx="-15.7074" cy="402.1809" fx="-15.7074" fy="402.1809" r="39.3529" gradientTransform="translate(410.912 26.9397) rotate(90)" gradientUnits="userSpaceOnUse"><stop offset="0" stop-color="#fafafb"/><stop offset=".293" stop-color="#f6f7f8"/><stop offset=".566" stop-color="#ebecee"/><stop offset=".832" stop-color="#d8dcdf"/><stop offset="1" stop-color="#c8cdd1"/></radialGradient><linearGradient id="uuid-fddc8501-7dab-48da-9189-3610588ca7ba" x1="22.5662" y1="20.3029" x2="25.2119" y2="24.6074" gradientUnits="userSpaceOnUse"><stop offset="0" stop-color="#64717c"/><stop offset="1" stop-color="#30363d"/></linearGradient><linearGradient id="uuid-9d1e457e-8df9-4e75-b2b2-44fde101c687" x1="21.292" y1="13.4117" x2="26.38" y2="5.1335" gradientUnits="userSpaceOnUse"><stop offset="0" stop-color="#ff9c0d"/><stop offset="1" stop-color="#f36e22"/></linearGradient><linearGradient id="uuid-c4ed2791-efb8-41eb-ae2c-2c2b12bf818b" x1="21.7958" y1="12.5922" x2="25.8647" y2="5.972" xlink:href="#uuid-9d1e457e-8df9-4e75-b2b2-44fde101c687"/><linearGradient id="uuid-29c63ef0-d77c-4ec0-a491-d2363ca10033" x1="21.292" y1="13.4117" x2="26.38" y2="5.1335" xlink:href="#uuid-13c50d84-929d-4452-85fd-dec3a54478df"/><linearGradient id="uuid-51e5e093-db57-4570-ab59-71fad50a5c91" x1="8.292" y1="26.4117" x2="13.38" y2="18.1335" xlink:href="#uuid-13c50d84-929d-4452-85fd-dec3a54478df"/><linearGradient id="uuid-3d0f1a96-fcf4-4e0a-a89b-2ff2bc332c6a" x1="34.292" y1="26.4117" x2="39.38" y2="18.1335" xlink:href="#uuid-13c50d84-929d-4452-85fd-dec3a54478df"/><linearGradient id="uuid-ca00f1d9-0500-4ffa-9841-5bf855f6ddee" x1="21.292" y1="38.5169" x2="26.38" y2="30.2387" xlink:href="#uuid-13c50d84-929d-4452-85fd-dec3a54478df"/></defs><path class="uuid-171779f9-ace6-4f44-a33b-73c9ea8ed141" d="M40.3018,36.0169v-2.8443h-3.1111v4.133c0,2.2863.9082,4.479,2.5249,6.0957l1.8225,1.8225c.6075.6075,1.5924.6075,2.1999,0h0c.6075-.6075.6075-1.5924,0-2.1999l-.9112-.9112c-1.6167-1.6167-2.5249-3.8093-2.5249-6.0957Z"/><path class="uuid-c8c40c82-b42b-42cc-b870-29e288ae8524" d="M23.8064,42.3207c-11.045,0-20-8.955-20-20S12.7614,2.3207,23.8064,2.3207c11.045,0,20,8.955,20,20,0,11.045-8.955,20-20,20Z"/><path class="uuid-53c38526-9329-40d1-ae14-7f81560fc1dd" d="M23.8064,24.8207c-1.3806,0-2.5-1.1194-2.5-2.5s1.1194-2.5,2.5-2.5,2.5,1.1194,2.5,2.5-1.1194,2.5-2.5,2.5Z"/><path class="uuid-c5f63fbc-f11e-44c1-af39-4b75eae06678" d="M23.8064,14.3207c-2.7612,0-5-2.2387-5-5s2.2387-5,5-5c2.7612,0,5,2.2387,5,5s-2.2387,5-5,5Z"/><circle class="uuid-0268c4c4-37b6-489e-9c26-8a4891845d35" cx="23.8066" cy="9.3206" r="4"/><path class="uuid-977b0622-68be-4242-af83-cdf1d12bbf5f" d="M23.8064,14.3207c-2.7612,0-5-2.2387-5-5s2.2387-5,5-5c2.7612,0,5,2.2387,5,5s-2.2387,5-5,5Z"/><path class="uuid-a7035fa9-7d48-49fe-abe5-0e313052b5bb" d="M10.8064,27.3207c-2.7612,0-5-2.2387-5-5s2.2387-5,5-5c2.7612,0,5,2.2387,5,5s-2.2387,5-5,5Z"/><path class="uuid-dd03c041-b5c8-4ba0-927f-779b53dc88e9" d="M36.8064,27.3207c-2.7612,0-5-2.2387-5-5s2.2387-5,5-5c2.7612,0,5,2.2387,5,5s-2.2387,5-5,5Z"/><path class="uuid-a85450c5-14d5-41bd-8bce-eb5ba2f14b92" d="M23.8064,39.4259c-2.7612,0-5-2.2387-5-5s2.2387-5,5-5c2.7612,0,5,2.2387,5,5s-2.2387,5-5,5Z"/><path class="uuid-53c38526-9329-40d1-ae14-7f81560fc1dd" d="M23.8064,24.8207c-1.3806,0-2.5-1.1194-2.5-2.5s1.1194-2.5,2.5-2.5,2.5,1.1194,2.5,2.5-1.1194,2.5-2.5,2.5Z"/><g class="uuid-ac9d94b5-beb5-4b29-8ba4-7dc390cebd3c"><path class="uuid-85d3080b-459e-48cf-a945-f7f09e3bd359" d="M23.8064,29.4259c-2.7572,0-5,2.2428-5,5s2.2428,5,5,5,5-2.2428,5-5-2.2428-5-5-5ZM23.8064,38.8704c-2.4506,0-4.4444-1.9933-4.4444-4.4444s1.9938-4.4444,4.4444-4.4444,4.4444,1.9933,4.4444,4.4444-1.9938,4.4444-4.4444,4.4444Z"/></g><g class="uuid-0f52bf00-ae1d-4269-b22e-b72fbb540ba5"><path class="uuid-85d3080b-459e-48cf-a945-f7f09e3bd359" d="M23.8064,29.9815c-2.4506,0-4.4444,1.9933-4.4444,4.4444s1.9938,4.4444,4.4444,4.4444,4.4444-1.9933,4.4444-4.4444-1.9938-4.4444-4.4444-4.4444ZM23.8065,38.3148c-2.1441,0-3.8889-1.7448-3.8889-3.8889s1.7448-3.8889,3.8889-3.8889,3.8889,1.7448,3.8889,3.8889-1.7448,3.8889-3.8889,3.8889Z"/></g><g class="uuid-ac9d94b5-beb5-4b29-8ba4-7dc390cebd3c"><path class="uuid-85d3080b-459e-48cf-a945-f7f09e3bd359" d="M36.8064,17.3207c-2.7572,0-5,2.2428-5,5s2.2428,5,5,5,5-2.2428,5-5-2.2428-5-5-5ZM36.8064,26.7652c-2.4506,0-4.4444-1.9933-4.4444-4.4444s1.9938-4.4444,4.4444-4.4444,4.4444,1.9933,4.4444,4.4444-1.9938,4.4444-4.4444,4.4444Z"/></g><g class="uuid-0f52bf00-ae1d-4269-b22e-b72fbb540ba5"><path class="uuid-85d3080b-459e-48cf-a945-f7f09e3bd359" d="M36.8064,17.8763c-2.4506,0-4.4444,1.9933-4.4444,4.4444s1.9938,4.4444,4.4444,4.4444,4.4444-1.9933,4.4444-4.4444-1.9938-4.4444-4.4444-4.4444ZM36.8065,26.2096c-2.1441,0-3.8889-1.7448-3.8889-3.8889s1.7448-3.8889,3.8889-3.8889,3.8889,1.7448,3.8889,3.8889-1.7448,3.8889-3.8889,3.8889Z"/></g><g class="uuid-ac9d94b5-beb5-4b29-8ba4-7dc390cebd3c"><path class="uuid-85d3080b-459e-48cf-a945-f7f09e3bd359" d="M23.8064,4.3207c-2.7572,0-5,2.2428-5,5s2.2428,5,5,5,5-2.2428,5-5-2.2428-5-5-5ZM23.8064,13.7652c-2.4506,0-4.4444-1.9933-4.4444-4.4444s1.9938-4.4444,4.4444-4.4444,4.4444,1.9933,4.4444,4.4444-1.9938,4.4444-4.4444,4.4444Z"/></g><g class="uuid-0f52bf00-ae1d-4269-b22e-b72fbb540ba5"><path class="uuid-85d3080b-459e-48cf-a945-f7f09e3bd359" d="M23.8064,4.8763c-2.4506,0-4.4444,1.9933-4.4444,4.4444s1.9938,4.4444,4.4444,4.4444,4.4444-1.9933,4.4444-4.4444-1.9938-4.4444-4.4444-4.4444ZM23.8065,13.2096c-2.1441,0-3.8889-1.7448-3.8889-3.8889s1.7448-3.8889,3.8889-3.8889,3.8889,1.7448,3.8889,3.8889-1.7448,3.8889-3.8889,3.8889Z"/></g><g class="uuid-ac9d94b5-beb5-4b29-8ba4-7dc390cebd3c"><path class="uuid-85d3080b-459e-48cf-a945-f7f09e3bd359" d="M10.8064,17.3207c-2.7572,0-5,2.2428-5,5s2.2428,5,5,5,5-2.2428,5-5-2.2428-5-5-5ZM10.8064,26.7652c-2.4506,0-4.4444-1.9933-4.4444-4.4444s1.9938-4.4444,4.4444-4.4444,4.4444,1.9933,4.4444,4.4444-1.9938,4.4444-4.4444,4.4444Z"/></g><g class="uuid-0f52bf00-ae1d-4269-b22e-b72fbb540ba5"><path class="uuid-85d3080b-459e-48cf-a945-f7f09e3bd359" d="M10.8064,17.8763c-2.4506,0-4.4444,1.9933-4.4444,4.4444s1.9938,4.4444,4.4444,4.4444,4.4444-1.9933,4.4444-4.4444-1.9938-4.4444-4.4444-4.4444ZM10.8065,26.2096c-2.1441,0-3.8889-1.7448-3.8889-3.8889s1.7448-3.8889,3.8889-3.8889,3.8889,1.7448,3.8889,3.8889-1.7448,3.8889-3.8889,3.8889Z"/></g></svg>