<?xml version="1.0" encoding="UTF-8"?><svg id="uuid-585f89f9-ddbf-4079-9fe9-e9efc7ffeb9a" xmlns="http://www.w3.org/2000/svg" width="48" height="48" xmlns:xlink="http://www.w3.org/1999/xlink" viewBox="0 0 48 48"><defs><style>.uuid-f8b499db-3760-48b0-9227-fd303cb5231a{fill:url(#uuid-a94d982f-fbf0-41e8-b228-532ab972a77e);}.uuid-f8b499db-3760-48b0-9227-fd303cb5231a,.uuid-115ffdbf-2157-4229-8d4e-8ed42f96c76c,.uuid-5fa7ac41-a04f-4476-a7a7-4a4c31d46a11,.uuid-65935f28-b676-4d94-98d8-3d4758494975,.uuid-367587c4-6c96-4d4d-bad9-2b4334fd63eb,.uuid-196932ec-24ee-411e-9046-23e8e35b939a,.uuid-5147442f-e7e6-4500-8700-a1190e8b7be2,.uuid-198a6d67-ccf5-4959-8f70-bb0a7c942565,.uuid-5dd65091-bbd1-41e4-a791-099551a620fc,.uuid-aa091055-206a-4749-8231-0c112029815a{stroke-width:0px;}.uuid-f8b499db-3760-48b0-9227-fd303cb5231a,.uuid-aa091055-206a-4749-8231-0c112029815a{opacity:.07;}.uuid-115ffdbf-2157-4229-8d4e-8ed42f96c76c{fill:url(#uuid-e36b4dfd-2564-4737-b34d-5c2bca402b54);}.uuid-5fa7ac41-a04f-4476-a7a7-4a4c31d46a11{fill:url(#uuid-07fd1c5f-a16f-429a-a59c-e5a0faf66fac);}.uuid-5fa7ac41-a04f-4476-a7a7-4a4c31d46a11,.uuid-65935f28-b676-4d94-98d8-3d4758494975{opacity:.05;}.uuid-367587c4-6c96-4d4d-bad9-2b4334fd63eb{fill:url(#uuid-e2883446-29af-445a-9adb-f46990163b39);}.uuid-196932ec-24ee-411e-9046-23e8e35b939a{fill:url(#uuid-261f6cbe-d73c-493f-9dd2-81dedae1adfc);opacity:.75;}.uuid-5147442f-e7e6-4500-8700-a1190e8b7be2{fill:url(#uuid-9c4216ce-8d4b-4d23-9226-6cd71662a7cc);}.uuid-198a6d67-ccf5-4959-8f70-bb0a7c942565{fill:url(#uuid-e7523a3c-0ba3-42ec-b879-9a96c339584e);}.uuid-5dd65091-bbd1-41e4-a791-099551a620fc{fill:url(#uuid-502faa0d-4919-4177-8c6c-f584c8048cc5);}</style><linearGradient id="uuid-e7523a3c-0ba3-42ec-b879-9a96c339584e" x1="12.6709" y1="1.886" x2="17.7431" y2="10.0032" gradientUnits="userSpaceOnUse"><stop offset="0" stop-color="#32bdef"/><stop offset="1" stop-color="#1ea2e4"/></linearGradient><linearGradient id="uuid-e36b4dfd-2564-4737-b34d-5c2bca402b54" x1="4.5471" y1="8.7891" x2="26.0121" y2="43.1404" gradientUnits="userSpaceOnUse"><stop offset="0" stop-color="#fff"/><stop offset=".242" stop-color="#f2f2f2"/><stop offset="1" stop-color="#ccc"/></linearGradient><linearGradient id="uuid-07fd1c5f-a16f-429a-a59c-e5a0faf66fac" x1="3.8713" y1="13.8416" x2="19.0628" y2="38.1531" gradientUnits="userSpaceOnUse"><stop offset="0" stop-color="#000"/><stop offset="1" stop-color="#30363d"/></linearGradient><linearGradient id="uuid-a94d982f-fbf0-41e8-b228-532ab972a77e" x1="4.1415" y1="14.2741" x2="18.7925" y2="37.7205" xlink:href="#uuid-07fd1c5f-a16f-429a-a59c-e5a0faf66fac"/><linearGradient id="uuid-9c4216ce-8d4b-4d23-9226-6cd71662a7cc" x1="4.4113" y1="14.7056" x2="18.5228" y2="37.2888" gradientUnits="userSpaceOnUse"><stop offset="0" stop-color="#64717c"/><stop offset="1" stop-color="#30363d"/></linearGradient><linearGradient id="uuid-502faa0d-4919-4177-8c6c-f584c8048cc5" x1="18.2169" y1="10.0652" x2="38.2052" y2="42.0532" xlink:href="#uuid-e36b4dfd-2564-4737-b34d-5c2bca402b54"/><linearGradient id="uuid-e2883446-29af-445a-9adb-f46990163b39" x1="17.3843" y1="9.0755" x2="38.4392" y2="42.7704" xlink:href="#uuid-e7523a3c-0ba3-42ec-b879-9a96c339584e"/><linearGradient id="uuid-261f6cbe-d73c-493f-9dd2-81dedae1adfc" x1="29.729" y1="4.4852" x2="38.4922" y2="18.7431" xlink:href="#uuid-e36b4dfd-2564-4737-b34d-5c2bca402b54"/></defs><path class="uuid-198a6d67-ccf5-4959-8f70-bb0a7c942565" d="M10.3487,3.5538h9.8619c.6672,0,1.2089.5417,1.2089,1.2089v2.9433h-12.2796v-2.9433c0-.6672.5417-1.2089,1.2089-1.2089Z"/><rect class="uuid-115ffdbf-2157-4229-8d4e-8ed42f96c76c" x="3" y="7.4833" width="24.5593" height="36.9629" rx="5.1008" ry="5.1008"/><path class="uuid-5fa7ac41-a04f-4476-a7a7-4a4c31d46a11" d="M11.4672,42.3198c-1.7868,0-3.2408-1.4535-3.2408-3.2408V12.9156c0-1.7873,1.454-3.2408,3.2408-3.2408s3.2403,1.4535,3.2403,3.2408v26.1634c0,1.7873-1.4535,3.2408-3.2403,3.2408Z"/><path class="uuid-f8b499db-3760-48b0-9227-fd303cb5231a" d="M11.4672,41.8097c-1.5058,0-2.7307-1.2254-2.7307-2.7307V12.9156c0-1.5053,1.2249-2.7307,2.7307-2.7307s2.7302,1.2254,2.7302,2.7307v26.1634c0,1.5053-1.2249,2.7307-2.7302,2.7307Z"/><rect class="uuid-5147442f-e7e6-4500-8700-a1190e8b7be2" x="9.2466" y="10.6949" width="4.441" height="30.6046" rx="2.2205" ry="2.2205"/><path class="uuid-65935f28-b676-4d94-98d8-3d4758494975" d="M10.4471,12.7731v26.4483c0,.5629.4578,1.0202,1.0202,1.0202h16.0017c.052-.292.0903-.5892.0903-.8962V12.584c0-.2847-.0389-.5591-.0837-.8311H11.4672c-.5624,0-1.0202.4573-1.0202,1.0202ZM23.4072,15.5636h.542v.541h-.542v-.541ZM23.4072,35.89h.542v.541h-.542v-.541ZM18.8539,15.5636h.5415v.541h-.5415v-.541ZM18.8539,35.89h.5415v.541h-.5415v-.541ZM14.3005,15.5636h.5415v.541h-.5415v-.541ZM14.3005,35.89h.5415v.541h-.5415v-.541Z"/><path class="uuid-aa091055-206a-4749-8231-0c112029815a" d="M10.9571,12.7731v26.4483c0,.2819.2281.5101.5101.5101h16.0532c.0099-.1297.0389-.2539.0389-.3861v-2.4123c-.0578-.0104-.1049-.0552-.1049-.1156v-1.314c0-.0603.047-.1052.1049-.1156v-18.7812c-.0578-.0104-.1049-.0552-.1049-.1156v-1.314c0-.0603.047-.1052.1049-.1156v-2.4775c0-.11-.0255-.2128-.0324-.321H11.4672c-.2819,0-.5101.2281-.5101.5101ZM22.8971,15.1771c0-.0677.0558-.1235.124-.1235h1.314c.0682,0,.124.0558.124.1235v1.314c0,.0677-.0558.1235-.124.1235h-1.314c-.0682,0-.124-.0558-.124-.1235v-1.314ZM22.8971,35.5034c0-.0677.0558-.1235.124-.1235h1.314c.0682,0,.124.0558.124.1235v1.314c0,.0677-.0558.1235-.124.1235h-1.314c-.0682,0-.124-.0558-.124-.1235v-1.314ZM18.3438,15.1771c0-.0677.0553-.1235.1235-.1235h1.3145c.0692,0,.1235.0538.1235.1235v1.314c0,.0677-.0553.1235-.1235.1235h-1.3145c-.0682,0-.1235-.0558-.1235-.1235v-1.314ZM18.3438,35.5034c0-.0677.0553-.1235.1235-.1235h1.3145c.0692,0,.1235.0538.1235.1235v1.314c0,.0677-.0553.1235-.1235.1235h-1.3145c-.0682,0-.1235-.0558-.1235-.1235v-1.314ZM13.7905,15.1771c0-.0697.0543-.1235.1235-.1235h1.3145c.0682,0,.1235.0558.1235.1235v1.314c0,.0677-.0553.1235-.1235.1235h-1.3145c-.0682,0-.1235-.0558-.1235-.1235v-1.314ZM13.7905,35.5034c0-.0697.0543-.1235.1235-.1235h1.3145c.0682,0,.1235.0558.1235.1235v1.314c0,.0677-.0553.1235-.1235.1235h-1.3145c-.0682,0-.1235-.0558-.1235-.1235v-1.314Z"/><rect class="uuid-5dd65091-bbd1-41e4-a791-099551a620fc" x="11.8602" y="13.5828" width="32.7016" height="24.9528" rx="1.0202" ry="1.0202"/><path class="uuid-367587c4-6c96-4d4d-bad9-2b4334fd63eb" d="M43.7639,12.773H11.467v26.4484h32.2969c.6827,0,1.2361-.5534,1.2361-1.2361V14.0091c0-.6827-.5534-1.2361-1.2361-1.2361ZM15.8621,36.8176c0,.35-.2837.6337-.6337.6337h-1.3144c-.35,0-.6337-.2837-.6337-.6337v-1.3144c0-.35.2837-.6337.6337-.6337h1.3144c.35,0,.6337.2837.6337.6337v1.3144ZM15.8621,16.4912c0,.35-.2837.6337-.6337.6337h-1.3144c-.35,0-.6337-.2837-.6337-.6337v-1.3144c0-.35.2837-.6337.6337-.6337h1.3144c.35,0,.6337.2837.6337.6337v1.3144ZM20.4156,36.8176c0,.35-.2837.6337-.6337.6337h-1.3144c-.35,0-.6337-.2837-.6337-.6337v-1.3144c0-.35.2837-.6337.6337-.6337h1.3144c.35,0,.6337.2837.6337.6337v1.3144ZM20.4156,16.4912c0,.35-.2837.6337-.6337.6337h-1.3144c-.35,0-.6337-.2837-.6337-.6337v-1.3144c0-.35.2837-.6337.6337-.6337h1.3144c.35,0,.6337.2837.6337.6337v1.3144ZM24.9691,36.8176c0,.35-.2837.6337-.6337.6337h-1.3144c-.35,0-.6337-.2837-.6337-.6337v-1.3144c0-.35.2837-.6337.6337-.6337h1.3144c.35,0,.6337.2837.6337.6337v1.3144ZM24.9691,16.4912c0,.35-.2837.6337-.6337.6337h-1.3144c-.35,0-.6337-.2837-.6337-.6337v-1.3144c0-.35.2837-.6337.6337-.6337h1.3144c.35,0,.6337.2837.6337.6337v1.3144ZM28.8889,14.5431c.35,0,.6337.2837.6337.6337v1.3145c0,.35-.2837.6337-.6337.6337h-1.3106c-.35,0-.6337-.2837-.6337-.6337v-1.3144c0-.35.2837-.6337.6337-.6337h1.3106ZM27.5782,37.4513c-.35,0-.6337-.2837-.6337-.6337v-1.3144c0-.35.2837-.6337.6337-.6337h1.3106c.35,0,.6337.2837.6337.6337v1.3145c0,.35-.2837.6337-.6337.6337h-1.3106ZM34.0799,36.8176c0,.35-.2837.6337-.6337.6337h-1.3144c-.35,0-.6337-.2837-.6337-.6337v-1.3144c0-.35.2837-.6337.6337-.6337h1.3144c.35,0,.6337.2837.6337.6337v1.3144ZM34.0799,16.4912c0,.35-.2837.6337-.6337.6337h-1.3144c-.35,0-.6337-.2837-.6337-.6337v-1.3144c0-.35.2837-.6337.6337-.6337h1.3144c.35,0,.6337.2837.6337.6337v1.3144ZM38.6334,36.8176c0,.35-.2837.6337-.6337.6337h-1.3144c-.35,0-.6337-.2837-.6337-.6337v-1.3144c0-.35.2837-.6337.6337-.6337h1.3144c.35,0,.6337.2837.6337.6337v1.3144ZM38.6334,16.4912c0,.35-.2837.6337-.6337.6337h-1.3144c-.35,0-.6337-.2837-.6337-.6337v-1.3144c0-.35.2837-.6337.6337-.6337h1.3144c.35,0,.6337.2837.6337.6337v1.3144ZM43.1868,36.8176c0,.35-.2837.6337-.6337.6337h-1.3144c-.35,0-.6337-.2837-.6337-.6337v-1.3144c0-.35.2837-.6337.6337-.6337h1.3144c.35,0,.6337.2837.6337.6337v1.3144ZM43.1868,16.4912c0,.35-.2837.6337-.6337.6337h-1.3144c-.35,0-.6337-.2837-.6337-.6337v-1.3144c0-.35.2837-.6337.6337-.6337h1.3144c.35,0,.6337.2837.6337.6337v1.3144Z"/><path class="uuid-65935f28-b676-4d94-98d8-3d4758494975" d="M29.5701,12.773l-1.77,1.7701h1.0887c.35,0,.6337.2837.6337.6337v1.3145c0,.35-.2837.6338-.6337.6338h-1.3105c-.35,0-.6337-.2838-.6337-.6338v-1.0925l-6.3131,6.3137c-.3789.3784-.5869.8813-.5869,1.4175.001.5342.21,1.0356.5869,1.4111l2.8281,2.8291c.3779.377.8809.585,1.4141.585.5352,0,1.0371-.208,1.4131-.5859l10.2706-10.27c-.2864-.0609-.5057-.3033-.5057-.608v-1.3144c0-.35.2837-.6337.6337-.6337h1.3144c.3047,0,.5471.2194.6079.5059l2.2761-2.2759h-11.3135ZM31.498,15.1768c0-.35.2837-.6337.6337-.6337h1.3144c.35,0,.6337.2838.6337.6337v1.3144c0,.35-.2837.6338-.6337.6338h-1.3144c-.35,0-.6337-.2838-.6337-.6338v-1.3144Z"/><path class="uuid-aa091055-206a-4749-8231-0c112029815a" d="M28.5071,14.5431h.3817c.35,0,.6337.2837.6337.6337v1.3145c0,.35-.2837.6338-.6337.6338h-1.3105c-.35,0-.6337-.2838-.6337-.6338v-.3854l-5.9596,5.9601c-.2842.2842-.4404.6611-.4404,1.0625.001.4004.1572.7769.4404,1.0591l2.8271,2.8281c.2842.2832.6611.4395,1.0615.4395s.7773-.1562,1.0596-.4395l10.2125-10.2119c-.0544-.0936-.0941-.1964-.0941-.3125v-1.3144c0-.35.2837-.6337.6337-.6337h1.3144c.1161,0,.219.0397.3126.0942l1.8644-1.8643h-9.8995l-1.7699,1.7701ZM32.1317,14.5431h1.3144c.35,0,.6337.2838.6337.6337v1.3144c0,.35-.2837.6338-.6337.6338h-1.3144c-.35,0-.6337-.2838-.6337-.6338v-1.3144c0-.35.2837-.6337.6337-.6337Z"/><path class="uuid-196932ec-24ee-411e-9046-23e8e35b939a" d="M36.452,1.379l2.963,2.963-18.077,18.078c-.391.391-.391,1.024,0,1.414l2.828,2.828c.391.391,1.024.391,1.414,0l18.078-18.077,2.963,2.963c.509.509,1.379.149,1.379-.571V1.616c0-.893-.723-1.616-1.616-1.616h-9.361c-.72,0-1.08.87-.571,1.379Z"/></svg>