<?xml version="1.0" encoding="UTF-8"?><svg id="uuid-fc49f84e-2ef4-46f2-ad3e-18e6de131a81" xmlns="http://www.w3.org/2000/svg" width="48" height="48" xmlns:xlink="http://www.w3.org/1999/xlink" viewBox="0 0 48 48"><defs><style>.uuid-2830ead3-9b0d-437a-b756-2ead0143b069{fill:url(#uuid-e386571c-3c02-403a-80f7-2491d4b9a222);stroke-width:0px;}</style><linearGradient id="uuid-e386571c-3c02-403a-80f7-2491d4b9a222" x1="13.9137" y1="7.6819" x2="34.368" y2="40.9615" gradientUnits="userSpaceOnUse"><stop offset="0" stop-color="#ff9c0d"/><stop offset="1" stop-color="#f36e22"/></linearGradient></defs><path class="uuid-2830ead3-9b0d-437a-b756-2ead0143b069" d="M23.112,40.539c-.396-.132-.818.082-.949.474l-.667,2c-.131.393.082.818.474.949.08.026.16.038.238.038.314,0,.607-.199.711-.513l.667-2c.131-.393-.081-.818-.474-.948ZM14.536,35.643c-.367-.083-.718.129-.848.47-.013.035-.036.064-.045.102l-.025.105c-.275,1.111-1.18,3.379-1.189,3.402-.154.384.033.821.418.975.091.037.186.054.278.054.297,0,.579-.178.696-.471.037-.093.869-2.181,1.204-3.424.015-.057.035-.122.049-.175l.034-.145c.088-.405-.168-.805-.572-.893ZM5.659,26.964c0-.001-.001-.002-.001-.003-.106-.842-.158-1.776-.158-2.833,0-1.003.089-1.999.246-2.982q0-.001-.001-.002c.112-.697.253-1.389.442-2.067.113-.399-.121-.813-.52-.924-.358-.101-.714.085-.867.409v.001c-.018.037-.045.068-.056.11-.259.927-.447,1.872-.571,2.829,0,.001.001.003.001.004-.113.866-.174,1.742-.174,2.622,0,2.921.368,5.022,1.194,6.812.127.274.398.436.682.436.105,0,.212-.022.314-.069.376-.174.54-.619.367-.996-.443-.96-.736-2.044-.898-3.347ZM12.544,29.38c-.047-.033-.092-.076-.139-.111.048.034.091.076.139.109-.062-.679-.153-1.317-.243-1.95-.155-1.077-.301-2.097-.301-3.303,0-.375.023-.744.056-1.111h0c.189-2.088.899-4.026,2.005-5.675,1.466-2.186,3.623-3.857,6.148-4.709h-.001c1.194-.403,2.466-.63,3.792-.63,1.037,0,2.065.133,3.058.397.403.107.812-.132.917-.533s-.132-.811-.533-.917c-1.117-.297-2.275-.447-3.442-.447-2.201,0-4.273.547-6.111,1.494-.002,0-.003-.001-.005-.001-.008.004-.015.01-.023.014-.01.005-.02.008-.03.013.002.001.003.001.005.001-2.019,1.062-3.794,2.639-5.054,4.536-1.049,1.58-1.767,3.396-2.086,5.346-.119.725-.196,1.463-.196,2.221,0,1.313.161,2.434.316,3.517.018.13.037.26.055.39.236,1.692.418,3.49-.034,6.002,0,0,.001,0,.001.001-.188,1.046-.481,2.227-.927,3.611-.127.395.09.817.484.944.077.024.154.036.23.036.317,0,.611-.202.714-.52.359-1.114.622-2.108.817-3.016,0,0-.001,0-.001-.001.516-2.399.53-4.163.389-5.708ZM9.085,28.211c-.093-.689-.186-1.458-.251-2.224-.05-.58-.084-1.188-.084-1.862,0-1.223.149-2.43.429-3.596.008-.035.041-.167.049-.198.437-1.722,1.165-3.355,2.15-4.824-.011-.009-.02-.019-.031-.028.011.009.021.019.032.028,1.004-1.497,2.271-2.823,3.764-3.899.187-.135.284-.339.3-.552.011-.171-.024-.346-.131-.495-.241-.335-.709-.411-1.047-.17-.018.013-.035.027-.052.04-1.544,1.122-2.862,2.491-3.927,4.028l-.002-.002c-.005.007-.029.044-.029.045-.922,1.348-1.676,2.863-2.18,4.421-.006.019-.046.147-.054.171-.464,1.504-.734,3.117-.763,4.722-.001.034-.009.395-.009.438.009,1.626.181,2.911.349,4.154.106.786.203,1.535.253,2.313.074,1.241.028,2.653-.335,4.373-.085.405.174.803.58.888.051.013.104.018.155.018.347,0,.659-.242.733-.596.221-1.051.331-1.967.375-2.811l-.001-.001c.089-1.641-.085-2.989-.273-4.381ZM40.793,29.876c-.009,0-.017.006-.026.006-.401.03-.71.367-.695.771.003.067.003.139.006.206.029.838.047,1.715.047,2.64,0,.414.336.75.75.75s.75-.336.75-.75c0-1.018-.02-1.987-.054-2.902-.016-.414-.349-.743-.778-.721ZM28.373,34.793c.025-.412-.29-.767-.704-.792-.427-.029-.768.291-.793.704-.002.026-.116,1.773-.682,4.168.005-.001.009-.002.014-.002-.004,0-.009.003-.013.003-.293,1.24-.704,2.651-1.288,4.095-.155.384.03.821.414.977.093.036.188.054.281.054.297,0,.578-.177.696-.469.666-1.648,1.168-3.497,1.487-4.901.002,0,.005-.001.007-.001.018-.082.031-.156.048-.236.005-.024.013-.055.018-.079-.001,0-.002.001-.003.001.418-2.016.512-3.423.518-3.522ZM35.137,29.498c-.074-2.123-.289-4.099-.543-5.556.001,0,.001-.001.002-.001-.004-.02-.078-.434-.111-.592-.15-.733-.339-1.437-.562-2.091-.133-.393-.561-.602-.952-.468-.392.134-.602.56-.468.952.203.595.375,1.237.513,1.909.067.326.13.699.191,1.093.237,1.536.417,3.549.447,5.77.027,1.97-.068,4.095-.346,6.18l-.001.001c-.198,1.492-.487,2.964-.899,4.34-.119.396.106.814.503.934.07.021.143.031.214.031.322,0,.621-.209.718-.535.521-1.736.88-3.84,1.087-5.727.002-.001.031-.278.029-.277.195-2.022.242-4.123.182-5.967-.001.001-.003.003-.004.004ZM31.75,28.979c-.036-1.273-.142-2.51-.247-3.448.001,0-.019-.179-.022-.202,0,0-.001.001-.002.001-.225-1.827-.519-2.916-.638-3.296-.315-1.049-.88-1.977-1.607-2.75h.001c-1.326-1.411-3.208-2.284-5.235-2.284-.768,0-1.523.126-2.24.373l-.142.05c-.389.142-.59.572-.448.961.142.39.574.59.961.448l.112-.04c.565-.193,1.155-.292,1.757-.292,1.252,0,2.456.444,3.431,1.185h-.001c.925.704,1.643,1.675,1.984,2.806.086.273.418,1.446.642,3.57.005-.002.006-.001.002,0,.089.84.162,1.813.194,2.96.028,1.009.015,1.998-.022,2.976-.001,0-.001.001-.002.001-.081,2.154-.318,4.23-.713,6.214.008-.002.016-.006.024-.008-.008.002-.016.007-.024.009-.303,1.526-.693,3.003-1.181,4.417-.135.392.073.819.464.954.081.028.164.041.245.041.311,0,.602-.195.709-.505.575-1.669,1.053-3.625,1.386-5.455.002-.001.004-.001.005-.002.007-.04.036-.224.034-.224.322-1.903.515-3.96.568-5.997q.001,0,.002-.001v-.05c0-.017.002-.034.002-.052-.001,0-.001.001-.002.001.017-.778.025-1.563.003-2.361ZM25.304,32.543c.091-1.766.043-3.552-.042-4.946-.014-.231-.075-1.045-.077-1.065h-.001c-.138-1.433-.305-2.331-.324-2.427-.078-.405-.47-.671-.88-.591-.406.08-.671.474-.591.88.005.023.172.912.307,2.373.007.071.034.392.041.481.118,1.499.185,3.489.035,5.74h-.001c-.099,1.491-.29,3.089-.631,4.735-.084.406.177.802.583.886.051.011.102.016.153.016.348,0,.66-.244.733-.598.34-1.643.555-3.553.667-5.091.003-.001.029-.393.028-.393ZM18.12,37.749c.521-1.874.772-3.618.856-5.212.001-.025.011-.252.012-.28.085-2.241-.122-4.292-.3-5.864-.005-.046-.01-.087-.015-.132h.001c-.094-.837-.174-1.567-.174-2.136,0-1.302.422-2.524,1.222-3.535.257-.324.201-.796-.123-1.053-.047-.037-.101-.053-.153-.078-.082-.035-.176-.056-.267-.069-.236-.014-.475.07-.634.269-.996,1.26-1.545,2.846-1.545,4.466,0,.475.051,1.034.113,1.631h-.001c.028.264.052.517.085.805.166,1.47.369,3.267.305,5.338.002.001.004.002.007.003-.002-.001-.004-.001-.006-.002-.053,1.714-.295,3.616-.888,5.674h-.001c-.332,1.156-.771,2.358-1.359,3.607-.176.375-.016.822.359.998.103.048.212.071.319.071.281,0,.551-.159.679-.431.554-1.177,1.059-2.583,1.411-3.729.003.001.005.002.008.003.017-.058.028-.113.044-.171.016-.055.038-.118.053-.171-.002-.001-.005-.001-.008-.002ZM22.156,32.626c.002-.026.006-.084.005-.084.124-2.083-.004-4.147-.146-5.643h.003c-.011-.106-.036-.349-.038-.367h-.001c-.03-.279-.059-.549-.087-.796-.079-.698-.142-1.249-.142-1.612,0-1.31,1.009-2.375,2.25-2.375,1.016,0,1.634.444,2.204,1.585.155.31.435,1.688.646,3.438.013-.002.013.001,0,.003.152,1.259.268,2.711.275,4.103.002.413.337.747.75.747h.003c.415-.002.749-.339.747-.753-.007-1.333-.139-3.002-.296-4.357.001,0,.002,0,.003-.001-.007-.057-.026-.211-.029-.231h-.001c-.216-1.704-.506-3.122-.756-3.622-.518-1.033-1.449-2.411-3.546-2.411-2.068,0-3.75,1.738-3.75,3.875,0,.448.067,1.036.151,1.781.027.239.056.498.085.766.003,0,.005.001.008.001h-.008c.167,1.56.334,3.607.162,6.024h0c-.125,1.758-.43,3.708-1.045,5.802-.359,1.226-.822,2.501-1.42,3.815-.171.377-.005.822.372.993.101.046.206.067.31.067.285,0,.558-.163.683-.439.615-1.351,1.154-2.883,1.537-4.172.002,0,.076-.264.073-.264.524-1.905.83-3.941.971-5.593.004,0,.021-.186.027-.28ZM43.818,21.558c-.126-.988-.349-2.058-.615-3.01.001-.003-.026-.108-.031-.125-.001.002-.002.005-.002.008-.289-.986-.667-1.996-1.095-2.914.001-.001.001-.002.002-.004-.005-.01-.011-.019-.015-.029-.005-.012-.01-.025-.015-.037-.001.001-.001.003-.002.004-.579-1.218-1.283-2.363-2.085-3.434-.971-1.297-2.092-2.474-3.348-3.503h0c-2.531-2.073-5.581-3.552-8.974-4.18-.408-.081-.8.193-.874.601-.076.407.194.798.601.874,3.008.556,5.723,1.841,8.005,3.635h0c1.379,1.083,2.596,2.349,3.616,3.769.885,1.233,1.618,2.577,2.184,4.005.013-.022.013-.021,0,.001.497,1.253.865,2.566,1.084,3.928,0,0,0,.001-.001.002.156.973.247,1.966.247,2.978v.122c0,.358.257.644.593.718.052.013.101.033.157.033.414,0,.75-.336.75-.75v-.122c0-.871-.074-1.726-.182-2.57ZM40.577,27.625c.023,0,.047-.001.07-.003.413-.038.716-.404.677-.816-.106-1.137-.257-2.301-.388-3.202,0-.001.001-.001.001-.002-.007-.044-.028-.185-.032-.211,0,0-.001.001-.001.002-.307-1.999-.62-3.269-.741-3.713-.061-.224-.178-.556-.246-.775-.001.001-.002.003-.003.004-.514-1.595-1.242-3.079-2.165-4.411-1.092-1.578-2.443-2.944-3.979-4.057h.001c-2.781-2.015-6.171-3.191-9.771-3.191-2.126,0-4.199.396-6.161,1.178-.385.153-.572.59-.419.975.154.385.59.571.975.419,1.784-.712,3.669-1.072,5.605-1.072,3.002,0,5.849.891,8.253,2.453h-.001c1.72,1.117,3.213,2.578,4.374,4.301.926,1.374,1.641,2.915,2.092,4.583.018.064.048.182.084.328.005-.006.009-.012.014-.017-.005.005-.009.012-.013.017.171.69.524,2.277.823,4.663.014.109.154,1.323.205,1.866.036.389.363.681.746.681ZM38.082,27.197c-.005-.066-.02-.253-.022-.28q-.001.001-.002.002c-.174-2.118-.475-3.914-.711-5.054.001-.001-.043-.209-.049-.235-.001,0-.169-.717-.232-.942-.384-1.491-1.02-2.877-1.85-4.129,0,0-.001,0-.001.001-1.05-1.588-2.42-2.955-4.066-3.994-.35-.221-.813-.117-1.035.234-.221.35-.116.813.234,1.035,1.444.912,2.65,2.109,3.584,3.509,0,0,.001,0,.001-.001.761,1.14,1.345,2.412,1.701,3.797.1.363.249.971.405,1.803.242,1.288.498,3.137.623,5.533l-.001.001c.087,1.661.105,3.591.01,5.778l-.006.006c-.057,1.238-.147,2.549-.287,3.951-.042.412.259.78.671.821.025.003.051.004.076.004.38,0,.707-.289.745-.675.191-1.916.295-3.676.339-5.297l.006-.006c.053-2.128-.023-4.227-.138-5.858.002-.002.004-.003.005-.004ZM7.491,15.712c.445-.883.959-1.713,1.522-2.498-.017-.019-.031-.042-.048-.062.017.02.033.042.05.062,1.03-1.438,2.248-2.703,3.611-3.773h0c3.128-2.458,7.008-3.884,11.135-3.937.414-.005.746-.345.74-.76-.005-.411-.34-.74-.75-.74h-.01c-4.597.059-8.914,1.688-12.354,4.51h.001c-1.225,1.005-2.333,2.166-3.306,3.458l-.001-.001c-.005.006-.009.014-.014.02-.007.01-.015.019-.023.029l.002.002c-.704.947-1.381,2-1.926,3.082l-.031.061c-.185.37-.004.757.366.943.093.047.194.068.295.068.298,0,.602-.188.741-.464ZM24,13.75c-3.453,0-6.506,1.742-8.365,4.399-1.183,1.691-1.885,3.75-1.885,5.976,0,.009.001.017.001.026.002.952.08,1.646.172,2.446.104.909.227,1.989.288,3.833.007.004.015.007.022.011-.007-.004-.015-.006-.022-.01.022.665.036,1.425.039,2.321,0,.414.336.748.75.748h.002c.414-.001.749-.337.748-.752-.001-.534-.01-1.093-.019-1.554h0c0-.015-.001-.027-.001-.041,0-.02-.001-.045-.001-.065h-.001c-.052-2.336-.195-3.615-.315-4.663-.059-.512-.108-.961-.136-1.449-.016-.266-.027-.541-.027-.851,0-2.027.681-3.891,1.812-5.387,1.601-2.116,4.111-3.488,6.938-3.488,2.675,0,5.167,1.217,6.839,3.339.043.054.099.09.153.129.266.194.63.208.901-.004.153-.121.241-.29.27-.468.033-.201-.009-.413-.145-.585-1.958-2.486-4.881-3.911-8.018-3.911Z"/></svg>