<?xml version="1.0" encoding="UTF-8"?><svg id="uuid-89682f36-36fd-468e-8688-d00b64f50635" xmlns="http://www.w3.org/2000/svg" width="48" height="48" xmlns:xlink="http://www.w3.org/1999/xlink" viewBox="0 0 48 48"><defs><style>.uuid-a4ea8c8e-7a2c-46a4-b4ac-1ba1dd49f0b8{fill:url(#uuid-0223ed56-f57f-4ea2-8055-3ab61f3c4cdb);}.uuid-a4ea8c8e-7a2c-46a4-b4ac-1ba1dd49f0b8,.uuid-b99276fc-dfa4-4e8a-b0e4-944ce32c08a9,.uuid-f878fe69-219f-417b-ab69-e18e29410c35,.uuid-218fa63e-3733-41fc-8b6c-f24367e181eb,.uuid-17a995fd-2cd6-4fbe-90da-f7f6a65dc96d{stroke-width:0px;}.uuid-b99276fc-dfa4-4e8a-b0e4-944ce32c08a9{fill:url(#uuid-9c69ae3a-d4a9-4523-b618-246bf427d359);}.uuid-f878fe69-219f-417b-ab69-e18e29410c35{fill:url(#uuid-54be230d-8bd6-4f02-9938-636e2e8c53d5);}.uuid-218fa63e-3733-41fc-8b6c-f24367e181eb{fill:url(#uuid-ddfd295c-1c75-498f-8a22-940fd41724f2);}.uuid-17a995fd-2cd6-4fbe-90da-f7f6a65dc96d{fill:url(#uuid-4b0a9f44-b821-4ffe-a549-01898b38661a);}</style><linearGradient id="uuid-9c69ae3a-d4a9-4523-b618-246bf427d359" x1="19.9566" y1="1.4464" x2="28.0653" y2="14.4231" gradientUnits="userSpaceOnUse"><stop offset="0" stop-color="#ff9c0d"/><stop offset="1" stop-color="#f36e22"/></linearGradient><linearGradient id="uuid-0223ed56-f57f-4ea2-8055-3ab61f3c4cdb" x1="24.7785" y1="26.9827" x2="33.9961" y2="41.7339" xlink:href="#uuid-9c69ae3a-d4a9-4523-b618-246bf427d359"/><linearGradient id="uuid-4b0a9f44-b821-4ffe-a549-01898b38661a" x1="17.3928" y1="19.9694" x2="28.9417" y2="38.4515" xlink:href="#uuid-9c69ae3a-d4a9-4523-b618-246bf427d359"/><linearGradient id="uuid-54be230d-8bd6-4f02-9938-636e2e8c53d5" x1="14.9723" y1="15.5632" x2="32.2628" y2="43.2339" xlink:href="#uuid-9c69ae3a-d4a9-4523-b618-246bf427d359"/><linearGradient id="uuid-ddfd295c-1c75-498f-8a22-940fd41724f2" x1="17.6028" y1="8.1912" x2="29.5433" y2="27.3" xlink:href="#uuid-9c69ae3a-d4a9-4523-b618-246bf427d359"/></defs><path class="uuid-b99276fc-dfa4-4e8a-b0e4-944ce32c08a9" d="M12.4111,9.439c.2461,0,.4902-.062.71-.1812,3.3291-1.8301,6.9961-2.7578,10.8984-2.7578,3.8906,0,7.1543.8267,10.8916,2.7534.2129.1221.458.1865.709.1865.5615,0,1.0703-.3208,1.3193-.8223.1904-.3511.2305-.7544.1143-1.1353-.1182-.3838-.3818-.6982-.7451-.8867-4.1592-2.1411-7.9492-3.0957-12.2891-3.0957-4.374,0-8.5254,1.0498-12.3379,3.1206-.7266.3936-.9971,1.3076-.5938,2.0513.2764.4731.7832.7671,1.3232.7671Z"/><path class="uuid-a4ea8c8e-7a2c-46a4-b4ac-1ba1dd49f0b8" d="M36.1006,37.1436c-.0898,0-.1807.0083-.2666.0239-.8125.1421-1.582.1924-1.9941.1924-1.9023,0-3.4717-.4365-4.8008-1.335-2.291-1.54-3.6592-4.0469-3.6592-6.7051,0-.8413-.6592-1.5-1.5-1.5s-1.5.6587-1.5,1.5c0,3.6431,1.8613,7.0806,4.9766,9.1929,1.8076,1.2388,3.9893,1.8672,6.4834,1.8672.2871,0,1.3174-.0181,2.5078-.2476.4043-.0723.7539-.2949.9844-.6279.2266-.3271.3125-.7231.2402-1.1118-.1289-.7236-.7471-1.249-1.4717-1.249Z"/><path class="uuid-17a995fd-2cd6-4fbe-90da-f7f6a65dc96d" d="M16.9756,36.7744c-1.1748-2.0806-1.7959-4.6587-1.7959-7.4546,0-4.5654,3.957-8.2798,8.8203-8.2798s8.8203,3.7144,8.8203,8.2798c0,.8413.6592,1.5,1.5,1.5s1.5-.6587,1.5-1.5c0-6.2197-5.3027-11.2798-11.8203-11.2798s-11.8203,5.0601-11.8203,11.2798c0,3.3145.748,6.4004,2.1631,8.9224,1.376,2.4858,2.3369,3.625,4.0859,5.3726.2666.2959.6572.4653,1.0713.4653.3887,0,.7705-.1528,1.1025-.4561.5615-.5913.5615-1.5171-.0068-2.1152-1.5703-1.5913-2.3867-2.5195-3.6201-4.7344Z"/><path class="uuid-f878fe69-219f-417b-ab69-e18e29410c35" d="M23.9199,13.1401c-6.6523,0-12.7256,3.7231-15.4717,9.4858-.9346,1.9727-1.4082,4.2246-1.4082,6.6938,0,2.7651.4883,5.4131,1.4893,8.0894.21.584.7725.9761,1.4004.9761.1816,0,.3604-.0332.5137-.0928.376-.1304.6758-.4014.8447-.7632.1699-.3643.1836-.79.04-1.165-1.1729-3.1284-1.3086-5.5186-1.3086-7.0444,0-2.0137.3809-3.8247,1.1318-5.3843,2.2559-4.7231,7.2676-7.7754,12.7686-7.7754,7.7197,0,14,5.9033,14,13.1597,0,1.8638-1.6416,3.3804-3.6602,3.3804s-3.6602-1.5166-3.6602-3.3804c0-3.5181-2.9873-6.3799-6.6592-6.3799s-6.6602,2.8618-6.6602,6.3799c0,4.0879,1.5938,7.9214,4.4893,10.7969,2.252,2.2109,4.3994,3.4238,7.6689,4.3281.1455.0366.2744.0552.3818.0552.6826,0,1.2832-.4854,1.4219-1.1294.1035-.3833.0488-.8013-.1523-1.1465-.1992-.3442-.5215-.5884-.8975-.686-2.7061-.7485-4.4785-1.7505-6.3203-3.5732-2.3164-2.2969-3.5918-5.374-3.5918-8.665,0-1.8638,1.6416-3.3799,3.6602-3.3799s3.6592,1.5161,3.6592,3.3799c0,3.5181,2.9873,6.3804,6.6602,6.3804s6.6602-2.8623,6.6602-6.3804c0-8.9106-7.626-16.1597-17-16.1597Z"/><path class="uuid-218fa63e-3733-41fc-8b6c-f24367e181eb" d="M42.207,17.5098c-2.0205-2.8374-4.6035-5.0762-7.6787-6.6548-3.1484-1.6191-6.7842-2.4751-10.5127-2.4751-3.7471,0-7.4004.8628-10.5645,2.4951-3.0664,1.5742-5.6504,3.8271-7.6826,6.6997-.4834.6963-.3223,1.6167.373,2.1006.2598.1733.5557.2646.8584.2646.5195,0,.9736-.251,1.1875-.6294,1.7666-2.4736,3.9941-4.4136,6.6221-5.7666,2.7393-1.417,5.9131-2.1665,9.1797-2.1665,3.251,0,6.4199.7427,9.1631,2.1479,2.625,1.3413,4.8457,3.2676,6.5977,5.7202.2793.4014.7363.6406,1.2236.6406.3105,0,.6123-.0952.8721-.2759.332-.231.5518-.5796.6191-.981.0664-.3945-.0283-.8042-.2578-1.1196Z"/></svg>