<?xml version="1.0" encoding="UTF-8"?><svg id="uuid-d0cfb41b-6b6b-4fb8-9537-8573b84c7bc6" xmlns="http://www.w3.org/2000/svg" width="48" height="48" xmlns:xlink="http://www.w3.org/1999/xlink" viewBox="0 0 48 48"><defs><style>.uuid-886b645c-cfe2-4254-a66d-a8a52d1afc4e{fill:url(#uuid-0ac0c084-bef5-453f-89f6-99ca19652260);}.uuid-886b645c-cfe2-4254-a66d-a8a52d1afc4e,.uuid-4791675b-79c2-4a40-9254-1bf3e97f8152,.uuid-32e15cd5-0a16-41a2-b0a4-f4f0d0ab41dc,.uuid-2b51e532-75e3-48ff-9c1f-186de2b6bdb7,.uuid-6eef3696-3946-44c4-9678-3af1876093b5,.uuid-b817b7d8-1a6c-4e9b-b472-02dd269ab93d,.uuid-92708e5b-c8dd-4a32-9722-05f39276e131,.uuid-20e6c1f3-6a5e-4ac7-a915-a2e12f5bb6c6{stroke-width:0px;}.uuid-886b645c-cfe2-4254-a66d-a8a52d1afc4e,.uuid-b817b7d8-1a6c-4e9b-b472-02dd269ab93d{opacity:.07;}.uuid-4791675b-79c2-4a40-9254-1bf3e97f8152,.uuid-6eef3696-3946-44c4-9678-3af1876093b5{opacity:.05;}.uuid-32e15cd5-0a16-41a2-b0a4-f4f0d0ab41dc{fill:url(#uuid-c4d7465a-32b5-4197-a01b-cb5ced23dc98);}.uuid-2b51e532-75e3-48ff-9c1f-186de2b6bdb7{fill:url(#uuid-f3b19a0c-b9e1-4647-961c-672969f355d3);}.uuid-6eef3696-3946-44c4-9678-3af1876093b5{fill:url(#uuid-b0c4c3b3-cc4f-466a-9441-0f486a9dee12);}.uuid-92708e5b-c8dd-4a32-9722-05f39276e131{fill:url(#uuid-c44b482d-1f4c-405b-a608-1919f69b3ed1);}.uuid-20e6c1f3-6a5e-4ac7-a915-a2e12f5bb6c6{fill:url(#uuid-5c83be7e-6bc0-46a4-98aa-eace98e86812);}</style><linearGradient id="uuid-5c83be7e-6bc0-46a4-98aa-eace98e86812" x1="7" y1="40.376" x2="41" y2="40.376" gradientUnits="userSpaceOnUse"><stop offset="0" stop-color="#64717c"/><stop offset="1" stop-color="#30363d"/></linearGradient><linearGradient id="uuid-b0c4c3b3-cc4f-466a-9441-0f486a9dee12" x1="14.0249" y1="40.376" x2="33.9746" y2="40.376" gradientUnits="userSpaceOnUse"><stop offset="0" stop-color="#000"/><stop offset="1" stop-color="#30363d"/></linearGradient><linearGradient id="uuid-0ac0c084-bef5-453f-89f6-99ca19652260" x1="15.1479" x2="32.8517" xlink:href="#uuid-b0c4c3b3-cc4f-466a-9441-0f486a9dee12"/><linearGradient id="uuid-c44b482d-1f4c-405b-a608-1919f69b3ed1" x1="7" y1="40.376" x2="41" y2="40.376" xlink:href="#uuid-5c83be7e-6bc0-46a4-98aa-eace98e86812"/><linearGradient id="uuid-c4d7465a-32b5-4197-a01b-cb5ced23dc98" x1="13.2449" y1="7.9742" x2="31.9177" y2="37.8569" gradientUnits="userSpaceOnUse"><stop offset="0" stop-color="#ff9c0d"/><stop offset="1" stop-color="#f36e22"/></linearGradient><linearGradient id="uuid-f3b19a0c-b9e1-4647-961c-672969f355d3" x1="17.8059" y1="20.2777" x2="28.4802" y2="37.3601" gradientUnits="userSpaceOnUse"><stop offset="0" stop-color="#fff"/><stop offset=".242" stop-color="#f2f2f2"/><stop offset="1" stop-color="#ccc"/></linearGradient></defs><path class="uuid-20e6c1f3-6a5e-4ac7-a915-a2e12f5bb6c6" d="M9.214,34.7904l30.4897,7.5639c.9177.2277,1.4748,1.1469,1.2443,2.0531l-.0827.3253c-.2305.9064-1.1614,1.4566-2.0793,1.2289l-30.4897-7.5639c-.9177-.2277-1.4748-1.1469-1.2443-2.0531l.0827-.3253c.2305-.9064,1.1614-1.4566,2.0793-1.2289Z"/><polygon class="uuid-6eef3696-3946-44c4-9678-3af1876093b5" points="26.2456 42.8506 33.9746 40.933 21.7539 37.9013 14.0249 39.8189 26.2456 42.8506"/><polygon class="uuid-886b645c-cfe2-4254-a66d-a8a52d1afc4e" points="25.1228 42.572 32.8517 40.6544 22.8768 38.1799 15.1479 40.0974 25.1228 42.572"/><path class="uuid-92708e5b-c8dd-4a32-9722-05f39276e131" d="M38.786,34.7904l-30.4897,7.5639c-.9177.2277-1.4748,1.1469-1.2443,2.0531l.0827.3253c.2305.9064,1.1614,1.4566,2.0793,1.2289l30.4897-7.5639c.9177-.2277,1.4748-1.1469,1.2443-2.0531l-.0827-.3253c-.2305-.9064-1.1614-1.4566-2.0793-1.2289Z"/><path class="uuid-32e15cd5-0a16-41a2-b0a4-f4f0d0ab41dc" d="M36.6529,19.1105c-.9824-2.9521-2.3946-4.8178-3.2912-5.7841-.3066-.3303-.8565-.16-.9332.2816-.0852.4905-.2559,1.0874-.5933,1.663-.4454.7599-1.6362,1.7373-1.6362,1.7373-.0895-2.8032-.5247-5.8592-1.4222-8.5352-.9454-2.8193-2.8715-5.1804-5.785-6.1308-.693-.2261-1.4036.2807-1.4205,1.0013-.0505,2.1494-.1319,4.5385-1.2329,6.4531-.8122,1.4125-2.1181,2.4397-3.2738,3.5619-1.5041,1.4606-2.9036,3.1839-4.0926,4.9477h0c-.5298.7627-1.0869,1.6912-1.549,2.7549-.0902.1834-.1475.3079-.1378.3095,0,0,.0079.0013.0085.0014-.5957,1.4607-1.0253,3.1613-1.0253,5.0737,0,7.6884,6.1552,13.9299,13.7316,13.9299s13.7239-6.2415,13.7239-13.9299c0-.1913.0081-.3771,0-.5654.0047.0008,0,.004,0,.004,0,0,.3065-2.6348-1.071-6.7742Z"/><path class="uuid-4791675b-79c2-4a40-9254-1bf3e97f8152" d="M23.7923,39.4685c-.9326,0-1.8583-.1002-2.7524-.2963-2.77-.6106-4.948-2.3569-5.9751-4.7907-.9844-2.3316-.7602-4.9078.615-7.0685.3731-.5853.7869-1.1378,1.1872-1.6714.3561-.4756.7089-.9459,1.0276-1.4342.7084-1.0862,1.2353-2.2567,1.5668-3.4789.047-.1729.0731-.387.1036-.618.1527-1.1769.3705-2.8514,1.989-3.3608.3443-.1076.71-.1624,1.0879-.1624,2.478,0,5.1765,2.4159,6.5645,3.8564,2.2741,2.3621,4.4922,6.5644,4.3197,10.6286-.1036,2.4339-1.0639,4.5144-2.7775,6.0203-1.7451,1.5322-4.2156,2.3759-6.9563,2.3759Z"/><path class="uuid-b817b7d8-1a6c-4e9b-b472-02dd269ab93d" d="M23.7923,38.9286c-.8899,0-1.776-.0949-2.6334-.2837-2.5939-.5716-4.6315-2.2008-5.5897-4.4712-.915-2.1671-.7063-4.5629.5733-6.5729.363-.5694.7714-1.1146,1.1669-1.643.3598-.4798.7196-.9596,1.0447-1.4584.7383-1.1326,1.2887-2.3537,1.6351-3.6307.0571-.2099.0891-.4745.1265-.7582.134-1.0303.3182-2.4412,1.6042-2.8462.2893-.0907.5995-.1371.9219-.1371,2.2757,0,4.8413,2.3115,6.1684,3.6887,2.1946,2.2788,4.3352,6.3272,4.1697,10.2342-.0972,2.2831-.994,4.2329-2.5944,5.6386-1.6453,1.4447-3.9872,2.2398-6.5933,2.2398Z"/><path class="uuid-2b51e532-75e3-48ff-9c1f-186de2b6bdb7" d="M21.8859,17.7789c2.2347-.7033,5.2565,2.0895,6.5282,3.4097,3.6007,3.738,6.11,11.1437,1.6085,15.0965-2.2219,1.951-5.7058,2.5014-8.7447,1.8327-5.0595-1.1134-7.1623-6.3193-4.6723-10.2295.6772-1.0635,1.5189-2.039,2.2085-3.0962.7697-1.1801,1.3439-2.4592,1.7036-3.7836.2516-.9266.1008-2.8303,1.3683-3.2295Z"/></svg>