<?xml version="1.0" encoding="UTF-8"?><svg id="uuid-ef0d1ad8-8d81-4ad6-9eec-0dd47094ab89" xmlns="http://www.w3.org/2000/svg" width="48" height="48" xmlns:xlink="http://www.w3.org/1999/xlink" viewBox="0 0 48 48"><defs><style>.uuid-1da27c0c-849a-4f67-aaea-6e4ef3a7be3e{fill:url(#uuid-9316b41b-951c-4a92-9d3e-246ff8f5320c);}.uuid-1da27c0c-849a-4f67-aaea-6e4ef3a7be3e,.uuid-de347c54-d0c3-4cfc-bf72-b3db4e5b9481,.uuid-5adb46f4-1c47-4f92-9fad-e6480ee9d434,.uuid-c6c377fa-5c13-4d67-8bfa-aa64f240f54c,.uuid-d21c95f5-2dee-48e3-9edc-3b316b7ae602,.uuid-6abd3d15-41cc-4cf2-a084-bfadb61eb532{stroke-width:0px;}.uuid-de347c54-d0c3-4cfc-bf72-b3db4e5b9481{fill:url(#uuid-cf19f254-29aa-4564-b557-9c364ed76f2e);}.uuid-5adb46f4-1c47-4f92-9fad-e6480ee9d434{fill:url(#uuid-83e61723-d4a3-4f76-aaf4-187ebe807980);}.uuid-c6c377fa-5c13-4d67-8bfa-aa64f240f54c{fill:url(#uuid-5f5b2592-9551-4290-98b6-bca687f31ce8);}.uuid-d21c95f5-2dee-48e3-9edc-3b316b7ae602{fill:url(#uuid-ce433b7d-b98d-4040-b938-1519ef7b5f38);}.uuid-6abd3d15-41cc-4cf2-a084-bfadb61eb532{fill:url(#uuid-dd8ca6a7-f122-4ee5-a567-9e1a70d60e03);}</style><linearGradient id="uuid-83e61723-d4a3-4f76-aaf4-187ebe807980" x1="11.2581" y1="2.7219" x2="31.652" y2="35.359" gradientUnits="userSpaceOnUse"><stop offset="0" stop-color="#fff"/><stop offset=".242" stop-color="#f2f2f2"/><stop offset="1" stop-color="#ccc"/></linearGradient><linearGradient id="uuid-9316b41b-951c-4a92-9d3e-246ff8f5320c" x1="7.9331" y1="487.9899" x2="14.139" y2="477.8927" gradientTransform="translate(0 494) scale(1 -1)" gradientUnits="userSpaceOnUse"><stop offset="0" stop-color="#ff9c0d"/><stop offset="1" stop-color="#f36e22"/></linearGradient><linearGradient id="uuid-ce433b7d-b98d-4040-b938-1519ef7b5f38" x1="23.9331" y1="487.9899" x2="30.139" y2="477.8927" xlink:href="#uuid-9316b41b-951c-4a92-9d3e-246ff8f5320c"/><linearGradient id="uuid-dd8ca6a7-f122-4ee5-a567-9e1a70d60e03" x1="35.9331" y1="474.9899" x2="42.139" y2="464.8927" xlink:href="#uuid-9316b41b-951c-4a92-9d3e-246ff8f5320c"/><linearGradient id="uuid-5f5b2592-9551-4290-98b6-bca687f31ce8" x1="23.9331" y1="461.9899" x2="30.139" y2="451.8927" xlink:href="#uuid-9316b41b-951c-4a92-9d3e-246ff8f5320c"/><linearGradient id="uuid-cf19f254-29aa-4564-b557-9c364ed76f2e" x1="7.9331" y1="461.9899" x2="14.139" y2="451.8927" xlink:href="#uuid-9316b41b-951c-4a92-9d3e-246ff8f5320c"/></defs><path class="uuid-5adb46f4-1c47-4f92-9fad-e6480ee9d434" d="M11.026,38.001c-.552,0-1-.447-1-.999,0-.553.447-1,.999-1.001l25.975-.025c.267,0,.518-.104.707-.294.189-.188.292-.44.292-.707l-.023-21.975c0-.551-.449-.999-1-.999h-.001l-25.975.025h-.001c-.552,0-1-.447-1-.999,0-.553.447-1,.999-1.001l25.975-.025h.003c1.653,0,2.999,1.344,3,2.997l.023,21.975c0,.802-.311,1.555-.876,2.122-.566.567-1.319.88-2.121.881l-25.976.025h0Z"/><path class="uuid-1da27c0c-849a-4f67-aaea-6e4ef3a7be3e" d="M14.004,15.969l-5.973.031c-1.099.001-1.999-.897-2-1.996l-.031-5.973c-.001-1.099.897-1.999,1.996-2l5.973-.031c1.099-.001,1.999.897,2,1.996l.031,5.973c.001,1.099-.897,1.999-1.996,2Z"/><path class="uuid-d21c95f5-2dee-48e3-9edc-3b316b7ae602" d="M30.004,15.969l-5.973.031c-1.099.001-1.999-.897-2-1.996l-.031-5.973c-.001-1.099.897-1.999,1.996-2l5.973-.031c1.099-.001,1.999.897,2,1.996l.031,5.973c.001,1.099-.897,1.999-1.996,2Z"/><path class="uuid-6abd3d15-41cc-4cf2-a084-bfadb61eb532" d="M42.004,28.969l-5.973.031c-1.099.001-1.999-.897-2-1.996l-.031-5.973c-.001-1.099.897-1.999,1.996-2l5.973-.031c1.099-.001,1.999.897,2,1.996l.031,5.973c.001,1.099-.897,1.999-1.996,2Z"/><path class="uuid-c6c377fa-5c13-4d67-8bfa-aa64f240f54c" d="M30.004,41.969l-5.973.031c-1.099.001-1.999-.897-2-1.996l-.031-5.973c-.001-1.099.897-1.999,1.996-2l5.973-.031c1.099-.001,1.999.897,2,1.996l.031,5.973c.001,1.099-.897,1.999-1.996,2Z"/><path class="uuid-de347c54-d0c3-4cfc-bf72-b3db4e5b9481" d="M14.004,41.969l-5.973.031c-1.099.001-1.999-.897-2-1.996l-.031-5.973c-.001-1.099.897-1.999,1.996-2l5.973-.031c1.099-.001,1.999.897,2,1.996l.031,5.973c.001,1.099-.897,1.999-1.996,2Z"/></svg>