<?xml version="1.0" encoding="UTF-8"?><svg id="uuid-4bcfd1d5-12a0-4932-b1bb-6c56f0a527b5" xmlns="http://www.w3.org/2000/svg" width="48" height="48" xmlns:xlink="http://www.w3.org/1999/xlink" viewBox="0 0 48 48"><defs><style>.uuid-1e65dff3-e0c7-4e7f-933c-adc809e24c38{opacity:.05;}.uuid-1e65dff3-e0c7-4e7f-933c-adc809e24c38,.uuid-c2552bc2-38ca-4389-bebf-930638fe8289,.uuid-8944da47-7c7a-4a4f-aa20-cad94d9432d5,.uuid-dc686a8f-cc00-4599-b56a-8d8464e99d1e,.uuid-59fa688a-9556-4caa-98e7-fbcc691db472{stroke-width:0px;}.uuid-c2552bc2-38ca-4389-bebf-930638fe8289{fill:url(#uuid-d9bf531e-d532-493e-bf68-47841d687a42);}.uuid-8944da47-7c7a-4a4f-aa20-cad94d9432d5{fill:url(#uuid-1dd1ad16-48f8-48a2-9ada-6cbb774961be);}.uuid-dc686a8f-cc00-4599-b56a-8d8464e99d1e{fill:#fff;}.uuid-59fa688a-9556-4caa-98e7-fbcc691db472{fill:url(#uuid-4719ea68-1100-49e1-bd44-4a4d8ce83caa);}</style><linearGradient id="uuid-d9bf531e-d532-493e-bf68-47841d687a42" x1="24" y1="287.045" x2="24" y2="270.833" gradientTransform="translate(0 294) scale(1 -1)" gradientUnits="userSpaceOnUse"><stop offset="0" stop-color="#f36e22"/><stop offset="1" stop-color="#c15227"/></linearGradient><linearGradient id="uuid-4719ea68-1100-49e1-bd44-4a4d8ce83caa" x1="-137.9346" y1="275.1071" x2="-137.9346" y2="253.0125" gradientTransform="translate(-114 294) rotate(-180)" gradientUnits="userSpaceOnUse"><stop offset="0" stop-color="#ff9c0d"/><stop offset="1" stop-color="#f36e22"/></linearGradient><linearGradient id="uuid-1dd1ad16-48f8-48a2-9ada-6cbb774961be" x1="30.7778" y1="33.3333" x2="30.7778" y2="47.2222" gradientUnits="userSpaceOnUse"><stop offset="0" stop-color="#64717c"/><stop offset="1" stop-color="#30363d"/></linearGradient></defs><path class="uuid-c2552bc2-38ca-4389-bebf-930638fe8289" d="M24.414,10.414l-2.536-2.536c-.562-.562-1.325-.878-2.121-.878H5c-1.105,0-2,.895-2,2v30c0,1.105.895,2,2,2h38c1.105,0,2-.895,2-2V13c0-1.105-.895-2-2-2h-17.172c-.53,0-1.039-.211-1.414-.586Z"/><path class="uuid-59fa688a-9556-4caa-98e7-fbcc691db472" d="M24,23l3.854-3.854c.093-.093.22-.146.353-.146h16.603c1.176,0,2.098,1.01,1.992,2.181l-1.636,18c-.094,1.03-.958,1.819-1.992,1.819H4.79c-1.019,0-1.875-.766-1.988-1.779l-1.74-15.666c-.033-.296.199-.555.497-.555h22.441Z"/><path class="uuid-1e65dff3-e0c7-4e7f-933c-adc809e24c38" d="M45.2227,32.333h-28.8896c-1.6543,0-3,1.3457-3,3v5.667h29.841c1.034,0,1.898-.789,1.992-1.819l.6172-6.7913c-.1821-.0346-.3687-.0566-.5606-.0566Z"/><path class="uuid-1e65dff3-e0c7-4e7f-933c-adc809e24c38" d="M45.2227,32.833h-28.8896c-1.3789,0-2.5,1.1211-2.5,2.5v5.667h29.341c1.034,0,1.898-.789,1.992-1.819l.572-6.2934c-.1665-.035-.3386-.0546-.5154-.0546Z"/><rect class="uuid-8944da47-7c7a-4a4f-aa20-cad94d9432d5" x="14.3333" y="33.3333" width="32.8889" height="13.8889" rx="2" ry="2"/><path class="uuid-1e65dff3-e0c7-4e7f-933c-adc809e24c38" d="M43.5605,37.085l-.0723-.4062-.5508-.5508-5.4531.0078-.4062.0723-.4512.4512c-.207-.1289-.4258-.2422-.6562-.3379-.5234-.2178-1.0898-.3281-1.6836-.3281-.5918,0-1.1572.1104-1.6826.3281-.5225.2168-.9863.5234-1.377.9092-.0615.0605-.1201.1221-.1768.1846l-.001-.3301-.0723-.4062-.5508-.5508-1.6719.0078-.4062.0723-.5508.5508v1.7539h-.8818l-.0059-1.4277-.0723-.4062-.5508-.5508-1.6719.0078-.4062.0723-.5508.5508v.0996c-.1953-.1934-.3994-.3535-.6113-.4805-.4268-.2559-.9287-.3848-1.4941-.3848-.377,0-.7383.0674-1.0762.2002-.3359.1338-.6357.3232-.8887.5635-.2607.2471-.4678.5439-.6133.8818-.1465.3389-.2217.7119-.2217,1.1094,0,.4922.1221.9268.3604,1.2871.1826.2822.4141.5322.6875.7461l-1.4688.9844.249.7256c.1172.3438.2871.6504.5029.9102.2061.251.4492.4678.7207.6416.2754.1777.5762.3105.8945.3945.3066.083.624.125.9434.125.4404,0,.8574-.083,1.2432-.2481.3145-.1367.5957-.3115.8379-.5205l.0146.083.5508.5508,1.6719-.0078.4062-.0723.5508-.5508v-2.0244h.8818l.0059,1.6982.0723.4062.5508.5508,1.6719-.0078.4062-.0723.5508-.5508v-.6494c.0547.0605.1113.1191.1689.1768.3916.3867.8555.6934,1.3779.9102.5254.2178,1.0908.3281,1.6826.3281.5938,0,1.1602-.1104,1.6836-.3281.5225-.2168.9863-.5234,1.3789-.9102.3906-.3877.7012-.8438.9229-1.3535.0566-.1309.1074-.2637.1504-.3994l.0029,1.8994.0723.4062.5508.5508,1.6719-.0078.4062-.0723.5508-.5508v-4.4121l.9336-.0049.4062-.0723.5508-.5508-.0078-1.6719ZM23.6582,39.2412c-.0586-.0479-.1191-.0947-.1807-.1396l.1807-.1348v.2744ZM35.1504,40.6777c-.0498.1201-.1123.2168-.1953.2998-.0918.0908-.1904.1582-.3154.2119-.1055.0469-.2178.0684-.3525.0684-.1338,0-.248-.0225-.3545-.0684-.1201-.0527-.2246-.124-.3105-.21-.083-.083-.1494-.1836-.1963-.2988-.0488-.1182-.0732-.2539-.0732-.4033,0-.1484.0244-.2842.0742-.4033.0469-.1152.1123-.2148.1953-.2979.0859-.0859.1904-.1562.3096-.209.1084-.0469.2217-.0693.3555-.0693.1348,0,.2471.0225.3584.0713.1191.0518.2178.1172.3066.2061.085.0859.1484.1826.1992.3057.0469.1133.0713.2461.0713.3965s-.0244.2852-.0723.4004Z"/><path class="uuid-1e65dff3-e0c7-4e7f-933c-adc809e24c38" d="M43.0234,36.9209l-.293-.293h-5.1582l-.252.0449-.293.293v.6575c-.0111-.0113-.019-.0252-.0303-.0364-.3447-.3408-.7539-.6113-1.2178-.8037-.4629-.1924-.9648-.29-1.4922-.29-.5254,0-1.0273.0977-1.4912.29s-.873.4629-1.2178.8037c-.3438.3389-.6191.7432-.8174,1.2002-.0902.2061-.1531.4227-.2031.6432v-2.2575l-.0449-.252-.293-.293h-1.377l-.252.0449-.293.293v2.0469h-1.8799v-1.8398l-.0449-.252-.293-.293h-1.377l-.252.0449-.293.293v3.8827c-.0421-.1492-.0894-.2949-.1602-.4237-.1592-.291-.3623-.543-.6025-.751-.2285-.1963-.4805-.3613-.75-.4912-.0234-.0117-.0479-.0225-.0713-.0342l1.4307-1.0605-.2939-.4014c-.2852-.3887-.5947-.6846-.9209-.8799-.3477-.208-.7637-.3135-1.2373-.3135-.3145,0-.6143.0557-.8916.165-.2754.1094-.5215.2646-.7295.4619-.2129.2012-.3799.4434-.498.7178-.1201.2764-.1807.583-.1807.9102,0,.3926.0947.7354.2793,1.0146.1611.248.3652.4658.6094.6504.2236.168.4688.3145.7256.4336.2178.1025.4199.2061.6055.3125.1572.0889.2891.1836.3916.2812.0381.0361.0439.0596.0439.0977,0,.1172-.0322.1455-.0439.1562-.0195.0176-.0713.0635-.2217.0635-.0869,0-.1807-.0312-.2861-.0947-.0381-.0234-.1367-.1045-.2373-.3662l-.2119-.3223h-.4971l-1.4805.9922.125.3633c.0977.2861.2383.54.416.7539.1729.2109.377.3926.6055.5391.2295.1484.4834.2607.7529.332.2646.0713.5381.1074.8135.1074.3721,0,.7227-.0693,1.0439-.207.3154-.1367.5918-.3184.8203-.541.2373-.2295.4229-.501.5527-.8057.0438-.1021.0693-.2092.0986-.3152v1.1892l.0449.252.293.293h1.377l.252-.0449.293-.293v-2.3174h1.8799v2.1104l.0449.252.293.293h1.377l.252-.0449.293-.293v-2.4647c.05.2207.1129.4373.2031.6434.1982.457.4736.8613.8174,1.2002.3447.3408.7539.6113,1.2178.8037s.9658.29,1.4912.29c.5273,0,1.0293-.0977,1.4922-.29.4639-.1924.873-.4629,1.2178-.8037.3447-.3418.6201-.7451.8174-1.1992.2012-.459.3027-.9609.3027-1.4922,0-.4931-.0969-.9581-.2709-1.3896h1.0717v4.4951l.0449.252.293.293h1.377l.252-.0449.293-.293v-4.7021h1.3457l.252-.0449.293-.293v-1.377l-.0449-.252ZM35.6123,40.8691c-.0752.1816-.1758.333-.3047.4629-.1357.1348-.2871.2373-.4658.3145-.1699.0752-.3516.1113-.5547.1113-.2021,0-.3838-.0361-.5566-.1113-.1748-.0771-.3301-.1816-.4619-.3135-.1299-.1299-.2324-.2852-.3057-.4629-.0732-.1787-.1104-.3779-.1104-.5928s.0371-.4131.1113-.5928c.0723-.1768.1748-.332.3047-.4619.1318-.1318.2871-.2363.4629-.3135.1719-.0752.3535-.1113.5557-.1113.2031,0,.3848.0361.5566.1123.1768.0762.3281.1787.4629.3125.1299.1309.2305.2822.3057.4648.0732.1748.1104.374.1104.5898,0,.2168-.0371.416-.1104.5918Z"/><path class="uuid-dc686a8f-cc00-4599-b56a-8d8464e99d1e" d="M22.2461,38.7031c-.1025-.1387-.2148-.2402-.3379-.3066-.123-.0654-.2422-.0986-.3555-.0986-.1562,0-.2695.04-.3418.1211s-.1074.1904-.1074.3291c0,.1201.0654.2246.1973.3145.1318.0898.2949.1807.4902.2705s.4082.1904.6387.3008c.2314.1113.4443.251.6396.4189.1943.168.3584.3721.4902.6123.1318.2393.1982.5303.1982.873,0,.2695-.0527.5273-.1582.7734-.1045.2461-.252.4609-.4404.6436-.1885.1836-.4131.3301-.6709.4414-.2578.1104-.5391.166-.8457.166-.2344,0-.4619-.0303-.6836-.0898-.2227-.0596-.4258-.1494-.6123-.2695s-.3496-.2656-.4902-.4365c-.1416-.1709-.251-.3711-.3291-.5986l1.0352-.6934h.0898c.1143.2998.2627.5059.4453.6162.1836.1113.3652.167.5449.167.2285,0,.4121-.0635.5537-.1895s.2119-.3027.2119-.5303c0-.1807-.0664-.333-.1982-.459s-.2959-.2451-.4912-.3555c-.1943-.1113-.4082-.2207-.6387-.3291-.2305-.1074-.4434-.2354-.6387-.3818-.1953-.1475-.3594-.3213-.4902-.5225-.1328-.2012-.1982-.4482-.1982-.7422,0-.2578.0459-.4951.1396-.7109.0928-.2168.2207-.4004.3828-.5537.1621-.1533.3516-.2734.5703-.3604.2197-.0869.4551-.1299.707-.1299.3838,0,.7109.0811.9805.2422.2705.1621.5283.4111.7744.7471l-.9717.7207h-.0898Z"/><path class="uuid-dc686a8f-cc00-4599-b56a-8d8464e99d1e" d="M34.2871,36.9932c.4629,0,.8965.084,1.3008.252.4053.168.7578.4004,1.0576.6973s.5371.6445.7109,1.0439c.1748.3994.2607.8291.2607,1.291,0,.4629-.0859.8926-.2607,1.292-.1738.3994-.4111.7471-.7109,1.0439s-.6523.5293-1.0576.6973c-.4043.168-.8379.252-1.3008.252-.4609,0-.8945-.084-1.2998-.252s-.7578-.4004-1.0576-.6973c-.3008-.2969-.5371-.6445-.7109-1.0439s-.2617-.8291-.2617-1.292c0-.4619.0879-.8916.2617-1.291s.4102-.7471.7109-1.0439c.2998-.2969.6523-.5293,1.0576-.6973s.8389-.252,1.2998-.252ZM34.2871,38.2979c-.2695,0-.5215.0508-.7559.1533-.2334.1016-.4395.2412-.6162.418s-.3154.3857-.4141.626c-.0986.2393-.1484.501-.1484.7822,0,.2822.0498.5439.1484.7832.0986.2402.2373.4492.4141.626s.3828.3164.6162.418c.2344.1025.4863.1533.7559.1533.2705,0,.5225-.0508.7559-.1533.2344-.1016.4395-.2412.6172-.418.1768-.1768.3145-.3857.4141-.626.0996-.2393.1484-.501.1484-.7832,0-.2812-.0488-.543-.1484-.7822-.0996-.2402-.2373-.4492-.4141-.626-.1777-.1768-.3828-.3164-.6172-.418-.2334-.1025-.4854-.1533-.7559-.1533Z"/><path class="uuid-dc686a8f-cc00-4599-b56a-8d8464e99d1e" d="M25.873,37.1279l.0449.0449v2.3398h2.8799v-2.3398l.0449-.0449h1.1699l.0449.0449v6.21l-.0449.0449h-1.1699l-.0449-.0449v-2.6104h-2.8799v2.6104l-.0449.0449h-1.1699l-.0449-.0449v-6.21l.0449-.0449h1.1699Z"/><path class="uuid-dc686a8f-cc00-4599-b56a-8d8464e99d1e" d="M42.5234,37.1279l.0449.0449v1.1699l-.0449.0449h-1.8457v4.9951l-.0449.0449h-1.1699l-.0449-.0449v-4.9951h-1.8457l-.0449-.0449v-1.1699l.0449-.0449h4.9512Z"/></svg>