<?xml version="1.0" encoding="UTF-8"?><svg id="uuid-011e1460-45f0-493e-a6b4-9b81f52f6bd5" xmlns="http://www.w3.org/2000/svg" width="48" height="48" xmlns:xlink="http://www.w3.org/1999/xlink" viewBox="0 0 48 48"><defs><style>.uuid-783db610-c16c-4108-83ec-84a2c3cb0296{fill:url(#uuid-dd4cbf46-de57-4791-89bc-e5d0ba0c23e4);}.uuid-783db610-c16c-4108-83ec-84a2c3cb0296,.uuid-84d9af37-4fbd-4c64-b5f9-6695561f54b8,.uuid-4eefcfa0-d224-47c9-99c1-8d464dac2bc1,.uuid-88d865f2-f759-4b7b-8663-4579b0f2c69d,.uuid-23c6d1c8-9c5b-4fb3-baba-ed99ac236511,.uuid-597b6167-0a71-4544-a107-ae6befe912be{stroke-width:0px;}.uuid-84d9af37-4fbd-4c64-b5f9-6695561f54b8,.uuid-ada287a1-d8d0-4800-b71d-9c66788a3936{opacity:.05;}.uuid-88d865f2-f759-4b7b-8663-4579b0f2c69d{fill:#fff;}.uuid-23c6d1c8-9c5b-4fb3-baba-ed99ac236511{fill:url(#uuid-c515aed6-7992-4071-9fc2-952289312373);}.uuid-597b6167-0a71-4544-a107-ae6befe912be{fill:url(#uuid-429563bf-d767-4088-85a9-baf7c8bc2bbc);}</style><linearGradient id="uuid-429563bf-d767-4088-85a9-baf7c8bc2bbc" x1="24" y1="287.045" x2="24" y2="270.833" gradientTransform="translate(0 294) scale(1 -1)" gradientUnits="userSpaceOnUse"><stop offset="0" stop-color="#f36e22"/><stop offset="1" stop-color="#c15227"/></linearGradient><linearGradient id="uuid-dd4cbf46-de57-4791-89bc-e5d0ba0c23e4" x1="162.0654" y1="275.1071" x2="162.0654" y2="253.0125" gradientTransform="translate(186 294) rotate(-180)" gradientUnits="userSpaceOnUse"><stop offset="0" stop-color="#ff9c0d"/><stop offset="1" stop-color="#f36e22"/></linearGradient><linearGradient id="uuid-c515aed6-7992-4071-9fc2-952289312373" x1="30.7778" y1="33.3333" x2="30.7778" y2="47.2222" gradientUnits="userSpaceOnUse"><stop offset="0" stop-color="#64717c"/><stop offset="1" stop-color="#30363d"/></linearGradient></defs><path class="uuid-597b6167-0a71-4544-a107-ae6befe912be" d="M24.414,10.414l-2.536-2.536c-.562-.562-1.325-.878-2.121-.878H5c-1.105,0-2,.895-2,2v30c0,1.105.895,2,2,2h38c1.105,0,2-.895,2-2V13c0-1.105-.895-2-2-2h-17.172c-.53,0-1.039-.211-1.414-.586Z"/><path class="uuid-783db610-c16c-4108-83ec-84a2c3cb0296" d="M24,23l3.854-3.854c.093-.093.22-.146.353-.146h16.603c1.176,0,2.098,1.01,1.992,2.181l-1.636,18c-.094,1.03-.958,1.819-1.992,1.819H4.79c-1.019,0-1.875-.766-1.988-1.779l-1.74-15.666c-.033-.296.199-.555.497-.555h22.441Z"/><path class="uuid-84d9af37-4fbd-4c64-b5f9-6695561f54b8" d="M45.2227,32.333h-28.8896c-1.6543,0-3,1.3457-3,3v5.667h29.841c1.034,0,1.898-.789,1.992-1.819l.6172-6.7913c-.1821-.0346-.3687-.0566-.5606-.0566Z"/><path class="uuid-84d9af37-4fbd-4c64-b5f9-6695561f54b8" d="M45.2227,32.833h-28.8896c-1.3789,0-2.5,1.1211-2.5,2.5v5.667h29.341c1.034,0,1.898-.789,1.992-1.819l.572-6.2934c-.1665-.035-.3386-.0546-.5154-.0546Z"/><rect class="uuid-23c6d1c8-9c5b-4fb3-baba-ed99ac236511" x="14.3333" y="33.3333" width="32.8889" height="13.8889" rx="2" ry="2"/><path class="uuid-84d9af37-4fbd-4c64-b5f9-6695561f54b8" d="M38.2168,38.0078c-.1514-.3789-.3779-.7139-.6768-.999-.2861-.2705-.6318-.4873-1.0264-.6445-.3955-.1572-.8418-.2363-1.3262-.2363l-2.0225.0078-.4062.0723-.0908.0908-.1709-.1709-1.6719.0078-.4062.0723-.0908.0908-.1709-.1709-1.6719.0078-.4062.0723-.5508.5508v1.7539h-.8818l-.0059-1.4277-.0723-.4062-.5508-.5508-1.6719.0078-.4062.0723-.5508.5508.0078,6.7119.0723.4062.5508.5508,1.6719-.0078.4062-.0723.5508-.5508v-2.0244h.8818l.0059,1.6982.0723.4062.5508.5508h1.6279l.4502-.0801.0908-.0908.1709.1709h1.6279l.4502-.0801.0908-.0908.1709.1709h1.6279l.4502-.0801.5508-.5508v-1.6279c.377-.0254.7285-.1016,1.0498-.2285.3936-.1572.7383-.375,1.0254-.6465.2949-.2812.5215-.6152.6738-.9932.1465-.3633.2207-.75.2207-1.1484,0-.3994-.0742-.7852-.2207-1.1445Z"/><g class="uuid-ada287a1-d8d0-4800-b71d-9c66788a3936"><polygon class="uuid-4eefcfa0-d224-47c9-99c1-8d464dac2bc1" points="29.9502 36.6279 28.5732 36.6279 28.3213 36.6729 28.0283 36.9658 28.0283 39.0127 26.1484 39.0127 26.1484 37.1729 26.1035 36.9209 25.8105 36.6279 24.4336 36.6279 24.1816 36.6729 23.8887 36.9658 23.8887 43.3828 23.9336 43.6348 24.2266 43.9277 25.6035 43.9277 25.8555 43.8828 26.1484 43.5898 26.1484 41.2725 28.0283 41.2725 28.0283 43.3828 28.0732 43.6348 28.3662 43.9277 29.7432 43.9277 29.9951 43.8828 30.2881 43.5898 30.2881 37.1729 30.2432 36.9209 29.9502 36.6279"/><polygon class="uuid-4eefcfa0-d224-47c9-99c1-8d464dac2bc1" points="32.29 36.6279 30.9131 36.6279 30.6611 36.6729 30.3682 36.9658 30.3682 43.3828 30.4131 43.6348 30.7061 43.9277 32.083 43.9277 32.335 43.8828 32.6279 43.5898 32.6279 37.1729 32.583 36.9209 32.29 36.6279"/><path class="uuid-4eefcfa0-d224-47c9-99c1-8d464dac2bc1" d="M37.7529,38.1934c-.125-.3125-.3115-.5879-.5557-.8213-.2402-.2266-.5312-.4092-.8672-.543-.3379-.1338-.7217-.2012-1.1426-.2012h-1.9346l-.252.0449-.293.293v6.417l.0449.252.293.293h1.377l.252-.0449.293-.293v-1.9121h.2197c.4209,0,.8047-.0674,1.1445-.2012.334-.1338.625-.3164.8662-.5449.2432-.2314.4297-.5068.5547-.8174.1221-.3027.1846-.627.1846-.9619s-.0625-.6582-.1846-.959ZM35.5,39.3311c-.0801.0566-.2188.0869-.4023.0869h-.1299v-.5303h.1299c.1836,0,.3232.0303.4023.0859.04.0293.043.1445.043.1787,0,.0713-.0107.1553-.043.1787Z"/></g><path class="uuid-88d865f2-f759-4b7b-8663-4579b0f2c69d" d="M25.6035,37.1279l.0449.0449v2.3398h2.8799v-2.3398l.0449-.0449h1.1699l.0449.0449v6.21l-.0449.0449h-1.1699l-.0449-.0449v-2.6104h-2.8799v2.6104l-.0449.0449h-1.1699l-.0449-.0449v-6.21l.0449-.0449h1.1699Z"/><path class="uuid-88d865f2-f759-4b7b-8663-4579b0f2c69d" d="M32.083,37.1279l.0449.0449v6.21l-.0449.0449h-1.1699l-.0449-.0449v-6.21l.0449-.0449h1.1699Z"/><path class="uuid-88d865f2-f759-4b7b-8663-4579b0f2c69d" d="M35.1875,37.1279c.3604,0,.6797.0557.959.166.2793.1113.5137.2588.707.4414.1914.1826.3369.3975.4355.6436.0996.2461.1484.5039.1484.7734,0,.2705-.0488.5283-.1484.7744-.0986.2461-.2441.4609-.4355.6436-.1934.1826-.4277.3301-.707.4414-.2793.1104-.5986.166-.959.166h-.7197v2.2051l-.0449.0449h-1.1699l-.0449-.0449v-6.21l.0449-.0449h1.9346ZM34.4678,39.918h.6299c.2949,0,.5254-.0605.6934-.1807.168-.1191.252-.3145.252-.585,0-.2695-.084-.4648-.252-.585-.168-.1191-.3984-.1797-.6934-.1797h-.6299v1.5303Z"/></svg>