<?xml version="1.0" encoding="UTF-8"?><svg id="uuid-bbec3d43-36a1-4955-b50c-51e418053669" xmlns="http://www.w3.org/2000/svg" width="48" height="48" xmlns:xlink="http://www.w3.org/1999/xlink" viewBox="0 0 48 48"><defs><style>.uuid-22580da3-7048-4a6e-82f2-5f3eb1de3fa0{fill:url(#uuid-ce546664-eafe-4fdb-ae7a-a49234babab8);}.uuid-22580da3-7048-4a6e-82f2-5f3eb1de3fa0,.uuid-c172c25c-6997-4e00-9566-2873da5e2ffb{stroke-width:0px;}.uuid-c172c25c-6997-4e00-9566-2873da5e2ffb{fill:url(#uuid-fa904a7a-abfb-4d25-9279-e7a92a24da3c);}</style><linearGradient id="uuid-fa904a7a-abfb-4d25-9279-e7a92a24da3c" x1="24" y1="287.045" x2="24" y2="270.833" gradientTransform="translate(0 294) scale(1 -1)" gradientUnits="userSpaceOnUse"><stop offset="0" stop-color="#f36e22"/><stop offset="1" stop-color="#c15227"/></linearGradient><linearGradient id="uuid-ce546664-eafe-4fdb-ae7a-a49234babab8" x1="262.0654" y1="275.1071" x2="262.0654" y2="253.0125" gradientTransform="translate(286 294) rotate(-180)" gradientUnits="userSpaceOnUse"><stop offset="0" stop-color="#ff9c0d"/><stop offset="1" stop-color="#f36e22"/></linearGradient></defs><path class="uuid-c172c25c-6997-4e00-9566-2873da5e2ffb" d="M24.414,10.414l-2.536-2.536c-.562-.562-1.325-.878-2.121-.878H5c-1.105,0-2,.895-2,2v30c0,1.105.895,2,2,2h38c1.105,0,2-.895,2-2V13c0-1.105-.895-2-2-2h-17.172c-.53,0-1.039-.211-1.414-.586Z"/><path class="uuid-22580da3-7048-4a6e-82f2-5f3eb1de3fa0" d="M24,23l3.854-3.854c.093-.093.22-.146.353-.146h16.603c1.176,0,2.098,1.01,1.992,2.181l-1.636,18c-.094,1.03-.958,1.819-1.992,1.819H4.79c-1.019,0-1.875-.766-1.988-1.779l-1.74-15.666c-.033-.296.199-.555.497-.555h22.441Z"/></svg>