<?xml version="1.0" encoding="UTF-8"?><svg id="uuid-faac764a-9523-4808-afe1-b5ec3f175b97" xmlns="http://www.w3.org/2000/svg" width="48" height="48" xmlns:xlink="http://www.w3.org/1999/xlink" viewBox="0 0 48 48"><defs><style>.uuid-eb486d21-a21d-404d-9083-35f3e01499fa{opacity:.05;}.uuid-eb486d21-a21d-404d-9083-35f3e01499fa,.uuid-006e276c-7f22-4810-81d5-c73b27f5b3e2,.uuid-6bf81bd3-e9e8-44bb-a532-1ae47c0f4f58,.uuid-6771cb9a-2c89-47fd-b3f4-dcd861c8e573,.uuid-b36dc5b9-dd95-45ca-b67f-7c5dcd244578{stroke-width:0px;}.uuid-006e276c-7f22-4810-81d5-c73b27f5b3e2{fill:#fff;}.uuid-6bf81bd3-e9e8-44bb-a532-1ae47c0f4f58{fill:url(#uuid-2e3046ca-989c-490c-a288-5d0a61961668);}.uuid-6771cb9a-2c89-47fd-b3f4-dcd861c8e573{fill:url(#uuid-326e6c45-ad4a-4327-8111-bcdc8de4fcc4);}.uuid-b36dc5b9-dd95-45ca-b67f-7c5dcd244578{fill:url(#uuid-3e957495-f94d-47df-8b32-7735ae0550a6);}</style><linearGradient id="uuid-2e3046ca-989c-490c-a288-5d0a61961668" x1="24" y1="287.045" x2="24" y2="270.833" gradientTransform="translate(0 294) scale(1 -1)" gradientUnits="userSpaceOnUse"><stop offset="0" stop-color="#f36e22"/><stop offset="1" stop-color="#c15227"/></linearGradient><linearGradient id="uuid-326e6c45-ad4a-4327-8111-bcdc8de4fcc4" x1="-37.9346" y1="275.1071" x2="-37.9346" y2="253.0125" gradientTransform="translate(-14 294) rotate(-180)" gradientUnits="userSpaceOnUse"><stop offset="0" stop-color="#ff9c0d"/><stop offset="1" stop-color="#f36e22"/></linearGradient><linearGradient id="uuid-3e957495-f94d-47df-8b32-7735ae0550a6" x1="30.7778" y1="33.3333" x2="30.7778" y2="47.2222" gradientUnits="userSpaceOnUse"><stop offset="0" stop-color="#64717c"/><stop offset="1" stop-color="#30363d"/></linearGradient></defs><path class="uuid-6bf81bd3-e9e8-44bb-a532-1ae47c0f4f58" d="M24.414,10.414l-2.536-2.536c-.562-.562-1.325-.878-2.121-.878H5c-1.105,0-2,.895-2,2v30c0,1.105.895,2,2,2h38c1.105,0,2-.895,2-2V13c0-1.105-.895-2-2-2h-17.172c-.53,0-1.039-.211-1.414-.586Z"/><path class="uuid-6771cb9a-2c89-47fd-b3f4-dcd861c8e573" d="M24,23l3.854-3.854c.093-.093.22-.146.353-.146h16.603c1.176,0,2.098,1.01,1.992,2.181l-1.636,18c-.094,1.03-.958,1.819-1.992,1.819H4.79c-1.019,0-1.875-.766-1.988-1.779l-1.74-15.666c-.033-.296.199-.555.497-.555h22.441Z"/><path class="uuid-eb486d21-a21d-404d-9083-35f3e01499fa" d="M45.2227,32.333h-28.8896c-1.6543,0-3,1.3457-3,3v5.667h29.841c1.034,0,1.898-.789,1.992-1.819l.6172-6.7913c-.1821-.0346-.3687-.0566-.5606-.0566Z"/><path class="uuid-eb486d21-a21d-404d-9083-35f3e01499fa" d="M45.2227,32.833h-28.8896c-1.3789,0-2.5,1.1211-2.5,2.5v5.667h29.341c1.034,0,1.898-.789,1.992-1.819l.572-6.2934c-.1665-.035-.3386-.0546-.5154-.0546Z"/><rect class="uuid-b36dc5b9-dd95-45ca-b67f-7c5dcd244578" x="14.3333" y="33.3333" width="32.8889" height="13.8889" rx="2" ry="2"/><path class="uuid-006e276c-7f22-4810-81d5-c73b27f5b3e2" d="M23.0425,42.5186c.3511.2158.8643.3955,1.4043.3955.8013,0,1.2695-.4229,1.2695-1.0352,0-.5664-.3242-.8906-1.1436-1.2061-.9902-.3516-1.6021-.8643-1.6021-1.7197,0-.9453.7832-1.6475,1.9624-1.6475.6211,0,1.0713.1445,1.3413.2969l-.2158.6396c-.1982-.1084-.6035-.2881-1.1523-.2881-.8286,0-1.1436.4951-1.1436.9092,0,.5674.3691.8467,1.2065,1.1699,1.0259.3965,1.5483.8916,1.5483,1.7832,0,.9355-.6934,1.7461-2.1245,1.7461-.5854,0-1.2246-.1709-1.5488-.3867l.1982-.6572Z"/><path class="uuid-006e276c-7f22-4810-81d5-c73b27f5b3e2" d="M30.7295,40.6279h-2.3589v2.1875h2.6289v.6572h-3.4121v-6.0674h3.2769v.6572h-2.4937v1.917h2.3589v.6484Z"/><path class="uuid-006e276c-7f22-4810-81d5-c73b27f5b3e2" d="M37.0205,44.3643c-.8188-.2168-1.6201-.46-2.3223-.7021-.126-.0449-.2524-.0908-.3691-.0908-1.4404-.0537-2.6738-1.1162-2.6738-3.0693,0-1.9443,1.1885-3.1963,2.8267-3.1963,1.6475,0,2.7188,1.2783,2.7188,3.0703,0,1.5576-.7202,2.5566-1.7285,2.9072v.0361c.6035.1533,1.2603.2979,1.7734.3877l-.2251.6572ZM36.3726,40.4121c0-1.2158-.6304-2.4668-1.9175-2.4668-1.3232,0-1.9717,1.2236-1.9629,2.5381-.0088,1.2881.7026,2.4492,1.9268,2.4492,1.2515,0,1.9536-1.1348,1.9536-2.5205Z"/><path class="uuid-006e276c-7f22-4810-81d5-c73b27f5b3e2" d="M37.6943,43.0049c0-.333.2251-.5674.54-.5674s.5312.2344.5312.5674c0,.3232-.207.5664-.54.5664-.3154,0-.5312-.2432-.5312-.5664Z"/></svg>