<?xml version="1.0" encoding="UTF-8"?><svg id="uuid-be2e5a7a-39ed-4664-b44a-f015ccc48ee7" xmlns="http://www.w3.org/2000/svg" width="48" height="48" xmlns:xlink="http://www.w3.org/1999/xlink" viewBox="0 0 48 48"><defs><style>.uuid-40d3b223-2438-4aac-8072-07e0b37811de{fill:url(#uuid-e2b7a38b-4006-4d94-84da-5efc1a692b54);}.uuid-40d3b223-2438-4aac-8072-07e0b37811de,.uuid-d5baa82b-9ebd-4f18-9db4-550626fc58c7{stroke-width:0px;}.uuid-d5baa82b-9ebd-4f18-9db4-550626fc58c7{fill:url(#uuid-252e20e5-9a3a-4b9b-a15e-dddde63a47d1);}</style><linearGradient id="uuid-e2b7a38b-4006-4d94-84da-5efc1a692b54" x1="24" y1="387.292" x2="24" y2="379.023" gradientTransform="translate(0 394) scale(1 -1)" gradientUnits="userSpaceOnUse"><stop offset="0" stop-color="#f36e22"/><stop offset="1" stop-color="#c15227"/></linearGradient><linearGradient id="uuid-252e20e5-9a3a-4b9b-a15e-dddde63a47d1" x1="24" y1="383.146" x2="24" y2="353.017" gradientTransform="translate(0 394) scale(1 -1)" gradientUnits="userSpaceOnUse"><stop offset="0" stop-color="#ff9c0d"/><stop offset="1" stop-color="#f36e22"/></linearGradient></defs><path class="uuid-40d3b223-2438-4aac-8072-07e0b37811de" d="M24.414,10.414l-2.536-2.536c-.562-.562-1.325-.878-2.121-.878H5c-1.105,0-2,.895-2,2v30c0,1.105.895,2,2,2h38c1.105,0,2-.895,2-2V13c0-1.105-.895-2-2-2h-17.172c-.53,0-1.039-.211-1.414-.586Z"/><path class="uuid-d5baa82b-9ebd-4f18-9db4-550626fc58c7" d="M21.586,14.414l3.268-3.268c.093-.093.22-.146.353-.146h17.793c1.105,0,2,.895,2,2v26c0,1.105-.895,2-2,2H5c-1.105,0-2-.895-2-2V15.5c0-.276.224-.5.5-.5h16.672c.53,0,1.039-.211,1.414-.586Z"/></svg>