<?xml version="1.0" encoding="UTF-8"?><svg id="uuid-815abcf1-1f54-40ef-ab77-290ce15e5ebf" xmlns="http://www.w3.org/2000/svg" width="48" height="48" xmlns:xlink="http://www.w3.org/1999/xlink" viewBox="0 0 48 48"><defs><style>.uuid-4c6515c7-608c-432c-bb26-3d2c1b9b52f1{fill:url(#uuid-f2ab88c1-42ca-43f9-bcf2-4109deaf5a5d);}.uuid-4c6515c7-608c-432c-bb26-3d2c1b9b52f1,.uuid-547f98b6-0ec7-4962-8344-4d83e9d6abf1,.uuid-bb9cd786-f77a-4e32-941b-590cb68eacb1,.uuid-79b73734-24fc-4e59-91a1-83ce71d3f9cd,.uuid-17daf8ac-9519-49eb-9440-ebcedbffa038{stroke-width:0px;}.uuid-547f98b6-0ec7-4962-8344-4d83e9d6abf1{opacity:.05;}.uuid-bb9cd786-f77a-4e32-941b-590cb68eacb1{fill:#fff;}.uuid-79b73734-24fc-4e59-91a1-83ce71d3f9cd{fill:url(#uuid-d6528843-8dc8-4e8a-ab3b-03c08b3ca683);}.uuid-17daf8ac-9519-49eb-9440-ebcedbffa038{fill:url(#uuid-be0e4f5e-f3d5-42c2-862c-9f88a7997a84);}</style><linearGradient id="uuid-be0e4f5e-f3d5-42c2-862c-9f88a7997a84" x1="24" y1="287.045" x2="24" y2="270.833" gradientTransform="translate(0 294) scale(1 -1)" gradientUnits="userSpaceOnUse"><stop offset="0" stop-color="#f36e22"/><stop offset="1" stop-color="#c15227"/></linearGradient><linearGradient id="uuid-d6528843-8dc8-4e8a-ab3b-03c08b3ca683" x1="62.0654" y1="275.1071" x2="62.0654" y2="253.0125" gradientTransform="translate(86 294) rotate(-180)" gradientUnits="userSpaceOnUse"><stop offset="0" stop-color="#ff9c0d"/><stop offset="1" stop-color="#f36e22"/></linearGradient><linearGradient id="uuid-f2ab88c1-42ca-43f9-bcf2-4109deaf5a5d" x1="30.7778" y1="33.3333" x2="30.7778" y2="47.2222" gradientUnits="userSpaceOnUse"><stop offset="0" stop-color="#64717c"/><stop offset="1" stop-color="#30363d"/></linearGradient></defs><path class="uuid-17daf8ac-9519-49eb-9440-ebcedbffa038" d="M24.414,10.414l-2.536-2.536c-.562-.562-1.325-.878-2.121-.878H5c-1.105,0-2,.895-2,2v30c0,1.105.895,2,2,2h38c1.105,0,2-.895,2-2V13c0-1.105-.895-2-2-2h-17.172c-.53,0-1.039-.211-1.414-.586Z"/><path class="uuid-79b73734-24fc-4e59-91a1-83ce71d3f9cd" d="M24,23l3.854-3.854c.093-.093.22-.146.353-.146h16.603c1.176,0,2.098,1.01,1.992,2.181l-1.636,18c-.094,1.03-.958,1.819-1.992,1.819H4.79c-1.019,0-1.875-.766-1.988-1.779l-1.74-15.666c-.033-.296.199-.555.497-.555h22.441Z"/><path class="uuid-547f98b6-0ec7-4962-8344-4d83e9d6abf1" d="M45.2227,32.333h-28.8896c-1.6543,0-3,1.3457-3,3v5.667h29.841c1.034,0,1.898-.789,1.992-1.819l.6172-6.7913c-.1821-.0346-.3687-.0566-.5606-.0566Z"/><path class="uuid-547f98b6-0ec7-4962-8344-4d83e9d6abf1" d="M45.2227,32.833h-28.8896c-1.3789,0-2.5,1.1211-2.5,2.5v5.667h29.341c1.034,0,1.898-.789,1.992-1.819l.572-6.2934c-.1665-.035-.3386-.0546-.5154-.0546Z"/><rect class="uuid-4c6515c7-608c-432c-bb26-3d2c1b9b52f1" x="14.3333" y="33.3333" width="32.8889" height="13.8889" rx="2" ry="2"/><path class="uuid-bb9cd786-f77a-4e32-941b-590cb68eacb1" d="M25.5,37.4053h.7832v4.0596c0,1.6113-.7925,2.1064-1.8369,2.1064-.2881,0-.6392-.0625-.8369-.1436l.1167-.6396c.1621.0635.3965.1172.6572.1172.7026,0,1.1167-.3145,1.1167-1.5029v-3.9971Z"/><path class="uuid-bb9cd786-f77a-4e32-941b-590cb68eacb1" d="M32.7729,40.376c0,2.0889-1.269,3.1953-2.8179,3.1953-1.6025,0-2.7275-1.2422-2.7275-3.0781,0-1.9268,1.1973-3.1875,2.8179-3.1875,1.6562,0,2.7275,1.2695,2.7275,3.0703ZM28.0645,40.4746c0,1.2969.7026,2.458,1.9355,2.458,1.2427,0,1.9448-1.1436,1.9448-2.5205,0-1.207-.6304-2.4668-1.9355-2.4668-1.2964,0-1.9448,1.1973-1.9448,2.5293Z"/><path class="uuid-bb9cd786-f77a-4e32-941b-590cb68eacb1" d="M33.7886,37.4863c.3423-.0723.8823-.127,1.4316-.127.7832,0,1.2871.1357,1.6655.4414.3149.2344.5039.5947.5039,1.0713,0,.585-.3872,1.0986-1.0264,1.333v.0176c.5762.1445,1.2515.6211,1.2515,1.5215,0,.5225-.207.918-.5132,1.2158-.4229.3867-1.1074.5664-2.0977.5664-.54,0-.9541-.0361-1.2153-.0713v-5.9688ZM34.5718,39.9707h.7114c.8281,0,1.3145-.4326,1.3145-1.0176,0-.7109-.54-.9902-1.3325-.9902-.3599,0-.5674.0273-.6934.0537v1.9541ZM34.5718,42.8789c.1533.0264.3784.0352.6572.0352.8105,0,1.5576-.2969,1.5576-1.1787,0-.8281-.7114-1.1709-1.5664-1.1709h-.6484v2.3145Z"/></svg>