<?xml version="1.0" encoding="UTF-8"?><svg id="uuid-41a019da-9ae8-46ec-92fd-6990a4f8bcf9" xmlns="http://www.w3.org/2000/svg" width="48" height="48" xmlns:xlink="http://www.w3.org/1999/xlink" viewBox="0 0 48 48"><defs><style>.uuid-cb7172ce-44c5-4b03-8e37-60491a0b7fb0{fill:url(#uuid-22b83a7f-2912-47ff-919e-24876f5739d4);}.uuid-cb7172ce-44c5-4b03-8e37-60491a0b7fb0,.uuid-33542a08-b9bf-4717-affa-fe5cdfafccaa,.uuid-a705b2b7-f8f8-4959-9741-e7ff09848ca4,.uuid-5cd524fc-d440-4ab6-9261-d43c4ab0a6b4,.uuid-0549b743-5cbd-4c5b-b295-af83e87e7cfd{stroke-width:0px;}.uuid-33542a08-b9bf-4717-affa-fe5cdfafccaa{fill:url(#uuid-b6fdeed5-7d22-4559-af9c-2d4d229b5188);}.uuid-a705b2b7-f8f8-4959-9741-e7ff09848ca4{opacity:.05;}.uuid-5cd524fc-d440-4ab6-9261-d43c4ab0a6b4{fill:url(#uuid-429e990d-9cd8-443f-9023-1c96feec82ee);}.uuid-0549b743-5cbd-4c5b-b295-af83e87e7cfd{opacity:.07;}</style><linearGradient id="uuid-429e990d-9cd8-443f-9023-1c96feec82ee" x1="-190.0883" y1="-324.5569" x2="296.8501" y2="162.3815" gradientUnits="userSpaceOnUse"><stop offset="0" stop-color="#fff"/><stop offset=".242" stop-color="#f2f2f2"/><stop offset="1" stop-color="#ccc"/></linearGradient><linearGradient id="uuid-b6fdeed5-7d22-4559-af9c-2d4d229b5188" x1="10.4568" y1="2.3263" x2="37.5432" y2="45.6737" gradientUnits="userSpaceOnUse"><stop offset="0" stop-color="#ff9c0d"/><stop offset="1" stop-color="#f36e22"/></linearGradient><linearGradient id="uuid-22b83a7f-2912-47ff-919e-24876f5739d4" x1="9.4396" y1="13.0558" x2="27.9171" y2="42.626" xlink:href="#uuid-429e990d-9cd8-443f-9023-1c96feec82ee"/></defs><rect class="uuid-5cd524fc-d440-4ab6-9261-d43c4ab0a6b4" x="5" y="5" width="38" height="38" rx="1.6522" ry="1.6522"/><path class="uuid-5cd524fc-d440-4ab6-9261-d43c4ab0a6b4" d="M17.5543,11.386l-.2638-.0016c-4.3827,0-8.7314,1.4365-12.2905,4.0347v5.83c.1073,0,.213-.0419.292-.1202,3.0212-3.0139,6.9959-4.6734,11.1917-4.6734.3445,0,.6906.0113,1.0584.0355,6.8757.1049,12.3429,5.5535,12.447,12.3994,0,6.9975-4.2345,11.3442-11.0513,11.3442l-.2412-.0016c-2.7267,0-5.4164-1.0842-7.1952-2.9002-1.4578-1.4884-2.2064-3.339-2.1644-5.3607v-.1968c.0936-3.9384,3.2447-7.0242,7.175-7.0242h.2025c3.5948,0,4.7581,2.5049,4.7581,3.7182,0,1.6941-1.1859,3.1954-2.8203,3.5706-.1355.0315-.2807.0476-.43.0476-.8317,0-1.6481-.4671-1.9854-1.1367-.3324-.6599-.1807-1.4505.4372-2.2855.0936-.1258.1073-.2928.0371-.4316-.0702-.1396-.213-.2275-.3687-.2275l-.2638-.0016c-2.1104,0-3.8045,1.6473-3.8578,3.74-.0774,1.5166.4066,2.8703,1.3997,3.915,1.1907,1.2528,3.1261,2.0313,5.0509,2.0313.3582,0,.7059-.0274,1.0326-.0823,4.9113-.8003,7.4017-3.8755,7.4017-9.1434-.0532-5.155-4.6911-9.3959-10.3342-9.4548l-.2404-.0024c-4.9744,0-9.4861,2.9469-11.5313,7.4291v10.6831c1.152,2.4327,2.9854,4.4769,5.2673,5.8798h17.8104c4.77-2.8745,7.4956-7.9919,7.4956-14.1677,0-10.272-7.4122-17.4462-18.019-17.4462Z"/><path class="uuid-5cd524fc-d440-4ab6-9261-d43c4ab0a6b4" d="M17.5567,10.973l-.2662-.0016c-4.371,0-8.7052,1.4058-12.2905,3.9464v6.7443c.2194,0,.4268-.0855.5841-.2412,2.9429-2.9357,6.8136-4.5524,10.8997-4.5524.3356,0,.6728.0113,1.052.0355,6.6506.1016,11.9395,5.3696,12.0404,11.9863,0,6.7426-4.0764,10.9311-10.6359,10.9311l-.2436-.0016c-2.6178,0-5.1969-1.0374-6.8999-2.7759-1.3787-1.4077-2.0862-3.1583-2.0467-5.0719v-.1872c.0879-3.7126,3.0583-6.6208,6.762-6.6208h.2025c3.2826,0,4.345,2.2266,4.345,3.3052,0,1.5029-1.0512,2.8356-2.5008,3.168-.1057.025-.2186.0371-.3364.0371-.6712,0-1.3513-.3824-1.6167-.9092-.3251-.6462.0387-1.365.4001-1.853.188-.2533.2162-.5841.0742-.864-.1412-.2807-.4235-.455-.7349-.455l-.2662-.0016c-2.3355,0-4.2119,1.82-4.27,4.132-.0839,1.632.4397,3.0914,1.5126,4.2208,1.2658,1.3319,3.3164,2.1596,5.3502,2.1596.3832,0,.7535-.0298,1.0988-.0879,5.1421-.8374,7.7486-4.0506,7.7486-9.5549-.0557-5.3776-4.875-9.8025-10.7432-9.8638l-.2444-.0024c-4.8528,0-9.2757,2.7179-11.5313,6.9215v12.5054c1.0867,1.9928,2.6238,3.7046,4.4933,4.9783h19.3606c4.5486-3.0058,7.1325-8.0886,7.1325-14.1677,0-10.5157-7.5792-17.8593-18.4296-17.8593Z"/><path class="uuid-5cd524fc-d440-4ab6-9261-d43c4ab0a6b4" d="M35.1604,28.8326c0,6.5922-3.0813,11.5569-7.8974,14.1674H11.0635c-2.7674-1.5118-4.9152-3.9735-6.0635-6.8979v-8.5748c1.7761-4.9152,6.4848-8.203,11.7635-8.1039,5.5926.0578,9.88,4.2874,9.9296,9.0457,0,4.5435-1.8835,7.8891-7.0548,8.7317-2.8252.4709-7.22-1.2061-7.0052-5.4357.0496-1.933,1.6687-3.4035,3.5522-3.3456h.157c-1.933,2.6105.6278,4.4361,2.4039,4.023,1.8339-.4213,3.1391-2.09,3.1391-3.9735,0-1.6191-1.52-4.18-5.2787-4.1304-4.1883-.0496-7.5835,3.2382-7.6826,7.4265v.2065c-.1074,5.1713,4.75,8.6739,9.7726,8.6739,7.3687.1074,11.7056-4.7004,11.7056-11.7552-.1074-7.063-5.7991-12.7052-12.8539-12.8126-4.7087-.3139-9.2522,1.4705-12.5483,4.7583v-4.9152c3.61-2.7178,8.0461-4.18,12.5483-4.1222,10.7639,0,17.6122,7.5256,17.6122,17.0339Z"/><rect class="uuid-33542a08-b9bf-4717-affa-fe5cdfafccaa" x="5" y="5" width="38" height="38" rx="1.6522" ry="1.6522"/><path class="uuid-0549b743-5cbd-4c5b-b295-af83e87e7cfd" d="M17.5543,11.386l-.2638-.0016c-4.3827,0-8.7314,1.4365-12.2905,4.0347v5.83c.1073,0,.213-.0419.292-.1202,3.0212-3.0139,6.9959-4.6734,11.1917-4.6734.3445,0,.6906.0113,1.0584.0355,6.8757.1049,12.3429,5.5535,12.447,12.3994,0,6.9975-4.2345,11.3442-11.0513,11.3442l-.2412-.0016c-2.7267,0-5.4164-1.0842-7.1952-2.9002-1.4578-1.4884-2.2064-3.339-2.1644-5.3607v-.1968c.0936-3.9384,3.2447-7.0242,7.175-7.0242h.2025c3.5948,0,4.7581,2.5049,4.7581,3.7182,0,1.6941-1.1859,3.1954-2.8203,3.5706-.1355.0315-.2807.0476-.43.0476-.8317,0-1.6481-.4671-1.9854-1.1367-.3324-.6599-.1807-1.4505.4372-2.2855.0936-.1258.1073-.2928.0371-.4316-.0702-.1396-.213-.2275-.3687-.2275l-.2638-.0016c-2.1104,0-3.8045,1.6473-3.8578,3.74-.0774,1.5166.4066,2.8703,1.3997,3.915,1.1907,1.2528,3.1261,2.0313,5.0509,2.0313.3582,0,.7059-.0274,1.0326-.0823,4.9113-.8003,7.4017-3.8755,7.4017-9.1434-.0532-5.155-4.6911-9.3959-10.3342-9.4548l-.2404-.0024c-4.9744,0-9.4861,2.9469-11.5313,7.4291v10.6831c1.152,2.4327,2.9854,4.4769,5.2673,5.8798h17.8104c4.77-2.8745,7.4956-7.9919,7.4956-14.1677,0-10.272-7.4122-17.4462-18.019-17.4462Z"/><path class="uuid-a705b2b7-f8f8-4959-9741-e7ff09848ca4" d="M17.5567,10.973l-.2662-.0016c-4.371,0-8.7052,1.4058-12.2905,3.9464v6.7443c.2194,0,.4268-.0855.5841-.2412,2.9429-2.9357,6.8136-4.5524,10.8997-4.5524.3356,0,.6728.0113,1.052.0355,6.6506.1016,11.9395,5.3696,12.0404,11.9863,0,6.7426-4.0764,10.9311-10.6359,10.9311l-.2436-.0016c-2.6178,0-5.1969-1.0374-6.8999-2.7759-1.3787-1.4077-2.0862-3.1583-2.0467-5.0719v-.1872c.0879-3.7126,3.0583-6.6208,6.762-6.6208h.2025c3.2826,0,4.345,2.2266,4.345,3.3052,0,1.5029-1.0512,2.8356-2.5008,3.168-.1057.025-.2186.0371-.3364.0371-.6712,0-1.3513-.3824-1.6167-.9092-.3251-.6462.0387-1.365.4001-1.853.188-.2533.2162-.5841.0742-.864-.1412-.2807-.4235-.455-.7349-.455l-.2662-.0016c-2.3355,0-4.2119,1.82-4.27,4.132-.0839,1.632.4397,3.0914,1.5126,4.2208,1.2658,1.3319,3.3164,2.1596,5.3502,2.1596.3832,0,.7535-.0298,1.0988-.0879,5.1421-.8374,7.7486-4.0506,7.7486-9.5549-.0557-5.3776-4.875-9.8025-10.7432-9.8638l-.2444-.0024c-4.8528,0-9.2757,2.7179-11.5313,6.9215v12.5054c1.0867,1.9928,2.6238,3.7046,4.4933,4.9783h19.3606c4.5486-3.0058,7.1325-8.0886,7.1325-14.1677,0-10.5157-7.5792-17.8593-18.4296-17.8593Z"/><path class="uuid-cb7172ce-44c5-4b03-8e37-60491a0b7fb0" d="M35.1604,28.8326c0,6.5922-3.0813,11.5569-7.8974,14.1674H11.0635c-2.7674-1.5118-4.9152-3.9735-6.0635-6.8979v-8.5748c1.7761-4.9152,6.4848-8.203,11.7635-8.1039,5.5926.0578,9.88,4.2874,9.9296,9.0457,0,4.5435-1.8835,7.8891-7.0548,8.7317-2.8252.4709-7.22-1.2061-7.0052-5.4357.0496-1.933,1.6687-3.4035,3.5522-3.3456h.157c-1.933,2.6105.6278,4.4361,2.4039,4.023,1.8339-.4213,3.1391-2.09,3.1391-3.9735,0-1.6191-1.52-4.18-5.2787-4.1304-4.1883-.0496-7.5835,3.2382-7.6826,7.4265v.2065c-.1074,5.1713,4.75,8.6739,9.7726,8.6739,7.3687.1074,11.7056-4.7004,11.7056-11.7552-.1074-7.063-5.7991-12.7052-12.8539-12.8126-4.7087-.3139-9.2522,1.4705-12.5483,4.7583v-4.9152c3.61-2.7178,8.0461-4.18,12.5483-4.1222,10.7639,0,17.6122,7.5256,17.6122,17.0339Z"/></svg>