<?xml version="1.0" encoding="UTF-8"?><svg id="uuid-df0f37a5-6954-4445-acba-3ecd085ed359" xmlns="http://www.w3.org/2000/svg" width="48" height="48" xmlns:xlink="http://www.w3.org/1999/xlink" viewBox="0 0 48 48"><defs><style>.uuid-2125399e-3eac-483e-8b43-0285fe53aa0c{fill:url(#uuid-e92464a2-ccb2-470d-ba6c-f4e4ed24ad1c);}.uuid-2125399e-3eac-483e-8b43-0285fe53aa0c,.uuid-b713eccc-0967-4095-976d-9436987e935d,.uuid-c96ed77a-396f-4384-a5c8-730af3c7d2af,.uuid-70ded9cc-8667-4687-8ca9-81f904e913c6,.uuid-670d305f-9c57-408a-95c9-e9605dc6f9f4{stroke-width:0px;}.uuid-b713eccc-0967-4095-976d-9436987e935d{fill:url(#uuid-78cbd008-c99f-4175-ba7d-eb8c3b5d0b25);}.uuid-c96ed77a-396f-4384-a5c8-730af3c7d2af{opacity:.15;}.uuid-c96ed77a-396f-4384-a5c8-730af3c7d2af,.uuid-670d305f-9c57-408a-95c9-e9605dc6f9f4{fill:#fff;}.uuid-70ded9cc-8667-4687-8ca9-81f904e913c6{fill:url(#uuid-7e9f8ad5-c5da-4601-b835-5d7b89c777c3);}.uuid-670d305f-9c57-408a-95c9-e9605dc6f9f4{opacity:.1;}</style><radialGradient id="uuid-e92464a2-ccb2-470d-ba6c-f4e4ed24ad1c" cx="24" cy="487" fx="24" fy="487" r="19" gradientTransform="translate(0 -464)" gradientUnits="userSpaceOnUse"><stop offset=".078" stop-color="#fff"/><stop offset=".202" stop-color="#ffe3a3"/><stop offset=".216" stop-color="#ffde92"/><stop offset=".263" stop-color="#ffcf5f"/><stop offset=".307" stop-color="#ffc437"/><stop offset=".347" stop-color="#ffbb1a"/><stop offset=".382" stop-color="#ffb608"/><stop offset=".408" stop-color="#ffb302"/><stop offset=".545" stop-color="#fdae02"/><stop offset=".736" stop-color="#f99c01"/><stop offset=".956" stop-color="#f27b00"/><stop offset="1" stop-color="#f07300"/></radialGradient><linearGradient id="uuid-7e9f8ad5-c5da-4601-b835-5d7b89c777c3" x1="21.9892" y1="500.4519" x2="26.9303" y2="508.4912" gradientTransform="translate(0 -464)" gradientUnits="userSpaceOnUse"><stop offset="0" stop-color="#64717c"/><stop offset="1" stop-color="#30363d"/></linearGradient><linearGradient id="uuid-78cbd008-c99f-4175-ba7d-eb8c3b5d0b25" x1="17.7735" y1="15.1092" x2="31.2131" y2="36.6171" gradientUnits="userSpaceOnUse"><stop offset="0" stop-color="#fff"/><stop offset=".242" stop-color="#f2f2f2"/><stop offset="1" stop-color="#ccc"/></linearGradient></defs><circle class="uuid-2125399e-3eac-483e-8b43-0285fe53aa0c" cx="24" cy="23" r="19"/><path class="uuid-670d305f-9c57-408a-95c9-e9605dc6f9f4" d="M24,12c-6.0654,0-11,4.9346-11,11,0,2.7588,1.335,5.1616,2.625,7.4858,1.2217,2.1968,2.375,4.2715,2.375,6.5142v3c0,.3607.0361.7107.0944,1.0522,1.8603.6083,3.8421.9478,5.9056.9478s4.0453-.3394,5.9056-.9478c.0582-.3416.0944-.6916.0944-1.0522v-3c0-2.2427,1.1533-4.3174,2.375-6.5151,1.29-2.3232,2.625-4.7261,2.625-7.4849,0-6.0654-4.9346-11-11-11Z"/><path class="uuid-c96ed77a-396f-4384-a5c8-730af3c7d2af" d="M24,12.5c-5.79,0-10.5,4.7104-10.5,10.5,0,2.6294,1.3027,4.9746,2.5625,7.2427,1.2539,2.2559,2.4375,4.3867,2.4375,6.7573v3c0,.4221.0538.8278.1398,1.2203,1.7014.4998,3.4971.7797,5.3602.7797s3.6588-.2798,5.3602-.7797c.0861-.3926.1398-.7983.1398-1.2203v-3c0-2.3706,1.1836-4.5015,2.4375-6.7573,1.2598-2.2681,2.5625-4.6133,2.5625-7.2427,0-5.7896-4.71-10.5-10.5-10.5Z"/><path class="uuid-70ded9cc-8667-4687-8ca9-81f904e913c6" d="M29,38h-10v2c0,2.8,2.2,5,5,5s5-2.2,5-5v-2Z"/><path class="uuid-b713eccc-0967-4095-976d-9436987e935d" d="M34,23c0-5.5-4.5-10-10-10s-10,4.5-10,10c0,5,5,9,5,14v1h10v-1c0-5,5-9,5-14Z"/></svg>