<?xml version="1.0" encoding="UTF-8"?><svg id="uuid-1f589c08-ca43-49d4-8201-658c36f23ebb" xmlns="http://www.w3.org/2000/svg" width="48" height="48" xmlns:xlink="http://www.w3.org/1999/xlink" viewBox="0 0 48 48"><defs><style>.uuid-54997b2f-f196-49a1-a813-263de419b1e1{opacity:.05;}.uuid-54997b2f-f196-49a1-a813-263de419b1e1,.uuid-2371ed88-3739-4054-a73f-e0e769062c90,.uuid-47642272-0a31-444e-a742-0efa89e7ba6c,.uuid-06d18308-dae5-48ba-97d4-2179859848b0{stroke-width:0px;}.uuid-2371ed88-3739-4054-a73f-e0e769062c90{fill:url(#uuid-c205cbeb-eb1a-459d-b824-ac8cf2de1de5);}.uuid-47642272-0a31-444e-a742-0efa89e7ba6c{fill:url(#uuid-4eeff0c3-c725-4eb9-ad14-f7878670e17b);}.uuid-06d18308-dae5-48ba-97d4-2179859848b0{opacity:.07;}</style><linearGradient id="uuid-4eeff0c3-c725-4eb9-ad14-f7878670e17b" x1="11.0875" y1="3.3358" x2="36.9125" y2="44.6642" gradientUnits="userSpaceOnUse"><stop offset="0" stop-color="#fff"/><stop offset=".242" stop-color="#f2f2f2"/><stop offset="1" stop-color="#ccc"/></linearGradient><linearGradient id="uuid-c205cbeb-eb1a-459d-b824-ac8cf2de1de5" x1="26.6969" y1="16.496" x2="35.4598" y2="30.5195" gradientUnits="userSpaceOnUse"><stop offset="0" stop-color="#ff9c0d"/><stop offset="1" stop-color="#f36e22"/></linearGradient></defs><rect class="uuid-47642272-0a31-444e-a742-0efa89e7ba6c" x="8.7763" y="3.8889" width="30.4473" height="40.2222" rx="2" ry="2"/><path class="uuid-54997b2f-f196-49a1-a813-263de419b1e1" d="M39.2237,20.0547h-10.2237v-3.4697c0-.8281-.6743-1.501-1.5034-1.501-.4023,0-.7798.1592-1.063.4463l-7.3545,7.4443c-.5728.5801-.5723,1.5254.0015,2.1074l7.3521,7.4424c.2847.2881.6621.4463,1.064.4463.8291,0,1.5034-.6729,1.5034-1.501v-3.4697h10.2237v-7.9453Z"/><path class="uuid-06d18308-dae5-48ba-97d4-2179859848b0" d="M39.2237,20.5547h-10.7237v-3.9697c0-.5518-.4502-1.001-1.0034-1.001-.2666,0-.5181.1055-.7075.2979l-7.354,7.4434c-.3813.3867-.3813,1.0176.001,1.4053l7.3525,7.4424c.1899.1924.4414.2979.708.2979.5532,0,1.0034-.4492,1.0034-1.001v-3.9697h10.7237v-6.9453Z"/><path class="uuid-2371ed88-3739-4054-a73f-e0e769062c90" d="M40.7715,21.0549h-12.7715v-4.4702c0-.4469-.5416-.6693-.8557-.3514l-7.3527,7.4427c-.1924.1948-.1924.5081,0,.7028l7.3527,7.4427c.3141.3179.8557.0955.8557-.3514v-4.4701h12.7715c.6171,0,1.1174-.5002,1.1174-1.1174v-3.7104c0-.6171-.5002-1.1174-1.1174-1.1174Z"/></svg>