<?xml version="1.0" encoding="UTF-8"?><svg id="uuid-31c53394-1ef1-4739-bb7c-a9272758ba3a" xmlns="http://www.w3.org/2000/svg" width="48" height="48" xmlns:xlink="http://www.w3.org/1999/xlink" viewBox="0 0 48 48"><defs><style>.uuid-45153bd4-ee8e-40c0-bdfd-299e9700f5b2{fill:url(#uuid-6c401916-7ee3-4bf1-b42c-dfca73174134);}.uuid-45153bd4-ee8e-40c0-bdfd-299e9700f5b2,.uuid-d7af574c-aa1e-4a88-a258-721d74120a3b,.uuid-4122882c-7621-485f-81d7-879c9483f38a,.uuid-9cb74122-ae33-46c8-9c24-56c56155428f,.uuid-434b2d3a-e14f-433a-88d1-b9a74792802c,.uuid-75493a01-e4d1-470f-a8fb-7309d6c7b465{stroke-width:0px;}.uuid-d7af574c-aa1e-4a88-a258-721d74120a3b{fill:url(#uuid-89cb7394-16ad-407f-a5bd-7b3bc7c8f3bd);opacity:.15;}.uuid-d7af574c-aa1e-4a88-a258-721d74120a3b,.uuid-9cb74122-ae33-46c8-9c24-56c56155428f,.uuid-434b2d3a-e14f-433a-88d1-b9a74792802c{isolation:isolate;}.uuid-4122882c-7621-485f-81d7-879c9483f38a{fill:url(#uuid-1159ec9d-81d5-4c01-990f-f7d1829ce52a);}.uuid-9cb74122-ae33-46c8-9c24-56c56155428f{opacity:.07;}.uuid-434b2d3a-e14f-433a-88d1-b9a74792802c{opacity:.05;}.uuid-75493a01-e4d1-470f-a8fb-7309d6c7b465{fill:url(#uuid-45d0ae08-dc32-49c8-890d-ca5dee2b5267);}</style><linearGradient id="uuid-45d0ae08-dc32-49c8-890d-ca5dee2b5267" x1="13.9834" y1="486.242" x2="34.3352" y2="453.1291" gradientTransform="translate(0 494) scale(1 -1)" gradientUnits="userSpaceOnUse"><stop offset="0" stop-color="#ff9c0d"/><stop offset="1" stop-color="#f36e22"/></linearGradient><radialGradient id="uuid-89cb7394-16ad-407f-a5bd-7b3bc7c8f3bd" cx="46.7408" cy="474.2624" fx="46.7408" fy="474.2624" r="5.1076" gradientTransform="translate(-12.4952 350.5158) scale(.7808 -.7066)" gradientUnits="userSpaceOnUse"><stop offset=".516" stop-color="#000"/><stop offset="1" stop-color="#000" stop-opacity="0"/></radialGradient><linearGradient id="uuid-1159ec9d-81d5-4c01-990f-f7d1829ce52a" x1="22.6773" y1="13.2434" x2="25.328" y2="17.4854" gradientUnits="userSpaceOnUse"><stop offset="0" stop-color="#fff"/><stop offset=".242" stop-color="#f2f2f2"/><stop offset="1" stop-color="#ccc"/></linearGradient><linearGradient id="uuid-6c401916-7ee3-4bf1-b42c-dfca73174134" x1="20.0679" y1="21.2073" x2="27.9321" y2="33.7927" xlink:href="#uuid-1159ec9d-81d5-4c01-990f-f7d1829ce52a"/></defs><path class="uuid-75493a01-e4d1-470f-a8fb-7309d6c7b465" d="M44.041,24.122c0,11.045-8.955,20-20,20S4.041,35.167,4.041,24.122,12.996,4.122,24.041,4.122s20,8.955,20,20Z"/><path class="uuid-434b2d3a-e14f-433a-88d1-b9a74792802c" d="M22,36h4c.552,0,1-.448,1-1v-15c0-.552-.448-1-1-1h-4c-.552,0-1,.448-1,1v15c0,.552.448,1,1,1Z"/><path class="uuid-9cb74122-ae33-46c8-9c24-56c56155428f" d="M22.227,35.5h3.547c.401,0,.727-.325.727-.727v-14.546c0-.401-.325-.727-.727-.727h-3.547c-.401,0-.727.325-.727.727v14.547c0,.401.325.726.727.726Z"/><ellipse class="uuid-d7af574c-aa1e-4a88-a258-721d74120a3b" cx="24" cy="15.402" rx="3.988" ry="3.609"/><path class="uuid-4122882c-7621-485f-81d7-879c9483f38a" d="M24,17.732c1.7,0,2.65-1.068,2.65-2.388s-1.003-2.344-2.65-2.344-2.65,1.024-2.65,2.344.95,2.388,2.65,2.388Z"/><rect class="uuid-45153bd4-ee8e-40c0-bdfd-299e9700f5b2" x="22" y="20" width="4" height="15"/></svg>