<?xml version="1.0" encoding="UTF-8"?><svg id="uuid-f553ad27-28da-4004-9889-095a0ca40f7b" xmlns="http://www.w3.org/2000/svg" width="48" height="48" xmlns:xlink="http://www.w3.org/1999/xlink" viewBox="0 0 48 48"><defs><style>.uuid-80aa0bee-e215-4d4d-876e-9833b159ae60{fill:url(#uuid-c6dce8cd-b933-4959-87c0-fddb654f0c90);}.uuid-80aa0bee-e215-4d4d-876e-9833b159ae60,.uuid-234ec9a0-286f-4e7d-bc74-517b86133256,.uuid-b29909f8-a584-43cd-b0f4-4b0633483cce,.uuid-39389234-91c0-491c-961c-2285ad703ddb{stroke-width:0px;}.uuid-234ec9a0-286f-4e7d-bc74-517b86133256{fill:#c15227;}.uuid-b29909f8-a584-43cd-b0f4-4b0633483cce{fill:url(#uuid-589dd8e6-ca07-4669-8c97-7bc6edb85882);}.uuid-39389234-91c0-491c-961c-2285ad703ddb{fill:#f36e22;}</style><linearGradient id="uuid-c6dce8cd-b933-4959-87c0-fddb654f0c90" x1="24.2525" y1="147.3907" x2="24.2525" y2="168.6971" gradientTransform="translate(0 194) scale(1 -1)" gradientUnits="userSpaceOnUse"><stop offset=".4049" stop-color="#ff9c0d"/><stop offset="1" stop-color="#f36e22"/></linearGradient><linearGradient id="uuid-589dd8e6-ca07-4669-8c97-7bc6edb85882" x1="6.211" y1="178.776" x2="24.253" y2="178.776" gradientTransform="translate(0 194) scale(1 -1)" gradientUnits="userSpaceOnUse"><stop offset="0" stop-color="#ffd869"/><stop offset="1" stop-color="#fec52b"/></linearGradient></defs><path class="uuid-80aa0bee-e215-4d4d-876e-9833b159ae60" d="M7.7454,32.8129l15.5211-8.8015c.6119-.347,1.3612-.347,1.9731,0l15.5202,8.8014c.6757.3832.6756,1.3568-.0002,1.7398l-15.5204,8.7973c-.6117.3468-1.3607.3468-1.9724,0l-15.5212-8.7973c-.6758-.383-.6759-1.3567-.0002-1.7398Z"/><polygon class="uuid-b29909f8-a584-43cd-b0f4-4b0633483cce" points="15.23 10.111 6.211 15.222 15.234 20.337 24.253 15.222 15.23 10.111"/><polygon class="uuid-39389234-91c0-491c-961c-2285ad703ddb" points="24.249 4.996 15.234 10.107 24.253 15.222 33.272 10.111 24.249 4.996"/><polygon class="uuid-234ec9a0-286f-4e7d-bc74-517b86133256" points="33.272 10.111 24.253 15.222 33.272 20.337 42.29 15.222 33.272 10.111"/></svg>