<?xml version="1.0" encoding="UTF-8"?><svg id="uuid-19e51aad-e95a-488b-bd9b-ee95cc453acd" xmlns="http://www.w3.org/2000/svg" width="48" height="48" xmlns:xlink="http://www.w3.org/1999/xlink" viewBox="0 0 48 48"><defs><style>.uuid-f8695975-1fe8-40bb-94fe-2cff77b4ed03{opacity:.05;}.uuid-f8695975-1fe8-40bb-94fe-2cff77b4ed03,.uuid-cd2acfde-abd6-48d7-8b5b-b35fdb082bc2,.uuid-0a46e44b-96dc-41ae-81e4-c94b657ed28e{stroke-width:0px;}.uuid-cd2acfde-abd6-48d7-8b5b-b35fdb082bc2{fill:url(#uuid-7781cdab-95a1-4e4b-8643-cc64e7ad10eb);}.uuid-0a46e44b-96dc-41ae-81e4-c94b657ed28e{fill:#fff;}</style><linearGradient id="uuid-7781cdab-95a1-4e4b-8643-cc64e7ad10eb" x1="24" y1="14.4983" x2="24" y2="33.5017" gradientUnits="userSpaceOnUse"><stop offset="0" stop-color="#ffe649"/><stop offset="1" stop-color="#ffb400"/></linearGradient></defs><rect class="uuid-cd2acfde-abd6-48d7-8b5b-b35fdb082bc2" x="1.5" y="14.4983" width="45" height="19.0034" rx="2.7365" ry="2.7365"/><path class="uuid-f8695975-1fe8-40bb-94fe-2cff77b4ed03" d="M41.7932,19.1638l-.1577-.2739-.5679-.5679-2.4105.0107-.5558.0989-.5585.5585-1.59,4.1381-.0053-3.4968-.0989-.5558-.7536-.7536-2.2875.0107-.5558.0989-.7536.7536v2.3998h-1.2079l-.008-1.9535-.0989-.5558-.7536-.7536-2.2875.0107-.5558.0989-.7536.7536v.0094c-.2993-.2178-.6347-.4022-1.0021-.5492-.5412-.2151-1.1518-.3234-1.8159-.3234l-2.7679.0107-.5565.0989-.7529.7536v6.0328h-1.6983l-.0094-5.5865-.0989-.5558-.7536-.7536-2.2875.0107-.5565.0989-.7529.7536v3.939l-1.5266-3.9618-.1603-.2766-.5692-.5639-2.4065.0107-.5565.0989-.5579.5585-3.3992,8.8749-.1717.8378.9754.9754,2.5955-.0107.5532-.0989.5726-.5665.3962-1.109h1.1531l.332.9126.1603.294.5792.5786,2.5955-.0107.2439-.0441.0548.0548,5.6119-.0107.453-.0802.0909.0909,2.2889-.0107.5558-.0989.7536-.7536v-2.2274c.5171-.0347.9981-.139,1.4364-.3127.3674-.147.7028-.3327,1.0021-.5518l.0067,2.6456.0989.5558.7536.7536,2.2875-.0107.5558-.0989.7536-.7536v-2.7699h1.2079l.008,2.3236.0989.5558.7536.7536,2.2875-.0107.2445-.0441.0548.0548,2.5949-.0107.5558-.0989.5705-.5692.3942-1.1064h1.1545l.334.9166.1603.2913.5772.5772h2.5347l.616-.1096.9808-.9808-3.6277-9.424Z"/><path class="uuid-f8695975-1fe8-40bb-94fe-2cff77b4ed03" d="M41.2013,19.5058l-.1136-.1964-.3033-.3033h-2.0069l-.3447.0615-.3033.3033-2.8554,7.4319v-7.0511l-.0615-.3447-.4009-.4009h-1.884l-.3447.0615-.4009.4009v2.8006h-2.5735v-2.5174l-.0615-.3447-.4009-.4009h-1.884l-.3447.0615-.4009.4009v1.6645c-.1697-.4197-.4225-.7919-.7536-1.1073-.326-.31-.7242-.5599-1.1852-.7442-.461-.1831-.9874-.2753-1.5633-.2753h-2.6476l-.3447.0615-.4009.4009v6.6361l-.2024-.2024h-2.8628v-6.1504l-.0615-.3447-.4009-.4009h-1.884l-.3447.0615-.4009.4009v7.335l-2.802-7.2976-.1149-.1978-.3046-.302h-2.0049l-.3447.0615-.3033.3033-3.3157,8.6317-.0975.477.5144.5144h2.192l.3434-.0615.3107-.3073.5057-1.4163h2.1145l.4536,1.2694.1129.2071.3093.3087h2.192l.3447-.0615.1476-.1476.2091.2091h5.2091l.3447-.0615.2709-.2709.3324.3324h1.8847l.3447-.0615.4009-.4009v-2.6162h.3006c.5759,0,1.1023-.0922,1.5647-.2753.4596-.1844.8578-.4343,1.1852-.7456.3299-.314.5826-.6862.7523-1.1059v4.4597l.0615.3447.4009.4009h1.884l.3447-.0615.4009-.4009v-3.1707h2.5735v2.8875l.0615.3447.4009.4009h1.884l.3447-.0615.1476-.1476.2091.2091h2.1927l.3447-.0615.31-.3087.5037-1.415h2.1152l.4543,1.2707.1136.2058.3087.3087h2.1913l.3447-.0615.5144-.5144-3.4219-8.9123ZM9.0703,24.1157l.0294-.0869.0294.0869h-.0588ZM23.4409,22.7047c-.1096.0775-.2993.1189-.5492.1189h-.1777v-.7255h.1777c.2499,0,.4409.0414.5492.1176.0548.0401.0588.1978.0588.2445,0,.0975-.0147.2125-.0588.2445ZM39.6099,24.1157l.0294-.0855.0294.0855h-.0588Z"/><path class="uuid-0a46e44b-96dc-41ae-81e4-c94b657ed28e" d="M9.9616,19.6902h-1.7237l-.0615.0615-3.2636,8.4967.0615.0615h1.9087l.0621-.0615.6153-1.7237h3.0785l.616,1.7237.0615.0615h1.9087l.0615-.0615-3.2629-8.4967-.0621-.0615ZM8.115,24.7998l.9848-2.8928.9854,2.8928h-1.9702Z"/><polygon class="uuid-0a46e44b-96dc-41ae-81e4-c94b657ed28e" points="15.8721 26.5862 15.8721 19.7517 15.8107 19.6902 14.2099 19.6902 14.1485 19.7517 14.1485 28.2484 14.2099 28.3099 19.1357 28.3099 19.1972 28.2484 19.1972 26.6477 19.1357 26.5862 15.8721 26.5862"/><path class="uuid-0a46e44b-96dc-41ae-81e4-c94b657ed28e" d="M25.2928,20.5213c-.2632-.2499-.5852-.4516-.9674-.604-.3808-.151-.8177-.2271-1.3108-.2271h-2.6476l-.0615.0615v8.4967l.0615.0615h1.6014l.0615-.0615v-3.0171h.9848c.493,0,.93-.0762,1.3108-.2271.3821-.1523.7042-.3541.9674-.604.2619-.2499.4623-.5438.5973-.8805s.2031-.6895.2031-1.0596c0-.3688-.0681-.7215-.2031-1.0583s-.3354-.6307-.5973-.8805ZM23.8391,23.2605c-.2298.1643-.5452.2472-.9473.2472h-.8618v-2.0938h.8618c.4022,0,.7175.0828.9473.2459.2298.1643.3447.4316.3447.8004,0,.3701-.1149.6374-.3447.8004Z"/><polygon class="uuid-0a46e44b-96dc-41ae-81e4-c94b657ed28e" points="32.9277 19.6902 32.8663 19.7517 32.8663 22.9532 28.9245 22.9532 28.9245 19.7517 28.8631 19.6902 27.2623 19.6902 27.2009 19.7517 27.2009 28.2484 27.2623 28.3099 28.8631 28.3099 28.9245 28.2484 28.9245 24.6768 32.8663 24.6768 32.8663 28.2484 32.9277 28.3099 34.5285 28.3099 34.5899 28.2484 34.5899 19.7517 34.5285 19.6902 32.9277 19.6902"/><path class="uuid-0a46e44b-96dc-41ae-81e4-c94b657ed28e" d="M40.5626,19.7517l-.0615-.0615h-1.7237l-.0615.0615-3.2643,8.4967.0615.0615h1.9094l.0615-.0615.6146-1.7237h3.0785l.6173,1.7237.0615.0615h1.9081l.0615-.0615-3.2629-8.4967ZM38.6546,24.7998l.9834-2.8928.9861,2.8928h-1.9695Z"/></svg>