<?xml version="1.0" encoding="UTF-8"?><svg id="uuid-dd20e013-521b-4f68-b4bc-5d82ae1d57e7" xmlns="http://www.w3.org/2000/svg" width="48" height="48" xmlns:xlink="http://www.w3.org/1999/xlink" viewBox="0 0 48 48"><defs><style>.uuid-7ad4e789-6062-4e5b-89c0-dc5dd2b2d9a8,.uuid-927669d2-0fa8-4ff4-b5a9-9c5f8df08710,.uuid-420ec213-996f-43d0-8d83-eebcff8bbf67,.uuid-24e149fa-109c-48c2-bdcc-18e812d9d027{stroke-width:0px;}.uuid-7ad4e789-6062-4e5b-89c0-dc5dd2b2d9a8,.uuid-2b1105e2-9488-4609-a0e6-32f49bfa4a7f{opacity:.05;}.uuid-420ec213-996f-43d0-8d83-eebcff8bbf67{fill:#fff;}.uuid-24e149fa-109c-48c2-bdcc-18e812d9d027{fill:url(#uuid-bc4db0ef-993b-4e1d-acc5-d36de25f9b0a);}</style><linearGradient id="uuid-bc4db0ef-993b-4e1d-acc5-d36de25f9b0a" x1="30.7778" y1="33.3333" x2="30.7778" y2="47.2222" gradientUnits="userSpaceOnUse"><stop offset="0" stop-color="#32bdef"/><stop offset="1" stop-color="#1ea2e4"/></linearGradient></defs><rect class="uuid-24e149fa-109c-48c2-bdcc-18e812d9d027" x="14.3333" y="33.3333" width="32.8889" height="13.8889" rx="2" ry="2"/><path class="uuid-7ad4e789-6062-4e5b-89c0-dc5dd2b2d9a8" d="M39.9565,36.7422l-.1172-.2021-.4155-.4121-1.7593.0078-.4067.0723-.3828.3833-.4634-.4634-5.4521.0078-.1783.0317-.0395-.0395-4.7319.0078-.4067.0723-.5503.5508.0002.1566c-.05-.0438-.0915-.0961-.1452-.1361-.2832-.2129-.6118-.3779-.979-.4912-.3496-.1064-.7251-.1602-1.1157-.1602l-1.7529.0078-.4067.0723-.5503.5508.0078,6.7119.0723.4062.5508.5508h2.439c.3999,0,.7817-.0596,1.1357-.1768.3015-.101.5688-.2538.8135-.4344l.0107.0604.5508.5508h4.7783l.4478-.0801.5532-.5469-.0078-1.6758-.0732-.4102-.5532-.5469h-.2925l.0264-.0264-.0078-1.6719-.02-.1113.059-.0104.0397.0397h1.2603l.0068,4.083.0723.4062.5508.5508h1.6284l.4502-.0801.1354-.1356.2156.2156,1.897-.0078.4043-.0723.4185-.4141.2896-.8105h.8428l.2427.667.1172.2148.4238.4229h1.853l.4502-.0801.7163-.7168-2.6519-6.8887ZM35.791,39.3814l-.6386,1.6674v-1.664l.6386-.0034Z"/><g class="uuid-2b1105e2-9488-4609-a0e6-32f49bfa4a7f"><path class="uuid-927669d2-0fa8-4ff4-b5a9-9c5f8df08710" d="M36.2495,38.8428l.293-.293v-1.377l-.0449-.252-.293-.293h-5.1572l-.252.0449-.1079.1079-.1528-.1528h-4.437l-.252.0449-.293.293v3.6765c-.0486-.1175-.0897-.2401-.1553-.3455-.0859-.1377-.187-.2656-.3022-.3818.0273-.0381.0537-.0771.0786-.1182.1689-.2744.2544-.5967.2544-.959,0-.3496-.0752-.6709-.2236-.9561-.146-.2793-.3472-.5166-.5972-.7031-.2368-.1777-.5142-.3164-.8242-.4121-.3018-.0918-.6284-.1387-.9702-.1387h-1.665l-.252.0449-.293.293v6.417l.0449.252.293.293h2.2319c.3462,0,.6748-.0508.9775-.1514.3135-.1045.5918-.2617.8271-.4668.2407-.21.4312-.4717.5659-.7793.0041-.0094.0053-.0208.0093-.0303v.8828l.0449.252.293.293h4.5269l.251-.0449.2944-.291v-1.3789l-.0454-.2539-.2944-.291h-2.8105v-.3955h1.7051l.252-.0449.293-.293v-1.377l-.0449-.252-.293-.293h-1.9121v-.125h2.5151l.252-.0449.1079-.1079.1528.1528h1.5522v4.4951l.0449.252.293.293h1.377l.252-.0449.293-.293v-4.7021h1.3452l.252-.0449ZM23.3423,41.6152c-.0557.0342-.1445.0527-.2593.0527h-.2202v-.3506h.2202c.1201,0,.2129.0205.2466.0381,0,0,.0186.0352.0186.1377,0,.0811-.0117.1201-.0059.1221Z"/><path class="uuid-927669d2-0fa8-4ff4-b5a9-9c5f8df08710" d="M39.5244,36.9932l-.084-.1445-.2227-.2207h-1.4653l-.252.0449-.2217.2217-2.4233,6.3086-.0713.3486.376.376h1.6021l.251-.0449.2271-.2246.3696-1.0352h1.5454l.3315.9277.0825.1514.2261.2256h1.6021l.252-.0449.376-.376-2.501-6.5137ZM38.3608,40.3623l.0215-.0635.0215.0635h-.043Z"/></g><path class="uuid-420ec213-996f-43d0-8d83-eebcff8bbf67" d="M24.9731,40.5615c-.0845-.1357-.1846-.2549-.3018-.3604-.1167-.1045-.2417-.1846-.3735-.2383.1802-.0898.3301-.2324.4502-.4277s.1802-.4277.1802-.6973c0-.2705-.0557-.5117-.1665-.7246-.1113-.2129-.2627-.3916-.4546-.5352-.1924-.1445-.4155-.2549-.6704-.333-.2554-.0781-.5298-.1172-.8237-.1172h-1.665l-.0449.0449v6.21l.0449.0449h2.0249c.2939,0,.5669-.042.8193-.126.252-.084.4707-.207.6567-.3691s.3315-.3633.4365-.6025c.105-.2402.1577-.5195.1577-.8369,0-.168-.0244-.332-.0723-.4912-.0479-.1582-.1138-.3057-.1978-.4404ZM22.3628,38.3877h.4502c.252,0,.4351.0527.5488.1572.1143.1055.1714.248.1714.4277s-.0571.3223-.1714.4277c-.1138.1045-.2969.1572-.5488.1572h-.4502v-1.1699ZM23.6367,42.0195c-.1411.0986-.3257.1484-.5537.1484h-.7202v-1.3506h.7202c.228,0,.4126.0498.5537.1484.1406.0996.2114.2754.2114.5273s-.0708.4268-.2114.5264Z"/><polygon class="uuid-420ec213-996f-43d0-8d83-eebcff8bbf67" points="27.3125 42.168 27.3125 40.7725 29.5176 40.7725 29.5625 40.7275 29.5625 39.5576 29.5176 39.5127 27.3125 39.5127 27.3125 38.3877 30.3276 38.3877 30.3726 38.3428 30.3726 37.1729 30.3276 37.1279 26.0977 37.1279 26.0527 37.1729 26.0527 43.3828 26.0977 43.4277 30.4175 43.4277 30.4629 43.3828 30.4629 42.2129 30.4175 42.168 27.3125 42.168"/><polygon class="uuid-420ec213-996f-43d0-8d83-eebcff8bbf67" points="36.0425 38.3428 36.0425 37.1729 35.9976 37.1279 31.0474 37.1279 31.0024 37.1729 31.0024 38.3428 31.0474 38.3877 32.8926 38.3877 32.8926 43.3828 32.9375 43.4277 34.1074 43.4277 34.1523 43.3828 34.1523 38.3877 35.9976 38.3877 36.0425 38.3428"/><path class="uuid-420ec213-996f-43d0-8d83-eebcff8bbf67" d="M39.0576,37.1729l-.0454-.0449h-1.2598l-.0449.0449-2.3853,6.21.0449.0449h1.395l.0454-.0449.4497-1.2598h2.25l.4502,1.2598.0449.0449h1.395l.0449-.0449-2.3848-6.21ZM37.6626,40.8623l.7197-2.1143.7202,2.1143h-1.4399Z"/></svg>