<?xml version="1.0" encoding="UTF-8"?><svg id="uuid-ac853fbc-b61a-4dc1-9393-9e89105f6fe7" xmlns="http://www.w3.org/2000/svg" width="48" height="48" xmlns:xlink="http://www.w3.org/1999/xlink" viewBox="0 0 48 48"><defs><style>.uuid-1c59d3be-00c5-4594-83eb-3d4f8f87e499,.uuid-f6c805c3-ebab-4d35-8422-ac06be72f358,.uuid-3e077730-1033-46a6-88e8-d8c56d9c0784,.uuid-37feea8d-e71a-46bb-b3ab-f81adecda734{stroke-width:0px;}.uuid-1c59d3be-00c5-4594-83eb-3d4f8f87e499,.uuid-52c31472-127d-4a57-a073-d31f98854ea5{opacity:.05;}.uuid-3e077730-1033-46a6-88e8-d8c56d9c0784{fill:#fff;}.uuid-37feea8d-e71a-46bb-b3ab-f81adecda734{fill:url(#uuid-5b59dc88-9e77-4b6e-8912-16b7c3177440);}</style><linearGradient id="uuid-5b59dc88-9e77-4b6e-8912-16b7c3177440" x1="24" y1="14.4983" x2="24" y2="33.5017" gradientUnits="userSpaceOnUse"><stop offset="0" stop-color="#32bdef"/><stop offset="1" stop-color="#1ea2e4"/></linearGradient></defs><rect class="uuid-37feea8d-e71a-46bb-b3ab-f81adecda734" x="1.5" y="14.4983" width="45" height="19.0034" rx="2.7365" ry="2.7365"/><path class="uuid-1c59d3be-00c5-4594-83eb-3d4f8f87e499" d="M36.5588,19.1625l-.1603-.2766-.5685-.5639-2.4071.0107-.5565.0989-.5238.5244-.634-.634-7.4599.0107-.2439.0433-.054-.054-6.4744.0107-.5565.0989-.7529.7536.0003.2143c-.0685-.0599-.1252-.1314-.1987-.1862-.3875-.2913-.8371-.5171-1.3395-.6721-.4784-.1456-.9921-.2191-1.5266-.2191l-2.3984.0107-.5565.0989-.7529.7536.0107,9.1835.0989.5558.7536.7536h3.3371c.5472,0,1.0696-.0815,1.554-.2418.4125-.1382.7782-.3472,1.113-.5944l.0147.0827.7536.7536h6.5379l.6126-.1096.7569-.7483-.0107-2.2929-.1002-.5612-.7569-.7483h-.4002l.0361-.0361-.0107-2.2875-.0274-.1523.0807-.0142.0543.0543h1.7243l.0094,5.5865.0989.5558.7536.7536h2.2281l.616-.1096.1853-.1855.295.295,2.5955-.0107.5532-.0989.5726-.5665.3962-1.109h1.1531l.332.9126.1603.294.5799.5786h2.5354l.616-.1096.9801-.9808-3.6284-9.4254ZM30.8592,22.7735l-.8738,2.2814v-2.2768l.8738-.0046Z"/><g class="uuid-52c31472-127d-4a57-a073-d31f98854ea5"><path class="uuid-f6c805c3-ebab-4d35-8422-ac06be72f358" d="M31.4867,22.0366l.4009-.4009v-1.884l-.0615-.3447-.4009-.4009h-7.0563l-.3447.0615-.1476.1476-.2091-.2091h-6.0709l-.3447.0615-.4009.4009v5.0304c-.0665-.1608-.1227-.3285-.2125-.4727-.1176-.1884-.2559-.3634-.4135-.5224.0374-.0521.0735-.1056.1076-.1617.2312-.3755.3481-.8164.3481-1.3121,0-.4784-.1029-.918-.306-1.3081-.1998-.3821-.475-.7068-.8171-.962-.324-.2432-.7035-.4329-1.1277-.5639-.4129-.1256-.8598-.1897-1.3275-.1897h-2.2782l-.3447.0615-.4009.4009v8.78l.0615.3447.4009.4009h3.0538c.4737,0,.9233-.0695,1.3375-.2071.4289-.143.8097-.3581,1.1317-.6387.3294-.2873.5899-.6454.7743-1.0663.0056-.0129.0073-.0285.0127-.0414v1.2079l.0615.3447.4009.4009h6.1938l.3434-.0615.4029-.3982v-1.8867l-.0621-.3474-.4029-.3982h-3.8455v-.5412h2.333l.3447-.0615.4009-.4009v-1.884l-.0615-.3447-.4009-.4009h-2.6162v-.171h3.4413l.3447-.0615.1476-.1476.2091.2091h2.1239v6.1504l.0615.3447.4009.4009h1.884l.3447-.0615.4009-.4009v-6.4337h1.8406l.3447-.0615ZM13.8264,25.83c-.0762.0468-.1978.0722-.3548.0722h-.3013v-.4797h.3013c.1643,0,.2913.0281.3374.0521,0,0,.0254.0481.0254.1884,0,.1109-.016.1643-.008.167Z"/><path class="uuid-f6c805c3-ebab-4d35-8422-ac06be72f358" d="M35.9675,19.5058l-.1149-.1978-.3046-.302h-2.0049l-.3447.0615-.3033.3033-3.3157,8.6317-.0975.477.5144.5144h2.192l.3434-.0615.3107-.3073.5057-1.4163h2.1145l.4536,1.2694.1129.2071.3093.3087h2.192l.3447-.0615.5144-.5144-3.4219-8.9123ZM34.3755,24.1157l.0294-.0869.0294.0869h-.0588Z"/></g><path class="uuid-3e077730-1033-46a6-88e8-d8c56d9c0784" d="M16.0578,24.3882c-.1156-.1857-.2525-.3487-.4129-.493-.1597-.143-.3307-.2525-.5111-.326.2465-.1229.4516-.318.616-.5852s.2465-.5852.2465-.954c0-.3701-.0762-.7002-.2278-.9914-.1523-.2913-.3594-.5358-.622-.7322-.2632-.1978-.5685-.3487-.9173-.4556-.3494-.1069-.7249-.1603-1.1271-.1603h-2.2782l-.0615.0615v8.4967l.0615.0615h2.7706c.4022,0,.7756-.0575,1.1211-.1724.3447-.1149.644-.2833.8986-.5051s.4536-.4971.5973-.8244c.1436-.3287.2158-.7108.2158-1.1451,0-.2298-.0334-.4543-.0989-.6721-.0655-.2165-.1557-.4182-.2706-.6026ZM12.4863,21.4139h.616c.3447,0,.5953.0722.7509.2151.1563.1443.2345.3394.2345.5852s-.0782.4409-.2345.5852c-.1557.143-.4062.2151-.7509.2151h-.616v-1.6007ZM14.2293,26.3831c-.1931.135-.4456.2031-.7576.2031h-.9854v-1.8479h.9854c.312,0,.5645.0681.7576.2031.1924.1363.2893.3768.2893.7215s-.0969.5839-.2893.7202Z"/><polygon class="uuid-3e077730-1033-46a6-88e8-d8c56d9c0784" points="19.2587 26.5862 19.2587 24.6768 22.2757 24.6768 22.3372 24.6154 22.3372 23.0146 22.2757 22.9532 19.2587 22.9532 19.2587 21.4139 23.3841 21.4139 23.4456 21.3524 23.4456 19.7517 23.3841 19.6902 17.5965 19.6902 17.535 19.7517 17.535 28.2484 17.5965 28.3099 23.507 28.3099 23.5692 28.2484 23.5692 26.6477 23.507 26.5862 19.2587 26.5862"/><polygon class="uuid-3e077730-1033-46a6-88e8-d8c56d9c0784" points="31.2034 21.3524 31.2034 19.7517 31.1419 19.6902 24.3689 19.6902 24.3074 19.7517 24.3074 21.3524 24.3689 21.4139 26.8936 21.4139 26.8936 28.2484 26.955 28.3099 28.5558 28.3099 28.6172 28.2484 28.6172 21.4139 31.1419 21.4139 31.2034 21.3524"/><path class="uuid-3e077730-1033-46a6-88e8-d8c56d9c0784" d="M35.3288,19.7517l-.0621-.0615h-1.7237l-.0615.0615-3.2636,8.4967.0615.0615h1.9087l.0621-.0615.6153-1.7237h3.0785l.616,1.7237.0615.0615h1.9087l.0615-.0615-3.2629-8.4967ZM33.4201,24.7998l.9848-2.8928.9854,2.8928h-1.9702Z"/></svg>