<?xml version="1.0" encoding="UTF-8"?><svg id="uuid-e15bbda5-e59c-4eec-9afc-e7fb4ef8fc9b" xmlns="http://www.w3.org/2000/svg" width="48" height="48" xmlns:xlink="http://www.w3.org/1999/xlink" viewBox="0 0 48 48"><defs><style>.uuid-745413b2-b906-4a99-be9d-053de49580cd{opacity:.05;}.uuid-745413b2-b906-4a99-be9d-053de49580cd,.uuid-a5c16c8a-3057-4d8b-8f09-27aced24beb7,.uuid-5e7d51f0-4402-4eae-afa5-45913b0e66d6{stroke-width:0px;}.uuid-a5c16c8a-3057-4d8b-8f09-27aced24beb7{fill:url(#uuid-109768aa-f58a-4ed8-a312-e792ca7917d3);}.uuid-5e7d51f0-4402-4eae-afa5-45913b0e66d6{fill:#fff;}</style><linearGradient id="uuid-109768aa-f58a-4ed8-a312-e792ca7917d3" x1="30.7778" y1="33.3333" x2="30.7778" y2="47.2222" gradientUnits="userSpaceOnUse"><stop offset="0" stop-color="#ffe649"/><stop offset="1" stop-color="#ffb400"/></linearGradient></defs><rect class="uuid-a5c16c8a-3057-4d8b-8f09-27aced24beb7" x="14.3333" y="33.3333" width="32.8889" height="13.8889" rx="2" ry="2"/><path class="uuid-745413b2-b906-4a99-be9d-053de49580cd" d="M43.7822,36.7432l-.1152-.2002-.415-.415-1.7617.0078-.4062.0723-.4082.4082-1.1621,3.0244-.0039-2.5557-.0723-.4062-.5508-.5508-1.6719.0078-.4062.0723-.5508.5508v1.7539h-.8828l-.0059-1.4277-.0723-.4062-.5508-.5508-1.6719.0078-.4062.0723-.5508.5508v.0068c-.2188-.1592-.4639-.2939-.7324-.4014-.3955-.1572-.8418-.2363-1.3271-.2363l-2.0229.0078-.4067.0723-.5503.5508v4.4092h-1.2412l-.0068-4.083-.0723-.4062-.5508-.5508-1.6719.0078-.4067.0723-.5503.5508v2.8789l-1.1157-2.8955-.1172-.2021-.416-.4121-1.7588.0078-.4067.0723-.4077.4082-2.4844,6.4863-.1255.6123.7129.7129,1.897-.0078.4043-.0723.4185-.4141.2896-.8105h.8428l.2427.667.1172.2148.4233.4229,1.897-.0078.1782-.0322.04.04,4.1016-.0078.3311-.0586.0664.0664,1.6729-.0078.4062-.0723.5508-.5508v-1.6279c.3779-.0254.7295-.1016,1.0498-.2285.2686-.1074.5137-.2432.7324-.4033l.0049,1.9336.0723.4062.5508.5508,1.6719-.0078.4062-.0723.5508-.5508v-2.0244h.8828l.0059,1.6982.0723.4062.5508.5508,1.6719-.0078.1787-.0322.04.04,1.8965-.0078.4062-.0723.417-.416.2881-.8086h.8438l.2441.6699.1172.2129.4219.4219h1.8525l.4502-.0801.7168-.7168-2.6514-6.8877Z"/><path class="uuid-745413b2-b906-4a99-be9d-053de49580cd" d="M43.3496,36.9932l-.083-.1436-.2217-.2217h-1.4668l-.252.0449-.2217.2217-2.0869,5.4317v-5.1534l-.0449-.252-.293-.293h-1.377l-.252.0449-.293.293v2.0469h-1.8809v-1.8398l-.0449-.252-.293-.293h-1.377l-.252.0449-.293.293v1.2165c-.124-.3068-.3088-.5788-.5508-.8093-.2383-.2266-.5293-.4092-.8662-.5439-.3369-.1338-.7217-.2012-1.1426-.2012h-1.9351l-.252.0449-.293.293v4.8501l-.1479-.1479h-2.0923v-4.4951l-.0449-.252-.293-.293h-1.377l-.252.0449-.293.293v5.3609l-2.0479-5.3336-.084-.1445-.2227-.2207h-1.4653l-.252.0449-.2217.2217-2.4233,6.3086-.0713.3486.376.376h1.6021l.251-.0449.2271-.2246.3696-1.0352h1.5454l.3315.9277.0825.1514.2261.2256h1.6021l.252-.0449.1079-.1079.1528.1528h3.8071l.252-.0449.198-.198.2429.2429h1.3774l.252-.0449.293-.293v-1.9121h.2197c.4209,0,.8057-.0674,1.1436-.2012.3359-.1348.627-.3174.8662-.5449.2411-.2295.4258-.5015.5498-.8083v3.2595l.0449.252.293.293h1.377l.252-.0449.293-.293v-2.3174h1.8809v2.1104l.0449.252.293.293h1.377l.252-.0449.1079-.1079.1528.1528h1.6025l.252-.0449.2266-.2256.3682-1.0342h1.5459l.332.9287.083.1504.2256.2256h1.6016l.252-.0449.376-.376-2.501-6.5137ZM19.8662,40.3623l.0215-.0635.0215.0635h-.043ZM30.3691,39.3311c-.0801.0566-.2188.0869-.4014.0869h-.1299v-.5303h.1299c.1826,0,.3223.0303.4014.0859.04.0293.043.1445.043.1787,0,.0713-.0107.1553-.043.1787ZM42.1865,40.3623l.0215-.0625.0215.0625h-.043Z"/><path class="uuid-5e7d51f0-4402-4eae-afa5-45913b0e66d6" d="M20.5176,37.1279h-1.2598l-.0449.0449-2.3853,6.21.0449.0449h1.395l.0454-.0449.4497-1.2598h2.25l.4502,1.2598.0449.0449h1.395l.0449-.0449-2.3848-6.21-.0454-.0449ZM19.168,40.8623l.7197-2.1143.7202,2.1143h-1.4399Z"/><polygon class="uuid-5e7d51f0-4402-4eae-afa5-45913b0e66d6" points="24.8374 42.168 24.8374 37.1729 24.7925 37.1279 23.6226 37.1279 23.5776 37.1729 23.5776 43.3828 23.6226 43.4277 27.2227 43.4277 27.2676 43.3828 27.2676 42.2129 27.2227 42.168 24.8374 42.168"/><path class="uuid-5e7d51f0-4402-4eae-afa5-45913b0e66d6" d="M31.7227,37.7354c-.1924-.1826-.4277-.3301-.707-.4414-.2783-.1104-.5977-.166-.958-.166h-1.9351l-.0449.0449v6.21l.0449.0449h1.1704l.0449-.0449v-2.2051h.7197c.3604,0,.6797-.0557.958-.166.2793-.1113.5146-.2588.707-.4414.1914-.1826.3379-.3975.4365-.6436s.1484-.5039.1484-.7744c0-.2695-.0498-.5273-.1484-.7734s-.2451-.4609-.4365-.6436ZM30.6602,39.7373c-.168.1201-.3984.1807-.6924.1807h-.6299v-1.5303h.6299c.2939,0,.5244.0605.6924.1797.168.1201.252.3154.252.585,0,.2705-.084.4658-.252.585Z"/><polygon class="uuid-5e7d51f0-4402-4eae-afa5-45913b0e66d6" points="37.3027 37.1279 37.2578 37.1729 37.2578 39.5127 34.377 39.5127 34.377 37.1729 34.332 37.1279 33.1621 37.1279 33.1172 37.1729 33.1172 43.3828 33.1621 43.4277 34.332 43.4277 34.377 43.3828 34.377 40.7725 37.2578 40.7725 37.2578 43.3828 37.3027 43.4277 38.4727 43.4277 38.5176 43.3828 38.5176 37.1729 38.4727 37.1279 37.3027 37.1279"/><path class="uuid-5e7d51f0-4402-4eae-afa5-45913b0e66d6" d="M42.8828,37.1729l-.0449-.0449h-1.2598l-.0449.0449-2.3857,6.21.0449.0449h1.3955l.0449-.0449.4492-1.2598h2.25l.4512,1.2598.0449.0449h1.3945l.0449-.0449-2.3848-6.21ZM41.4883,40.8623l.7188-2.1143.7207,2.1143h-1.4395Z"/></svg>