<?xml version="1.0" encoding="UTF-8"?><svg id="uuid-57cc848a-f556-4ab9-ad37-7b70d969a1a5" xmlns="http://www.w3.org/2000/svg" width="48" height="48" xmlns:xlink="http://www.w3.org/1999/xlink" viewBox="0 0 48 48"><defs><style>.uuid-049666db-448b-44bb-8c90-64176ca6c95a{opacity:.05;}.uuid-049666db-448b-44bb-8c90-64176ca6c95a,.uuid-afa74eeb-4053-4da5-a095-8d8a39a1e0bb,.uuid-6c42a79c-0962-4a9a-91b6-a45b0a232ee7,.uuid-45f718d2-78de-4bc5-a1ec-2de6d0f468fc,.uuid-98a2b71f-3f16-4b74-98f8-3b223407d67d{stroke-width:0px;}.uuid-afa74eeb-4053-4da5-a095-8d8a39a1e0bb{fill:url(#uuid-cb4e48b0-7844-45f8-b8bd-1449986d6cd0);}.uuid-6c42a79c-0962-4a9a-91b6-a45b0a232ee7{fill:url(#uuid-536d0709-7982-4899-a9e3-a4f7c8b5a966);opacity:.75;}.uuid-45f718d2-78de-4bc5-a1ec-2de6d0f468fc{opacity:.07;}.uuid-98a2b71f-3f16-4b74-98f8-3b223407d67d{fill:url(#uuid-f2fea5f5-35e7-47b8-a902-b2be2d5d1902);}</style><linearGradient id="uuid-cb4e48b0-7844-45f8-b8bd-1449986d6cd0" x1="18.0157" y1="43.6217" x2="30.7819" y2="22.8509" gradientUnits="userSpaceOnUse"><stop offset="0" stop-color="#64717c"/><stop offset="1" stop-color="#30363d"/></linearGradient><linearGradient id="uuid-f2fea5f5-35e7-47b8-a902-b2be2d5d1902" x1="17.9335" y1="33.6136" x2="30.2092" y2="13.6409" gradientUnits="userSpaceOnUse"><stop offset="0" stop-color="#ff9c0d"/><stop offset="1" stop-color="#f36e22"/></linearGradient><linearGradient id="uuid-536d0709-7982-4899-a9e3-a4f7c8b5a966" x1="17.7753" y1="23.7291" x2="30.3076" y2="3.3388" gradientUnits="userSpaceOnUse"><stop offset="0" stop-color="#fff"/><stop offset=".242" stop-color="#f2f2f2"/><stop offset="1" stop-color="#ccc"/></linearGradient></defs><path class="uuid-afa74eeb-4053-4da5-a095-8d8a39a1e0bb" d="M2.6552,32.8463l20.0697-10.5111c.7913-.4144,1.7601-.4144,2.5514,0l20.0685,10.5111c.8737.4576.8736,1.6203-.0002,2.0778l-20.0688,10.5061c-.791.4141-1.7594.4141-2.5504,0L2.6555,34.9241c-.8738-.4574-.874-1.6202-.0002-2.0778Z"/><path class="uuid-45f718d2-78de-4bc5-a1ec-2de6d0f468fc" d="M22.4941,35.7314c.459.2402.9795.3672,1.5068.3672.5264,0,1.0469-.127,1.5059-.3672l12.6766-6.6359-12.9072-6.7603c-.7913-.4144-1.7601-.4145-2.5514,0l-12.908,6.7603,12.6772,6.6359Z"/><path class="uuid-049666db-448b-44bb-8c90-64176ca6c95a" d="M22.2627,36.1748c.5293.2773,1.1309.4238,1.7383.4238.6064,0,1.208-.1465,1.7373-.4238l12.9846-6.7968-13.4465-7.0427c-.7913-.4144-1.7601-.4145-2.5514,0l-13.4471,7.0427,12.9849,6.7969Z"/><path class="uuid-98a2b71f-3f16-4b74-98f8-3b223407d67d" d="M2.6552,22.7045l20.0697-10.5111c.7913-.4144,1.7601-.4144,2.5514,0l20.0685,10.5111c.8737.4576.8736,1.6203-.0002,2.0778l-20.0688,10.5061c-.791.4141-1.7594.4141-2.5504,0L2.6555,24.7823c-.8738-.4574-.874-1.6202-.0002-2.0778Z"/><path class="uuid-049666db-448b-44bb-8c90-64176ca6c95a" d="M22.2627,26.0332c.5293.2773,1.1309.4238,1.7383.4238.6064,0,1.208-.1465,1.7373-.4238l12.9845-6.7971-13.4465-7.0427c-.7913-.4144-1.7601-.4145-2.5514,0l-13.4473,7.0428,12.9851,6.7971Z"/><path class="uuid-049666db-448b-44bb-8c90-64176ca6c95a" d="M22.4941,25.5898c.459.2402.9795.3672,1.5068.3672.5264,0,1.0469-.127,1.5059-.3672l12.6772-6.6359-12.9077-6.7605c-.7913-.4144-1.7601-.4145-2.5514,0l-12.9083,6.7604,12.6775,6.636Z"/><path class="uuid-6c42a79c-0962-4a9a-91b6-a45b0a232ee7" d="M2.6552,12.5626L22.7249,2.0515c.7913-.4144,1.7601-.4144,2.5514,0l20.0685,10.5111c.8737.4576.8736,1.6203-.0002,2.0778l-20.0688,10.5061c-.791.4141-1.7594.4141-2.5504,0L2.6555,14.6404c-.8738-.4574-.874-1.6202-.0002-2.0778Z"/></svg>