<?xml version="1.0" encoding="UTF-8"?><svg id="uuid-b2d2838a-7df3-467a-8478-3eecf2e54dbf" xmlns="http://www.w3.org/2000/svg" width="48" height="48" xmlns:xlink="http://www.w3.org/1999/xlink" viewBox="0 0 48 48"><defs><style>.uuid-18880c6c-82b5-4070-84f1-6db5f3a71a1d{opacity:.05;}.uuid-18880c6c-82b5-4070-84f1-6db5f3a71a1d,.uuid-9a7014b5-6d0b-47b0-9fee-044526a28cc4,.uuid-765effe2-2ab1-4d80-9d6c-f36ca4729d64,.uuid-eea2186d-3c23-4356-bd6f-045deb5df4f7,.uuid-6b8b6d08-696e-43fe-bef4-ffc13ee41c2f{stroke-width:0px;}.uuid-9a7014b5-6d0b-47b0-9fee-044526a28cc4{fill:url(#uuid-5c10f8b3-8b48-47fa-9849-079da55cfb27);opacity:.75;}.uuid-765effe2-2ab1-4d80-9d6c-f36ca4729d64{fill:url(#uuid-0e7db1fd-76ba-4b8c-8e5f-165d979b6df7);}.uuid-eea2186d-3c23-4356-bd6f-045deb5df4f7{fill:url(#uuid-e1d76942-97fa-4ec1-969a-4560f4c165ff);}.uuid-6b8b6d08-696e-43fe-bef4-ffc13ee41c2f{opacity:.07;}</style><linearGradient id="uuid-e1d76942-97fa-4ec1-969a-4560f4c165ff" x1="18.0157" y1="43.6217" x2="30.7819" y2="22.8509" gradientUnits="userSpaceOnUse"><stop offset="0" stop-color="#64717c"/><stop offset="1" stop-color="#30363d"/></linearGradient><linearGradient id="uuid-0e7db1fd-76ba-4b8c-8e5f-165d979b6df7" x1="17.9335" y1="33.6136" x2="30.2092" y2="13.6409" gradientUnits="userSpaceOnUse"><stop offset="0" stop-color="#32bdef"/><stop offset="1" stop-color="#1ea2e4"/></linearGradient><linearGradient id="uuid-5c10f8b3-8b48-47fa-9849-079da55cfb27" x1="17.7753" y1="23.7291" x2="30.3076" y2="3.3388" gradientUnits="userSpaceOnUse"><stop offset="0" stop-color="#fff"/><stop offset=".242" stop-color="#f2f2f2"/><stop offset="1" stop-color="#ccc"/></linearGradient></defs><path class="uuid-eea2186d-3c23-4356-bd6f-045deb5df4f7" d="M2.6552,32.8463l20.0697-10.5111c.7913-.4144,1.7601-.4144,2.5514,0l20.0685,10.5111c.8737.4576.8736,1.6203-.0002,2.0778l-20.0688,10.5061c-.791.4141-1.7594.4141-2.5504,0L2.6555,34.9241c-.8738-.4574-.874-1.6202-.0002-2.0778Z"/><path class="uuid-6b8b6d08-696e-43fe-bef4-ffc13ee41c2f" d="M22.4941,35.7314c.459.2402.9795.3672,1.5068.3672.5264,0,1.0469-.127,1.5059-.3672l12.6766-6.6359-12.9072-6.7603c-.7913-.4144-1.7601-.4145-2.5514,0l-12.908,6.7603,12.6772,6.6359Z"/><path class="uuid-18880c6c-82b5-4070-84f1-6db5f3a71a1d" d="M22.2627,36.1748c.5293.2773,1.1309.4238,1.7383.4238.6064,0,1.208-.1465,1.7373-.4238l12.9846-6.7968-13.4465-7.0427c-.7913-.4144-1.7601-.4145-2.5514,0l-13.4471,7.0427,12.9849,6.7969Z"/><path class="uuid-765effe2-2ab1-4d80-9d6c-f36ca4729d64" d="M2.6552,22.7045l20.0697-10.5111c.7913-.4144,1.7601-.4144,2.5514,0l20.0685,10.5111c.8737.4576.8736,1.6203-.0002,2.0778l-20.0688,10.5061c-.791.4141-1.7594.4141-2.5504,0L2.6555,24.7823c-.8738-.4574-.874-1.6202-.0002-2.0778Z"/><path class="uuid-18880c6c-82b5-4070-84f1-6db5f3a71a1d" d="M22.2627,26.0332c.5293.2773,1.1309.4238,1.7383.4238.6064,0,1.208-.1465,1.7373-.4238l12.9845-6.7971-13.4465-7.0427c-.7913-.4144-1.7601-.4145-2.5514,0l-13.4473,7.0428,12.9851,6.7971Z"/><path class="uuid-18880c6c-82b5-4070-84f1-6db5f3a71a1d" d="M22.4941,25.5898c.459.2402.9795.3672,1.5068.3672.5264,0,1.0469-.127,1.5059-.3672l12.6772-6.6359-12.9077-6.7605c-.7913-.4144-1.7601-.4145-2.5514,0l-12.9083,6.7604,12.6775,6.636Z"/><path class="uuid-9a7014b5-6d0b-47b0-9fee-044526a28cc4" d="M2.6552,12.5626L22.7249,2.0515c.7913-.4144,1.7601-.4144,2.5514,0l20.0685,10.5111c.8737.4576.8736,1.6203-.0002,2.0778l-20.0688,10.5061c-.791.4141-1.7594.4141-2.5504,0L2.6555,14.6404c-.8738-.4574-.874-1.6202-.0002-2.0778Z"/></svg>