<?xml version="1.0" encoding="UTF-8"?><svg id="uuid-87a5f119-9915-41a8-ac77-86f55cea1d51" xmlns="http://www.w3.org/2000/svg" width="48" height="48" xmlns:xlink="http://www.w3.org/1999/xlink" viewBox="0 0 48 48"><defs><style>.uuid-50a0be81-6d14-48ae-a5ab-803de8ada093{opacity:.05;}.uuid-50a0be81-6d14-48ae-a5ab-803de8ada093,.uuid-f794ecaf-0e09-48d1-9247-15e08ca65862,.uuid-de48b926-aa97-4120-adaf-53dee506f9f4,.uuid-49e49b49-f944-4490-9879-9ec86724f7bd,.uuid-28347770-d559-4302-9aac-d9e45ca955b7{stroke-width:0px;}.uuid-f794ecaf-0e09-48d1-9247-15e08ca65862{fill:url(#uuid-701789fc-4c10-47fd-a083-d9a1ab168b5e);}.uuid-de48b926-aa97-4120-adaf-53dee506f9f4{fill:url(#uuid-62b63cb4-4306-40eb-b859-0e3fff6f0b2e);opacity:.75;}.uuid-49e49b49-f944-4490-9879-9ec86724f7bd{fill:url(#uuid-0887742a-f98b-441a-bcc1-5d06fdda238c);}.uuid-28347770-d559-4302-9aac-d9e45ca955b7{opacity:.07;}</style><linearGradient id="uuid-701789fc-4c10-47fd-a083-d9a1ab168b5e" x1="71.5343" y1="141.1402" x2="84.3004" y2="120.3694" gradientTransform="translate(145.2593 -53.7778) rotate(90)" gradientUnits="userSpaceOnUse"><stop offset="0" stop-color="#64717c"/><stop offset="1" stop-color="#30363d"/></linearGradient><linearGradient id="uuid-0887742a-f98b-441a-bcc1-5d06fdda238c" x1="71.452" y1="131.1321" x2="83.7277" y2="111.1594" gradientTransform="translate(145.2593 -53.7778) rotate(90)" gradientUnits="userSpaceOnUse"><stop offset="0" stop-color="#ff9c0d"/><stop offset="1" stop-color="#f36e22"/></linearGradient><linearGradient id="uuid-62b63cb4-4306-40eb-b859-0e3fff6f0b2e" x1="71.2939" y1="121.2477" x2="83.8261" y2="100.8573" gradientTransform="translate(145.2593 -53.7778) rotate(90)" gradientUnits="userSpaceOnUse"><stop offset="0" stop-color="#fff"/><stop offset=".242" stop-color="#f2f2f2"/><stop offset="1" stop-color="#ccc"/></linearGradient></defs><path class="uuid-f794ecaf-0e09-48d1-9247-15e08ca65862" d="M14.8944,2.396l10.5111,20.0697c.4144.7913.4144,1.7601,0,2.5514l-10.5111,20.0685c-.4576.8737-1.6203.8736-2.0778-.0002L2.3106,25.0165c-.4141-.791-.4141-1.7594,0-2.5504L12.8166,2.3962c.4574-.8738,1.6202-.874,2.0778-.0002Z"/><path class="uuid-28347770-d559-4302-9aac-d9e45ca955b7" d="M12.0093,22.2349c-.2402.459-.3672.9795-.3672,1.5068,0,.5264.127,1.0469.3672,1.5059l6.6359,12.6766,6.7603-12.9072c.4144-.7913.4145-1.7601,0-2.5514l-6.7603-12.908-6.6359,12.6772Z"/><path class="uuid-50a0be81-6d14-48ae-a5ab-803de8ada093" d="M11.5659,22.0034c-.2773.5293-.4238,1.1309-.4238,1.7383,0,.6064.1465,1.208.4238,1.7373l6.7968,12.9846,7.0427-13.4465c.4144-.7913.4145-1.7601,0-2.5514l-7.0427-13.4471-6.7969,12.9849Z"/><path class="uuid-49e49b49-f944-4490-9879-9ec86724f7bd" d="M25.0363,2.396l10.5111,20.0697c.4144.7913.4144,1.7601,0,2.5514l-10.5111,20.0685c-.4576.8737-1.6203.8736-2.0778-.0002l-10.5061-20.0688c-.4141-.791-.4141-1.7594,0-2.5504L22.9585,2.3962c.4574-.8738,1.6202-.874,2.0778-.0002Z"/><path class="uuid-50a0be81-6d14-48ae-a5ab-803de8ada093" d="M21.7075,22.0034c-.2773.5293-.4238,1.1309-.4238,1.7383,0,.6064.1465,1.208.4238,1.7373l6.7971,12.9845,7.0427-13.4465c.4144-.7913.4145-1.7601,0-2.5514l-7.0428-13.4473-6.7971,12.9851Z"/><path class="uuid-50a0be81-6d14-48ae-a5ab-803de8ada093" d="M22.1509,22.2349c-.2402.459-.3672.9795-.3672,1.5068,0,.5264.127,1.0469.3672,1.5059l6.6359,12.6772,6.7605-12.9077c.4144-.7913.4145-1.7601,0-2.5514l-6.7604-12.9083-6.636,12.6775Z"/><path class="uuid-de48b926-aa97-4120-adaf-53dee506f9f4" d="M35.1781,2.396l10.5111,20.0697c.4144.7913.4144,1.7601,0,2.5514l-10.5111,20.0685c-.4576.8737-1.6203.8736-2.0778-.0002l-10.5061-20.0688c-.4141-.791-.4141-1.7594,0-2.5504L33.1003,2.3962c.4574-.8738,1.6202-.874,2.0778-.0002Z"/></svg>