<?xml version="1.0" encoding="UTF-8"?><svg id="uuid-f6dc2bd9-aba5-49a2-92ed-4211deed5efd" xmlns="http://www.w3.org/2000/svg" width="48" height="48" xmlns:xlink="http://www.w3.org/1999/xlink" viewBox="0 0 48 48"><defs><style>.uuid-0ecb80f0-e86d-419d-aa43-a0c2912ed364{fill:url(#uuid-0a3db100-8aa6-4cb3-856a-edf4ce5638f3);}.uuid-0ecb80f0-e86d-419d-aa43-a0c2912ed364,.uuid-31654136-8acc-4033-8514-648729c70085,.uuid-bd99d2c4-0976-4f7e-bf86-d381fb0db667,.uuid-e66514d7-808f-4009-8b27-d0f9adcc6f8a,.uuid-32ecd5a3-6596-4658-83a8-33ae846b1df7,.uuid-5336cf06-d54f-4363-9075-736dc62e3d2b,.uuid-cc2fb116-e638-454c-aeb9-823da721b5c9,.uuid-74e4b138-cb41-44bf-85f5-38206004e056,.uuid-c6eef9c4-991e-4ddb-8a00-d038b67d59e2{stroke-width:0px;}.uuid-31654136-8acc-4033-8514-648729c70085{fill:url(#uuid-9898cb60-b62a-46cc-b9e4-18eb0471eee5);}.uuid-bd99d2c4-0976-4f7e-bf86-d381fb0db667{fill:url(#uuid-3d70d09a-73dd-4eff-97a7-9271427dcb5c);}.uuid-e66514d7-808f-4009-8b27-d0f9adcc6f8a{opacity:.05;}.uuid-32ecd5a3-6596-4658-83a8-33ae846b1df7{opacity:.15;}.uuid-32ecd5a3-6596-4658-83a8-33ae846b1df7,.uuid-cc2fb116-e638-454c-aeb9-823da721b5c9{fill:#fff;}.uuid-5336cf06-d54f-4363-9075-736dc62e3d2b{fill:url(#uuid-28d36b1a-f329-45cd-a06f-3ebb2fd4b54e);opacity:.75;}.uuid-cc2fb116-e638-454c-aeb9-823da721b5c9{opacity:.1;}.uuid-74e4b138-cb41-44bf-85f5-38206004e056{fill:url(#uuid-7f495211-d87d-4b0a-be34-524551b72f45);}.uuid-c6eef9c4-991e-4ddb-8a00-d038b67d59e2{opacity:.07;}</style><linearGradient id="uuid-9898cb60-b62a-46cc-b9e4-18eb0471eee5" x1="17.5253" y1="13.6935" x2="30.557" y2="34.5486" gradientUnits="userSpaceOnUse"><stop offset="0" stop-color="#fff"/><stop offset=".242" stop-color="#f2f2f2"/><stop offset="1" stop-color="#ccc"/></linearGradient><linearGradient id="uuid-0a3db100-8aa6-4cb3-856a-edf4ce5638f3" x1="13.9834" y1="386.242" x2="34.3352" y2="353.1291" gradientTransform="translate(0 394) scale(1 -1)" gradientUnits="userSpaceOnUse"><stop offset="0" stop-color="#ff9c0d"/><stop offset="1" stop-color="#f36e22"/></linearGradient><linearGradient id="uuid-7f495211-d87d-4b0a-be34-524551b72f45" x1="13.7066" y1="380.2934" x2="31.7621" y2="362.2379" gradientTransform="translate(0 394) scale(1 -1)" gradientUnits="userSpaceOnUse"><stop offset="0" stop-color="#fed100"/><stop offset="1" stop-color="#f36e22"/></linearGradient><linearGradient id="uuid-28d36b1a-f329-45cd-a06f-3ebb2fd4b54e" x1="12.1363" y1="7.9746" x2="33.335" y2="41.8996" xlink:href="#uuid-9898cb60-b62a-46cc-b9e4-18eb0471eee5"/><linearGradient id="uuid-3d70d09a-73dd-4eff-97a7-9271427dcb5c" x1="17.1557" y1="16.0072" x2="33.335" y2="41.8996" xlink:href="#uuid-9898cb60-b62a-46cc-b9e4-18eb0471eee5"/></defs><path class="uuid-31654136-8acc-4033-8514-648729c70085" d="M24.0406,16.777c-11.05,0-20,3.29-20,7.34v.05c.07,4.04,9,7.3,20,7.3s19.93-3.26,20-7.3v-.05c0-4.05-8.95-7.34-20-7.34Z"/><path class="uuid-0ecb80f0-e86d-419d-aa43-a0c2912ed364" d="M44.041,24.122c0,11.045-8.955,20-20,20S4.041,35.167,4.041,24.122,12.996,4.122,24.041,4.122s20,8.955,20,20Z"/><circle class="uuid-cc2fb116-e638-454c-aeb9-823da721b5c9" cx="24.0001" cy="24" r="12"/><circle class="uuid-32ecd5a3-6596-4658-83a8-33ae846b1df7" cx="24.0001" cy="24" r="11.5"/><path class="uuid-74e4b138-cb41-44bf-85f5-38206004e056" d="M24,13c-6.0752,0-11,4.9248-11,11s4.9248,11,11,11,11-4.9248,11-11-4.9248-11-11-11Z"/><path class="uuid-e66514d7-808f-4009-8b27-d0f9adcc6f8a" d="M13,24c0,3.1103,1.2961,5.9133,3.3712,7.914.215.0319.4229.0677.6421.0972.021.0029.1099.0088.1313.0088.2632,0,.521-.1069.707-.293.2197-.2192.3257-.5342.2842-.8408-.293-2.1694-.4414-4.4463-.4414-6.7661,0-3.6541.3647-6.9421.9539-9.7266-3.3679,1.8804-5.6483,5.4752-5.6483,9.6065Z"/><path class="uuid-c6eef9c4-991e-4ddb-8a00-d038b67d59e2" d="M13,24c0,2.8167,1.0676,5.3776,2.8086,7.3235.4163.0681.8366.1339,1.2692.1921.0225.0029.0449.0044.0669.0044.1318,0,.2593-.0522.3535-.1465.1104-.1104.1631-.2656.1421-.4204-.2959-2.1924-.4458-4.4912-.4458-6.833,0-3.3692.325-6.573.8839-9.3804-3.0509,1.9551-5.0784,5.3675-5.0784,9.2603Z"/><path class="uuid-5336cf06-d54f-4363-9075-736dc62e3d2b" d="M24.0445,31.47c-2.4286,0-4.7466-.1667-6.9009-.4577-.2892-2.148-.4491-4.4651-.4491-6.8923,0-10.97,3.24-19.89,7.27-20-11.01.04-19.92,8.99-19.92,20v.08c.04,11.01,8.98,19.92,20,19.92,11.0099,0,19.96-8.91,20-19.92-.11,4.03-9.03,7.27-20,7.27Z"/><path class="uuid-bd99d2c4-0976-4f7e-bf86-d381fb0db667" d="M44.0445,24.2c-.04,11.01-8.9901,19.92-20,19.92-11.02,0-19.96-8.91-20-19.92.11,4.03,9.03,7.27,20,7.27s19.89-3.24,20-7.27Z"/></svg>