<?xml version="1.0" encoding="UTF-8"?><svg id="uuid-e957d4ef-0a46-45b1-932c-6c3ee0b6d260" xmlns="http://www.w3.org/2000/svg" width="48" height="48" xmlns:xlink="http://www.w3.org/1999/xlink" viewBox="0 0 48 48"><defs><style>.uuid-dad03dc8-0d9f-4858-92bf-f58f606c3311{fill:url(#uuid-67599604-56ad-41fc-ad3e-7d5abf858359);}.uuid-dad03dc8-0d9f-4858-92bf-f58f606c3311,.uuid-ea716929-7f96-4948-b4ba-fd16bb05415d,.uuid-d64243ac-246e-480b-9b36-77a5d8b3d52e,.uuid-e10970b3-5a70-43e2-8cc6-889e246aae59,.uuid-6b398c1a-f04c-4a2a-a7e7-e9027330ff74{stroke-width:0px;}.uuid-ea716929-7f96-4948-b4ba-fd16bb05415d{opacity:.05;}.uuid-d64243ac-246e-480b-9b36-77a5d8b3d52e{fill:url(#uuid-fcd0d959-149e-4c1e-bd5d-5cb61b5e4d64);}.uuid-e10970b3-5a70-43e2-8cc6-889e246aae59{opacity:.07;}.uuid-6b398c1a-f04c-4a2a-a7e7-e9027330ff74{fill:url(#uuid-e73ae258-88f8-4da8-9fac-dc849133469f);}</style><linearGradient id="uuid-e73ae258-88f8-4da8-9fac-dc849133469f" x1="21.4772" y1="497.3494" x2="27.6765" y2="507.4358" gradientTransform="translate(0 -464)" gradientUnits="userSpaceOnUse"><stop offset="0" stop-color="#64717c"/><stop offset="1" stop-color="#30363d"/></linearGradient><linearGradient id="uuid-fcd0d959-149e-4c1e-bd5d-5cb61b5e4d64" x1="16.1881" y1="6.5722" x2="33.0498" y2="33.5566" gradientUnits="userSpaceOnUse"><stop offset="0" stop-color="#fff"/><stop offset=".242" stop-color="#f2f2f2"/><stop offset="1" stop-color="#ccc"/></linearGradient><linearGradient id="uuid-67599604-56ad-41fc-ad3e-7d5abf858359" x1="143.8622" y1="808.653" x2="152.5726" y2="822.8251" gradientTransform="translate(-446.8514 692.8287) rotate(-135)" xlink:href="#uuid-e73ae258-88f8-4da8-9fac-dc849133469f"/></defs><path class="uuid-6b398c1a-f04c-4a2a-a7e7-e9027330ff74" d="M30.2731,35.2917h-12.5463v2.5093c0,3.513,2.7602,6.2731,6.2731,6.2731s6.2731-2.7602,6.2731-6.2731v-2.5093Z"/><path class="uuid-d64243ac-246e-480b-9b36-77a5d8b3d52e" d="M36.5463,16.4722c0-6.9005-5.6458-12.5463-12.5463-12.5463s-12.5463,5.6458-12.5463,12.5463c0,6.2731,6.2731,11.2917,6.2731,17.5648v1.2546h12.5463v-1.2546c0-6.2731,6.2731-11.2917,6.2731-17.5648Z"/><path class="uuid-6b398c1a-f04c-4a2a-a7e7-e9027330ff74" d="M30.2731,35.2917h-12.5463v2.5093c0,3.513,2.7602,6.2731,6.2731,6.2731s6.2731-2.7602,6.2731-6.2731v-2.5093Z"/><path class="uuid-6b398c1a-f04c-4a2a-a7e7-e9027330ff74" d="M30.2731,35.2917h-12.5463v2.5093c0,3.513,2.7602,6.2731,6.2731,6.2731s6.2731-2.7602,6.2731-6.2731v-2.5093Z"/><path class="uuid-ea716929-7f96-4948-b4ba-fd16bb05415d" d="M24,3.9259c-6.9005,0-12.5463,5.6458-12.5463,12.5463,0,.4916.0499.9732.121,1.4506h24.8507c.071-.4774.121-.959.121-1.4506,0-6.9005-5.6459-12.5463-12.5463-12.5463Z"/><path class="uuid-e10970b3-5a70-43e2-8cc6-889e246aae59" d="M24,3.9259c-6.9005,0-12.5463,5.6458-12.5463,12.5463,0,.3207.0265.6361.0576.9506h24.9774c.0311-.3145.0576-.6299.0576-.9506,0-6.9005-5.6459-12.5463-12.5463-12.5463Z"/><path class="uuid-dad03dc8-0d9f-4858-92bf-f58f606c3311" d="M15.0926,7.3157c4.9234-5.3098,12.8915-5.3099,17.8149,0,2.4617,2.6549,3.6925,6.1308,3.6925,9.6067H11.4c0-3.4759,1.2309-6.9517,3.6926-9.6067Z"/></svg>