<?xml version="1.0" encoding="UTF-8"?><svg id="uuid-0ac14642-7f69-47bf-82ea-fa9620b329ac" xmlns="http://www.w3.org/2000/svg" width="48" height="48" xmlns:xlink="http://www.w3.org/1999/xlink" viewBox="0 0 48 48"><defs><style>.uuid-ab9c5fca-a800-49d5-a513-096cd1584f85{fill:url(#uuid-a344f309-10d5-493f-a945-dfdadf906813);}.uuid-ab9c5fca-a800-49d5-a513-096cd1584f85,.uuid-5a1c12e5-5382-498e-a627-17efa6260496,.uuid-44fcab02-d956-4a77-a11d-7ceb83b3b85b,.uuid-da7bc30f-2750-4e51-9fdf-290617e92d20,.uuid-64e5a708-3b40-4b1a-a377-735bcd996fa2,.uuid-30819fc2-9a91-4380-ae49-7b4abe30ff5e{stroke-width:0px;}.uuid-5a1c12e5-5382-498e-a627-17efa6260496{opacity:.05;}.uuid-44fcab02-d956-4a77-a11d-7ceb83b3b85b{fill:url(#uuid-c831c5c3-135a-4143-ba87-298232fcc6fc);}.uuid-da7bc30f-2750-4e51-9fdf-290617e92d20{fill:url(#uuid-ff7cba5d-c9fb-4a6b-9fc3-5b79799b0b8d);}.uuid-64e5a708-3b40-4b1a-a377-735bcd996fa2{opacity:.07;}.uuid-30819fc2-9a91-4380-ae49-7b4abe30ff5e{fill:url(#uuid-8a04aae1-85b8-4d37-9133-814418a7b211);opacity:.75;}</style><linearGradient id="uuid-a344f309-10d5-493f-a945-dfdadf906813" x1="28.9355" y1="497.3494" x2="35.1348" y2="507.4358" gradientTransform="translate(0 -464)" gradientUnits="userSpaceOnUse"><stop offset="0" stop-color="#64717c"/><stop offset="1" stop-color="#30363d"/></linearGradient><linearGradient id="uuid-c831c5c3-135a-4143-ba87-298232fcc6fc" x1="23.6464" y1="6.5722" x2="40.5082" y2="33.5566" gradientUnits="userSpaceOnUse"><stop offset="0" stop-color="#fed100"/><stop offset="1" stop-color="#f36e22"/></linearGradient><linearGradient id="uuid-ff7cba5d-c9fb-4a6b-9fc3-5b79799b0b8d" x1="14.0189" y1="497.3494" x2="20.2181" y2="507.4358" xlink:href="#uuid-a344f309-10d5-493f-a945-dfdadf906813"/><linearGradient id="uuid-8a04aae1-85b8-4d37-9133-814418a7b211" x1="8.7297" y1="6.5722" x2="25.5915" y2="33.5566" gradientUnits="userSpaceOnUse"><stop offset="0" stop-color="#fff"/><stop offset=".242" stop-color="#f2f2f2"/><stop offset="1" stop-color="#ccc"/></linearGradient></defs><path class="uuid-ab9c5fca-a800-49d5-a513-096cd1584f85" d="M37.7315,35.2917h-12.5463v2.5093c0,3.513,2.7602,6.2731,6.2731,6.2731s6.2731-2.7602,6.2731-6.2731v-2.5093Z"/><path class="uuid-44fcab02-d956-4a77-a11d-7ceb83b3b85b" d="M44.0046,16.4722c0-6.9005-5.6458-12.5463-12.5463-12.5463s-12.5463,5.6458-12.5463,12.5463c0,6.2731,6.2731,11.2917,6.2731,17.5648v1.2546h12.5463v-1.2546c0-6.2731,6.2731-11.2917,6.2731-17.5648Z"/><path class="uuid-da7bc30f-2750-4e51-9fdf-290617e92d20" d="M22.8148,35.2917h-12.5463v2.5093c0,3.513,2.7602,6.2731,6.2731,6.2731s6.2731-2.7602,6.2731-6.2731v-2.5093Z"/><path class="uuid-5a1c12e5-5382-498e-a627-17efa6260496" d="M26.8266,25.7388c1.603-2.8867,3.2612-5.8716,3.2612-9.2666,0-4.3242-2.0439-8.1721-5.2081-10.654-3.5702,2.2181-5.9677,6.1647-5.9677,10.6541,0,5.0234,4.0162,9.2436,5.619,13.9465.5718-1.5579,1.4145-3.0937,2.2956-4.6799Z"/><path class="uuid-64e5a708-3b40-4b1a-a377-735bcd996fa2" d="M26.3887,25.4976c1.5728-2.8315,3.1992-5.7593,3.1992-9.0254,0-4.2308-2.0333-7.9863-5.1642-10.3716-3.3199,2.2634-5.5117,6.0734-5.5117,10.3717,0,4.7637,3.6123,8.8049,5.3532,13.2203.5703-1.3985,1.3358-2.7772,2.1234-4.195Z"/><path class="uuid-30819fc2-9a91-4380-ae49-7b4abe30ff5e" d="M29.088,16.4722c0-6.9005-5.6458-12.5463-12.5463-12.5463S3.9954,9.5718,3.9954,16.4722c0,6.2731,6.2731,11.2917,6.2731,17.5648v1.2546h12.5463v-1.2546c0-6.2731,6.2731-11.2917,6.2731-17.5648Z"/></svg>