<?xml version="1.0" encoding="UTF-8"?><svg xmlns="http://www.w3.org/2000/svg" width="48" height="48" xmlns:xlink="http://www.w3.org/1999/xlink" viewBox="0 0 48 48"><defs><style>.uuid-7cb309d5-e22a-41f6-8fc2-7fab64804e47{isolation:isolate;}.uuid-c923a7bc-4c7c-4e8d-b220-ba2340c9e39a{opacity:.05;}.uuid-c923a7bc-4c7c-4e8d-b220-ba2340c9e39a,.uuid-f0ded5b5-dc70-4ce5-83ec-f15f6b0ea380,.uuid-987f4712-6c70-4285-a1de-3c2a467a43ea,.uuid-862cc574-cd9c-4736-bb9a-e911d899e437,.uuid-af5814e8-e7df-45ea-b365-24ba58b9105f,.uuid-798d356e-8fb6-49a6-9125-7eec693813b8,.uuid-179d6246-d6c5-466d-b99c-6afb5b7b5183{stroke-width:0px;}.uuid-f0ded5b5-dc70-4ce5-83ec-f15f6b0ea380{fill:url(#uuid-c08c5101-5f33-47ba-bca8-94a90fdacbb0);}.uuid-987f4712-6c70-4285-a1de-3c2a467a43ea{fill:url(#uuid-7c736957-197e-4fb9-83f5-ccfeb71a1a93);}.uuid-862cc574-cd9c-4736-bb9a-e911d899e437{fill:url(#uuid-b2a02a3b-d72d-451e-9062-33f1c95182bc);}.uuid-af5814e8-e7df-45ea-b365-24ba58b9105f{fill:url(#uuid-b47b8605-1319-46d0-ad76-6270e17c193c);mix-blend-mode:lighten;}.uuid-798d356e-8fb6-49a6-9125-7eec693813b8{fill:url(#uuid-3b79dc5e-e7f4-4122-be27-8bb970e7fb49);}.uuid-179d6246-d6c5-466d-b99c-6afb5b7b5183{opacity:.07;}</style><linearGradient id="uuid-3b79dc5e-e7f4-4122-be27-8bb970e7fb49" x1="13.2164" y1="8.959" x2="37.0131" y2="47.0417" gradientUnits="userSpaceOnUse"><stop offset="0" stop-color="#fed100"/><stop offset="1" stop-color="#f36e22"/></linearGradient><linearGradient id="uuid-b47b8605-1319-46d0-ad76-6270e17c193c" x1="29.1508" y1="34.7167" x2="52.7418" y2="72.4701" xlink:href="#uuid-3b79dc5e-e7f4-4122-be27-8bb970e7fb49"/><linearGradient id="uuid-b2a02a3b-d72d-451e-9062-33f1c95182bc" x1="6.6718" y1="6.3455" x2="10.428" y2="12.3567" gradientUnits="userSpaceOnUse"><stop offset="0" stop-color="#64717c"/><stop offset="1" stop-color="#30363d"/></linearGradient><radialGradient id="uuid-7c736957-197e-4fb9-83f5-ccfeb71a1a93" cx="2.5256" cy="6.1239" fx="2.5256" fy="6.1239" r="7.272" gradientUnits="userSpaceOnUse"><stop offset="0" stop-color="#fafafb"/><stop offset=".293" stop-color="#f6f7f8"/><stop offset=".566" stop-color="#ebecee"/><stop offset=".832" stop-color="#d8dcdf"/><stop offset="1" stop-color="#c8cdd1"/></radialGradient><linearGradient id="uuid-c08c5101-5f33-47ba-bca8-94a90fdacbb0" x1="7.0447" y1="7.2766" x2="10.2307" y2="12.3753" gradientTransform="translate(9.4779 -3.2298) rotate(45)" xlink:href="#uuid-b2a02a3b-d72d-451e-9062-33f1c95182bc"/></defs><g class="uuid-7cb309d5-e22a-41f6-8fc2-7fab64804e47"><g id="uuid-46b5c8ac-cfd4-471d-8461-f33816f08788"><path class="uuid-798d356e-8fb6-49a6-9125-7eec693813b8" d="M32.9999,44.7185c-7.7318,0-12.0778-2.0795-12.9553-4.14L8.772,12.8678l2.7355-2.8409,33.7893,29.7026c.4015.3718.6111.739.6111,1.0812,0,1.5228-5.3017,3.9079-12.908,3.9079Z"/><path class="uuid-af5814e8-e7df-45ea-b365-24ba58b9105f" d="M33.0225,37.0317c-8.4552,0-12.8854,2.8554-12.8854,3.8431,0,1.299,4.4303,3.8431,12.8854,3.8431s12.8854-2.5441,12.8854-3.8431c0-.9877-4.4303-3.8431-12.8854-3.8431Z"/><path class="uuid-862cc574-cd9c-4736-bb9a-e911d899e437" d="M14.5261,5.0578h-5.5069c-.2652,0-.5196.1054-.7071.2929l-4.1511,4.1511c-.1875.1875-.2929.4419-.2929.7071v5.5069h1.1842v-4.3227c0-.2652.1054-.5196.2929-.7071l4.1511-4.1511c.1875-.1875.4419-.2929.7071-.2929h4.3227v-1.1842Z"/><path class="uuid-987f4712-6c70-4285-a1de-3c2a467a43ea" d="M2.7929,8.4104c-.9379-.9379-.9379-2.4667,0-3.4046l1.022-1.022c.4524-.4536,1.0575-.7022,1.7041-.7022s1.2505.2487,1.7029.7011l5.0732,5.0744-4.4278,4.4278-5.0744-5.0744Z"/><rect class="uuid-c923a7bc-4c7c-4e8d-b220-ba2340c9e39a" x="5.0393" y="6.6575" width="6.2622" height="5.4048" transform="translate(-4.2254 8.5188) rotate(-45)"/><rect class="uuid-179d6246-d6c5-466d-b99c-6afb5b7b5183" x="5.2161" y="7.0842" width="6.2621" height="4.9048" transform="translate(-4.2986 8.6955) rotate(-45)"/><rect class="uuid-f0ded5b5-dc70-4ce5-83ec-f15f6b0ea380" x="5.5072" y="7.4634" width="6.2609" height="4.725" transform="translate(-4.4181 8.9857) rotate(-45)"/></g></g></svg>