<?xml version="1.0" encoding="UTF-8"?><svg id="uuid-7ed94712-2834-42b0-aa54-5a6790860673" xmlns="http://www.w3.org/2000/svg" width="48" height="48" xmlns:xlink="http://www.w3.org/1999/xlink" viewBox="0 0 48 48"><defs><style>.uuid-57447880-9c1e-4ff9-be58-e0ab1a54a55d{opacity:.05;}.uuid-57447880-9c1e-4ff9-be58-e0ab1a54a55d,.uuid-eb21e627-6b8c-49d5-bae1-0804a279c740,.uuid-2117913b-c174-484d-af00-22f44d64a8fc,.uuid-81460e8a-0c07-4cf3-b9bc-0d29b9f27ec5,.uuid-0547f99d-d479-4e5f-a211-f65e80cade38,.uuid-f6590d38-390b-4df5-97eb-631f32688716{stroke-width:0px;}.uuid-eb21e627-6b8c-49d5-bae1-0804a279c740{fill:url(#uuid-99b5112b-c324-4ca2-9064-26800e1f6ea1);}.uuid-2117913b-c174-484d-af00-22f44d64a8fc{fill:url(#uuid-f143876b-7182-4ee8-bb92-70578e60a9e7);}.uuid-81460e8a-0c07-4cf3-b9bc-0d29b9f27ec5{fill:url(#uuid-e40a8209-8312-4fa2-a9be-ca5ba045865e);}.uuid-0547f99d-d479-4e5f-a211-f65e80cade38{fill:url(#uuid-5bb1ffad-f5de-477e-bd39-d125b362cd0b);}.uuid-f6590d38-390b-4df5-97eb-631f32688716{opacity:.07;}</style><linearGradient id="uuid-5bb1ffad-f5de-477e-bd39-d125b362cd0b" x1="31.6746" y1="43.454" x2="15.8106" y2="5.9349" gradientUnits="userSpaceOnUse"><stop offset="0" stop-color="#fff"/><stop offset=".242" stop-color="#f2f2f2"/><stop offset="1" stop-color="#ccc"/></linearGradient><radialGradient id="uuid-99b5112b-c324-4ca2-9064-26800e1f6ea1" cx="17.0699" cy="-225.0027" fx="17.0699" fy="-225.0027" r="24.5956" gradientTransform="translate(0 -206) scale(1 -1)" gradientUnits="userSpaceOnUse"><stop offset="0" stop-color="#fafafb"/><stop offset=".293" stop-color="#f6f7f8"/><stop offset=".566" stop-color="#ebecee"/><stop offset=".832" stop-color="#d8dcdf"/><stop offset="1" stop-color="#c8cdd1"/></radialGradient><linearGradient id="uuid-f143876b-7182-4ee8-bb92-70578e60a9e7" x1="15.9539" y1="41.5159" x2="32.2354" y2="15.0257" gradientUnits="userSpaceOnUse"><stop offset="0" stop-color="#ff9c0d"/><stop offset="1" stop-color="#f36e22"/></linearGradient><linearGradient id="uuid-e40a8209-8312-4fa2-a9be-ca5ba045865e" x1="21.9975" y1="25.7045" x2="26.7329" y2="33.409" gradientUnits="userSpaceOnUse"><stop offset="0" stop-color="#64717c"/><stop offset="1" stop-color="#30363d"/></linearGradient></defs><path class="uuid-0547f99d-d479-4e5f-a211-f65e80cade38" d="M36.8519,18.9237v-4.8497c0-7.0685-5.7833-12.8518-12.8519-12.8518s-12.8519,5.7833-12.8519,12.8518v4.8497c-1.9692,2.659-3.1481,5.9385-3.1481,9.501,0,8.836,7.164,16,16,16s16-7.164,16-16c0-3.5626-1.1789-6.842-3.1481-9.501ZM14.4999,15.5721h0v-1.2277c0-5.225,4.275-9.5,9.5-9.5s9.5,4.275,9.5,9.5v1.2277h0c-2.6588-1.9687-5.9379-3.1473-9.5001-3.1473s-6.8412,1.1786-9.5001,3.1474Z"/><circle class="uuid-eb21e627-6b8c-49d5-bae1-0804a279c740" cx="24" cy="28.4247" r="12.5"/><path class="uuid-57447880-9c1e-4ff9-be58-e0ab1a54a55d" d="M36.8519,18.9237v-1.5938c-.9831-1.1372-2.1038-2.1526-3.3525-2.9971,0,.0039.0006.0077.0006.0116v1.2277h0c-2.6588-1.9687-5.9379-3.1473-9.5001-3.1473s-6.8412,1.1786-9.5001,3.1474h0v-1.2277c0-.0039.0006-.0077.0006-.0116-1.2487.8445-2.3694,1.8599-3.3525,2.9971v1.5938c-1.9692,2.659-3.1481,5.9385-3.1481,9.501,0,8.836,7.164,16,16,16s16-7.164,16-16c0-3.5626-1.1789-6.842-3.1481-9.501ZM24,39.4248c-6.0654,0-11-4.9346-11-11s4.9346-11,11-11,11,4.9346,11,11-4.9346,11-11,11Z"/><path class="uuid-f6590d38-390b-4df5-97eb-631f32688716" d="M36.8519,18.9237v-.8218c-.9645-1.1984-2.0942-2.2548-3.3519-3.1447v.6149h0c-2.6588-1.9687-5.9379-3.1473-9.5001-3.1473s-6.8412,1.1786-9.5001,3.1474h0v-.6149c-1.2577.8899-2.3873,1.9463-3.3519,3.1447v.8218c-1.9692,2.659-3.1481,5.9385-3.1481,9.501,0,8.836,7.164,16,16,16s16-7.164,16-16c0-3.5626-1.1789-6.842-3.1481-9.501ZM24,39.9248c-6.3408,0-11.5-5.1592-11.5-11.5s5.1592-11.5,11.5-11.5,11.5,5.1592,11.5,11.5-5.1592,11.5-11.5,11.5Z"/><path class="uuid-2117913b-c174-484d-af00-22f44d64a8fc" d="M24,12.4247c-8.836,0-16,7.164-16,16s7.164,16,16,16,16-7.164,16-16-7.164-16-16-16ZM24,40.4247c-6.627,0-12-5.373-12-12s5.373-12,12-12,12,5.373,12,12-5.373,12-12,12Z"/><path class="uuid-81460e8a-0c07-4cf3-b9bc-0d29b9f27ec5" d="M27.1111,27.9088c0-1.7181-1.3929-3.1111-3.1111-3.1111s-3.1111,1.393-3.1111,3.1111c0,1.3458.8595,2.4811,2.0555,2.9149v3.1208c0,.5805.475,1.0555,1.0555,1.0555s1.0555-.475,1.0555-1.0555v-3.1208c1.196-.4337,2.0555-1.5691,2.0555-2.9149Z"/></svg>