<?xml version="1.0" encoding="UTF-8"?><svg id="uuid-a7994ab6-9cbb-48ac-8bd2-fda922647acf" xmlns="http://www.w3.org/2000/svg" width="48" height="48" xmlns:xlink="http://www.w3.org/1999/xlink" viewBox="0 0 48 48"><defs><style>.uuid-38dda35f-b40d-4b28-83d0-679f7dfcd3b2{fill:url(#uuid-36c5b5cc-ab51-4797-baa6-a3ecd37ff598);}.uuid-38dda35f-b40d-4b28-83d0-679f7dfcd3b2,.uuid-fec91218-efde-4437-a268-b110564a9a37,.uuid-e976bc7d-25d7-4383-83cb-5e070790a941,.uuid-1f4dceb9-2a10-48d0-900d-efb6473d88ca,.uuid-8e9adcbc-784c-4985-9100-6848673e1ed5,.uuid-b0dda16d-9cea-4e69-8a60-8e471917d7dc,.uuid-2ebdeab1-023f-4303-b890-905b1b1d6021,.uuid-17905e27-0bf7-417f-b245-cc8975448355,.uuid-b32b872c-0204-4997-9be5-f6fd88b126c0,.uuid-f7d649b5-e129-4216-b342-9578054804bf{stroke-width:0px;}.uuid-fec91218-efde-4437-a268-b110564a9a37{opacity:.05;}.uuid-e976bc7d-25d7-4383-83cb-5e070790a941{fill:url(#uuid-7a414bdd-9b3a-40a0-815b-22c6d917c3ab);}.uuid-1f4dceb9-2a10-48d0-900d-efb6473d88ca{opacity:.07;}.uuid-1f4dceb9-2a10-48d0-900d-efb6473d88ca,.uuid-17905e27-0bf7-417f-b245-cc8975448355{isolation:isolate;}.uuid-8e9adcbc-784c-4985-9100-6848673e1ed5{fill:url(#uuid-10fd1cc0-2101-428b-ab0b-3944f8044ce6);}.uuid-b0dda16d-9cea-4e69-8a60-8e471917d7dc{fill:none;}.uuid-2ebdeab1-023f-4303-b890-905b1b1d6021{fill:url(#uuid-e8225ed9-e942-4821-8fb5-66080e127446);}.uuid-17905e27-0bf7-417f-b245-cc8975448355{opacity:.05;}.uuid-b32b872c-0204-4997-9be5-f6fd88b126c0{fill:url(#uuid-2e01ab17-9290-4a91-9cb2-e3a4a261146d);}.uuid-f7d649b5-e129-4216-b342-9578054804bf{fill:url(#uuid-60931143-41ca-470d-8fee-d954c3df0262);}</style><linearGradient id="uuid-2e01ab17-9290-4a91-9cb2-e3a4a261146d" x1="11.9458" y1="-110.3876" x2="37.6608" y2="-152.2264" gradientTransform="translate(0 -106) scale(1 -1)" gradientUnits="userSpaceOnUse"><stop offset="0" stop-color="#64717c"/><stop offset="1" stop-color="#30363d"/></linearGradient><linearGradient id="uuid-7a414bdd-9b3a-40a0-815b-22c6d917c3ab" x1="8.9413" y1="-103.3296" x2="40.804" y2="-159.7616" gradientTransform="translate(0 -106) scale(1 -1)" gradientUnits="userSpaceOnUse"><stop offset="0" stop-color="#eceff1"/><stop offset="1" stop-color="#cfd8dc"/></linearGradient><linearGradient id="uuid-e8225ed9-e942-4821-8fb5-66080e127446" x1="11.4935" y1="18.3867" x2="18.5086" y2="29.6133" gradientUnits="userSpaceOnUse"><stop offset="0" stop-color="#32bdef"/><stop offset="1" stop-color="#1ea2e4"/></linearGradient><radialGradient id="uuid-36c5b5cc-ab51-4797-baa6-a3ecd37ff598" cx="41.1341" cy="-115.3127" fx="41.1341" fy="-115.3127" r="8.869" gradientTransform="translate(-24.083 -82.334) scale(.8957 -.8957)" gradientUnits="userSpaceOnUse"><stop offset="0" stop-color="#fafafb"/><stop offset=".293" stop-color="#f6f7f8"/><stop offset=".566" stop-color="#ebecee"/><stop offset=".832" stop-color="#d8dcdf"/><stop offset="1" stop-color="#c8cdd1"/></radialGradient><linearGradient id="uuid-10fd1cc0-2101-428b-ab0b-3944f8044ce6" x1="29.4914" y1="29.6133" x2="36.5065" y2="18.3867" gradientUnits="userSpaceOnUse"><stop offset="0" stop-color="#f36e22"/><stop offset="1" stop-color="#ff9c0d"/></linearGradient><linearGradient id="uuid-60931143-41ca-470d-8fee-d954c3df0262" x1="30.8591" y1="20.5756" x2="35.1388" y2="27.4244" gradientTransform="matrix(1,0,0,1,0,0)" xlink:href="#uuid-2e01ab17-9290-4a91-9cb2-e3a4a261146d"/></defs><path class="uuid-b32b872c-0204-4997-9be5-f6fd88b126c0" d="M43,40.5H5c-1.105,0-2-.895-2-2V9.5c0-1.105.895-2,2-2h38c1.105,0,2,.895,2,2v29c0,1.105-.895,2-2,2Z"/><path class="uuid-e976bc7d-25d7-4383-83cb-5e070790a941" d="M42.0429,10.4679v27.0643H5.9571V10.4679h36.0857M43.0452,7.4607H4.9548c-1.1076,0-2.0048.8971-2.0048,2.0048v29.069c0,1.1076.8971,2.0048,2.0048,2.0048h38.0905c1.1076,0,2.0048-.8971,2.0048-2.0048V9.4655c0-1.1076-.8971-2.0048-2.0048-2.0048h0Z"/><path class="uuid-17905e27-0bf7-417f-b245-cc8975448355" d="M41,11.5v25H7V11.5h34M42,10.5H6v27h36V10.5h0Z"/><path class="uuid-1f4dceb9-2a10-48d0-900d-efb6473d88ca" d="M41.5,11v26H6.5V11h35M42,10.5H6v27h36V10.5h0Z"/><rect class="uuid-b0dda16d-9cea-4e69-8a60-8e471917d7dc" x="6" y="10.5" width="36" height="27"/><circle class="uuid-2ebdeab1-023f-4303-b890-905b1b1d6021" cx="15.0011" cy="24" r="6.6181"/><circle class="uuid-fec91218-efde-4437-a268-b110564a9a37" cx="15.0011" cy="24" r="4.4045"/><circle class="uuid-38dda35f-b40d-4b28-83d0-679f7dfcd3b2" cx="15.0011" cy="24" r="4.0375"/><circle class="uuid-8e9adcbc-784c-4985-9100-6848673e1ed5" cx="32.9989" cy="24" r="6.6181"/><circle class="uuid-fec91218-efde-4437-a268-b110564a9a37" cx="32.9989" cy="24" r="4.4045"/><circle class="uuid-f7d649b5-e129-4216-b342-9578054804bf" cx="32.9989" cy="24" r="4.0375"/></svg>