<?xml version="1.0" encoding="UTF-8"?><svg id="uuid-940f313d-b27f-4dd5-935c-f0375eeed73d" xmlns="http://www.w3.org/2000/svg" width="48" height="48" xmlns:xlink="http://www.w3.org/1999/xlink" viewBox="0 0 48 48"><defs><style>.uuid-d5982b8e-5433-4338-85e7-b5ba9ae208b4{opacity:.05;}.uuid-d5982b8e-5433-4338-85e7-b5ba9ae208b4,.uuid-01b7dc03-d527-42e7-afb2-900a8cbd4492,.uuid-b961d492-7db9-419f-9ff3-d0ee9d1fad33,.uuid-5959c198-8ce3-47b4-85a8-88b6349dc31e,.uuid-baa4fba8-6d96-4814-bf1a-662759e1bd90,.uuid-bf31abed-8ab5-4ec4-8725-0cfc848f4990,.uuid-f2c44399-e90d-4c36-a90f-3f9e76e8ea58,.uuid-c3fbbe6f-ced0-43c2-bc75-7fa1533deb26,.uuid-930e38f3-c692-4f4e-8229-ffc1c9368e1a,.uuid-92c77b30-460f-4b31-bb6d-673351ec50da,.uuid-812c3f04-35d0-4666-b186-cff689b1a0c1,.uuid-21076faf-e9d6-4d9f-a3f7-c1536f49ef3e{stroke-width:0px;}.uuid-01b7dc03-d527-42e7-afb2-900a8cbd4492,.uuid-bf31abed-8ab5-4ec4-8725-0cfc848f4990,.uuid-92c77b30-460f-4b31-bb6d-673351ec50da,.uuid-21076faf-e9d6-4d9f-a3f7-c1536f49ef3e{isolation:isolate;}.uuid-01b7dc03-d527-42e7-afb2-900a8cbd4492,.uuid-812c3f04-35d0-4666-b186-cff689b1a0c1{opacity:.07;}.uuid-b961d492-7db9-419f-9ff3-d0ee9d1fad33{fill:none;}.uuid-5959c198-8ce3-47b4-85a8-88b6349dc31e{fill:#fff;}.uuid-baa4fba8-6d96-4814-bf1a-662759e1bd90{fill:url(#uuid-8c4cec16-0f9d-423a-ba56-cfbb1b84cda4);}.uuid-bf31abed-8ab5-4ec4-8725-0cfc848f4990{opacity:.05;}.uuid-f2c44399-e90d-4c36-a90f-3f9e76e8ea58{fill:url(#uuid-11caaf95-033a-4f14-a858-1685dad531e2);}.uuid-c3fbbe6f-ced0-43c2-bc75-7fa1533deb26{fill:url(#uuid-fdadc43e-c858-42c0-bc0b-a5bdbc8d3ce9);}.uuid-930e38f3-c692-4f4e-8229-ffc1c9368e1a{fill:url(#uuid-a8f6cd48-bbca-4f73-a32e-a22c5bc82002);}.uuid-92c77b30-460f-4b31-bb6d-673351ec50da{fill:url(#uuid-c6df17d7-a5a5-4194-8dd3-4d5933bbe6a4);}.uuid-92c77b30-460f-4b31-bb6d-673351ec50da,.uuid-21076faf-e9d6-4d9f-a3f7-c1536f49ef3e{opacity:.15;}.uuid-21076faf-e9d6-4d9f-a3f7-c1536f49ef3e{fill:url(#uuid-f57b6d99-42ed-4be2-9d75-8f1139bb1a17);}</style><linearGradient id="uuid-a8f6cd48-bbca-4f73-a32e-a22c5bc82002" x1="10.3781" y1="194.6258" x2="39.2007" y2="143.578" gradientTransform="translate(0 194) scale(1 -1)" gradientUnits="userSpaceOnUse"><stop offset="0" stop-color="#eceff1"/><stop offset="1" stop-color="#cfd8dc"/></linearGradient><radialGradient id="uuid-c6df17d7-a5a5-4194-8dd3-4d5933bbe6a4" cx="7.945" cy="158.946" fx="7.945" fy="158.946" r="9.798" gradientTransform="translate(0 194) scale(1 -1)" gradientUnits="userSpaceOnUse"><stop offset="0" stop-color="#000"/><stop offset="1" stop-color="#000" stop-opacity="0"/></radialGradient><linearGradient id="uuid-11caaf95-033a-4f14-a858-1685dad531e2" x1="14.7252" y1="185.5903" x2="34.5109" y2="153.3985" gradientTransform="translate(0 194) scale(1 -1)" gradientUnits="userSpaceOnUse"><stop offset="0" stop-color="#64717c"/><stop offset="1" stop-color="#30363d"/></linearGradient><linearGradient id="uuid-fdadc43e-c858-42c0-bc0b-a5bdbc8d3ce9" x1="16.2303" y1="45.6342" x2="18.2042" y2="42.4227" gradientTransform="matrix(1,0,0,1,0,0)" xlink:href="#uuid-11caaf95-033a-4f14-a858-1685dad531e2"/><radialGradient id="uuid-f57b6d99-42ed-4be2-9d75-8f1139bb1a17" cx="37.1574" cy="151.9052" fx="37.1574" fy="151.9052" r="2.8909" gradientTransform="translate(-24 194) scale(1 -1)" xlink:href="#uuid-c6df17d7-a5a5-4194-8dd3-4d5933bbe6a4"/><linearGradient id="uuid-8c4cec16-0f9d-423a-ba56-cfbb1b84cda4" x1="27.9769" y1="165.5457" x2="36.1177" y2="152.3004" gradientTransform="translate(-24 194) scale(1 -1)" gradientUnits="userSpaceOnUse"><stop offset="0" stop-color="#ff9c0d"/><stop offset="1" stop-color="#f36e22"/></linearGradient></defs><path class="uuid-930e38f3-c692-4f4e-8229-ffc1c9368e1a" d="M42,9H6c-1.1,0-2,.9-2,2v25c0,1.1.9,2,2,2h36c1.1,0,2-.9,2-2V11c0-1.1-.9-2-2-2Z"/><path class="uuid-92c77b30-460f-4b31-bb6d-673351ec50da" d="M17.89,35c0,1.05-.16,2.05-.46,3H4v-12.21c1.2-.51,2.51-.79,3.89-.79,5.52,0,10,4.48,10,10Z"/><rect class="uuid-f2c44399-e90d-4c36-a90f-3f9e76e8ea58" x="7" y="12" width="34" height="23"/><path class="uuid-01b7dc03-d527-42e7-afb2-900a8cbd4492" d="M40.5278,12.4259v22.1481H7.4722V12.4259h33.0556M41,12H7v23h34V12h0Z"/><path class="uuid-bf31abed-8ab5-4ec4-8725-0cfc848f4990" d="M40.0548,12.8519v21.2963H7.9174V12.8519h32.1373M41,12H6.9722v23h34.0278V12h0Z"/><path class="uuid-d5982b8e-5433-4338-85e7-b5ba9ae208b4" d="M8,26c-1.4379,0-2.7932.3474-4,.9495v9.0505c0,1.1.9,2,2,2h10.475c.3338-.94.525-1.9469.525-3,0-4.9629-4.0371-9-9-9Z"/><path class="uuid-812c3f04-35d0-4666-b186-cff689b1a0c1" d="M8,26.5c-1.4456,0-2.8068.3649-4,1.0043v8.4957c0,1.1.9,2,2,2h9.9429c.3543-.9345.5571-1.9429.5571-3,0-4.6865-3.8135-8.5-8.5-8.5Z"/><path class="uuid-c3fbbe6f-ced0-43c2-bc75-7fa1533deb26" d="M15.992,41.224l-1.768,1.768,3.935,3.935c.098.098.256.098.354,0l1.414-1.414c.098-.098.098-.256,0-.354l-3.935-3.935Z"/><polygon class="uuid-5959c198-8ce3-47b4-85a8-88b6349dc31e" points="13.8 39.033 12.033 40.8 14.224 42.992 15.992 41.224 13.8 39.033"/><polygon class="uuid-21076faf-e9d6-4d9f-a3f7-c1536f49ef3e" points="13.8 39.033 12.033 40.8 14.224 42.992 15.992 41.224 13.8 39.033"/><circle class="uuid-baa4fba8-6d96-4814-bf1a-662759e1bd90" cx="8" cy="35" r="8"/><rect class="uuid-b961d492-7db9-419f-9ff3-d0ee9d1fad33" x="6.9722" y="12" width="34.0278" height="23"/></svg>