<?xml version="1.0" encoding="UTF-8"?><svg id="uuid-756c8e7f-3c89-46c3-b850-6b7caa13bfb8" xmlns="http://www.w3.org/2000/svg" width="48" height="48" xmlns:xlink="http://www.w3.org/1999/xlink" viewBox="0 0 48 48"><defs><style>.uuid-f3a921ca-feea-473c-af53-426e53f4bf29{opacity:.05;}.uuid-f3a921ca-feea-473c-af53-426e53f4bf29,.uuid-1c87ba29-54ef-4aad-ae80-492a618b4403,.uuid-e2fa6565-35f7-4efd-90cf-5642af0914a4,.uuid-f418ffa2-9dc2-47dc-98dc-8fc97921e142{stroke-width:0px;}.uuid-1c87ba29-54ef-4aad-ae80-492a618b4403{fill:url(#uuid-cc6612b6-2e5b-48f0-9b85-b4bb974e09dd);opacity:.75;}.uuid-e2fa6565-35f7-4efd-90cf-5642af0914a4{opacity:.07;}.uuid-f418ffa2-9dc2-47dc-98dc-8fc97921e142{fill:url(#uuid-3d78222c-2e2e-4536-9893-0f67500e041c);}</style><linearGradient id="uuid-3d78222c-2e2e-4536-9893-0f67500e041c" x1="24.8132" y1="11.1462" x2="40.8771" y2="36.8538" gradientUnits="userSpaceOnUse"><stop offset="0" stop-color="#ff9c0d"/><stop offset="1" stop-color="#f36e22"/></linearGradient><linearGradient id="uuid-cc6612b6-2e5b-48f0-9b85-b4bb974e09dd" x1="7.1229" y1="11.1462" x2="23.1868" y2="36.8538" gradientUnits="userSpaceOnUse"><stop offset="0" stop-color="#fff"/><stop offset=".242" stop-color="#f2f2f2"/><stop offset="1" stop-color="#ccc"/></linearGradient></defs><circle class="uuid-f418ffa2-9dc2-47dc-98dc-8fc97921e142" cx="32.8451" cy="24" r="15.1549"/><path class="uuid-f3a921ca-feea-473c-af53-426e53f4bf29" d="M17.6902,24c0,5.442,2.8779,10.2,7.1853,12.8727,3.8991-2.952,6.4341-7.616,6.4341-12.8727s-2.5349-9.9207-6.434-12.8727c-4.3074,2.6727-7.1854,7.4307-7.1854,12.8727Z"/><path class="uuid-e2fa6565-35f7-4efd-90cf-5642af0914a4" d="M17.6902,24c0,5.2495,2.6705,9.8737,6.7256,12.5934,3.8687-2.853,6.3938-7.428,6.3938-12.5934s-2.5251-9.7404-6.3938-12.5934c-4.0551,2.7197-6.7256,7.3439-6.7256,12.5934Z"/><circle class="uuid-1c87ba29-54ef-4aad-ae80-492a618b4403" cx="15.1549" cy="24" r="15.1549"/></svg>