<?xml version="1.0" encoding="UTF-8"?><svg id="uuid-64d84984-fefa-4575-a396-884389c289bb" xmlns="http://www.w3.org/2000/svg" width="48" height="48" xmlns:xlink="http://www.w3.org/1999/xlink" viewBox="0 0 48 48"><defs><style>.uuid-6f14c785-e8ab-4bee-a221-5745d9094b70{opacity:.05;}.uuid-6f14c785-e8ab-4bee-a221-5745d9094b70,.uuid-e2d8e09d-8c14-4e13-a7f2-286b26f44bcb,.uuid-bbc1b98d-f6b6-4bf8-9630-2c83343885c0,.uuid-0bf89916-6d69-4626-9482-9cd3a4c114fd{stroke-width:0px;}.uuid-e2d8e09d-8c14-4e13-a7f2-286b26f44bcb{fill:url(#uuid-93c12de9-3ef7-45e1-a64c-a0b0f39f8955);}.uuid-bbc1b98d-f6b6-4bf8-9630-2c83343885c0{opacity:.07;}.uuid-0bf89916-6d69-4626-9482-9cd3a4c114fd{fill:url(#uuid-ba23d62b-aa77-4330-b98d-8327ec0987ab);}</style><linearGradient id="uuid-93c12de9-3ef7-45e1-a64c-a0b0f39f8955" x1="24.8132" y1="11.1462" x2="40.8771" y2="36.8538" gradientUnits="userSpaceOnUse"><stop offset="0" stop-color="#fff"/><stop offset=".242" stop-color="#f2f2f2"/><stop offset="1" stop-color="#ccc"/></linearGradient><linearGradient id="uuid-ba23d62b-aa77-4330-b98d-8327ec0987ab" x1="0" y1="24" x2="30.3098" y2="24" gradientUnits="userSpaceOnUse"><stop offset="0" stop-color="#ff9c0d"/><stop offset="1" stop-color="#f36e22"/></linearGradient></defs><circle class="uuid-e2d8e09d-8c14-4e13-a7f2-286b26f44bcb" cx="32.8451" cy="24" r="15.1549"/><path class="uuid-6f14c785-e8ab-4bee-a221-5745d9094b70" d="M17.6902,24c0,5.442,2.8779,10.2,7.1853,12.8727,3.8991-2.952,6.4341-7.616,6.4341-12.8727s-2.5349-9.9207-6.434-12.8727c-4.3074,2.6727-7.1854,7.4307-7.1854,12.8727Z"/><path class="uuid-bbc1b98d-f6b6-4bf8-9630-2c83343885c0" d="M17.6902,24c0,5.2495,2.6705,9.8737,6.7256,12.5934,3.8687-2.853,6.3938-7.428,6.3938-12.5934s-2.5251-9.7404-6.3938-12.5934c-4.0551,2.7197-6.7256,7.3439-6.7256,12.5934Z"/><circle class="uuid-0bf89916-6d69-4626-9482-9cd3a4c114fd" cx="15.1549" cy="24" r="15.1549"/></svg>