<?xml version="1.0" encoding="UTF-8"?><svg id="uuid-ff59c2ff-9113-4e4e-bc40-b56c9d80b015" xmlns="http://www.w3.org/2000/svg" width="48" height="48" xmlns:xlink="http://www.w3.org/1999/xlink" viewBox="0 0 48 48"><defs><style>.uuid-6712e353-e30c-4213-836b-773ce5423487{opacity:.05;}.uuid-6712e353-e30c-4213-836b-773ce5423487,.uuid-b87d8d9c-f5d7-482d-bfee-dd3cd2c527e2,.uuid-2ff8c980-e060-4a6e-906a-f5656605d887,.uuid-f31aa4b1-2666-4526-8404-0c6c06fe4650,.uuid-2b0d68f9-9bf4-4692-8b1e-111663021fc5{stroke-width:0px;}.uuid-b87d8d9c-f5d7-482d-bfee-dd3cd2c527e2{fill:url(#uuid-1ba7d375-40df-4dfd-9d4e-d3e3ccad35d5);}.uuid-2ff8c980-e060-4a6e-906a-f5656605d887{fill:url(#uuid-97b7fa69-7c25-4edd-b13d-39a95584eab3);}.uuid-f31aa4b1-2666-4526-8404-0c6c06fe4650{fill:url(#uuid-25aaf5b3-4c44-4c44-956f-626dc9135aee);}.uuid-2b0d68f9-9bf4-4692-8b1e-111663021fc5{opacity:.07;}</style><linearGradient id="uuid-25aaf5b3-4c44-4c44-956f-626dc9135aee" x1="6.6407" y1="11.4515" x2="22.6973" y2="37.1475" gradientUnits="userSpaceOnUse"><stop offset="0" stop-color="#ff9c0d"/><stop offset="1" stop-color="#f36e22"/></linearGradient><linearGradient id="uuid-1ba7d375-40df-4dfd-9d4e-d3e3ccad35d5" x1="25.3027" y1="10.8525" x2="41.3593" y2="36.5484" xlink:href="#uuid-25aaf5b3-4c44-4c44-956f-626dc9135aee"/><linearGradient id="uuid-97b7fa69-7c25-4edd-b13d-39a95584eab3" x1="18.4769" y1="15.1612" x2="29.5231" y2="32.8388" gradientUnits="userSpaceOnUse"><stop offset="0" stop-color="#f36e22"/><stop offset="1" stop-color="#c15227"/></linearGradient></defs><path class="uuid-f31aa4b1-2666-4526-8404-0c6c06fe4650" d="M17.69,24c0-5.07,2.49-9.55,6.31-12.29-2.49-1.81-5.54-2.86-8.85-2.86C6.79,8.85,0,15.63,0,24s6.79,15.15,15.15,15.15c3.31,0,6.36-1.05,8.85-2.86-3.82-2.74-6.31-7.22-6.31-12.29Z"/><path class="uuid-b87d8d9c-f5d7-482d-bfee-dd3cd2c527e2" d="M32.85,8.85c-3.31,0-6.36,1.05-8.85,2.86,3.82,2.7401,6.31,7.22,6.31,12.29s-2.49,9.55-6.31,12.29c2.49,1.81,5.54,2.86,8.85,2.86,8.36,0,15.15-6.78,15.15-15.15s-6.79-15.15-15.15-15.15Z"/><path class="uuid-6712e353-e30c-4213-836b-773ce5423487" d="M17.69,24c0-5.07,2.49-9.55,6.31-12.29-.2845-.2068-.5782-.4008-.8768-.5873-4.0322,3.0359-6.4327,7.8178-6.4327,12.8773s2.4007,9.8417,6.4322,12.8776c.2988-.1866.5928-.3807.8774-.5876-3.82-2.74-6.31-7.22-6.31-12.29Z"/><path class="uuid-6712e353-e30c-4213-836b-773ce5423487" d="M30.31,24c0,5.07-2.49,9.55-6.31,12.29.2845.2068.5782.4008.8769.5873,4.0323-3.0359,6.4327-7.8177,6.4327-12.8773s-2.4006-9.8417-6.4323-12.8776c-.2988.1866-.5927.3807-.8773.5876,3.82,2.7401,6.31,7.22,6.31,12.29Z"/><path class="uuid-2b0d68f9-9bf4-4692-8b1e-111663021fc5" d="M17.69,24c0-5.07,2.49-9.55,6.31-12.29-.1422-.1034-.2926-.1953-.4384-.2936-3.9913,2.9357-6.3712,7.6232-6.3712,12.5837s2.3798,9.6479,6.3711,12.5836c.1459-.0984.2962-.1902.4385-.2936-3.82-2.74-6.31-7.22-6.31-12.29Z"/><path class="uuid-2b0d68f9-9bf4-4692-8b1e-111663021fc5" d="M30.31,24c0,5.07-2.49,9.55-6.31,12.29.1423.1034.2926.1953.4385.2936,3.9913-2.9357,6.3711-7.6232,6.3711-12.5836s-2.3798-9.6479-6.3712-12.5837c-.1458.0984-.2962.1902-.4384.2936,3.82,2.7401,6.31,7.22,6.31,12.29Z"/><path class="uuid-2ff8c980-e060-4a6e-906a-f5656605d887" d="M30.31,24c0,5.07-2.49,9.55-6.31,12.29-3.82-2.74-6.31-7.22-6.31-12.29s2.49-9.55,6.31-12.29c3.82,2.7401,6.31,7.22,6.31,12.29Z"/></svg>