<?xml version="1.0" encoding="UTF-8"?><svg id="uuid-61dbc58a-2f7a-40a9-91ea-d7e2235cf6fb" xmlns="http://www.w3.org/2000/svg" width="48" height="48" xmlns:xlink="http://www.w3.org/1999/xlink" viewBox="0 0 48 48"><defs><style>.uuid-c462a7a2-6935-4b96-8670-4e9c7b2b0e3d{fill:url(#uuid-979d03a7-3f1e-4019-9255-c73afd51c565);}.uuid-c462a7a2-6935-4b96-8670-4e9c7b2b0e3d,.uuid-4059c1db-4ab5-49ab-befc-9878c5080e50,.uuid-894b358b-7a97-486a-9bdf-b53e0ae6a37e,.uuid-b450920a-fbbc-4150-8d8f-b1dae98eade6,.uuid-c7a387da-f862-420b-9a65-09dab666e540,.uuid-1ab04dfe-238c-4bdc-a4b0-f285a275bcf7,.uuid-7882ce31-6dc0-4e42-8c31-555dd5d50a26,.uuid-57d9e5b4-8acc-4055-8111-e1f207226841,.uuid-74d4beee-b0a2-4aa8-bc09-af171111e145,.uuid-c3b668e1-3215-4a11-8983-2f91eebe7b47,.uuid-047cfa04-7cdf-4807-b65a-d0812bfbd996,.uuid-45c8694a-748d-403a-a671-4bef31e6b69a,.uuid-779bea92-d2c5-4f7e-9500-42d970b673ff,.uuid-18acee8a-4257-4093-8a8d-61ba2931663f,.uuid-918f5360-7f63-4555-b21e-2f3ca3e05b07,.uuid-b4a8596f-00ed-4585-96e6-3392e93e32e9{stroke-width:0px;}.uuid-4059c1db-4ab5-49ab-befc-9878c5080e50{fill:url(#uuid-ae997240-e63a-4a2c-bf1e-a20f91a5c75c);}.uuid-894b358b-7a97-486a-9bdf-b53e0ae6a37e{fill:url(#uuid-bef60841-59f5-43bc-b411-e05446b7aa86);}.uuid-b450920a-fbbc-4150-8d8f-b1dae98eade6{opacity:.05;}.uuid-c7a387da-f862-420b-9a65-09dab666e540{fill:url(#uuid-e228ffc3-736d-4b69-9d92-78999cd2ade7);}.uuid-1ab04dfe-238c-4bdc-a4b0-f285a275bcf7{fill:url(#uuid-54ed4143-9f11-42ce-a1fa-0c3ac1b1e305);}.uuid-7882ce31-6dc0-4e42-8c31-555dd5d50a26{fill:url(#uuid-1545920f-608e-40f1-a115-97eed1c98bf6);}.uuid-57d9e5b4-8acc-4055-8111-e1f207226841{fill:url(#uuid-9732beb7-e666-4f6f-8338-4ee373b34b62);}.uuid-74d4beee-b0a2-4aa8-bc09-af171111e145{fill:url(#uuid-8494dfb3-e99e-4c33-b62b-0720af3cecc6);}.uuid-c3b668e1-3215-4a11-8983-2f91eebe7b47{fill:url(#uuid-713e1635-d848-4204-9b9b-e6fef5cf8da1);}.uuid-047cfa04-7cdf-4807-b65a-d0812bfbd996{fill:url(#uuid-783d69eb-e643-4a57-bad9-8f93eb0e1362);}.uuid-45c8694a-748d-403a-a671-4bef31e6b69a{fill:url(#uuid-775a00c9-7bbc-46c5-a0d6-a3a472086b2d);}.uuid-779bea92-d2c5-4f7e-9500-42d970b673ff{fill:url(#uuid-de030916-67a7-464e-b247-613df256e7db);}.uuid-18acee8a-4257-4093-8a8d-61ba2931663f{fill:url(#uuid-b5687c5c-782f-4bed-9174-99527bb6498a);}.uuid-918f5360-7f63-4555-b21e-2f3ca3e05b07{fill:url(#uuid-b31d1d21-b685-4724-96e7-d342e7ec6437);}.uuid-b4a8596f-00ed-4585-96e6-3392e93e32e9{opacity:.07;}</style><linearGradient id="uuid-b5687c5c-782f-4bed-9174-99527bb6498a" x1="18.9722" y1="45.5" x2="18.9722" y2="37.2222" gradientUnits="userSpaceOnUse"><stop offset="0" stop-color="#64717c"/><stop offset="1" stop-color="#30363d"/></linearGradient><linearGradient id="uuid-783d69eb-e643-4a57-bad9-8f93eb0e1362" x1="36.1852" y1="26.474" x2="42.5185" y2="26.474" gradientUnits="userSpaceOnUse"><stop offset="0" stop-color="#ff9c0d"/><stop offset="1" stop-color="#f36e22"/></linearGradient><linearGradient id="uuid-713e1635-d848-4204-9b9b-e6fef5cf8da1" x1="38.8123" y1="20.5427" x2="46.2248" y2="32.4052" xlink:href="#uuid-b5687c5c-782f-4bed-9174-99527bb6498a"/><linearGradient id="uuid-54ed4143-9f11-42ce-a1fa-0c3ac1b1e305" x1="31.3824" y1="22.522" x2="36.3213" y2="30.426" xlink:href="#uuid-b5687c5c-782f-4bed-9174-99527bb6498a"/><linearGradient id="uuid-979d03a7-3f1e-4019-9255-c73afd51c565" x1="18.9722" y1="38.4444" x2="18.9722" y2="34" xlink:href="#uuid-b5687c5c-782f-4bed-9174-99527bb6498a"/><linearGradient id="uuid-bef60841-59f5-43bc-b411-e05446b7aa86" x1="11.2574" y1="15.481" x2="25.6301" y2="38.482" xlink:href="#uuid-783d69eb-e643-4a57-bad9-8f93eb0e1362"/><linearGradient id="uuid-e228ffc3-736d-4b69-9d92-78999cd2ade7" x1="15.7315" y1="21.1729" x2="22.3426" y2="31.753" gradientUnits="userSpaceOnUse"><stop offset="0" stop-color="#fff"/><stop offset=".242" stop-color="#f2f2f2"/><stop offset="1" stop-color="#ccc"/></linearGradient><linearGradient id="uuid-b31d1d21-b685-4724-96e7-d342e7ec6437" x1="18" y1="10.5" x2="34" y2="10.5" xlink:href="#uuid-783d69eb-e643-4a57-bad9-8f93eb0e1362"/><linearGradient id="uuid-775a00c9-7bbc-46c5-a0d6-a3a472086b2d" x1="3.963" y1="11.5" x2="17.963" y2="11.5" xlink:href="#uuid-783d69eb-e643-4a57-bad9-8f93eb0e1362"/><linearGradient id="uuid-ae997240-e63a-4a2c-bf1e-a20f91a5c75c" x1="24.94" y1="8.8037" x2="27.06" y2="12.1963" xlink:href="#uuid-e228ffc3-736d-4b69-9d92-78999cd2ade7"/><linearGradient id="uuid-1545920f-608e-40f1-a115-97eed1c98bf6" x1="9.903" y1="9.8037" x2="12.0229" y2="13.1963" xlink:href="#uuid-e228ffc3-736d-4b69-9d92-78999cd2ade7"/><radialGradient id="uuid-9732beb7-e666-4f6f-8338-4ee373b34b62" cx="32.4559" cy="-36.4624" fx="32.4559" fy="-36.4624" r="19.6765" gradientTransform="translate(0 -6) scale(1 -1)" gradientUnits="userSpaceOnUse"><stop offset="0" stop-color="#fafafb"/><stop offset=".293" stop-color="#f6f7f8"/><stop offset=".566" stop-color="#ebecee"/><stop offset=".832" stop-color="#d8dcdf"/><stop offset="1" stop-color="#c8cdd1"/></radialGradient><linearGradient id="uuid-de030916-67a7-464e-b247-613df256e7db" x1="-41.0868" y1="387.6454" x2="-49.7055" y2="379.0267" gradientTransform="translate(-200.9594 -265.1592) rotate(-45)" gradientUnits="userSpaceOnUse"><stop offset="0" stop-color="#e63b65"/><stop offset="1" stop-color="#cb264f"/></linearGradient><linearGradient id="uuid-8494dfb3-e99e-4c33-b62b-0720af3cecc6" x1="-45.3961" y1="390.8361" x2="-45.3961" y2="384.9181" xlink:href="#uuid-de030916-67a7-464e-b247-613df256e7db"/></defs><polygon class="uuid-18acee8a-4257-4093-8a8d-61ba2931663f" points="26.4232 45.5 22.6732 37.2222 19.6232 37.2222 18.3213 37.2222 15.2713 37.2222 11.5213 45.5 15.8732 45.5 18.9722 38.6591 22.0713 45.5 26.4232 45.5"/><path class="uuid-047cfa04-7cdf-4807-b65a-d0812bfbd996" d="M41.1559,33.6068l-4.9707-3.1103v-8.0741s4.9739-3.0832,4.9739-3.0832c.5931-.3677,1.3594.0589,1.3594.7567v12.7561c0,.6995-.7696,1.1258-1.3626.7548Z"/><rect class="uuid-c3b668e1-3215-4a11-8983-2f91eebe7b47" x="41.037" y="18.4925" width="2.963" height="15.963" rx="1.4815" ry="1.4815"/><rect class="uuid-1ab04dfe-238c-4bdc-a4b0-f285a275bcf7" x="31.5185" y="22.4369" width="4.6667" height="8.0741"/><polygon class="uuid-b450920a-fbbc-4150-8d8f-b1dae98eade6" points="22.6732 37.2222 19.6232 37.2222 18.3213 37.2222 15.2713 37.2222 14.2646 39.4443 18.6165 39.4443 18.9722 38.6591 19.3279 39.4443 23.6798 39.4443 22.6732 37.2222"/><polygon class="uuid-b4a8596f-00ed-4585-96e6-3392e93e32e9" points="22.6732 37.2222 19.6232 37.2222 18.3213 37.2222 15.2713 37.2222 14.4911 38.9443 18.843 38.9443 18.9722 38.6591 19.1014 38.9443 23.4533 38.9443 22.6732 37.2222"/><path class="uuid-c462a7a2-6935-4b96-8670-4e9c7b2b0e3d" d="M12.9444,34h12.0556v3.7589c0,.3783-.3072.6855-.6855.6855h-10.6846c-.3783,0-.6855-.3072-.6855-.6855v-3.7589h0Z"/><rect class="uuid-b450920a-fbbc-4150-8d8f-b1dae98eade6" x="12.9445" y="34" width="12.0555" height="2.4629"/><rect class="uuid-b4a8596f-00ed-4585-96e6-3392e93e32e9" x="12.9445" y="34" width="12.0555" height="1.9629"/><rect class="uuid-894b358b-7a97-486a-9bdf-b53e0ae6a37e" x="5" y="18.5" width="26.8875" height="16.963" rx="2" ry="2"/><rect class="uuid-c7a387da-f862-420b-9a65-09dab666e540" x="12.037" y="23.4815" width="14" height="5.963"/><circle class="uuid-918f5360-7f63-4555-b21e-2f3ca3e05b07" cx="26" cy="10.5" r="8"/><circle class="uuid-45c8694a-748d-403a-a671-4bef31e6b69a" cx="10.963" cy="11.5" r="7"/><circle class="uuid-4059c1db-4ab5-49ab-befc-9878c5080e50" cx="26" cy="10.5" r="2"/><circle class="uuid-7882ce31-6dc0-4e42-8c31-555dd5d50a26" cx="10.963" cy="11.5" r="2"/><circle class="uuid-57d9e5b4-8acc-4055-8111-e1f207226841" cx="38" cy="38" r="10"/><rect class="uuid-b450920a-fbbc-4150-8d8f-b1dae98eade6" x="37.6767" y="39.0609" width="3.1641" height=".3955" transform="translate(-16.2615 39.2587) rotate(-45)"/><rect class="uuid-b4a8596f-00ed-4585-96e6-3392e93e32e9" x="37.6068" y="39.0899" width="3.1641" height=".1978" transform="translate(-16.2325 39.1888) rotate(-45)"/><path class="uuid-b450920a-fbbc-4150-8d8f-b1dae98eade6" d="M43.4514,44.5696c-.6981.6981-1.8344.6985-2.5329,0l-2.9182-2.9182-2.9182,2.9182c-.6981.6981-1.8344.6985-2.5329,0l-1.1187-1.1187c-.6985-.6985-.6981-1.8347,0-2.5329l2.9182-2.9182-2.9182-2.9182c-.6985-.6985-.6981-1.8347,0-2.5329l1.1187-1.1187c.6981-.6981,1.8344-.6985,2.5329,0l2.9182,2.9182,2.9182-2.9182c.6981-.6981,1.8344-.6985,2.5329,0l1.1187,1.1187c.6985.6985.6981,1.8347,0,2.5329l-2.9182,2.9182,2.9182,2.9182c.6985.6985.6981,1.8347,0,2.5329l-1.1187,1.1187Z"/><path class="uuid-b4a8596f-00ed-4585-96e6-3392e93e32e9" d="M43.0979,44.216c-.5034.5034-1.3224.5034-1.8258,0l-3.2717-3.2717-3.2717,3.2717c-.5034.5034-1.3224.5034-1.8258,0l-1.1187-1.1187c-.5034-.5034-.5034-1.3224,0-1.8258l3.2717-3.2717-3.2717-3.2717c-.5034-.5034-.5034-1.3224,0-1.8258l1.1187-1.1187c.5034-.5034,1.3224-.5034,1.8258,0l3.2717,3.2717,3.2717-3.2717c.5034-.5034,1.3224-.5034,1.8258,0l1.1187,1.1187c.5034.5034.5034,1.3224,0,1.8258l-3.2717,3.2717,3.2717,3.2717c.5034.5034.5034,1.3224,0,1.8258l-1.1187,1.1187Z"/><path class="uuid-779bea92-d2c5-4f7e-9500-42d970b673ff" d="M41.6255,32.1376l-3.6253,3.6253-3.6253-3.6253c-.3089-.3089-.8098-.3089-1.1187,0l-1.1187,1.1187c-.3089.3089-.3089.8097,0,1.1187l3.6253,3.6253-3.6253,3.6253c-.3089.3089-.3089.8097,0,1.1187l1.1187,1.1187c.3089.3089.8098.3089,1.1187,0l9.4879-9.4879c.3089-.3089.3089-.8098,0-1.1187l-1.1187-1.1187c-.3089-.3089-.8098-.3089-1.1187,0Z"/><path class="uuid-74d4beee-b0a2-4aa8-bc09-af171111e145" d="M38.0002,40.2375l3.6253,3.6253c.3089.3089.8098.3089,1.1187,0l1.1187-1.1187c.3089-.3089.3089-.8098,0-1.1187l-3.6253-3.6253-2.2373,2.2373Z"/></svg>