<?xml version="1.0" encoding="UTF-8"?><svg id="uuid-94302954-5487-4371-b0ee-91b2531cb69b" xmlns="http://www.w3.org/2000/svg" width="48" height="48" xmlns:xlink="http://www.w3.org/1999/xlink" viewBox="0 0 48 48"><defs><style>.uuid-529ff01c-25ad-4ed4-918a-059b221b29a9{fill:url(#uuid-dcf8359b-2977-446d-89cb-32522eeda2d9);}.uuid-529ff01c-25ad-4ed4-918a-059b221b29a9,.uuid-3c2ad4bc-2d5c-4715-bf5e-f12dd31ce4fb,.uuid-cea164dd-0024-43fc-a873-64767baff93e,.uuid-74ab0040-54ac-4dfd-8b96-a3a14e6ba363,.uuid-cd6a5580-4412-4f35-b5bc-7236b5d2d41b,.uuid-591e08a2-59be-4d87-a84c-0c77e790da9f,.uuid-26556b55-8b05-4229-a3da-38b1a643ef0c,.uuid-cae4d308-4372-488f-a9b3-0aa9e5e0b5e9,.uuid-48096cc5-e390-40e5-aad0-f98bb816fe72,.uuid-e56f5691-7987-47f8-8b02-b7b3ea7f64fb,.uuid-5171ff63-3638-46ca-b45e-bc27240902e3,.uuid-7c86c560-f967-49d9-9dc4-eaac096ee614,.uuid-cf87c7a5-60d0-4f86-8ac4-474bee94b687{stroke-width:0px;}.uuid-3c2ad4bc-2d5c-4715-bf5e-f12dd31ce4fb{fill:url(#uuid-6a07bc2b-2f64-48b8-85bf-f91e4e7187dc);}.uuid-cea164dd-0024-43fc-a873-64767baff93e{fill:url(#uuid-209cd085-974c-4495-8ec3-ef9180227617);}.uuid-74ab0040-54ac-4dfd-8b96-a3a14e6ba363{fill:url(#uuid-9b5c83e9-5209-488a-8c99-b5e994a57238);}.uuid-cd6a5580-4412-4f35-b5bc-7236b5d2d41b{fill:url(#uuid-2a04bff6-255f-49c7-b995-2b97c366f3a2);}.uuid-591e08a2-59be-4d87-a84c-0c77e790da9f{opacity:.05;}.uuid-26556b55-8b05-4229-a3da-38b1a643ef0c{fill:url(#uuid-afa2af81-9dca-4401-90f9-cbb53e74d47e);}.uuid-cae4d308-4372-488f-a9b3-0aa9e5e0b5e9{fill:url(#uuid-27e15ead-d675-41ad-b317-8b2f6a68f8a7);}.uuid-48096cc5-e390-40e5-aad0-f98bb816fe72{fill:url(#uuid-e0325a44-c987-47a8-ba89-28a4afd58d90);}.uuid-e56f5691-7987-47f8-8b02-b7b3ea7f64fb{fill:url(#uuid-6429cdc5-1be5-4f8a-816e-9464e6d09c52);}.uuid-5171ff63-3638-46ca-b45e-bc27240902e3{fill:url(#uuid-85e7cf00-871c-4166-8ecd-0a1eedca0383);}.uuid-7c86c560-f967-49d9-9dc4-eaac096ee614{opacity:.07;}.uuid-cf87c7a5-60d0-4f86-8ac4-474bee94b687{fill:url(#uuid-68b6b4fd-002d-4897-b2c8-eb52f73ba678);}</style><linearGradient id="uuid-68b6b4fd-002d-4897-b2c8-eb52f73ba678" x1="18.9722" y1="45.5" x2="18.9722" y2="37.2222" gradientUnits="userSpaceOnUse"><stop offset="0" stop-color="#64717c"/><stop offset="1" stop-color="#30363d"/></linearGradient><linearGradient id="uuid-9b5c83e9-5209-488a-8c99-b5e994a57238" x1="36.1852" y1="26.474" x2="42.5185" y2="26.474" gradientUnits="userSpaceOnUse"><stop offset="0" stop-color="#ff9c0d"/><stop offset="1" stop-color="#f36e22"/></linearGradient><linearGradient id="uuid-209cd085-974c-4495-8ec3-ef9180227617" x1="38.8123" y1="20.5427" x2="46.2248" y2="32.4052" xlink:href="#uuid-68b6b4fd-002d-4897-b2c8-eb52f73ba678"/><linearGradient id="uuid-afa2af81-9dca-4401-90f9-cbb53e74d47e" x1="31.3824" y1="22.522" x2="36.3213" y2="30.426" xlink:href="#uuid-68b6b4fd-002d-4897-b2c8-eb52f73ba678"/><linearGradient id="uuid-2a04bff6-255f-49c7-b995-2b97c366f3a2" x1="18.9722" y1="38.4444" x2="18.9722" y2="34" xlink:href="#uuid-68b6b4fd-002d-4897-b2c8-eb52f73ba678"/><linearGradient id="uuid-27e15ead-d675-41ad-b317-8b2f6a68f8a7" x1="11.2574" y1="15.481" x2="25.6301" y2="38.482" xlink:href="#uuid-9b5c83e9-5209-488a-8c99-b5e994a57238"/><linearGradient id="uuid-e0325a44-c987-47a8-ba89-28a4afd58d90" x1="15.7315" y1="21.1729" x2="22.3426" y2="31.753" gradientUnits="userSpaceOnUse"><stop offset="0" stop-color="#fff"/><stop offset=".242" stop-color="#f2f2f2"/><stop offset="1" stop-color="#ccc"/></linearGradient><linearGradient id="uuid-6429cdc5-1be5-4f8a-816e-9464e6d09c52" x1="18" y1="10.5" x2="34" y2="10.5" xlink:href="#uuid-9b5c83e9-5209-488a-8c99-b5e994a57238"/><linearGradient id="uuid-dcf8359b-2977-446d-89cb-32522eeda2d9" x1="3.963" y1="11.5" x2="17.963" y2="11.5" xlink:href="#uuid-9b5c83e9-5209-488a-8c99-b5e994a57238"/><linearGradient id="uuid-85e7cf00-871c-4166-8ecd-0a1eedca0383" x1="24.94" y1="8.8037" x2="27.06" y2="12.1963" xlink:href="#uuid-e0325a44-c987-47a8-ba89-28a4afd58d90"/><linearGradient id="uuid-6a07bc2b-2f64-48b8-85bf-f91e4e7187dc" x1="9.903" y1="9.8037" x2="12.0229" y2="13.1963" xlink:href="#uuid-e0325a44-c987-47a8-ba89-28a4afd58d90"/></defs><polygon class="uuid-cf87c7a5-60d0-4f86-8ac4-474bee94b687" points="26.4232 45.5 22.6732 37.2222 19.6232 37.2222 18.3213 37.2222 15.2713 37.2222 11.5213 45.5 15.8732 45.5 18.9722 38.6591 22.0713 45.5 26.4232 45.5"/><path class="uuid-74ab0040-54ac-4dfd-8b96-a3a14e6ba363" d="M41.1559,33.6068l-4.9707-3.1103v-8.0741s4.9739-3.0832,4.9739-3.0832c.5931-.3677,1.3594.0589,1.3594.7567v12.7561c0,.6995-.7696,1.1258-1.3626.7548Z"/><rect class="uuid-cea164dd-0024-43fc-a873-64767baff93e" x="41.037" y="18.4925" width="2.963" height="15.963" rx="1.4815" ry="1.4815"/><rect class="uuid-26556b55-8b05-4229-a3da-38b1a643ef0c" x="31.5185" y="22.4369" width="4.6667" height="8.0741"/><polygon class="uuid-591e08a2-59be-4d87-a84c-0c77e790da9f" points="22.6732 37.2222 19.6232 37.2222 18.3213 37.2222 15.2713 37.2222 14.2646 39.4443 18.6165 39.4443 18.9722 38.6591 19.3279 39.4443 23.6798 39.4443 22.6732 37.2222"/><polygon class="uuid-7c86c560-f967-49d9-9dc4-eaac096ee614" points="22.6732 37.2222 19.6232 37.2222 18.3213 37.2222 15.2713 37.2222 14.4911 38.9443 18.843 38.9443 18.9722 38.6591 19.1014 38.9443 23.4533 38.9443 22.6732 37.2222"/><path class="uuid-cd6a5580-4412-4f35-b5bc-7236b5d2d41b" d="M12.9444,34h12.0556v3.7589c0,.3783-.3072.6855-.6855.6855h-10.6846c-.3783,0-.6855-.3072-.6855-.6855v-3.7589h0Z"/><rect class="uuid-591e08a2-59be-4d87-a84c-0c77e790da9f" x="12.9445" y="34" width="12.0555" height="2.4629"/><rect class="uuid-7c86c560-f967-49d9-9dc4-eaac096ee614" x="12.9445" y="34" width="12.0555" height="1.9629"/><rect class="uuid-cae4d308-4372-488f-a9b3-0aa9e5e0b5e9" x="5" y="18.5" width="26.8875" height="16.963" rx="2" ry="2"/><rect class="uuid-48096cc5-e390-40e5-aad0-f98bb816fe72" x="12.037" y="23.4815" width="14" height="5.963"/><circle class="uuid-e56f5691-7987-47f8-8b02-b7b3ea7f64fb" cx="26" cy="10.5" r="8"/><circle class="uuid-529ff01c-25ad-4ed4-918a-059b221b29a9" cx="10.963" cy="11.5" r="7"/><circle class="uuid-5171ff63-3638-46ca-b45e-bc27240902e3" cx="26" cy="10.5" r="2"/><circle class="uuid-3c2ad4bc-2d5c-4715-bf5e-f12dd31ce4fb" cx="10.963" cy="11.5" r="2"/></svg>