<?xml version="1.0" encoding="UTF-8"?><svg id="uuid-2a9c738c-d95c-4467-8552-c95626693f9d" xmlns="http://www.w3.org/2000/svg" width="48" height="48" xmlns:xlink="http://www.w3.org/1999/xlink" viewBox="0 0 48 48"><defs><style>.uuid-0215fa99-ad72-4fd5-ac21-25b3c63e0c57{fill:url(#uuid-a4cc6fa1-292c-4641-a084-055bbc385b38);}.uuid-0215fa99-ad72-4fd5-ac21-25b3c63e0c57,.uuid-b9c921e0-c1f1-4bc1-9714-d059debe8cf0,.uuid-2e0c88f9-c7d8-4062-963d-514f3f10a29f,.uuid-9bace188-8f1b-4f25-8016-88da317e8ca9,.uuid-1eb7eb2b-7e8e-4902-9f8a-27164111de51,.uuid-0bd01ff3-ddd6-4846-9ba7-c661a26aa1ea,.uuid-eccd25fb-c947-41d3-a111-71b5ac6eb6fe,.uuid-8ba8df9c-706a-4c4d-aa81-a5e4d2f2e623,.uuid-7ce4e493-4cca-4543-b34d-0f4ecfebece0,.uuid-0c386057-f108-4343-af43-9e0016f47149,.uuid-a435c6c6-9a07-4cdb-adc3-8764f40224ce,.uuid-e044079a-ff46-4cac-85d3-2808f9f34bc5,.uuid-ef5cf738-878f-4d5d-9e09-8d1297a0b545,.uuid-73c8d42d-89c0-4a0a-86b2-a0686c43c2bc,.uuid-0951c56e-fcc9-4627-a477-80b3bbec388a,.uuid-493991b6-2d21-4a05-ac18-daa1202cecd5,.uuid-1609b01d-26df-41d9-b54a-4f0ee338ae09,.uuid-0be2c988-f6d7-48e9-ae64-4b53bed19a45,.uuid-65a38abc-8813-4d7d-8dc7-9490f4858e2d,.uuid-697225a8-dc1d-4a16-a690-92ea4f8c1c6e,.uuid-c775be25-2890-4704-af5e-0f173ecf6acc{stroke-width:0px;}.uuid-b9c921e0-c1f1-4bc1-9714-d059debe8cf0{fill:url(#uuid-adedf33e-514d-4987-951e-e8bafb024319);}.uuid-2e0c88f9-c7d8-4062-963d-514f3f10a29f{fill:url(#uuid-1fadfa45-1ab8-4b81-a0d4-358353fa0d35);}.uuid-9bace188-8f1b-4f25-8016-88da317e8ca9,.uuid-33c3f5f7-7ce8-4f6f-996b-03162699f320{opacity:.05;}.uuid-0bd01ff3-ddd6-4846-9ba7-c661a26aa1ea{fill:url(#uuid-f918f1ae-16bb-42e5-8b02-d024a12bac0f);}.uuid-eccd25fb-c947-41d3-a111-71b5ac6eb6fe{fill:url(#uuid-1f0e47f0-985b-4629-acf9-5f75f4c116bc);}.uuid-8ba8df9c-706a-4c4d-aa81-a5e4d2f2e623{fill:url(#uuid-2fcda097-d053-4003-94c8-a4be7fc634b9);}.uuid-aedf832e-1e54-4f90-aff1-a2005bcf6311,.uuid-0be2c988-f6d7-48e9-ae64-4b53bed19a45{opacity:.07;}.uuid-7ce4e493-4cca-4543-b34d-0f4ecfebece0{opacity:.08;}.uuid-0c386057-f108-4343-af43-9e0016f47149{fill:url(#uuid-d5bde3cb-e4d6-42aa-8aff-e9c682426dd2);}.uuid-a435c6c6-9a07-4cdb-adc3-8764f40224ce{fill:url(#uuid-8c8ba5b7-6b45-4921-9b50-0eff54dbf172);}.uuid-e044079a-ff46-4cac-85d3-2808f9f34bc5{fill:url(#uuid-d795e592-bbab-4e1d-baf2-19d2db58b3cc);}.uuid-ef5cf738-878f-4d5d-9e09-8d1297a0b545{fill:url(#uuid-6ace8440-1953-4490-89a4-090b34b8a1df);}.uuid-73c8d42d-89c0-4a0a-86b2-a0686c43c2bc{fill:url(#uuid-d45b4a08-6673-4810-9305-3f4a650ebaf3);}.uuid-0951c56e-fcc9-4627-a477-80b3bbec388a{fill:url(#uuid-ec0584a0-0c72-4127-99e2-bdbf87a9ed73);}.uuid-493991b6-2d21-4a05-ac18-daa1202cecd5{fill:url(#uuid-b29d6417-4933-4867-adc7-433cf9204887);}.uuid-1609b01d-26df-41d9-b54a-4f0ee338ae09{fill:url(#uuid-af681939-0625-4d5b-9c81-ef7620b1a630);}.uuid-65a38abc-8813-4d7d-8dc7-9490f4858e2d{fill:url(#uuid-ab445217-c51f-4e83-991c-d9f628df9fc9);}.uuid-697225a8-dc1d-4a16-a690-92ea4f8c1c6e{fill:url(#uuid-f7aea4f1-e8c4-4231-be1e-69919f80ebd3);}.uuid-c775be25-2890-4704-af5e-0f173ecf6acc{fill:url(#uuid-29878142-85b3-45aa-a758-021f3eb8b30d);}</style><linearGradient id="uuid-f7aea4f1-e8c4-4231-be1e-69919f80ebd3" x1="13.8436" y1="15.4377" x2="35.4124" y2="49.9551" gradientUnits="userSpaceOnUse"><stop offset="0" stop-color="#ff9c0d"/><stop offset="1" stop-color="#f36e22"/></linearGradient><linearGradient id="uuid-8c8ba5b7-6b45-4921-9b50-0eff54dbf172" x1="12.8084" y1=".9829" x2="26.5528" y2="22.9785" xlink:href="#uuid-f7aea4f1-e8c4-4231-be1e-69919f80ebd3"/><linearGradient id="uuid-d5bde3cb-e4d6-42aa-8aff-e9c682426dd2" x1="7.3971" y1="17.0363" x2="11.7859" y2="24.0599" gradientUnits="userSpaceOnUse"><stop offset="0" stop-color="#64717c"/><stop offset="1" stop-color="#30363d"/></linearGradient><linearGradient id="uuid-2fcda097-d053-4003-94c8-a4be7fc634b9" x1="16.5232" y1="15.8053" x2="21.6497" y2="24.0094" xlink:href="#uuid-d5bde3cb-e4d6-42aa-8aff-e9c682426dd2"/><linearGradient id="uuid-1f0e47f0-985b-4629-acf9-5f75f4c116bc" x1="26.541" y1="15.7864" x2="31.6655" y2="23.9873" xlink:href="#uuid-d5bde3cb-e4d6-42aa-8aff-e9c682426dd2"/><linearGradient id="uuid-d45b4a08-6673-4810-9305-3f4a650ebaf3" x1="36.1098" y1="15.7555" x2="41.2568" y2="23.9925" xlink:href="#uuid-d5bde3cb-e4d6-42aa-8aff-e9c682426dd2"/><linearGradient id="uuid-f918f1ae-16bb-42e5-8b02-d024a12bac0f" x1="68.8243" y1="510.7336" x2="75.3644" y2="492.7649" gradientTransform="translate(-51.0502 504.8523) scale(1 -1)" xlink:href="#uuid-f7aea4f1-e8c4-4231-be1e-69919f80ebd3"/><linearGradient id="uuid-a4cc6fa1-292c-4641-a084-055bbc385b38" x1="59.1631" y1="498.7036" x2="61.3259" y2="492.7615" gradientTransform="translate(53.5514 509.5079) rotate(-12) scale(1 -1)" xlink:href="#uuid-d5bde3cb-e4d6-42aa-8aff-e9c682426dd2"/><linearGradient id="uuid-ab445217-c51f-4e83-991c-d9f628df9fc9" x1="67.7994" y1="498.2903" x2="69.9914" y2="492.2678" gradientTransform="translate(53.5514 509.5079) rotate(-12) scale(1 -1)" xlink:href="#uuid-d5bde3cb-e4d6-42aa-8aff-e9c682426dd2"/><linearGradient id="uuid-29878142-85b3-45aa-a758-021f3eb8b30d" x1="77.8068" y1="498.3001" x2="80.0102" y2="492.246" gradientTransform="translate(53.5514 509.5079) rotate(-12) scale(1 -1)" xlink:href="#uuid-d5bde3cb-e4d6-42aa-8aff-e9c682426dd2"/><linearGradient id="uuid-ec0584a0-0c72-4127-99e2-bdbf87a9ed73" x1="87.3775" y1="498.269" x2="89.5651" y2="492.2587" gradientTransform="translate(53.5514 509.5079) rotate(-12) scale(1 -1)" xlink:href="#uuid-d5bde3cb-e4d6-42aa-8aff-e9c682426dd2"/><linearGradient id="uuid-d795e592-bbab-4e1d-baf2-19d2db58b3cc" x1="5.7175" y1="12.8439" x2="11.1106" y2="21.4747" xlink:href="#uuid-d5bde3cb-e4d6-42aa-8aff-e9c682426dd2"/><linearGradient id="uuid-adedf33e-514d-4987-951e-e8bafb024319" x1="6.103" y1="13.3407" x2="7.4332" y2="13.3407" gradientUnits="userSpaceOnUse"><stop offset="0" stop-color="#fff"/><stop offset=".242" stop-color="#f2f2f2"/><stop offset="1" stop-color="#ccc"/></linearGradient><linearGradient id="uuid-af681939-0625-4d5b-9c81-ef7620b1a630" y1="19.3084" y2="19.3084" xlink:href="#uuid-adedf33e-514d-4987-951e-e8bafb024319"/><linearGradient id="uuid-6ace8440-1953-4490-89a4-090b34b8a1df" x1="12.1069" y1="19.3084" x2="13.437" y2="19.3084" xlink:href="#uuid-adedf33e-514d-4987-951e-e8bafb024319"/><linearGradient id="uuid-1fadfa45-1ab8-4b81-a0d4-358353fa0d35" x1="10.7548" y1="32.285" x2="28.5481" y2="32.285" xlink:href="#uuid-adedf33e-514d-4987-951e-e8bafb024319"/><linearGradient id="uuid-b29d6417-4933-4867-adc7-433cf9204887" x1="10.7548" y1="36.2391" x2="26.5711" y2="36.2391" xlink:href="#uuid-adedf33e-514d-4987-951e-e8bafb024319"/></defs><rect class="uuid-697225a8-dc1d-4a16-a690-92ea4f8c1c6e" x="5.3042" y="19.8928" width="38.6476" height="25.6072" rx="1.977" ry="1.977"/><path class="uuid-9bace188-8f1b-4f25-8016-88da317e8ca9" d="M41.9748,19.8929H7.2813c-1.0919,0-1.977.8851-1.977,1.977v2.1326c.0484.0036.0947.0145.144.0145h38.3592c.0495,0,.0959-.011.1444-.0146v-2.1326c0-1.0919-.8852-1.977-1.977-1.977Z"/><path class="uuid-0be2c988-f6d7-48e9-ae64-4b53bed19a45" d="M41.9748,19.8929H7.2813c-1.0919,0-1.977.8851-1.977,1.977v1.6384c.0481.0047.0947.0145.144.0145h38.3592c.0495,0,.0962-.0098.1444-.0146v-1.6383c0-1.0919-.8852-1.977-1.977-1.977Z"/><rect class="uuid-a435c6c6-9a07-4cdb-adc3-8764f40224ce" x="4.4599" y="16.7682" width="40.3362" height="6.26" rx=".9885" ry=".9885"/><path class="uuid-0c386057-f108-4343-af43-9e0016f47149" d="M9.8325,16.7697l-2.0091.0002c-.1891.2356-.31.5136-.3078.8588l.0016,3.6344,1.022,1.7651h4.8978l-3.6045-6.2585Z"/><polygon class="uuid-8ba8df9c-706a-4c4d-aa81-a5e4d2f2e623" points="19.8506 16.7682 16.3513 16.7682 14.9124 16.8118 18.311 23.0282 23.22 23.0282 19.8506 16.7682"/><polygon class="uuid-eccd25fb-c947-41d3-a111-71b5ac6eb6fe" points="29.9292 16.7682 24.9697 16.7682 28.2915 23.0282 33.2004 23.0282 29.9292 16.7682"/><polygon class="uuid-73c8d42d-89c0-4a0a-86b2-a0686c43c2bc" points="39.4492 16.7682 34.4891 16.7682 37.9476 23.0282 42.7999 23.0282 39.4492 16.7682"/><rect class="uuid-0bd01ff3-ddd6-4846-9ba7-c661a26aa1ea" x="3.2302" y="6.4411" width="40.3362" height="6.26" rx=".9885" ry=".9885" transform="translate(-1.4786 5.0739) rotate(-12)"/><path class="uuid-0215fa99-ad72-4fd5-ac21-25b3c63e0c57" d="M9.5766,15.7074l-1.9653.4175c-.2339-.1911-.41-.4379-.4796-.776l-.7541-3.5553.6327-1.9391,4.7908-1.0183-2.2245,6.8712Z"/><polygon class="uuid-65a38abc-8813-4d7d-8dc7-9490f4858e2d" points="19.376 13.626 15.9532 14.3535 14.5367 14.61 16.5686 7.8229 21.3703 6.8022 19.376 13.626"/><polygon class="uuid-c775be25-2890-4704-af5e-0f173ecf6acc" points="29.2344 11.5305 24.3833 12.5617 26.331 5.7478 31.1326 4.7272 29.2344 11.5305"/><polygon class="uuid-0951c56e-fcc9-4627-a477-80b3bbec388a" points="38.5464 9.5512 33.6947 10.5825 35.7761 3.7402 40.5223 2.7314 38.5464 9.5512"/><path class="uuid-9bace188-8f1b-4f25-8016-88da317e8ca9" d="M4.8243,17.0073v2.3136c0,1.0657.8679,1.9326,1.9336,1.9326h6.0122c.7964,0,1.4808-.4576,1.7859-1.1932s.1448-1.5426-.419-2.1064l-1.1858-1.1858h-7.5028c-.2405,0-.4527.0964-.6242.2391Z"/><path class="uuid-9bace188-8f1b-4f25-8016-88da317e8ca9" d="M5.2886,16.6203l6.1974-1.3173-3.3612-3.3612c-.3668-.3668-.8495-.5686-1.3602-.5686-1.0696,0-1.9404.8679-1.9404,1.9346v3.2876c.1481.0411.3035.0591.4643.025Z"/><path class="uuid-7ce4e493-4cca-4543-b34d-0f4ecfebece0" d="M5.3185,16.7944v2.5265c0,.7935.6458,1.4384,1.4393,1.4384h6.0122c.5927,0,1.1024-.3408,1.3293-.8881s.1072-1.1488-.3118-1.5677l-1.5353-1.5353h-6.8039c-.0461,0-.0855.0202-.1299.0262Z"/><path class="uuid-7ce4e493-4cca-4543-b34d-0f4ecfebece0" d="M5.3185,13.3078v3.3062l5.5911-1.1885-3.1343-3.1343c-.2732-.2732-.6323-.4238-1.0107-.4238-.7974,0-1.4461.6458-1.4461,1.4403Z"/><path class="uuid-e044079a-ff46-4cac-85d3-2808f9f34bc5" d="M12.7701,20.2651h-6.0124c-.5216,0-.9445-.4229-.9445-.9445v-6.0124c0-.8414,1.0173-1.2628,1.6123-.6679l6.0124,6.0124c.595.595.1736,1.6123-.6679,1.6123Z"/><circle class="uuid-b9c921e0-c1f1-4bc1-9714-d059debe8cf0" cx="6.7681" cy="13.3407" r=".6651"/><circle class="uuid-1609b01d-26df-41d9-b54a-4f0ee338ae09" cx="6.7681" cy="19.3084" r=".6651"/><circle class="uuid-ef5cf738-878f-4d5d-9e09-8d1297a0b545" cx="12.7719" cy="19.3084" r=".6651"/><g class="uuid-33c3f5f7-7ce8-4f6f-996b-03162699f320"><rect class="uuid-1eb7eb2b-7e8e-4902-9f8a-27164111de51" x="9.7662" y="30.3079" width="19.7704" height="3.9541" rx="1.4828" ry="1.4828"/><rect class="uuid-1eb7eb2b-7e8e-4902-9f8a-27164111de51" x="9.7662" y="34.262" width="17.7933" height="3.9541" rx="1.4828" ry="1.4828"/></g><g class="uuid-aedf832e-1e54-4f90-aff1-a2005bcf6311"><rect class="uuid-1eb7eb2b-7e8e-4902-9f8a-27164111de51" x="10.2605" y="30.8022" width="18.7819" height="2.9656" rx=".9885" ry=".9885"/><rect class="uuid-1eb7eb2b-7e8e-4902-9f8a-27164111de51" x="10.2605" y="34.7563" width="16.8048" height="2.9656" rx=".9885" ry=".9885"/></g><path class="uuid-2e0c88f9-c7d8-4062-963d-514f3f10a29f" d="M28.0538,33.2735H11.249c-.2728,0-.4943-.2214-.4943-.4943v-.9885c0-.2728.2214-.4943.4943-.4943h16.8048c.2728,0,.4943.2214.4943.4943v.9885c0,.2728-.2214.4943-.4943.4943Z"/><path class="uuid-493991b6-2d21-4a05-ac18-daa1202cecd5" d="M26.0768,37.2276h-14.8278c-.2728,0-.4943-.2214-.4943-.4943v-.9885c0-.2728.2214-.4943.4943-.4943h14.8278c.2728,0,.4943.2214.4943.4943v.9885c0,.2728-.2214.4943-.4943.4943Z"/></svg>