<?xml version="1.0" encoding="UTF-8"?><svg id="uuid-16a01244-f275-425a-b8d8-ebef403e8ac1" xmlns="http://www.w3.org/2000/svg" width="48" height="48" xmlns:xlink="http://www.w3.org/1999/xlink" viewBox="0 0 48 48"><defs><style>.uuid-0b7fa3c8-e98e-4c1d-9afc-8dcc36818f1f{fill:#30363d;opacity:.5;}.uuid-0b7fa3c8-e98e-4c1d-9afc-8dcc36818f1f,.uuid-007f3760-a32f-4a22-8780-06c02c02743a,.uuid-45438bac-5ffa-4c48-9b1d-b1fc6ce804d9,.uuid-0e9f2509-fe8a-4276-bb1b-5cb22cdd2914{stroke-width:0px;}.uuid-007f3760-a32f-4a22-8780-06c02c02743a{fill:url(#uuid-4d130f68-e76b-4b70-8801-b5977113e3f2);}.uuid-45438bac-5ffa-4c48-9b1d-b1fc6ce804d9{fill:url(#uuid-9c31b096-bbd0-44fe-8a2e-a0af2503a75a);}.uuid-0e9f2509-fe8a-4276-bb1b-5cb22cdd2914{fill:url(#uuid-58aacf2d-28fb-4723-ad49-c00aadba396d);}</style><linearGradient id="uuid-58aacf2d-28fb-4723-ad49-c00aadba396d" x1="11.9275" y1="4.3578" x2="36.3564" y2="44.1042" gradientUnits="userSpaceOnUse"><stop offset="0" stop-color="#ff9c0d"/><stop offset="1" stop-color="#f36e22"/></linearGradient><linearGradient id="uuid-4d130f68-e76b-4b70-8801-b5977113e3f2" x1="28.645" y1="11.5314" x2="32.355" y2="17.4686" gradientUnits="userSpaceOnUse"><stop offset="0" stop-color="#fff"/><stop offset=".242" stop-color="#f2f2f2"/><stop offset="1" stop-color="#ccc"/></linearGradient><linearGradient id="uuid-9c31b096-bbd0-44fe-8a2e-a0af2503a75a" x1="23.91" y1="451.9465" x2="23.91" y2="476.2285" gradientTransform="translate(0 494) scale(1 -1)" gradientUnits="userSpaceOnUse"><stop offset="0" stop-color="#30363d"/><stop offset="1" stop-color="#64717c"/></linearGradient></defs><path class="uuid-0e9f2509-fe8a-4276-bb1b-5cb22cdd2914" d="M40,6H8c-1.105,0-2,.895-2,2v32c0,1.105.895,2,2,2h32c1.105,0,2-.895,2-2V8c0-1.105-.895-2-2-2Z"/><path class="uuid-0b7fa3c8-e98e-4c1d-9afc-8dcc36818f1f" d="M32.065,23.065c-1.149-1.149-3.005-1.174-4.185-.057l-9.88,9.36v9.632h22c1.105,0,2-.895,2-2v-7l-9.935-9.935Z"/><circle class="uuid-007f3760-a32f-4a22-8780-06c02c02743a" cx="30.5" cy="14.5" r="3.5"/><path class="uuid-45438bac-5ffa-4c48-9b1d-b1fc6ce804d9" d="M8,42h32c.811,0,1.507-.485,1.82-1.18l-21.755-21.755c-1.149-1.149-3.005-1.174-4.185-.057l-9.88,9.36v11.632c0,1.105.895,2,2,2Z"/></svg>