<?xml version="1.0" encoding="UTF-8"?><svg id="uuid-cd4f859d-326e-45b8-a46e-53f1761fda65" xmlns="http://www.w3.org/2000/svg" width="48" height="48" xmlns:xlink="http://www.w3.org/1999/xlink" viewBox="0 0 48 48"><defs><style>.uuid-c2d01d98-30c1-4178-b381-f614edc057aa{opacity:.07;}.uuid-c2d01d98-30c1-4178-b381-f614edc057aa,.uuid-42543c44-9a9c-471f-b217-dcb2b6af74fd,.uuid-484c9ab5-9d73-4492-a2bb-3f1073ea9020,.uuid-e252440b-8c02-4df9-96eb-eda1c5e59539,.uuid-a2354d76-a16e-49b5-b4ad-1e0c44d051d3{stroke-width:0px;}.uuid-c2d01d98-30c1-4178-b381-f614edc057aa,.uuid-e252440b-8c02-4df9-96eb-eda1c5e59539{isolation:isolate;}.uuid-42543c44-9a9c-471f-b217-dcb2b6af74fd{fill:url(#uuid-61d942fd-419f-4569-8eaf-6d2b123f95d9);}.uuid-484c9ab5-9d73-4492-a2bb-3f1073ea9020{fill:url(#uuid-737d5d8c-ceaa-426e-a15e-6d25e76e055e);}.uuid-e252440b-8c02-4df9-96eb-eda1c5e59539{opacity:.05;}.uuid-a2354d76-a16e-49b5-b4ad-1e0c44d051d3{fill:url(#uuid-2fac1dcf-8ddd-4b86-b471-a3d071fd9e53);}</style><linearGradient id="uuid-737d5d8c-ceaa-426e-a15e-6d25e76e055e" x1="28.8889" y1="11.1667" x2="41.1111" y2="11.1667" gradientUnits="userSpaceOnUse"><stop offset="0" stop-color="#ff9c0d"/><stop offset="1" stop-color="#f36e22"/></linearGradient><linearGradient id="uuid-61d942fd-419f-4569-8eaf-6d2b123f95d9" x1="6.8889" x2="19.1111" xlink:href="#uuid-737d5d8c-ceaa-426e-a15e-6d25e76e055e"/><linearGradient id="uuid-2fac1dcf-8ddd-4b86-b471-a3d071fd9e53" x1=".1978" y1="-312.9982" x2="37.3326" y2="-345.2439" gradientTransform="translate(0 -306) scale(1 -1)" xlink:href="#uuid-737d5d8c-ceaa-426e-a15e-6d25e76e055e"/></defs><path class="uuid-484c9ab5-9d73-4492-a2bb-3f1073ea9020" d="M31.3333,6.8889h7.3333c1.3444,0,2.4444,1.1,2.4444,2.4444v6.1111h-12.2222v-6.1111c0-1.3444,1.1-2.4444,2.4444-2.4444Z"/><path class="uuid-42543c44-9a9c-471f-b217-dcb2b6af74fd" d="M9.3333,6.8889h7.3333c1.3444,0,2.4444,1.1,2.4444,2.4444v6.1111H6.8889v-6.1111c0-1.3444,1.1-2.4444,2.4444-2.4444Z"/><rect class="uuid-e252440b-8c02-4df9-96eb-eda1c5e59539" x="28.8889" y="13" width="12.2222" height="2.4444"/><rect class="uuid-c2d01d98-30c1-4178-b381-f614edc057aa" x="28.8889" y="13.6111" width="12.2222" height="1.8333"/><rect class="uuid-e252440b-8c02-4df9-96eb-eda1c5e59539" x="6.8889" y="13" width="12.2222" height="2.4444"/><rect class="uuid-c2d01d98-30c1-4178-b381-f614edc057aa" x="6.8889" y="13.6111" width="12.2222" height="1.8333"/><path class="uuid-a2354d76-a16e-49b5-b4ad-1e0c44d051d3" d="M4.4444,14.2222h39.1111c1.3444,0,2.4444,1.1,2.4444,2.4444v22c0,1.3444-1.1,2.4444-2.4444,2.4444H4.4444c-1.3444,0-2.4444-1.1-2.4444-2.4444v-22c0-1.3444,1.1-2.4444,2.4444-2.4444Z"/></svg>