<?xml version="1.0" encoding="UTF-8"?><svg id="uuid-ec3c4d5a-d6ee-444a-b5e5-a9bd5e1006d6" xmlns="http://www.w3.org/2000/svg" width="48" height="48" xmlns:xlink="http://www.w3.org/1999/xlink" viewBox="0 0 48 48"><defs><style>.uuid-fe7c86eb-1905-407e-8634-13634de49eb1{fill:url(#uuid-d813a9b7-4f84-47e1-9fef-15a42b5cc2c4);}.uuid-fe7c86eb-1905-407e-8634-13634de49eb1,.uuid-c5aaaffa-3833-4158-adf2-e05d95331a56,.uuid-81d1bb5b-d25f-4deb-9817-08b4ffccf8ea,.uuid-12ad1d69-75c6-48f1-889d-efcf6e6da0db,.uuid-0a5fa7b9-d61e-4ed7-8150-918099f181e8,.uuid-adc5e289-639a-4f42-af57-39cd5451dd79,.uuid-bfe80eca-4cf1-47d4-a9d8-45a576dd79e3{stroke-width:0px;}.uuid-c5aaaffa-3833-4158-adf2-e05d95331a56{opacity:.05;}.uuid-81d1bb5b-d25f-4deb-9817-08b4ffccf8ea{fill:url(#uuid-b1054c04-3d0e-4846-b95c-cf5ba45faa16);}.uuid-12ad1d69-75c6-48f1-889d-efcf6e6da0db{fill:url(#uuid-535f01f7-f632-44ec-8f90-c7dbeacf418a);}.uuid-0a5fa7b9-d61e-4ed7-8150-918099f181e8{fill:url(#uuid-e322672f-22a4-4ab4-a343-ab9292afaa30);}.uuid-adc5e289-639a-4f42-af57-39cd5451dd79{fill:url(#uuid-8dc3e86d-25fa-4b68-91e3-2035a4283f23);}.uuid-bfe80eca-4cf1-47d4-a9d8-45a576dd79e3{opacity:.07;}</style><linearGradient id="uuid-535f01f7-f632-44ec-8f90-c7dbeacf418a" x1="16.6507" y1="160.6603" x2="46.1407" y2="142.2329" gradientTransform="translate(172.7407 -11.9259) rotate(90)" gradientUnits="userSpaceOnUse"><stop offset="0" stop-color="#fff"/><stop offset=".242" stop-color="#f2f2f2"/><stop offset="1" stop-color="#ccc"/></linearGradient><linearGradient id="uuid-d813a9b7-4f84-47e1-9fef-15a42b5cc2c4" x1="6.4154" y1="12.3637" x2="17.5008" y2="30.1041" gradientUnits="userSpaceOnUse"><stop offset="0" stop-color="#32bdef"/><stop offset="1" stop-color="#1ea2e4"/></linearGradient><radialGradient id="uuid-e322672f-22a4-4ab4-a343-ab9292afaa30" cx="42.1065" cy="-110.2534" fx="42.1065" fy="-110.2534" r="14.0149" gradientTransform="translate(-29.2957 -82.334) scale(.8957 -.8957)" gradientUnits="userSpaceOnUse"><stop offset="0" stop-color="#fafafb"/><stop offset=".293" stop-color="#f6f7f8"/><stop offset=".566" stop-color="#ebecee"/><stop offset=".832" stop-color="#d8dcdf"/><stop offset="1" stop-color="#c8cdd1"/></radialGradient><linearGradient id="uuid-b1054c04-3d0e-4846-b95c-cf5ba45faa16" x1="30.4992" y1="30.1041" x2="41.5846" y2="12.3637" gradientUnits="userSpaceOnUse"><stop offset="0" stop-color="#f36e22"/><stop offset="1" stop-color="#ff9c0d"/></linearGradient><linearGradient id="uuid-8dc3e86d-25fa-4b68-91e3-2035a4283f23" x1="32.6605" y1="15.8226" x2="39.4233" y2="26.6453" gradientUnits="userSpaceOnUse"><stop offset="0" stop-color="#64717c"/><stop offset="1" stop-color="#30363d"/></linearGradient></defs><path class="uuid-12ad1d69-75c6-48f1-889d-efcf6e6da0db" d="M10.7961,12.2664c0-.4697.4192-.851.937-.851.5187,0,.9379.3804.9388.8501l.0234,22.1035c0,.2272.0975.4408.2757.6016.1763.1608.4127.2485.6631.2485l20.6106-.0196c.5168,0,.937-.3821.937-.851v-.0009l-.0234-22.1035v-.0009c0-.4697.4192-.851.937-.851.5187,0,.9379.3804.9388.8501l.0234,22.4066v.0026c0,1.4066-1.2606,2.552-2.8109,2.5529l-20.6106.0196c-.7522,0-1.4585-.2646-1.9902-.7454-.5318-.4816-.8254-1.1224-.8263-1.8049l-.0234-22.4075h0Z"/><path class="uuid-c5aaaffa-3833-4158-adf2-e05d95331a56" d="M12.6935,32.6552l-.0216-20.3896c-.001-.4697-.4202-.8501-.9388-.8501-.5178,0-.937.3812-.937.851l.0213,20.3682c.3754.0373.7556.0578,1.1406.0578.2483,0,.4911-.0216.7355-.0372Z"/><path class="uuid-bfe80eca-4cf1-47d4-a9d8-45a576dd79e3" d="M12.6931,32.1552l-.0211-19.8896c-.001-.4697-.4202-.8501-.9388-.8501-.5178,0-.937.3812-.937.851l.0208,19.8658c.3752.039.7558.0601,1.1412.0601.2481,0,.491-.0209.735-.0372Z"/><circle class="uuid-fe7c86eb-1905-407e-8634-13634de49eb1" cx="11.9581" cy="21.2339" r="10.4581"/><path class="uuid-c5aaaffa-3833-4158-adf2-e05d95331a56" d="M11.958,29.1943c-4.3887,0-7.96-3.5713-7.96-7.96s3.5713-7.9609,7.96-7.9609,7.96,3.5713,7.96,7.9609-3.5713,7.96-7.96,7.96Z"/><path class="uuid-c5aaaffa-3833-4158-adf2-e05d95331a56" d="M11.958,28.6943c-4.1133,0-7.46-3.3467-7.46-7.46s3.3467-7.4609,7.46-7.4609,7.46,3.3467,7.46,7.4609-3.3467,7.46-7.46,7.46Z"/><circle class="uuid-c5aaaffa-3833-4158-adf2-e05d95331a56" cx="11.9581" cy="21.2339" r="6.9601"/><circle class="uuid-0a5fa7b9-d61e-4ed7-8150-918099f181e8" cx="11.9581" cy="21.2339" r="6.3801"/><path class="uuid-c5aaaffa-3833-4158-adf2-e05d95331a56" d="M37.0342,12.2426c-.001-.4697-.4202-.8501-.9389-.8501-.5177,0-.937.3812-.937.851v.0009l.0216,20.4044c.2856.0214.5711.0436.8621.0436.3421,0,.679-.0219,1.0135-.0513l-.0214-20.3984Z"/><path class="uuid-bfe80eca-4cf1-47d4-a9d8-45a576dd79e3" d="M37.0342,12.2426c-.001-.4697-.4202-.8501-.9389-.8501-.5177,0-.937.3812-.937.851v.0009l.0211,19.9044c.2855.0224.5714.0437.8625.0437.3419,0,.679-.0205,1.013-.0513l-.0208-19.8984Z"/><circle class="uuid-81d1bb5b-d25f-4deb-9817-08b4ffccf8ea" cx="36.0419" cy="21.2339" r="10.4581"/><path class="uuid-c5aaaffa-3833-4158-adf2-e05d95331a56" d="M36.042,29.1943c-4.3887,0-7.96-3.5713-7.96-7.96s3.5713-7.9609,7.96-7.9609,7.96,3.5713,7.96,7.9609-3.5713,7.96-7.96,7.96Z"/><path class="uuid-c5aaaffa-3833-4158-adf2-e05d95331a56" d="M36.042,28.6943c-4.1133,0-7.46-3.3467-7.46-7.46s3.3467-7.4609,7.46-7.4609,7.46,3.3467,7.46,7.4609-3.3467,7.46-7.46,7.46Z"/><circle class="uuid-c5aaaffa-3833-4158-adf2-e05d95331a56" cx="36.0419" cy="21.2339" r="6.9601"/><circle class="uuid-adc5e289-639a-4f42-af57-39cd5451dd79" cx="36.0419" cy="21.2339" r="6.3801"/></svg>