<?xml version="1.0" encoding="UTF-8"?><svg id="uuid-46a81932-bf3c-450e-9137-d543efc1f12d" xmlns="http://www.w3.org/2000/svg" width="48" height="48" xmlns:xlink="http://www.w3.org/1999/xlink" viewBox="0 0 48 48"><defs><style>.uuid-7992ede6-0b8e-4b36-9c18-7edd2719b111{fill:url(#uuid-7d16b690-b279-4a1d-b8b5-93d8689235e7);}.uuid-7992ede6-0b8e-4b36-9c18-7edd2719b111,.uuid-b7bb872d-4fa9-49b8-8293-18b687599345,.uuid-53dc74a3-8982-4a1e-bc0a-aaa30405c01f,.uuid-fa574b02-6f20-4264-8eea-1da8885c77be{stroke-width:0px;}.uuid-b7bb872d-4fa9-49b8-8293-18b687599345{fill:url(#uuid-c2107ac2-cd6e-4988-b536-239c51bbe5fa);}.uuid-53dc74a3-8982-4a1e-bc0a-aaa30405c01f{fill:url(#uuid-acad5c99-1d5b-405c-8977-ca49341dd639);}.uuid-fa574b02-6f20-4264-8eea-1da8885c77be{fill:url(#uuid-29d2d984-6925-42e8-b285-214aee0d7163);}</style><linearGradient id="uuid-29d2d984-6925-42e8-b285-214aee0d7163" x1="-1410" y1="746" x2="-1400" y2="746" gradientTransform="translate(-1386 -736) rotate(-180) scale(1 -1)" gradientUnits="userSpaceOnUse"><stop offset=".266" stop-color="#e5692c"/><stop offset=".582" stop-color="#e06725"/><stop offset=".745" stop-color="#de6425"/><stop offset=".873" stop-color="#d55e26"/><stop offset=".982" stop-color="#ce5c2d"/><stop offset="1" stop-color="#c05827"/></linearGradient><linearGradient id="uuid-7d16b690-b279-4a1d-b8b5-93d8689235e7" x1="4.484" y1="480.5168" x2="18.3259" y2="457.9956" gradientTransform="translate(0 494) scale(1 -1)" gradientUnits="userSpaceOnUse"><stop offset="0" stop-color="#ff9c0d"/><stop offset="1" stop-color="#f36e22"/></linearGradient><linearGradient id="uuid-acad5c99-1d5b-405c-8977-ca49341dd639" x1="-365" y1="725.472" x2="-355" y2="725.472" gradientTransform="translate(389 763.472) scale(1 -1)" gradientUnits="userSpaceOnUse"><stop offset=".266" stop-color="#e5692c"/><stop offset=".582" stop-color="#e06725"/><stop offset=".745" stop-color="#de6425"/><stop offset=".873" stop-color="#d55e26"/><stop offset=".982" stop-color="#ce5c2d"/><stop offset="1" stop-color="#c05827"/></linearGradient><linearGradient id="uuid-c2107ac2-cd6e-4988-b536-239c51bbe5fa" x1="29.8353" y1="481.7422" x2="43.6769" y2="459.2215" xlink:href="#uuid-7d16b690-b279-4a1d-b8b5-93d8689235e7"/></defs><path class="uuid-fa574b02-6f20-4264-8eea-1da8885c77be" d="M14,13h9c.552,0,1-.448,1-1v-4c0-.552-.448-1-1-1h-9v6Z"/><path class="uuid-7992ede6-0b8e-4b36-9c18-7edd2719b111" d="M18.19,32h-4.19V7l-4.828,4.828c-.751.751-1.172,1.768-1.172,2.829v17.343H3.81c-.72,0-1.08.87-.571,1.379l6.701,6.701c.586.586,1.536.586,2.121,0l6.701-6.701c.509-.509.148-1.379-.572-1.379Z"/><path class="uuid-53dc74a3-8982-4a1e-bc0a-aaa30405c01f" d="M34,35h-9c-.552,0-1,.448-1,1v4c0,.552.448,1,1,1h9v-6Z"/><path class="uuid-b7bb872d-4fa9-49b8-8293-18b687599345" d="M29.81,16h4.19v25l4.828-4.828c.75-.75,1.172-1.768,1.172-2.828v-17.344h4.19c.72,0,1.08-.87.571-1.379l-6.7-6.701c-.586-.586-1.536-.586-2.121,0l-6.701,6.701c-.51.509-.149,1.379.571,1.379Z"/></svg>