<?xml version="1.0" encoding="UTF-8"?><svg id="uuid-1d9fd54b-9415-4947-8fca-3cb928d1dea2" xmlns="http://www.w3.org/2000/svg" width="48" height="48" xmlns:xlink="http://www.w3.org/1999/xlink" viewBox="0 0 48 48"><defs><style>.uuid-0254b68a-4244-463c-94c0-29ea8f1f6f2f{fill:url(#uuid-6d6e0db8-34f5-4cfc-a853-ebfb8a5b0874);}.uuid-0254b68a-4244-463c-94c0-29ea8f1f6f2f,.uuid-0325a8be-5475-4a57-a9dd-066e86faa5f8,.uuid-56ae1820-9b73-44d4-9573-91ae1c5bf5eb,.uuid-5e7993ae-cbbd-47c0-bba7-f0bbaf52c8ce,.uuid-3a5065a0-f2cc-4e7e-bf6c-1890cca8b426,.uuid-58f70ff9-b422-4c15-a117-e687bed92690,.uuid-f40f372e-26fc-4aba-9346-69f1d67c17f6,.uuid-9d9bacdd-04eb-42e7-8eb0-a62995e8bfa6,.uuid-3eb9025f-4710-443d-b7fe-94e75c6d0724,.uuid-b379fd99-8ac9-4863-9a2b-4471995457fc,.uuid-877f6a15-ba70-424a-8885-242635b16f86,.uuid-cf278b60-e41d-4923-a56f-c41fe0cd3130,.uuid-50e28e05-9ae7-4685-b6c5-51e09f8f9738{stroke-width:0px;}.uuid-0325a8be-5475-4a57-a9dd-066e86faa5f8{fill:url(#uuid-c4c44b96-762f-4873-8d46-cf0c5878aba4);}.uuid-56ae1820-9b73-44d4-9573-91ae1c5bf5eb{fill:url(#uuid-ad8a4132-f740-4ad6-92c3-97ea2ceb92fb);}.uuid-5e7993ae-cbbd-47c0-bba7-f0bbaf52c8ce{fill:url(#uuid-640a5f06-3bc3-429f-b30e-78214c09826c);}.uuid-3a5065a0-f2cc-4e7e-bf6c-1890cca8b426{opacity:.05;}.uuid-58f70ff9-b422-4c15-a117-e687bed92690{fill:url(#uuid-4477d404-4457-48a0-84c8-f793b2e09a65);}.uuid-f40f372e-26fc-4aba-9346-69f1d67c17f6{fill:url(#uuid-d1236a4b-1de5-4a22-bcdb-d08a1bc25d4a);}.uuid-9d9bacdd-04eb-42e7-8eb0-a62995e8bfa6{fill:url(#uuid-a70b40a2-01b7-47d7-ae17-2b91e48fdc80);}.uuid-3eb9025f-4710-443d-b7fe-94e75c6d0724{fill:url(#uuid-bbd9a543-43b2-48af-8e9a-885485712939);}.uuid-b379fd99-8ac9-4863-9a2b-4471995457fc{fill:url(#uuid-6cdf5ce3-53fe-4c7d-975d-756ca213791b);}.uuid-877f6a15-ba70-424a-8885-242635b16f86{opacity:.07;}.uuid-cf278b60-e41d-4923-a56f-c41fe0cd3130{fill:url(#uuid-69c74089-fe14-4758-a146-8f8f6eae8b34);}.uuid-50e28e05-9ae7-4685-b6c5-51e09f8f9738{fill:url(#uuid-b1769f07-1add-4512-bae8-658421322489);}</style><linearGradient id="uuid-b1769f07-1add-4512-bae8-658421322489" x1="10.0776" y1="3.9266" x2="35.8706" y2="45.8924" gradientUnits="userSpaceOnUse"><stop offset="0" stop-color="#ff9c0d"/><stop offset="1" stop-color="#f36e22"/></linearGradient><linearGradient id="uuid-bbd9a543-43b2-48af-8e9a-885485712939" x1="18.4257" y1="2.0285" x2="29.3059" y2="19.7309" gradientUnits="userSpaceOnUse"><stop offset="0" stop-color="#fff"/><stop offset=".242" stop-color="#f2f2f2"/><stop offset="1" stop-color="#ccc"/></linearGradient><linearGradient id="uuid-6cdf5ce3-53fe-4c7d-975d-756ca213791b" x1="17.2036" y1="23.6262" x2="30.7002" y2="45.5855" gradientTransform="translate(47.8144 69.0663) rotate(-180)" xlink:href="#uuid-bbd9a543-43b2-48af-8e9a-885485712939"/><linearGradient id="uuid-d1236a4b-1de5-4a22-bcdb-d08a1bc25d4a" x1="26.8121" y1="7.6537" x2="31.7331" y2="15.6602" gradientUnits="userSpaceOnUse"><stop offset="0" stop-color="#64717c"/><stop offset="1" stop-color="#30363d"/></linearGradient><linearGradient id="uuid-c4c44b96-762f-4873-8d46-cf0c5878aba4" x1="7.242" y1="38.4912" x2="8.9027" y2="41.1933" xlink:href="#uuid-d1236a4b-1de5-4a22-bcdb-d08a1bc25d4a"/><linearGradient id="uuid-ad8a4132-f740-4ad6-92c3-97ea2ceb92fb" x1="39.0155" y1="38.4912" x2="40.6762" y2="41.1933" xlink:href="#uuid-d1236a4b-1de5-4a22-bcdb-d08a1bc25d4a"/><linearGradient id="uuid-69c74089-fe14-4758-a146-8f8f6eae8b34" x1="43.6798" y1="15.5262" x2="46.2756" y2="19.6804" gradientUnits="userSpaceOnUse"><stop offset="0" stop-color="#e63b65"/><stop offset="1" stop-color="#cb264f"/></linearGradient><radialGradient id="uuid-4477d404-4457-48a0-84c8-f793b2e09a65" cx="26.0105" cy="36.9622" fx="26.0105" fy="36.9622" r="4.8066" gradientUnits="userSpaceOnUse"><stop offset="0" stop-color="#fafafb"/><stop offset=".293" stop-color="#f6f7f8"/><stop offset=".566" stop-color="#ebecee"/><stop offset=".832" stop-color="#d8dcdf"/><stop offset="1" stop-color="#c8cdd1"/></radialGradient><linearGradient id="uuid-a70b40a2-01b7-47d7-ae17-2b91e48fdc80" x1="32.1761" y1="24.1744" x2="36.9007" y2="31.7355" xlink:href="#uuid-b1769f07-1add-4512-bae8-658421322489"/><radialGradient id="uuid-6d6e0db8-34f5-4cfc-a853-ebfb8a5b0874" cx="41.0969" cy="76.6151" fx="41.0969" fy="76.6151" r="6.0314" gradientTransform="translate(0 94) scale(1 -1)" xlink:href="#uuid-4477d404-4457-48a0-84c8-f793b2e09a65"/><linearGradient id="uuid-640a5f06-3bc3-429f-b30e-78214c09826c" x1="25.0063" y1="35.6359" x2="26.2267" y2="37.5891" xlink:href="#uuid-d1236a4b-1de5-4a22-bcdb-d08a1bc25d4a"/></defs><path class="uuid-50e28e05-9ae7-4685-b6c5-51e09f8f9738" d="M36.2557,5H6.9996c-1.1556,0-2.0924.9368-2.0924,2.0924v33.8152c0,1.1556.9368,2.0924,2.0924,2.0924h33.8152c1.1556,0,2.0924-.9368,2.0924-2.0924V11.6515c0-.2775-.1102-.5436-.3064-.7398l-5.6053-5.6053c-.1962-.1962-.4623-.3064-.7398-.3064Z"/><path class="uuid-3a5065a0-f2cc-4e7e-bf6c-1890cca8b426" d="M9.2556,5h25.8284v10.5529c0,1.7322-1.4064,3.1386-3.1386,3.1386H12.3942c-1.7322,0-3.1386-1.4064-3.1386-3.1386V5h0Z"/><path class="uuid-877f6a15-ba70-424a-8885-242635b16f86" d="M34.6277,5H12.774v10.6304c0,1.4426,1.1734,2.6155,2.6155,2.6155h16.6228c1.4421,0,2.6155-1.1729,2.6155-2.6155V5Z"/><path class="uuid-3eb9025f-4710-443d-b7fe-94e75c6d0724" d="M13.2969,5h20.8078v10.6304c0,1.1548-.9376,2.0924-2.0924,2.0924H15.3893c-1.1548,0-2.0924-.9376-2.0924-2.0924V5h0Z"/><rect class="uuid-b379fd99-8ac9-4863-9a2b-4471995457fc" x="11.3684" y="26.0663" width="25.0776" height="16.9336" rx="2.0924" ry="2.0924" transform="translate(47.8144 69.0663) rotate(180)"/><rect class="uuid-f40f372e-26fc-4aba-9346-69f1d67c17f6" x="27.0458" y="7.222" width="4.1461" height="8.3696"/><circle class="uuid-3a5065a0-f2cc-4e7e-bf6c-1890cca8b426" cx="8.0206" cy="39.7574" r="2.6155"/><circle class="uuid-877f6a15-ba70-424a-8885-242635b16f86" cx="8.0206" cy="39.7574" r="2.0924"/><circle class="uuid-3a5065a0-f2cc-4e7e-bf6c-1890cca8b426" cx="39.794" cy="39.7574" r="2.6155"/><circle class="uuid-877f6a15-ba70-424a-8885-242635b16f86" cx="39.794" cy="39.7574" r="2.0924"/><circle class="uuid-0325a8be-5475-4a57-a9dd-066e86faa5f8" cx="8.0204" cy="39.7578" r="1.5693"/><circle class="uuid-56ae1820-9b73-44d4-9573-91ae1c5bf5eb" cx="39.794" cy="39.7578" r="1.5693"/><path class="uuid-3a5065a0-f2cc-4e7e-bf6c-1890cca8b426" d="M42.9072,14.8144c-.029.0256-.0616.0457-.0892.0732l-17.5213,17.5229c-.1349.1328-.2304.3014-.2764.4853l-1.1126,4.4198c-.0894.3555.0163.7377.2748.9951.1946.1951.4644.3065.7397.3065.0838,0,.1681-.0102.2554-.0307l4.4239-1.1136c.1808-.047.3469-.141.4817-.2748l12.824-12.8236v-9.5601Z"/><path class="uuid-877f6a15-ba70-424a-8885-242635b16f86" d="M42.9072,15.5381l-17.2422,17.2432c-.0669.0664-.1144.1502-.1374.2421l-1.1126,4.4198c-.045.1788.0072.3678.1374.4976.0991.0991.2329.1533.3698.1533.0424,0,.0853-.0051.1277-.0153l4.4213-1.1126c.0914-.0235.1752-.0715.2421-.1379l13.1938-13.1938v-8.0963Z"/><path class="uuid-cf278b60-e41d-4923-a56f-c41fe0cd3130" d="M46.8659,17.7589l-2.1317-2.1311c-.324-.3246-.8519-.3246-1.1765,0l-1.0031,1.0043,3.307,3.307,1.0043-1.0031c.3246-.3252.3246-.8513,0-1.1771"/><path class="uuid-58f70ff9-b422-4c15-a117-e687bed92690" d="M26.0346,33.1514l-1.1123,4.4199,4.4205-1.1129.4636-3.8343-3.7718.5272Z"/><path class="uuid-9d9bacdd-04eb-42e7-8eb0-a62995e8bfa6" d="M43.041,22.7597l-13.6976,13.6982-3.3076-3.3076,13.6976-13.6982,3.3076,3.3076Z"/><path class="uuid-0254b68a-4244-463c-94c0-29ea8f1f6f2f" d="M39.731,19.4527l2.8213-2.8224,3.3094,3.307-2.8213,2.8224-3.3094-3.307Z"/><path class="uuid-5e7993ae-cbbd-47c0-bba7-f0bbaf52c8ce" d="M25.4858,35.3362l-.5634,2.2351,2.2345-.5634-1.671-1.6716Z"/></svg>