<?xml version="1.0" encoding="UTF-8"?><svg id="uuid-63eb8897-b6da-4af3-af2c-66dc03e09025" xmlns="http://www.w3.org/2000/svg" width="48" height="48" xmlns:xlink="http://www.w3.org/1999/xlink" viewBox="0 0 48 48"><defs><style>.uuid-3aeb19bc-0463-40ba-bb0d-022358c04427{fill:url(#uuid-16d43ae2-90c3-4223-9064-cd246eb1bd5e);}.uuid-3aeb19bc-0463-40ba-bb0d-022358c04427,.uuid-27985eb7-117b-42e6-a5bc-f5eef82cbc9e,.uuid-2d6c811a-56f2-4ebf-b9aa-224b7bc9c021,.uuid-a769bdcf-d689-43e8-af85-082d59c7ce17,.uuid-cdb5205e-59ee-48b0-8378-606687d584e3,.uuid-738c093a-932f-4438-9c20-801e37aed0ad,.uuid-faa175aa-0b0f-4ccc-b9d6-795fc8fcf0f6,.uuid-271c4084-cb15-4788-ae08-596171c7856f,.uuid-676e7124-9805-49bb-97fb-05e2ff9d1e83,.uuid-4a986ee0-1264-4033-95d2-b73671e4ede7,.uuid-2d541616-3353-4b62-a7ad-d98810632101{stroke-width:0px;}.uuid-27985eb7-117b-42e6-a5bc-f5eef82cbc9e{fill:url(#uuid-30d85cb4-3c3b-461f-a031-01940df206b2);}.uuid-2d6c811a-56f2-4ebf-b9aa-224b7bc9c021{fill:url(#uuid-77e7271e-c774-4097-98cd-b8043ba36b49);}.uuid-a769bdcf-d689-43e8-af85-082d59c7ce17{fill:url(#uuid-31ef8926-a2ed-4eff-a48d-5e6c408d0c28);}.uuid-cdb5205e-59ee-48b0-8378-606687d584e3{opacity:.05;}.uuid-738c093a-932f-4438-9c20-801e37aed0ad{fill:url(#uuid-b5a3405e-e965-41be-bd41-eedd75daae85);}.uuid-faa175aa-0b0f-4ccc-b9d6-795fc8fcf0f6{fill:url(#uuid-372c489a-8b39-4448-8e8f-7ae003a6f4aa);}.uuid-271c4084-cb15-4788-ae08-596171c7856f{fill:url(#uuid-b0cffa6b-c12b-4b8d-ba5a-734dd73a41fe);}.uuid-676e7124-9805-49bb-97fb-05e2ff9d1e83{fill:url(#uuid-8946cfe5-69c2-4732-a4e9-6bc6aa0fbe0a);}.uuid-4a986ee0-1264-4033-95d2-b73671e4ede7{fill:url(#uuid-047783c8-b6d9-42a6-9cb8-8adb1ead527d);}.uuid-2d541616-3353-4b62-a7ad-d98810632101{opacity:.07;}</style><linearGradient id="uuid-b0cffa6b-c12b-4b8d-ba5a-734dd73a41fe" x1="10.1704" y1="3.9266" x2="35.9634" y2="45.8924" gradientUnits="userSpaceOnUse"><stop offset="0" stop-color="#ff9c0d"/><stop offset="1" stop-color="#f36e22"/></linearGradient><linearGradient id="uuid-31ef8926-a2ed-4eff-a48d-5e6c408d0c28" x1="18.5185" y1="2.0285" x2="29.3987" y2="19.7309" gradientUnits="userSpaceOnUse"><stop offset="0" stop-color="#fff"/><stop offset=".242" stop-color="#f2f2f2"/><stop offset="1" stop-color="#ccc"/></linearGradient><linearGradient id="uuid-77e7271e-c774-4097-98cd-b8043ba36b49" x1="17.2963" y1="23.6262" x2="30.793" y2="45.5855" gradientTransform="translate(48 69.0663) rotate(-180)" xlink:href="#uuid-31ef8926-a2ed-4eff-a48d-5e6c408d0c28"/><linearGradient id="uuid-372c489a-8b39-4448-8e8f-7ae003a6f4aa" x1="26.9049" y1="7.6536" x2="31.8259" y2="15.6602" gradientUnits="userSpaceOnUse"><stop offset="0" stop-color="#64717c"/><stop offset="1" stop-color="#30363d"/></linearGradient><linearGradient id="uuid-30d85cb4-3c3b-461f-a031-01940df206b2" x1="7.3347" y1="38.4912" x2="8.9955" y2="41.1933" xlink:href="#uuid-372c489a-8b39-4448-8e8f-7ae003a6f4aa"/><linearGradient id="uuid-8946cfe5-69c2-4732-a4e9-6bc6aa0fbe0a" x1="39.1083" y1="38.4912" x2="40.769" y2="41.1933" xlink:href="#uuid-372c489a-8b39-4448-8e8f-7ae003a6f4aa"/><linearGradient id="uuid-b5a3405e-e965-41be-bd41-eedd75daae85" x1="42.006" y1="51.4795" x2="33.9405" y2="59.545" gradientTransform="translate(0 94) scale(1 -1)" xlink:href="#uuid-372c489a-8b39-4448-8e8f-7ae003a6f4aa"/><linearGradient id="uuid-047783c8-b6d9-42a6-9cb8-8adb1ead527d" x1="36.2399" y1="58.3492" x2="39.8015" y2="52.5544" gradientTransform="translate(0 94) scale(1 -1)" xlink:href="#uuid-b0cffa6b-c12b-4b8d-ba5a-734dd73a41fe"/><linearGradient id="uuid-16d43ae2-90c3-4223-9064-cd246eb1bd5e" x1="33.0223" y1="63.5162" x2="43.5756" y2="46.3458" gradientTransform="translate(0 94) scale(1 -1)" xlink:href="#uuid-31ef8926-a2ed-4eff-a48d-5e6c408d0c28"/></defs><path class="uuid-271c4084-cb15-4788-ae08-596171c7856f" d="M36.3485,5H7.0924c-1.1556,0-2.0924.9368-2.0924,2.0924v33.8152c0,1.1556.9368,2.0924,2.0924,2.0924h33.8152c1.1556,0,2.0924-.9368,2.0924-2.0924V11.6515c0-.2775-.1102-.5436-.3064-.7398l-5.6053-5.6053c-.1962-.1962-.4623-.3064-.7398-.3064Z"/><path class="uuid-cdb5205e-59ee-48b0-8378-606687d584e3" d="M9.3483,5h25.8284v10.5529c0,1.7322-1.4064,3.1386-3.1386,3.1386H12.487c-1.7322,0-3.1386-1.4064-3.1386-3.1386V5h0Z"/><path class="uuid-2d541616-3353-4b62-a7ad-d98810632101" d="M34.7205,5H12.8667v10.6304c0,1.4426,1.1734,2.6155,2.6155,2.6155h16.6228c1.4421,0,2.6155-1.1729,2.6155-2.6155V5Z"/><path class="uuid-a769bdcf-d689-43e8-af85-082d59c7ce17" d="M13.3897,5h20.8078v10.6304c0,1.1548-.9376,2.0924-2.0924,2.0924H15.4821c-1.1548,0-2.0924-.9376-2.0924-2.0924V5h0Z"/><rect class="uuid-2d6c811a-56f2-4ebf-b9aa-224b7bc9c021" x="11.4612" y="26.0663" width="25.0776" height="16.9337" rx="2.0924" ry="2.0924" transform="translate(48 69.0663) rotate(180)"/><rect class="uuid-faa175aa-0b0f-4ccc-b9d6-795fc8fcf0f6" x="27.1386" y="7.222" width="4.1461" height="8.3696"/><circle class="uuid-cdb5205e-59ee-48b0-8378-606687d584e3" cx="8.1134" cy="39.7574" r="2.6155"/><circle class="uuid-2d541616-3353-4b62-a7ad-d98810632101" cx="8.1134" cy="39.7574" r="2.0924"/><circle class="uuid-cdb5205e-59ee-48b0-8378-606687d584e3" cx="39.8868" cy="39.7574" r="2.6155"/><circle class="uuid-2d541616-3353-4b62-a7ad-d98810632101" cx="39.8868" cy="39.7574" r="2.0924"/><circle class="uuid-27985eb7-117b-42e6-a5bc-f5eef82cbc9e" cx="8.1132" cy="39.7578" r="1.5693"/><circle class="uuid-676e7124-9805-49bb-97fb-05e2ff9d1e83" cx="39.8868" cy="39.7578" r="1.5693"/><circle class="uuid-738c093a-932f-4438-9c20-801e37aed0ad" cx="38" cy="38.5145" r="5.75"/><circle class="uuid-4a986ee0-1264-4033-95d2-b73671e4ede7" cx="38" cy="38.5145" r="3.5"/><path class="uuid-cdb5205e-59ee-48b0-8378-606687d584e3" d="M42.1609,40.1609v-.7853c-.2483,1.1931-1.0107,2.1894-2.0359,2.7853h.0359c1.1046,0,2-.8954,2-2Z"/><path class="uuid-cdb5205e-59ee-48b0-8378-606687d584e3" d="M33.7501,38.5146c0-2.3359,1.9062-4.2363,4.25-4.2363,2.0476,0,3.7605,1.4508,4.1608,3.375v-9.2891c-.3122-.1277-.6279-.248-.9528-.3467-.0938-.0283-.1924-.043-.292-.043-.334,0-.6455.166-.832.4453-.4668.6992-1.2461,1.1162-2.084,1.1162-.8389,0-1.6182-.417-2.084-1.1172-.1865-.2783-.498-.4443-.832-.4443-.0996,0-.1982.0146-.291.043-1.5088.458-2.8838,1.2305-4.085,2.2959-.3438.3027-.4375.7988-.2275,1.2061.3887.7568.3672,1.6465-.0576,2.3799-.4443.7676-1.2432,1.2324-2.1387,1.2432-.457.0059-.8516.3193-.958.7617-.2168.8799-.3262,1.7588-.3262,2.6104,0,.666.0674,1.3584.1992,2.0576.0967.5088.6123.8125,1.0547.8125.6903,0,1.3385.2907,1.8052.7761h5.816c-1.2642-.7348-2.1251-2.0859-2.1251-3.6462Z"/><path class="uuid-2d541616-3353-4b62-a7ad-d98810632101" d="M33.2501,38.5146c0-2.6113,2.1309-4.7363,4.75-4.7363,1.8036,0,3.3567,1.0193,4.1608,2.4995v-7.3763c-.3578-.1547-.7237-.2915-1.0993-.4055-.0479-.0146-.0967-.0215-.1455-.0215-.1641,0-.3213.0811-.416.2227-.5596.8379-1.4941,1.3389-2.5,1.3389-1.0068,0-1.9414-.501-2.5-1.3389-.0947-.1416-.252-.2227-.416-.2227-.0479,0-.0977.0068-.1455.0215-1.4385.4365-2.751,1.1738-3.9004,2.1924-.1719.1514-.2178.3994-.1133.6025.4668.9092.4404,1.9785-.0693,2.8584-.5332.9219-1.4922,1.4805-2.5645,1.4932-.2285.0029-.4258.1592-.4795.3809-.207.8428-.3115,1.6807-.3115,2.4912,0,.6377.0645,1.2979.1904,1.9639.0449.2363.3232.4062.5635.4062.9767,0,1.873.4926,2.4317,1.2761h4.321c-1.063-.8691-1.7566-2.1718-1.7566-3.6462Z"/><path class="uuid-3aeb19bc-0463-40ba-bb0d-022358c04427" d="M47.7035,36.1423c-1.1945-.0145-2.351-.6353-2.9915-1.7418-.6165-1.0651-.604-2.3183-.081-3.3375-1.0625-.941-2.321-1.665-3.715-2.0884-.6275.941-1.6985,1.5613-2.916,1.5613s-2.2885-.6203-2.9155-1.5613c-1.394.4234-2.6525,1.1474-3.715,2.0884.523,1.0193.5355,2.2724-.081,3.3375-.6405,1.1065-1.797,1.7274-2.9915,1.7418-.187.7615-.297,1.5533-.297,2.3721,0,.6403.0665,1.2641.182,1.871,1.2345-.0254,2.4455.6024,3.1065,1.7443.684,1.1818.5935,2.595-.11,3.6627,1.041.9709,2.2865,1.7234,3.67,2.1816.565-1.1699,1.762-1.9797,3.1515-1.9797s2.5865.8098,3.1515,1.9802c1.3835-.4583,2.629-1.2108,3.67-2.1816-.7035-1.0676-.794-2.4808-.11-3.6627.661-1.1419,1.8715-1.7697,3.1065-1.7443.1155-.6074.182-1.2312.182-1.8715,0-.8188-.11-1.6107-.2965-2.3721ZM38,43.7503c-2.8995,0-5.25-2.3442-5.25-5.2359s2.3505-5.2359,5.25-5.2359,5.25,2.3442,5.25,5.2359-2.3505,5.2359-5.25,5.2359Z"/></svg>