<?xml version="1.0" encoding="UTF-8"?><svg id="uuid-252fdbf3-66a5-4720-8389-7985c500e61d" xmlns="http://www.w3.org/2000/svg" width="48" height="48" xmlns:xlink="http://www.w3.org/1999/xlink" viewBox="0 0 48 48"><defs><style>.uuid-0997d108-3309-42fd-a456-acdcb9ea4d0b{fill:url(#uuid-130a2f04-ef8c-4008-9864-854d8140f0fd);}.uuid-0997d108-3309-42fd-a456-acdcb9ea4d0b,.uuid-1f4b6ab9-4eca-4fd6-87c4-a281e3559d1d,.uuid-92b7ef75-004a-4982-af93-d77fdf32cf99,.uuid-7ed1d6ad-deed-4aa0-b10c-654b7ac4f39c,.uuid-f9da0107-1b10-4396-8acf-4adc6f36744b,.uuid-b567251c-df4d-4d62-9f78-d69458161993,.uuid-078ac3ff-988f-43e1-8b62-3f6f78c9edb9,.uuid-a3bb5a8b-f1b6-4254-9d69-d4ab0fa8d190{stroke-width:0px;}.uuid-1f4b6ab9-4eca-4fd6-87c4-a281e3559d1d{fill:url(#uuid-606723a6-dbde-4abf-aca3-43125a187da9);}.uuid-92b7ef75-004a-4982-af93-d77fdf32cf99{opacity:.05;}.uuid-7ed1d6ad-deed-4aa0-b10c-654b7ac4f39c{fill:url(#uuid-f035bff4-8cf9-4e15-b9f9-fcf647c8bd0a);}.uuid-f9da0107-1b10-4396-8acf-4adc6f36744b{fill:url(#uuid-a71371b6-dc52-41a9-90cb-08b85036dbdc);}.uuid-b567251c-df4d-4d62-9f78-d69458161993{fill:url(#uuid-e94bcf3e-08d3-49d1-9263-fea984cacd08);}.uuid-078ac3ff-988f-43e1-8b62-3f6f78c9edb9{fill:url(#uuid-29cf5d95-a3ef-4542-83e3-82c7337eb07d);}.uuid-a3bb5a8b-f1b6-4254-9d69-d4ab0fa8d190{opacity:.07;}</style><linearGradient id="uuid-606723a6-dbde-4abf-aca3-43125a187da9" x1="10.1704" y1="3.9266" x2="35.9634" y2="45.8924" gradientUnits="userSpaceOnUse"><stop offset="0" stop-color="#ff9c0d"/><stop offset="1" stop-color="#f36e22"/></linearGradient><linearGradient id="uuid-29cf5d95-a3ef-4542-83e3-82c7337eb07d" x1="18.5185" y1="2.0285" x2="29.3987" y2="19.7309" gradientUnits="userSpaceOnUse"><stop offset="0" stop-color="#fff"/><stop offset=".242" stop-color="#f2f2f2"/><stop offset="1" stop-color="#ccc"/></linearGradient><linearGradient id="uuid-f035bff4-8cf9-4e15-b9f9-fcf647c8bd0a" x1="17.2963" y1="23.6262" x2="30.793" y2="45.5855" gradientTransform="translate(48 69.0663) rotate(-180)" xlink:href="#uuid-29cf5d95-a3ef-4542-83e3-82c7337eb07d"/><linearGradient id="uuid-130a2f04-ef8c-4008-9864-854d8140f0fd" x1="26.9049" y1="7.6536" x2="31.8259" y2="15.6602" gradientUnits="userSpaceOnUse"><stop offset="0" stop-color="#64717c"/><stop offset="1" stop-color="#30363d"/></linearGradient><linearGradient id="uuid-a71371b6-dc52-41a9-90cb-08b85036dbdc" x1="7.3347" y1="38.4912" x2="8.9955" y2="41.1933" xlink:href="#uuid-130a2f04-ef8c-4008-9864-854d8140f0fd"/><linearGradient id="uuid-e94bcf3e-08d3-49d1-9263-fea984cacd08" x1="39.1083" y1="38.4912" x2="40.769" y2="41.1933" xlink:href="#uuid-130a2f04-ef8c-4008-9864-854d8140f0fd"/></defs><path class="uuid-1f4b6ab9-4eca-4fd6-87c4-a281e3559d1d" d="M36.3485,5H7.0924c-1.1556,0-2.0924.9368-2.0924,2.0924v33.8152c0,1.1556.9368,2.0924,2.0924,2.0924h33.8152c1.1556,0,2.0924-.9368,2.0924-2.0924V11.6515c0-.2775-.1102-.5436-.3064-.7398l-5.6053-5.6053c-.1962-.1962-.4623-.3064-.7398-.3064Z"/><path class="uuid-92b7ef75-004a-4982-af93-d77fdf32cf99" d="M9.3483,5h25.8284v10.5529c0,1.7322-1.4064,3.1386-3.1386,3.1386H12.487c-1.7322,0-3.1386-1.4064-3.1386-3.1386V5h0Z"/><path class="uuid-a3bb5a8b-f1b6-4254-9d69-d4ab0fa8d190" d="M34.7205,5H12.8667v10.6304c0,1.4426,1.1734,2.6155,2.6155,2.6155h16.6228c1.4421,0,2.6155-1.1729,2.6155-2.6155V5Z"/><path class="uuid-078ac3ff-988f-43e1-8b62-3f6f78c9edb9" d="M13.3897,5h20.8078v10.6304c0,1.1548-.9376,2.0924-2.0924,2.0924H15.4821c-1.1548,0-2.0924-.9376-2.0924-2.0924V5h0Z"/><rect class="uuid-7ed1d6ad-deed-4aa0-b10c-654b7ac4f39c" x="11.4612" y="26.0663" width="25.0776" height="16.9337" rx="2.0924" ry="2.0924" transform="translate(48 69.0663) rotate(180)"/><rect class="uuid-0997d108-3309-42fd-a456-acdcb9ea4d0b" x="27.1386" y="7.222" width="4.1461" height="8.3696"/><circle class="uuid-92b7ef75-004a-4982-af93-d77fdf32cf99" cx="8.1134" cy="39.7574" r="2.6155"/><circle class="uuid-a3bb5a8b-f1b6-4254-9d69-d4ab0fa8d190" cx="8.1134" cy="39.7574" r="2.0924"/><circle class="uuid-92b7ef75-004a-4982-af93-d77fdf32cf99" cx="39.8868" cy="39.7574" r="2.6155"/><circle class="uuid-a3bb5a8b-f1b6-4254-9d69-d4ab0fa8d190" cx="39.8868" cy="39.7574" r="2.0924"/><circle class="uuid-f9da0107-1b10-4396-8acf-4adc6f36744b" cx="8.1132" cy="39.7578" r="1.5693"/><circle class="uuid-b567251c-df4d-4d62-9f78-d69458161993" cx="39.8868" cy="39.7578" r="1.5693"/></svg>