<?xml version="1.0" encoding="UTF-8"?><svg id="uuid-6a097388-3638-4389-8bcb-36669cb16c0e" xmlns="http://www.w3.org/2000/svg" width="48" height="48" xmlns:xlink="http://www.w3.org/1999/xlink" viewBox="0 0 48 48"><defs><style>.uuid-f7a05b91-0ea7-4672-97c8-7dd0eaad4cee{fill:url(#uuid-519a0ad8-a3cf-4bfe-ac34-211228c1c580);}.uuid-f7a05b91-0ea7-4672-97c8-7dd0eaad4cee,.uuid-36fe9f32-cbd0-43d6-9006-1343d06625e3,.uuid-aa029f4c-d753-4260-ba74-b4bf17576d33,.uuid-bc282aca-db40-4be9-be67-9663bc9e33c3,.uuid-9273b4e8-bb21-4c90-9bb9-68e5f90480d0,.uuid-59e262da-d767-4304-ab65-019521f04104,.uuid-4ed65a68-67e6-4d39-ad8b-851f516a8421,.uuid-73bcd2ef-043b-4adb-be48-83ef12c20079,.uuid-c61399c4-1783-4a2c-897e-9a2c93ec2390,.uuid-3388a5a6-253c-48e4-8e2f-691e9db47dfb,.uuid-d644b012-b544-494a-aa63-3547907e0eae{stroke-width:0px;}.uuid-36fe9f32-cbd0-43d6-9006-1343d06625e3{fill:url(#uuid-d0a0f5d7-acc6-4a93-af8d-2f364924945c);}.uuid-aa029f4c-d753-4260-ba74-b4bf17576d33{fill:url(#uuid-bfdef0be-711d-4f26-a5b6-301e588bacac);}.uuid-bc282aca-db40-4be9-be67-9663bc9e33c3{fill:url(#uuid-8b80f0f4-2793-41c9-bacc-39fa8982e83e);}.uuid-9273b4e8-bb21-4c90-9bb9-68e5f90480d0{opacity:.05;}.uuid-59e262da-d767-4304-ab65-019521f04104{fill:url(#uuid-0f799355-013d-4e92-92ad-4490c0b32bf0);}.uuid-4ed65a68-67e6-4d39-ad8b-851f516a8421{fill:url(#uuid-f3e5a584-0925-4e37-9cec-7d3460db1920);}.uuid-73bcd2ef-043b-4adb-be48-83ef12c20079{fill:url(#uuid-d7fc1db1-3067-4385-8cea-206e79666bcd);}.uuid-c61399c4-1783-4a2c-897e-9a2c93ec2390{fill:url(#uuid-0a7e5b31-2f97-49cf-a874-d72244eda4a9);}.uuid-3388a5a6-253c-48e4-8e2f-691e9db47dfb{fill:url(#uuid-adeafd2c-39e9-4ea3-a580-09d4b226249a);}.uuid-d644b012-b544-494a-aa63-3547907e0eae{opacity:.07;}</style><linearGradient id="uuid-adeafd2c-39e9-4ea3-a580-09d4b226249a" x1="10.1704" y1="3.9266" x2="35.9634" y2="45.8924" gradientUnits="userSpaceOnUse"><stop offset="0" stop-color="#ff9c0d"/><stop offset="1" stop-color="#f36e22"/></linearGradient><linearGradient id="uuid-d0a0f5d7-acc6-4a93-af8d-2f364924945c" x1="18.5185" y1="2.0285" x2="29.3987" y2="19.7309" gradientUnits="userSpaceOnUse"><stop offset="0" stop-color="#fff"/><stop offset=".242" stop-color="#f2f2f2"/><stop offset="1" stop-color="#ccc"/></linearGradient><linearGradient id="uuid-bfdef0be-711d-4f26-a5b6-301e588bacac" x1="17.2963" y1="23.6262" x2="30.793" y2="45.5855" gradientTransform="translate(48 69.0663) rotate(-180)" xlink:href="#uuid-d0a0f5d7-acc6-4a93-af8d-2f364924945c"/><linearGradient id="uuid-0f799355-013d-4e92-92ad-4490c0b32bf0" x1="26.9049" y1="7.6536" x2="31.8259" y2="15.6602" gradientUnits="userSpaceOnUse"><stop offset="0" stop-color="#64717c"/><stop offset="1" stop-color="#30363d"/></linearGradient><linearGradient id="uuid-f3e5a584-0925-4e37-9cec-7d3460db1920" x1="7.3347" y1="38.4912" x2="8.9955" y2="41.1933" xlink:href="#uuid-0f799355-013d-4e92-92ad-4490c0b32bf0"/><linearGradient id="uuid-8b80f0f4-2793-41c9-bacc-39fa8982e83e" x1="39.1083" y1="38.4912" x2="40.769" y2="41.1933" xlink:href="#uuid-0f799355-013d-4e92-92ad-4490c0b32bf0"/><radialGradient id="uuid-0a7e5b31-2f97-49cf-a874-d72244eda4a9" cx="32.4559" cy="63.5376" fx="32.4559" fy="63.5376" r="19.6765" gradientTransform="translate(0 94) scale(1 -1)" gradientUnits="userSpaceOnUse"><stop offset="0" stop-color="#fafafb"/><stop offset=".293" stop-color="#f6f7f8"/><stop offset=".566" stop-color="#ebecee"/><stop offset=".832" stop-color="#d8dcdf"/><stop offset="1" stop-color="#c8cdd1"/></radialGradient><linearGradient id="uuid-519a0ad8-a3cf-4bfe-ac34-211228c1c580" x1="34.3436" y1="32.1486" x2="40.6587" y2="42.2548" gradientUnits="userSpaceOnUse"><stop offset="0" stop-color="#9bf00b"/><stop offset="1" stop-color="#7abd08"/></linearGradient><linearGradient id="uuid-d7fc1db1-3067-4385-8cea-206e79666bcd" x1="38" y1="45.5" x2="38" y2="39.582" xlink:href="#uuid-519a0ad8-a3cf-4bfe-ac34-211228c1c580"/></defs><path class="uuid-3388a5a6-253c-48e4-8e2f-691e9db47dfb" d="M36.3485,5H7.0924c-1.1556,0-2.0924.9368-2.0924,2.0924v33.8152c0,1.1556.9368,2.0924,2.0924,2.0924h33.8152c1.1556,0,2.0924-.9368,2.0924-2.0924V11.6515c0-.2775-.1102-.5436-.3064-.7398l-5.6053-5.6053c-.1962-.1962-.4623-.3064-.7398-.3064Z"/><path class="uuid-9273b4e8-bb21-4c90-9bb9-68e5f90480d0" d="M9.3483,5h25.8284v10.5529c0,1.7322-1.4064,3.1386-3.1386,3.1386H12.487c-1.7322,0-3.1386-1.4064-3.1386-3.1386V5h0Z"/><path class="uuid-d644b012-b544-494a-aa63-3547907e0eae" d="M34.7205,5H12.8667v10.6304c0,1.4426,1.1734,2.6155,2.6155,2.6155h16.6228c1.4421,0,2.6155-1.1729,2.6155-2.6155V5Z"/><path class="uuid-36fe9f32-cbd0-43d6-9006-1343d06625e3" d="M13.3897,5h20.8078v10.6304c0,1.1548-.9376,2.0924-2.0924,2.0924H15.4821c-1.1548,0-2.0924-.9376-2.0924-2.0924V5h0Z"/><rect class="uuid-aa029f4c-d753-4260-ba74-b4bf17576d33" x="11.4612" y="26.0663" width="25.0776" height="16.9337" rx="2.0924" ry="2.0924" transform="translate(48 69.0663) rotate(180)"/><rect class="uuid-59e262da-d767-4304-ab65-019521f04104" x="27.1386" y="7.222" width="4.1461" height="8.3696"/><circle class="uuid-9273b4e8-bb21-4c90-9bb9-68e5f90480d0" cx="8.1134" cy="39.7574" r="2.6155"/><circle class="uuid-d644b012-b544-494a-aa63-3547907e0eae" cx="8.1134" cy="39.7574" r="2.0924"/><circle class="uuid-9273b4e8-bb21-4c90-9bb9-68e5f90480d0" cx="39.8868" cy="39.7574" r="2.6155"/><circle class="uuid-d644b012-b544-494a-aa63-3547907e0eae" cx="39.8868" cy="39.7574" r="2.0924"/><circle class="uuid-4ed65a68-67e6-4d39-ad8b-851f516a8421" cx="8.1132" cy="39.7578" r="1.5693"/><circle class="uuid-bc282aca-db40-4be9-be67-9663bc9e33c3" cx="39.8868" cy="39.7578" r="1.5693"/><path class="uuid-9273b4e8-bb21-4c90-9bb9-68e5f90480d0" d="M38,27c-6.0654,0-11,4.9346-11,11,0,1.4725.2957,2.876.823,4.1609h12.338c1.1046,0,2-.8954,2-2v-12.3379c-1.2849-.5273-2.6884-.823-4.1609-.823Z"/><path class="uuid-d644b012-b544-494a-aa63-3547907e0eae" d="M38,27.5c-5.7896,0-10.5,4.71-10.5,10.5,0,1.4781.3104,2.8839.8639,4.1609h11.7971c1.1046,0,2-.8954,2-2v-11.7969c-1.277-.5536-2.6829-.864-4.1609-.864Z"/><circle class="uuid-c61399c4-1783-4a2c-897e-9a2c93ec2390" cx="38" cy="38" r="10"/><path class="uuid-9273b4e8-bb21-4c90-9bb9-68e5f90480d0" d="M37.2093,46.4998c-.9873,0-1.791-.8032-1.791-1.791v-4.127h-4.127c-.9873,0-1.791-.8032-1.791-1.791v-1.582c0-.9878.8037-1.791,1.791-1.791h4.127v-4.127c0-.9878.8037-1.791,1.791-1.791h1.582c.9873,0,1.791.8032,1.791,1.791v4.127h4.127c.9873,0,1.791.8032,1.791,1.791v1.582c0,.9878-.8037,1.791-1.791,1.791h-4.127v4.127c0,.9878-.8037,1.791-1.791,1.791h-1.582Z"/><path class="uuid-d644b012-b544-494a-aa63-3547907e0eae" d="M37.2093,45.9998c-.7119,0-1.291-.5791-1.291-1.291v-4.627h-4.627c-.7119,0-1.291-.5791-1.291-1.291v-1.582c0-.7119.5791-1.291,1.291-1.291h4.627v-4.627c0-.7119.5791-1.291,1.291-1.291h1.582c.7119,0,1.291.5791,1.291,1.291v4.627h4.627c.7119,0,1.291.5791,1.291,1.291v1.582c0,.7119-.5791,1.291-1.291,1.291h-4.627v4.627c0,.7119-.5791,1.291-1.291,1.291h-1.582Z"/><path class="uuid-f7a05b91-0ea7-4672-97c8-7dd0eaad4cee" d="M44.709,36.418h-5.127v-5.127c0-.4369-.3542-.791-.791-.791h-1.582c-.4369,0-.791.3541-.791.791v5.127h-5.127c-.4369,0-.791.3541-.791.791v1.582c0,.4369.3542.791.791.791h13.418c.4369,0,.791-.3542.791-.791v-1.582c0-.4369-.3542-.791-.791-.791Z"/><path class="uuid-73bcd2ef-043b-4adb-be48-83ef12c20079" d="M36.418,39.582v5.127c0,.4369.3542.791.791.791h1.582c.4369,0,.791-.3542.791-.791v-5.127h-3.1641Z"/><rect class="uuid-9273b4e8-bb21-4c90-9bb9-68e5f90480d0" x="36.418" y="39.582" width="3.1641" height=".3955"/><rect class="uuid-d644b012-b544-494a-aa63-3547907e0eae" x="36.418" y="39.582" width="3.1641" height=".1978"/></svg>