<?xml version="1.0" encoding="UTF-8"?><svg id="uuid-f06e393f-6eb7-4012-9fa6-7194e5a8d08f" xmlns="http://www.w3.org/2000/svg" width="48" height="48" xmlns:xlink="http://www.w3.org/1999/xlink" viewBox="0 0 48 48"><defs><style>.uuid-994747f4-3dc9-4da2-b53c-0b899a8da95c{fill:url(#uuid-fcb1a8bd-efc8-43e7-b5b5-d631c0320fae);}.uuid-994747f4-3dc9-4da2-b53c-0b899a8da95c,.uuid-b3d17b5e-60e7-4699-935b-772294537fd1,.uuid-e4a93b7d-0d91-4eb9-82da-60bd99c8d805,.uuid-50b69b13-482b-4156-8744-5a6b29b21dcd,.uuid-748c4d91-eced-4e16-95b1-85b8bef04b8b,.uuid-724049e6-2958-49f8-83ff-494c8e227561,.uuid-a57d7270-21f7-45cf-b5a7-f423ef75f36f{stroke-width:0px;}.uuid-b3d17b5e-60e7-4699-935b-772294537fd1{fill:url(#uuid-9f65140d-9166-46b1-a004-fb180f6345e9);}.uuid-e4a93b7d-0d91-4eb9-82da-60bd99c8d805{opacity:.05;}.uuid-50b69b13-482b-4156-8744-5a6b29b21dcd{fill:url(#uuid-f7a874d5-3713-42f2-8e23-d4d1e372acd9);}.uuid-748c4d91-eced-4e16-95b1-85b8bef04b8b{fill:url(#uuid-87f8adae-6593-413e-be97-20771acda21e);}.uuid-724049e6-2958-49f8-83ff-494c8e227561{fill:url(#uuid-1ec23377-4599-4ec3-b6af-b1007cd23c44);}.uuid-a57d7270-21f7-45cf-b5a7-f423ef75f36f{opacity:.07;}</style><linearGradient id="uuid-1ec23377-4599-4ec3-b6af-b1007cd23c44" x1="17.2095" y1="35.0512" x2="30.881" y2="12.8072" gradientUnits="userSpaceOnUse"><stop offset="0" stop-color="#fff"/><stop offset=".242" stop-color="#f2f2f2"/><stop offset="1" stop-color="#ccc"/></linearGradient><linearGradient id="uuid-9f65140d-9166-46b1-a004-fb180f6345e9" x1="31.8713" y1="19.322" x2="35.056" y2="24.4185" gradientUnits="userSpaceOnUse"><stop offset="0" stop-color="#ff9c0d"/><stop offset="1" stop-color="#f36e22"/></linearGradient><linearGradient id="uuid-87f8adae-6593-413e-be97-20771acda21e" x1="9.759" y1="22.872" x2="12.9436" y2="27.9686" xlink:href="#uuid-9f65140d-9166-46b1-a004-fb180f6345e9"/><linearGradient id="uuid-f7a874d5-3713-42f2-8e23-d4d1e372acd9" x1="24.2259" y1="28.5218" x2="27.4106" y2="33.6183" xlink:href="#uuid-9f65140d-9166-46b1-a004-fb180f6345e9"/><linearGradient id="uuid-fcb1a8bd-efc8-43e7-b5b5-d631c0320fae" x1="16.2865" y1="11.7849" x2="19.4712" y2="16.8815" xlink:href="#uuid-9f65140d-9166-46b1-a004-fb180f6345e9"/></defs><path class="uuid-724049e6-2958-49f8-83ff-494c8e227561" d="M.7148,22.8695l21.8942-11.4666c.8632-.4521,1.9201-.4521,2.7833,0l21.8929,11.4666c.9531.4992.953,1.7676-.0003,2.2667l-21.8932,11.4611c-.8629.4518-1.9194.4518-2.7823,0L.715,25.1362c-.9533-.499-.9534-1.7675-.0003-2.2667Z"/><path class="uuid-e4a93b7d-0d91-4eb9-82da-60bd99c8d805" d="M33.4639,25.9661c-2.2585,0-4.0957-1.8377-4.0957-4.0962s1.8372-4.0952,4.0957-4.0952,4.0952,1.8366,4.0952,4.0952-1.8372,4.0962-4.0952,4.0962Z"/><path class="uuid-a57d7270-21f7-45cf-b5a7-f423ef75f36f" d="M33.4639,25.4206c-1.9576,0-3.5502-1.5927-3.5502-3.5508,0-1.957,1.5927-3.5497,3.5502-3.5497s3.5497,1.5927,3.5497,3.5497c0,1.9581-1.5922,3.5508-3.5497,3.5508Z"/><circle class="uuid-b3d17b5e-60e7-4699-935b-772294537fd1" cx="33.4637" cy="21.8702" r="3.0045"/><path class="uuid-e4a93b7d-0d91-4eb9-82da-60bd99c8d805" d="M11.3511,29.5158c-2.258,0-4.0952-1.8366-4.0952-4.0952s1.8372-4.0952,4.0952-4.0952,4.0957,1.8366,4.0957,4.0952-1.8372,4.0952-4.0957,4.0952Z"/><path class="uuid-a57d7270-21f7-45cf-b5a7-f423ef75f36f" d="M11.3511,28.9703c-1.9576,0-3.5497-1.5927-3.5497-3.5497s1.5922-3.5497,3.5497-3.5497,3.5502,1.5927,3.5502,3.5497-1.5927,3.5497-3.5502,3.5497Z"/><circle class="uuid-748c4d91-eced-4e16-95b1-85b8bef04b8b" cx="11.3513" cy="25.4203" r="3.0045"/><path class="uuid-e4a93b7d-0d91-4eb9-82da-60bd99c8d805" d="M25.8184,35.1659c-2.2585,0-4.0957-1.8377-4.0957-4.0962s1.8372-4.0952,4.0957-4.0952,4.0952,1.8366,4.0952,4.0952-1.8372,4.0962-4.0952,4.0962Z"/><path class="uuid-a57d7270-21f7-45cf-b5a7-f423ef75f36f" d="M25.8184,34.6204c-1.9576,0-3.5502-1.5927-3.5502-3.5508,0-1.957,1.5927-3.5497,3.5502-3.5497s3.5497,1.5927,3.5497,3.5497c0,1.9581-1.5922,3.5508-3.5497,3.5508Z"/><circle class="uuid-50b69b13-482b-4156-8744-5a6b29b21dcd" cx="25.8182" cy="31.0701" r="3.0045"/><path class="uuid-e4a93b7d-0d91-4eb9-82da-60bd99c8d805" d="M17.8791,18.429c2.258,0,4.0952-1.8377,4.0952-4.0962,0-.8287-.2513-1.5982-.676-2.2434l-7.211,3.7766c.6086,1.5,2.0761,2.563,3.7919,2.563Z"/><path class="uuid-a57d7270-21f7-45cf-b5a7-f423ef75f36f" d="M17.8791,17.8835c1.9576,0,3.5497-1.5927,3.5497-3.5508,0-.7373-.2267-1.4224-.6132-1.9907l-6.2396,3.2679c.5149,1.3268,1.7968,2.2736,3.303,2.2736Z"/><circle class="uuid-994747f4-3dc9-4da2-b53c-0b899a8da95c" cx="17.8788" cy="14.3332" r="3.0045"/></svg>