<?xml version="1.0" encoding="UTF-8"?><svg id="uuid-5b1e4044-ffec-4165-a915-007b5c656d6a" xmlns="http://www.w3.org/2000/svg" width="48" height="48" xmlns:xlink="http://www.w3.org/1999/xlink" viewBox="0 0 48 48"><defs><style>.uuid-a9eb7786-80eb-49b4-833f-1219d791d0d4{fill:url(#uuid-0c5f458b-2d81-4761-b98b-b9fa1e6a6967);}.uuid-a9eb7786-80eb-49b4-833f-1219d791d0d4,.uuid-8d49d926-6fe8-481d-ad7c-c143c3f2f604,.uuid-8ba27b86-4fd2-4314-8463-a0ac90d9a67c,.uuid-727cb82d-0b0e-4e19-9074-82861803088e,.uuid-7c724b7b-9d22-4f41-a4ed-e5f803dea597,.uuid-5246a80c-7f8e-4e6b-af42-9571b3f953d3,.uuid-5099d2bc-af66-4e81-89c0-07d52364d34d,.uuid-e7669eff-4d28-4ac2-85bc-512a0ee8ab01,.uuid-f679c525-54e0-435b-a493-ad016df31bd2,.uuid-8dd27293-dce8-44bc-9d9c-510fa0f3fda3{stroke-width:0px;}.uuid-8d49d926-6fe8-481d-ad7c-c143c3f2f604{fill:url(#uuid-fa8d97cd-17eb-47b3-a469-e695a4420669);}.uuid-8d49d926-6fe8-481d-ad7c-c143c3f2f604,.uuid-a2cf7ee1-2860-4259-a928-35c145e7c9f1{opacity:.75;}.uuid-8ba27b86-4fd2-4314-8463-a0ac90d9a67c{fill:url(#uuid-0f4fca10-9665-4f69-8682-48e5da624c28);}.uuid-727cb82d-0b0e-4e19-9074-82861803088e{fill:url(#uuid-fbef5de3-1622-48ca-8ccc-df5c8dbdbf01);}.uuid-7c724b7b-9d22-4f41-a4ed-e5f803dea597{fill:url(#uuid-b9883642-c57e-4655-929e-253864b6e915);}.uuid-5246a80c-7f8e-4e6b-af42-9571b3f953d3{fill:url(#uuid-b856f9e1-2433-4b5d-bceb-ab7ed2eef190);}.uuid-a2cf7ee1-2860-4259-a928-35c145e7c9f1{fill:none;stroke:url(#uuid-cc6c846f-fd3e-49b5-8bc5-d0c012b82c40);stroke-dasharray:0 0 6.1722 6.1722;stroke-linecap:round;stroke-linejoin:round;stroke-width:1.5px;}.uuid-5099d2bc-af66-4e81-89c0-07d52364d34d{fill:url(#uuid-8bd318fc-0bcd-43c4-844b-8467b5f9e84e);}.uuid-e7669eff-4d28-4ac2-85bc-512a0ee8ab01{fill:url(#uuid-923edc09-0b77-433e-af4a-c9ff442c0c58);isolation:isolate;opacity:.15;}.uuid-f679c525-54e0-435b-a493-ad016df31bd2{fill:url(#uuid-63c53e1f-63a7-4a5d-b915-76e3edce2f2a);}.uuid-8dd27293-dce8-44bc-9d9c-510fa0f3fda3{opacity:.07;}</style><linearGradient id="uuid-63c53e1f-63a7-4a5d-b915-76e3edce2f2a" x1="11.2815" y1="-9.3067" x2="37.0177" y2="-51.18" gradientTransform="translate(0 -6) scale(1 -1)" gradientUnits="userSpaceOnUse"><stop offset="0" stop-color="#ff9c0d"/><stop offset="1" stop-color="#f36e22"/></linearGradient><linearGradient id="uuid-cc6c846f-fd3e-49b5-8bc5-d0c012b82c40" x1="10.1773" y1="1.879" x2="37.8227" y2="46.121" gradientUnits="userSpaceOnUse"><stop offset="0" stop-color="#fff"/><stop offset=".242" stop-color="#f2f2f2"/><stop offset="1" stop-color="#ccc"/></linearGradient><linearGradient id="uuid-fbef5de3-1622-48ca-8ccc-df5c8dbdbf01" x1="-744.4659" y1="327.5638" x2="-746.1938" y2="324.7986" gradientTransform="translate(759.8364 -313.7658)" gradientUnits="userSpaceOnUse"><stop offset="0" stop-color="#64717c"/><stop offset="1" stop-color="#30363d"/></linearGradient><linearGradient id="uuid-b9883642-c57e-4655-929e-253864b6e915" x1="15.8007" y1="10.051" x2="32.1993" y2="36.2943" xlink:href="#uuid-cc6c846f-fd3e-49b5-8bc5-d0c012b82c40"/><linearGradient id="uuid-0c5f458b-2d81-4761-b98b-b9fa1e6a6967" x1="19.8786" y1="25.2991" x2="28.2796" y2="38.7436" gradientTransform="matrix(1,0,0,1,0,0)" xlink:href="#uuid-fbef5de3-1622-48ca-8ccc-df5c8dbdbf01"/><radialGradient id="uuid-923edc09-0b77-433e-af4a-c9ff442c0c58" cx="40.8461" cy="-53.9932" fx="40.8461" fy="-53.9932" r="9.6765" gradientTransform="translate(-6.603 -24.797) scale(.8774 -.8774)" gradientUnits="userSpaceOnUse"><stop offset=".847" stop-color="#000"/><stop offset="1" stop-color="#000" stop-opacity="0"/></radialGradient><radialGradient id="uuid-b856f9e1-2433-4b5d-bceb-ab7ed2eef190" cx="36.2866" cy="-47.7942" fx="36.2866" fy="-47.7942" r="16.1821" gradientTransform="translate(-6.603 -24.797) scale(.8774 -.8774)" gradientUnits="userSpaceOnUse"><stop offset="0" stop-color="#fafafb"/><stop offset=".293" stop-color="#f6f7f8"/><stop offset=".566" stop-color="#ebecee"/><stop offset=".832" stop-color="#d8dcdf"/><stop offset="1" stop-color="#c8cdd1"/></radialGradient><linearGradient id="uuid-0f4fca10-9665-4f69-8682-48e5da624c28" x1="26.5386" y1="26.9638" x2="31.9952" y2="18.0858" gradientTransform="matrix(1,0,0,1,0,0)" xlink:href="#uuid-63c53e1f-63a7-4a5d-b915-76e3edce2f2a"/><linearGradient id="uuid-fa8d97cd-17eb-47b3-a469-e695a4420669" x1="26.8679" y1="18.7879" x2="31.6025" y2="26.3649" xlink:href="#uuid-cc6c846f-fd3e-49b5-8bc5-d0c012b82c40"/><linearGradient id="uuid-8bd318fc-0bcd-43c4-844b-8467b5f9e84e" x1="13.7765" y1="16.1364" x2="15.171" y2="18.3681" gradientTransform="matrix(1,0,0,1,0,0)" xlink:href="#uuid-63c53e1f-63a7-4a5d-b915-76e3edce2f2a"/></defs><rect class="uuid-f679c525-54e0-435b-a493-ad016df31bd2" x="5" y="5" width="38" height="38" rx="2.2353" ry="2.2353"/><rect class="uuid-a2cf7ee1-2860-4259-a928-35c145e7c9f1" x="5" y="5" width="38" height="38" rx="2.2353" ry="2.2353"/><path class="uuid-727cb82d-0b0e-4e19-9074-82861803088e" d="M12.1836,11.9106h4.5804v.7c0,.3935-.3195.7131-.7131.7131h-3.1543c-.3935,0-.7131-.3195-.7131-.7131v-.7h0Z" transform="translate(28.9475 25.2342) rotate(180)"/><rect class="uuid-7c724b7b-9d22-4f41-a4ed-e5f803dea597" x="9.6254" y="13.3237" width="28.7492" height="19.698" rx="1.3156" ry="1.3156"/><path class="uuid-8dd27293-dce8-44bc-9d9c-510fa0f3fda3" d="M38.3746,31.706v-.3285c-.0883,0-.1682.0347-.2273.0912H9.8527c-.0591-.0565-.139-.0911-.2273-.0912v.3285c0,.7266.589,1.3156,1.3156,1.3156h26.1179c.7266,0,1.3156-.589,1.3156-1.3156Z"/><path class="uuid-a9eb7786-80eb-49b4-833f-1219d791d0d4" d="M37.059,33.0217H10.941c-.7266,0-1.3156-.589-1.3156-1.3156v.0914h28.7492v-.0914c0,.7266-.589,1.3156-1.3156,1.3156Z"/><circle class="uuid-e7669eff-4d28-4ac2-85bc-512a0ee8ab01" cx="29.2352" cy="22.5764" r="8.4901"/><circle class="uuid-5246a80c-7f8e-4e6b-af42-9571b3f953d3" cx="29.2352" cy="22.5764" r="7.2158"/><circle class="uuid-8ba27b86-4fd2-4314-8463-a0ac90d9a67c" cx="29.2352" cy="22.5764" r="5.3622"/><path class="uuid-8dd27293-dce8-44bc-9d9c-510fa0f3fda3" d="M29.2352,17.2142c-2.9615,0-5.3622,2.4007-5.3622,5.3622s2.4007,5.3622,5.3622,5.3622,5.3622-2.4007,5.3622-5.3622-2.4007-5.3622-5.3622-5.3622ZM29.2351,27.4917c-2.7103,0-4.9153-2.2054-4.9153-4.9153s2.205-4.9153,4.9153-4.9153,4.9153,2.2054,4.9153,4.9153-2.205,4.9153-4.9153,4.9153Z"/><circle class="uuid-8d49d926-6fe8-481d-ad7c-c143c3f2f604" cx="29.2352" cy="22.5764" r="4.4685"/><circle class="uuid-5099d2bc-af66-4e81-89c0-07d52364d34d" cx="14.4738" cy="17.2523" r="1.3156"/></svg>