<?xml version="1.0" encoding="UTF-8"?><svg id="uuid-7a82c6f5-6a84-466f-9ebc-0e997db725eb" xmlns="http://www.w3.org/2000/svg" width="48" height="48" xmlns:xlink="http://www.w3.org/1999/xlink" viewBox="0 0 48 48"><defs><style>.uuid-ebf0425c-6204-45ed-8dc8-10a62a7be1c0{fill:url(#uuid-596af1cc-7bb6-43ea-8087-d1af5d2ea206);}.uuid-ebf0425c-6204-45ed-8dc8-10a62a7be1c0,.uuid-0e7fe683-314a-4a95-aa4b-9e4b39204d41,.uuid-5b9f4481-9363-42ef-8956-59c4ab33da0d,.uuid-d9aa3dca-7fce-449b-97f3-50a06a070157,.uuid-9c7b8452-979c-4f43-aa3b-fd7501f0a492{stroke-width:0px;}.uuid-1684e5f8-601e-4233-a8ba-7755505ec0b6{opacity:.05;}.uuid-6418ea84-695d-487a-9eb8-4fa7794c774a{opacity:.07;}.uuid-5b9f4481-9363-42ef-8956-59c4ab33da0d{fill:url(#uuid-1d22ef1f-d6c2-4f3f-b6a0-6fd7b5c1115d);}.uuid-d9aa3dca-7fce-449b-97f3-50a06a070157{fill:#3f474f;}.uuid-9c7b8452-979c-4f43-aa3b-fd7501f0a492{fill:url(#uuid-f021a1b8-e031-4d3f-848c-12db142a0e59);}</style><linearGradient id="uuid-1d22ef1f-d6c2-4f3f-b6a0-6fd7b5c1115d" x1="41.7072" y1="182.7072" x2="36.7072" y2="187.7072" gradientTransform="translate(0 194) scale(1 -1)" gradientUnits="userSpaceOnUse"><stop offset=".266" stop-color="#e5692c"/><stop offset=".582" stop-color="#e06725"/><stop offset=".745" stop-color="#de6425"/><stop offset=".873" stop-color="#d55e26"/><stop offset=".982" stop-color="#ce5c2d"/><stop offset="1" stop-color="#c05827"/></linearGradient><linearGradient id="uuid-596af1cc-7bb6-43ea-8087-d1af5d2ea206" x1="12.763" y1="188.9997" x2="35.5936" y2="151.8538" gradientTransform="translate(0 194) scale(1 -1)" gradientUnits="userSpaceOnUse"><stop offset="0" stop-color="#ff9c0d"/><stop offset="1" stop-color="#f36e22"/></linearGradient><linearGradient id="uuid-f021a1b8-e031-4d3f-848c-12db142a0e59" x1="20" y1="157" x2="20" y2="152" xlink:href="#uuid-1d22ef1f-d6c2-4f3f-b6a0-6fd7b5c1115d"/></defs><path class="uuid-5b9f4481-9363-42ef-8956-59c4ab33da0d" d="M37,11h5v-3c0-1.105-.895-2-2-2h-3v5Z"/><path class="uuid-ebf0425c-6204-45ed-8dc8-10a62a7be1c0" d="M36,42H10c-1.105,0-2-.895-2-2V8c0-1.105.895-2,2-2h30c-1.105,0-2,.895-2,2v32c0,1.105-.895,2-2,2Z"/><path class="uuid-9c7b8452-979c-4f43-aa3b-fd7501f0a492" d="M34,40v-3H4v3c0,1.105.895,2,2,2h30c-1.105,0-2-.895-2-2Z"/><g class="uuid-1684e5f8-601e-4233-a8ba-7755505ec0b6"><rect class="uuid-0e7fe683-314a-4a95-aa4b-9e4b39204d41" x="12" y="15" width="22" height="5" rx="1.5" ry="1.5"/><rect class="uuid-0e7fe683-314a-4a95-aa4b-9e4b39204d41" x="12" y="21" width="22" height="5" rx="1.5" ry="1.5"/><rect class="uuid-0e7fe683-314a-4a95-aa4b-9e4b39204d41" x="12" y="27" width="22" height="5" rx="1.5" ry="1.5"/></g><g class="uuid-6418ea84-695d-487a-9eb8-4fa7794c774a"><rect class="uuid-0e7fe683-314a-4a95-aa4b-9e4b39204d41" x="12.5" y="15.5" width="21" height="4" rx="1" ry="1"/><rect class="uuid-0e7fe683-314a-4a95-aa4b-9e4b39204d41" x="12.5" y="21.5" width="21" height="4" rx="1" ry="1"/><rect class="uuid-0e7fe683-314a-4a95-aa4b-9e4b39204d41" x="12.5" y="27.5" width="21" height="4" rx="1" ry="1"/></g><path class="uuid-d9aa3dca-7fce-449b-97f3-50a06a070157" d="M32.5,19H13.5c-.276,0-.5-.224-.5-.5v-2c0-.276.224-.5.5-.5h19c.276,0,.5.224.5.5v2c0,.276-.224.5-.5.5Z"/><path class="uuid-d9aa3dca-7fce-449b-97f3-50a06a070157" d="M32.5,25H13.5c-.276,0-.5-.224-.5-.5v-2c0-.276.224-.5.5-.5h19c.276,0,.5.224.5.5v2c0,.276-.224.5-.5.5Z"/><path class="uuid-d9aa3dca-7fce-449b-97f3-50a06a070157" d="M32.5,31H13.5c-.276,0-.5-.224-.5-.5v-2c0-.276.224-.5.5-.5h19c.276,0,.5.224.5.5v2c0,.276-.224.5-.5.5Z"/></svg>