<?xml version="1.0" encoding="UTF-8"?><svg id="uuid-c004475a-d910-4919-b848-e046b4365827" xmlns="http://www.w3.org/2000/svg" width="48" height="48" xmlns:xlink="http://www.w3.org/1999/xlink" viewBox="0 0 48 48"><defs><style>.uuid-d5249c42-efb4-4399-b355-dc384a479278{fill:url(#uuid-b11ac32c-d292-4148-91aa-95c3c1c3cdf6);}.uuid-d5249c42-efb4-4399-b355-dc384a479278,.uuid-7e1e1206-0397-4a57-8de9-ac8721a81f62,.uuid-d062d5c4-22e2-4483-b0eb-0be400fbe09e,.uuid-712641ba-333b-49f6-b133-61cfe1025126{stroke-width:0px;}.uuid-7e1e1206-0397-4a57-8de9-ac8721a81f62{opacity:.05;}.uuid-d062d5c4-22e2-4483-b0eb-0be400fbe09e{fill:url(#uuid-bd55b261-4932-4039-aaa3-c6cb089fda1b);}.uuid-712641ba-333b-49f6-b133-61cfe1025126{opacity:.07;}</style><linearGradient id="uuid-bd55b261-4932-4039-aaa3-c6cb089fda1b" x1="9.3334" y1="-9.8731" x2="26.9424" y2="-38.5232" gradientTransform="translate(0 -6) scale(1 -1)" gradientUnits="userSpaceOnUse"><stop offset="0" stop-color="#fff"/><stop offset=".242" stop-color="#f2f2f2"/><stop offset="1" stop-color="#ccc"/></linearGradient><linearGradient id="uuid-b11ac32c-d292-4148-91aa-95c3c1c3cdf6" x1="21.3388" y1="-21.8784" x2="38.9478" y2="-50.5286" gradientTransform="translate(0 -6) scale(1 -1)" gradientUnits="userSpaceOnUse"><stop offset="0" stop-color="#ff9c0d"/><stop offset="1" stop-color="#f36e22"/></linearGradient></defs><path class="uuid-d062d5c4-22e2-4483-b0eb-0be400fbe09e" d="M29.5062,31.0317H6.565c-.8412,0-1.5294-.6882-1.5294-1.5294V6.5611c0-.8412.6882-1.5294,1.5294-1.5294h22.9412c.8412,0,1.5294.6882,1.5294,1.5294v22.9412c0,.8412-.6882,1.5294-1.5294,1.5294Z"/><path class="uuid-7e1e1206-0397-4a57-8de9-ac8721a81f62" d="M18.5703,16.0371c-1.3945,0-2.5293,1.1348-2.5293,2.5293v12.4652h13.4651c.8412,0,1.5294-.6882,1.5294-1.5294v-13.4651h-12.4653Z"/><path class="uuid-712641ba-333b-49f6-b133-61cfe1025126" d="M18.5703,16.5371c-1.1191,0-2.0293.9102-2.0293,2.0293v12.4652h12.9651c.8412,0,1.5294-.6882,1.5294-1.5294v-12.9651h-12.4653Z"/><path class="uuid-d5249c42-efb4-4399-b355-dc384a479278" d="M41.5116,43.037h-22.9412c-.8412,0-1.5294-.6882-1.5294-1.5294v-22.9412c0-.8412.6882-1.5294,1.5294-1.5294h22.9412c.8412,0,1.5294.6882,1.5294,1.5294v22.9412c0,.8412-.6882,1.5294-1.5294,1.5294Z"/></svg>