<?xml version="1.0" encoding="UTF-8"?><svg id="uuid-e20c91a6-3b8b-4029-a7a1-b206b1366f33" xmlns="http://www.w3.org/2000/svg" width="48" height="48" xmlns:xlink="http://www.w3.org/1999/xlink" viewBox="0 0 48 48"><defs><style>.uuid-8b026146-638f-4f5e-8298-c256d1969a30{fill:url(#uuid-338470ad-cff5-42c5-bf8b-9c5f0868edf4);}.uuid-8b026146-638f-4f5e-8298-c256d1969a30,.uuid-2552e441-2f81-4852-85b6-6287442444f4,.uuid-84fa6a29-274b-4662-abd6-163a2f1be67d,.uuid-5718d3aa-1852-4900-a2f7-22a55dc13c61{stroke-width:0px;}.uuid-2552e441-2f81-4852-85b6-6287442444f4{opacity:.05;}.uuid-84fa6a29-274b-4662-abd6-163a2f1be67d{fill:url(#uuid-fc4c5bf4-e805-425c-81f9-468a6c22ca64);opacity:.75;}.uuid-5718d3aa-1852-4900-a2f7-22a55dc13c61{opacity:.07;}</style><linearGradient id="uuid-338470ad-cff5-42c5-bf8b-9c5f0868edf4" x1="9.3334" y1="-109.8731" x2="26.9424" y2="-138.5232" gradientTransform="translate(0 -106) scale(1 -1)" gradientUnits="userSpaceOnUse"><stop offset="0" stop-color="#ff9c0d"/><stop offset="1" stop-color="#f36e22"/></linearGradient><linearGradient id="uuid-fc4c5bf4-e805-425c-81f9-468a6c22ca64" x1="21.3388" y1="-121.8784" x2="38.9478" y2="-150.5286" gradientTransform="translate(0 -106) scale(1 -1)" gradientUnits="userSpaceOnUse"><stop offset="0" stop-color="#fff"/><stop offset=".242" stop-color="#f2f2f2"/><stop offset="1" stop-color="#ccc"/></linearGradient></defs><path class="uuid-8b026146-638f-4f5e-8298-c256d1969a30" d="M29.5062,31.0317H6.565c-.8412,0-1.5294-.6882-1.5294-1.5294V6.5611c0-.8412.6882-1.5294,1.5294-1.5294h22.9412c.8412,0,1.5294.6882,1.5294,1.5294v22.9412c0,.8412-.6882,1.5294-1.5294,1.5294Z"/><path class="uuid-2552e441-2f81-4852-85b6-6287442444f4" d="M18.5703,16.0371c-1.3945,0-2.5293,1.1348-2.5293,2.5293v12.4652h13.4651c.8412,0,1.5294-.6882,1.5294-1.5294v-13.4651h-12.4653Z"/><path class="uuid-5718d3aa-1852-4900-a2f7-22a55dc13c61" d="M18.5703,16.5371c-1.1191,0-2.0293.9102-2.0293,2.0293v12.4652h12.9651c.8412,0,1.5294-.6882,1.5294-1.5294v-12.9651h-12.4653Z"/><path class="uuid-84fa6a29-274b-4662-abd6-163a2f1be67d" d="M41.5116,43.037h-22.9412c-.8412,0-1.5294-.6882-1.5294-1.5294v-22.9412c0-.8412.6882-1.5294,1.5294-1.5294h22.9412c.8412,0,1.5294.6882,1.5294,1.5294v22.9412c0,.8412-.6882,1.5294-1.5294,1.5294Z"/></svg>