<?xml version="1.0" encoding="UTF-8"?><svg id="uuid-f1f8c29d-6edc-4d76-a5ce-401347d5c7b8" xmlns="http://www.w3.org/2000/svg" width="48" height="48" xmlns:xlink="http://www.w3.org/1999/xlink" viewBox="0 0 48 48"><defs><style>.uuid-d6bde23e-b38c-401b-a45a-53f31042237b{fill:url(#uuid-48477813-8b59-43ba-b7ea-ea1145cd1d52);}.uuid-d6bde23e-b38c-401b-a45a-53f31042237b,.uuid-797c57df-e2bd-4048-8135-d4952284515a,.uuid-2a9b93cb-322d-48b8-aa64-a5415327efea,.uuid-ff8eb3e4-760d-422d-8644-ec0e7986498c,.uuid-e7bbd85b-128a-4d71-a079-5af54e17e480,.uuid-1bcf92b4-5317-4ac3-a758-15c53b8939b1,.uuid-6885a95b-8c5b-419d-bb7f-2a87e22b200d,.uuid-7e6cd71e-dd54-4ea7-bee1-a3b8146996f6,.uuid-acf8f85a-a060-45cd-8abf-77cfc9af66b3,.uuid-b18ccc46-24af-4fc0-86ee-131eac64a5e9,.uuid-b72b6718-c8e8-462a-8251-0a8fe1574c4c,.uuid-9aa23af0-5c5a-4b96-a5f4-d9e8c18c46fe{stroke-width:0px;}.uuid-797c57df-e2bd-4048-8135-d4952284515a{fill:url(#uuid-aa81beb1-0a2b-4b4a-afa7-3a5686fc8dcc);}.uuid-2a9b93cb-322d-48b8-aa64-a5415327efea{fill:url(#uuid-511ffa6d-02ac-4ff8-9312-1f0f57dc1ccf);}.uuid-ff8eb3e4-760d-422d-8644-ec0e7986498c{fill:url(#uuid-df18c374-1abc-430f-956e-613dd29f2436);}.uuid-e7bbd85b-128a-4d71-a079-5af54e17e480{fill:url(#uuid-c95262a9-7d24-43b8-a72d-c870d68ec149);}.uuid-1bcf92b4-5317-4ac3-a758-15c53b8939b1{fill:url(#uuid-2de14b59-846a-4d97-b602-469ab2bfa131);}.uuid-6885a95b-8c5b-419d-bb7f-2a87e22b200d{fill:url(#uuid-c3b6ac9b-0ee4-4585-acbb-7a505a27992a);}.uuid-7e6cd71e-dd54-4ea7-bee1-a3b8146996f6{fill:url(#uuid-1f2d3861-421c-4b96-8058-8cf31d6d065a);}.uuid-acf8f85a-a060-45cd-8abf-77cfc9af66b3{fill:url(#uuid-3612d259-3da7-4ec8-bc00-81255fe126b2);}.uuid-b18ccc46-24af-4fc0-86ee-131eac64a5e9{fill:url(#uuid-b8cc8040-018a-48dc-bfa1-359312c2b2ec);}.uuid-b72b6718-c8e8-462a-8251-0a8fe1574c4c{fill:url(#uuid-306abb0c-566f-4111-aa37-d7da9e180a46);}.uuid-9aa23af0-5c5a-4b96-a5f4-d9e8c18c46fe{fill:url(#uuid-ad525ca0-fad4-458b-b331-0e8a0c13ba21);}</style><linearGradient id="uuid-48477813-8b59-43ba-b7ea-ea1145cd1d52" x1="8.146" y1="369.854" x2="26.654" y2="351.346" gradientTransform="translate(0 394) scale(1 -1)" gradientUnits="userSpaceOnUse"><stop offset="0" stop-color="#889097"/><stop offset=".331" stop-color="#848c94"/><stop offset=".669" stop-color="#78828b"/><stop offset="1" stop-color="#64717c"/></linearGradient><linearGradient id="uuid-2de14b59-846a-4d97-b602-469ab2bfa131" x1="21.877" y1="356.123" x2="12.058" y2="365.942" gradientTransform="translate(0 394) scale(1 -1)" gradientUnits="userSpaceOnUse"><stop offset="0" stop-color="#fff"/><stop offset=".242" stop-color="#f2f2f2"/><stop offset="1" stop-color="#ccc"/></linearGradient><linearGradient id="uuid-b8cc8040-018a-48dc-bfa1-359312c2b2ec" x1="14.8572" y1="364.4864" x2="19.1932" y2="357.4316" gradientTransform="translate(0 394) scale(1 -1)" gradientUnits="userSpaceOnUse"><stop offset="0" stop-color="#ff9c0d"/><stop offset="1" stop-color="#f36e22"/></linearGradient><linearGradient id="uuid-c95262a9-7d24-43b8-a72d-c870d68ec149" x1="10.5562" y1="371.4842" x2="24.3026" y2="349.1184" xlink:href="#uuid-2de14b59-846a-4d97-b602-469ab2bfa131"/><linearGradient id="uuid-c3b6ac9b-0ee4-4585-acbb-7a505a27992a" x1="21.877" y1="356.123" x2="12.058" y2="365.942" gradientTransform="translate(0 394) scale(1 -1)" gradientUnits="userSpaceOnUse"><stop offset="0" stop-color="#64717c"/><stop offset="1" stop-color="#30363d"/></linearGradient><linearGradient id="uuid-df18c374-1abc-430f-956e-613dd29f2436" x1="14.9884" y1="364.2728" x2="19.0589" y2="357.6502" xlink:href="#uuid-b8cc8040-018a-48dc-bfa1-359312c2b2ec"/><linearGradient id="uuid-511ffa6d-02ac-4ff8-9312-1f0f57dc1ccf" x1="14.8215" y1="418.7901" x2="30.5005" y2="403.1101" gradientTransform="translate(118.8813 417.0538) rotate(-14.999) scale(1 -1)" xlink:href="#uuid-48477813-8b59-43ba-b7ea-ea1145cd1d52"/><linearGradient id="uuid-1f2d3861-421c-4b96-8058-8cf31d6d065a" x1="26.4533" y1="407.1579" x2="18.1353" y2="415.4759" gradientTransform="translate(118.8813 417.0538) rotate(-14.999) scale(1 -1)" xlink:href="#uuid-2de14b59-846a-4d97-b602-469ab2bfa131"/><linearGradient id="uuid-306abb0c-566f-4111-aa37-d7da9e180a46" x1="20.5066" y1="414.2427" x2="24.1797" y2="408.2665" gradientTransform="translate(118.8813 417.0538) rotate(-14.999) scale(1 -1)" xlink:href="#uuid-b8cc8040-018a-48dc-bfa1-359312c2b2ec"/><linearGradient id="uuid-3612d259-3da7-4ec8-bc00-81255fe126b2" x1="16.8625" y1="420.1717" x2="28.5087" y2="401.2231" gradientTransform="translate(118.8813 417.0538) rotate(-14.999) scale(1 -1)" xlink:href="#uuid-2de14b59-846a-4d97-b602-469ab2bfa131"/><linearGradient id="uuid-ad525ca0-fad4-458b-b331-0e8a0c13ba21" x1="37.668" y1="374.35" x2="29.35" y2="382.668" gradientTransform="translate(.463 392.481) scale(1 -1)" xlink:href="#uuid-c3b6ac9b-0ee4-4585-acbb-7a505a27992a"/><linearGradient id="uuid-aa81beb1-0a2b-4b4a-afa7-3a5686fc8dcc" x1="31.8327" y1="381.2539" x2="35.2814" y2="375.6429" gradientTransform="translate(.463 392.481) scale(1 -1)" xlink:href="#uuid-b8cc8040-018a-48dc-bfa1-359312c2b2ec"/></defs><path class="uuid-d6bde23e-b38c-401b-a45a-53f31042237b" d="M29.63,29.968c-1.55.197-3.139-.529-3.97-1.968-.83-1.438-.665-3.177.28-4.421-1.468-1.394-3.256-2.45-5.249-3.039-.603,1.444-2.028,2.46-3.691,2.46s-3.088-1.016-3.691-2.46c-1.993.59-3.781,1.645-5.249,3.039.945,1.244,1.11,2.983.28,4.421s-2.419,2.165-3.97,1.968c-.233.974-.37,1.986-.37,3.032s.137,2.058.37,3.032c1.55-.197,3.139.53,3.97,1.968.83,1.438.665,3.177-.28,4.421,1.468,1.394,3.256,2.45,5.249,3.039.603-1.444,2.028-2.46,3.691-2.46s3.088,1.016,3.691,2.46c1.993-.59,3.781-1.645,5.249-3.039-.945-1.244-1.111-2.983-.28-4.421.83-1.438,2.419-2.165,3.97-1.968.233-.974.37-1.986.37-3.032s-.137-2.058-.37-3.032Z"/><circle class="uuid-1bcf92b4-5317-4ac3-a758-15c53b8939b1" cx="17" cy="33" r="7"/><circle class="uuid-b18ccc46-24af-4fc0-86ee-131eac64a5e9" cx="17" cy="33" r="4.261"/><path class="uuid-e7bbd85b-128a-4d71-a079-5af54e17e480" d="M29.63,29.968c-1.55.197-3.139-.529-3.97-1.968-.83-1.438-.665-3.177.28-4.421-1.468-1.394-3.256-2.45-5.249-3.039-.603,1.444-2.028,2.46-3.691,2.46s-3.088-1.016-3.691-2.46c-1.993.59-3.781,1.645-5.249,3.039.945,1.244,1.11,2.983.28,4.421s-2.419,2.165-3.97,1.968c-.233.974-.37,1.986-.37,3.032s.137,2.058.37,3.032c1.55-.197,3.139.53,3.97,1.968.83,1.438.665,3.177-.28,4.421,1.468,1.394,3.256,2.45,5.249,3.039.603-1.444,2.028-2.46,3.691-2.46s3.088,1.016,3.691,2.46c1.993-.59,3.781-1.645,5.249-3.039-.945-1.244-1.111-2.983-.28-4.421.83-1.438,2.419-2.165,3.97-1.968.233-.974.37-1.986.37-3.032s-.137-2.058-.37-3.032Z"/><circle class="uuid-6885a95b-8c5b-419d-bb7f-2a87e22b200d" cx="17" cy="33" r="7"/><circle class="uuid-ff8eb3e4-760d-422d-8644-ec0e7986498c" cx="17" cy="33" r="4"/><path class="uuid-2a9b93cb-322d-48b8-aa64-a5415327efea" d="M43.67,8.749c-1.226.501-2.685.255-3.68-.74s-1.241-2.454-.74-3.679c-1.507-.819-3.202-1.29-4.962-1.336-.177,1.314-1.12,2.458-2.481,2.823s-2.75-.154-3.56-1.204c-1.502.919-2.733,2.176-3.629,3.638,1.046.811,1.563,2.198,1.199,3.557s-1.505,2.302-2.817,2.481c.023.849.133,1.706.362,2.562.229.856.563,1.654.968,2.4,1.226-.501,2.685-.255,3.68.74.995.995,1.241,2.454.74,3.679,1.507.819,3.202,1.29,4.962,1.336.177-1.314,1.12-2.458,2.481-2.823s2.75.154,3.56,1.204c1.502-.919,2.733-2.176,3.629-3.638-1.046-.811-1.563-2.198-1.199-3.557.364-1.359,1.505-2.302,2.817-2.481-.023-.849-.133-1.706-.362-2.562-.229-.855-.563-1.653-.968-2.4Z"/><circle class="uuid-7e6cd71e-dd54-4ea7-bee1-a3b8146996f6" cx="34" cy="14" r="5.93"/><circle class="uuid-b72b6718-c8e8-462a-8251-0a8fe1574c4c" cx="34" cy="14" r="3.61"/><path class="uuid-acf8f85a-a060-45cd-8abf-77cfc9af66b3" d="M43.67,8.749c-1.226.501-2.685.255-3.68-.74s-1.241-2.454-.74-3.679c-1.507-.819-3.202-1.29-4.962-1.336-.177,1.314-1.12,2.458-2.481,2.823s-2.75-.154-3.56-1.204c-1.502.919-2.733,2.176-3.629,3.638,1.046.811,1.563,2.198,1.199,3.557s-1.505,2.302-2.817,2.481c.023.849.133,1.706.362,2.562.229.856.563,1.654.968,2.4,1.226-.501,2.685-.255,3.68.74.995.995,1.241,2.454.74,3.679,1.507.819,3.202,1.29,4.962,1.336.177-1.314,1.12-2.458,2.481-2.823s2.75.154,3.56,1.204c1.502-.919,2.733-2.176,3.629-3.638-1.046-.811-1.563-2.198-1.199-3.557.364-1.359,1.505-2.302,2.817-2.481-.023-.849-.133-1.706-.362-2.562-.229-.855-.563-1.653-.968-2.4Z"/><circle class="uuid-9aa23af0-5c5a-4b96-a5f4-d9e8c18c46fe" cx="34" cy="14" r="5.93"/><circle class="uuid-797c57df-e2bd-4048-8135-d4952284515a" cx="34" cy="14" r="3.389"/></svg>