<?xml version="1.0" encoding="UTF-8"?><svg id="uuid-ce386dab-a27a-41ea-97c8-285d6702c338" xmlns="http://www.w3.org/2000/svg" width="48" height="48" xmlns:xlink="http://www.w3.org/1999/xlink" viewBox="0 0 48 48"><defs><style>.uuid-be937f6f-fe4f-417e-bc71-2c6176d2937a{fill:url(#uuid-f2aa4bfd-fc09-4d35-9e38-71270bda9207);}.uuid-be937f6f-fe4f-417e-bc71-2c6176d2937a,.uuid-235e1603-0bcf-4453-916e-e9d6f976a03e,.uuid-9bd2889b-abfd-41fb-8b00-42cb432f2580{stroke-width:0px;}.uuid-235e1603-0bcf-4453-916e-e9d6f976a03e{fill:url(#uuid-2d4ceedd-2e41-4986-9518-f51769065be1);}.uuid-9bd2889b-abfd-41fb-8b00-42cb432f2580{fill:url(#uuid-9ecd5499-6be1-47d4-bd0c-d7dfd9a6cb65);}</style><linearGradient id="uuid-2d4ceedd-2e41-4986-9518-f51769065be1" x1="32.012" y1="361.988" x2="15.881" y2="378.119" gradientTransform="translate(0 394) scale(1 -1)" gradientUnits="userSpaceOnUse"><stop offset="0" stop-color="#64717c"/><stop offset="1" stop-color="#30363d"/></linearGradient><linearGradient id="uuid-f2aa4bfd-fc09-4d35-9e38-71270bda9207" x1="20.4798" y1="375.7275" x2="27.603" y2="364.1378" gradientTransform="translate(0 394) scale(1 -1)" gradientUnits="userSpaceOnUse"><stop offset="0" stop-color="#ff9c0d"/><stop offset="1" stop-color="#f36e22"/></linearGradient><linearGradient id="uuid-9ecd5499-6be1-47d4-bd0c-d7dfd9a6cb65" x1="14.0255" y1="386.0928" x2="35.1733" y2="351.6849" gradientTransform="translate(0 394) scale(1 -1)" gradientUnits="userSpaceOnUse"><stop offset="0" stop-color="#fff"/><stop offset=".242" stop-color="#f2f2f2"/><stop offset="1" stop-color="#ccc"/></linearGradient></defs><circle class="uuid-235e1603-0bcf-4453-916e-e9d6f976a03e" cx="24" cy="24" r="11.5"/><circle class="uuid-be937f6f-fe4f-417e-bc71-2c6176d2937a" cx="24" cy="24" r="7"/><path class="uuid-9bd2889b-abfd-41fb-8b00-42cb432f2580" d="M43.407,19.243c-2.389-.029-4.702-1.274-5.983-3.493-1.233-2.136-1.208-4.649-.162-6.693-2.125-1.887-4.642-3.339-7.43-4.188-1.255,1.887-3.397,3.131-5.832,3.131s-4.577-1.244-5.831-3.131c-2.788.849-5.305,2.301-7.43,4.188,1.046,2.044,1.071,4.557-.162,6.693-1.281,2.219-3.594,3.464-5.983,3.493-.374,1.527-.594,3.115-.594,4.757,0,1.284.133,2.535.364,3.752,2.469-.051,4.891,1.208,6.213,3.498,1.368,2.37,1.187,5.204-.22,7.345,2.082,1.947,4.573,3.456,7.34,4.375,1.13-2.346,3.524-3.97,6.303-3.97s5.173,1.624,6.303,3.971c2.767-.919,5.258-2.428,7.34-4.375-1.407-2.141-1.588-4.975-.22-7.345,1.322-2.29,3.743-3.549,6.213-3.498.231-1.218.364-2.469.364-3.753,0-1.642-.22-3.23-.593-4.757ZM24,34.5c-5.799,0-10.5-4.701-10.5-10.5s4.701-10.5,10.5-10.5,10.5,4.701,10.5,10.5-4.701,10.5-10.5,10.5Z"/></svg>