<?xml version="1.0" encoding="UTF-8"?><svg id="uuid-0f6cabf5-d9c7-4043-9f66-81eeb5f68077" xmlns="http://www.w3.org/2000/svg" width="48" height="48" xmlns:xlink="http://www.w3.org/1999/xlink" viewBox="0 0 48 48"><defs><style>.uuid-82494cd2-0408-4285-8d3d-9f54b83e9bff{fill:url(#uuid-04734b1b-6cf1-4edd-ae28-bd14dc3afd9c);}.uuid-82494cd2-0408-4285-8d3d-9f54b83e9bff,.uuid-7702e8e9-96e2-48de-a7a7-ca876a271cf5,.uuid-8dfec964-c9b8-4d56-9709-9db4ac1c01e0,.uuid-20c1038d-88ce-4347-a6bf-5e0bd5c20edc,.uuid-c24f0bad-df4f-43a2-9805-22ec0551f94e,.uuid-1c822e8f-6eb5-4aa7-949f-2084472f03af{stroke-width:0px;}.uuid-7702e8e9-96e2-48de-a7a7-ca876a271cf5{opacity:.05;}.uuid-8dfec964-c9b8-4d56-9709-9db4ac1c01e0{fill:url(#uuid-a580fdfe-a033-4754-9be3-c0e786a502f8);}.uuid-20c1038d-88ce-4347-a6bf-5e0bd5c20edc{fill:url(#uuid-2c3284d4-40cb-495f-8b6e-c71c7ec6a649);}.uuid-c24f0bad-df4f-43a2-9805-22ec0551f94e{fill:url(#uuid-9d3d9e1e-e2a4-4418-b3fa-0fea6751132e);}.uuid-1c822e8f-6eb5-4aa7-949f-2084472f03af{opacity:.07;}</style><linearGradient id="uuid-a580fdfe-a033-4754-9be3-c0e786a502f8" x1="10.9468" y1="-208.7621" x2="37.3602" y2="-251.7374" gradientTransform="translate(0 -206) scale(1 -1)" gradientUnits="userSpaceOnUse"><stop offset="0" stop-color="#fff"/><stop offset=".242" stop-color="#f2f2f2"/><stop offset="1" stop-color="#ccc"/></linearGradient><linearGradient id="uuid-9d3d9e1e-e2a4-4418-b3fa-0fea6751132e" x1="17.6174" y1="15.1278" x2="33.277" y2="40.1884" gradientUnits="userSpaceOnUse"><stop offset="0" stop-color="#64717c"/><stop offset="1" stop-color="#30363d"/></linearGradient><linearGradient id="uuid-04734b1b-6cf1-4edd-ae28-bd14dc3afd9c" x1="8.4266" y1="24.5687" x2="16.7324" y2="37.8607" gradientUnits="userSpaceOnUse"><stop offset="0" stop-color="#32bdef"/><stop offset="1" stop-color="#1ea2e4"/></linearGradient><linearGradient id="uuid-2c3284d4-40cb-495f-8b6e-c71c7ec6a649" x1="11.3841" y1="17.9169" x2="13.6087" y2="21.5365" xlink:href="#uuid-04734b1b-6cf1-4edd-ae28-bd14dc3afd9c"/></defs><path class="uuid-8dfec964-c9b8-4d56-9709-9db4ac1c01e0" d="M41.2059,43.5H6.7941c-1.2618,0-2.2941-1.0324-2.2941-2.2941V6.7941c0-1.2618,1.0324-2.2941,2.2941-2.2941h34.4118c1.2618,0,2.2941,1.0324,2.2941,2.2941v34.4118c0,1.2618-1.0324,2.2941-2.2941,2.2941Z"/><path class="uuid-c24f0bad-df4f-43a2-9805-22ec0551f94e" d="M28.2162,10.2582c0-1.7464,1.4157-3.1622,3.1622-3.1622s3.1622,1.4157,3.1622,3.1622-1.4157,3.1622-3.1622,3.1622-3.1622-1.4157-3.1622-3.1622ZM32.3739,14.5916h-2.0496c-2.9107,0-5.2703,2.3596-5.2703,5.2703v7.2612c0,1.1643.9438,2.1081,2.1081,2.1081h.0892v5.0141c0,1.1103-.8611,2.0303-1.969,2.1035l-12.7989.8464v2.5766h20.8552c1.1643,0,2.1081-.9438,2.1081-2.1081v-8.4324h.0892c1.1643,0,2.1081-.9438,2.1081-2.1081v-7.2612c0-2.9107-2.3596-5.2703-5.2703-5.2703Z"/><path class="uuid-7702e8e9-96e2-48de-a7a7-ca876a271cf5" d="M14.4873,22.2324c.7471-.5941,1.2362-1.4998,1.2362-2.5265,0-1.787-1.4534-3.2404-3.2399-3.2404s-3.2404,1.4534-3.2404,3.2404c0,1.0068.4711,1.8965,1.1936,2.4913-1.2658.4132-2.189,1.5911-2.189,2.9931v6.208c0,.772.4225,1.4689,1.0834,1.8364v5.4833c0,1.1621.9455,2.1081,2.1081,2.1081h1.9321c1.1627,0,2.1081-.946,2.1081-2.1081v-5.4772c.6608-.3664,1.0834-1.0664,1.0834-1.8425v-6.208c0-1.3604-.868-2.5125-2.0756-2.9578Z"/><path class="uuid-1c822e8f-6eb5-4aa7-949f-2084472f03af" d="M11.4394,40.299c-.8719,0-1.5811-.7092-1.5811-1.5811v-5.8241c-.6356-.2131-1.0834-.8029-1.0834-1.4956v-6.208c0-1.4534,1.1822-2.6351,2.6351-2.6351h1.9908c1.4529,0,2.6351,1.1817,2.6351,2.6351v6.208c0,.6979-.4545,1.2918-1.0834,1.5008v5.8189c0,.8719-.7092,1.5811-1.5811,1.5811h-1.9321ZM15.1965,19.7059c0-1.4956-1.2172-2.7134-2.7129-2.7134s-2.7134,1.2177-2.7134,2.7134,1.2172,2.7134,2.7134,2.7134,2.7129-1.2177,2.7129-2.7134Z"/><path class="uuid-82494cd2-0408-4285-8d3d-9f54b83e9bff" d="M13.4009,23.0826h-1.991c-1.1643,0-2.1081.9438-2.1081,2.1081v6.2072c0,.5822.472,1.0541,1.0541,1.0541h.0293v6.2658c0,.5822.4719,1.0541,1.0541,1.0541h1.9324c.5822,0,1.0541-.4719,1.0541-1.0541v-6.2658h.0293c.5822,0,1.0541-.4719,1.0541-1.0541v-6.2072c0-1.1643-.9438-2.1081-2.1081-2.1081Z"/><circle class="uuid-20c1038d-88ce-4347-a6bf-5e0bd5c20edc" cx="12.4835" cy="19.7057" r="2.1862"/></svg>