<?xml version="1.0" encoding="UTF-8"?><svg id="uuid-4fb99403-7dc4-41af-bdc3-ba6998d8d082" xmlns="http://www.w3.org/2000/svg" width="48" height="48" xmlns:xlink="http://www.w3.org/1999/xlink" viewBox="0 0 48 48"><defs><style>.uuid-a61fc210-ec6f-4840-9bd6-aff9967a38d5{opacity:.05;}.uuid-a61fc210-ec6f-4840-9bd6-aff9967a38d5,.uuid-885cf107-3150-4927-804c-5822529f6fc0,.uuid-424f4bc8-0a2c-448e-b9d1-06fbe1b1f129,.uuid-9bf90ff8-750f-4d49-9eda-8a693685cff0,.uuid-75d8e17e-c144-438c-8747-9884ab610f78,.uuid-0a70173a-0551-4c04-af71-369c297831b8{stroke-width:0px;}.uuid-885cf107-3150-4927-804c-5822529f6fc0{fill:url(#uuid-cfdacab8-3f78-4e13-9528-53f8056538a0);}.uuid-424f4bc8-0a2c-448e-b9d1-06fbe1b1f129{fill:url(#uuid-15e03a8d-1fae-4d89-8fc5-9770fadc35b1);}.uuid-9bf90ff8-750f-4d49-9eda-8a693685cff0{fill:url(#uuid-d6f24759-cd54-4ad4-aaee-9579b198cecc);}.uuid-75d8e17e-c144-438c-8747-9884ab610f78{opacity:.07;}.uuid-0a70173a-0551-4c04-af71-369c297831b8{fill:url(#uuid-58b962f1-cc6c-4a75-b904-02b4e6b364ee);}</style><linearGradient id="uuid-15e03a8d-1fae-4d89-8fc5-9770fadc35b1" x1="10.9468" y1="-208.7621" x2="37.3602" y2="-251.7374" gradientTransform="translate(0 -206) scale(1 -1)" gradientUnits="userSpaceOnUse"><stop offset="0" stop-color="#fff"/><stop offset=".242" stop-color="#f2f2f2"/><stop offset="1" stop-color="#ccc"/></linearGradient><linearGradient id="uuid-cfdacab8-3f78-4e13-9528-53f8056538a0" x1="17.6174" y1="15.1278" x2="33.277" y2="40.1884" gradientUnits="userSpaceOnUse"><stop offset="0" stop-color="#64717c"/><stop offset="1" stop-color="#30363d"/></linearGradient><linearGradient id="uuid-d6f24759-cd54-4ad4-aaee-9579b198cecc" x1="8.4266" y1="24.5687" x2="16.7324" y2="37.8607" gradientUnits="userSpaceOnUse"><stop offset="0" stop-color="#ff9c0d"/><stop offset="1" stop-color="#f36e22"/></linearGradient><linearGradient id="uuid-58b962f1-cc6c-4a75-b904-02b4e6b364ee" x1="11.3841" y1="17.9169" x2="13.6087" y2="21.5365" xlink:href="#uuid-d6f24759-cd54-4ad4-aaee-9579b198cecc"/></defs><path class="uuid-424f4bc8-0a2c-448e-b9d1-06fbe1b1f129" d="M41.2059,43.5H6.7941c-1.2618,0-2.2941-1.0324-2.2941-2.2941V6.7941c0-1.2618,1.0324-2.2941,2.2941-2.2941h34.4118c1.2618,0,2.2941,1.0324,2.2941,2.2941v34.4118c0,1.2618-1.0324,2.2941-2.2941,2.2941Z"/><path class="uuid-885cf107-3150-4927-804c-5822529f6fc0" d="M28.2162,10.2582c0-1.7464,1.4157-3.1622,3.1622-3.1622s3.1622,1.4157,3.1622,3.1622-1.4157,3.1622-3.1622,3.1622-3.1622-1.4157-3.1622-3.1622ZM32.3739,14.5916h-2.0496c-2.9107,0-5.2703,2.3596-5.2703,5.2703v7.2612c0,1.1643.9438,2.1081,2.1081,2.1081h.0892v5.0141c0,1.1103-.8611,2.0303-1.969,2.1035l-12.7989.8464v2.5766h20.8552c1.1643,0,2.1081-.9438,2.1081-2.1081v-8.4324h.0892c1.1643,0,2.1081-.9438,2.1081-2.1081v-7.2612c0-2.9107-2.3596-5.2703-5.2703-5.2703Z"/><path class="uuid-a61fc210-ec6f-4840-9bd6-aff9967a38d5" d="M14.4873,22.2324c.7471-.5941,1.2362-1.4998,1.2362-2.5265,0-1.787-1.4534-3.2404-3.2399-3.2404s-3.2404,1.4534-3.2404,3.2404c0,1.0068.4711,1.8965,1.1936,2.4913-1.2658.4132-2.189,1.5911-2.189,2.9931v6.208c0,.772.4225,1.4689,1.0834,1.8364v5.4833c0,1.1621.9455,2.1081,2.1081,2.1081h1.9321c1.1627,0,2.1081-.946,2.1081-2.1081v-5.4772c.6608-.3664,1.0834-1.0664,1.0834-1.8425v-6.208c0-1.3604-.868-2.5125-2.0756-2.9578Z"/><path class="uuid-75d8e17e-c144-438c-8747-9884ab610f78" d="M11.4394,40.299c-.8719,0-1.5811-.7092-1.5811-1.5811v-5.8241c-.6356-.2131-1.0834-.8029-1.0834-1.4956v-6.208c0-1.4534,1.1822-2.6351,2.6351-2.6351h1.9908c1.4529,0,2.6351,1.1817,2.6351,2.6351v6.208c0,.6979-.4545,1.2918-1.0834,1.5008v5.8189c0,.8719-.7092,1.5811-1.5811,1.5811h-1.9321ZM15.1965,19.7059c0-1.4956-1.2172-2.7134-2.7129-2.7134s-2.7134,1.2177-2.7134,2.7134,1.2172,2.7134,2.7134,2.7134,2.7129-1.2177,2.7129-2.7134Z"/><path class="uuid-9bf90ff8-750f-4d49-9eda-8a693685cff0" d="M13.4009,23.0826h-1.991c-1.1643,0-2.1081.9438-2.1081,2.1081v6.2072c0,.5822.472,1.0541,1.0541,1.0541h.0293v6.2658c0,.5822.4719,1.0541,1.0541,1.0541h1.9324c.5822,0,1.0541-.4719,1.0541-1.0541v-6.2658h.0293c.5822,0,1.0541-.4719,1.0541-1.0541v-6.2072c0-1.1643-.9438-2.1081-2.1081-2.1081Z"/><circle class="uuid-0a70173a-0551-4c04-af71-369c297831b8" cx="12.4835" cy="19.7057" r="2.1862"/></svg>