<?xml version="1.0" encoding="UTF-8"?><svg id="uuid-64e6286e-20cd-4556-a415-28de9f70638d" xmlns="http://www.w3.org/2000/svg" width="48" height="48" xmlns:xlink="http://www.w3.org/1999/xlink" viewBox="0 0 48 48"><defs><style>.uuid-2436719f-21dc-4454-8830-f0ceb6578466{fill:url(#uuid-dbe84fb0-59c8-4549-ba74-5c1c34b47cbc);}.uuid-2436719f-21dc-4454-8830-f0ceb6578466,.uuid-12adf063-5dd5-46b3-af2c-d44c039977ab,.uuid-51412b8b-12bf-4bbc-be97-56c18b21fe89,.uuid-041ce634-968e-4b50-ac6a-e63585f3e526,.uuid-ba7a4e0e-d57e-4224-bae7-cd7566076c51,.uuid-4ed7e8a9-2482-4ebe-a960-8dda68ddd44f,.uuid-89be7498-56f7-4b4d-9a06-8858a441b093,.uuid-406267a7-0f56-44bc-9327-4074518cb141,.uuid-28f27f6e-882d-4dcb-8623-79ae4f23e063,.uuid-e2ad98db-30c5-4fdd-bf84-55034d68fabe,.uuid-a7cd4148-e707-4efd-907a-47fe524fa674{stroke-width:0px;}.uuid-12adf063-5dd5-46b3-af2c-d44c039977ab{fill:url(#uuid-8d1aff0a-ecb4-49ed-ae9c-1696ff35eed7);}.uuid-51412b8b-12bf-4bbc-be97-56c18b21fe89{opacity:.05;}.uuid-041ce634-968e-4b50-ac6a-e63585f3e526{fill:url(#uuid-1ec7a326-d0cb-45bc-92eb-75d2755c404b);}.uuid-ba7a4e0e-d57e-4224-bae7-cd7566076c51{fill:url(#uuid-197cd778-c505-40e0-9cc9-2ef406a9f805);}.uuid-4ed7e8a9-2482-4ebe-a960-8dda68ddd44f{fill:url(#uuid-6ea7db86-9a35-4666-a37e-d9da4d0120e0);}.uuid-89be7498-56f7-4b4d-9a06-8858a441b093{fill:url(#uuid-d409e6d5-91d3-4d23-b51a-b39bcd7a73c4);}.uuid-406267a7-0f56-44bc-9327-4074518cb141{fill:url(#uuid-207a3492-b287-4a0d-9564-8433f54961a7);}.uuid-28f27f6e-882d-4dcb-8623-79ae4f23e063{fill:url(#uuid-193af403-fee1-4965-b783-5df1f96cafb6);}.uuid-e2ad98db-30c5-4fdd-bf84-55034d68fabe{fill:url(#uuid-7502dad1-0483-418d-a497-ab305ebe48e6);}.uuid-a7cd4148-e707-4efd-907a-47fe524fa674{opacity:.07;}</style><linearGradient id="uuid-193af403-fee1-4965-b783-5df1f96cafb6" x1="14.7079" y1="1.4169" x2="34.5305" y2="33.6687" gradientUnits="userSpaceOnUse"><stop offset="0" stop-color="#64717c"/><stop offset="1" stop-color="#30363d"/></linearGradient><linearGradient id="uuid-7502dad1-0483-418d-a497-ab305ebe48e6" x1="9.7042" y1="2.2395" x2="40.2011" y2="32.7364" gradientUnits="userSpaceOnUse"><stop offset="0" stop-color="#fff"/><stop offset=".242" stop-color="#f2f2f2"/><stop offset="1" stop-color="#ccc"/></linearGradient><linearGradient id="uuid-d409e6d5-91d3-4d23-b51a-b39bcd7a73c4" x1="-510" y1="745.0015" x2="-504.6187" y2="745.0015" gradientTransform="translate(-486 -736) rotate(-180) scale(1 -1)" gradientUnits="userSpaceOnUse"><stop offset=".266" stop-color="#e5692c"/><stop offset=".582" stop-color="#e06725"/><stop offset=".745" stop-color="#de6425"/><stop offset=".873" stop-color="#d55e26"/><stop offset=".982" stop-color="#ce5c2d"/><stop offset="1" stop-color="#c05827"/></linearGradient><linearGradient id="uuid-1ec7a326-d0cb-45bc-92eb-75d2755c404b" x1="13.4978" y1="83.1241" x2="20.9466" y2="71.0048" gradientTransform="translate(0 94) scale(1 -1)" gradientUnits="userSpaceOnUse"><stop offset="0" stop-color="#ff9c0d"/><stop offset="1" stop-color="#f36e22"/></linearGradient><linearGradient id="uuid-8d1aff0a-ecb4-49ed-ae9c-1696ff35eed7" x1="-365" y1="339.4028" x2="-359.6187" y2="339.4028" gradientTransform="translate(389 363.472) scale(1 -1)" xlink:href="#uuid-d409e6d5-91d3-4d23-b51a-b39bcd7a73c4"/><linearGradient id="uuid-197cd778-c505-40e0-9cc9-2ef406a9f805" x1="27.1401" y1="83.7835" x2="34.5888" y2="71.6644" xlink:href="#uuid-1ec7a326-d0cb-45bc-92eb-75d2755c404b"/><linearGradient id="uuid-207a3492-b287-4a0d-9564-8433f54961a7" x1="24" y1="30.6879" x2="24" y2="36.9586" gradientUnits="userSpaceOnUse"><stop offset="0" stop-color="#ff9c0d"/><stop offset="1" stop-color="#f36e22"/></linearGradient><linearGradient id="uuid-6ea7db86-9a35-4666-a37e-d9da4d0120e0" x1="-38.3224" y1="332.4235" x2="-48.0693" y2="332.4235" gradientTransform="translate(83.6744 -290.4658)" gradientUnits="userSpaceOnUse"><stop offset=".4049" stop-color="#ff9c0d"/><stop offset="1" stop-color="#f36e22"/></linearGradient><linearGradient id="uuid-dbe84fb0-59c8-4549-ba74-5c1c34b47cbc" y1="363.2988" y2="363.2988" gradientTransform="translate(52.7992 -321.3411)" xlink:href="#uuid-6ea7db86-9a35-4666-a37e-d9da4d0120e0"/></defs><rect class="uuid-28f27f6e-882d-4dcb-8623-79ae4f23e063" x="10.2961" y="2.9686" width="27.4078" height="27.1335"/><path class="uuid-51412b8b-12bf-4bbc-be97-56c18b21fe89" d="M37.7039,2.9686H10.2961v27.1335h27.4078V2.9686ZM11.8602,28.5763l-.0235-24.0591,24.3033-.0231.0231,24.0591-24.3028.0231Z"/><path class="uuid-a7cd4148-e707-4efd-907a-47fe524fa674" d="M37.7039,2.9686H10.2961v27.1335h27.4078V2.9686ZM11.439,28.9988l-.0243-24.9023,25.1465-.0247.0239,24.9023-25.1461.0247Z"/><path class="uuid-e2ad98db-30c5-4fdd-bf84-55034d68fabe" d="M8.8518,31.5706l-.0293-30.0416,30.3256-.029.0293,30.0416-30.3256.029ZM10.9928,3.6746l.0249,25.7461,25.9895-.0247-.0249-25.7461-25.9895.0247Z"/><path class="uuid-89be7498-56f7-4b4d-9a06-8858a441b093" d="M18.6187,10.6158h4.8432c.297,0,.5381-.2411.5381-.5381v-2.1525c0-.297-.2411-.5381-.5381-.5381h-4.8432v3.2288Z"/><path class="uuid-041ce634-968e-4b50-ac6a-e63585f3e526" d="M20.8735,20.8403h-2.2548V7.3871l-2.5981,2.5981c-.4041.4041-.6307.9514-.6307,1.5224v9.3328h-2.2548c-.3875,0-.5812.4682-.3073.7421l3.606,3.606c.3153.3153.8266.3153,1.1414,0l3.606-3.606c.2739-.2739.0796-.7421-.3078-.7421Z"/><path class="uuid-12adf063-5dd5-46b3-af2c-d44c039977ab" d="M29.3813,22.4547h-4.8432c-.297,0-.5381.2411-.5381.5381v2.1525c0,.297.2411.5381.5381.5381h4.8432v-3.2288Z"/><path class="uuid-ba7a4e0e-d57e-4224-bae7-cd7566076c51" d="M27.1265,12.2302h2.2548v13.4533l2.5981-2.5981c.4036-.4036.6307-.9514.6307-1.5218v-9.3334h2.2548c.3875,0,.5812-.4682.3073-.7421l-3.6055-3.606c-.3153-.3153-.8266-.3153-1.1414,0l-3.606,3.606c-.2744.2739-.0802.7421.3073.7421Z"/><rect class="uuid-406267a7-0f56-44bc-9327-4074518cb141" x="2.2729" y="31.5706" width="43.4541" height="5.8447" rx="1.7153" ry="1.7153"/><path class="uuid-4ed7e8a9-2482-4ebe-a960-8dda68ddd44f" d="M34.8953,40.2424h8.4838c.3316,0,.6009.2692.6009.6009v2.2288c0,.3316-.2692.6009-.6009.6009h-8.4838v-3.4306h0Z" transform="translate(81.3953 2.52) rotate(90)"/><path class="uuid-2436719f-21dc-4454-8830-f0ceb6578466" d="M4.02,40.2424h8.4838c.3316,0,.6009.2692.6009.6009v2.2288c0,.3316-.2692.6009-.6009.6009H4.02v-3.4306h0Z" transform="translate(50.52 33.3953) rotate(90)"/><rect class="uuid-51412b8b-12bf-4bbc-be97-56c18b21fe89" x="37.7224" y="37.4153" width="3.4306" height="1.1435"/><rect class="uuid-a7cd4148-e707-4efd-907a-47fe524fa674" x="37.7224" y="37.4153" width="3.4306" height=".5718"/><rect class="uuid-a7cd4148-e707-4efd-907a-47fe524fa674" x="6.8471" y="37.4153" width="3.4306" height=".5718"/><rect class="uuid-51412b8b-12bf-4bbc-be97-56c18b21fe89" x="6.8471" y="37.4153" width="3.4306" height="1.1435"/></svg>