<?xml version="1.0" encoding="UTF-8"?><svg id="uuid-d417a9da-4aaa-4e39-9f24-09ab322a340e" xmlns="http://www.w3.org/2000/svg" width="48" height="48" xmlns:xlink="http://www.w3.org/1999/xlink" viewBox="0 0 48 48"><defs><style>.uuid-8a879b5b-0bdd-4637-93ec-3816773c56a5,.uuid-40752814-1aad-43d9-95e8-a894a369cf29{stroke-linecap:round;stroke-linejoin:round;}.uuid-8a879b5b-0bdd-4637-93ec-3816773c56a5,.uuid-40752814-1aad-43d9-95e8-a894a369cf29,.uuid-f4169abd-fa40-4ca0-a551-020359900d9d{fill:none;stroke:#fff;stroke-width:1.5px;}.uuid-31469978-9596-4009-86fc-9874d0565f3a{fill:url(#uuid-effd8e15-c6de-40c6-b140-ae3db0ed4473);}.uuid-31469978-9596-4009-86fc-9874d0565f3a,.uuid-1a4a1a32-6a00-42b3-a7e1-e51502c2de9d{stroke-width:0px;}.uuid-1a4a1a32-6a00-42b3-a7e1-e51502c2de9d{fill:url(#uuid-79b22a7e-9e26-4c6f-a7e7-2cb1bd544c32);opacity:.75;}.uuid-40752814-1aad-43d9-95e8-a894a369cf29{stroke-dasharray:0 0 2.1111 4.2222;}.uuid-f4169abd-fa40-4ca0-a551-020359900d9d{stroke-miterlimit:10;}</style><linearGradient id="uuid-effd8e15-c6de-40c6-b140-ae3db0ed4473" x1="208.0538" y1="-826.2856" x2="228.4056" y2="-859.3983" gradientTransform="translate(465.6561 -725.9493) rotate(45) scale(1 -1)" gradientUnits="userSpaceOnUse"><stop offset="0" stop-color="#ff9c0d"/><stop offset="1" stop-color="#f36e22"/></linearGradient><radialGradient id="uuid-79b22a7e-9e26-4c6f-a7e7-2cb1bd544c32" cx="14.8522" cy="-417.5629" fx="14.8522" fy="-417.5629" r="32.4662" gradientTransform="translate(.0983 -405.9933) scale(1 -1)" gradientUnits="userSpaceOnUse"><stop offset="0" stop-color="#fafafb"/><stop offset=".293" stop-color="#f6f7f8"/><stop offset=".566" stop-color="#ebecee"/><stop offset=".832" stop-color="#d8dcdf"/><stop offset="1" stop-color="#c8cdd1"/></radialGradient></defs><path class="uuid-31469978-9596-4009-86fc-9874d0565f3a" d="M38.183,38.264c-7.81,7.81-20.4742,7.8101-28.2841.0002-7.8099-7.8099-7.8098-20.4741.0002-28.2841,7.81-7.81,20.4742-7.8101,28.2841-.0002,7.8099,7.8099,7.8098,20.4741-.0002,28.2841Z"/><path class="uuid-8a879b5b-0bdd-4637-93ec-3816773c56a5" d="M23.9968,4.6217h.0487c.3147,0,.6247.0554.9287.1629"/><path class="uuid-40752814-1aad-43d9-95e8-a894a369cf29" d="M27.9081,7.7048c1.9805,3.4674,3.2939,9.523,3.2939,16.4169,0,8.2265-1.8702,15.2592-4.5125,18.1249"/><path class="uuid-8a879b5b-0bdd-4637-93ec-3816773c56a5" d="M24.9743,43.4588c-.304.1075-.614.1629-.9287.1629h-.0487"/><path class="uuid-8a879b5b-0bdd-4637-93ec-3816773c56a5" d="M4.5407,24.1656v-.0487c0-.3147.0554-.6247.1629-.9287"/><path class="uuid-40752814-1aad-43d9-95e8-a894a369cf29" d="M7.6238,20.2543c3.4674-1.9806,9.523-3.2939,16.4169-3.2939,8.2265,0,15.2592,1.8702,18.1249,4.5125"/><path class="uuid-8a879b5b-0bdd-4637-93ec-3816773c56a5" d="M43.3778,23.1881c.1075.304.1629.614.1629.9287v.0487"/><circle class="uuid-1a4a1a32-6a00-42b3-a7e1-e51502c2de9d" cx="24.0983" cy="24.0067" r="16.5"/><path class="uuid-f4169abd-fa40-4ca0-a551-020359900d9d" d="M23.9968,43.6217c-3.939-.0683-7.1175-8.775-7.1175-19.5,0-10.725,3.1785-19.4317,7.1175-19.5"/><path class="uuid-f4169abd-fa40-4ca0-a551-020359900d9d" d="M43.5407,24.1656c-.0683,3.939-8.775,7.1175-19.5,7.1175-10.725,0-19.4317-3.1785-19.5-7.1175"/></svg>