<?xml version="1.0" encoding="UTF-8"?><svg id="uuid-ff7145e0-afab-493d-8c17-b7168c4d442a" xmlns="http://www.w3.org/2000/svg" width="48" height="48" xmlns:xlink="http://www.w3.org/1999/xlink" viewBox="0 0 48 48"><defs><style>.uuid-ba429846-fcbb-4fe4-81f2-86ed0bf77938{fill:url(#uuid-e7d69356-8b61-49e5-98e0-2fe6d4e38b4e);}.uuid-ba429846-fcbb-4fe4-81f2-86ed0bf77938,.uuid-3903385a-c5aa-4499-a49e-63622a618d9b,.uuid-f4b5a940-bd36-49ca-b75d-bc31c019212a,.uuid-a145cadd-c344-49b1-be19-d679437221c8,.uuid-a156794d-a1cb-43e4-8542-55772370cadf{stroke-width:0px;}.uuid-3903385a-c5aa-4499-a49e-63622a618d9b{opacity:.05;}.uuid-f4b5a940-bd36-49ca-b75d-bc31c019212a{fill:url(#uuid-b9d3e54f-0141-4d91-9355-9a2997525a7c);}.uuid-a145cadd-c344-49b1-be19-d679437221c8{opacity:.07;}.uuid-a156794d-a1cb-43e4-8542-55772370cadf{fill:url(#uuid-f40f2a17-8882-4f28-9a88-9bfa3ce736fc);}</style><linearGradient id="uuid-f40f2a17-8882-4f28-9a88-9bfa3ce736fc" x1="17.5867" y1="15.1174" x2="25.8132" y2="28.2824" gradientUnits="userSpaceOnUse"><stop offset="0" stop-color="#ff9c0d"/><stop offset="1" stop-color="#f36e22"/></linearGradient><linearGradient id="uuid-b9d3e54f-0141-4d91-9355-9a2997525a7c" x1="19.8867" y1="17.4174" x2="28.1132" y2="30.5824" gradientUnits="userSpaceOnUse"><stop offset="0" stop-color="#64717c"/><stop offset="1" stop-color="#30363d"/></linearGradient><linearGradient id="uuid-e7d69356-8b61-49e5-98e0-2fe6d4e38b4e" x1="22.1867" y1="19.7174" x2="30.4132" y2="32.8824" gradientUnits="userSpaceOnUse"><stop offset="0" stop-color="#fff"/><stop offset=".242" stop-color="#f2f2f2"/><stop offset="1" stop-color="#ccc"/></linearGradient></defs><path class="uuid-a156794d-a1cb-43e4-8542-55772370cadf" d="M40.6479,1.0002c-.9514.0149-1.7111.7963-1.698,1.7465v1.1509c0,1.924-1.5237,3.446-3.45,3.446h-2.3011c-3.7904,0-6.8999,3.106-6.8999,6.8919v2.2951c0,1.924-1.5237,3.446-3.45,3.446h-2.3011c-3.7904,0-6.8999,3.106-6.8999,6.8919v2.2951c0,1.924-1.5237,3.446-3.45,3.446h-2.2977c-3.7904,0-6.8999,3.106-6.8999,6.8919v1.1509c-.0088.6214.318,1.1993.8554,1.5126.5373.3133,1.2019.3133,1.7392,0,.5373-.3133.8642-.8912.8554-1.5126v-1.1509c0-1.924,1.5237-3.446,3.45-3.446h2.2977c3.7904,0,6.8999-3.106,6.8999-6.8919v-2.2951c0-1.924,1.5237-3.446,3.45-3.446h2.3011c3.7904,0,6.8999-3.106,6.8999-6.8919v-2.2951c0-1.924,1.5237-3.446,3.45-3.446h2.3011c3.7904,0,6.8999-3.106,6.8999-6.8919v-1.1509c.0064-.4657-.1763-.9142-.5063-1.2432-.33-.329-.7794-.5106-1.2456-.5033Z"/><path class="uuid-3903385a-c5aa-4499-a49e-63622a618d9b" d="M33.1988,10.7896h2.3011c3.7903,0,6.8999-3.106,6.8999-6.892v-1.1509c.0018-.1272-.0133-.2523-.0389-.3748-1.222.283-2.1292,1.3831-2.1109,2.6749v1.1504c0,1.3721-1.0762,2.4463-2.4502,2.4463h-2.3008c-4.3564,0-7.9004,3.54-7.9004,7.8916v2.2959c0,1.3711-1.0762,2.4453-2.4497,2.4453h-2.3013c-4.356,0-7.8999,3.541-7.8999,7.8926v2.2949c0,1.3711-1.0762,2.4453-2.4497,2.4453h-2.2979c-4.356,0-7.8999,3.541-7.8999,7.8926v.5424c.4327.1099.8981.052,1.2945-.1791.5374-.3132.8642-.8912.8553-1.5126v-1.1509c0-1.924,1.5237-3.4459,3.45-3.4459h2.2977c3.7903,0,6.9-3.106,6.9-6.892v-2.2951c0-1.924,1.5237-3.4459,3.45-3.4459h2.3011c3.7904,0,6.9-3.106,6.9-6.892v-2.2951c0-1.924,1.5237-3.4459,3.45-3.4459Z"/><path class="uuid-a145cadd-c344-49b1-be19-d679437221c8" d="M33.1988,10.7896h2.3011c3.7903,0,6.8999-3.106,6.8999-6.892v-1.0146c-.9589.2587-1.6643,1.1342-1.6498,2.1638v1.1504c0,1.6523-1.2959,2.9463-2.9502,2.9463h-2.3008c-4.0806,0-7.4004,3.3154-7.4004,7.3916v2.2959c0,1.6514-1.2959,2.9453-2.9497,2.9453h-2.3013c-4.0806,0-7.3999,3.3164-7.3999,7.3926v2.2949c0,1.6514-1.2959,2.9453-2.9497,2.9453h-2.2979c-4.0801,0-7.3999,3.3164-7.3999,7.3926v.5883c.275-.0121.5484-.0816.7945-.225.5374-.3132.8642-.8912.8553-1.5126v-1.1509c0-1.924,1.5237-3.4459,3.45-3.4459h2.2977c3.7903,0,6.9-3.106,6.9-6.892v-2.2951c0-1.924,1.5237-3.4459,3.45-3.4459h2.3011c3.7904,0,6.9-3.106,6.9-6.892v-2.2951c0-1.924,1.5237-3.4459,3.45-3.4459Z"/><path class="uuid-f4b5a940-bd36-49ca-b75d-bc31c019212a" d="M42.9479,3.3002c-.9514.0149-1.7111.7963-1.698,1.7465v1.1509c0,1.924-1.5237,3.446-3.45,3.446h-2.3011c-3.7904,0-6.8999,3.106-6.8999,6.8919v2.2951c0,1.924-1.5237,3.446-3.45,3.446h-2.3011c-3.7904,0-6.8999,3.106-6.8999,6.8919v2.2951c0,1.924-1.5237,3.446-3.45,3.446h-2.2977c-3.7904,0-6.8999,3.106-6.8999,6.8919v1.1509c-.0088.6214.318,1.1993.8554,1.5126.5373.3133,1.2019.3133,1.7392,0,.5373-.3133.8642-.8912.8554-1.5126v-1.1509c0-1.924,1.5237-3.446,3.45-3.446h2.2977c3.7904,0,6.8999-3.106,6.8999-6.8919v-2.2951c0-1.924,1.5237-3.446,3.45-3.446h2.3011c3.7904,0,6.8999-3.106,6.8999-6.8919v-2.2951c0-1.924,1.5237-3.446,3.45-3.446h2.3011c3.7904,0,6.8999-3.106,6.8999-6.8919v-1.1509c.0064-.4657-.1763-.9142-.5063-1.2432-.33-.329-.7794-.5106-1.2456-.5033Z"/><path class="uuid-3903385a-c5aa-4499-a49e-63622a618d9b" d="M35.4988,13.0896h2.3011c3.7903,0,6.8999-3.106,6.8999-6.892v-1.1509c.0018-.1271-.0133-.2522-.0389-.3747-1.222.2814-2.1294,1.3814-2.1111,2.6746v1.1514c0,1.3711-1.0762,2.4453-2.4497,2.4453h-2.3013c-4.356,0-7.8999,3.541-7.8999,7.8926v2.2949c0,1.3711-1.0762,2.4453-2.4502,2.4453h-2.3008c-4.356,0-7.8999,3.541-7.8999,7.8926v2.2949c0,1.3721-1.0762,2.4463-2.4502,2.4463h-2.2979c-4.356,0-7.8999,3.54-7.8999,7.8916v.5425c.4328.11.8982.0521,1.2947-.1791.5374-.3132.8642-.8912.8554-1.5126v-1.1509c0-1.924,1.5237-3.446,3.45-3.446h2.2977c3.7903,0,6.9-3.106,6.9-6.892v-2.295c0-1.924,1.5237-3.446,3.45-3.446h2.3011c3.7904,0,6.9-3.106,6.9-6.892v-2.295c0-1.924,1.5237-3.446,3.45-3.446Z"/><path class="uuid-a145cadd-c344-49b1-be19-d679437221c8" d="M35.4988,13.0896h2.3011c3.7903,0,6.8999-3.106,6.8999-6.892v-1.0143c-.959.2576-1.6645,1.1332-1.65,2.1634v1.1514c0,1.6514-1.2959,2.9453-2.9497,2.9453h-2.3013c-4.0801,0-7.3999,3.3164-7.3999,7.3926v2.2949c0,1.6514-1.2959,2.9453-2.9502,2.9453h-2.3008c-4.0801,0-7.3999,3.3164-7.3999,7.3926v2.2949c0,1.6523-1.2959,2.9463-2.9502,2.9463h-2.2979c-4.0801,0-7.3999,3.3154-7.3999,7.3916v.5886c.2751-.012.5485-.0817.7947-.2252.5374-.3132.8642-.8912.8554-1.5126v-1.1509c0-1.924,1.5237-3.446,3.45-3.446h2.2977c3.7903,0,6.9-3.106,6.9-6.892v-2.295c0-1.924,1.5237-3.446,3.45-3.446h2.3011c3.7904,0,6.9-3.106,6.9-6.892v-2.295c0-1.924,1.5237-3.446,3.45-3.446Z"/><path class="uuid-ba429846-fcbb-4fe4-81f2-86ed0bf77938" d="M45.2479,5.6002c-.9514.0149-1.7111.7963-1.698,1.7465v1.1509c0,1.924-1.5237,3.446-3.45,3.446h-2.3011c-3.7904,0-6.8999,3.106-6.8999,6.8919v2.2951c0,1.924-1.5237,3.446-3.45,3.446h-2.3011c-3.7904,0-6.8999,3.106-6.8999,6.8919v2.2951c0,1.924-1.5237,3.446-3.45,3.446h-2.2977c-3.7904,0-6.8999,3.106-6.8999,6.8919v1.1509c-.0088.6214.318,1.1993.8554,1.5126.5373.3133,1.2019.3133,1.7392,0,.5373-.3133.8642-.8912.8554-1.5126v-1.1509c0-1.924,1.5237-3.446,3.45-3.446h2.2977c3.7904,0,6.8999-3.106,6.8999-6.8919v-2.2951c0-1.924,1.5237-3.446,3.45-3.446h2.3011c3.7904,0,6.8999-3.106,6.8999-6.8919v-2.2951c0-1.924,1.5237-3.446,3.45-3.446h2.3011c3.7904,0,6.8999-3.106,6.8999-6.8919v-1.1509c.0064-.4657-.1763-.9142-.5063-1.2432-.33-.329-.7794-.5106-1.2456-.5033Z"/></svg>