<?xml version="1.0" encoding="UTF-8"?><svg id="uuid-db35e47e-cfce-44d3-9656-1c88f4c2a07c" xmlns="http://www.w3.org/2000/svg" width="48" height="48" xmlns:xlink="http://www.w3.org/1999/xlink" viewBox="0 0 48 48"><defs><style>.uuid-8883108c-3e60-4cbd-966a-43cd22d47791{fill:url(#uuid-b38f7236-8f1c-4b89-a0d3-102d89a7a4d7);}.uuid-8883108c-3e60-4cbd-966a-43cd22d47791,.uuid-5eb7e24b-21da-42bf-afee-ac8f7a281da1,.uuid-9b90c86a-2b5e-40a7-b4a8-217782c9a174,.uuid-fc6c4aab-badb-4e20-89c7-eb5fb74d77bc{stroke-width:0px;}.uuid-5eb7e24b-21da-42bf-afee-ac8f7a281da1{opacity:.05;}.uuid-9b90c86a-2b5e-40a7-b4a8-217782c9a174{fill:url(#uuid-71fb4519-c12b-4495-8ecd-28da2b7b1bcf);}.uuid-fc6c4aab-badb-4e20-89c7-eb5fb74d77bc{opacity:.07;}</style><linearGradient id="uuid-b38f7236-8f1c-4b89-a0d3-102d89a7a4d7" x1="13.9834" y1="486.242" x2="34.3352" y2="453.1291" gradientTransform="translate(0 494) scale(1 -1)" gradientUnits="userSpaceOnUse"><stop offset="0" stop-color="#ff9c0d"/><stop offset="1" stop-color="#f36e22"/></linearGradient><linearGradient id="uuid-71fb4519-c12b-4495-8ecd-28da2b7b1bcf" x1="15.2626" y1="15.5358" x2="32.4286" y2="32.7018" gradientUnits="userSpaceOnUse"><stop offset="0" stop-color="#fff"/><stop offset=".242" stop-color="#f2f2f2"/><stop offset="1" stop-color="#ccc"/></linearGradient></defs><path class="uuid-8883108c-3e60-4cbd-966a-43cd22d47791" d="M44.041,24.122c0,11.045-8.955,20-20,20S4.041,35.167,4.041,24.122,12.996,4.122,24.041,4.122s20,8.955,20,20Z"/><path class="uuid-5eb7e24b-21da-42bf-afee-ac8f7a281da1" d="M23.999,37.7783c-.5103,0-1.0264-.0283-1.5332-.085-6.1992-.6865-11.1963-5.6846-11.8813-11.8838-.5225-4.7295,1.3994-9.2881,5.1411-12.1943.3608-.2812.7896-.4297,1.2397-.4297,1.1064,0,2.0068.8965,2.0068,1.999v3.4922c0,.4463-.1582.8887-.4448,1.248-.999,1.252-1.5273,2.7568-1.5273,4.3525,0,3.8594,3.1401,7,7,7,.2656,0,.5337-.0146.8052-.0449,3.1333-.3467,5.7114-2.8662,6.1299-5.9893.2583-1.9258-.2617-3.8145-1.4639-5.3193-.29-.3643-.4434-.7949-.4434-1.2451v-3.4922c0-1.1045.9014-2.0029,2.0093-2.0029.4463,0,.8711.1465,1.2275.4248,3.3271,2.5771,5.2354,6.4658,5.2354,10.6689,0,7.4443-6.0566,13.501-13.501,13.501ZM22.9722,22.5c-1.103,0-2-.8975-2-2v-8.2773c0-1.1025.897-2,2-2h2.0557c1.103,0,2,.8975,2,2v8.2773c0,1.1025-.897,2-2,2h-2.0557Z"/><path class="uuid-fc6c4aab-badb-4e20-89c7-eb5fb74d77bc" d="M23.999,37.2783c-.4893,0-.9868-.0273-1.478-.082-5.9688-.6611-10.7798-5.4727-11.4395-11.4414-.5034-4.5557,1.3472-8.9463,4.9507-11.7451.2725-.2119.5952-.3242.9331-.3242.8311,0,1.5068.6729,1.5068,1.499v3.4922c0,.333-.1191.665-.3354.9355-1.0708,1.3418-1.6367,2.9551-1.6367,4.665,0,4.1357,3.3643,7.5,7.5,7.5.2837,0,.5703-.0156.8604-.0479,3.3589-.3721,6.1216-3.0723,6.5703-6.4199.2764-2.0625-.2812-4.0859-1.5688-5.6982-.2188-.2744-.334-.5967-.334-.9326v-3.4922c0-.8291.6768-1.5029,1.5093-1.5029.334,0,.6523.1104.9209.3193,3.2041,2.4824,5.042,6.2275,5.042,10.2744,0,7.1689-5.832,13.001-13.001,13.001ZM22.9722,22c-.8271,0-1.5-.6729-1.5-1.5v-8.2773c0-.8271.6729-1.5,1.5-1.5h2.0557c.8271,0,1.5.6729,1.5,1.5v8.2773c0,.8271-.6729,1.5-1.5,1.5h-2.0557Z"/><path class="uuid-9b90c86a-2b5e-40a7-b4a8-217782c9a174" d="M36.5,24.2778c0,7.3723-6.3835,13.2548-13.9243,12.4211-5.7252-.633-10.3643-5.2732-10.9969-10.9984-.5069-4.5873,1.4731-8.743,4.7603-11.2961.6647-.5162,1.6331-.061,1.6331.7806v3.4914c0,.2284-.0836.4454-.226.624-1.0901,1.3664-1.7462,3.0938-1.7462,4.9775,0,4.7195,4.0878,8.4852,8.9156,7.949,3.585-.3981,6.5314-3.2755,7.0106-6.8506.3093-2.3078-.3738-4.449-1.6735-6.0774-.1418-.1776-.2249-.3934-.2249-.6206v-3.4916c0-.8355.9633-1.3015,1.6236-.7896,2.9492,2.286,4.8486,5.8608,4.8486,9.8807ZM22.9722,21.5h2.0555c.5523,0,1-.4478,1-1v-8.2778c0-.5523-.4477-1-1-1h-2.0555c-.5522,0-1,.4477-1,1v8.2778c0,.5522.4478,1,1,1Z"/></svg>