<?xml version="1.0" encoding="UTF-8"?><svg id="uuid-0371d6ee-e05a-4093-87f4-9e9e9a7fbca1" xmlns="http://www.w3.org/2000/svg" width="48" height="48" xmlns:xlink="http://www.w3.org/1999/xlink" viewBox="0 0 48 48"><defs><style>.uuid-69a807ce-c946-4658-9a18-04bec0ee6a6b{fill:url(#uuid-4dfc6f9c-ff7f-4fe0-b3d1-a39867cd8b60);}.uuid-69a807ce-c946-4658-9a18-04bec0ee6a6b,.uuid-019c846d-5f6b-434e-a1cf-dc812e9682d2,.uuid-e1a5c9ab-b35d-461e-9a6a-2a1f2d231e70,.uuid-be6871e2-c290-4bc4-a526-ff9e9ee49935{stroke-width:0px;}.uuid-019c846d-5f6b-434e-a1cf-dc812e9682d2{opacity:.05;}.uuid-e1a5c9ab-b35d-461e-9a6a-2a1f2d231e70{fill:url(#uuid-f795214b-efa3-4908-84b5-4ae7fb5513c2);}.uuid-be6871e2-c290-4bc4-a526-ff9e9ee49935{opacity:.07;}</style><linearGradient id="uuid-4dfc6f9c-ff7f-4fe0-b3d1-a39867cd8b60" x1="12.279" y1="7.7352" x2="33.4806" y2="41.6648" gradientUnits="userSpaceOnUse"><stop offset="0" stop-color="#32bdef"/><stop offset="1" stop-color="#1ea2e4"/></linearGradient><linearGradient id="uuid-f795214b-efa3-4908-84b5-4ae7fb5513c2" x1="26.1222" y1="21.9178" x2="34.3956" y2="13.6444" gradientUnits="userSpaceOnUse"><stop offset="0" stop-color="#a1feff"/><stop offset="1" stop-color="#30baee"/></linearGradient></defs><path class="uuid-69a807ce-c946-4658-9a18-04bec0ee6a6b" d="M44,24c0,11.05-8.95,20-20,20S4,35.05,4,24,12.95,4,24,4c.26,0,.53.01.79.02l.09.09c-.05.57-.08,1.14-.08,1.72,0,9.6201,7.8,17.41,17.42,17.41.58,0,1.15-.03,1.71-.08l.05.05c.0099.26.02.53.02.79Z"/><path class="uuid-019c846d-5f6b-434e-a1cf-dc812e9682d2" d="M43.93,23.16c-.56.05-1.13.08-1.71.08-9.62,0-17.42-7.79-17.42-17.41,0-.58.03-1.15.08-1.72l-.09-.09c-.26-.0099-.53-.02-.79-.02-.0379,0-.0744.0055-.1122.0057-.0006.0058-.0035.0109-.004.0168-.0566.6465-.084,1.2373-.084,1.8076,0,10.1514,8.2632,18.4102,18.4204,18.4102.5707,0,1.1513-.0271,1.7718-.082.0004-.0533.008-.1048.008-.1582,0-.26-.01-.53-.02-.79l-.05-.05Z"/><path class="uuid-be6871e2-c290-4bc4-a526-ff9e9ee49935" d="M43.98,23.21l-.05-.05c-.56.05-1.13.08-1.71.08-9.62,0-17.42-7.79-17.42-17.41,0-.58.03-1.15.08-1.72l-.09-.09c-.1271-.0049-.2567-.006-.3863-.0098-.0043.0201-.0201.0353-.0219.0562-.0552.6309-.082,1.208-.082,1.7637,0,9.876,8.0391,17.9102,17.9204,17.9102.5596,0,1.1333-.0264,1.7544-.082.0062-.0005.0105-.0057.0166-.0065-.0038-.1481-.0056-.2964-.0112-.4418Z"/><path class="uuid-e1a5c9ab-b35d-461e-9a6a-2a1f2d231e70" d="M43.93,23.16c-.56.05-1.13.08-1.71.08-9.62,0-17.42-7.79-17.42-17.41,0-.58.03-1.15.08-1.72l19.05,19.05Z"/></svg>