<?xml version="1.0" encoding="UTF-8"?><svg id="uuid-c790f7b7-a2b7-4ee1-a9a8-5c6a79a70b97" xmlns="http://www.w3.org/2000/svg" width="48" height="48" xmlns:xlink="http://www.w3.org/1999/xlink" viewBox="0 0 48 48"><defs><style>.uuid-a3e711ec-3a4e-41a4-a795-2fa7eb93e561{opacity:.05;}.uuid-a3e711ec-3a4e-41a4-a795-2fa7eb93e561,.uuid-5bf9c394-5936-4577-8544-c5028d69e831,.uuid-16dd2a10-6bce-48b6-83a9-6818b27300b6,.uuid-da627ece-a0e6-45af-a347-786759f89b85{stroke-width:0px;}.uuid-5bf9c394-5936-4577-8544-c5028d69e831{fill:url(#uuid-84bd4fa6-11ce-425c-8898-b17d9c98542c);}.uuid-16dd2a10-6bce-48b6-83a9-6818b27300b6{opacity:.07;}.uuid-da627ece-a0e6-45af-a347-786759f89b85{fill:url(#uuid-ea474752-9dbc-4030-a93c-ae0394bf2060);}</style><linearGradient id="uuid-84bd4fa6-11ce-425c-8898-b17d9c98542c" x1="12.279" y1="7.7352" x2="33.4806" y2="41.6648" gradientUnits="userSpaceOnUse"><stop offset="0" stop-color="#ff9c0d"/><stop offset="1" stop-color="#f36e22"/></linearGradient><linearGradient id="uuid-ea474752-9dbc-4030-a93c-ae0394bf2060" x1="27.0111" y1="21.0289" x2="43.7332" y2="4.3067" gradientUnits="userSpaceOnUse"><stop offset="0" stop-color="#ffcd84"/><stop offset="1" stop-color="#f36e22"/></linearGradient></defs><path class="uuid-5bf9c394-5936-4577-8544-c5028d69e831" d="M44,24c0,11.05-8.95,20-20,20S4,35.05,4,24,12.95,4,24,4c.26,0,.53.01.79.02l.09.09c-.05.57-.08,1.14-.08,1.72,0,9.6201,7.8,17.41,17.42,17.41.58,0,1.15-.03,1.71-.08l.05.05c.0099.26.02.53.02.79Z"/><path class="uuid-a3e711ec-3a4e-41a4-a795-2fa7eb93e561" d="M43.93,23.16c-.56.05-1.13.08-1.71.08-9.62,0-17.42-7.79-17.42-17.41,0-.58.03-1.15.08-1.72l-.09-.09c-.26-.0099-.53-.02-.79-.02-.0379,0-.0744.0055-.1122.0057-.0006.0058-.0035.0109-.004.0168-.0566.6465-.084,1.2373-.084,1.8076,0,10.1514,8.2632,18.4102,18.4204,18.4102.5707,0,1.1513-.0271,1.7718-.082.0004-.0533.008-.1048.008-.1582,0-.26-.01-.53-.02-.79l-.05-.05Z"/><path class="uuid-16dd2a10-6bce-48b6-83a9-6818b27300b6" d="M43.98,23.21l-.05-.05c-.56.05-1.13.08-1.71.08-9.62,0-17.42-7.79-17.42-17.41,0-.58.03-1.15.08-1.72l-.09-.09c-.1271-.0049-.2567-.006-.3863-.0098-.0043.0201-.0201.0353-.0219.0562-.0552.6309-.082,1.208-.082,1.7637,0,9.876,8.0391,17.9102,17.9204,17.9102.5596,0,1.1333-.0264,1.7544-.082.0062-.0005.0105-.0057.0166-.0065-.0038-.1481-.0056-.2964-.0112-.4418Z"/><path class="uuid-da627ece-a0e6-45af-a347-786759f89b85" d="M43.93,23.16c-.56.05-1.13.08-1.71.08-9.62,0-17.42-7.79-17.42-17.41,0-.58.03-1.15.08-1.72l19.05,19.05Z"/></svg>