<?xml version="1.0" encoding="UTF-8"?><svg id="uuid-ba0ce008-3155-4581-bd0b-59eb5a94b7c3" xmlns="http://www.w3.org/2000/svg" width="48" height="48" xmlns:xlink="http://www.w3.org/1999/xlink" viewBox="0 0 48 48"><defs><style>.uuid-f9d716e2-2e19-48d3-9aba-4c5d06f3c29e{fill:url(#uuid-d5bc51b4-7f13-43e9-bbeb-540fea787e96);}.uuid-f9d716e2-2e19-48d3-9aba-4c5d06f3c29e,.uuid-0c9d90a4-54c1-4b04-86b0-fa4a5cdf045e,.uuid-898466b0-4ef0-400e-b80f-b0a8bf9a1de1,.uuid-5be8bafe-1857-492f-8ac2-1afe8dc59131,.uuid-e3f270e5-d882-419c-be0b-136a51b6c159{stroke-width:0px;}.uuid-0c9d90a4-54c1-4b04-86b0-fa4a5cdf045e{opacity:.15;}.uuid-0c9d90a4-54c1-4b04-86b0-fa4a5cdf045e,.uuid-5be8bafe-1857-492f-8ac2-1afe8dc59131{fill:#fff;}.uuid-898466b0-4ef0-400e-b80f-b0a8bf9a1de1{fill:url(#uuid-47eccc09-0dcf-4868-9270-c7b71bf534bd);}.uuid-5be8bafe-1857-492f-8ac2-1afe8dc59131{opacity:.1;}.uuid-e3f270e5-d882-419c-be0b-136a51b6c159{fill:url(#uuid-6cb37406-da85-4064-8c0e-40328da76725);}</style><radialGradient id="uuid-6cb37406-da85-4064-8c0e-40328da76725" cx="24" cy="370" fx="24" fy="370" r="22" gradientTransform="translate(0 394) scale(1 -1)" gradientUnits="userSpaceOnUse"><stop offset="0" stop-color="#e8e9ea"/><stop offset=".1694" stop-color="#f3c7ac"/><stop offset=".9121" stop-color="#f6781d"/><stop offset="1" stop-color="#fe980f"/></radialGradient><radialGradient id="uuid-47eccc09-0dcf-4868-9270-c7b71bf534bd" cx="12.8889" cy="381.3333" fx="12.8889" fy="381.3333" r="32.4986" gradientTransform="translate(0 394) scale(1 -1)" gradientUnits="userSpaceOnUse"><stop offset="0" stop-color="#ff9c0d"/><stop offset="1" stop-color="#f36e22"/></radialGradient><linearGradient id="uuid-d5bc51b4-7f13-43e9-bbeb-540fea787e96" x1="8.092" y1="385.908" x2="35.996" y2="358.004" gradientTransform="translate(0 394) scale(1 -1)" gradientUnits="userSpaceOnUse"><stop offset="0" stop-color="#fed100"/><stop offset="1" stop-color="#f36e22"/></linearGradient></defs><path class="uuid-e3f270e5-d882-419c-be0b-136a51b6c159" d="M24,2l1.421,1.474c.93.965,2.388,1.196,3.571.566l1.807-.963.896,1.841c.586,1.205,1.902,1.876,3.222,1.641l2.016-.357.283,2.028c.185,1.328,1.229,2.371,2.557,2.557l2.028.283-.357,2.016c-.234,1.32.436,2.635,1.641,3.222l1.841.896-.963,1.807c-.631,1.183-.4,2.641.566,3.571l1.471,1.418-1.474,1.421c-.965.93-1.196,2.388-.566,3.571l.963,1.807-1.841.896c-1.205.586-1.876,1.902-1.641,3.222l.357,2.016-2.028.283c-1.328.185-2.371,1.229-2.557,2.557l-.283,2.028-2.016-.357c-1.32-.234-2.635.436-3.222,1.641l-.896,1.841-1.807-.963c-1.183-.631-2.641-.4-3.571.566l-1.418,1.471-1.421-1.474c-.93-.965-2.388-1.196-3.571-.566l-1.807.963-.896-1.841c-.586-1.205-1.902-1.876-3.222-1.641l-2.016.357-.283-2.028c-.185-1.328-1.229-2.371-2.557-2.557l-2.028-.283.357-2.016c.234-1.32-.436-2.635-1.641-3.222l-1.841-.896.963-1.807c.631-1.183.4-2.641-.566-3.571l-1.471-1.418,1.474-1.421c.965-.93,1.196-2.388.566-3.571l-.963-1.807,1.841-.896c1.205-.586,1.876-1.902,1.641-3.222l-.357-2.016,2.028-.283c1.328-.185,2.371-1.229,2.557-2.557l.283-2.028,2.016.357c1.32.234,2.635-.436,3.222-1.641l.896-1.841,1.807.963c1.183.631,2.641.4,3.571-.566l1.418-1.471Z"/><path class="uuid-898466b0-4ef0-400e-b80f-b0a8bf9a1de1" d="M24,7c-9.389,0-17,7.611-17,17s7.611,17,17,17,17-7.611,17-17S33.389,7,24,7Z"/><circle class="uuid-5be8bafe-1857-492f-8ac2-1afe8dc59131" cx="24" cy="24" r="18"/><circle class="uuid-0c9d90a4-54c1-4b04-86b0-fa4a5cdf045e" cx="24" cy="24" r="17.5"/><path class="uuid-f9d716e2-2e19-48d3-9aba-4c5d06f3c29e" d="M24,7c-9.389,0-17,7.611-17,17s7.611,17,17,17,17-7.611,17-17S33.389,7,24,7Z"/></svg>