<?xml version="1.0" encoding="UTF-8"?><svg id="uuid-babbc9da-b96b-4020-b030-05ca890fba70" xmlns="http://www.w3.org/2000/svg" width="48" height="48" xmlns:xlink="http://www.w3.org/1999/xlink" viewBox="0 0 48 48"><defs><style>.uuid-c224d003-7c83-432e-8c40-8f8441cf8131{fill:url(#uuid-c08f81d2-d0ca-46fa-b3a5-cca026a6627c);}.uuid-c224d003-7c83-432e-8c40-8f8441cf8131,.uuid-3ad775e3-f42b-47c8-88e9-969defc5967b,.uuid-90f7a0d8-1b30-42b1-a0ed-30e8af8f66fb,.uuid-1e24b270-9517-4a89-93ce-aa67fbeac0b9,.uuid-09de8366-57f9-4c0a-aa27-3f8612972f3c,.uuid-2df4c8d0-d717-45f5-8991-e707acfcf6ae{stroke-width:0px;}.uuid-3ad775e3-f42b-47c8-88e9-969defc5967b{fill:url(#uuid-a632575d-1fc0-4d73-9204-5b675250ef4a);}.uuid-90f7a0d8-1b30-42b1-a0ed-30e8af8f66fb{opacity:.15;}.uuid-90f7a0d8-1b30-42b1-a0ed-30e8af8f66fb,.uuid-09de8366-57f9-4c0a-aa27-3f8612972f3c{fill:#fff;}.uuid-1e24b270-9517-4a89-93ce-aa67fbeac0b9{fill:url(#uuid-8c2a0e40-9d6d-4ed6-8a6d-60edfca53ace);}.uuid-09de8366-57f9-4c0a-aa27-3f8612972f3c{opacity:.1;}.uuid-2df4c8d0-d717-45f5-8991-e707acfcf6ae{fill:url(#uuid-8061645c-514e-47ae-8639-81810964ec71);}</style><radialGradient id="uuid-a632575d-1fc0-4d73-9204-5b675250ef4a" cx="23.8856" cy="33.7778" fx="23.8856" fy="33.7778" r="20.9489" gradientUnits="userSpaceOnUse"><stop offset="0" stop-color="#e8e9ea"/><stop offset=".1694" stop-color="#f3c7ac"/><stop offset=".9121" stop-color="#f6781d"/><stop offset="1" stop-color="#fe980f"/></radialGradient><radialGradient id="uuid-c08f81d2-d0ca-46fa-b3a5-cca026a6627c" cx="12.8856" cy="31.2778" fx="12.8856" fy="31.2778" r="32.0192" gradientUnits="userSpaceOnUse"><stop offset="0" stop-color="#ff9c0d"/><stop offset="1" stop-color="#f36e22"/></radialGradient><linearGradient id="uuid-8061645c-514e-47ae-8639-81810964ec71" x1="10.4181" y1="44.1684" x2="34.2361" y2="20.3505" gradientUnits="userSpaceOnUse"><stop offset="0" stop-color="#fed100"/><stop offset="1" stop-color="#f36e22"/></linearGradient><linearGradient id="uuid-8c2a0e40-9d6d-4ed6-8a6d-60edfca53ace" x1="515.8943" y1="19.123" x2="493.8835" y2="32.877" gradientTransform="translate(-480.8889 9.1111)" gradientUnits="userSpaceOnUse"><stop offset="0" stop-color="#fff"/><stop offset=".242" stop-color="#f2f2f2"/><stop offset="1" stop-color="#ccc"/></linearGradient></defs><path class="uuid-3ad775e3-f42b-47c8-88e9-969defc5967b" d="M44.5267,32.6911c-.96-.93-1.1899-2.39-.56-3.57l.96-1.81-1.84-.89c-1.21-.59-1.88-1.9-1.64-3.22l.35-2.02-2.02-.28c-1.33-.19-2.3799-1.23-2.56-2.56l-.28-2.03-2.02.36c-1.32.23-2.64-.44-3.22-1.64l-.9-1.84-1.8.96c-1.19.63-2.65.4-3.58-.57l-1.42-1.47-1.41,1.47c-.9301.97-2.39,1.2-3.58.57l-1.8-.97-.9,1.84c-.59,1.21-1.9,1.88-3.22,1.65l-2.02-.36-.28,2.03c-.19,1.33-1.23,2.37-2.56,2.55l-2.02.29.35,2.01c.24,1.32-.43,2.64-1.64,3.23l-1.84.89.96,1.81c.63,1.18.4,2.64-.56,3.57l-1.48,1.42h44l-1.47-1.42Z"/><path class="uuid-c224d003-7c83-432e-8c40-8f8441cf8131" d="M40.9967,34.1111H6.9967c0-9.39,7.61-17,17-17s17,7.61,17,17Z"/><path class="uuid-09de8366-57f9-4c0a-aa27-3f8612972f3c" d="M23.9967,16.1111c-9.92,0-18,8.07-18,18h36c0-9.93-8.07-18-18-18Z"/><path class="uuid-90f7a0d8-1b30-42b1-a0ed-30e8af8f66fb" d="M23.9967,16.6111c-9.65,0-17.5,7.85-17.5,17.5h35c0-9.65-7.85-17.5-17.5-17.5Z"/><path class="uuid-2df4c8d0-d717-45f5-8991-e707acfcf6ae" d="M40.9967,34.1111H6.9967c0-9.39,7.61-17,17-17s17,7.61,17,17Z"/><rect class="uuid-1e24b270-9517-4a89-93ce-aa67fbeac0b9" x="23" y="11.6111" width="2" height="47" rx=".857" ry=".857" transform="translate(-11.1111 59.1111) rotate(-90)"/></svg>