<?xml version="1.0" encoding="UTF-8"?><svg id="uuid-e59ebf31-a563-4d81-bcec-7ca78b7dd8ae" xmlns="http://www.w3.org/2000/svg" width="48" height="48" xmlns:xlink="http://www.w3.org/1999/xlink" viewBox="0 0 48 48"><defs><style>.uuid-68078f2d-683e-488c-99ff-bc62c8c5b8f0{opacity:.05;}.uuid-68078f2d-683e-488c-99ff-bc62c8c5b8f0,.uuid-24e7f989-9a2f-4b59-aeaa-2ae0bb748ae8,.uuid-640a7ab3-52e1-4cc9-b329-fbed2d98272a,.uuid-03a2a53b-43dc-4d4a-8501-91cae33de79b,.uuid-50746bcf-04e8-4970-af56-87e34ad08312{stroke-width:0px;}.uuid-24e7f989-9a2f-4b59-aeaa-2ae0bb748ae8{fill:url(#uuid-bca52dba-d155-4ee4-ad92-874aaf2992b4);}.uuid-640a7ab3-52e1-4cc9-b329-fbed2d98272a{fill:url(#uuid-45fc1d77-2d10-479a-82d7-d0f70b6b42e9);}.uuid-03a2a53b-43dc-4d4a-8501-91cae33de79b{fill:url(#uuid-db52a680-e448-44fc-b641-b20a46672a51);}.uuid-50746bcf-04e8-4970-af56-87e34ad08312{fill:url(#uuid-de7623a0-f96e-4a57-ad3f-7b270e8c151d);}</style><linearGradient id="uuid-de7623a0-f96e-4a57-ad3f-7b270e8c151d" x1="10.0565" y1="367.1438" x2="18.523" y2="353.3686" gradientTransform="translate(0 394) scale(1 -1)" gradientUnits="userSpaceOnUse"><stop offset="0" stop-color="#fff"/><stop offset=".242" stop-color="#f2f2f2"/><stop offset="1" stop-color="#ccc"/></linearGradient><linearGradient id="uuid-bca52dba-d155-4ee4-ad92-874aaf2992b4" x1="22.7888" y1="387.1143" x2="37.5874" y2="363.0366" xlink:href="#uuid-de7623a0-f96e-4a57-ad3f-7b270e8c151d"/><linearGradient id="uuid-db52a680-e448-44fc-b641-b20a46672a51" x1="12.789" y1="353.211" x2="7.182" y2="358.818" gradientTransform="translate(0 394) scale(1 -1)" gradientUnits="userSpaceOnUse"><stop offset="0" stop-color="#64717c"/><stop offset="1" stop-color="#30363d"/></linearGradient><linearGradient id="uuid-45fc1d77-2d10-479a-82d7-d0f70b6b42e9" x1="8.9942" y1="357.6364" x2="11.0294" y2="354.3251" gradientTransform="translate(0 394) scale(1 -1)" gradientUnits="userSpaceOnUse"><stop offset="0" stop-color="#ff9c0d"/><stop offset="1" stop-color="#f36e22"/></linearGradient></defs><path class="uuid-50746bcf-04e8-4970-af56-87e34ad08312" d="M17.464,21.808l8.728,8.728-11.656,11.656c-2.41,2.41-6.318,2.41-8.728,0h0c-2.41-2.41-2.41-6.318,0-8.728l11.656-11.656Z"/><path class="uuid-68078f2d-683e-488c-99ff-bc62c8c5b8f0" d="M17.464,21.808l-1.4903,1.4903c.6509,1.7219,1.608,3.332,2.8876,4.7496,1.6179,1.7916,3.6377,3.1297,5.8528,3.966l1.4778-1.4778-8.728-8.728Z"/><path class="uuid-68078f2d-683e-488c-99ff-bc62c8c5b8f0" d="M17.464,21.808l-1.1038,1.1038c.6281,1.7447,1.583,3.3732,2.8722,4.8011,1.6153,1.789,3.6433,3.114,5.868,3.9147l1.0916-1.0916-8.728-8.728Z"/><path class="uuid-24e7f989-9a2f-4b59-aeaa-2ae0bb748ae8" d="M36.883,19.304c-2.261,2.261-5.927,2.261-8.188,0s-2.261-5.927,0-8.188c.552-.552,2.775-2.775,5.04-5.04.543-.543.302-1.492-.444-1.675-1.836-.452-3.811-.546-5.866-.159-6.026,1.136-10.725,6.178-11.35,12.279-.912,8.895,6.511,16.317,15.406,15.403,6.1-.627,11.141-5.326,12.276-11.352.387-2.054.292-4.028-.159-5.864-.184-.746-1.132-.987-1.675-.444-2.265,2.265-4.488,4.489-5.04,5.04Z"/><circle class="uuid-03a2a53b-43dc-4d4a-8501-91cae33de79b" cx="10" cy="38" r="4"/><circle class="uuid-640a7ab3-52e1-4cc9-b329-fbed2d98272a" cx="10" cy="38" r="2"/></svg>