<?xml version="1.0" encoding="UTF-8"?><svg id="uuid-5ad79570-f309-456b-ad10-df82ccbf57cf" xmlns="http://www.w3.org/2000/svg" width="48" height="48" xmlns:xlink="http://www.w3.org/1999/xlink" viewBox="0 0 48 48"><defs><style>.uuid-5ff97f5b-7578-45c9-b295-b9c443fb8de0{fill:url(#uuid-44890443-9bfa-471f-965e-d46d13b0be9b);}.uuid-5ff97f5b-7578-45c9-b295-b9c443fb8de0,.uuid-c4246b7c-f6dc-4843-a2ee-571806340c2f,.uuid-930bff66-6748-48fe-9ff3-210747477610{stroke-width:0px;}.uuid-c4246b7c-f6dc-4843-a2ee-571806340c2f{fill:url(#uuid-90f3d7be-b7bd-4d29-add5-3abff79af4fb);}.uuid-930bff66-6748-48fe-9ff3-210747477610{fill:url(#uuid-be222f3e-dc7d-4c9b-a910-fc46c0b08a8f);}</style><linearGradient id="uuid-90f3d7be-b7bd-4d29-add5-3abff79af4fb" x1="4.5578" y1="475.5881" x2="32.0213" y2="475.5881" gradientTransform="translate(0 494) scale(1 -1)" gradientUnits="userSpaceOnUse"><stop offset="0" stop-color="#f36e22"/><stop offset="1" stop-color="#c15227"/></linearGradient><linearGradient id="uuid-44890443-9bfa-471f-965e-d46d13b0be9b" x1="-1529.4412" y1="765.5881" x2="-1501.9787" y2="765.5881" gradientTransform="translate(-1486 -736) rotate(-180) scale(1 -1)" xlink:href="#uuid-90f3d7be-b7bd-4d29-add5-3abff79af4fb"/><linearGradient id="uuid-be222f3e-dc7d-4c9b-a910-fc46c0b08a8f" x1="13.9414" y1="486.3656" x2="34.2955" y2="453.249" gradientTransform="translate(0 494) scale(1 -1)" gradientUnits="userSpaceOnUse"><stop offset="0" stop-color="#ff9c0d"/><stop offset="1" stop-color="#f36e22"/></linearGradient></defs><path class="uuid-c4246b7c-f6dc-4843-a2ee-571806340c2f" d="M32.002,8.271l.162-.496c.33-1.011-.184-2.12-1.18-2.493-9.254-3.467-19.864.357-24.636,9.315-3.137,5.89-3.031,12.643-.305,18.212l5.354-2.71c-1.876-3.885-1.937-8.582.246-12.681,3.363-6.314,10.947-9.173,18.085-7.811.989.188,1.962-.379,2.274-1.336Z"/><path class="uuid-5ff97f5b-7578-45c9-b295-b9c443fb8de0" d="M15.998,39.729l-.162.496c-.33,1.011.184,2.12,1.18,2.493,9.253,3.467,19.864-.357,24.635-9.315,3.137-5.89,3.031-12.643.305-18.212l-5.354,2.71c1.876,3.885,1.937,8.582-.246,12.681-3.363,6.314-10.947,9.173-18.085,7.811-.988-.188-1.961.379-2.273,1.336Z"/><path class="uuid-930bff66-6748-48fe-9ff3-210747477610" d="M10,24c0,2.004.436,4.006,1.291,5.861l2.48-1.26c.699-.355,1.478.312,1.235,1.057l-2.439,7.482c-.214.656-.919,1.014-1.575.8l-7.482-2.439c-.745-.243-.824-1.265-.126-1.62l2.563-1.303c-3.528-7.427-2.235-16.574,3.911-22.72,3.905-3.905,9.023-5.858,14.142-5.858,0,0-14,6-14,20ZM44.49,12.499l-7.482-2.439c-.656-.214-1.361.145-1.575.8l-2.439,7.482c-.243.745.536,1.412,1.235,1.057l2.48-1.26c.855,1.855,1.291,3.857,1.291,5.861,0,14-14,20-14,20,5.119,0,10.237-1.952,14.142-5.857,6.146-6.146,7.439-15.293,3.911-22.72l2.563-1.303c.699-.355.619-1.378-.126-1.621Z"/></svg>