<?xml version="1.0" encoding="UTF-8"?><svg id="uuid-9ae459aa-361c-47d4-a6ee-70ed5cea0bb0" xmlns="http://www.w3.org/2000/svg" width="48" height="48" xmlns:xlink="http://www.w3.org/1999/xlink" viewBox="0 0 48 48"><defs><style>.uuid-3e73b2be-57f7-4d34-84bf-4a866c9b52ac{fill:url(#uuid-7c55a5f0-8a3c-49ad-a3b8-7110c055474f);stroke-width:0px;}</style><linearGradient id="uuid-7c55a5f0-8a3c-49ad-a3b8-7110c055474f" x1="18.9286" y1="8.7469" x2="35.4865" y2="35.2451" gradientUnits="userSpaceOnUse"><stop offset="0" stop-color="#ff9c0d"/><stop offset="1" stop-color="#f36e22"/></linearGradient></defs><path class="uuid-3e73b2be-57f7-4d34-84bf-4a866c9b52ac" d="M43.2571,6.9356c-.0199-1.2026-.9901-2.1728-2.1927-2.1926l-14.663-.2427c-.6041-.01-1.1865.2256-1.6137.6528L5.1531,24.7877c-.8708.8708-.8708,2.2827,0,3.1535l14.9057,14.9057c.8708.8708,2.2827.8708,3.1535,0l19.6346-19.6346c.4272-.4272.6628-1.0095.6528-1.6136l-.2426-14.6631ZM39.7812,11.314c-.8547.8547-2.2404.8547-3.0951,0-.8546-.8547-.8546-2.2404,0-3.0951.8547-.8546,2.2404-.8546,3.0951,0,.8547.8547.8547,2.2404,0,3.0951Z"/></svg>