<?xml version="1.0" encoding="UTF-8"?><svg id="uuid-52930ff2-0311-4e22-925d-eac9927e1f3b" xmlns="http://www.w3.org/2000/svg" width="48" height="48" xmlns:xlink="http://www.w3.org/1999/xlink" viewBox="0 0 48 48"><defs><style>.uuid-c7519b55-7f9f-4e15-8eeb-c350e0674bad{opacity:.05;}.uuid-c7519b55-7f9f-4e15-8eeb-c350e0674bad,.uuid-73fb8e3c-385f-4038-b8c9-efc51117ca4c,.uuid-26e480ed-1753-4b30-825d-aa79340d8b4f,.uuid-390b96c0-4adc-4bd2-ab40-c6a442aa6196{stroke-width:0px;}.uuid-73fb8e3c-385f-4038-b8c9-efc51117ca4c{fill:url(#uuid-6dc46b45-19ff-4f5b-a923-0f6b49090655);opacity:.75;}.uuid-26e480ed-1753-4b30-825d-aa79340d8b4f{fill:url(#uuid-2809641c-eb51-4a40-8f4e-32b059fa209d);}.uuid-390b96c0-4adc-4bd2-ab40-c6a442aa6196{opacity:.07;}</style><linearGradient id="uuid-2809641c-eb51-4a40-8f4e-32b059fa209d" x1="21.4189" y1="12.2691" x2="36.2987" y2="36.0817" gradientUnits="userSpaceOnUse"><stop offset="0" stop-color="#ff9c0d"/><stop offset="1" stop-color="#f36e22"/></linearGradient><linearGradient id="uuid-6dc46b45-19ff-4f5b-a923-0f6b49090655" x1="17.4663" y1="8.3164" x2="32.346" y2="32.129" gradientUnits="userSpaceOnUse"><stop offset="0" stop-color="#fff"/><stop offset=".242" stop-color="#f2f2f2"/><stop offset="1" stop-color="#ccc"/></linearGradient></defs><path class="uuid-26e480ed-1753-4b30-825d-aa79340d8b4f" d="M43.2817,10.6414c-.0179-1.0808-.8897-1.9526-1.9705-1.9704l-13.1769-.2181c-.5429-.009-1.0662.2027-1.4501.5866L9.0396,26.6842c-.7825.7826-.7825,2.0513,0,2.8339l13.395,13.395c.7826.7826,2.0514.7826,2.8339,0l17.6446-17.6446c.3839-.3839.5956-.9072.5866-1.4501l-.218-13.177ZM40.1581,14.576c-.7681.7681-2.0133.7681-2.7814,0-.768-.7681-.768-2.0133,0-2.7814.7681-.768,2.0133-.768,2.7814,0,.7681.7681.7681,2.0133,0,2.7814Z"/><path class="uuid-c7519b55-7f9f-4e15-8eeb-c350e0674bad" d="M40.5494,19.8497l-.0939-5.6685c-.0826.14-.1772.2746-.2974.3949-.7681.7681-2.0133.7681-2.7814,0-.768-.7681-.768-2.0133,0-2.7814.7681-.768,2.0133-.768,2.7814,0,.1021.1021.1884.2135.2634.3302l-.0574-3.4694-4.8511-.0803c.3543.3773.3522.9709-.0163,1.3394-.182.182-.4246.2828-.682.2828s-.5-.1008-.682-.2828-.2818-.4237-.2818-.682c0-.2576.0997-.4986.2807-.6803l-5.9973-.0993c-.5429-.009-1.0662.2027-1.4501.5866L9.0396,26.6842c-.7825.7826-.7825,2.0513,0,2.8339l11.0155,11.0155c.7429-.0383,1.4383-.3344,1.9693-.8644l17.6444-17.6454c.5724-.5724.8933-1.3649.8806-2.1741Z"/><path class="uuid-390b96c0-4adc-4bd2-ab40-c6a442aa6196" d="M40.0484,19.8575l-.0848-5.1226c-.7713.596-1.8794.5487-2.587-.1589-.768-.7681-.768-2.0133,0-2.7814.6914-.6913,1.7663-.7546,2.5349-.2014l-.0488-2.9462-3.7541-.0621c.2737.5487.1991,1.2269-.2578,1.6838-.2769.2769-.6448.4295-1.0362.4295s-.7593-.1526-1.0362-.4295c-.4694-.4694-.5314-1.1705-.2297-1.7262l-5.4145-.0896c-.5429-.009-1.0662.2027-1.4501.5866L9.0396,26.6842c-.7825.7826-.7825,2.0513,0,2.8339l10.4941,10.4941c.1207.0176.2413.0357.3655.0357.6683,0,1.2974-.2603,1.771-.7329l17.6444-17.6454c.4775-.4775.7446-1.1379.7338-1.8121Z"/><path class="uuid-73fb8e3c-385f-4038-b8c9-efc51117ca4c" d="M39.329,6.6887c-.0179-1.0807-.8897-1.9526-1.9704-1.9704l-13.177-.218c-.5429-.009-1.0661.2027-1.4501.5866L5.0869,22.7315c-.7826.7826-.7826,2.0514,0,2.8339l13.395,13.395c.7825.7826,2.0513.7826,2.8339,0l17.6445-17.6445c.384-.3839.5956-.9072.5867-1.4501l-.2181-13.177ZM36.2054,10.6233c-.768.7681-2.0133.7681-2.7814,0-.7681-.768-.7681-2.0133,0-2.7814.768-.7681,2.0133-.7681,2.7814,0,.7681.768.7681,2.0133,0,2.7814Z"/></svg>