<?xml version="1.0" encoding="UTF-8"?><svg id="uuid-2e86d3d0-0332-4c70-a0c7-969bd3530597" xmlns="http://www.w3.org/2000/svg" width="48" height="48" xmlns:xlink="http://www.w3.org/1999/xlink" viewBox="0 0 48 48"><defs><style>.uuid-9c90d606-20de-4e68-8e45-bfbb68244c4a{fill:url(#uuid-9973abf9-606b-44dd-b2f0-96e677aec94a);}.uuid-9c90d606-20de-4e68-8e45-bfbb68244c4a,.uuid-e1c914eb-2437-4ea4-afe4-a29a8d56c2f9,.uuid-5596c174-93cf-4763-b717-db1c940c382c,.uuid-dee7d58e-d9b8-4c3c-bb38-8596cdbd3124,.uuid-3851d865-2625-4783-976b-8ac45777d81b,.uuid-e4e0d0ed-fb2e-45ac-a2de-5b9e72dbd0aa,.uuid-c039b9cc-26e1-4831-8eb4-e7ba6cf1c91c,.uuid-7eaf74b4-1cdd-4175-be2e-823be74456ea{stroke-width:0px;}.uuid-e1c914eb-2437-4ea4-afe4-a29a8d56c2f9{fill:url(#uuid-fab74709-f880-4d21-b664-a1a2ca626f8c);}.uuid-5596c174-93cf-4763-b717-db1c940c382c{opacity:.05;}.uuid-dee7d58e-d9b8-4c3c-bb38-8596cdbd3124{fill:url(#uuid-954ec6e9-4f2a-439e-9f6d-95de58d6296a);}.uuid-3851d865-2625-4783-976b-8ac45777d81b{fill:url(#uuid-fabd7b9d-dd0f-42b2-b931-03c494ba2914);}.uuid-e4e0d0ed-fb2e-45ac-a2de-5b9e72dbd0aa{fill:url(#uuid-3fa90df6-d9c3-4377-8ef3-b25ab27cfd49);}.uuid-c039b9cc-26e1-4831-8eb4-e7ba6cf1c91c{opacity:.07;}.uuid-7eaf74b4-1cdd-4175-be2e-823be74456ea{fill:url(#uuid-c52e05ae-8be3-4cbf-9b97-52b3aca24bde);}</style><linearGradient id="uuid-c52e05ae-8be3-4cbf-9b97-52b3aca24bde" x1="38" y1="466.211" x2="38" y2="474.294" gradientTransform="translate(0 494) scale(1 -1)" gradientUnits="userSpaceOnUse"><stop offset="0" stop-color="#fff"/><stop offset=".242" stop-color="#f2f2f2"/><stop offset="1" stop-color="#ccc"/></linearGradient><linearGradient id="uuid-9973abf9-606b-44dd-b2f0-96e677aec94a" x1="28" y1="478.211" x2="28" y2="486.294" xlink:href="#uuid-c52e05ae-8be3-4cbf-9b97-52b3aca24bde"/><linearGradient id="uuid-fab74709-f880-4d21-b664-a1a2ca626f8c" x1="35.5" y1="454.211" x2="35.5" y2="462.294" xlink:href="#uuid-c52e05ae-8be3-4cbf-9b97-52b3aca24bde"/><linearGradient id="uuid-fabd7b9d-dd0f-42b2-b931-03c494ba2914" x1="5.3475" y1="486.3157" x2="10.7149" y2="477.5828" gradientTransform="translate(0 494) scale(1 -1)" gradientUnits="userSpaceOnUse"><stop offset="0" stop-color="#ff9c0d"/><stop offset="1" stop-color="#f36e22"/></linearGradient><linearGradient id="uuid-954ec6e9-4f2a-439e-9f6d-95de58d6296a" x1="12.7146" y1="478.5994" x2="23.4097" y2="461.1983" xlink:href="#uuid-fabd7b9d-dd0f-42b2-b931-03c494ba2914"/><linearGradient id="uuid-3fa90df6-d9c3-4377-8ef3-b25ab27cfd49" x1="10.8728" y1="465.5285" x2="20.236" y2="450.2945" xlink:href="#uuid-fabd7b9d-dd0f-42b2-b931-03c494ba2914"/></defs><path class="uuid-7eaf74b4-1cdd-4175-be2e-823be74456ea" d="M43,28h-12v-8h12c1.105,0,2,.895,2,2v4c0,1.105-.895,2-2,2Z"/><path class="uuid-9c90d606-20de-4e68-8e45-bfbb68244c4a" d="M43,16H11v-8h32c1.105,0,2,.895,2,2v4c0,1.105-.895,2-2,2Z"/><path class="uuid-e1c914eb-2437-4ea4-afe4-a29a8d56c2f9" d="M43,40h-17v-8h17c1.105,0,2,.895,2,2v4c0,1.105-.895,2-2,2Z"/><path class="uuid-5596c174-93cf-4763-b717-db1c940c382c" d="M11,16h2.2197c.4797-.532.7803-1.2289.7803-2v-4c0-.7711-.3005-1.468-.7803-2h-2.2197v8Z"/><path class="uuid-5596c174-93cf-4763-b717-db1c940c382c" d="M31,28h2.2197c.4797-.532.7803-1.2289.7803-2v-4c0-.7711-.3005-1.468-.7803-2h-2.2197v8Z"/><path class="uuid-5596c174-93cf-4763-b717-db1c940c382c" d="M26,40h2.2197c.4797-.532.7803-1.2289.7803-2v-4c0-.7711-.3005-1.468-.7803-2h-2.2197v8Z"/><path class="uuid-c039b9cc-26e1-4831-8eb4-e7ba6cf1c91c" d="M11,16h1.4847c.6125-.4561,1.0153-1.1793,1.0153-2v-4c0-.8207-.4027-1.5439-1.0153-2h-1.4847v8Z"/><path class="uuid-c039b9cc-26e1-4831-8eb4-e7ba6cf1c91c" d="M31,28h1.4847c.6125-.4561,1.0153-1.1793,1.0153-2v-4c0-.8207-.4027-1.5439-1.0153-2h-1.4847v8Z"/><path class="uuid-c039b9cc-26e1-4831-8eb4-e7ba6cf1c91c" d="M26,40h1.4847c.6125-.4561,1.0153-1.1793,1.0153-2v-4c0-.8207-.4027-1.5439-1.0153-2h-1.4847v8Z"/><path class="uuid-3851d865-2625-4783-976b-8ac45777d81b" d="M11,16h-6c-1.105,0-2-.895-2-2v-4c0-1.105.895-2,2-2h6c1.105,0,2,.895,2,2v4c0,1.105-.895,2-2,2Z"/><path class="uuid-dee7d58e-d9b8-4c3c-bb38-8596cdbd3124" d="M31,28H5c-1.105,0-2-.895-2-2v-4c0-1.105.895-2,2-2h26c1.105,0,2,.895,2,2v4c0,1.105-.895,2-2,2Z"/><path class="uuid-e4e0d0ed-fb2e-45ac-a2de-5b9e72dbd0aa" d="M26,40H5c-1.105,0-2-.895-2-2v-4c0-1.105.895-2,2-2h21c1.105,0,2,.895,2,2v4c0,1.105-.895,2-2,2Z"/></svg>