<?xml version="1.0" encoding="UTF-8"?><svg id="uuid-935254ad-0e33-4326-9968-d34cc40b55f5" xmlns="http://www.w3.org/2000/svg" width="48" height="48" xmlns:xlink="http://www.w3.org/1999/xlink" viewBox="0 0 48 48"><defs><style>.uuid-0121b15e-58d3-4a18-bfa5-5c2c15b89da1{fill:url(#uuid-70b0a407-04dd-4bcb-a4fb-28704b606214);}.uuid-0121b15e-58d3-4a18-bfa5-5c2c15b89da1,.uuid-2249afc7-13a2-45d1-aa19-2426a9aa5908,.uuid-55b1e972-7611-4761-a55d-a527e18b7e9e,.uuid-6dcef770-befb-48d7-a347-4b609d5956e7,.uuid-8a0d1e61-9a85-4d3a-bfd2-981357712e0b{stroke-width:0px;}.uuid-2249afc7-13a2-45d1-aa19-2426a9aa5908{opacity:.05;}.uuid-55b1e972-7611-4761-a55d-a527e18b7e9e{fill:url(#uuid-f4240635-151b-4cb9-9aca-176af8a32249);}.uuid-6dcef770-befb-48d7-a347-4b609d5956e7{fill:url(#uuid-d5b7127c-f1d1-4605-8616-0d544422c487);}.uuid-8a0d1e61-9a85-4d3a-bfd2-981357712e0b{opacity:.07;}</style><linearGradient id="uuid-d5b7127c-f1d1-4605-8616-0d544422c487" x1="24.4529" y1="18.5571" x2="35.5274" y2="36.2799" gradientUnits="userSpaceOnUse"><stop offset="0" stop-color="#32bdef"/><stop offset="1" stop-color="#1ea2e4"/></linearGradient><linearGradient id="uuid-70b0a407-04dd-4bcb-a4fb-28704b606214" x1="6.4475" y1="23.1822" x2="20.657" y2="45.9222" gradientUnits="userSpaceOnUse"><stop offset="0" stop-color="#ff9c0d"/><stop offset="1" stop-color="#f36e22"/></linearGradient><linearGradient id="uuid-f4240635-151b-4cb9-9aca-176af8a32249" x1="13.4803" y1="4.4759" x2="26.1069" y2="24.6826" gradientUnits="userSpaceOnUse"><stop offset="0" stop-color="#fff"/><stop offset=".242" stop-color="#f2f2f2"/><stop offset="1" stop-color="#ccc"/></linearGradient></defs><circle class="uuid-6dcef770-befb-48d7-a347-4b609d5956e7" cx="34.4478" cy="34.5522" r="10.4478"/><path class="uuid-0121b15e-58d3-4a18-bfa5-5c2c15b89da1" d="M5.7164,45h15.6717c1.4366,0,2.6119-1.1754,2.6119-2.6119v-15.6717c0-1.4366-1.1754-2.6119-2.6119-2.6119H5.7164c-1.4366,0-2.6119,1.1754-2.6119,2.6119v15.6717c0,1.4366,1.1754,2.6119,2.6119,2.6119Z"/><path class="uuid-2249afc7-13a2-45d1-aa19-2426a9aa5908" d="M25.0072,30.0989c-.6392,1.3524-1.0072,2.8581-1.0072,4.4533s.368,3.1008,1.0072,4.4533v-8.9065Z"/><path class="uuid-8a0d1e61-9a85-4d3a-bfd2-981357712e0b" d="M24.5036,31.3526c-.3244,1.0089-.5036,2.0828-.5036,3.1996s.1792,2.1907.5036,3.1996v-6.3991Z"/><path class="uuid-2249afc7-13a2-45d1-aa19-2426a9aa5908" d="M34.4478,24.1044c-1.595,0-3.1005.3679-4.4528,1.007h3.7085c.8892,0,1.7076-.3167,2.3488-.8712-.5244-.081-1.0575-.1358-1.6046-.1358Z"/><path class="uuid-8a0d1e61-9a85-4d3a-bfd2-981357712e0b" d="M34.4478,24.1044c-1.1165,0-2.1902.1791-3.1989.5034h2.4547c.5913,0,1.1449-.1658,1.6226-.459-.2903-.0242-.5818-.0443-.8783-.0443Z"/><path class="uuid-2249afc7-13a2-45d1-aa19-2426a9aa5908" d="M11.7966,24.1044c.6606.6402,1.5398,1.007,2.4999,1.007h9.1343c-.4793-.6078-1.2132-1.007-2.0428-1.007h-9.5915Z"/><path class="uuid-8a0d1e61-9a85-4d3a-bfd2-981357712e0b" d="M12.6175,24.1044c.4908.3175,1.0624.5034,1.6789.5034h8.6167c-.4306-.313-.9552-.5034-1.5252-.5034h-8.7705Z"/><path class="uuid-55b1e972-7611-4761-a55d-a527e18b7e9e" d="M21.7929,4.2537l-9.7164,15.8806c-1.0709,1.7239.1828,3.9702,2.2202,3.9702h19.4067c2.0373,0,3.291-2.2463,2.2202-3.9702l-9.6903-15.8806c-1.0187-1.6716-3.4216-1.6716-4.4403,0Z"/></svg>