<?xml version="1.0" encoding="UTF-8"?><svg id="uuid-4dd04813-78ec-4674-8df0-9c6b85a9808a" xmlns="http://www.w3.org/2000/svg" width="48" height="48" xmlns:xlink="http://www.w3.org/1999/xlink" viewBox="0 0 48 48"><defs><style>.uuid-b447c3b5-f305-4880-bc3e-0447f0c7b86c{fill:url(#uuid-61aeba29-68dc-46d6-8487-855030f53699);}.uuid-b447c3b5-f305-4880-bc3e-0447f0c7b86c,.uuid-6468c093-1535-4223-9222-7775422866a8,.uuid-53255bb9-f561-40a8-83bc-68d2f9e44a32,.uuid-96236e5d-0774-4552-b84a-b6ef4c22fca7,.uuid-a4b82647-b225-470c-8536-6edced80e5c0,.uuid-69956799-a31e-4696-af6a-d9ae88ac13c4{stroke-width:0px;}.uuid-6468c093-1535-4223-9222-7775422866a8{opacity:.07;}.uuid-6468c093-1535-4223-9222-7775422866a8,.uuid-a4b82647-b225-470c-8536-6edced80e5c0{isolation:isolate;}.uuid-53255bb9-f561-40a8-83bc-68d2f9e44a32{fill:none;}.uuid-96236e5d-0774-4552-b84a-b6ef4c22fca7{fill:#fff;}.uuid-a4b82647-b225-470c-8536-6edced80e5c0{opacity:.05;}.uuid-69956799-a31e-4696-af6a-d9ae88ac13c4{fill:url(#uuid-4c0befdf-8029-412e-9f0f-5b8490781fc1);}</style><linearGradient id="uuid-4c0befdf-8029-412e-9f0f-5b8490781fc1" x1="11.9745" y1="490.0658" x2="37.6283" y2="448.3264" gradientTransform="translate(0 494) scale(1 -1)" gradientUnits="userSpaceOnUse"><stop offset="0" stop-color="#64717c"/><stop offset="1" stop-color="#30363d"/></linearGradient><linearGradient id="uuid-61aeba29-68dc-46d6-8487-855030f53699" x1="8.9771" y1="497.1071" x2="40.7641" y2="440.8091" gradientTransform="translate(0 494) scale(1 -1)" gradientUnits="userSpaceOnUse"><stop offset="0" stop-color="#eceff1"/><stop offset="1" stop-color="#cfd8dc"/></linearGradient></defs><path class="uuid-69956799-a31e-4696-af6a-d9ae88ac13c4" d="M42.9549,39.9608H5.0451c-1.1024,0-1.9952-.8929-1.9952-1.9952V9.0344c0-1.1024.8929-1.9952,1.9952-1.9952h37.9097c1.1024,0,1.9952.8929,1.9952,1.9952v28.9311c0,1.1024-.8929,1.9952-1.9952,1.9952Z"/><path class="uuid-b447c3b5-f305-4880-bc3e-0447f0c7b86c" d="M42,10v27H6V10h36M43,7H5c-1.105,0-2,.895-2,2v29c0,1.105.895,2,2,2h38c1.105,0,2-.895,2-2V9c0-1.105-.895-2-2-2h0Z"/><path class="uuid-a4b82647-b225-470c-8536-6edced80e5c0" d="M16.9029,18.1996c-.3801-.41-.9058-.7642-1.6002-1.0764v-.3143c.1227.0559.2404.1177.3532.1866l.7592.4659.7602.4659v-3.9845l-.2534-.1427-.2534-.1427c-.3651-.2065-.8141-.3512-1.3648-.441v-1.1892h-2.8632v1.3019c-.5657.1796-1.0545.4739-1.4565.8779-.6315.6345-.9507,1.4116-.9507,2.3095,0,.821.2484,1.5353.7382,2.1239.3631.434.9108.8151,1.668,1.1592v.2594c-.3741-.1407-.5467-.2544-.6175-.3133l-.8151-.6664-.8151-.6664v4.3696l.2664.1407.2664.1407c.5397.2833,1.1133.4779,1.7139.5806v1.3518h2.8632v-1.4835c.5986-.1756,1.1004-.4579,1.4964-.841.6205-.5986.9348-1.3797.9348-2.3215.002-.833-.2773-1.5573-.83-2.1509Z"/><path class="uuid-6468c093-1535-4223-9222-7775422866a8" d="M16.5378,18.5388c-.3831-.413-.9527-.7702-1.7329-1.0864v-1.3398c.402.0968.7752.2504,1.1124.4569l.7592.4659v-2.8023l-.2534-.1427c-.3971-.2245-.9298-.3681-1.6181-.437v-1.1273h-1.8656v1.1872c-.6395.1357-1.1772.419-1.6022.846-.5347.5367-.8051,1.1952-.8051,1.9573,0,.7013.2095,1.3079.6235,1.8047.3562.426.9418.8041,1.7838,1.1513v1.262c-.1736-.0409-.3591-.0958-.5537-.1646-.4-.1407-.6953-.2873-.8789-.438l-.8151-.6664v3.0158l.2664.1407c.6165.3242,1.281.5198,1.9803.5846v1.2909h1.8656v-1.3747c.6824-.1387,1.2361-.41,1.6491-.8091.5198-.5008.7831-1.1612.7831-1.9633,0-.7033-.2344-1.3129-.6983-1.8117Z"/><path class="uuid-a4b82647-b225-470c-8536-6edced80e5c0" d="M40.9596,11.0297v24.9406H7.0404V11.0297h33.9192M41.9572,10.0321H6.0428v26.9359h35.9145V10.0321h0Z"/><path class="uuid-6468c093-1535-4223-9222-7775422866a8" d="M41.4584,10.5309v25.9382H6.5416V10.5309h34.9169M41.9572,10.0321H6.0428v26.9359h35.9145V10.0321h0Z"/><rect class="uuid-53255bb9-f561-40a8-83bc-68d2f9e44a32" x="6.0428" y="10.0321" width="35.9145" height="26.9359"/><polygon class="uuid-a4b82647-b225-470c-8536-6edced80e5c0" points="25.4964 22.0036 24.9976 22.0036 19.0119 22.0036 18.5131 22.0036 18.0143 22.0036 18.0143 22.5024 18.0143 23.0012 18.0143 23.9988 18.0143 24.4976 18.0143 24.9964 18.5131 24.9964 19.0119 24.9964 24.9976 24.9964 25.4964 24.9964 25.9952 24.9964 25.9952 24.4976 25.9952 23.9988 25.9952 23.0012 25.9952 22.5024 25.9952 22.0036 25.4964 22.0036"/><polygon class="uuid-6468c093-1535-4223-9222-7775422866a8" points="24.9976 22.5024 19.0119 22.5024 18.5131 22.5024 18.5131 23.0012 18.5131 23.9988 18.5131 24.4976 19.0119 24.4976 24.9976 24.4976 25.4964 24.4976 25.4964 23.9988 25.4964 23.0012 25.4964 22.5024 24.9976 22.5024"/><path class="uuid-96236e5d-0774-4552-b84a-b6ef4c22fca7" d="M14.3061,22.6969v1.3019h-.8679v-1.266c-.8051-.004-1.5533-.1876-2.2467-.5517v-1.662c.2295.1876.5726.3621,1.0286.5218.4559.1606.8619.2524,1.2181.2763v-2.1838c-.9278-.3482-1.5603-.7253-1.8995-1.1303-.3382-.407-.5078-.9019-.5078-1.4865,0-.6285.2195-1.1632.6594-1.6052s1.0226-.6983,1.7478-.7712v-1.1153h.8679v1.0924c.836.0399,1.4605.1756,1.8725.408v1.6201c-.5547-.3402-1.1792-.5477-1.8725-.6235v2.2736c.8679.3162,1.4895.6774,1.8666,1.0834.3771.406.5657.8969.5657,1.4725,0,.6644-.2105,1.1991-.6315,1.6052-.42.405-1.0196.6524-1.8007.7402ZM13.4381,17.4464v-1.9025c-.5507.0998-.827.3901-.827.8699,0,.413.2763.7572.827,1.0325ZM14.3061,19.4746v1.8177c.5667-.0878.85-.3741.85-.858-.001-.3911-.2833-.7113-.85-.9597Z"/><rect class="uuid-96236e5d-0774-4552-b84a-b6ef4c22fca7" x="19.0119" y="23.0012" width="5.9857" height=".9976"/></svg>