<?xml version="1.0" encoding="UTF-8"?><svg id="uuid-2cb45297-8dd2-4aab-a094-a214d6a0d375" xmlns="http://www.w3.org/2000/svg" width="48" height="48" xmlns:xlink="http://www.w3.org/1999/xlink" viewBox="0 0 48 48"><defs><style>.uuid-a76966f6-dff9-4a1b-8891-fb05c6c420da{fill:url(#uuid-bf260f8d-e6a9-4c7e-a690-a89960b9d606);}.uuid-a76966f6-dff9-4a1b-8891-fb05c6c420da,.uuid-86b6e493-6944-4329-876c-4b6f0990b292,.uuid-a6aad611-3084-4248-a3db-b7b93d424358,.uuid-e4ba2366-8c71-4d87-b7a7-d3b9fd7d18d1,.uuid-45429395-d3ee-486b-828a-6b2a5a032c82{stroke-width:0px;}.uuid-86b6e493-6944-4329-876c-4b6f0990b292{fill:url(#uuid-8ee4985c-2253-46de-b494-cda37d16d389);}.uuid-a6aad611-3084-4248-a3db-b7b93d424358{fill:url(#uuid-3c85c3a5-26bd-4d62-81dd-e6f7b27bd962);}.uuid-e4ba2366-8c71-4d87-b7a7-d3b9fd7d18d1{fill:url(#uuid-ad0b386e-1319-48ef-930b-c95e8a069001);isolation:isolate;opacity:.15;}.uuid-45429395-d3ee-486b-828a-6b2a5a032c82{fill:url(#uuid-f4ff4ded-b78c-4498-abe7-1b9fd99d9d2c);}</style><linearGradient id="uuid-3c85c3a5-26bd-4d62-81dd-e6f7b27bd962" x1="20.9812" y1="19.0316" x2="37.3037" y2="45.5885" gradientUnits="userSpaceOnUse"><stop offset="0" stop-color="#fff"/><stop offset=".242" stop-color="#f2f2f2"/><stop offset="1" stop-color="#ccc"/></linearGradient><linearGradient id="uuid-8ee4985c-2253-46de-b494-cda37d16d389" x1="11.1175" y1="3.0967" x2="27.7445" y2="30.1491" gradientUnits="userSpaceOnUse"><stop offset="0" stop-color="#64717c"/><stop offset="1" stop-color="#30363d"/></linearGradient><radialGradient id="uuid-ad0b386e-1319-48ef-930b-c95e8a069001" cx="24" cy="-130" fx="24" fy="-130" r="12.5" gradientTransform="translate(0 -106) scale(1 -1)" gradientUnits="userSpaceOnUse"><stop offset=".847" stop-color="#000"/><stop offset="1" stop-color="#000" stop-opacity="0"/></radialGradient><linearGradient id="uuid-bf260f8d-e6a9-4c7e-a690-a89960b9d606" x1="22.9783" y1="22.0494" x2="30.1512" y2="33.72" xlink:href="#uuid-8ee4985c-2253-46de-b494-cda37d16d389"/><linearGradient id="uuid-f4ff4ded-b78c-4498-abe7-1b9fd99d9d2c" x1="18.1619" y1="14.7893" x2="25.2035" y2="26.2461" xlink:href="#uuid-3c85c3a5-26bd-4d62-81dd-e6f7b27bd962"/></defs><path class="uuid-a6aad611-3084-4248-a3db-b7b93d424358" d="M43,7v34c0,1.1-.9,2-2,2H7c-.55,0-1.05-.22-1.41-.59L42.41,5.59c.3701.36.59.86.59,1.41Z"/><path class="uuid-86b6e493-6944-4329-876c-4b6f0990b292" d="M42.41,5.59L5.59,42.41c-.37-.36-.59-.86-.59-1.41V7c0-1.1.9-2,2-2h34c.55,0,1.05.22,1.41.59Z"/><circle class="uuid-e4ba2366-8c71-4d87-b7a7-d3b9fd7d18d1" cx="24" cy="24" r="12.5"/><path class="uuid-a76966f6-dff9-4a1b-8891-fb05c6c420da" d="M35,24c0,6.08-4.92,11-11,11-3.04,0-5.79-1.23-7.78-3.22l15.56-15.56c1.99,1.99,3.22,4.74,3.22,7.78Z"/><path class="uuid-45429395-d3ee-486b-828a-6b2a5a032c82" d="M31.78,16.22l-15.56,15.56c-1.99-1.99-3.22-4.74-3.22-7.78,0-6.08,4.92-11,11-11,3.04,0,5.79,1.23,7.78,3.22Z"/></svg>