<?xml version="1.0" encoding="UTF-8"?><svg id="uuid-571511e2-487c-457a-a9be-7ce4dec464d8" xmlns="http://www.w3.org/2000/svg" width="48" height="48" xmlns:xlink="http://www.w3.org/1999/xlink" viewBox="0 0 48 48"><defs><style>.uuid-48147624-17e7-4032-9ba7-cf4c202c7ae9{fill:url(#uuid-066e5800-670a-489c-82e0-179ed325d169);}.uuid-48147624-17e7-4032-9ba7-cf4c202c7ae9,.uuid-d10f80a0-a165-43c3-8bfb-791ad687b3fa,.uuid-8c39768b-5c5a-4767-9d7d-af4c7b183ffd,.uuid-6a69a94b-aab1-49f9-9503-04b186caaa4e,.uuid-c7751137-3985-40d2-952b-d3a66c9a81a7{stroke-width:0px;}.uuid-d10f80a0-a165-43c3-8bfb-791ad687b3fa{fill:url(#uuid-3d278e5d-9a91-4328-90f1-410fba6ab6c3);isolation:isolate;opacity:.15;}.uuid-8c39768b-5c5a-4767-9d7d-af4c7b183ffd{fill:url(#uuid-7131b026-e6d2-4f4d-b3d6-d35bed11acb2);}.uuid-6a69a94b-aab1-49f9-9503-04b186caaa4e{fill:url(#uuid-c43c9763-abc6-4ff4-ad26-198718a89d94);}.uuid-c7751137-3985-40d2-952b-d3a66c9a81a7{fill:url(#uuid-5ad79c96-96c2-48be-9490-476326293ff4);}</style><linearGradient id="uuid-066e5800-670a-489c-82e0-179ed325d169" x1="20.9812" y1="19.0316" x2="37.3037" y2="45.5885" gradientUnits="userSpaceOnUse"><stop offset="0" stop-color="#fff"/><stop offset=".242" stop-color="#f2f2f2"/><stop offset="1" stop-color="#ccc"/></linearGradient><linearGradient id="uuid-7131b026-e6d2-4f4d-b3d6-d35bed11acb2" x1="11.1175" y1="3.0967" x2="27.7445" y2="30.1491" gradientUnits="userSpaceOnUse"><stop offset="0" stop-color="#32bdef"/><stop offset="1" stop-color="#1ea2e4"/></linearGradient><radialGradient id="uuid-3d278e5d-9a91-4328-90f1-410fba6ab6c3" cx="24" cy="-130" fx="24" fy="-130" r="12.5" gradientTransform="translate(0 -106) scale(1 -1)" gradientUnits="userSpaceOnUse"><stop offset=".847" stop-color="#000"/><stop offset="1" stop-color="#000" stop-opacity="0"/></radialGradient><linearGradient id="uuid-c43c9763-abc6-4ff4-ad26-198718a89d94" x1="22.9783" y1="22.0494" x2="30.1512" y2="33.72" xlink:href="#uuid-7131b026-e6d2-4f4d-b3d6-d35bed11acb2"/><linearGradient id="uuid-5ad79c96-96c2-48be-9490-476326293ff4" x1="18.1619" y1="14.7893" x2="25.2035" y2="26.2461" xlink:href="#uuid-066e5800-670a-489c-82e0-179ed325d169"/></defs><path class="uuid-48147624-17e7-4032-9ba7-cf4c202c7ae9" d="M43,7v34c0,1.1-.9,2-2,2H7c-.55,0-1.05-.22-1.41-.59L42.41,5.59c.3701.36.59.86.59,1.41Z"/><path class="uuid-8c39768b-5c5a-4767-9d7d-af4c7b183ffd" d="M42.41,5.59L5.59,42.41c-.37-.36-.59-.86-.59-1.41V7c0-1.1.9-2,2-2h34c.55,0,1.05.22,1.41.59Z"/><circle class="uuid-d10f80a0-a165-43c3-8bfb-791ad687b3fa" cx="24" cy="24" r="12.5"/><path class="uuid-6a69a94b-aab1-49f9-9503-04b186caaa4e" d="M35,24c0,6.08-4.92,11-11,11-3.04,0-5.79-1.23-7.78-3.22l15.56-15.56c1.99,1.99,3.22,4.74,3.22,7.78Z"/><path class="uuid-c7751137-3985-40d2-952b-d3a66c9a81a7" d="M31.78,16.22l-15.56,15.56c-1.99-1.99-3.22-4.74-3.22-7.78,0-6.08,4.92-11,11-11,3.04,0,5.79,1.23,7.78,3.22Z"/></svg>