<?xml version="1.0" encoding="UTF-8"?><svg id="uuid-cc5104c7-0e6f-4354-8e01-f57ef764729c" xmlns="http://www.w3.org/2000/svg" width="48" height="48" xmlns:xlink="http://www.w3.org/1999/xlink" viewBox="0 0 48 48"><defs><style>.uuid-710a6ee9-7e93-4b4e-ae23-b41e63e3d242{fill:url(#uuid-21328c28-efe3-4a5e-a625-488943a34bed);opacity:.05;}.uuid-710a6ee9-7e93-4b4e-ae23-b41e63e3d242,.uuid-72c03f42-3a06-4ba8-b40e-2a8031a6a35e,.uuid-e746ae68-27c9-4a49-9242-86b3f61ac24d,.uuid-7f7c18d5-1b33-437f-9aa7-0bb4f782f6c7{stroke-width:0px;}.uuid-72c03f42-3a06-4ba8-b40e-2a8031a6a35e{fill:url(#uuid-bf3c834f-979c-44b7-baca-1a4ade8a1283);}.uuid-e746ae68-27c9-4a49-9242-86b3f61ac24d{fill:url(#uuid-6f428a52-4109-4cf8-81ca-a76687d43f8d);opacity:.07;}.uuid-7f7c18d5-1b33-437f-9aa7-0bb4f782f6c7{fill:url(#uuid-97230ed7-5f9c-43c8-8961-b4317bcc5d23);isolation:isolate;}</style><linearGradient id="uuid-97230ed7-5f9c-43c8-8961-b4317bcc5d23" x1="13.6448" y1="7.2218" x2="34.844" y2="41.1476" gradientUnits="userSpaceOnUse"><stop offset="0" stop-color="#ff9c0d"/><stop offset="1" stop-color="#f36e22"/></linearGradient><linearGradient id="uuid-21328c28-efe3-4a5e-a625-488943a34bed" x1="13.6488" y1="7.2197" x2="34.8467" y2="41.1434" gradientUnits="userSpaceOnUse"><stop offset="0" stop-color="#000"/><stop offset="1" stop-color="#30363d"/></linearGradient><linearGradient id="uuid-6f428a52-4109-4cf8-81ca-a76687d43f8d" x1="13.6558" y1="7.2198" x2="34.8502" y2="41.138" xlink:href="#uuid-21328c28-efe3-4a5e-a625-488943a34bed"/><linearGradient id="uuid-bf3c834f-979c-44b7-baca-1a4ade8a1283" x1="10.2172" y1="1.713" x2="38.2762" y2="46.6168" gradientUnits="userSpaceOnUse"><stop offset="0" stop-color="#fff"/><stop offset=".242" stop-color="#f2f2f2"/><stop offset="1" stop-color="#ccc"/></linearGradient></defs><g id="uuid-2be042da-595e-4f64-983c-8e788668a67d"><circle id="uuid-798c912f-0419-47be-a744-7a67639cdc7a" class="uuid-7f7c18d5-1b33-437f-9aa7-0bb4f782f6c7" cx="24.2444" cy="24.1847" r="19.9996"/><path class="uuid-710a6ee9-7e93-4b4e-ae23-b41e63e3d242" d="M44.244,24.1847c0-.3832-.0133-.7633-.0346-1.1412-.193.0073-.3713.0745-.5117.1894-.3778-2.0716-1.0848-4.098-2.111-6.0456.3563-.5494.5808-1.1186.6713-1.7001-3.2354-6.6885-10.0854-11.3021-18.0136-11.3021S9.4661,8.7987,6.2307,15.4873c.0313.201.078.4009.1413.5985-.6555,1.1493-1.1877,2.3457-1.6074,3.5768-.3362,1.4538-.5198,2.9661-.5198,4.5222,0,1.672.2082,3.2948.5948,4.8472.4197-.0976.7101-.4868.6621-.9228-.005-.0461-.0101-.0913-.0151-.1365.6961.6266,1.5556,1.2121,2.5684,1.7491.0444,2.1361.3887,4.1198,1.0253,5.9183-.1633-.1248-.315-.2496-.4524-.3728-.1608-.1776-.3912-.279-.6316-.279-.1432,0-.2865.0369-.4155.1064-.0243.0134-.0396.0357-.0621.051,1.8495,2.8165,4.3894,5.1369,7.3813,6.7214.1985-.3609.1224-.8191-.2055-1.0795-.449-.3594-.8729-.7497-1.2657-1.1686,1.2967.4071,2.7015.738,4.1952.986.3958,1.2367.892,2.2034,1.486,2.911,1.6389.4342,3.3591.6684,5.1346.6684.9741,0,1.9308-.0732,2.8677-.2078.367-.6505.6517-1.6233.8781-3.0064,1.9024-.1709,3.7637-.4783,5.4651-.9014-.6182.7858-1.321,1.4241-2.0984,1.9041-.3509.2168-.4827.6557-.3386,1.0326,7.7111-2.7759,13.2257-10.1533,13.2257-18.8207ZM8.3046,16.1972c1.4827-2.3547,3.4965-4.423,5.8538-6.0121.2731.2965.6115.5772,1.0119.8385-1.8781,2.0683-3.4798,4.5177-4.6676,7.1363-1.0228-.6107-1.7742-1.2817-2.1981-1.9627ZM17.0827,24.0413c-.3074,2.2592-.4892,4.4783-.5395,6.6043-2.5684-.4524-4.8938-1.1359-6.7694-1.9904.0335-1.2632.1768-2.5734.4264-3.8986.2697-1.4308.6668-2.8507,1.1811-4.2295,1.6879.7338,3.7344,1.321,5.9702,1.7139-.098.5931-.1885,1.1937-.2689,1.8002ZM33.4545,8.2885c-.0017.0168-.0042.0343-.0067.0519-.0913-.0595-.1835-.1173-.2756-.1751.0947.0402.1885.0813.2823.1231ZM33.798,10.6734c2.302,1.7265,4.2705,3.9061,5.7223,6.3354-.7908.7757-1.9853,1.4978-3.4915,2.111-.9885-2.6932-2.3238-5.2532-3.8902-7.4605.6526-.2949,1.2079-.6249,1.6595-.986ZM25.4437,13.0659c.3937,2.395.7221,5.1367.9566,7.979-.7137.0369-1.4433.0553-2.1755.0553-1.6628,0-3.2997-.0988-4.8728-.2949.5504-2.8264,1.29-5.5271,2.1503-7.8567.8921.0963,1.8128.1449,2.7409.1449.3996,0,.8008-.0092,1.2004-.0276ZM21.9983,7.7633c-.5571.96-1.0932,2.0632-1.6017,3.298-.8176-.1416-1.5899-.33-2.276-.5554,1.2331-1.1049,2.5315-2.023,3.8777-2.7426ZM26.4824,39.3584c-.7455.0402-1.497.0612-2.2391.0612-1.7943,0-3.5652-.1164-5.2682-.3468-.4297-1.755-.6777-3.9648-.7229-6.436,1.9376.2463,3.9505.3711,5.9912.3711.8695,0,1.7382-.0226,2.5893-.067-.0302,2.477-.1508,4.6793-.3502,6.4175ZM26.8627,11.2338c-.2429-1.2926-.5018-2.4402-.774-3.4312,1.1141.8159,2.1889,1.8237,3.21,3.0073-.7573.1851-1.5832.3284-2.436.4239ZM28.5532,31.0963c-.0117-2.121-.0796-4.3451-.2036-6.6161-.0327-.6232-.0695-1.2406-.1114-1.8505,2.4243-.2329,4.7304-.681,6.7233-1.3076.5747,1.8706.9726,3.7763,1.1845,5.6737.098.8704.155,1.7374.1701,2.5809-2.271.7355-4.939,1.2574-7.7629,1.5196ZM38.025,30.7972c1.6653-.6274,3.0643-1.3554,4.1742-2.173-.2798,2.4611-1.1225,4.774-2.4628,6.7442-.7162.6107-1.6662,1.1904-2.7845,1.7013.6392-1.8655,1.0061-4.0083,1.0731-6.2726Z"/><path class="uuid-e746ae68-27c9-4a49-9242-86b3f61ac24d" d="M44.244,24.1847c0-.2397-.0097-.477-.0181-.7146-.2298.0081-.4142.1946-.4142.4262,0,.4406-.0955.8787-.2857,1.3118-.2279-2.7728-1.0471-5.4768-2.4402-8.0485.5236-.7254.7891-1.4852.7891-2.2618,0-.0631-.0117-.1254-.0152-.1883-1.1846-2.1977-2.7705-4.1454-4.6565-5.752-.8303-.5802-1.6957-1.1157-2.6237-1.5653-.068-.1665-.1626-.3287-.2717-.4883-1.7411-1.0161-3.6486-1.7757-5.673-2.2294-.6619.005-1.33.0558-2.0016.1594.0972-.0243.1935-.041.2882-.0503.1987-.0197.3652-.1731.3995-.3626-1.0029-.1549-2.0302-.2359-3.0765-.2359-.4789,0-.9523.0229-1.4229.056.0179.1978.1639.3651.3688.3893.0218.0034.1458.0285.3476.2823-.6182-.2404-1.2373-.4247-1.8513-.5487-.0121-.0024-.024-.0035-.0361-.0059-6.508.8434-12.0349,4.81-15.0221,10.3526-.0034.0628-.0152.1249-.0152.1881,0,.4147.0762.8276.2279,1.2314-1.3319,2.2852-2.1897,4.7547-2.5499,7.3415-.0094-.001-.0189-.0012-.0283-.0016-.0084.2376-.0181.475-.0181.7147,0,1.5244.1763,3.0067.4993,4.4334.2097-.049.3551-.2438.3311-.4613-.0494-.4389-.0821-.8838-.0988-1.3303.7916.9592,1.9761,1.8521,3.5032,2.6329.026,2.7116.5353,5.1602,1.5179,7.303-.6509-.3786-1.2155-.7824-1.6871-1.2071-.0821-.0905-.1969-.1382-.3141-.1382-.0712,0-.1424.0176-.2086.0536-.0132.0072-.0215.0193-.0336.0277,1.7477,2.5424,4.0676,4.6592,6.7745,6.1669.102-.1812.0643-.4109-.1014-.5427-.8754-.6986-1.6486-1.507-2.3078-2.4125,1.7097.6576,3.6967,1.1744,5.8353,1.5145.4842,1.611,1.137,2.7776,1.9327,3.478,1.4032.3119,2.8599.4817,4.357.4817.7853,0,1.5586-.0502,2.3203-.1382.3695-.4983.7542-1.4834,1.0544-3.4747,2.4477-.1985,4.7899-.6174,6.859-1.2239-.7958,1.29-1.7667,2.2936-2.8959,2.9906-.1772.1093-.2421.3274-.169.5174,7.503-2.8829,12.8307-10.1526,12.8307-18.6707ZM40.0547,17.0717c-.8921.9843-2.3589,1.8789-4.2798,2.6086-1.0563-3.0006-2.5332-5.8178-4.2999-8.206.9667-.382,1.7508-.841,2.3036-1.3487,2.5608,1.8605,4.7212,4.2513,6.276,6.9461ZM33.8692,8.0054c.0126.0687.0184.1374.0184.2052,0,.2555-.0829.5143-.248.7707-1.5321-1.0371-3.1765-1.8823-4.8779-2.5122,1.7876.2773,3.499.7925,5.1074,1.5363ZM24.2433,12.6646c.5202,0,1.0429-.0159,1.5606-.0469.4448,2.6186.8092,5.6536,1.0588,8.8301-.8544.0536-1.7365.0813-2.6379.0813-1.8454,0-3.6532-.1206-5.3796-.3577.5889-3.1489,1.4048-6.1361,2.3732-8.6877.9767.1198,1.9929.1809,3.0249.1809ZM23.1669,6.7262c-.8762,1.2456-1.7256,2.8766-2.5013,4.8134-1.259-.1952-2.4017-.4917-3.3541-.8695,1.8077-1.7223,3.8031-3.0659,5.8555-3.9438ZM14.991,7.2414c1.6678-.6852,3.4555-1.0898,5.3285-1.2079-1.9912.5068-3.9179,1.2967-5.7089,2.3464-.0075-.0561-.0117-.1123-.0117-.1692,0-.3217.1315-.6475.392-.9692ZM7.8053,16.1879c1.5958-2.6094,3.8115-4.872,6.4368-6.5725.3543.4783.8905.9181,1.6017,1.3127-2.1127,2.2299-3.8785,4.9214-5.1409,7.8399-1.4241-.7765-2.4167-1.6603-2.8976-2.5801ZM16.9629,31.1516c-2.9269-.4766-5.548-1.2415-7.6238-2.2249.0193-1.3713.1667-2.7996.4398-4.2496.3024-1.6025.7606-3.1908,1.3646-4.7271,1.8387.857,4.1374,1.5221,6.7015,1.9393-.124.7254-.2379,1.4626-.3376,2.2098-.33,2.4243-.5127,4.7941-.5445,7.0525ZM26.8653,39.7656c-.8745.0553-1.755.0829-2.622.0829-1.9175,0-3.8039-.1315-5.6134-.3904-.5135-1.9527-.7925-4.4649-.8134-7.3122,2.0691.2873,4.2287.4331,6.4268.4331,1.0153,0,2.0297-.031,3.0224-.093-.0218,2.8649-.1592,5.3637-.4004,7.2795ZM26.5134,11.7013c-.3602-1.9795-.7606-3.6515-1.1795-4.9273,1.6528,1.0262,3.2636,2.4829,4.7262,4.2772-1.0605.3083-2.2693.5303-3.5468.65ZM28.126,31.5646c-.0034-2.2551-.072-4.6282-.2044-7.0617-.0402-.764-.0871-1.5196-.1407-2.2626,2.7292-.232,5.29-.7338,7.4596-1.4593.6542,2.0306,1.1016,4.103,1.3319,6.1671.1114.9927.1709,1.9795.1768,2.9378-2.4963.841-5.4617,1.4182-8.6232,1.6787ZM37.6028,30.4957c2.1596-.7849,3.8986-1.7524,5.1066-2.8364-.1525,2.9336-1.0597,5.6787-2.6505,7.9974-.9508.8226-2.2727,1.574-3.8626,2.1998.8754-2.1076,1.3579-4.6257,1.4065-7.3608Z"/><path class="uuid-72c03f42-3a06-4ba8-b40e-2a8031a6a35e" d="M31.808,42.7033c1.4549-.8985,2.6665-2.2965,3.5697-4.0907h0c2.1623-.7354,3.9211-1.6823,5.1141-2.7663l-.0009.0009c-2.1782,3.0291-5.1821,5.4254-8.6828,6.856M44.2404,23.8967c0,.9395-.3793,1.8426-1.0802,2.6833h0c.0373,3.5585-.9814,6.7666-2.7812,9.3679l.1128-.0997c2.3608-3.2826,3.7514-7.3109,3.7514-11.6635l-.0028-.288ZM43.1602,26.58c-.0019-.3038-.013-.6096-.0317-.9171-.1808-3.0142-1.0914-5.9203-2.5528-8.5412h0c-.9842,1.2182-2.7542,2.29-5.0637,3.1121v-.0009c.7195,2.1372,1.2322,4.3843,1.4866,6.6678.1277,1.1361.1855,2.235.178,3.291h.0019c2.7122-.9497,4.8018-2.194,5.9818-3.6116h0ZM24.4645,5.7947c3.3581.5089,6.5261,1.8445,9.2663,3.7701h0c-.5984.6683-1.6236,1.2545-2.948,1.7066v-.0009c-1.8585-2.3991-4.0012-4.2957-6.2567-5.4449l-.0615-.0308ZM15.5962,6.1461c-.3476.2321-.6394.48-.8668.7391h0c2.468-1.0318,5.2949-1.4978,8.3305-1.2527.4716.0373.9414.0913,1.4055.1622l.0615.0308c-.9591-.4875-1.9368-.8407-2.9238-1.0411-.4986-.0997-.987-.1594-1.4614-.178h0c-1.5938.3318-3.1167.8537-4.5455,1.5397h0ZM37.1784,30.1917c-2.6544.9302-5.9054,1.5779-9.4825,1.8361h.0009c-.0103,3.2519-.165,6.0536-.452,8.1423h-.0009c3.0375-.219,5.8168-.768,8.1348-1.5574h0c1.1343-2.2518,1.7783-5.1281,1.7988-8.4209h.0009ZM26.1599,12.1624c.4856,2.7616.8929,6.0778,1.1632,9.6838,3.0962-.2302,5.9072-.7997,8.1889-1.6124v-.0009c-1.1315-3.3553-2.7737-6.4366-4.7282-8.9615v.0009c-1.2983.4427-2.8809.7559-4.6238.8901h0ZM40.4005,12.3945c-1.6702-1.9452-3.7608-3.5529-6.1654-4.6919l-.0149-.0475c.0624.1808.096.3663.096.5555,0,.4753-.2069.9311-.5844,1.3542h0c2.8185,1.9806,5.1849,4.5856,6.8439,7.556h0c.5639-.699.8705-1.4465.8705-2.2229,0-.6562-.2181-1.2909-.6245-1.893l-.4213-.6105ZM7.686,12.963c-.4222.6123-.644,1.2666-.644,1.9358,0,.4315.0951.8556.2768,1.2657h0c1.7289-2.9033,4.1718-5.3536,7.0574-7.1422h0c-.1351-.2619-.206-.5331-.206-.8118,0-.4642.1985-.9106.5592-1.3254h0c-.9134.3821-1.7765.8426-2.5845,1.3738h0c-1.728,1.3151-3.236,2.9042-4.4589,4.704ZM4.5507,25.3395c-.2004-.4688-.3048-.9507-.3048-1.4428v.0037c0,.0951-.0019.1892-.0019.2843,0,1.3766.1398,2.7206.4045,4.0199h0c-.1044-.9358-.1379-1.892-.0969-2.8623M25.788,44.1246c-.5098.0382-1.0252.0587-1.5444.0587-1.0709,0-2.1213-.0839-3.1465-.2461h0c-1.2135-.3532-2.1698-1.8277-2.8073-4.0954h0c1.8641.2815,3.8661.4353,5.9538.4353,1.0224,0,2.0244-.0373,3.0002-.1072h.0009c-.3243,2.3431-.8146,3.7869-1.4568,3.9546h0ZM18.3429,21.5321c-.1529.8593-.2917,1.7345-.411,2.6246-.3607,2.6526-.535,5.183-.5443,7.4945h0c2.139.3225,4.4467.4986,6.856.4986,1.1781,0,2.331-.0419,3.4523-.123h.0009c.0065-2.3059-.0587-4.8382-.2032-7.501-.0475-.9087-.1053-1.8035-.1715-2.6805-.9991.0746-2.0281.1128-3.0794.1128-2.0719.0009-4.0599-.1491-5.8998-.4259h0ZM24.4794,5.7807c-1.2471,1.3198-2.4699,3.4867-3.5408,6.2334h.0009c1.0346.1435,2.1474.2218,3.3041.2218.6562,0,1.2965-.0252,1.9163-.0727h0c-.4893-2.7868-1.0616-5.0097-1.6562-6.3891l-.0242.0065ZM26.8804,4.3566c-.7885.0764-1.6003.5741-2.4009,1.4232l.0233-.0075c-.4157-.9647-.8426-1.5183-1.262-1.5677l.0214.0028c.3262-.0158.6515-.0233.9805-.0233.8929,0,1.7718.0587,2.6339.1724h.0037ZM14.16,41.4581c-1.2909-1.0299-2.3469-2.2732-3.1624-3.6909h0c-1.2107-.5676-2.2266-1.2144-3.0021-1.9191l-.0019-.0037c1.6217,2.2565,3.703,4.1606,6.1058,5.5782l.0606.0354ZM8.9079,29.1757c-.0093,3.2351.6906,6.1663,2.0896,8.5915h0c1.9768.9292,4.4747,1.6497,7.2922,2.0756h0c-.5974-2.1232-.9134-4.9416-.9031-8.1907h0c-3.3292-.5005-6.2456-1.358-8.4797-2.4578v-.0186h.0009ZM4.5507,25.3395c.6198,1.4512,2.1577,2.7709,4.3573,3.8549v-.0186c.0037-1.4689.1529-3.0021.4492-4.5782.3421-1.8128.8724-3.5688,1.5602-5.2343h-.0009c-1.8035-.9069-3.0692-2.0001-3.5977-3.1987h0c-1.3291,2.2266-2.2369,4.7189-2.605,7.3836-.0839.6021-.1361,1.2005-.1622,1.7932l-.0009-.0019ZM20.9396,12.0133c-1.7215-.2386-3.2304-.658-4.3824-1.2023h-.0019c-2.3254,2.3403-4.2855,5.2716-5.6379,8.5523h-.0009c1.9377.973,4.4952,1.7299,7.4265,2.1688h0c.6384-3.5604,1.5435-6.8188,2.5966-9.5189h0ZM24.2958,5.8395c-2.7812.9199-5.4394,2.6563-7.7405,4.9715h.0019c-1.0718-.5042-1.837-1.1156-2.181-1.7886h0c2.9424-1.824,6.3388-2.9592,9.9196-3.1829ZM24.5251,5.8255c.9209-.0475,1.8529-.0354,2.7905.0419,2.4997.2023,4.8289.8416,6.9194,1.8352l-.0149-.0475c-.1873-.5462-.6496-1.056-1.3272-1.509l-.028-.013c-.6916-.3309-1.4064-.6226-2.1381-.8742h0c-.6422-.1044-1.3058-.1594-1.9918-.1594-1.4279,0-2.8576.2367-4.2575.6804l.0475.0457Z"/></g></svg>