<?xml version="1.0" encoding="UTF-8"?><svg id="uuid-f092140a-64e9-4348-a74f-ef94af4c6d17" xmlns="http://www.w3.org/2000/svg" width="48" height="48" xmlns:xlink="http://www.w3.org/1999/xlink" viewBox="0 0 48 48"><defs><style>.uuid-6998d68a-e6b2-4737-9b1f-efe7eff55d8d{fill:url(#uuid-dc9d641d-9a0b-4816-9bb5-f4fc23e43184);}.uuid-6998d68a-e6b2-4737-9b1f-efe7eff55d8d,.uuid-8bce971d-ec43-4d32-aedb-ba046139ceb3,.uuid-36a1eda8-3bf1-4b55-b95e-b58e0c6533a5,.uuid-c0f57597-a987-4ffc-980c-8c2788c333eb,.uuid-5fcfaea7-330d-40ea-9d29-7003e29bf876,.uuid-33619cda-c4c9-48db-8258-59115305f8a1,.uuid-56a69a64-7dee-4b79-9006-971a27c7992a,.uuid-0c4f59f8-6e2e-41f6-b380-8c9df8eae36a,.uuid-ad4e7acb-e62d-47e7-b20a-9fc0050529f9{stroke-width:0px;}.uuid-8bce971d-ec43-4d32-aedb-ba046139ceb3{opacity:.05;}.uuid-36a1eda8-3bf1-4b55-b95e-b58e0c6533a5{fill:url(#uuid-6926a290-658a-4484-afa7-68c9466ee84c);}.uuid-c0f57597-a987-4ffc-980c-8c2788c333eb{fill:url(#uuid-618e78ec-b9dd-4012-bc08-8d643d9ffead);}.uuid-5fcfaea7-330d-40ea-9d29-7003e29bf876{fill:url(#uuid-cdbe6059-273e-45cf-b41f-91b326fe9510);}.uuid-33619cda-c4c9-48db-8258-59115305f8a1{fill:url(#uuid-14ed387f-2ad8-4d16-875b-a3157c1be080);}.uuid-56a69a64-7dee-4b79-9006-971a27c7992a{fill:url(#uuid-6783cef6-da6d-4ab0-b94a-51967b66abfd);}.uuid-0c4f59f8-6e2e-41f6-b380-8c9df8eae36a{fill:url(#uuid-4a0207e4-60c7-4f68-89ef-f69b94c56d40);}.uuid-ad4e7acb-e62d-47e7-b20a-9fc0050529f9{opacity:.07;}</style><linearGradient id="uuid-618e78ec-b9dd-4012-bc08-8d643d9ffead" x1="13.2574" y1="6.1163" x2="36.7647" y2="44.3632" gradientUnits="userSpaceOnUse"><stop offset="0" stop-color="#64717c"/><stop offset="1" stop-color="#30363d"/></linearGradient><linearGradient id="uuid-dc9d641d-9a0b-4816-9bb5-f4fc23e43184" x1="7.3236" y1="7.0919" x2="43.4893" y2="43.2576" gradientUnits="userSpaceOnUse"><stop offset="0" stop-color="#fff"/><stop offset=".242" stop-color="#f2f2f2"/><stop offset="1" stop-color="#ccc"/></linearGradient><linearGradient id="uuid-6783cef6-da6d-4ab0-b94a-51967b66abfd" x1="4.9982" y1="35.9202" x2="10.4255" y2="44.7505" gradientUnits="userSpaceOnUse"><stop offset="0" stop-color="#ff9c0d"/><stop offset="1" stop-color="#f36e22"/></linearGradient><linearGradient id="uuid-6926a290-658a-4484-afa7-68c9466ee84c" x1="37.679" y1="157.9683" x2="42.9951" y2="149.3189" gradientTransform="translate(0 194) scale(1 -1)" xlink:href="#uuid-6783cef6-da6d-4ab0-b94a-51967b66abfd"/><linearGradient id="uuid-cdbe6059-273e-45cf-b41f-91b326fe9510" x1="5.0667" y1="190.5806" x2="10.3828" y2="181.9312" gradientTransform="translate(0 194) scale(1 -1)" xlink:href="#uuid-6783cef6-da6d-4ab0-b94a-51967b66abfd"/><linearGradient id="uuid-4a0207e4-60c7-4f68-89ef-f69b94c56d40" x1="37.679" y1="190.5806" x2="42.9951" y2="181.9312" gradientTransform="translate(0 194) scale(1 -1)" xlink:href="#uuid-6783cef6-da6d-4ab0-b94a-51967b66abfd"/><linearGradient id="uuid-14ed387f-2ad8-4d16-875b-a3157c1be080" x1="19.866" y1="13.0154" x2="30.5275" y2="30.0773" xlink:href="#uuid-6783cef6-da6d-4ab0-b94a-51967b66abfd"/></defs><rect class="uuid-c0f57597-a987-4ffc-980c-8c2788c333eb" x="8.0255" y="7.9564" width="32.5025" height="32.1771"/><path class="uuid-8bce971d-ec43-4d32-aedb-ba046139ceb3" d="M40.528,7.9564H8.0255v32.1771h32.5024V7.9564ZM9.8804,38.3242l-.0278-28.5312,28.8208-.0273.0273,28.5312-28.8203.0273Z"/><path class="uuid-ad4e7acb-e62d-47e7-b20a-9fc0050529f9" d="M40.528,7.9564H8.0255v32.1771h32.5024V7.9564ZM9.3809,38.8252l-.0288-29.5312,29.8208-.0293.0283,29.5312-29.8203.0293Z"/><path class="uuid-6998d68a-e6b2-4737-9b1f-efe7eff55d8d" d="M6.3128,41.8751l-.0347-35.6258,35.9626-.0344.0347,35.6258-35.9626.0344ZM8.8517,8.7937l.0296,30.5319,30.8205-.0293-.0296-30.5319-30.8205.0293Z"/><path class="uuid-56a69a64-7dee-4b79-9006-971a27c7992a" d="M10.4926,44.4783l-5.573.0217c-.7682.0007-1.3973-.627-1.398-1.3952l-.0217-5.573c-.0007-.7682.627-1.3973,1.3952-1.398l5.573-.0217c.7682-.0007,1.3973.627,1.398,1.3952l.0217,5.573c.0007.7682-.627,1.3973-1.3952,1.398Z"/><path class="uuid-36a1eda8-3bf1-4b55-b95e-b58e0c6533a5" d="M43.1048,44.4783l-5.573.0217c-.7682.0007-1.3973-.627-1.398-1.3952l-.0217-5.573c-.0007-.7682.627-1.3973,1.3952-1.398l5.573-.0217c.7682-.0007,1.3973.627,1.398,1.3952l.0217,5.573c.0007.7682-.627,1.3973-1.3952,1.398Z"/><path class="uuid-5fcfaea7-330d-40ea-9d29-7003e29bf876" d="M10.4926,11.8661l-5.573.0217c-.7682.0007-1.3973-.627-1.398-1.3952l-.0217-5.573c-.0007-.7682.627-1.3973,1.3952-1.398l5.573-.0217c.7682-.0007,1.3973.627,1.398,1.3952l.0217,5.573c.0007.7682-.627,1.3973-1.3952,1.398Z"/><path class="uuid-0c4f59f8-6e2e-41f6-b380-8c9df8eae36a" d="M43.1048,11.8661l-5.573.0217c-.7682.0007-1.3973-.627-1.398-1.3952l-.0217-5.573c-.0007-.7682.627-1.3973,1.3952-1.398l5.573-.0217c.7682-.0007,1.3973.627,1.398,1.3952l.0217,5.573c.0007.7682-.627,1.3973-1.3952,1.398Z"/><path class="uuid-33619cda-c4c9-48db-8258-59115305f8a1" d="M31.1499,14.8999l.1299.1299v3.3799l-.1299.1309h-5.3301v14.4297l-.1299.1299h-3.3799l-.1299-.1299v-14.4297h-5.3301l-.1299-.1309v-3.3799l.1299-.1299h14.2998Z"/></svg>