<?xml version="1.0" encoding="UTF-8"?><svg id="uuid-731e42b9-0a3d-4840-b5bf-d0edaff6498c" xmlns="http://www.w3.org/2000/svg" width="48" height="48" xmlns:xlink="http://www.w3.org/1999/xlink" viewBox="0 0 48 48"><defs><style>.uuid-b73f4108-7eb9-44c1-bcea-d82a5d739646{fill:url(#uuid-cac4a61c-cea7-4ce5-8fe5-79b41020a5b7);opacity:.75;}.uuid-b73f4108-7eb9-44c1-bcea-d82a5d739646,.uuid-67ed6362-2cef-4612-bd32-63fde4329d6e,.uuid-637a3fb5-7b51-415b-98c0-5834bbd28c85,.uuid-37f466c3-f62b-4a6c-ad01-afbf6e76ec9b,.uuid-e076ec07-12dc-4ef9-92bd-6042a4b26e76,.uuid-f9fd9681-ccf2-4070-8573-bd0c7ffede23,.uuid-2bb7b1a3-79a4-4dd7-8405-8f5409cf1479{stroke-width:0px;}.uuid-67ed6362-2cef-4612-bd32-63fde4329d6e{opacity:.05;}.uuid-637a3fb5-7b51-415b-98c0-5834bbd28c85{fill:url(#uuid-338aae48-a61d-4a03-9d84-8b28eeec32a3);}.uuid-37f466c3-f62b-4a6c-ad01-afbf6e76ec9b{fill:url(#uuid-d2cc96e4-7b27-48e0-807e-869f0323b419);}.uuid-e076ec07-12dc-4ef9-92bd-6042a4b26e76{fill:url(#uuid-c236494d-53d2-4078-a7df-98400793f7a4);}.uuid-f9fd9681-ccf2-4070-8573-bd0c7ffede23{opacity:.07;}.uuid-2bb7b1a3-79a4-4dd7-8405-8f5409cf1479{fill:url(#uuid-ef77f7a6-71e3-4409-bebc-deb6aa8b5969);}</style><linearGradient id="uuid-d2cc96e4-7b27-48e0-807e-869f0323b419" x1="17.1597" y1="25.1271" x2="30.8403" y2="47.0206" gradientUnits="userSpaceOnUse"><stop offset="0" stop-color="#64717c"/><stop offset="1" stop-color="#30363d"/></linearGradient><linearGradient id="uuid-cac4a61c-cea7-4ce5-8fe5-79b41020a5b7" x1="17.1597" y1="22.2654" x2="30.8403" y2="44.1589" gradientUnits="userSpaceOnUse"><stop offset="0" stop-color="#fff"/><stop offset=".242" stop-color="#f2f2f2"/><stop offset="1" stop-color="#ccc"/></linearGradient><linearGradient id="uuid-c236494d-53d2-4078-a7df-98400793f7a4" x1="15.7009" y1="-610.1004" x2="31.386" y2="-635.2018" gradientTransform="translate(.1829 -605.428) scale(1 -1)" gradientUnits="userSpaceOnUse"><stop offset="0" stop-color="#f36e22"/><stop offset="1" stop-color="#c15227"/></linearGradient><linearGradient id="uuid-ef77f7a6-71e3-4409-bebc-deb6aa8b5969" x1="40.7535" y1="-622.7887" x2="44.6447" y2="-629.0158" gradientTransform="translate(.1829 -605.428) scale(1 -1)" gradientUnits="userSpaceOnUse"><stop offset="0" stop-color="#ff9c0d"/><stop offset="1" stop-color="#f36e22"/></linearGradient><linearGradient id="uuid-338aae48-a61d-4a03-9d84-8b28eeec32a3" x1="11.145" y1="-615.0456" x2="26.5416" y2="-639.6853" xlink:href="#uuid-ef77f7a6-71e3-4409-bebc-deb6aa8b5969"/></defs><ellipse class="uuid-37f466c3-f62b-4a6c-ad01-afbf6e76ec9b" cx="24" cy="36.0738" rx="21" ry="7.7079"/><path class="uuid-67ed6362-2cef-4612-bd32-63fde4329d6e" d="M24,41.9085c10.1252,0,18.2325-2.4407,20.9785-5.9912-.2294-4.1839-9.5244-7.5514-20.9785-7.5514s-20.749,3.3675-20.9785,7.5514c2.7459,3.5506,10.8533,5.9912,20.9785,5.9912Z"/><path class="uuid-f9fd9681-ccf2-4070-8573-bd0c7ffede23" d="M24,41.4144c10.2453,0,18.58-2.607,20.8566-6.2128-1.1817-3.8458-10.0631-6.8357-20.8566-6.8357s-19.6749,2.99-20.8566,6.8357c2.2765,3.6058,10.6113,6.2128,20.8566,6.2128Z"/><ellipse class="uuid-b73f4108-7eb9-44c1-bcea-d82a5d739646" cx="24" cy="33.2122" rx="21" ry="7.7079"/><path class="uuid-67ed6362-2cef-4612-bd32-63fde4329d6e" d="M24,25.5042c-5.8557,0-11.1494.8805-14.958,2.2995,3.8606,1.3868,9.0673,2.2117,14.958,2.2117,1.4746,0,2.9533-.0561,4.4021-.1674v2.7818c0,.3836.2411.7319.6011.8676.1054.0389.2144.0588.3252.0588.2682,0,.5224-.1158.6966-.3166l5.6404-6.4368c-3.3369-.8199-7.3485-1.2985-11.6655-1.2985Z"/><path class="uuid-f9fd9681-ccf2-4070-8573-bd0c7ffede23" d="M24,25.5042c-5.4902,0-10.4863.7741-14.228,2.0402,3.762,1.2545,8.72,2.0078,14.228,2.0078,1.6383,0,3.2726-.0697,4.8653-.2063v3.2839c0,.1927.1194.3655.2999.4333.0534.0199.1086.0299.1633.0299.1307,0,.2587-.0552.3483-.1583l5.4783-6.2521c-3.2327-.7456-7.0552-1.1784-11.1551-1.1784Z"/><path id="uuid-a34f9616-b9e1-4998-91cd-39bf98841ca9" class="uuid-e076ec07-12dc-4ef9-92bd-6042a4b26e76" d="M3,21.3811c0-4.2567,9.4027-7.7074,21-7.7074s21,3.4517,21,7.7074v-6.5597c0-4.2576-9.4018-7.7074-21-7.7074S3,10.5647,3,14.8214v6.5597h0Z"/><path id="uuid-23219e15-f482-41f0-97ea-dc94321d5cf8" class="uuid-2bb7b1a3-79a4-4dd7-8405-8f5409cf1479" d="M45,21.3811c0,1.7546-1.5971,3.372-4.2854,4.6671v-6.5597c2.6883-1.2941,4.2854-2.9135,4.2854-4.6671v6.5597Z"/><path id="uuid-792975e8-5c84-4eb7-99e9-416342c5a55f" class="uuid-637a3fb5-7b51-415b-98c0-5834bbd28c85" d="M3,14.8214c0,4.2567,9.4027,7.7084,21,7.7084,1.8407,0,3.6268-.0871,5.3285-.2501v-3.8074l7.3591,5.7583-7.3591,8.3994v-3.7917c-1.7018.163-3.4878.251-5.3285.251-11.5973,0-21-3.4517-21-7.7084v-6.5597h0Z"/></svg>