<?xml version="1.0" encoding="UTF-8"?><svg id="uuid-1ba355dd-0c04-4804-9553-92e4fb866216" xmlns="http://www.w3.org/2000/svg" width="48" height="48" xmlns:xlink="http://www.w3.org/1999/xlink" viewBox="0 0 48 48"><defs><style>.uuid-19fd3f82-b50d-4c06-b489-ff5dde95d6c3{fill:url(#uuid-5395d907-90c4-4f2e-834e-bafa148a62b7);}.uuid-19fd3f82-b50d-4c06-b489-ff5dde95d6c3,.uuid-5b392bde-12ec-42d3-b6f2-6ec364ef898e,.uuid-3ba57b6e-5db7-4844-8072-787c076dd605,.uuid-98be35f6-606c-4d7c-95cc-922e033c409f,.uuid-eac9e09a-5112-47d3-a162-0635d3ea4a81{stroke-width:0px;}.uuid-5b392bde-12ec-42d3-b6f2-6ec364ef898e{fill:url(#uuid-057f3fbc-b58a-4231-8fdf-8c2b47eff223);}.uuid-3ba57b6e-5db7-4844-8072-787c076dd605{fill:url(#uuid-06a377ac-15d7-4a56-b109-a1f1bdbe7d79);}.uuid-98be35f6-606c-4d7c-95cc-922e033c409f{fill:url(#uuid-b3c86c3e-e116-4335-98b9-f46ef0e45fbd);}.uuid-eac9e09a-5112-47d3-a162-0635d3ea4a81{fill:url(#uuid-9ff38e77-29b2-4824-971e-559378c5e6de);}</style><linearGradient id="uuid-5395d907-90c4-4f2e-834e-bafa148a62b7" x1="37.2497" y1="37.2497" x2="8.9844" y2="8.9844" gradientUnits="userSpaceOnUse"><stop offset="0" stop-color="#fff"/><stop offset=".242" stop-color="#f2f2f2"/><stop offset="1" stop-color="#ccc"/></linearGradient><linearGradient id="uuid-057f3fbc-b58a-4231-8fdf-8c2b47eff223" x1="8.1434" y1="29.7253" x2="15.908" y2="42.3584" gradientUnits="userSpaceOnUse"><stop offset="0" stop-color="#ff9c0d"/><stop offset="1" stop-color="#f36e22"/></linearGradient><linearGradient id="uuid-b3c86c3e-e116-4335-98b9-f46ef0e45fbd" x1="32.2414" y1="264.1153" x2="39.847" y2="251.7409" gradientTransform="translate(0 294) scale(1 -1)" xlink:href="#uuid-057f3fbc-b58a-4231-8fdf-8c2b47eff223"/><linearGradient id="uuid-06a377ac-15d7-4a56-b109-a1f1bdbe7d79" x1="8.2414" y1="288.1153" x2="15.847" y2="275.7409" gradientTransform="translate(0 294) scale(1 -1)" xlink:href="#uuid-057f3fbc-b58a-4231-8fdf-8c2b47eff223"/><linearGradient id="uuid-9ff38e77-29b2-4824-971e-559378c5e6de" x1="32.2414" y1="288.1153" x2="39.847" y2="275.7409" gradientTransform="translate(0 294) scale(1 -1)" xlink:href="#uuid-057f3fbc-b58a-4231-8fdf-8c2b47eff223"/></defs><path class="uuid-19fd3f82-b50d-4c06-b489-ff5dde95d6c3" d="M10.026,38.001l-.027-27.975,27.975-.027.027,27.975-27.975.027ZM12.001,12.024l.023,23.975,23.975-.023-.023-23.975-23.975.023Z"/><path class="uuid-5b392bde-12ec-42d3-b6f2-6ec364ef898e" d="M16.004,41.969l-7.973.031c-1.099.001-1.999-.897-2-1.996l-.031-7.973c-.001-1.099.897-1.999,1.996-2l7.973-.031c1.099-.001,1.999.897,2,1.996l.031,7.973c.001,1.099-.897,1.999-1.996,2Z"/><path class="uuid-98be35f6-606c-4d7c-95cc-922e033c409f" d="M40.004,41.969l-7.973.031c-1.099.001-1.999-.897-2-1.996l-.031-7.973c-.001-1.099.897-1.999,1.996-2l7.973-.031c1.099-.001,1.999.897,2,1.996l.031,7.973c.001,1.099-.897,1.999-1.996,2Z"/><path class="uuid-3ba57b6e-5db7-4844-8072-787c076dd605" d="M16.004,17.969l-7.973.031c-1.099.001-1.999-.897-2-1.996l-.031-7.973c-.001-1.099.897-1.999,1.996-2l7.973-.031c1.099-.001,1.999.897,2,1.996l.031,7.973c.001,1.099-.897,1.999-1.996,2Z"/><path class="uuid-eac9e09a-5112-47d3-a162-0635d3ea4a81" d="M40.004,17.969l-7.973.031c-1.099.001-1.999-.897-2-1.996l-.031-7.973c-.001-1.099.897-1.999,1.996-2l7.973-.031c1.099-.001,1.999.897,2,1.996l.031,7.973c.001,1.099-.897,1.999-1.996,2Z"/></svg>