<?xml version="1.0" encoding="UTF-8"?><svg id="uuid-b18cade5-a55b-43cc-b08c-cbd4c3ab1615" xmlns="http://www.w3.org/2000/svg" width="48" height="48" xmlns:xlink="http://www.w3.org/1999/xlink" viewBox="0 0 48 48"><defs><style>.uuid-27f7c80c-6b7b-4525-80be-f89c7b6fca95{fill:url(#uuid-e0c224c0-2306-4c82-9d6c-ed569e5d5c64);}.uuid-27f7c80c-6b7b-4525-80be-f89c7b6fca95,.uuid-735728d0-823c-4f8a-aaea-a9cede81c631,.uuid-1282df99-de28-4479-8026-1858c8bf6b65,.uuid-8e7a125c-d102-441c-beb7-84bd2e57a594,.uuid-a1d89378-4cfa-4844-a1cc-3a683873b944,.uuid-9fc94c20-1aef-4895-9efb-102f342b59b5,.uuid-0595fe3d-d3eb-457d-86ce-219c869bcf5e,.uuid-bce8c493-5e56-4a2a-a6fb-57e17d2b2d9d,.uuid-bc97b717-4f3c-4282-84d6-c86037f2c338{stroke-width:0px;}.uuid-735728d0-823c-4f8a-aaea-a9cede81c631{fill:url(#uuid-c2e75dc0-b40a-4092-ba5e-9ce3ddf430bd);isolation:isolate;opacity:.15;}.uuid-1282df99-de28-4479-8026-1858c8bf6b65{fill:url(#uuid-5779c6a5-55a1-4a28-805b-d9e1244a51ba);opacity:.75;}.uuid-8e7a125c-d102-441c-beb7-84bd2e57a594{fill:url(#uuid-3f283f2c-1d87-4fdb-9385-69ba995e8597);}.uuid-a1d89378-4cfa-4844-a1cc-3a683873b944{fill:url(#uuid-3e097ee8-7d5b-483d-aa97-1ba262bcc9fb);}.uuid-9fc94c20-1aef-4895-9efb-102f342b59b5{fill:url(#uuid-fc19558e-61d1-4c2d-b489-2c3e16e797c6);}.uuid-0595fe3d-d3eb-457d-86ce-219c869bcf5e{fill:url(#uuid-dd915de6-d458-4f7a-9536-01c51e25ad13);}.uuid-bce8c493-5e56-4a2a-a6fb-57e17d2b2d9d{fill:url(#uuid-98a36552-15c7-4a00-bdfc-0943f0cdec0a);}.uuid-bc97b717-4f3c-4282-84d6-c86037f2c338{opacity:.07;}</style><linearGradient id="uuid-3f283f2c-1d87-4fdb-9385-69ba995e8597" x1="6.7925" y1="37.6431" x2="9.1111" y2="33.8707" gradientUnits="userSpaceOnUse"><stop offset="0" stop-color="#fff"/><stop offset=".242" stop-color="#f2f2f2"/><stop offset="1" stop-color="#ccc"/></linearGradient><linearGradient id="uuid-3e097ee8-7d5b-483d-aa97-1ba262bcc9fb" x1="38.7925" y1="37.6431" x2="41.1111" y2="33.8707" xlink:href="#uuid-3f283f2c-1d87-4fdb-9385-69ba995e8597"/><linearGradient id="uuid-98a36552-15c7-4a00-bdfc-0943f0cdec0a" x1="13.5065" y1="6.9269" x2="35.892" y2="43.3486" gradientUnits="userSpaceOnUse"><stop offset="0" stop-color="#ff9c0d"/><stop offset="1" stop-color="#f36e22"/></linearGradient><radialGradient id="uuid-c2e75dc0-b40a-4092-ba5e-9ce3ddf430bd" cx="36.9776" cy="-30" fx="36.9776" fy="-30" r="9.5" gradientTransform="translate(0 -6) scale(1 -1)" gradientUnits="userSpaceOnUse"><stop offset=".847" stop-color="#000"/><stop offset="1" stop-color="#000" stop-opacity="0"/></radialGradient><radialGradient id="uuid-dd915de6-d458-4f7a-9536-01c51e25ad13" cx="32.5013" cy="-23.914" fx="32.5013" fy="-23.914" r="15.8869" gradientTransform="translate(0 -6) scale(1 -1)" gradientUnits="userSpaceOnUse"><stop offset="0" stop-color="#fafafb"/><stop offset=".293" stop-color="#f6f7f8"/><stop offset=".566" stop-color="#ebecee"/><stop offset=".832" stop-color="#d8dcdf"/><stop offset="1" stop-color="#c8cdd1"/></radialGradient><linearGradient id="uuid-e0c224c0-2306-4c82-9d6c-ed569e5d5c64" x1="33.9603" y1="28.9093" x2="40.0659" y2="18.9753" xlink:href="#uuid-98a36552-15c7-4a00-bdfc-0943f0cdec0a"/><linearGradient id="uuid-5779c6a5-55a1-4a28-805b-d9e1244a51ba" x1="34.3287" y1="19.7609" x2="39.6265" y2="28.2391" xlink:href="#uuid-3f283f2c-1d87-4fdb-9385-69ba995e8597"/><linearGradient id="uuid-fc19558e-61d1-4c2d-b489-2c3e16e797c6" x1="9.6337" y1="16.9172" x2="18.9204" y2="32.0268" gradientUnits="userSpaceOnUse"><stop offset="0" stop-color="#64717c"/><stop offset="1" stop-color="#30363d"/></linearGradient></defs><path class="uuid-8e7a125c-d102-441c-beb7-84bd2e57a594" d="M5.037,34.963h5.9259v1.1481c0,.5519-.4481,1-1,1h-3.9259c-.5519,0-1-.4481-1-1v-1.1481h0Z"/><path class="uuid-a1d89378-4cfa-4844-a1cc-3a683873b944" d="M37.037,34.963h5.9259v1.1481c0,.5519-.4481,1-1,1h-3.9259c-.5519,0-1-.4481-1-1v-1.1481h0Z"/><rect class="uuid-bce8c493-5e56-4a2a-a6fb-57e17d2b2d9d" y="13.037" width="48" height="21.9259" rx="2" ry="2"/><circle class="uuid-735728d0-823c-4f8a-aaea-a9cede81c631" cx="36.9776" cy="24" r="9.5"/><circle class="uuid-0595fe3d-d3eb-457d-86ce-219c869bcf5e" cx="36.9776" cy="24" r="8.0741"/><circle class="uuid-27f7c80c-6b7b-4525-80be-f89c7b6fca95" cx="36.9776" cy="24" r="6"/><path class="uuid-bc97b717-4f3c-4282-84d6-c86037f2c338" d="M36.9776,18c-3.3137,0-6,2.6863-6,6s2.6863,6,6,6,6-2.6863,6-6-2.6863-6-6-6ZM36.9776,29.5c-3.0327,0-5.5-2.4678-5.5-5.5s2.4673-5.5,5.5-5.5,5.5,2.4678,5.5,5.5-2.4673,5.5-5.5,5.5Z"/><circle class="uuid-1282df99-de28-4479-8026-1858c8bf6b65" cx="36.9776" cy="24" r="5"/><path class="uuid-9fc94c20-1aef-4895-9efb-102f342b59b5" d="M21.9869,26.8889c.6341,0,1.1481.514,1.1481,1.1481s-.514,1.1481-1.1481,1.1481-1.1481-.514-1.1481-1.1481.514-1.1481,1.1481-1.1481ZM16.8388,28.037c0,.6341.514,1.1481,1.1481,1.1481s1.1481-.514,1.1481-1.1481-.514-1.1481-1.1481-1.1481-1.1481.514-1.1481,1.1481ZM12.8388,28.037c0,.6341.514,1.1481,1.1481,1.1481s1.1481-.514,1.1481-1.1481-.514-1.1481-1.1481-1.1481-1.1481.514-1.1481,1.1481ZM8.8388,28.037c0,.6341.514,1.1481,1.1481,1.1481s1.1481-.514,1.1481-1.1481-.514-1.1481-1.1481-1.1481-1.1481.514-1.1481,1.1481ZM4.8388,28.037c0,.6341.514,1.1481,1.1481,1.1481s1.1481-.514,1.1481-1.1481-.514-1.1481-1.1481-1.1481-1.1481.514-1.1481,1.1481ZM20.8388,24c0,.6341.514,1.1481,1.1481,1.1481s1.1481-.514,1.1481-1.1481-.514-1.1481-1.1481-1.1481-1.1481.514-1.1481,1.1481ZM16.8388,24c0,.6341.514,1.1481,1.1481,1.1481s1.1481-.514,1.1481-1.1481-.514-1.1481-1.1481-1.1481-1.1481.514-1.1481,1.1481ZM12.8388,24c0,.6341.514,1.1481,1.1481,1.1481s1.1481-.514,1.1481-1.1481-.514-1.1481-1.1481-1.1481-1.1481.514-1.1481,1.1481ZM8.8388,24c0,.6341.514,1.1481,1.1481,1.1481s1.1481-.514,1.1481-1.1481-.514-1.1481-1.1481-1.1481-1.1481.514-1.1481,1.1481ZM4.8388,24c0,.6341.514,1.1481,1.1481,1.1481s1.1481-.514,1.1481-1.1481-.514-1.1481-1.1481-1.1481-1.1481.514-1.1481,1.1481ZM20.8388,19.963c0,.6341.514,1.1481,1.1481,1.1481s1.1481-.514,1.1481-1.1481-.514-1.1481-1.1481-1.1481-1.1481.514-1.1481,1.1481ZM16.8388,19.963c0,.6341.514,1.1481,1.1481,1.1481s1.1481-.514,1.1481-1.1481-.514-1.1481-1.1481-1.1481-1.1481.514-1.1481,1.1481ZM12.8388,19.963c0,.6341.514,1.1481,1.1481,1.1481s1.1481-.514,1.1481-1.1481-.514-1.1481-1.1481-1.1481-1.1481.514-1.1481,1.1481ZM8.8388,19.963c0,.6341.514,1.1481,1.1481,1.1481s1.1481-.514,1.1481-1.1481-.514-1.1481-1.1481-1.1481-1.1481.514-1.1481,1.1481ZM4.8388,19.963c0,.6341.514,1.1481,1.1481,1.1481s1.1481-.514,1.1481-1.1481-.514-1.1481-1.1481-1.1481-1.1481.514-1.1481,1.1481Z"/></svg>