<?xml version="1.0" encoding="UTF-8"?><svg id="uuid-5e329e32-7749-4586-8a29-32cd7324a37c" xmlns="http://www.w3.org/2000/svg" width="48" height="48" xmlns:xlink="http://www.w3.org/1999/xlink" viewBox="0 0 48 48"><defs><style>.uuid-74c34eee-ef7b-4582-94e4-454ab775b98a{fill:url(#uuid-2dfc32c1-bc9d-4d7b-9ca4-d501502aed31);}.uuid-74c34eee-ef7b-4582-94e4-454ab775b98a,.uuid-d92a0e6f-cf5a-4b0f-bbd2-880bb55ddafa,.uuid-63ad8687-7d2c-44e6-ad80-5d8199e04243,.uuid-c81d7e42-cb3e-4b76-93d2-f15fe9e1ffca,.uuid-58c22b75-d087-46cd-bdcd-103c7d0ae16f,.uuid-35862837-b9a6-46ec-8cdf-3d830df3b893,.uuid-dd91c651-e1b1-4954-9386-9132d41e0451,.uuid-95398e6d-2065-44cb-9176-4e8e69194925,.uuid-84dbc834-5545-48da-a236-212dfd4e769c,.uuid-9d1992f3-37ec-4f58-a538-b8af34e12cd1,.uuid-33b1f951-90e8-4a42-bde8-d96c6a7dbca9,.uuid-91f8980c-4d75-450a-af14-7420f3b8877a{stroke-width:0px;}.uuid-d92a0e6f-cf5a-4b0f-bbd2-880bb55ddafa{fill:url(#uuid-a6b6015b-1294-4101-a786-3cccf51074d5);opacity:.75;}.uuid-63ad8687-7d2c-44e6-ad80-5d8199e04243{fill:url(#uuid-7c083d99-1f22-4046-a965-7cd2f3adf654);isolation:isolate;opacity:.15;}.uuid-c81d7e42-cb3e-4b76-93d2-f15fe9e1ffca{opacity:.05;}.uuid-57442b09-fa73-497d-8874-e6252b2719a0,.uuid-33b1f951-90e8-4a42-bde8-d96c6a7dbca9{opacity:.07;}.uuid-35862837-b9a6-46ec-8cdf-3d830df3b893{fill:url(#uuid-427d88f8-460a-496a-a1ec-f84976cd1ad0);}.uuid-dd91c651-e1b1-4954-9386-9132d41e0451{fill:url(#uuid-b28bfc90-5fc8-41d5-8347-241dff2a8612);}.uuid-95398e6d-2065-44cb-9176-4e8e69194925{fill:url(#uuid-14d206ce-029d-43f6-9ce0-dc2fa159de77);}.uuid-84dbc834-5545-48da-a236-212dfd4e769c{fill:url(#uuid-fd049c07-dfaf-4871-bb90-c5746dbfb950);}.uuid-9d1992f3-37ec-4f58-a538-b8af34e12cd1{fill:url(#uuid-915aabe2-717b-40e1-b26c-6c25f0c5f439);}.uuid-91f8980c-4d75-450a-af14-7420f3b8877a{fill:url(#uuid-f185a142-64c5-43e2-8c19-e5df868d5e4e);}</style><linearGradient id="uuid-fd049c07-dfaf-4871-bb90-c5746dbfb950" x1="7.196" y1="24" x2="40.804" y2="24" gradientUnits="userSpaceOnUse"><stop offset="0" stop-color="#ff9c0d"/><stop offset="1" stop-color="#f36e22"/></linearGradient><radialGradient id="uuid-14d206ce-029d-43f6-9ce0-dc2fa159de77" cx="18.1773" cy="-326.2846" fx="18.1773" fy="-326.2846" r="20.6652" gradientTransform="translate(0 -306) scale(1 -1)" gradientUnits="userSpaceOnUse"><stop offset="0" stop-color="#fafafb"/><stop offset=".293" stop-color="#f6f7f8"/><stop offset=".566" stop-color="#ebecee"/><stop offset=".832" stop-color="#d8dcdf"/><stop offset="1" stop-color="#c8cdd1"/></radialGradient><linearGradient id="uuid-427d88f8-460a-496a-a1ec-f84976cd1ad0" x1="11.1017" y1="8.9853" x2="14.6609" y2="8.9853" gradientUnits="userSpaceOnUse"><stop offset="0" stop-color="#fff"/><stop offset=".242" stop-color="#f2f2f2"/><stop offset="1" stop-color="#ccc"/></linearGradient><linearGradient id="uuid-f185a142-64c5-43e2-8c19-e5df868d5e4e" x1="23.4302" y1="6.6682" x2="23.4302" y2="10.4868" xlink:href="#uuid-427d88f8-460a-496a-a1ec-f84976cd1ad0"/><linearGradient id="uuid-2dfc32c1-bc9d-4d7b-9ca4-d501502aed31" x1="16.3762" x2="19.9354" xlink:href="#uuid-427d88f8-460a-496a-a1ec-f84976cd1ad0"/><radialGradient id="uuid-7c083d99-1f22-4046-a965-7cd2f3adf654" cx="24" cy="-334.201" fx="24" fy="-334.201" r="13.3367" gradientTransform="translate(0 -306) scale(1 -1)" gradientUnits="userSpaceOnUse"><stop offset=".847" stop-color="#000"/><stop offset="1" stop-color="#000" stop-opacity="0"/></radialGradient><radialGradient id="uuid-915aabe2-717b-40e1-b26c-6c25f0c5f439" cx="17.7158" cy="-325.6571" fx="17.7158" fy="-325.6571" r="22.3031" xlink:href="#uuid-14d206ce-029d-43f6-9ce0-dc2fa159de77"/><linearGradient id="uuid-b28bfc90-5fc8-41d5-8347-241dff2a8612" x1="19.7641" y1="35.093" x2="28.3356" y2="21.1469" xlink:href="#uuid-fd049c07-dfaf-4871-bb90-c5746dbfb950"/><linearGradient id="uuid-a6b6015b-1294-4101-a786-3cccf51074d5" x1="20.2813" y1="22.2499" x2="27.7187" y2="34.1521" xlink:href="#uuid-427d88f8-460a-496a-a1ec-f84976cd1ad0"/></defs><rect class="uuid-84dbc834-5545-48da-a236-212dfd4e769c" x="7.196" y="3" width="33.608" height="42" rx="2.1005" ry="2.1005"/><circle class="uuid-95398e6d-2065-44cb-9176-4e8e69194925" cx="24" cy="28.201" r="10.5025"/><path class="uuid-c81d7e42-cb3e-4b76-93d2-f15fe9e1ffca" d="M23.43,6.1556c-1.206,0-2.2305.7617-2.6372,1.8263-.4067-1.0646-1.4312-1.8263-2.6372-1.8263s-2.2305.7617-2.6372,1.8263c-.4067-1.0646-1.4312-1.8263-2.6372-1.8263-1.5605,0-2.8297,1.2697-2.8297,2.8297s1.2692,2.8297,2.8297,2.8297c1.206,0,2.2305-.7617,2.6372-1.8263.4067,1.0646,1.4312,1.8263,2.6372,1.8263s2.2305-.7617,2.6372-1.8263c.4067,1.0646,1.4312,1.8263,2.6372,1.8263,1.5605,0,2.8302-1.2697,2.8302-2.8297s-1.2697-2.8297-2.8302-2.8297Z"/><g class="uuid-57442b09-fa73-497d-8874-e6252b2719a0"><circle class="uuid-58c22b75-d087-46cd-bdcd-103c7d0ae16f" cx="12.8813" cy="8.9853" r="2.3046"/><path class="uuid-58c22b75-d087-46cd-bdcd-103c7d0ae16f" d="M23.43,11.2899c-1.2708,0-2.3046-1.0338-2.3046-2.3046s1.0338-2.3046,2.3046-2.3046,2.3051,1.0338,2.3051,2.3046-1.0338,2.3046-2.3051,2.3046Z"/><circle class="uuid-58c22b75-d087-46cd-bdcd-103c7d0ae16f" cx="18.1557" cy="8.9853" r="2.3046"/></g><circle class="uuid-35862837-b9a6-46ec-8cdf-3d830df3b893" cx="12.8813" cy="8.9853" r="1.7796"/><circle class="uuid-91f8980c-4d75-450a-af14-7420f3b8877a" cx="23.4302" cy="8.9853" r="1.7796"/><circle class="uuid-74c34eee-ef7b-4582-94e4-454ab775b98a" cx="18.1558" cy="8.9853" r="1.7796"/><circle class="uuid-63ad8687-7d2c-44e6-ad80-5d8199e04243" cx="24" cy="28.201" r="13.3367"/><circle class="uuid-9d1992f3-37ec-4f58-a538-b8af34e12cd1" cx="24" cy="28.201" r="11.3349"/><circle class="uuid-dd91c651-e1b1-4954-9386-9132d41e0451" cx="24" cy="28.201" r="8.4232"/><path class="uuid-33b1f951-90e8-4a42-bde8-d96c6a7dbca9" d="M24,19.7778c-4.652,0-8.4232,3.7712-8.4232,8.4232s3.7712,8.4232,8.4232,8.4232,8.4232-3.7712,8.4232-8.4232-3.7712-8.4232-8.4232-8.4232ZM23.9999,35.9223c-4.2575,0-7.7213-3.4644-7.7213-7.7213s3.4637-7.7213,7.7213-7.7213,7.7213,3.4644,7.7213,7.7213-3.4637,7.7213-7.7213,7.7213Z"/><circle class="uuid-d92a0e6f-cf5a-4b0f-bbd2-880bb55ddafa" cx="24" cy="28.201" r="7.0193"/></svg>