<?xml version="1.0" encoding="UTF-8"?><svg id="uuid-b2f1fc7d-fd04-42a0-a8f7-90fb19451401" xmlns="http://www.w3.org/2000/svg" width="48" height="48" xmlns:xlink="http://www.w3.org/1999/xlink" viewBox="0 0 48 48"><defs><style>.uuid-39cd6d05-9e51-454c-bb3d-a29a667835a9{fill:url(#uuid-827a6696-7e25-4ae4-96cc-dea7ad3ffdca);}.uuid-39cd6d05-9e51-454c-bb3d-a29a667835a9,.uuid-15199a86-d22a-46ba-a4bd-18539f43de8f,.uuid-ca1ab224-539f-4afd-b902-79f98c31a55e,.uuid-d5b8670d-2589-4649-a28b-a846bdd0b7fc,.uuid-dba7d4ef-aeff-471f-8867-0f171d0b589f,.uuid-dee487a8-5479-40b0-b269-1f0d5b642acc,.uuid-11f51c7b-88fc-428d-a637-c81cec1ffa27,.uuid-6931a6d6-b948-4ad2-b4e4-6e61e9d77367,.uuid-5b626a83-5d76-4cab-9cb4-e9e72b7779d7{stroke-width:0px;}.uuid-15199a86-d22a-46ba-a4bd-18539f43de8f{opacity:.05;}.uuid-7c1338ff-dc50-48eb-9485-73b28c742906,.uuid-5b626a83-5d76-4cab-9cb4-e9e72b7779d7{opacity:.07;}.uuid-d5b8670d-2589-4649-a28b-a846bdd0b7fc{fill:url(#uuid-848da974-600a-46f1-98b7-d15fae7f3f81);}.uuid-dba7d4ef-aeff-471f-8867-0f171d0b589f{fill:url(#uuid-590bb604-acf7-4ade-8feb-4c4055ac37b2);}.uuid-dee487a8-5479-40b0-b269-1f0d5b642acc{fill:url(#uuid-422fea66-edcd-4ecf-a4fc-a5ae117121d4);}.uuid-11f51c7b-88fc-428d-a637-c81cec1ffa27{fill:url(#uuid-557d648c-8816-472e-973f-1495bb6c8f40);}.uuid-6931a6d6-b948-4ad2-b4e4-6e61e9d77367{fill:url(#uuid-71598663-8bd2-4e52-8541-5ea5aa35decc);}</style><linearGradient id="uuid-590bb604-acf7-4ade-8feb-4c4055ac37b2" x1="7.8465" y1="-1.8511" x2="34.4675" y2="40.7514" gradientUnits="userSpaceOnUse"><stop offset=".4049" stop-color="#ff9c0d"/><stop offset="1" stop-color="#f36e22"/></linearGradient><linearGradient id="uuid-557d648c-8816-472e-973f-1495bb6c8f40" x1="23.6811" y1="8.1993" x2="43.2776" y2="39.5603" gradientUnits="userSpaceOnUse"><stop offset="0" stop-color="#fff"/><stop offset=".242" stop-color="#f2f2f2"/><stop offset="1" stop-color="#ccc"/></linearGradient><linearGradient id="uuid-71598663-8bd2-4e52-8541-5ea5aa35decc" x1="17.3896" y1="1.4617" x2="31.2285" y2="23.978" gradientUnits="userSpaceOnUse"><stop offset="0" stop-color="#64717c"/><stop offset="1" stop-color="#30363d"/></linearGradient><linearGradient id="uuid-827a6696-7e25-4ae4-96cc-dea7ad3ffdca" x1="8.3426" y1="9.2937" x2="8.3426" y2="12.9297" xlink:href="#uuid-590bb604-acf7-4ade-8feb-4c4055ac37b2"/><linearGradient id="uuid-848da974-600a-46f1-98b7-d15fae7f3f81" x1="18.3868" y1="9.2937" x2="18.3868" y2="12.9297" xlink:href="#uuid-590bb604-acf7-4ade-8feb-4c4055ac37b2"/><linearGradient id="uuid-422fea66-edcd-4ecf-a4fc-a5ae117121d4" x1="13.3647" y1="9.2937" x2="13.3647" y2="12.9297" xlink:href="#uuid-590bb604-acf7-4ade-8feb-4c4055ac37b2"/></defs><rect class="uuid-dba7d4ef-aeff-471f-8867-0f171d0b589f" x="4" y="8" width="40" height="32" rx="2" ry="2"/><path class="uuid-15199a86-d22a-46ba-a4bd-18539f43de8f" d="M44,38V10c0-1.1046-.8954-2-2-2h-19v32h19c1.1046,0,2-.8954,2-2Z"/><path class="uuid-5b626a83-5d76-4cab-9cb4-e9e72b7779d7" d="M44,38V10c0-1.1046-.8954-2-2-2h-18.5v32h18.5c1.1046,0,2-.8954,2-2Z"/><path class="uuid-11f51c7b-88fc-428d-a637-c81cec1ffa27" d="M24,8h18c1.1038,0,2,.8962,2,2v28c0,1.1038-.8962,2-2,2h-18V8h0Z"/><path class="uuid-6931a6d6-b948-4ad2-b4e4-6e61e9d77367" d="M6,8h36c1.1038,0,2,.8962,2,2v5H4v-5c0-1.1038.8962-2,2-2Z"/><path class="uuid-15199a86-d22a-46ba-a4bd-18539f43de8f" d="M18.3866,8.8057c-1.1483,0-2.1238.7253-2.511,1.739-.3872-1.0137-1.3627-1.739-2.511-1.739s-2.1238.7253-2.511,1.739c-.3872-1.0137-1.3627-1.739-2.511-1.739-1.4858,0-2.6943,1.209-2.6943,2.6943s1.2085,2.6943,2.6943,2.6943c1.1483,0,2.1238-.7253,2.511-1.739.3872,1.0137,1.3627,1.739,2.511,1.739s2.1238-.7253,2.511-1.739c.3872,1.0137,1.3627,1.739,2.511,1.739,1.4858,0,2.6948-1.209,2.6948-2.6943s-1.209-2.6943-2.6948-2.6943Z"/><g class="uuid-7c1338ff-dc50-48eb-9485-73b28c742906"><circle class="uuid-ca1ab224-539f-4afd-b902-79f98c31a55e" cx="8.3426" cy="11.5" r="2.1943"/><path class="uuid-ca1ab224-539f-4afd-b902-79f98c31a55e" d="M18.3866,13.6943c-1.21,0-2.1943-.9844-2.1943-2.1943s.9844-2.1943,2.1943-2.1943,2.1948.9844,2.1948,2.1943-.9844,2.1943-2.1948,2.1943Z"/><circle class="uuid-ca1ab224-539f-4afd-b902-79f98c31a55e" cx="13.3646" cy="11.5" r="2.1943"/></g><circle class="uuid-39cd6d05-9e51-454c-bb3d-a29a667835a9" cx="8.3426" cy="11.5" r="1.6944"/><circle class="uuid-d5b8670d-2589-4649-a28b-a846bdd0b7fc" cx="18.3868" cy="11.5" r="1.6944"/><circle class="uuid-dee487a8-5479-40b0-b269-1f0d5b642acc" cx="13.3647" cy="11.5" r="1.6944"/></svg>