<?xml version="1.0" encoding="UTF-8"?><svg id="uuid-721a6cb5-9f41-4db3-a825-57f95f6aa452" xmlns="http://www.w3.org/2000/svg" width="48" height="48" xmlns:xlink="http://www.w3.org/1999/xlink" viewBox="0 0 48 48"><defs><style>.uuid-0d013c34-67c7-40eb-b95e-35a7cf0616c1{fill:url(#uuid-2840ab1e-145c-41c4-b463-ec45efb9fb89);}.uuid-0d013c34-67c7-40eb-b95e-35a7cf0616c1,.uuid-2ea92c0b-3bef-403c-abeb-09d62bcdd1cd,.uuid-5a874274-0017-4087-8b40-22c7c2a767e3,.uuid-c662f8b9-8b27-49cf-9634-5c49a136232d,.uuid-8b939a9c-6af8-4e4a-8785-af4604d44ff0,.uuid-6a806e15-1b64-45c7-a64d-a709b8c45322,.uuid-0bed2bb0-f7ed-442e-9179-75dcf4cbb6aa,.uuid-caaa02c8-d1e2-42af-aa2d-faa6b219f6e7,.uuid-6e4a8a6e-f910-40c0-8614-27a848bb65cd{stroke-width:0px;}.uuid-2ea92c0b-3bef-403c-abeb-09d62bcdd1cd{opacity:.05;}.uuid-5a874274-0017-4087-8b40-22c7c2a767e3{fill:url(#uuid-603ba50e-7b64-4125-9a52-6056f276ec74);}.uuid-197419c2-fce2-48f5-8102-72eb2ed30481,.uuid-6e4a8a6e-f910-40c0-8614-27a848bb65cd{opacity:.07;}.uuid-8b939a9c-6af8-4e4a-8785-af4604d44ff0{fill:url(#uuid-d7447dd3-9c89-4207-83ac-af52689e50eb);}.uuid-6a806e15-1b64-45c7-a64d-a709b8c45322{fill:url(#uuid-eafd32ea-77d6-4d81-93cc-df2e38cdfbce);}.uuid-0bed2bb0-f7ed-442e-9179-75dcf4cbb6aa{fill:url(#uuid-05125f99-f0b8-4778-89c2-4ecd41bea5c7);}.uuid-caaa02c8-d1e2-42af-aa2d-faa6b219f6e7{fill:url(#uuid-c51dd508-7f1f-4245-8e47-301d53a88307);}</style><linearGradient id="uuid-2840ab1e-145c-41c4-b463-ec45efb9fb89" x1="7.8465" y1="-1.8511" x2="34.4675" y2="40.7514" gradientUnits="userSpaceOnUse"><stop offset="0" stop-color="#32bdef"/><stop offset="1" stop-color="#1ea2e4"/></linearGradient><linearGradient id="uuid-05125f99-f0b8-4778-89c2-4ecd41bea5c7" x1="17.3896" y1="1.4617" x2="31.2285" y2="23.978" gradientUnits="userSpaceOnUse"><stop offset="0" stop-color="#64717c"/><stop offset="1" stop-color="#30363d"/></linearGradient><linearGradient id="uuid-eafd32ea-77d6-4d81-93cc-df2e38cdfbce" x1="8.3426" y1="9.2937" x2="8.3426" y2="12.9297" xlink:href="#uuid-2840ab1e-145c-41c4-b463-ec45efb9fb89"/><linearGradient id="uuid-c51dd508-7f1f-4245-8e47-301d53a88307" x1="18.3868" y1="9.2937" x2="18.3868" y2="12.9297" xlink:href="#uuid-2840ab1e-145c-41c4-b463-ec45efb9fb89"/><linearGradient id="uuid-d7447dd3-9c89-4207-83ac-af52689e50eb" x1="13.3647" y1="9.2937" x2="13.3647" y2="12.9297" xlink:href="#uuid-2840ab1e-145c-41c4-b463-ec45efb9fb89"/><linearGradient id="uuid-603ba50e-7b64-4125-9a52-6056f276ec74" x1="16.3271" y1="15.2207" x2="28.972" y2="35.4569" gradientUnits="userSpaceOnUse"><stop offset="0" stop-color="#fff"/><stop offset=".242" stop-color="#f2f2f2"/><stop offset="1" stop-color="#ccc"/></linearGradient></defs><rect class="uuid-0d013c34-67c7-40eb-b95e-35a7cf0616c1" x="4" y="8" width="40" height="32" rx="2" ry="2"/><path class="uuid-0bed2bb0-f7ed-442e-9179-75dcf4cbb6aa" d="M6,8h36c1.1038,0,2,.8962,2,2v5H4v-5c0-1.1038.8962-2,2-2Z"/><path class="uuid-2ea92c0b-3bef-403c-abeb-09d62bcdd1cd" d="M18.3866,8.8057c-1.1483,0-2.1238.7253-2.511,1.739-.3872-1.0137-1.3627-1.739-2.511-1.739s-2.1238.7253-2.511,1.739c-.3872-1.0137-1.3627-1.739-2.511-1.739-1.4858,0-2.6943,1.209-2.6943,2.6943s1.2085,2.6943,2.6943,2.6943c1.1483,0,2.1238-.7253,2.511-1.739.3872,1.0137,1.3627,1.739,2.511,1.739s2.1238-.7253,2.511-1.739c.3872,1.0137,1.3627,1.739,2.511,1.739,1.4858,0,2.6948-1.209,2.6948-2.6943s-1.209-2.6943-2.6948-2.6943Z"/><g class="uuid-197419c2-fce2-48f5-8102-72eb2ed30481"><circle class="uuid-c662f8b9-8b27-49cf-9634-5c49a136232d" cx="8.3426" cy="11.5" r="2.1943"/><path class="uuid-c662f8b9-8b27-49cf-9634-5c49a136232d" d="M18.3866,13.6943c-1.21,0-2.1943-.9844-2.1943-2.1943s.9844-2.1943,2.1943-2.1943,2.1948.9844,2.1948,2.1943-.9844,2.1943-2.1948,2.1943Z"/><circle class="uuid-c662f8b9-8b27-49cf-9634-5c49a136232d" cx="13.3646" cy="11.5" r="2.1943"/></g><circle class="uuid-6a806e15-1b64-45c7-a64d-a709b8c45322" cx="8.3426" cy="11.5" r="1.6944"/><circle class="uuid-caaa02c8-d1e2-42af-aa2d-faa6b219f6e7" cx="18.3868" cy="11.5" r="1.6944"/><circle class="uuid-8b939a9c-6af8-4e4a-8785-af4604d44ff0" cx="13.3647" cy="11.5" r="1.6944"/><path class="uuid-2ea92c0b-3bef-403c-abeb-09d62bcdd1cd" d="M17.3506,17h13.2998c1.0758,0,1.9492.8734,1.9492,1.9492v17.1006c0,1.0763-.8739,1.9502-1.9502,1.9502h-13.2998c-1.0758,0-1.9492-.8734-1.9492-1.9492v-17.1006c0-1.0763.8739-1.9502,1.9502-1.9502Z" transform="translate(51.5 3.5) rotate(90)"/><path class="uuid-6e4a8a6e-f910-40c0-8614-27a848bb65cd" d="M17.3506,17.5h13.2998c.7998,0,1.4492.6494,1.4492,1.4492v17.1006c0,.8004-.6498,1.4502-1.4502,1.4502h-13.2998c-.7998,0-1.4492-.6494-1.4492-1.4492v-17.1006c0-.8004.6498-1.4502,1.4502-1.4502Z" transform="translate(51.5 3.5) rotate(90)"/><rect class="uuid-5a874274-0017-4087-8b40-22c7c2a767e3" x="14.5" y="19.9" width="19" height="15.2" rx=".95" ry=".95"/></svg>