<?xml version="1.0" encoding="UTF-8"?><svg id="uuid-cedd4857-d125-4e67-9821-768552b4cc04" xmlns="http://www.w3.org/2000/svg" width="48" height="48" xmlns:xlink="http://www.w3.org/1999/xlink" viewBox="0 0 48 48"><defs><style>.uuid-46730b3a-8c7b-438a-b65e-de6094f90e4b{fill:url(#uuid-1da2330b-b0a3-4f7a-b0c7-0aca075b19ce);}.uuid-46730b3a-8c7b-438a-b65e-de6094f90e4b,.uuid-cc5f6765-9d85-4566-8c59-2c1d7bdfb3d7,.uuid-8381496c-5f2e-4b99-992f-77393528cd65,.uuid-c9fb304d-2b66-4aad-a066-4cb1469a19a0,.uuid-dfd32101-abcc-48ae-b1e7-ca5e3b9be3c1,.uuid-1d41dcac-1e0d-4c40-aac9-32dedfc4df37,.uuid-216a7986-6b11-40c6-8489-2ab40b57328e,.uuid-0515ec09-d580-49e9-bf98-cb484b169867,.uuid-eb032197-6028-43e4-a2b0-84d9747368d7{stroke-width:0px;}.uuid-cc5f6765-9d85-4566-8c59-2c1d7bdfb3d7{opacity:.05;}.uuid-6b34d3b4-f74b-46fb-ab58-d271698ca69f,.uuid-eb032197-6028-43e4-a2b0-84d9747368d7{opacity:.07;}.uuid-c9fb304d-2b66-4aad-a066-4cb1469a19a0{fill:url(#uuid-e82704ca-4e85-443b-b1b5-0e6137f768cc);}.uuid-dfd32101-abcc-48ae-b1e7-ca5e3b9be3c1{fill:url(#uuid-d158dc33-97b8-4791-8be1-465e511ae5c1);}.uuid-1d41dcac-1e0d-4c40-aac9-32dedfc4df37{fill:url(#uuid-ea1512a1-ff95-4b84-8384-fb1ebed289d7);}.uuid-216a7986-6b11-40c6-8489-2ab40b57328e{fill:url(#uuid-09aa0330-8a4a-458b-a3b4-5db3ecaacb3c);}.uuid-0515ec09-d580-49e9-bf98-cb484b169867{fill:url(#uuid-bc7a8847-408a-4f50-8f6b-ccef51befee5);}</style><linearGradient id="uuid-09aa0330-8a4a-458b-a3b4-5db3ecaacb3c" x1="7.8465" y1="-1.8511" x2="34.4675" y2="40.7514" gradientUnits="userSpaceOnUse"><stop offset=".4049" stop-color="#ff9c0d"/><stop offset="1" stop-color="#f36e22"/></linearGradient><linearGradient id="uuid-1da2330b-b0a3-4f7a-b0c7-0aca075b19ce" x1="17.3896" y1="1.4617" x2="31.2285" y2="23.978" gradientUnits="userSpaceOnUse"><stop offset="0" stop-color="#64717c"/><stop offset="1" stop-color="#30363d"/></linearGradient><linearGradient id="uuid-d158dc33-97b8-4791-8be1-465e511ae5c1" x1="8.3426" y1="9.2937" x2="8.3426" y2="12.9297" xlink:href="#uuid-09aa0330-8a4a-458b-a3b4-5db3ecaacb3c"/><linearGradient id="uuid-e82704ca-4e85-443b-b1b5-0e6137f768cc" x1="18.3868" y1="9.2937" x2="18.3868" y2="12.9297" xlink:href="#uuid-09aa0330-8a4a-458b-a3b4-5db3ecaacb3c"/><linearGradient id="uuid-ea1512a1-ff95-4b84-8384-fb1ebed289d7" x1="13.3647" y1="9.2937" x2="13.3647" y2="12.9297" xlink:href="#uuid-09aa0330-8a4a-458b-a3b4-5db3ecaacb3c"/><linearGradient id="uuid-bc7a8847-408a-4f50-8f6b-ccef51befee5" x1="16.3271" y1="15.2207" x2="28.972" y2="35.4569" gradientUnits="userSpaceOnUse"><stop offset="0" stop-color="#fff"/><stop offset=".242" stop-color="#f2f2f2"/><stop offset="1" stop-color="#ccc"/></linearGradient></defs><rect class="uuid-216a7986-6b11-40c6-8489-2ab40b57328e" x="4" y="8" width="40" height="32" rx="2" ry="2"/><path class="uuid-46730b3a-8c7b-438a-b65e-de6094f90e4b" d="M6,8h36c1.1038,0,2,.8962,2,2v5H4v-5c0-1.1038.8962-2,2-2Z"/><path class="uuid-cc5f6765-9d85-4566-8c59-2c1d7bdfb3d7" d="M18.3866,8.8057c-1.1483,0-2.1238.7253-2.511,1.739-.3872-1.0137-1.3627-1.739-2.511-1.739s-2.1238.7253-2.511,1.739c-.3872-1.0137-1.3627-1.739-2.511-1.739-1.4858,0-2.6943,1.209-2.6943,2.6943s1.2085,2.6943,2.6943,2.6943c1.1483,0,2.1238-.7253,2.511-1.739.3872,1.0137,1.3627,1.739,2.511,1.739s2.1238-.7253,2.511-1.739c.3872,1.0137,1.3627,1.739,2.511,1.739,1.4858,0,2.6948-1.209,2.6948-2.6943s-1.209-2.6943-2.6948-2.6943Z"/><g class="uuid-6b34d3b4-f74b-46fb-ab58-d271698ca69f"><circle class="uuid-8381496c-5f2e-4b99-992f-77393528cd65" cx="8.3426" cy="11.5" r="2.1943"/><path class="uuid-8381496c-5f2e-4b99-992f-77393528cd65" d="M18.3866,13.6943c-1.21,0-2.1943-.9844-2.1943-2.1943s.9844-2.1943,2.1943-2.1943,2.1948.9844,2.1948,2.1943-.9844,2.1943-2.1948,2.1943Z"/><circle class="uuid-8381496c-5f2e-4b99-992f-77393528cd65" cx="13.3646" cy="11.5" r="2.1943"/></g><circle class="uuid-dfd32101-abcc-48ae-b1e7-ca5e3b9be3c1" cx="8.3426" cy="11.5" r="1.6944"/><circle class="uuid-c9fb304d-2b66-4aad-a066-4cb1469a19a0" cx="18.3868" cy="11.5" r="1.6944"/><circle class="uuid-1d41dcac-1e0d-4c40-aac9-32dedfc4df37" cx="13.3647" cy="11.5" r="1.6944"/><path class="uuid-cc5f6765-9d85-4566-8c59-2c1d7bdfb3d7" d="M17.3506,17h13.2998c1.0758,0,1.9492.8734,1.9492,1.9492v17.1006c0,1.0763-.8739,1.9502-1.9502,1.9502h-13.2998c-1.0758,0-1.9492-.8734-1.9492-1.9492v-17.1006c0-1.0763.8739-1.9502,1.9502-1.9502Z" transform="translate(51.5 3.5) rotate(90)"/><path class="uuid-eb032197-6028-43e4-a2b0-84d9747368d7" d="M17.3506,17.5h13.2998c.7998,0,1.4492.6494,1.4492,1.4492v17.1006c0,.8004-.6498,1.4502-1.4502,1.4502h-13.2998c-.7998,0-1.4492-.6494-1.4492-1.4492v-17.1006c0-.8004.6498-1.4502,1.4502-1.4502Z" transform="translate(51.5 3.5) rotate(90)"/><rect class="uuid-0515ec09-d580-49e9-bf98-cb484b169867" x="14.5" y="19.9" width="19" height="15.2" rx=".95" ry=".95"/></svg>