<?xml version="1.0" encoding="UTF-8"?><svg id="uuid-b19142f0-d0dc-4197-a6a4-1015c0552128" xmlns="http://www.w3.org/2000/svg" width="48" height="48" xmlns:xlink="http://www.w3.org/1999/xlink" viewBox="0 0 48 48"><defs><style>.uuid-82dc8564-2375-4b93-91db-3f5575c4f750{fill:url(#uuid-58c3f252-eedc-4d76-bc95-6c44b850372b);}.uuid-82dc8564-2375-4b93-91db-3f5575c4f750,.uuid-b0e44e04-0fac-4765-9985-5d54b905310b,.uuid-c9d448b8-9740-4910-9515-3dd498083ae9,.uuid-c46c76fb-8d37-46c5-a036-1b28a061968a,.uuid-ed5a0083-9fea-49a0-ad42-657b0d911d6b,.uuid-ce6f5304-da9e-4ac8-acd2-e74137587b69,.uuid-95dee147-94f9-4ad5-99ba-b374199e18b2,.uuid-975c18a0-c9bd-4aeb-bd17-7d58a8967d61,.uuid-231e5219-918e-4e38-bf6b-1894bcf81116{stroke-width:0px;}.uuid-b0e44e04-0fac-4765-9985-5d54b905310b{fill:url(#uuid-f8b75a75-5cfd-484e-a8f0-8d42dd53f10a);}.uuid-c9d448b8-9740-4910-9515-3dd498083ae9{fill:url(#uuid-2d40e8b3-8c5a-45e5-9a17-49ef6501854c);}.uuid-c46c76fb-8d37-46c5-a036-1b28a061968a{opacity:.05;}.uuid-8ecf881b-e9f2-4096-a630-ac8619629dd3,.uuid-231e5219-918e-4e38-bf6b-1894bcf81116{opacity:.07;}.uuid-ce6f5304-da9e-4ac8-acd2-e74137587b69{fill:url(#uuid-9007cca7-d424-428e-97ba-0ce93c7b3bf5);}.uuid-95dee147-94f9-4ad5-99ba-b374199e18b2{fill:url(#uuid-884be751-1d61-432c-a686-75ebfc238c94);opacity:.75;}.uuid-975c18a0-c9bd-4aeb-bd17-7d58a8967d61{fill:url(#uuid-b181e6c5-b228-44f3-aeca-ec66ebf4fc66);}</style><linearGradient id="uuid-b181e6c5-b228-44f3-aeca-ec66ebf4fc66" x1="7.8465" y1="-1.8511" x2="34.4675" y2="40.7514" gradientUnits="userSpaceOnUse"><stop offset=".4049" stop-color="#ff9c0d"/><stop offset="1" stop-color="#f36e22"/></linearGradient><linearGradient id="uuid-9007cca7-d424-428e-97ba-0ce93c7b3bf5" x1="17.3896" y1="1.4617" x2="31.2285" y2="23.978" gradientUnits="userSpaceOnUse"><stop offset="0" stop-color="#64717c"/><stop offset="1" stop-color="#30363d"/></linearGradient><linearGradient id="uuid-f8b75a75-5cfd-484e-a8f0-8d42dd53f10a" x1="8.3426" y1="9.2937" x2="8.3426" y2="12.9297" xlink:href="#uuid-b181e6c5-b228-44f3-aeca-ec66ebf4fc66"/><linearGradient id="uuid-58c3f252-eedc-4d76-bc95-6c44b850372b" x1="18.3868" y1="9.2937" x2="18.3868" y2="12.9297" xlink:href="#uuid-b181e6c5-b228-44f3-aeca-ec66ebf4fc66"/><linearGradient id="uuid-2d40e8b3-8c5a-45e5-9a17-49ef6501854c" x1="13.3647" y1="9.2937" x2="13.3647" y2="12.9297" xlink:href="#uuid-b181e6c5-b228-44f3-aeca-ec66ebf4fc66"/><linearGradient id="uuid-884be751-1d61-432c-a686-75ebfc238c94" x1="29.729" y1="4.4852" x2="38.4922" y2="18.7431" gradientUnits="userSpaceOnUse"><stop offset="0" stop-color="#fff"/><stop offset=".242" stop-color="#f2f2f2"/><stop offset="1" stop-color="#ccc"/></linearGradient></defs><rect class="uuid-975c18a0-c9bd-4aeb-bd17-7d58a8967d61" x="4" y="8" width="40" height="32" rx="2" ry="2"/><path class="uuid-ce6f5304-da9e-4ac8-acd2-e74137587b69" d="M6,8h36c1.1038,0,2,.8962,2,2v5H4v-5c0-1.1038.8962-2,2-2Z"/><path class="uuid-c46c76fb-8d37-46c5-a036-1b28a061968a" d="M18.3866,8.8057c-1.1483,0-2.1238.7253-2.511,1.739-.3872-1.0137-1.3627-1.739-2.511-1.739s-2.1238.7253-2.511,1.739c-.3872-1.0137-1.3627-1.739-2.511-1.739-1.4858,0-2.6943,1.209-2.6943,2.6943s1.2085,2.6943,2.6943,2.6943c1.1483,0,2.1238-.7253,2.511-1.739.3872,1.0137,1.3627,1.739,2.511,1.739s2.1238-.7253,2.511-1.739c.3872,1.0137,1.3627,1.739,2.511,1.739,1.4858,0,2.6948-1.209,2.6948-2.6943s-1.209-2.6943-2.6948-2.6943Z"/><g class="uuid-8ecf881b-e9f2-4096-a630-ac8619629dd3"><circle class="uuid-ed5a0083-9fea-49a0-ad42-657b0d911d6b" cx="8.3426" cy="11.5" r="2.1943"/><path class="uuid-ed5a0083-9fea-49a0-ad42-657b0d911d6b" d="M18.3866,13.6943c-1.21,0-2.1943-.9844-2.1943-2.1943s.9844-2.1943,2.1943-2.1943,2.1948.9844,2.1948,2.1943-.9844,2.1943-2.1948,2.1943Z"/><circle class="uuid-ed5a0083-9fea-49a0-ad42-657b0d911d6b" cx="13.3646" cy="11.5" r="2.1943"/></g><circle class="uuid-b0e44e04-0fac-4765-9985-5d54b905310b" cx="8.3426" cy="11.5" r="1.6944"/><circle class="uuid-82dc8564-2375-4b93-91db-3f5575c4f750" cx="18.3868" cy="11.5" r="1.6944"/><circle class="uuid-c9d448b8-9740-4910-9515-3dd498083ae9" cx="13.3647" cy="11.5" r="1.6944"/><path class="uuid-c46c76fb-8d37-46c5-a036-1b28a061968a" d="M42,8h-7.6569l-13.7117,13.7129c-.3784.377-.5869.8799-.5869,1.416.0005.5342.209,1.0361.5864,1.4121l2.8286,2.8281c.3779.3779.8804.5859,1.4141.5859.5342,0,1.0366-.208,1.4136-.5859l17.3711-17.3701.3418.3418v-.3408c0-1.1046-.8954-2-2-2Z"/><path class="uuid-231e5219-918e-4e38-bf6b-1894bcf81116" d="M43.9576,9.5914c-.1887-.9086-.9932-1.5914-1.9576-1.5914h-6.95l-14.0656,14.0664c-.2837.2832-.4399.6602-.4399,1.0615.0005.4014.1567.7773.4399,1.0596l2.8281,2.8281c.2837.2832.6607.4395,1.061.4395s.7773-.1562,1.0601-.4395l17.7246-17.7236.2994.2994Z"/><path class="uuid-95dee147-94f9-4ad5-99ba-b374199e18b2" d="M36.452,1.379l2.963,2.963-18.077,18.078c-.391.391-.391,1.024,0,1.414l2.828,2.828c.391.391,1.024.391,1.414,0l18.078-18.077,2.963,2.963c.509.509,1.379.149,1.379-.571V1.616c0-.893-.723-1.616-1.616-1.616h-9.361c-.72,0-1.08.87-.571,1.379Z"/></svg>