<?xml version="1.0" encoding="UTF-8"?><svg id="uuid-cfde1080-1e22-4e7b-b428-25e5656f5b7f" xmlns="http://www.w3.org/2000/svg" width="48" height="48" xmlns:xlink="http://www.w3.org/1999/xlink" viewBox="0 0 48 48"><defs><style>.uuid-ac4b8e97-844c-4d23-9c20-41368d64d647{fill:url(#uuid-e9cbf54e-7c31-4358-bc01-219407d22d2f);}.uuid-ac4b8e97-844c-4d23-9c20-41368d64d647,.uuid-b7236c38-3017-4bde-aa20-4edfda0e9c9e,.uuid-7e628712-6e48-4241-8c93-c49acc754c9a,.uuid-b806a6bb-623b-4140-b678-7dd2ed1da120,.uuid-b9ae092c-5e42-4288-b795-655dcf08d6a0,.uuid-de44a426-5ad1-46d2-a7d6-dbc4655763cc,.uuid-dc72f90c-e900-4a48-addb-9596e6cf9eb0{stroke-width:0px;}.uuid-b7236c38-3017-4bde-aa20-4edfda0e9c9e{opacity:.05;}.uuid-b806a6bb-623b-4140-b678-7dd2ed1da120{fill:url(#uuid-16d0c95f-8031-4f1f-b85c-db022ebc28af);}.uuid-31f2b120-64e6-41e5-b1e6-8758ba2e08bc{opacity:.07;}.uuid-b9ae092c-5e42-4288-b795-655dcf08d6a0{fill:url(#uuid-7213abfb-16cc-4483-8871-282cc4683831);}.uuid-de44a426-5ad1-46d2-a7d6-dbc4655763cc{fill:url(#uuid-c3163277-3874-4aa4-8b0d-c43bb2ed937a);}.uuid-dc72f90c-e900-4a48-addb-9596e6cf9eb0{fill:url(#uuid-ecd4f3cb-eedc-4e37-88d5-83e499fe44b9);}</style><linearGradient id="uuid-e9cbf54e-7c31-4358-bc01-219407d22d2f" x1="7.8465" y1="-1.8511" x2="34.4675" y2="40.7514" gradientUnits="userSpaceOnUse"><stop offset=".4049" stop-color="#ff9c0d"/><stop offset="1" stop-color="#f36e22"/></linearGradient><linearGradient id="uuid-c3163277-3874-4aa4-8b0d-c43bb2ed937a" x1="17.3896" y1="1.4617" x2="31.2285" y2="23.978" gradientUnits="userSpaceOnUse"><stop offset="0" stop-color="#64717c"/><stop offset="1" stop-color="#30363d"/></linearGradient><linearGradient id="uuid-7213abfb-16cc-4483-8871-282cc4683831" x1="8.3426" y1="9.2937" x2="8.3426" y2="12.9297" xlink:href="#uuid-e9cbf54e-7c31-4358-bc01-219407d22d2f"/><linearGradient id="uuid-16d0c95f-8031-4f1f-b85c-db022ebc28af" x1="18.3868" y1="9.2937" x2="18.3868" y2="12.9297" xlink:href="#uuid-e9cbf54e-7c31-4358-bc01-219407d22d2f"/><linearGradient id="uuid-ecd4f3cb-eedc-4e37-88d5-83e499fe44b9" x1="13.3647" y1="9.2937" x2="13.3647" y2="12.9297" xlink:href="#uuid-e9cbf54e-7c31-4358-bc01-219407d22d2f"/></defs><rect class="uuid-ac4b8e97-844c-4d23-9c20-41368d64d647" x="4" y="8" width="40" height="32" rx="2" ry="2"/><path class="uuid-de44a426-5ad1-46d2-a7d6-dbc4655763cc" d="M6,8h36c1.1038,0,2,.8962,2,2v5H4v-5c0-1.1038.8962-2,2-2Z"/><path class="uuid-b7236c38-3017-4bde-aa20-4edfda0e9c9e" d="M18.3866,8.8057c-1.1483,0-2.1238.7253-2.511,1.739-.3872-1.0137-1.3627-1.739-2.511-1.739s-2.1238.7253-2.511,1.739c-.3872-1.0137-1.3627-1.739-2.511-1.739-1.4858,0-2.6943,1.209-2.6943,2.6943s1.2085,2.6943,2.6943,2.6943c1.1483,0,2.1238-.7253,2.511-1.739.3872,1.0137,1.3627,1.739,2.511,1.739s2.1238-.7253,2.511-1.739c.3872,1.0137,1.3627,1.739,2.511,1.739,1.4858,0,2.6948-1.209,2.6948-2.6943s-1.209-2.6943-2.6948-2.6943Z"/><g class="uuid-31f2b120-64e6-41e5-b1e6-8758ba2e08bc"><circle class="uuid-7e628712-6e48-4241-8c93-c49acc754c9a" cx="8.3426" cy="11.5" r="2.1943"/><path class="uuid-7e628712-6e48-4241-8c93-c49acc754c9a" d="M18.3866,13.6943c-1.21,0-2.1943-.9844-2.1943-2.1943s.9844-2.1943,2.1943-2.1943,2.1948.9844,2.1948,2.1943-.9844,2.1943-2.1948,2.1943Z"/><circle class="uuid-7e628712-6e48-4241-8c93-c49acc754c9a" cx="13.3646" cy="11.5" r="2.1943"/></g><circle class="uuid-b9ae092c-5e42-4288-b795-655dcf08d6a0" cx="8.3426" cy="11.5" r="1.6944"/><circle class="uuid-b806a6bb-623b-4140-b678-7dd2ed1da120" cx="18.3868" cy="11.5" r="1.6944"/><circle class="uuid-dc72f90c-e900-4a48-addb-9596e6cf9eb0" cx="13.3647" cy="11.5" r="1.6944"/></svg>