<?xml version="1.0" encoding="UTF-8"?>
<svg id="uuid-a0dfa50e-3de2-4db5-929f-42c040e37794" xmlns="http://www.w3.org/2000/svg" width="48"
    height="48" xmlns:xlink="http://www.w3.org/1999/xlink" viewBox="0 0 48 48">
    <defs>
        <linearGradient id="uuid-c5c5c146-6a15-46af-b87f-b3b6a3956dc8" x1="17.85" y1="3.3921"
            x2="29.8572" y2="43.6269" gradientUnits="userSpaceOnUse">
            <stop offset="0" stop-color="#4c4c4c" />
            <stop offset="1" stop-color="#343434" />
        </linearGradient>
        <linearGradient id="uuid-b947867a-3f68-420c-a5e5-b4a1bee4cf23" x1="12.103" y1="12.0985"
            x2="35.8772" y2="35.8727" gradientUnits="userSpaceOnUse">
            <stop offset="0" stop-color="#fafafb" />
            <stop offset=".293" stop-color="#f6f7f8" />
            <stop offset=".566" stop-color="#ebecee" />
            <stop offset=".832" stop-color="#d8dcdf" />
            <stop offset="1" stop-color="#c8cdd1" />
        </linearGradient>
    </defs>
    <rect x="2" y="2" width="44" height="44" rx="1.9084" ry="1.9084"
        style="fill:url(#uuid-c5c5c146-6a15-46af-b87f-b3b6a3956dc8); stroke-width:0px;" />
    <path
        d="M23.9858,30.299c-2.1389,0-4.1249-.1246-6.0719-.3791-.4652-.0623-.8155-.4625-.8155-.9305v-10.0182c0-.4863.3801-.8975.8655-.9351l1.1608-.0943c.8883-.076,1.7767-.1502,2.6669-.1896.7972-.0357,1.5954-.0559,2.393-.0559,1.4974,0,2.8688.0696,4.1922.2134,1.5427.1658,2.5918,1.306,2.6096,2.8372.0252,2.1888.0247,4.3886-.0014,6.539-.0192,1.5413-1.1072,2.6834-2.7072,2.8409-.218.022-.441.0394-.6837.0577l-.1259.0101c-1.2226.0696-2.3908.1044-3.4824.1044ZM21.5749,26.0111c.9025.076,1.7543.1136,2.578.1136.8009,0,1.5944-.0357,2.3619-.1072.0311-.5028.0421-1.0111.0412-1.6201-.0014-.805-.0078-1.6109-.0408-2.4141-.7789-.0723-1.5981-.1081-2.4407-.1081-.8087,0-1.6311.0321-2.502.0962.005,1.0211.0041,2.0166.0027,3.0323,0,.0092-.0005.5889-.0005,1.0074Z"
        style="fill:#231f20; opacity:.05; stroke-width:0px;" />
    <path
        d="M23.9858,29.8301c-2.1242,0-4.0905-.1236-6.011-.3755-.2331-.0311-.4075-.2299-.4075-.4652v-10.0182c0-.2454.1887-.4488.4332-.468l1.1622-.0943c.8838-.0751,1.7657-.1493,2.6495-.1877.7908-.0357,1.5816-.0559,2.3724-.0559,1.4781,0,2.8331.0687,4.1418.2106,1.2954.1392,2.176,1.0944,2.1911,2.3766.0252,2.1851.0247,4.3813-.0014,6.528-.016,1.2904-.9341,2.2465-2.2841,2.3793-.2161.022-.435.0394-.6736.0577l-.1273.0101c-1.1979.0678-2.3532.1026-3.4453.1026ZM21.4091,26.4672c.9905.0861,1.8898.1264,2.7438.1264h.0005c.8902,0,1.7671-.044,2.606-.1291.1319-.0137.1795-.0348.1909-.0403-.0023-.0037.0142-.0458.022-.1566.0375-.5422.054-1.1365.0527-1.871-.0014-.8829-.0092-1.7675-.0508-2.6486-.006-.1264-.027-.1667-.0293-.1703h-.0005c-.0027,0-.0531-.0302-.2294-.0467-.8448-.0833-1.7332-.1246-2.6403-.1246-.9492,0-1.9228.043-2.9737.1328.0082,1.1777.0069,2.3152.0055,3.4783,0,0-.0009,1.3627,0,1.4223.06.0055.2963.0266.3027.0275Z"
        style="fill:#231f20; opacity:.07; stroke-width:0px;" />
    <path
        d="M10.874,30.3036c-1.8458,0-3.6917-.1163-5.4858-.3443-.0728-.0082-.1557-.0247-.2514-.0458-.4268-.0925-.8655-.5055-.8242-1.012l.1809-2.2025c.0211-.2519.1447-.4872.3393-.6466.1667-.1383.3782-.2143.5957-.2143.0165,0,.0843.0037.1007.0055l.4382.0531c.2812.0357.5513.0714.8229.0843l.1108.0037c1.5409.0669,3.0772.1337,4.6148.1648l.152.0018c.3631,0,.7327-.0256,1.1022-.0504.0005,0,.3805-.0247.5069-.0321v-.0119c-.7469-.0357-1.4942-.0604-2.2406-.0696-.402-.0046-.8041-.0064-1.208-.0064l-1.8962.0037c-.5179,0-.9387-.4204-.9387-.9378v-2.0936c0-.5174.4208-.9378.9378-.9378l1.4772-.0037c.9305-.0027,1.8605-.0055,2.7905-.0201.326-.0037.6516-.0339.9753-.0678-.762-.0549-1.5624-.0833-2.3807-.0833-1.1755,0-2.4489.0568-3.8941.1731-.2908.0247-.582.0623-.8806.1007-.005,0-.5701.0659-.5902.0659-.2152,0-.4259-.0751-.5935-.2116-.1964-.1612-.3205-.3975-.3416-.6502l-.185-2.2859c-.0201-.2473.0609-.4964.2225-.685.1584-.1868.3929-.3068.6411-.3251l.9923-.0815c.7153-.0614,1.4214-.1209,2.1288-.1612.9465-.054,1.8669-.0815,2.736-.0815,1.4113,0,2.7813.0705,4.0722.2106,1.3527.1456,2.1732.8526,2.5071,2.1641.2422.9479.2349,1.915-.022,2.8757-.1067.4002-.2679.7491-.4813,1.0413.4002.5449.538,1.175.6163,1.7382.1232.8893.0618,1.6897-.1868,2.448-.3737,1.1347-1.1965,1.817-2.317,1.9223-1.4607.1365-2.9224.2051-4.3442.2051Z"
        style="fill:#231f20; opacity:.05; stroke-width:0px;" />
    <path
        d="M10.874,29.8347c-1.8248,0-3.6509-.1145-5.4267-.3407-.0632-.0073-.1305-.0211-.2083-.0385-.2299-.0495-.4781-.2812-.4588-.5156l.1809-2.2025c.0105-.1264.0714-.2427.1694-.3233.0843-.0696.19-.1072.2981-.1072.0169,0,.0343.0009.0517.0027l.4309.0522c.2903.0375.5738.0742.8581.087l.1131.0046c1.5413.0669,3.0822.1337,4.624.1648l.1561.0018c.392,0,.7849-.0275,1.1777-.054.2377-.0156.4753-.0321.713-.0421.1104-.0055.1278-.0147.1497-.1355.022-.1218.043-.2244.043-.3279-.0005-.4259-.0495-.4533-.4332-.4716-.7569-.0357-1.5143-.0614-2.2708-.0705-.4039-.0046-.8078-.0064-1.2135-.0064l-1.8971.0037c-.2592,0-.4689-.2097-.4689-.4689v-2.0936c0-.2592.2097-.4689.4689-.4689l1.4786-.0037c.9323-.0027,1.8646-.0055,2.7965-.0201.4304-.0055.8609-.0531,1.289-.0989.0375-.0055.0751-.0183.109-.033l.0137-.044c.06-.1868.1168-.3627.1168-.501.0005-.2427.0005-.2857-.3659-.315-.8178-.0641-1.6842-.0971-2.5753-.0971-1.1938,0-2.48.0577-3.9316.1749-.2995.0247-.5985.0632-.9048.1026,0,0-.5101.0623-.5284.0623-.1076,0-.2129-.0375-.2972-.1062-.0985-.0806-.1598-.1978-.1703-.3251l-.185-2.285c-.0101-.1236.0298-.2473.1108-.3416.0806-.0952.1955-.1539.3196-.163l.9964-.0824c.7121-.0604,1.414-.12,2.1174-.1603.9309-.0531,1.8422-.0806,2.709-.0806,1.3911,0,2.7443.0696,4.0218.2079,1.1512.1236,1.8193.6997,2.1032,1.8133.2221.8691.2152,1.7575-.0206,2.6394-.13.4872-.3443.8728-.6489,1.1631.5156.4955.6818,1.1503.7725,1.8023.1131.8169.0582,1.5477-.1681,2.2364-.316.9598-.9786,1.5139-1.9154,1.6018-1.4429.1346-2.8894.2033-4.3002.2033Z"
        style="fill:#231f20; opacity:.07; stroke-width:0px;" />
    <path
        d="M37.0303,30.299c-1.4598,0-2.8807-.0714-4.2233-.2125-1.1819-.1236-2.0217-.8435-2.3656-2.0267-.272-.9341-.2885-1.904-.049-2.883.0824-.3343.2212-.7867.5188-1.197-.7711-1.0459-.6914-2.2896-.637-3.1404.0275-.4213.1406-.8673.3462-1.3637.3663-.8865,1.1255-1.4552,2.0821-1.5606,1.3192-.1465,2.6792-.218,4.1569-.218.9053,0,1.8284.0266,2.8216.0806.6809.0357,1.3605.098,2.0409.1612l.7556.0678c.1163.0101.2322.0339.3572.0623l.1099.0247c.457.0916.7803.5193.7418.9937l-.1855,2.2428c-.0211.2509-.1442.4863-.3384.6466-.1676.1383-.3791.2143-.5967.2143-.0348,0-.043,0-1.7121-.1841-1.2922-.0998-2.4819-.1493-3.6221-.1493-.7418,0-1.4722.022-2.176.065.6237.0421,1.2876.0714,2.0134.0879.3311.0082.6612.011.9927.011l1.6082-.0064c.5188,0,.9396.4204.9396.9378v2.0936c0,.5174-.4208.9378-.9378.9378h-.3627l-4.0021.0632c1.0143.0128,2.029.0247,3.0428.0247.4858,0,.9708-.0027,1.4562-.0092.5678-.0082,1.1457-.0641,1.7575-.1236.3192-.0321.6196-.0614.9245-.0852h.0078c.5614,0,.9598.3672,1.0015.8535l.1928,2.2035c.044.5037-.3137.9488-.8146,1.0129l-.4584.0623c-.3622.0513-.7249.1026-1.0889.131-1.5294.1218-2.9352.1813-4.2979.1813Z"
        style="fill:#231f20; opacity:.05; stroke-width:0px;" />
    <path
        d="M37.0303,29.8301c-1.4433,0-2.8477-.0705-4.1743-.2097-.9937-.1044-1.6732-.6896-1.9644-1.6915-.2486-.8545-.2633-1.7428-.0435-2.6403.1053-.4286.2775-.9259.6805-1.3032-.925-.9561-.843-2.2309-.7862-3.1165.0238-.3672.1255-.7647.3114-1.2135.3036-.7345.9076-1.1869,1.7002-1.2739,1.3014-.1447,2.6444-.2152,4.1056-.2152.8893,0,1.8037.0256,2.796.0797.6763.0357,1.3508.098,2.0258.1603l.7542.0678c.0966.0082.1905.0284.2921.0522l.1154.0256c.2335.0467.3952.261.3759.4982l-.1855,2.2419c-.0105.1264-.0719.2427-.1694.3233-.0843.0696-.19.1072-.2981.1072-.0174,0-1.6608-.1813-1.6608-.1813-1.311-.1017-2.5171-.152-3.6734-.152-.8357,0-1.6576.0275-2.4425.0815-.2583.0174-.451.1053-.5293.2418-.0737.1282-.0549.3178.0527.5348.0188.0311.092.0888.1296.0998.7762.065,1.6375.1099,2.616.1328.3343.0082.6685.011,1.0037.011l1.61-.0064c.2592,0,.4689.2097.4689.4689v2.0936c0,.2592-.2097.4689-.4689.4689h-.3627l-4.335.0687-.1905.0073c-.3842.0156-.4643.0962-.4726.1053-.0769.0879-.0366.5119-.0238.6521.0101.1035.0151.1548.2019.1575l.5733.0073c1.0958.0137,2.192.0275,3.2873.0275.4877,0,.9749-.0027,1.4621-.0092.5953-.0082,1.1906-.0669,1.8207-.1282.2935-.0293.5907-.0586.8925-.0824.0128-.0009.0256-.0018.0385-.0018.2409,0,.4455.1841.4666.4286l.1928,2.2044c.022.2509-.1575.4744-.4071.5064l-.4625.0632c-.3549.0504-.7079.0998-1.0628.1282-1.518.1209-2.9114.1795-4.2604.1795Z"
        style="fill:#231f20; opacity:.07; stroke-width:0px;" />
    <path
        d="M27.3937,29.26c-3.1426.1779-6.2461.1389-9.3577-.2703v-10.0187c1.2685-.0968,2.5309-.2262,3.7966-.2822,2.1498-.0951,4.2999-.0788,6.4435.153,1.0312.1115,1.76.8537,1.7723,1.9159.0252,2.1721.0254,4.345-.0014,6.5171-.0132,1.0654-.7776,1.8116-1.8607,1.9181-.2531.0249-.5068.0442-.7927.067M20.6365,26.2461q0,.6288.6306.6776c.0577.0045.115.013.1726.0179,1.7894.1537,3.5788.1723,5.3672-.0113.4327-.0444.6024-.1914.6328-.6294.044-.6335.0556-1.2702.0543-1.9055-.0017-.8899-.0092-1.7806-.0515-2.6692-.022-.4631-.2152-.6164-.682-.6622-1.928-.189-3.8554-.1533-5.7829.0155-.2468.0216-.3516.0968-.3488.377.0157,1.5738.0076,3.1479.0076,4.7896ZM13.5929,22.8223c-.4584.0493-.9189.1005-1.3792.1073-1.3078.0195-2.6159.0175-3.9239.0238-.1217.0006-.2435,0-.3582,0v2.0931c1.0561,0,2.0861-.0089,3.1159.0029.7626.0088,1.5252.0351,2.2871.071.6542.0308.8798.28.8803.9404,0,.137-.026.275-.0503.4108-.0588.3271-.2503.5044-.5902.52-.6927.0317-1.386.1097-2.0775.0957-1.5832-.0322-3.1657-.1016-4.7478-.1707-.4338-.019-.8652-.0906-1.3205-.1406-.0614.7486-.1207,1.4707-.1808,2.2025.1046.0208.181.0408.2586.0507,3.203.4075,6.4113.4355,9.6243.1348.8027-.0751,1.2737-.5517,1.5134-1.2809.2166-.6592.2443-1.3396.1493-2.0249-.1059-.7638-.3087-1.4734-1.1416-1.8747.602-.2599.8816-.7233,1.0297-1.2771.2134-.798.223-1.6038.0191-2.4031-.2364-.9267-.7518-1.3603-1.6991-1.4625-2.2142-.239-4.4337-.2526-6.6542-.1253-1.0248.0588-2.0472.1583-3.1032.242.0637.7876.1231,1.521.1849,2.285.4826-.0571.9377-.1255,1.3954-.1627,2.1917-.1784,4.3849-.2516,6.5815-.0785.5502.0433.7988.237.7983.7828-.0003.2858-.1245.5715-.2116.8768-.1456.0687-.2691.1474-.3996.1615ZM42.5662,21.2537c.0618-.7473.123-1.4879.1853-2.2422-.1335-.0269-.2439-.0603-.3564-.0701-.9213-.0798-1.8417-.1778-2.7647-.2275-2.2776-.1226-4.5544-.1187-6.8254.1334-.6321.0702-1.0804.4121-1.3182.9869-.1393.3366-.2531.7043-.2763,1.0645-.0756,1.1771-.0884,2.3517,1.1104,3.1325-.6308.2553-.8728.7805-1.017,1.3688-.1965.8015-.1924,1.6069.0378,2.3982.2261.7772.7107,1.2663,1.5634,1.3556,2.7824.2913,5.565.2499,8.348.0295.5015-.0397.9994-.1249,1.5029-.1896-.0681-.7783-.1317-1.5057-.1928-2.2054-.9482.0771-1.8458.1998-2.7449.2125-1.7781.0253-3.5571-.0034-5.3355-.0259-.3958-.005-.6269-.2111-.662-.5822-.0759-.8028-.0302-1.2299.938-1.2696.0694-.0028.1387-.0064.2081-.0075,1.4451-.0232,2.8902-.0463,4.3353-.0689.1224-.0019.2449-.0003.3695-.0003v-2.0932c-.8909,0-1.7581.0164-2.6245-.0046-.8886-.0215-1.7778-.0614-2.663-.1372-.1769-.0152-.4105-.1922-.4921-.357-.3822-.772.0183-1.3944.8649-1.4523,2.0583-.1407,4.1128-.0895,6.1988.0724.5456.0596,1.0592.1172,1.6102.1789Z"
        style="fill:url(#uuid-b947867a-3f68-420c-a5e5-b4a1bee4cf23); stroke-width:0px;" />
</svg>