<?xml version="1.0" encoding="UTF-8"?>
<svg id="uuid-82853bd5-d6cd-426c-a8b1-11709f4ef197" xmlns="http://www.w3.org/2000/svg" width="48"
    height="48" viewBox="0 0 48 48">
    <g id="uuid-2451400f-adbc-4f13-8c34-14f016144af4">
        <g id="uuid-8ab4dfb9-55b8-4577-bbb9-8721e1a2fb79">
            <g id="uuid-bc61e2c5-f306-4987-8b2e-09573307c625">
                <g id="uuid-af5bd14d-af4b-4f1c-9428-284e16249804">
                    <path
                        d="M9.7917,2.55h28.4167c4.3083,0,7.7917,3.4833,7.7917,7.7917v27.3167c0,4.3083-3.4833,7.7917-7.7917,7.7917H9.7917c-4.3083,0-7.7917-3.4833-7.7917-7.7917V10.3417c0-4.3083,3.4833-7.7917,7.7917-7.7917Z"
                        style="fill:#001e36; stroke-width:0px;" />
                </g>
            </g>
        </g>
        <g id="uuid-f97d697b-e252-4829-ac49-d90232492f0c">
            <g id="uuid-00d47a23-8de1-41c9-a051-05afb3eb41b2">
                <path
                    d="M11.9,32.635V13.77c0-.1283.055-.2017.1833-.2017.3117,0,.605,0,1.0267-.0183.44-.0183.8983-.0183,1.3933-.0367.495-.0183,1.0267-.0183,1.595-.0367.5683-.0183,1.1183-.0183,1.6683-.0183,1.5033,0,2.75.1833,3.7767.5683.9167.3117,1.76.825,2.4567,1.5033.5867.5867,1.045,1.3017,1.3383,2.09.275.77.4217,1.5583.4217,2.3833,0,1.5767-.3667,2.8783-1.1,3.905s-1.76,1.7967-2.9517,2.2367c-1.2467.4583-2.6217.6233-4.125.6233-.44,0-.7333,0-.9167-.0183s-.44-.0183-.7883-.0183v5.885c.0183.1283-.0733.2383-.2017.2567h-3.5567c-.1467,0-.22-.0733-.22-.2383ZM15.8967,17.1067v6.16c.2567.0183.495.0367.715.0367h.9717c.715,0,1.43-.11,2.1083-.33.5867-.165,1.1-.5133,1.5033-.9717.385-.4583.5683-1.0817.5683-1.8883.0183-.5683-.1283-1.1367-.4217-1.6317-.3117-.4767-.7517-.8433-1.2833-1.045-.6783-.275-1.4117-.385-2.1633-.3667-.4767,0-.8983,0-1.2467.0183-.3667-.0183-.6233,0-.7517.0183h0Z"
                    style="fill:#31a8ff; stroke-width:0px;" />
                <path
                    d="M37.2,22.1483c-.55-.2933-1.1367-.495-1.76-.6233-.6783-.1467-1.3567-.2383-2.0533-.2383-.3667-.0183-.7517.0367-1.1.1283-.2383.055-.44.1833-.5683.3667-.0917.1467-.1467.33-.1467.495s.0733.33.1833.4767c.165.2017.385.3667.6233.495.4217.22.8617.4217,1.3017.605.99.33,1.9433.7883,2.8233,1.3383.605.385,1.1.8983,1.4483,1.5217.2933.5867.44,1.2283.4217,1.8883.0183.8617-.2383,1.7233-.715,2.4383-.5133.7333-1.2283,1.3017-2.0533,1.6317-.8983.385-1.9983.5867-3.3183.5867-.8433,0-1.6683-.0733-2.4933-.2383-.6417-.11-1.2833-.3117-1.87-.5867-.1283-.0733-.22-.2017-.2017-.3483v-3.19c0-.055.0183-.1283.0733-.165.055-.0367.11-.0183.165.0183.715.4217,1.4667.715,2.2733.8983.6967.1833,1.43.275,2.1633.275.6967,0,1.1917-.0917,1.5217-.2567.2933-.1283.495-.44.495-.77,0-.2567-.1467-.495-.44-.7333-.2933-.2383-.8983-.5133-1.7967-.8617-.935-.33-1.7967-.77-2.6033-1.32-.5683-.4033-1.045-.935-1.3933-1.5583-.2933-.5867-.44-1.2283-.4217-1.87,0-.7883.22-1.54.6233-2.2183.4583-.7333,1.1367-1.32,1.925-1.6867.8617-.44,1.9433-.6417,3.245-.6417.7517,0,1.5217.055,2.2733.165.55.0733,1.0817.22,1.5767.4217.0733.0183.1467.0917.1833.165.0183.0733.0367.1467.0367.22v2.9883c0,.0733-.0367.1467-.0917.1833-.165.0367-.2567.0367-.33,0Z"
                    style="fill:#31a8ff; stroke-width:0px;" />
            </g>
        </g>
    </g>
</svg>