<?xml version="1.0" encoding="UTF-8"?>
<svg id="uuid-fa3b3051-0624-499f-a6d3-47a99e5a05d5" xmlns="http://www.w3.org/2000/svg" width="48"
    height="48" viewBox="0 0 48 48">
    <path
        d="M9.7912,2.55h28.4176c4.303,0,7.7912,3.4884,7.7912,7.7916v27.3167c0,4.3032-3.4882,7.7916-7.7912,7.7916H9.7912c-4.303,0-7.7912-3.4884-7.7912-7.7916V10.3416c0-4.3032,3.4882-7.7916,7.7912-7.7916Z"
        style="fill:#1e3101; stroke-width:0px;" />
    <path
        d="M11.5169,32.6339V13.7725c0-.1374.0584-.2061.1769-.2061.3142,0,.688-.0049,1.1212-.0146.4333-.0097.9006-.0197,1.402-.0301l1.5943-.0292c.5609-.0103,1.1167-.0155,1.6673-.0155,1.4956,0,2.7548.1872,3.7776.5615.9235.3118,1.7656.826,2.4649,1.5051.5928.5885,1.0509,1.2985,1.3428,2.0812.2763.7615.4164,1.5656.4138,2.3757,0,1.5746-.364,2.8734-1.0921,3.8963-.7328,1.0281-1.7629,1.8071-2.9516,2.2323-1.3248.4766-2.7243.7116-4.1321.6937-.4333,0-.7383-.0052-.9152-.0155-.1769-.0094-.443-.0146-.7967-.0146v5.8152c.0179.1282-.0711.2467-.1992.2653-.0219.0034-.0442.0034-.0661,0h-3.6016c-.1374-.0034-.206-.0816-.206-.2395ZM15.5898,17.1081v6.1105c.2553.02.4914.0298.7083.0292h.9736c.7144.0103,1.4261-.0893,2.1103-.2954.5848-.1737,1.1075-.5116,1.5059-.9736.3835-.4522.5752-1.0818.5752-1.8889.0149-.5708-.1341-1.1339-.4293-1.6227-.3115-.4734-.7611-.8394-1.2878-1.0483-.686-.2662-1.4186-.3915-2.1541-.3683-.4722,0-.8903.0049-1.2543.0146-.364.0097-.615.0243-.7529.0438l.0052-.0009Z"
        style="fill:#99e83f; stroke-width:0px;" />
    <path
        d="M36.4273,29.9483v2.4203c0,.2164-.0787.3443-.2361.3838-.3875.1211-.7816.2197-1.1805.2954-.4675.0833-.9418.1226-1.4166.1176-1.2792,0-2.2826-.3346-3.01-1.0037s-1.0915-1.7415-1.0921-3.2171v-7.3203h-1.7428c-.1571,0-.2361-.0859-.2361-.2653v-2.9252c0-.1571.0859-.2361.2661-.2361h1.7411c.0195-.3343.0441-.7229.0738-1.166.03-.4422.0687-.8852.1185-1.3282s.0927-.8019.1322-1.0767c.0188-.0587.0479-.1137.0859-.1623.0383-.048.0895-.0841.1477-.1039l3.5157-.4396c.0534-.0158.1106-.0131.1623.0077.0395.0197.0446.0713.0446.1717-.0395.4528-.0681,1.0678-.0859,1.8451-.0177.7773-.0375,1.5297-.0592,2.2572h2.7473c.1185,0,.1777.079.1777.2361v2.9819c.0146.0973-.0508.1886-.1477.2061h-2.81v6.3166c0,.6697.1145,1.1471.3434,1.4321.2289.2851.6471.4281,1.2543.4293.1769,0,.3434-.0043.5022-.0146s.3142-.0249.4722-.0446c.0535-.0198.1131-.0144.1623.0146.0536.0468.0798.1176.0695.188Z"
        style="fill:#99e83f; stroke-width:0px;" />
</svg>