<?xml version="1.0" encoding="UTF-8"?>
<svg id="uuid-e128a0ed-7c67-42ac-a2fc-856c689436fd" xmlns="http://www.w3.org/2000/svg" width="48"
    height="48" viewBox="0 0 48 48">
    <path
        d="M18.4754,26.4354c.1601-2.8538,1.5552-5.3754,3.6692-7.1572,2.0686-1.7515,4.847-2.8236,7.897-2.8236,3.035,0,5.8133,1.0706,7.882,2.8236,2.1139,1.7817,3.5031,4.3034,3.6692,7.1572.16,2.9293-1.0192,5.6623-3.0803,7.6857-2.1139,2.0535-5.1036,3.3521-8.4708,3.3521s-6.372-1.2895-8.4708-3.3521c-2.0686-2.0233-3.2464-4.7413-3.0803-7.6705l-.0151-.0151Z"
        style="fill:#fff; stroke-width:0px;" />
    <path
        d="M24.8018,26.0859c.0823-1.4666.7992-2.7624,1.8855-3.678,1.063-.9001,2.4908-1.451,4.0582-1.451,1.5597,0,2.9874.5502,4.0504,1.451,1.0863.9156,1.8002,2.2115,1.8856,3.678.0822,1.5053-.5238,2.9098-1.5829,3.9496-1.0863,1.0553-2.6227,1.7226-4.3531,1.7226s-3.2745-.6627-4.3531-1.7226c-1.063-1.0398-1.6683-2.4365-1.5829-3.9418l-.0078-.0078Z"
        style="fill:#265787; stroke-width:0px;" />
    <path
        d="M15.4904,29.1896c.0101.5742.1932,1.6916.4679,2.5606.5773,1.8468,1.5597,3.5538,2.9176,5.0514,1.3967,1.5441,3.1193,2.7856,5.1057,3.6702,2.0873.9234,4.3531,1.3967,6.7042,1.3967,2.3511-.0031,4.6169-.4842,6.7042-1.42,1.9864-.8923,3.709-2.1339,5.1057-3.6858,1.3657-1.5131,2.3434-3.2202,2.9176-5.0669.291-.9311.4749-1.8778.5486-2.8245.0722-.9311.0419-1.87-.0908-2.8089-.2592-1.8235-.8923-3.5383-1.8623-5.0902-.8846-1.4355-2.033-2.6848-3.3987-3.7401l.0031-.0023-13.7343-10.5529c-.0124-.0093-.0225-.0194-.0357-.0279-.9001-.6921-2.421-.6898-3.4064.0039-1.001.7015-1.1174,1.8623-.225,2.5917l-.0039.0039,5.7343,4.6635-17.4588.0186h-.0233c-1.4433.0016-2.8322.9467-3.1038,2.1494-.2824,1.2182.6983,2.2347,2.2037,2.2347l-.0023.0054,8.8458-.0171L3.5742,30.4079c-.0202.0148-.0419.0303-.0605.045-1.4898,1.1406-1.9709,3.0417-1.032,4.2367.9544,1.2182,2.9796,1.226,4.485.007l8.613-7.0611s-.1257.9544-.1156,1.5209l.0264.0334ZM37.6825,32.3788c-1.7769,1.8079-4.2677,2.84-6.9525,2.84-2.6925.0047-5.1833-1.0087-6.9603-2.8167-.8691-.8846-1.5053-1.8933-1.9011-2.9719-.3856-1.063-.5354-2.1882-.4361-3.3211.0939-1.1096.4244-2.1726.9544-3.1271.5183-.9389,1.2338-1.7924,2.1106-2.5141,1.7304-1.4045,3.9263-2.1726,6.2231-2.1726,2.3046-.0031,4.5005.7519,6.2309,2.1571.8768.717,1.5907,1.5674,2.1106,2.5063.53.9544.8613,2.0097.9544,3.1271.0978,1.1329-.052,2.258-.4376,3.3211-.3942,1.0863-1.032,2.0951-1.9011,2.9796l.0046-.0078Z"
        style="fill:#ea7600; stroke-width:0px;" />
</svg>