<?xml version="1.0" encoding="UTF-8"?>
<svg id="uuid-7245dcc1-052b-46f5-a4a8-a70b38fcb7e5" xmlns="http://www.w3.org/2000/svg" width="48"
    height="48" viewBox="0 0 48 48">
    <path d="M2,37.9942v8.0058h7.008c-3.4048-1.9381-5.8103-4.884-7.008-8.0058Z"
        style="fill:#f47835; stroke-width:0px;" />
    <path
        d="M31.4102,29.6453c-.0096-7.3974-5.9467-14.5196-14.87-14.8282-6.3223-.2186-11.2411,2.1006-14.5403,5.5261v7.7231c2.2431-6.4798,8.4246-9.4517,13.6029-9.3999,6.4697.0649,11.4604,4.9447,11.4894,10.4603.0278,5.2719-2.181,9.1529-8.1414,10.1096-3.2502.5218-8.3361-1.3845-8.1098-6.2945.1168-2.532,2.0885-3.9614,4.3478-3.8583-2.2102,2.9625.7163,5.1336,2.7858,4.6915,2.5619-.5474,3.6056-2.8226,3.6056-4.5872,0-1.8613-1.754-4.8685-6.1076-4.7652-5.387.1278-8.7769,4.0031-8.8912,8.7939-.1438,6.0333,5.4994,9.9983,11.2914,10.0705,8.5038.106,13.548-5.4724,13.5373-13.6418Z"
        style="fill:#f47835; stroke-width:0px;" />
    <path
        d="M2,2v12.6588c3.7838-2.9044,8.7088-4.7829,14.5403-4.7794,12.4848.0074,20.4105,8.7304,20.4074,19.7354-.0022,7.6451-3.5704,13.3946-9.1566,16.3852h18.2089V2H2Z"
        style="fill:#f47835; stroke-width:0px;" />
</svg>