<?xml version="1.0" encoding="UTF-8"?>
<svg id="uuid-2cf61fe6-ba29-4d91-bcc2-0d0b2717a1a7" xmlns="http://www.w3.org/2000/svg" width="48"
    height="48" viewBox="0 0 48 48">
    <defs>
        <style>
            .uuid-0d858188-cebe-4f51-b897-8e84585b04c0{fill:#f9b437;}.uuid-0d858188-cebe-4f51-b897-8e84585b04c0,.uuid-0cec04dc-9fe1-4d36-9bcc-ef6042ea41ef{stroke-width:0px;}.uuid-0cec04dc-9fe1-4d36-9bcc-ef6042ea41ef{fill:#181a1b;}</style>
    </defs>
    <circle class="uuid-0cec04dc-9fe1-4d36-9bcc-ef6042ea41ef" cx="24" cy="24" r="21.5" />
    <path class="uuid-0d858188-cebe-4f51-b897-8e84585b04c0"
        d="M24,2C11.8353,2,2,11.8353,2,24s9.8353,22,22,22,22-9.8353,22-22S36.1647,2,24,2ZM24,43.6706c-10.8706,0-19.8-8.9294-19.6706-19.8.1294-10.8706,8.8-19.6706,19.6706-19.6706s19.6706,8.8,19.6706,19.8c0,10.8706-8.8,19.6706-19.6706,19.6706h0Z" />
    <path class="uuid-0d858188-cebe-4f51-b897-8e84585b04c0"
        d="M41.3412,23.6118c-.9059,5.5647-6.2118,9.3176-11.7765,8.4118-1.1647-.2588-2.3294-.6471-3.4941-1.2941-.5176-.3882-1.1647-.7765-1.6824-1.1647,2.3294-.6471,4.4-1.9412,5.9529-3.8824l.1294.2588c.6471,1.0353,1.0353,2.2,1.2941,3.4941.1294-1.6824-.1294-3.3647-.6471-4.9176,3.6235-5.0471,2.0706-12.2941-3.3647-15.7882-3.8824-2.5882-9.0588-2.4588-12.8118.2588,5.3059-1.9412,11.1294.6471,13.2,5.8235.3882,1.1647.6471,2.4588.6471,3.6235,0,.6471,0,1.2941-.1294,2.0706-1.6824-1.6824-3.8824-2.8471-6.2118-3.2353l.1294-.2588c.6471-1.0353,1.4235-2.0706,2.3294-2.8471-1.5529.6471-2.8471,1.6824-3.8824,2.9765-6.3412-.2588-11.9059,4.6588-12.1647,11-.2588,4.6588,2.3294,9.0588,6.6,11.1294-4.4-3.4941-5.0471-9.9647-1.5529-14.3647.7765-1.0353,1.8118-1.8118,2.8471-2.4588.5176-.3882,1.1647-.6471,1.8118-.7765-.6471,2.3294-.5176,4.7882.3882,7.1176h-.3882c-1.2941,0-2.4588-.2588-3.6235-.6471,1.4235.9059,2.8471,1.5529,4.5294,1.9412,2.8471,5.6941,9.8353,8.0235,15.5294,5.1765,4.2706-2.3294,6.8588-6.8588,6.3412-11.6471ZM22.8353,27.7529c-1.2941-1.9412-1.9412-4.2706-1.6824-6.6,2.3294-.1294,4.6588.5176,6.6,1.8118-1.0353,2.0706-2.7177,3.7529-4.9176,4.7882h0Z" />
</svg>