<?xml version="1.0" encoding="UTF-8"?>
<svg id="uuid-3b29412d-c21e-4097-b39b-82d4a03f1c69" xmlns="http://www.w3.org/2000/svg" width="48"
    height="48" viewBox="0 0 48 48">
    <circle cx="24" cy="24" r="21.5" style="fill:#181a1b; stroke-width:0px;" />
    <path
        d="M18.5,11.88c.71.1,1.1-1.07.44-1.61s-1.69,1.37-.44,1.61ZM20.77,10.38c.9.11,1.06-1.17.34-1.54-.93-.47-1.4,1.3-.34,1.54ZM10.36,20.36c.41-.16.66-.5.26-.93s-.49-.37-.88-.28c-1.58.45-.2,1.44.62,1.21ZM32,14.27c.4169.1009.8561.0513,1.24-.14.36-.25.13-.72.38-.89.3863-.203.5684-.6561.43-1.07-.2133-.3894-.5277-.7142-.91-.94-.343-.3417-.8739-.4075-1.29-.16-.6405.4514-.973,1.2246-.86,2,.1117.5491.4853,1.0086,1,1.23l.01-.03ZM35.57,18.43c1.3,0,1.14-2.45-.11-1.67-.77.48-1.16,1.67.11,1.67ZM9.6,23.88c.3236.1546.7051.124,1-.08.58-.48-.09-.88-.33-1s-1.05,0-1.18.38.3.57.54.67l-.03.03ZM13.59,35.56c.1022.9557.9089,1.6803,1.87,1.68,1-.14,1.52-.67,1.62-1.14.0679-.2949.0849-.5993.05-.9-.0688-.9807-.9196-1.7198-1.9002-1.651-.9807.0688-1.7198.9196-1.651,1.9002.0026.037.0064.074.0113.1108ZM39.83,23.8s.2-.94-.63-1.18c-.54-.15-1.39.17-1.39.81s1.82,1.25,2,.37h.02ZM40.49,27.59c-.2602-.2657-.6549-.3486-1-.21-.3704.079-.6797.3324-.83.68-.1.26,0,1,1.63.56.49-.12.49-.69.16-1l.04-.03ZM37.1,25.88c-.24,0-.32,0-.47.19-.1333.1852-.1938.413-.17.64.0099.4079.3325.7392.74.76.89,0,.93-1.59-.09-1.59h-.01ZM31.61,18.38c-.56.18.25,1,.63.79.74-.46,0-1-.63-.79ZM32.4,32.94c-.26,0-.4,0-.62.21-.1331.1392-.202.3277-.19.52.0567.478.4688.8337.95.82.495-.0386.8867-.4346.92-.93,0-.5-.5-.62-1-.62h-.06ZM35.41,29.72h0c-.41.19-.41-.22-.41-.33h0c-.06-.25-.61-.44-.79-.45-.522-.0592-.9998-.3214-1.33-.73-.41-.53-.17-.88.22-1.16s.21-.3.71-.49c.2661-.0736.4968-.2404.65-.47.2469-.2716.5717-.4602.93-.54.2654-.0397.5127-.1581.71-.34.13-.1.3-.42-.27-.49-.4066-.0316-.7757-.2494-1-.59-.07-.19-.15-.79-.89-.47-1,.34-1.58.19-1.86-.11-.417-.6051-.7156-1.2838-.88-2-.06-.5-.09-.54-.67-1.53s.13-1.77.54-2.3c.5093-.4927,1.1108-.88,1.77-1.14.54-.36.36-1.14-.42-1.44-1.4-.63-1.46.58-1.56,1.19s-.65.64-.85.58-.47-.08-.8.41c-.47.67-2-.54-2.27-.77s-.69-.63-.62-1.14.06-.49,0-.78c-.0605-.1629-.0877-.3364-.08-.51.19-1,1.12-.24,1.32-1.69-.19-1.65-1.49-1.17-1.94-.77s-.47.76,0,1.34.49.71.33,1-.18.14-.19.59c-.18,1.11-.88,1.29-.88,1.29-.6311.0833-1.2731.0112-1.87-.21-.5265-.2481-.8995-.7367-1-1.31-.17-.6,0-.83-.8-1.18s-1.11.36-.74.67.56.08.61.7.1.52.36.95-.41.56-1,.67c-.4952.1524-.936.444-1.27.84-.2814.2511-.6281.4175-1,.48-.3206.037-.6303.1391-.91.3-.31.18-1-.13-1.28-.57-.3144-.3688-.6663-.7039-1.05-1-.66-.68,0-.95-.47-1.44-.81-.55-1.34.43-1.24.88s.55.39.64.71-.26.41,0,.78.36.34,1.58.86c1.22.52.57,1.58.35,2.08s-.22.63-.82.66c-.563.0121-1.1168-.1446-1.59-.45-.38-.24-1-.18-.87.28s.7.41,1.15.44c.489.0599.9651.1984,1.41.41.53.21.12,1,.05,1.45s-1,.65-2.07.45-1.33.06-1.35.36.13.39,2,.12,1.63,1.25,1.81,2.11c.0698.3289.1066.6638.11,1-.0352.3611-.2493.6804-.57.85-.15.05-.82-.18-1.11-.13-.2084.0362-.4216.0362-.63,0-.46,0-.5,0-.82.13-.1531.1074-.3332.1698-.52.18-.4045-.0099-.8045.0867-1.16.28-.2416.1752-.5684.1752-.81,0-.68-.22-1,.28-.57.85.24.2.37.48.85.29.4506-.1782.8693-.428,1.24-.74.61-.45.9-.34,1.66-.31.5656-.0642,1.135.0817,1.6.41.89.49.39.5.19.64s-.32.34-.21.91.75.59,1.41.22.85.57.89.91c.0227.6082.3546,1.1627.88,1.47.76.44,2.21-.24,3.05-.43.6449-.221,1.3566.0371,1.71.62.32.53-.18.9,0,1.75s0,1.23.37,2.15,1.12.35,1.41-.08c.227-.4602.227-.9998,0-1.46-.16-.3-.21-.25-.27-1.2.11-.74-.22-.85-.22-1.11s.1-.41.49-.69c.4341-.3519.9715-.5521,1.53-.57,1.08-.19,1.6.31,2.25,1.06s1.92.29,1.92.29c1-.33.19-1.05-.07-1.51s.14-.65.95-.79,1-.57.88-1.15,0-.49.18-.79.18-.27.53-.25c.503.1207.9695.3608,1.36.7.1252.1581.2735.2963.44.41.0491.0132.1009.0132.15,0,.87,0,.47.31.67.59.0796.1258.1995.2209.34.27.61.26,1.55.27,1-.64-.1871-.3819-.6484-.5397-1.0303-.3526-.0204.01-.0403.0209-.0597.0326l-.11-.01ZM24.68,38.08c-.19-.15-.26-.27-.57-.24-.1906.0209-.3659.1139-.49.26-.296.3652-.2612.8966.08,1.22.4009.29.9535.2432,1.3-.11.33-.39.09-.78-.29-1.13h-.03ZM24,2C11.8497,2,2,11.8497,2,24s9.8497,22,22,22,22-9.8497,22-22S36.1503,2,24,2ZM24,43.73c-10.9076-.0166-19.7365-8.8724-19.72-19.78.0166-10.9076,8.8724-19.7365,19.78-19.72,10.8959.0166,19.72,8.8541,19.72,19.75,0,10.9076-8.8424,19.75-19.75,19.75-.01,0-.02,0-.03,0Z"
        style="fill:#f9b437; fill-rule:evenodd; stroke-width:0px;" />
</svg>