<?xml version="1.0" encoding="UTF-8"?>
<svg id="uuid-49ed712c-d2b7-4ef5-bf1e-04135a87ec5a" xmlns="http://www.w3.org/2000/svg" width="48"
    height="48" viewBox="0 0 48 48">
    <g id="uuid-835b0c6d-5560-47b8-908c-9c8f249532f8">
        <path id="uuid-164294d2-47ac-4f76-90d2-4790d964adeb"
            d="M9.9707,2.0064l31.3672,6.8686h3.3945v37.125H9.1543c-1.234,0-2.2344-1.0004-2.2344-2.2344h0v-9.3546L9.9048,2.1036l.0659-.0971Z"
            style="fill:#36697f; stroke-width:0px;" />
        <path id="uuid-3bcaa677-8476-4257-b9db-fbf05a9a07e4"
            d="M9.9707,2h29.4766c1.234,0,2.2344,1.0004,2.2344,2.2344v28.7031H9.9707V2h0Z"
            style="fill:#37a5cc; stroke-width:0px;" />
        <polygon id="uuid-b0d72f0b-ac18-410d-8081-5ac31aeef70f"
            points="3.2676 36.9766 9.9707 32.9375 9.9707 2 3.2676 6.0391 3.2676 36.9766"
            style="fill:#7dc6dd; stroke-width:0px;" />
    </g>
    <g id="uuid-086e06e8-31c1-44dd-9e18-decd69d90a07">
        <path
            d="M21.4925,41.062h-1.9491l-.362,1.4201h-1.6149l1.8563-6.497h2.1626l1.9583,6.497h-1.6521l-.3991-1.4201ZM20.4994,37.0524l-.659,2.803h1.3365l-.6775-2.803Z"
            style="fill:#fff; stroke-width:0px;" />
        <path
            d="M26.6147,39.8925v2.5895h-1.6242v-2.5802l-2.0512-3.9167h1.7078l1.188,2.738,1.1787-2.738h1.6428l-2.0419,3.9074Z"
            style="fill:#fff; stroke-width:0px;" />
        <path
            d="M32.0256,41.062h-1.9491l-.362,1.4201h-1.6149l1.8563-6.497h2.1626l1.9583,6.497h-1.6521l-.3991-1.4201ZM31.0325,37.0524l-.659,2.803h1.3365l-.6775-2.803Z"
            style="fill:#fff; stroke-width:0px;" />
    </g>
    <g id="uuid-4f76a73e-fb09-4735-bce4-e1a6db19abb7">
        <path
            d="M34.6681,8.9232v17.1447h-4.0658v-11.0706l-2.8656,11.0461v.0245h-4.0413l-3.0371-11.5115v11.5115h-3.6739V8.9232h5.3883l3.4534,13.7648,3.6249-13.7158-.0245-.049h5.2414Z"
            style="fill:#fff; stroke-width:0px;" />
    </g>
</svg>