<?xml version="1.0" encoding="UTF-8"?>
<svg id="uuid-83414d74-3f1b-4ef5-a65c-adf25276fb31" xmlns="http://www.w3.org/2000/svg" width="48"
    height="48" viewBox="0 0 48 48">
    <circle cx="24" cy="24" r="21.5" style="fill:#181a1b; stroke-width:0px;" />
    <path
        d="M24,46c-12.1284,0-22-9.8716-22-22S11.8716,2,24,2s22,9.8716,22,22-9.8716,22-22,22h0ZM24,4.3755C13.1782,4.3755,4.3755,13.1782,4.3755,24s8.8026,19.6245,19.6245,19.6245,19.6245-8.8026,19.6245-19.6245S34.8218,4.3755,24,4.3755h0Z"
        style="fill:#f9b437; stroke-width:0px;" />
    <path
        d="M22.0732,20.2783l5.7277,6.1764c.2376.2376.3827.5543.3827.8842l-.5147,12.2472c-.0132.9634.6203,1.7289,1.5309,1.4121,5.4109-1.8872,8.7235-4.8698,10.3599-8.763.2376-.5543.1716-1.1878-.2376-1.6233l-4.9886-5.3185c-.3827-.3959-.5939-.9238-.5939-1.4781l-.0396-2.9562c0-.7654.6203-1.3725,1.3857-1.3725l3.9988.0528c1.8872,0,2.0456-.6995,1.7684-1.4649-1.8608-5.1734-5.2262-8.829-10.3467-10.7558-.5807-.2244-1.2142.1848-1.2406.805l-.3299,5.213c-.0264.5675-.4883,1.003-1.0426,1.003l-2.7978-.0132c-.7391,0-1.3725-.3563-1.6761-.6599l-5.6617-5.6617c-.3431-.3299-.8446-.4355-1.2801-.2376-4.5399,2.072-7.6545,5.4241-9.4757,10.162-.2771.7391.3167,1.5177,1.1086,1.5177l12.1812.0792c.6599.0264,1.3065.2903,1.7816.7522h0ZM26.072,17.0186c.7786-.7522,2.6395-.3827,3.8932.9106,1.2406,1.2933,1.9928,3.1278.8182,4.1044-.8314.6863-2.204.4355-3.5633-.7391-1.5177-1.2933-2.0324-3.4181-1.1482-4.2759h0Z"
        style="fill:#f9b437; stroke-width:0px;" />
</svg>