<?xml version="1.0" encoding="UTF-8"?>
<svg id="uuid-c5ebd2e1-ab2e-4374-94ee-ff7afe7a513f" xmlns="http://www.w3.org/2000/svg" width="48"
    height="48" viewBox="0 0 48 48">
    <defs>
        <style>
            .uuid-22b1d910-a44d-4d4a-8b3b-d54ece8c598e{fill:#e41a52;}.uuid-22b1d910-a44d-4d4a-8b3b-d54ece8c598e,.uuid-f82564e2-ab07-4810-b8bd-726e6788ab60,.uuid-19e2f44c-42be-472c-8008-238cc9aea2cf,.uuid-f17f7aef-3b3d-47f8-9eed-68d846f28e53,.uuid-9cbb457c-ab3c-4930-af96-5dcee2fd7dda,.uuid-0f30350e-d8ca-4383-9c57-a41dd4fdf9e2,.uuid-08ebadac-d5a8-4c85-a43e-3951681ca7d5,.uuid-aea91336-01b8-4ec4-a8d7-c7986ef112ab{stroke-width:0px;}.uuid-f82564e2-ab07-4810-b8bd-726e6788ab60{fill:#36a4cb;}.uuid-f17f7aef-3b3d-47f8-9eed-68d846f28e53{fill:#008c4a;}.uuid-9cbb457c-ab3c-4930-af96-5dcee2fd7dda{fill:#fff;}.uuid-0f30350e-d8ca-4383-9c57-a41dd4fdf9e2{fill:#52ad72;}.uuid-08ebadac-d5a8-4c85-a43e-3951681ca7d5{fill:#3d3d3d;}.uuid-aea91336-01b8-4ec4-a8d7-c7986ef112ab{fill:#52c7e8;}</style>
    </defs>
    <g id="uuid-bc16ae95-e7db-4f50-94a0-2ab8433438f3">
        <path id="uuid-9cde691f-e47e-4acf-85ef-5bd05e45ace1"
            class="uuid-08ebadac-d5a8-4c85-a43e-3951681ca7d5"
            d="M10.0107,2.0012l31.6216,6.8738h3.1001v37.125H9.1952c-1.2326,0-2.2318-1.0004-2.2318-2.2344v-9.4141L10.0075,2.0084l.0031-.0072h0Z" />
        <polygon class="uuid-9cbb457c-ab3c-4930-af96-5dcee2fd7dda"
            points="3.2676 37.0104 9.9622 32.9718 9.9622 2.0379 3.2676 6.0765 3.2676 37.0104" />
        <path class="uuid-19e2f44c-42be-472c-8008-238cc9aea2cf"
            d="M9.9622,2.6244v29.7741l-6.2042,3.7427V6.3539l6.2042-3.7294Z" />
        <path class="uuid-9cbb457c-ab3c-4930-af96-5dcee2fd7dda"
            d="M41.6427,32.9718H9.9622V2.0186l.0097-.0186h29.4392c1.2325,0,2.2315,1.0015,2.2315,2.2368v28.7349Z" />
        <path class="uuid-19e2f44c-42be-472c-8008-238cc9aea2cf"
            d="M39.4111,2.5289c.9601,0,1.7412.7819,1.7412,1.7431v28.2088H10.4526V2.5289h28.9585" />
        <rect class="uuid-f82564e2-ab07-4810-b8bd-726e6788ab60" x="21.3457" y="3.5112"
            width="8.9135" height="25.0691" />
        <path class="uuid-f82564e2-ab07-4810-b8bd-726e6788ab60"
            d="M39.4377,3.5112h-8.5042v25.0691h8.5042c.4052,0,.7337-.3061.7337-.6837V4.1949c0-.3776-.3285-.6837-.7337-.6837Z" />
        <path class="uuid-f82564e2-ab07-4810-b8bd-726e6788ab60"
            d="M20.6714,3.5112h-8.5041c-.4052,0-.7337.3061-.7337.6837v23.7016c0,.3776.3285.6837.7337.6837h8.5041V3.5112Z" />
        <path class="uuid-19e2f44c-42be-472c-8008-238cc9aea2cf"
            d="M13.2816,16.3729h2.2936c.3835,0,.6948.3113.6948.6948v2.2978c0,.3839-.3117.6956-.6956.6956h-2.2936c-.3835,0-.6948-.3113-.6948-.6948v-2.2978c0-.3839.3117-.6956.6956-.6956Z" />
        <path class="uuid-19e2f44c-42be-472c-8008-238cc9aea2cf"
            d="M23.8977,12.0718h2.2936c.3835,0,.6948.3113.6948.6948v2.2978c0,.3839-.3117.6956-.6956.6956h-2.2936c-.3835,0-.6948-.3113-.6948-.6948v-2.2978c0-.3839.3117-.6956.6956-.6956Z" />
        <path class="uuid-19e2f44c-42be-472c-8008-238cc9aea2cf"
            d="M34.4053,14.889h2.2944c.3835,0,.6948.3113.6948.6948v2.2978c0,.3839-.3117.6956-.6956.6956h-2.2936c-.3835,0-.6948-.3113-.6948-.6948v-2.2986c0-.3835.3113-.6948.6948-.6948Z" />
        <path class="uuid-aea91336-01b8-4ec4-a8d7-c7986ef112ab"
            d="M8.6593,4.3904l-3.9174,2.3548c-.2301.1383-.3708.3873-.3708.6559v23.4805c0,.2912.3176.4708.5667.3205l3.9179-2.3635c.2295-.1384.3698-.3871.3698-.6553V4.7112c0-.2909-.3171-.4706-.5662-.3208h0Z" />
        <path class="uuid-0f30350e-d8ca-4383-9c57-a41dd4fdf9e2"
            d="M8.6593,29.9423l-3.9174,2.3548c-.2301.1383-.3708.3873-.3708.6559v1.1732c0,.2912.3176.4708.5667.3205l3.9179-2.3635c.2295-.1384.3698-.3871.3698-.6553v-1.1648c0-.2909-.3171-.4706-.5662-.3208h0Z" />
        <path class="uuid-19e2f44c-42be-472c-8008-238cc9aea2cf"
            d="M5.6411,25.844l1.6871-1.0178c.3133-.189.5049-.5285.5049-.8947v-2.1829c0-.4004-.4366-.6473-.7792-.4407l-1.6871,1.0178c-.3133.189-.5049.5285-.5049.8947v2.1829c0,.4004.4366.6473.7792.4407Z" />
        <path class="uuid-22b1d910-a44d-4d4a-8b3b-d54ece8c598e"
            d="M35.5525,21.775c-2.7768,0-5.036-2.2617-5.036-5.0418s2.2591-5.042,5.036-5.042,5.036,2.262,5.036,5.042-2.2591,5.0418-5.036,5.0418ZM35.5525,13.0352c-2.0369,0-3.694,1.6588-3.694,3.698s1.6571,3.6978,3.694,3.6978,3.694-1.6588,3.694-3.6978-1.6571-3.698-3.694-3.698Z" />
        <path class="uuid-22b1d910-a44d-4d4a-8b3b-d54ece8c598e"
            d="M31.4377,29.563h8.2289c.2786,0,.5047.2264.5047.5053v.9249c0,.2789-.2262.5053-.5047.5053h-8.2283c-.2786,0-.5047-.2264-.5047-.5053v-.9254c0-.2786.2259-.5048.5042-.5048h0Z" />
        <path class="uuid-f17f7aef-3b3d-47f8-9eed-68d846f28e53"
            d="M21.841,29.563h7.9224c.2736,0,.4958.2224.4958.4964v.9428c0,.274-.2222.4964-.4958.4964h-7.9219c-.2736,0-.4958-.2224-.4958-.4964v-.9433c0-.2737.2219-.4958.4953-.4958h0Z" />
        <path class="uuid-f17f7aef-3b3d-47f8-9eed-68d846f28e53"
            d="M11.9377,29.563h8.2289c.2786,0,.5047.2264.5047.5053v.9249c0,.2789-.2262.5053-.5047.5053h-8.2283c-.2786,0-.5047-.2264-.5047-.5053v-.9254c0-.2786.2259-.5048.5042-.5048h0Z" />
    </g>
    <g id="uuid-32bcd1ab-6c4f-4267-84d4-680af91f1fd8">
        <path class="uuid-9cbb457c-ab3c-4930-af96-5dcee2fd7dda"
            d="M22.7007,38.491v1.4943c0,1.5686-.9642,2.6452-2.809,2.6452-1.8078,0-2.7998-1.0766-2.7998-2.6452v-1.4943c0-1.5778.9827-2.6545,2.7998-2.6545,1.8449,0,2.809,1.0766,2.809,2.6545h0ZM18.7143,38.4817v1.4943c0,.9838.3986,1.4943,1.1774,1.4943s1.1774-.5105,1.1774-1.4943v-1.4943c0-.9745-.3986-1.485-1.1774-1.485s-1.1774.5105-1.1774,1.485Z" />
        <path class="uuid-9cbb457c-ab3c-4930-af96-5dcee2fd7dda"
            d="M28.9592,41.5075v.9746c-.1669.0928-.3986.1392-.6489.1392-.5655,0-1.0105-.1671-1.3628-.9003l-.7788-1.5778h-.7138v2.3389h-1.6224v-6.497h2.4568c1.4091,0,2.3547.6776,2.3547,1.7634v.5847c0,.6404-.3986,1.1416-1.029,1.4572l.7231,1.3643c.1205.2413.2781.3527.547.3527h.0742,0ZM25.4549,39.0757h.7046c.5192,0,.8622-.2691.8622-.7703v-.4641c0-.4919-.3523-.7425-.8622-.7425h-.7046v1.9769h0Z" />
        <path class="uuid-9cbb457c-ab3c-4930-af96-5dcee2fd7dda"
            d="M29.1899,35.9851h1.678l1.3442,5.2254,1.2237-5.2254h1.641l-1.8078,6.497h-2.1601l-1.919-6.497Z" />
    </g>
</svg>