<?xml version="1.0" encoding="UTF-8"?><svg id="uuid-2d3e5d94-c0d0-4017-beb2-86be82898227" xmlns="http://www.w3.org/2000/svg" width="48" height="48" viewBox="0 0 48 48"><g id="uuid-a050c27d-c7b4-4145-b102-ccfc257e6d3f"><path id="uuid-71616f17-7418-40fe-9ae0-94430456b11b" d="M9.3579,1.0013l33.0971,7.1862h3.2447v38.8125H8.5044c-1.2901,0-2.3359-1.0458-2.3359-2.3359v-9.842L9.3547,1.0088l.0033-.0075h0Z" style="fill:#3d3d3d; stroke-width:0px;"/><polygon points="2.3003 37.6018 9.3072 33.3796 9.3072 1.0396 2.3003 5.2618 2.3003 37.6018" style="fill:#fff; stroke-width:0px;"/><path d="M9.3072,1.6528v31.1275l-6.4937,3.9128V5.5518l6.4937-3.899Z" style="stroke-width:0px;"/><path d="M42.4659,33.3796H9.3072V1.0195l.0102-.0195h30.8128c1.29,0,2.3357,1.047,2.3357,2.3385v30.0411Z" style="fill:#fff; stroke-width:0px;"/><path d="M40.1302,1.553c1.0049,0,1.8224.8175,1.8224,1.8223v29.491H9.8205V1.553h30.3097" style="stroke-width:0px;"/><rect x="21.2219" y="2.5799" width="9.3294" height="26.2086" style="fill:#36a4cb; stroke-width:0px;"/><path d="M40.158,2.5799h-8.901v26.2086h8.901c.4241,0,.7679-.32.7679-.7148V3.2947c0-.3948-.3438-.7148-.7679-.7148Z" style="fill:#36a4cb; stroke-width:0px;"/><path d="M20.5161,2.5799h-8.9009c-.4241,0-.7679.32-.7679.7148v24.779c0,.3947.3438.7148.7679.7148h8.9009V2.5799Z" style="fill:#36a4cb; stroke-width:0px;"/><rect x="12.0535" y="16.0262" width="3.8559" height="3.8559" rx=".7272" ry=".7272" style="stroke-width:0px;"/><rect x="23.1648" y="11.5296" width="3.8559" height="3.8559" rx=".7272" ry=".7272" style="stroke-width:0px;"/><rect x="34.1636" y="14.4749" width="3.8559" height="3.8559" rx=".7272" ry=".7272" style="stroke-width:0px;"/><path d="M7.9435,3.499l-4.1002,2.4618c-.2408.1446-.3881.4049-.3881.6857v24.5478c0,.3044.3324.4922.5932.3351l4.1007-2.4709c.2402-.1447.387-.4047.387-.6851V3.8345c0-.3042-.3319-.492-.5926-.3354h0Z" style="fill:#52c7e8; stroke-width:0px;"/><path d="M7.9435,30.2124l-4.1002,2.4618c-.2408.1446-.3881.4049-.3881.6857v1.2265c0,.3044.3324.4922.5932.3351l4.1007-2.4709c.2402-.1447.387-.4047.387-.6851v-1.2178c0-.3042-.3319-.492-.5926-.3354h0Z" style="fill:#52ad72; stroke-width:0px;"/><path d="M4.7845,25.9278l1.7658-1.064c.3279-.1976.5285-.5525.5285-.9354v-2.2821c0-.4186-.457-.6767-.8155-.4607l-1.7658,1.064c-.3279.1976-.5285.5525-.5285.9354v2.2821c0,.4186.457.6767.8155.4607Z" style="stroke-width:0px;"/><path d="M36.0915,21.6739c-2.9064,0-5.2709-2.3645-5.2709-5.2709s2.3645-5.2712,5.2709-5.2712,5.2709,2.3648,5.2709,5.2712-2.3645,5.2709-5.2709,5.2709ZM36.0915,12.5368c-2.1319,0-3.8663,1.7342-3.8663,3.8661s1.7344,3.8659,3.8663,3.8659,3.8663-1.7342,3.8663-3.8659-1.7344-3.8661-3.8663-3.8661Z" style="fill:#e41a52; stroke-width:0px;"/><path d="M31.7848,29.8159h8.6128c.2916,0,.5283.2367.5283.5283v.9669c0,.2916-.2367.5283-.5283.5283h-8.6123c-.2916,0-.5283-.2367-.5283-.5283v-.9675c0-.2913.2365-.5277.5277-.5277h0Z" style="fill:#e41a52; stroke-width:0px;"/><path d="M21.7402,29.8159h8.2921c.2864,0,.5189.2325.5189.5189v.9856c0,.2864-.2325.5189-.5189.5189h-8.2915c-.2864,0-.5189-.2325-.5189-.5189v-.9862c0-.2861.2323-.5184.5184-.5184h0Z" style="fill:#008c4a; stroke-width:0px;"/><path d="M11.3749,29.8159h8.6128c.2916,0,.5283.2367.5283.5283v.9669c0,.2916-.2367.5283-.5283.5283h-8.6123c-.2916,0-.5283-.2367-.5283-.5283v-.9675c0-.2913.2365-.5277.5277-.5277h0Z" style="fill:#008c4a; stroke-width:0px;"/></g><g id="uuid-d38ff2d7-21ec-43e4-9e76-4ce58911c0fc"><path d="M22.6401,39.1497v1.5622c0,1.6399-1.0092,2.7655-2.9401,2.7655-1.8922,0-2.9304-1.1256-2.9304-2.7655v-1.5622c0-1.6496,1.0286-2.7752,2.9304-2.7752,1.9309,0,2.9401,1.1256,2.9401,2.7752h0ZM18.4677,39.14v1.5623c0,1.0285.4172,1.5622,1.2323,1.5622s1.2323-.5337,1.2323-1.5622v-1.5623c0-1.0188-.4172-1.5525-1.2323-1.5525s-1.2323.5337-1.2323,1.5525Z" style="fill:#fff; stroke-width:0px;"/><path d="M29.1906,42.3033v1.0189c-.1747.097-.4172.1456-.6792.1456-.5919,0-1.0577-.1747-1.4264-.9412l-.8151-1.6496h-.7471v2.4452h-1.6981v-6.7923h2.5714c1.4749,0,2.4646.7084,2.4646,1.8436v.6113c0,.6695-.4172,1.1935-1.077,1.5234l.7568,1.4264c.1262.2523.2911.3687.5725.3687h.0776,0ZM25.5228,39.761h.7374c.5434,0,.9024-.2814.9024-.8053v-.4852c0-.5142-.3688-.7763-.9024-.7763h-.7374v2.0668h0Z" style="fill:#fff; stroke-width:0px;"/><path d="M29.432,36.5298h1.7563l1.407,5.4629,1.2808-5.4629h1.7175l-1.8922,6.7923h-2.2609l-2.0085-6.7923Z" style="fill:#fff; stroke-width:0px;"/></g></svg>