<?xml version="1.0" encoding="UTF-8"?>
<svg id="uuid-3fa61b2e-5b5c-469f-9eb7-2d5d27c6f5fb" xmlns="http://www.w3.org/2000/svg" width="48"
    height="48" xmlns:xlink="http://www.w3.org/1999/xlink" viewBox="0 0 48 48">
    <defs>
        <linearGradient id="uuid-02c74a11-173e-4da7-bef0-31dc5769a733" x1="17.8481" y1="3.3858"
            x2="29.859" y2="43.6328" gradientUnits="userSpaceOnUse">
            <stop offset="0" stop-color="#4c4c4c" />
            <stop offset="1" stop-color="#343434" />
        </linearGradient>
        <linearGradient id="uuid-e2cb0b3d-d6bf-4f96-a2ac-b9dfd77636ce" x1="11.6887" y1="11.6887"
            x2="36.3113" y2="36.3113" gradientUnits="userSpaceOnUse">
            <stop offset="0" stop-color="#fafafb" />
            <stop offset=".293" stop-color="#f6f7f8" />
            <stop offset=".566" stop-color="#ebecee" />
            <stop offset=".832" stop-color="#d8dcdf" />
            <stop offset="1" stop-color="#c8cdd1" />
        </linearGradient>
    </defs>
    <rect x="2" y="2" width="44" height="44" rx="1.875" ry="1.875"
        style="fill:url(#uuid-02c74a11-173e-4da7-bef0-31dc5769a733); stroke-width:0px;" />
    <path
        d="M24,40.4432c-3.5481,0-6.9298-1.1174-9.7794-3.231-2.6846-1.9983-4.6735-4.7115-5.7692-7.8618l-3.6649-.0009c-.5296,0-.9607-.4306-.9607-.9607v-8.7775c0-.5301.4311-.9607.9607-.9607h3.6645c1.0962-3.1504,3.0847-5.8635,5.7678-7.8628,2.8516-2.1137,6.2336-3.231,9.7813-3.231s6.9298,1.1174,9.7794,3.231c2.6846,1.9983,4.6735,4.7115,5.7692,7.8618l3.6649.0009c.5296,0,.9607.4306.9607.9607v8.7775c0,.5301-.4311.9607-.9607.9607h-3.6645c-1.0962,3.1504-3.0847,5.8635-5.7678,7.8628-2.8516,2.1137-6.2336,3.231-9.7813,3.231ZM11.9315,29.3485c1.4227,3.1954,4.0688,5.7134,7.3519,6.9687,1.518.5798,3.1044.8744,4.7138.8744,5.2017,0,9.9652-3.1231,12.0704-7.8421h-1.631c-.5296,0-.9607-.4306-.9607-.9607v-2.7685h-1.3022v5.5933c0,.5301-.4311.9607-.9607.9607h-14.4262c-.5296,0-.9607-.4306-.9607-.9607v-14.4271c0-.5301.4311-.9607.9607-.9607h14.4262c.5296,0,.9607.4306.9607.9607v5.5943h1.3022v-2.7685c0-.5301.4311-.9607.9607-.9607h1.6319c-1.4227-3.1954-4.0688-5.7134-7.3519-6.9687-1.518-.5798-3.1044-.8744-4.7138-.8744-5.2017,0-9.9652,3.1231-12.0704,7.8421h1.6343c.5296,0,.9607.4306.9607.9607v8.7765c0,.5301-.4311.9607-.9607.9607h-1.6352ZM28.9315,28.9319v-3.3117h-.5193c-.6736,1.8322-2.4392,3.0819-4.4155,3.0819-2.5926-.0009-4.7011-2.1109-4.7002-4.704.0009-2.5921,2.1104-4.7002,4.7016-4.7002,1.9734.0075,3.7376,1.259,4.4131,3.0856h.5202v-3.3155h-9.8629v9.8639h9.8629ZM40.9353,26.1137v-4.2274h-4.2203v4.2274h4.2203ZM11.2851,26.1137v-4.2274h-4.2203v4.2274h4.2203ZM23.9995,22.5383c-.8059,0-1.4617.6558-1.4617,1.4617s.6558,1.4617,1.4621,1.4617,1.4621-.6558,1.4621-1.4617c-.0009-.8049-.6567-1.4607-1.4626-1.4617Z"
        style="opacity:.05; stroke-width:0px;" />
    <path
        d="M24,39.9629c-3.4445,0-6.7271-1.0845-9.4933-3.1363-2.6977-2.0086-4.6716-4.7593-5.7101-7.9566l-4.0102-.0009c-.2655,0-.4803-.2148-.4803-.4803v-8.7775c0-.2655.2148-.4803.4803-.4803h4.0097c1.039-3.1982,3.0134-5.9489,5.7097-7.9575,2.7671-2.0518,6.0498-3.1363,9.4942-3.1363s6.7271,1.0845,9.4933,3.1363c2.6977,2.0086,4.6716,4.7593,5.7101,7.9566l4.0102.0009c.2655,0,.4803.2148.4803.4803v8.7775c0,.2655-.2148.4803-.4803.4803h-4.0097c-1.039,3.1982-3.0134,5.9489-5.7097,7.9575-2.7671,2.0518-6.0498,3.1363-9.4942,3.1363ZM11.2133,28.8681c1.389,3.6316,4.2677,6.5099,7.8984,7.8975,1.5733.6014,3.217.9063,4.8855.9063,5.6356,0,10.7748-3.5378,12.7891-8.8028h-2.3496c-.2655,0-.4803-.2148-.4803-.4803v-3.2489h-2.2629v6.0737c0,.2655-.2148.4803-.4803.4803h-14.4262c-.2655,0-.4803-.2148-.4803-.4803v-14.4271c0-.2655.2148-.4803.4803-.4803h14.4262c.2655,0,.4803.2148.4803.4803v6.0746h2.2629v-3.2489c0-.2655.2148-.4803.4803-.4803h2.3501c-1.389-3.6316-4.2677-6.5099-7.8984-7.8975-1.5733-.6014-3.217-.9063-4.8855-.9063-5.6356,0-10.7748,3.5378-12.7891,8.8028h2.3529c.2655,0,.4803.2148.4803.4803v8.7765c0,.2655-.2148.4803-.4803.4803h-2.3534ZM29.4118,29.4123v-4.2724h-1.3486c-.509,1.8144-2.1808,3.0819-4.0665,3.0819-2.3281-.0009-4.2208-1.896-4.2199-4.2236.0009-2.3266,1.8946-4.2199,4.2213-4.2199,1.8829.0075,3.5533,1.2759,4.0651,3.0856h1.3486v-4.2762h-10.8236v10.8245h10.8236ZM41.4156,26.594v-5.1881h-5.181v5.1881h5.181ZM11.7654,26.594v-5.1881h-5.181v5.1881h5.181ZM24,22.058c-1.0714,0-1.9425.8716-1.9425,1.942s.8716,1.942,1.9425,1.942,1.9425-.8716,1.9425-1.942c-.0009-1.0695-.872-1.9411-1.9425-1.942Z"
        style="opacity:.07; stroke-width:0px;" />
    <path
        d="M39.3843,19.0744c-1.0456-3.2183-3.065-6.0324-5.779-8.0534-5.7047-4.2308-13.5059-4.2308-19.2106,0-2.714,2.021-4.7334,4.8351-5.779,8.0534l-.1114.3474H3.9556v9.1563h4.5488l.1114.3474c1.0456,3.2183,3.065,6.0324,5.779,8.0534,5.7047,4.2308,13.5059,4.2308,19.2106,0,2.714-2.021,4.7334-4.8351,5.779-8.0534l.1114-.3474h4.5488v-9.1563h-4.5488l-.1114-.3474ZM7.5671,27.2071h-2.237v-6.4142h6.4071v6.4142h-4.1701ZM37.8084,29.2561c-2.9154,7.6262-11.461,11.445-19.0872,8.5296-3.9267-1.5011-7.0285-4.603-8.5296-8.5296l-.2584-.6788h3.1822v-9.1554h-3.1857l.2619-.6779c2.9154-7.6262,11.461-11.445,19.0872-8.5296,3.9267,1.5011,7.0285,4.603,8.5296,8.5296l.2584.6788h-3.1786v3.8904h-3.363v-6.8383h-15.0503v15.0503h15.0503v-6.8374h3.363v3.8904h3.1822l-.2619.6779ZM24,20.0971c-2.1555-.0009-3.9036,1.7458-3.9045,3.9013-.0009,2.1555,1.7458,3.9036,3.9013,3.9045,1.7509.0007,3.288-1.1647,3.76-2.8508l.1024-.3644h2.2877v5.4592h-12.2939v-12.2939h12.2939v5.4628h-2.2877l-.1024-.3644c-.4753-1.6829-2.008-2.8474-3.7568-2.8543ZM26.5274,24c0,1.3958-1.1315,2.5274-2.5274,2.5274s-2.5274-1.1315-2.5274-2.5274,1.1315-2.5274,2.5274-2.5274h0c1.3954.001,2.5264,1.132,2.5274,2.5274ZM40.4329,20.7929h2.237v6.4142h-6.4071v-6.4142h4.1701Z"
        style="fill:url(#uuid-e2cb0b3d-d6bf-4f96-a2ac-b9dfd77636ce); stroke-width:0px;" />
</svg>