<?xml version="1.0" encoding="UTF-8"?>
<svg id="Layer_1" data-name="Layer 1" xmlns="http://www.w3.org/2000/svg" width="48" height="48" viewBox="0 0 48 48">
  <path d="m35.2131,13.3853c-.2485-.3553-.4147-.5066-.8199-.5066-1.0806,0,.1,3.8634-3.2014,5.8531C33.4652,5.3276,23.6339.6916,22.2021.1324c-.0757-.0297-.2675-.1324-.543-.1324-.6471,0-1.1712.5241-1.1712,1.1711,0,.0864.0108.204.0297.2701,2.7368,12.0966-14.0782,14.7307-14.0782,28.998,0,8.5777,6.8959,17.5607,17.5607,17.5607,9.6989,0,17.5607-7.8618,17.5607-17.5607,0-5.7518-2.7354-11.8994-6.3475-17.0541Zm-11.2131,31.9131c-5.2223,0-9.4557-4.2335-9.4557-9.4557,0-8.2737,8.2738-10.6377,7.0918-17.7295,0-.6524.5295-1.1819,1.182-1.1819.4323,0,.7308.254.7308.254,3.9728,2.9272,9.9069,11.9196,9.9069,18.6575,0,5.2223-4.2335,9.4557-9.4557,9.4557Z" fill="#fff" stroke-width="0"/>
  <g>
    <path d="m21.5049,38.8798c-2.8867,0-5.2354-2.3486-5.2354-5.2354s2.3486-5.2358,5.2354-5.2358,5.2358,2.3486,5.2358,5.2358-2.3486,5.2354-5.2358,5.2354Z" opacity=".05" stroke-width="0"/>
    <path d="m21.5049,38.3798c-2.6108,0-4.7354-2.1245-4.7354-4.7354s2.1245-4.7358,4.7354-4.7358,4.7358,2.1245,4.7358,4.7358-2.1245,4.7354-4.7358,4.7354Z" opacity=".07" stroke-width="0"/>
    <circle cx="21.5051" cy="33.6442" r="4.2357" fill="#fff" stroke-width="0"/>
    <path d="m25.4673,30.4086c-1.7568,0-3.186-1.4292-3.186-3.186s1.4292-3.1865,3.186-3.1865,3.1865,1.4297,3.1865,3.1865-1.4297,3.186-3.1865,3.186Z" opacity=".05" stroke-width="0"/>
    <path d="m25.4673,29.9086c-1.481,0-2.686-1.2051-2.686-2.686s1.2051-2.6865,2.686-2.6865,2.6865,1.2051,2.6865,2.6865-1.2051,2.686-2.6865,2.686Z" opacity=".07" stroke-width="0"/>
    <circle cx="25.4675" cy="27.2224" r="2.1861" fill="#fff" stroke-width="0"/>
    <path d="m27.2436,43.5253c-2.1333,0-3.8691-1.7358-3.8691-3.8691s1.7358-3.8691,3.8691-3.8691,3.8696,1.7358,3.8696,3.8691-1.7358,3.8691-3.8696,3.8691Z" opacity=".05" stroke-width="0"/>
    <path d="m27.2436,43.0253c-1.8579,0-3.3691-1.5112-3.3691-3.3691s1.5112-3.3691,3.3691-3.3691,3.3696,1.5112,3.3696,3.3691-1.5117,3.3691-3.3696,3.3691Z" opacity=".07" stroke-width="0"/>
    <circle cx="27.2437" cy="39.6561" r="2.8693" fill="#fff" stroke-width="0"/>
  </g>
</svg>