<?xml version="1.0" encoding="UTF-8"?><svg id="uuid-80b8988d-5130-4da7-a74c-3d3de95103a7" xmlns="http://www.w3.org/2000/svg" width="64" height="64" viewBox="0 0 64 64"><defs><style>.uuid-831290e9-c352-4037-99cb-5acef5a801dd{fill:#606060;}.uuid-831290e9-c352-4037-99cb-5acef5a801dd,.uuid-38f4fd55-f265-4104-bc79-d84420d7fe02{stroke-width:0px;}.uuid-38f4fd55-f265-4104-bc79-d84420d7fe02{fill:none;}</style></defs><path class="uuid-38f4fd55-f265-4104-bc79-d84420d7fe02" d="M0,0h64v64H0V0Z"/><path class="uuid-831290e9-c352-4037-99cb-5acef5a801dd" d="M48,50.6667H16c-1.4667,0-2.6667-1.2-2.6667-2.6667V16c0-1.4667,1.2-2.6667,2.6667-2.6667h32c1.4667,0,2.6667,1.2,2.6667,2.6667v32c0,1.4667-1.2,2.6667-2.6667,2.6667ZM50.6667,8H13.3333c-2.9333,0-5.3333,2.4-5.3333,5.3333v37.3333c0,2.9333,2.4,5.3333,5.3333,5.3333h37.3333c2.9333,0,5.3333-2.4,5.3333-5.3333V13.3333c0-2.9333-2.4-5.3333-5.3333-5.3333Z"/></svg>