<?xml version="1.0" encoding="UTF-8"?><svg id="uuid-3a796c7d-27de-4ab2-8a3b-eb12e4e8f065" xmlns="http://www.w3.org/2000/svg" width="64" height="64" viewBox="0 0 64 64"><defs><style>.uuid-04e477a6-f307-43c2-be69-9603ca7d0001{fill:none;}.uuid-04e477a6-f307-43c2-be69-9603ca7d0001,.uuid-2b07dcd6-23af-464a-b6d9-826fa28683a3{stroke-width:0px;}.uuid-2b07dcd6-23af-464a-b6d9-826fa28683a3{fill:#a2a2a2;}</style></defs><path class="uuid-04e477a6-f307-43c2-be69-9603ca7d0001" d="M0,0h64v64H0V0Z"/><path class="uuid-2b07dcd6-23af-464a-b6d9-826fa28683a3" d="M50.6667,8H13.3333c-2.9333,0-5.3333,2.4-5.3333,5.3333v37.3333c0,2.9333,2.4,5.3333,5.3333,5.3333h37.3333c2.9333,0,5.3333-2.4,5.3333-5.3333V13.3333c0-2.9333-2.4-5.3333-5.3333-5.3333ZM28.56,43.44c-1.04,1.04-2.72,1.04-3.76,0l-9.5733-9.5733c-1.04-1.04-1.04-2.72,0-3.76s2.72-1.04,3.76,0l7.68,7.68,18.3467-18.3467c1.04-1.04,2.72-1.04,3.76,0s1.04,2.72,0,3.76l-20.2133,20.24Z"/></svg>