<?xml version="1.0" encoding="UTF-8"?><svg id="uuid-e2095de5-a902-4900-aebc-25097bfd71f3" xmlns="http://www.w3.org/2000/svg" width="64" height="64" viewBox="0 0 64 64"><defs><style>.uuid-7cb90473-78b6-4e32-8012-340522eea32d{fill:none;}.uuid-7cb90473-78b6-4e32-8012-340522eea32d,.uuid-a1b8a7a6-850a-49a8-b759-86208794a585{stroke-width:0px;}.uuid-a1b8a7a6-850a-49a8-b759-86208794a585{fill:#a2a2a2;}</style></defs><path class="uuid-7cb90473-78b6-4e32-8012-340522eea32d" d="M0,0h64v64H0V0Z"/><path class="uuid-a1b8a7a6-850a-49a8-b759-86208794a585" d="M48,50.6667H16c-1.4667,0-2.6667-1.2-2.6667-2.6667V16c0-1.4667,1.2-2.6667,2.6667-2.6667h32c1.4667,0,2.6667,1.2,2.6667,2.6667v32c0,1.4667-1.2,2.6667-2.6667,2.6667ZM50.6667,8H13.3333c-2.9333,0-5.3333,2.4-5.3333,5.3333v37.3333c0,2.9333,2.4,5.3333,5.3333,5.3333h37.3333c2.9333,0,5.3333-2.4,5.3333-5.3333V13.3333c0-2.9333-2.4-5.3333-5.3333-5.3333Z"/></svg>