<?xml version="1.0" encoding="UTF-8"?><svg id="uuid-1fe905ab-2c89-4444-9b39-17c66284224e" xmlns="http://www.w3.org/2000/svg" width="64" height="64" viewBox="0 0 64 64"><defs><style>.uuid-aa4eefb7-7c7a-422f-b6e3-f5761b5da10b{fill:none;}.uuid-aa4eefb7-7c7a-422f-b6e3-f5761b5da10b,.uuid-3aaf147a-63cf-422b-b0be-5c8551f32d1e{stroke-width:0px;}.uuid-3aaf147a-63cf-422b-b0be-5c8551f32d1e{fill:#fff;}</style></defs><path class="uuid-aa4eefb7-7c7a-422f-b6e3-f5761b5da10b" d="M0,0h64v64H0V0Z"/><path class="uuid-3aaf147a-63cf-422b-b0be-5c8551f32d1e" d="M48,50.6667H16c-1.4667,0-2.6667-1.2-2.6667-2.6667V16c0-1.4667,1.2-2.6667,2.6667-2.6667h32c1.4667,0,2.6667,1.2,2.6667,2.6667v32c0,1.4667-1.2,2.6667-2.6667,2.6667ZM50.6667,8H13.3333c-2.9333,0-5.3333,2.4-5.3333,5.3333v37.3333c0,2.9333,2.4,5.3333,5.3333,5.3333h37.3333c2.9333,0,5.3333-2.4,5.3333-5.3333V13.3333c0-2.9333-2.4-5.3333-5.3333-5.3333Z"/></svg>