<?xml version="1.0" encoding="UTF-8"?><svg id="uuid-2631c592-d115-46e2-8f8b-4c6dcfbb8552" xmlns="http://www.w3.org/2000/svg" width="64" height="64" viewBox="0 0 64 64"><defs><style>.uuid-4fb75793-ebd7-4157-81ab-a5fc5315da91{fill:none;}.uuid-4fb75793-ebd7-4157-81ab-a5fc5315da91,.uuid-6b714903-d0ff-4710-836e-02a5820c738d{stroke-width:0px;}.uuid-6b714903-d0ff-4710-836e-02a5820c738d{fill:#a2a2a2;}</style></defs><path class="uuid-4fb75793-ebd7-4157-81ab-a5fc5315da91" d="M0,0h64v64H0V0Z"/><path class="uuid-6b714903-d0ff-4710-836e-02a5820c738d" d="M50.6667,8H13.3333c-2.9333,0-5.3333,2.4-5.3333,5.3333v37.3333c0,2.9333,2.4,5.3333,5.3333,5.3333h37.3333c2.9333,0,5.3333-2.4,5.3333-5.3333V13.3333c0-2.9333-2.4-5.3333-5.3333-5.3333ZM42.6667,34.6667h-21.3333c-1.4667,0-2.6667-1.2-2.6667-2.6667s1.2-2.6667,2.6667-2.6667h21.3333c1.4667,0,2.6667,1.2,2.6667,2.6667s-1.2,2.6667-2.6667,2.6667Z"/></svg>