<?xml version="1.0" encoding="UTF-8"?><svg id="uuid-ae80335d-2ca7-4396-a238-09d912a8aae1" xmlns="http://www.w3.org/2000/svg" width="64" height="64" viewBox="0 0 64 64"><defs><style>.uuid-27ada04c-f219-43af-bd81-4cb9b8a4bda4{fill:#606060;}.uuid-27ada04c-f219-43af-bd81-4cb9b8a4bda4,.uuid-361dd287-580c-429f-8941-5c9298b64195{stroke-width:0px;}.uuid-361dd287-580c-429f-8941-5c9298b64195{fill:none;}</style></defs><path class="uuid-361dd287-580c-429f-8941-5c9298b64195" d="M0,0h64v64H0V0Z"/><path class="uuid-27ada04c-f219-43af-bd81-4cb9b8a4bda4" d="M50.6667,8H13.3333c-2.9333,0-5.3333,2.4-5.3333,5.3333v37.3333c0,2.9333,2.4,5.3333,5.3333,5.3333h37.3333c2.9333,0,5.3333-2.4,5.3333-5.3333V13.3333c0-2.9333-2.4-5.3333-5.3333-5.3333ZM42.6667,34.6667h-21.3333c-1.4667,0-2.6667-1.2-2.6667-2.6667s1.2-2.6667,2.6667-2.6667h21.3333c1.4667,0,2.6667,1.2,2.6667,2.6667s-1.2,2.6667-2.6667,2.6667Z"/></svg>