<?xml version="1.0" encoding="UTF-8"?><svg id="uuid-aed28367-874e-4266-8f24-8b57fc4f08b4" xmlns="http://www.w3.org/2000/svg" width="64" height="64" viewBox="0 0 64 64"><defs><style>.uuid-510c4f5f-5339-4f6f-8d0f-d0ea11c75d41{fill:none;}.uuid-510c4f5f-5339-4f6f-8d0f-d0ea11c75d41,.uuid-a32224b8-96b7-46ef-9ec9-73586a5235e2{stroke-width:0px;}.uuid-a32224b8-96b7-46ef-9ec9-73586a5235e2{fill:#c00;}</style></defs><path class="uuid-510c4f5f-5339-4f6f-8d0f-d0ea11c75d41" d="M0,0h64v64H0V0Z"/><path class="uuid-a32224b8-96b7-46ef-9ec9-73586a5235e2" d="M32,5.3333c-14.7467,0-26.6667,11.92-26.6667,26.6667s11.92,26.6667,26.6667,26.6667,26.6667-11.92,26.6667-26.6667S46.7467,5.3333,32,5.3333ZM43.4667,43.4667c-1.04,1.04-2.72,1.04-3.76,0l-7.7067-7.7067-7.7067,7.7067c-1.04,1.04-2.72,1.04-3.76,0-1.04-1.04-1.04-2.72,0-3.76l7.7067-7.7067-7.7067-7.7067c-1.04-1.04-1.04-2.72,0-3.76,1.04-1.04,2.72-1.04,3.76,0l7.7067,7.7067,7.7067-7.7067c1.04-1.04,2.72-1.04,3.76,0,1.04,1.04,1.04,2.72,0,3.76l-7.7067,7.7067,7.7067,7.7067c1.0133,1.0133,1.0133,2.72,0,3.76Z"/></svg>