<?xml version="1.0" encoding="UTF-8"?><svg id="uuid-2f77c5a2-2de0-4fa8-8eca-351b2503deeb" xmlns="http://www.w3.org/2000/svg" width="64" height="64" viewBox="0 0 64 64"><defs><style>.uuid-7352ad10-3361-468d-8d86-2d4542413d45{fill:#606060;}.uuid-7352ad10-3361-468d-8d86-2d4542413d45,.uuid-4e9af743-5666-44ca-8867-b71c087a92e9{stroke-width:0px;}.uuid-4e9af743-5666-44ca-8867-b71c087a92e9{fill:none;}</style></defs><path class="uuid-4e9af743-5666-44ca-8867-b71c087a92e9" d="M0,0h64v64H0V0Z"/><path class="uuid-7352ad10-3361-468d-8d86-2d4542413d45" d="M32,5.3333c-14.72,0-26.6667,11.9467-26.6667,26.6667s11.9467,26.6667,26.6667,26.6667,26.6667-11.9467,26.6667-26.6667S46.72,5.3333,32,5.3333ZM32,53.3333c-11.7867,0-21.3333-9.5467-21.3333-21.3333s9.5467-21.3333,21.3333-21.3333,21.3333,9.5467,21.3333,21.3333-9.5467,21.3333-21.3333,21.3333ZM32,18.6667c7.3638,0,13.3333,5.9695,13.3333,13.3333s-5.9695,13.3333-13.3333,13.3333-13.3333-5.9695-13.3333-13.3333,5.9695-13.3333,13.3333-13.3333Z"/></svg>