<?xml version="1.0" encoding="UTF-8"?>
<svg id="uuid-3c173a0a-73d0-4cd4-ab88-b1b16299e923" data-name="Layer 1" xmlns="http://www.w3.org/2000/svg" width="62" height="62" viewBox="0 0 62 62">
  <path d="M53.1883,20.6714l-20.954,12.1316c-.787.4557-1.7576.4557-2.5446,0l-20.9532-12.1311c-.6069-.3513-.814-1.1281-.4627-1.735.1112-.192.2708-.3516.4628-.4627L29.6998,6.3416c.7871-.4556,1.7578-.4554,2.5448.0005l20.9439,12.132c.6068.3515.8137,1.1283.4623,1.7351-.1111.1919-.2706.3513-.4625.4624Z" style="fill: #f5f5f5; stroke-width: 0px;"/>
  <path d="M53.7569,43.0044c-.1298.2338-.3117.4286-.5584.5195l-20.9611,12.1299c-.7922.4546-1.7662.4546-2.5454,0l-20.9481-12.1169c-.6104-.3507-.8182-1.1429-.4675-1.7533.1168-.1818.2727-.3506.4675-.4545l6.6883-3.8831,1.2728-.7273h.013l12.974,7.5065c.7792.4675,1.7532.4675,2.5454,0l12.987-7.5195.013.013.6234.3636.6234.3637,6.7143,3.8831c.6234.3247.8831,1.0519.5584,1.6753Z" style="fill: #f5f5f5; stroke-width: 0px;"/>
</svg>